<?xml version="1.0" encoding="UTF-8" standalone="no"?>
<!DOCTYPE svg PUBLIC "-//W3C//DTD SVG 1.1//EN"
 "http://www.w3.org/Graphics/SVG/1.1/DTD/svg11.dtd">
<!-- Generated by graphviz version 2.43.0 (0)
 -->
<!-- Title: /home/runner/work/Simopticon/Simopticon/src/utils/Abortable.h Pages: 1 -->
<svg width="860pt" height="351pt"
 viewBox="0.00 0.00 860.00 351.00" xmlns="http://www.w3.org/2000/svg" xmlns:xlink="http://www.w3.org/1999/xlink">
<g id="graph0" class="graph" transform="scale(1 1) rotate(0) translate(4 347)">
<title>/home/runner/work/Simopticon/Simopticon/src/utils/Abortable.h</title>
<polygon fill="white" stroke="transparent" points="-4,4 -4,-347 856,-347 856,4 -4,4"/>
<!-- Node1 -->
<g id="node1" class="node">
<title>Node1</title>
<g id="a_node1"><a xlink:title="In this file, the header of the Abortable class is defined.">
<polygon fill="#bfbfbf" stroke="black" points="358,-312.5 358,-342.5 533,-342.5 533,-312.5 358,-312.5"/>
<text text-anchor="start" x="366" y="-330.5" font-family="Helvetica,sans-Serif" font-size="10.00">/home/runner/work/Simopticon</text>
<text text-anchor="middle" x="445.5" y="-319.5" font-family="Helvetica,sans-Serif" font-size="10.00">/Simopticon/src/utils/Abortable.h</text>
</a>
</g>
</g>
<!-- Node2 -->
<g id="node2" class="node">
<title>Node2</title>
<g id="a_node2"><a xlink:href="Controller_8h.xhtml" target="_top" xlink:title="In this file, the header of the Controller class is defined.">
<polygon fill="white" stroke="black" points="251,-156.5 251,-197.5 418,-197.5 418,-156.5 251,-156.5"/>
<text text-anchor="start" x="259" y="-185.5" font-family="Helvetica,sans-Serif" font-size="10.00">/home/runner/work/Simopticon</text>
<text text-anchor="start" x="259" y="-174.5" font-family="Helvetica,sans-Serif" font-size="10.00">/Simopticon/src/controller</text>
<text text-anchor="middle" x="334.5" y="-163.5" font-family="Helvetica,sans-Serif" font-size="10.00">/Controller.h</text>
</a>
</g>
</g>
<!-- Node1&#45;&gt;Node2 -->
<g id="edge1" class="edge">
<title>Node1&#45;&gt;Node2</title>
<path fill="none" stroke="midnightblue" d="M393.52,-307.95C378.54,-300.23 363.55,-289.78 353.5,-276 336.65,-252.9 333.63,-218.86 333.61,-197.59"/>
<polygon fill="midnightblue" stroke="midnightblue" points="392.28,-311.23 402.81,-312.4 395.31,-304.92 392.28,-311.23"/>
</g>
<!-- Node8 -->
<g id="node8" class="node">
<title>Node8</title>
<g id="a_node8"><a xlink:href="Optimizer_8h.xhtml" target="_top" xlink:title="In this file, the header of the Optimizer class is defined.">
<polygon fill="white" stroke="black" points="362,-234.5 362,-275.5 529,-275.5 529,-234.5 362,-234.5"/>
<text text-anchor="start" x="370" y="-263.5" font-family="Helvetica,sans-Serif" font-size="10.00">/home/runner/work/Simopticon</text>
<text text-anchor="start" x="370" y="-252.5" font-family="Helvetica,sans-Serif" font-size="10.00">/Simopticon/src/optimizer</text>
<text text-anchor="middle" x="445.5" y="-241.5" font-family="Helvetica,sans-Serif" font-size="10.00">/Optimizer.h</text>
</a>
</g>
</g>
<!-- Node1&#45;&gt;Node8 -->
<g id="edge9" class="edge">
<title>Node1&#45;&gt;Node8</title>
<path fill="none" stroke="midnightblue" d="M445.5,-301.98C445.5,-293.35 445.5,-283.76 445.5,-275.59"/>
<polygon fill="midnightblue" stroke="midnightblue" points="442,-302.23 445.5,-312.23 449,-302.23 442,-302.23"/>
</g>
<!-- Node12 -->
<g id="node12" class="node">
<title>Node12</title>
<g id="a_node12"><a xlink:href="Abortable_8cpp.xhtml" target="_top" xlink:title="In this file, the implementation of the Abortable class is defined.">
<polygon fill="white" stroke="black" points="546.5,-240 546.5,-270 732.5,-270 732.5,-240 546.5,-240"/>
<text text-anchor="start" x="554.5" y="-258" font-family="Helvetica,sans-Serif" font-size="10.00">/home/runner/work/Simopticon</text>
<text text-anchor="middle" x="639.5" y="-247" font-family="Helvetica,sans-Serif" font-size="10.00">/Simopticon/src/utils/Abortable.cpp</text>
</a>
</g>
</g>
<!-- Node1&#45;&gt;Node12 -->
<g id="edge16" class="edge">
<title>Node1&#45;&gt;Node12</title>
<path fill="none" stroke="midnightblue" d="M493.75,-308.96C526.78,-296.96 570,-281.26 600.77,-270.07"/>
<polygon fill="midnightblue" stroke="midnightblue" points="492.5,-305.7 484.29,-312.4 494.89,-312.28 492.5,-305.7"/>
</g>
<!-- Node3 -->
<g id="node3" class="node">
<title>Node3</title>
<g id="a_node3"><a xlink:href="Controller_8cpp.xhtml" target="_top" xlink:title="In this file, the implementation of the Controller class is defined.">
<polygon fill="white" stroke="black" points="370,-0.5 370,-41.5 537,-41.5 537,-0.5 370,-0.5"/>
<text text-anchor="start" x="378" y="-29.5" font-family="Helvetica,sans-Serif" font-size="10.00">/home/runner/work/Simopticon</text>
<text text-anchor="start" x="378" y="-18.5" font-family="Helvetica,sans-Serif" font-size="10.00">/Simopticon/src/controller</text>
<text text-anchor="middle" x="453.5" y="-7.5" font-family="Helvetica,sans-Serif" font-size="10.00">/Controller.cpp</text>
</a>
</g>
</g>
<!-- Node2&#45;&gt;Node3 -->
<g id="edge2" class="edge">
<title>Node2&#45;&gt;Node3</title>
<path fill="none" stroke="midnightblue" d="M343.59,-146.87C351.01,-126.2 362.98,-98.57 379.5,-78 390.9,-63.81 406.66,-51.23 420.7,-41.61"/>
<polygon fill="midnightblue" stroke="midnightblue" points="340.25,-145.81 340.31,-156.4 346.87,-148.08 340.25,-145.81"/>
</g>
<!-- Node4 -->
<g id="node4" class="node">
<title>Node4</title>
<g id="a_node4"><a xlink:href="main_8cpp.xhtml" target="_top" xlink:title="In this file, the main function running the Simopticon framework is defined.">
<polygon fill="white" stroke="black" points="0,-6 0,-36 167,-36 167,-6 0,-6"/>
<text text-anchor="start" x="8" y="-24" font-family="Helvetica,sans-Serif" font-size="10.00">/home/runner/work/Simopticon</text>
<text text-anchor="middle" x="83.5" y="-13" font-family="Helvetica,sans-Serif" font-size="10.00">/Simopticon/src/main.cpp</text>
</a>
</g>
</g>
<!-- Node2&#45;&gt;Node4 -->
<g id="edge3" class="edge">
<title>Node2&#45;&gt;Node4</title>
<path fill="none" stroke="midnightblue" d="M241.01,-158.38C212.14,-149.96 181.41,-137.7 156.5,-120 125.02,-97.64 101.41,-57.54 90.38,-36.23"/>
<polygon fill="midnightblue" stroke="midnightblue" points="240.14,-161.78 250.71,-161.1 242.02,-155.03 240.14,-161.78"/>
</g>
<!-- Node5 -->
<g id="node5" class="node">
<title>Node5</title>
<g id="a_node5"><a xlink:href="StubController_8h.xhtml" target="_top" xlink:title="In this file, the header of the StubController class is defined.">
<polygon fill="white" stroke="black" points="166,-78.5 166,-119.5 333,-119.5 333,-78.5 166,-78.5"/>
<text text-anchor="start" x="174" y="-107.5" font-family="Helvetica,sans-Serif" font-size="10.00">/home/runner/work/Simopticon</text>
<text text-anchor="start" x="174" y="-96.5" font-family="Helvetica,sans-Serif" font-size="10.00">/Simopticon/src/controller</text>
<text text-anchor="middle" x="249.5" y="-85.5" font-family="Helvetica,sans-Serif" font-size="10.00">/StubController.h</text>
</a>
</g>
</g>
<!-- Node2&#45;&gt;Node5 -->
<g id="edge4" class="edge">
<title>Node2&#45;&gt;Node5</title>
<path fill="none" stroke="midnightblue" d="M304.85,-149.49C293.82,-139.63 281.52,-128.63 271.32,-119.51"/>
<polygon fill="midnightblue" stroke="midnightblue" points="302.82,-152.37 312.61,-156.43 307.49,-147.15 302.82,-152.37"/>
</g>
<!-- Node7 -->
<g id="node7" class="node">
<title>Node7</title>
<g id="a_node7"><a xlink:href="Optimizer_8cpp.xhtml" target="_top" xlink:title="In this file, the implementation of the Optimizer class is defined.">
<polygon fill="white" stroke="black" points="388,-78.5 388,-119.5 555,-119.5 555,-78.5 388,-78.5"/>
<text text-anchor="start" x="396" y="-107.5" font-family="Helvetica,sans-Serif" font-size="10.00">/home/runner/work/Simopticon</text>
<text text-anchor="start" x="396" y="-96.5" font-family="Helvetica,sans-Serif" font-size="10.00">/Simopticon/src/optimizer</text>
<text text-anchor="middle" x="471.5" y="-85.5" font-family="Helvetica,sans-Serif" font-size="10.00">/Optimizer.cpp</text>
</a>
</g>
</g>
<!-- Node2&#45;&gt;Node7 -->
<g id="edge8" class="edge">
<title>Node2&#45;&gt;Node7</title>
<path fill="none" stroke="midnightblue" d="M378.69,-151.49C397.35,-141.13 418.78,-129.25 436.34,-119.51"/>
<polygon fill="midnightblue" stroke="midnightblue" points="376.83,-148.52 369.78,-156.43 380.22,-154.64 376.83,-148.52"/>
</g>
<!-- Node5&#45;&gt;Node3 -->
<g id="edge6" class="edge">
<title>Node5&#45;&gt;Node3</title>
<path fill="none" stroke="midnightblue" d="M311.54,-74.89C340.18,-64.22 373.81,-51.69 401.14,-41.51"/>
<polygon fill="midnightblue" stroke="midnightblue" points="310.18,-71.66 302.04,-78.43 312.63,-78.22 310.18,-71.66"/>
</g>
<!-- Node5&#45;&gt;Node4 -->
<g id="edge7" class="edge">
<title>Node5&#45;&gt;Node4</title>
<path fill="none" stroke="midnightblue" d="M197.34,-74.12C170.05,-61.63 137.58,-46.76 114.31,-36.11"/>
<polygon fill="midnightblue" stroke="midnightblue" points="196.2,-77.45 206.75,-78.43 199.12,-71.08 196.2,-77.45"/>
</g>
<!-- Node6 -->
<g id="node6" class="node">
<title>Node6</title>
<g id="a_node6"><a xlink:href="StubController_8cpp.xhtml" target="_top" xlink:title="In this file, the implementation of the StubController class is defined.">
<polygon fill="white" stroke="black" points="185,-0.5 185,-41.5 352,-41.5 352,-0.5 185,-0.5"/>
<text text-anchor="start" x="193" y="-29.5" font-family="Helvetica,sans-Serif" font-size="10.00">/home/runner/work/Simopticon</text>
<text text-anchor="start" x="193" y="-18.5" font-family="Helvetica,sans-Serif" font-size="10.00">/Simopticon/src/controller</text>
<text text-anchor="middle" x="268.5" y="-7.5" font-family="Helvetica,sans-Serif" font-size="10.00">/StubController.cpp</text>
</a>
</g>
</g>
<!-- Node5&#45;&gt;Node6 -->
<g id="edge5" class="edge">
<title>Node5&#45;&gt;Node6</title>
<path fill="none" stroke="midnightblue" d="M256.85,-68.59C259.12,-59.51 261.56,-49.74 263.62,-41.51"/>
<polygon fill="midnightblue" stroke="midnightblue" points="253.42,-67.88 254.39,-78.43 260.21,-69.58 253.42,-67.88"/>
</g>
<!-- Node8&#45;&gt;Node2 -->
<g id="edge10" class="edge">
<title>Node8&#45;&gt;Node2</title>
<path fill="none" stroke="midnightblue" d="M408.45,-228.64C393.63,-218.49 376.83,-206.98 362.99,-197.51"/>
<polygon fill="midnightblue" stroke="midnightblue" points="406.69,-231.67 416.91,-234.43 410.64,-225.89 406.69,-231.67"/>
</g>
<!-- Node8&#45;&gt;Node7 -->
<g id="edge14" class="edge">
<title>Node8&#45;&gt;Node7</title>
<path fill="none" stroke="midnightblue" d="M450.5,-224.36C455.7,-193.61 463.67,-146.36 468.15,-119.83"/>
<polygon fill="midnightblue" stroke="midnightblue" points="447.01,-224.05 448.79,-234.5 453.91,-225.22 447.01,-224.05"/>
</g>
<!-- Node9 -->
<g id="node9" class="node">
<title>Node9</title>
<g id="a_node9"><a xlink:href="DirectOptimizer_8h.xhtml" target="_top" xlink:title="In this file, the header of the DirectOptimizer class is defined.">
<polygon fill="white" stroke="black" points="685,-156.5 685,-197.5 852,-197.5 852,-156.5 685,-156.5"/>
<text text-anchor="start" x="693" y="-185.5" font-family="Helvetica,sans-Serif" font-size="10.00">/home/runner/work/Simopticon</text>
<text text-anchor="start" x="693" y="-174.5" font-family="Helvetica,sans-Serif" font-size="10.00">/Simopticon/src/optimizer</text>
<text text-anchor="middle" x="768.5" y="-163.5" font-family="Helvetica,sans-Serif" font-size="10.00">/direct/DirectOptimizer.h</text>
</a>
</g>
</g>
<!-- Node8&#45;&gt;Node9 -->
<g id="edge11" class="edge">
<title>Node8&#45;&gt;Node9</title>
<path fill="none" stroke="midnightblue" d="M538.44,-232.13C584.89,-221.2 640.62,-208.09 685.6,-197.51"/>
<polygon fill="midnightblue" stroke="midnightblue" points="537.61,-228.73 528.68,-234.43 539.22,-235.54 537.61,-228.73"/>
</g>
<!-- Node11 -->
<g id="node11" class="node">
<title>Node11</title>
<g id="a_node11"><a xlink:href="StatusBar_8cpp.xhtml" target="_top" xlink:title="In this file, the implementation of the StatusBar class is defined.">
<polygon fill="white" stroke="black" points="473.5,-162 473.5,-192 667.5,-192 667.5,-162 473.5,-162"/>
<text text-anchor="start" x="481.5" y="-180" font-family="Helvetica,sans-Serif" font-size="10.00">/home/runner/work/Simopticon</text>
<text text-anchor="middle" x="570.5" y="-169" font-family="Helvetica,sans-Serif" font-size="10.00">/Simopticon/src/status/StatusBar.cpp</text>
</a>
</g>
</g>
<!-- Node8&#45;&gt;Node11 -->
<g id="edge15" class="edge">
<title>Node8&#45;&gt;Node11</title>
<path fill="none" stroke="midnightblue" d="M486.37,-229.15C506.5,-216.91 530.05,-202.59 547.1,-192.23"/>
<polygon fill="midnightblue" stroke="midnightblue" points="484.42,-226.24 477.69,-234.43 488.05,-232.22 484.42,-226.24"/>
</g>
<!-- Node9&#45;&gt;Node3 -->
<g id="edge12" class="edge">
<title>Node9&#45;&gt;Node3</title>
<path fill="none" stroke="midnightblue" d="M719.38,-151.99C657.17,-121.57 551.14,-69.74 493.57,-41.59"/>
<polygon fill="midnightblue" stroke="midnightblue" points="718.08,-155.25 728.61,-156.5 721.16,-148.96 718.08,-155.25"/>
</g>
<!-- Node10 -->
<g id="node10" class="node">
<title>Node10</title>
<g id="a_node10"><a xlink:href="DirectOptimizer_8cpp.xhtml" target="_top" xlink:title="In this file, the implementation of the DirectOptimizer class is defined.">
<polygon fill="white" stroke="black" points="685,-78.5 685,-119.5 852,-119.5 852,-78.5 685,-78.5"/>
<text text-anchor="start" x="693" y="-107.5" font-family="Helvetica,sans-Serif" font-size="10.00">/home/runner/work/Simopticon</text>
<text text-anchor="start" x="693" y="-96.5" font-family="Helvetica,sans-Serif" font-size="10.00">/Simopticon/src/optimizer</text>
<text text-anchor="middle" x="768.5" y="-85.5" font-family="Helvetica,sans-Serif" font-size="10.00">/direct/DirectOptimizer.cpp</text>
</a>
</g>
</g>
<!-- Node9&#45;&gt;Node10 -->
<g id="edge13" class="edge">
<title>Node9&#45;&gt;Node10</title>
<path fill="none" stroke="midnightblue" d="M768.5,-146.3C768.5,-137.3 768.5,-127.65 768.5,-119.51"/>
<polygon fill="midnightblue" stroke="midnightblue" points="765,-146.43 768.5,-156.43 772,-146.43 765,-146.43"/>
</g>
</g>
</svg>
