<?xml version="1.0" encoding="UTF-8" standalone="no"?>
<!DOCTYPE svg PUBLIC "-//W3C//DTD SVG 1.1//EN"
 "http://www.w3.org/Graphics/SVG/1.1/DTD/svg11.dtd">
<!-- Generated by graphviz version 2.43.0 (0)
 -->
<!-- Title: src/optimizer/direct/hyrect/BaseRect.h Pages: 1 -->
<svg width="262pt" height="106pt"
 viewBox="0.00 0.00 261.50 106.00" xmlns="http://www.w3.org/2000/svg" xmlns:xlink="http://www.w3.org/1999/xlink">
<g id="graph0" class="graph" transform="scale(1 1) rotate(0) translate(4 102)">
<title>src/optimizer/direct/hyrect/BaseRect.h</title>
<polygon fill="white" stroke="transparent" points="-4,4 -4,-102 257.5,-102 257.5,4 -4,4"/>
<!-- Node1 -->
<g id="node1" class="node">
<title>Node1</title>
<g id="a_node1"><a xlink:title="In this file, the header of the BaseRect class is defined.">
<polygon fill="#bfbfbf" stroke="black" points="70.5,-67.5 70.5,-97.5 181.5,-97.5 181.5,-67.5 70.5,-67.5"/>
<text text-anchor="start" x="78.5" y="-85.5" font-family="Helvetica,sans-Serif" font-size="10.00">src/optimizer/direct</text>
<text text-anchor="middle" x="126" y="-74.5" font-family="Helvetica,sans-Serif" font-size="10.00">/hyrect/BaseRect.h</text>
</a>
</g>
</g>
<!-- Node2 -->
<g id="node2" class="node">
<title>Node2</title>
<g id="a_node2"><a xlink:href="DirectOptimizer_8cpp.xhtml" target="_top" xlink:title="In this file, the implementation of the DirectOptimizer class is defined.">
<polygon fill="white" stroke="black" points="0,-0.5 0,-30.5 116,-30.5 116,-0.5 0,-0.5"/>
<text text-anchor="start" x="8" y="-18.5" font-family="Helvetica,sans-Serif" font-size="10.00">src/optimizer/direct</text>
<text text-anchor="middle" x="58" y="-7.5" font-family="Helvetica,sans-Serif" font-size="10.00">/DirectOptimizer.cpp</text>
</a>
</g>
</g>
<!-- Node1&#45;&gt;Node2 -->
<g id="edge1" class="edge">
<title>Node1&#45;&gt;Node2</title>
<path fill="none" stroke="midnightblue" d="M103.83,-60.31C93.63,-50.56 81.81,-39.26 72.73,-30.58"/>
<polygon fill="midnightblue" stroke="midnightblue" points="101.6,-63.02 111.25,-67.4 106.43,-57.96 101.6,-63.02"/>
</g>
<!-- Node3 -->
<g id="node3" class="node">
<title>Node3</title>
<g id="a_node3"><a xlink:href="BaseRect_8cpp.xhtml" target="_top" xlink:title="In this file, the implementation of the BaseRect class is defined.">
<polygon fill="white" stroke="black" points="134.5,-0.5 134.5,-30.5 253.5,-30.5 253.5,-0.5 134.5,-0.5"/>
<text text-anchor="start" x="142.5" y="-18.5" font-family="Helvetica,sans-Serif" font-size="10.00">src/optimizer/direct</text>
<text text-anchor="middle" x="194" y="-7.5" font-family="Helvetica,sans-Serif" font-size="10.00">/hyrect/BaseRect.cpp</text>
</a>
</g>
</g>
<!-- Node1&#45;&gt;Node3 -->
<g id="edge2" class="edge">
<title>Node1&#45;&gt;Node3</title>
<path fill="none" stroke="midnightblue" d="M148.17,-60.31C158.37,-50.56 170.19,-39.26 179.27,-30.58"/>
<polygon fill="midnightblue" stroke="midnightblue" points="145.57,-57.96 140.75,-67.4 150.4,-63.02 145.57,-57.96"/>
</g>
</g>
</svg>
