<?xml version="1.0" encoding="UTF-8" standalone="no"?>
<!DOCTYPE svg PUBLIC "-//W3C//DTD SVG 1.1//EN"
 "http://www.w3.org/Graphics/SVG/1.1/DTD/svg11.dtd">
<!-- Generated by graphviz version 2.43.0 (0)
 -->
<!-- Title: Optimizer Pages: 1 -->
<svg width="322pt" height="162pt"
 viewBox="0.00 0.00 321.50 162.00" xmlns="http://www.w3.org/2000/svg" xmlns:xlink="http://www.w3.org/1999/xlink">
<g id="graph0" class="graph" transform="scale(1 1) rotate(0) translate(4 158)">
<title>Optimizer</title>
<polygon fill="white" stroke="transparent" points="-4,4 -4,-158 317.5,-158 317.5,4 -4,4"/>
<!-- Node1 -->
<g id="node1" class="node">
<title>Node1</title>
<g id="a_node1"><a xlink:title="A class containing an optimization strategy which searches the minimum of a blackbox function given t...">
<polygon fill="#bfbfbf" stroke="black" points="43,-0.5 43,-19.5 108,-19.5 108,-0.5 43,-0.5"/>
<text text-anchor="middle" x="75.5" y="-7.5" font-family="Helvetica,sans-Serif" font-size="10.00">Optimizer</text>
</a>
</g>
</g>
<!-- Node2 -->
<g id="node2" class="node">
<title>Node2</title>
<g id="a_node2"><a xlink:href="classStatus.xhtml" target="_top" xlink:title="An interface defining functions for status updates on configuration and progress of a class.">
<polygon fill="white" stroke="black" points="0,-67.5 0,-86.5 47,-86.5 47,-67.5 0,-67.5"/>
<text text-anchor="middle" x="23.5" y="-74.5" font-family="Helvetica,sans-Serif" font-size="10.00">Status</text>
</a>
</g>
</g>
<!-- Node2&#45;&gt;Node1 -->
<g id="edge1" class="edge">
<title>Node2&#45;&gt;Node1</title>
<path fill="none" stroke="midnightblue" d="M36.88,-59.27C47.02,-46.6 60.54,-29.7 68.6,-19.63"/>
<polygon fill="none" stroke="midnightblue" points="34.03,-57.24 30.51,-67.23 39.49,-61.61 34.03,-57.24"/>
</g>
<!-- Node3 -->
<g id="node3" class="node">
<title>Node3</title>
<g id="a_node3"><a xlink:href="classAbortable.xhtml" target="_top" xlink:title="A simple interface for classes that encapsulate abortable processes.">
<polygon fill="white" stroke="black" points="33.5,-134.5 33.5,-153.5 97.5,-153.5 97.5,-134.5 33.5,-134.5"/>
<text text-anchor="middle" x="65.5" y="-141.5" font-family="Helvetica,sans-Serif" font-size="10.00">Abortable</text>
</a>
</g>
</g>
<!-- Node3&#45;&gt;Node1 -->
<g id="edge2" class="edge">
<title>Node3&#45;&gt;Node1</title>
<path fill="none" stroke="midnightblue" d="M66.92,-124.28C69.12,-95.25 73.26,-40.54 74.85,-19.52"/>
<polygon fill="none" stroke="midnightblue" points="63.42,-124.1 66.16,-134.34 70.4,-124.63 63.42,-124.1"/>
</g>
<!-- Node4 -->
<g id="node4" class="node">
<title>Node4</title>
<g id="a_node4"><a xlink:href="classController.xhtml" target="_top" xlink:title="A class responsible for communication between Optimizer, SimulationRunner and Evaluation and also use...">
<polygon fill="white" stroke="black" points="110,-67.5 110,-86.5 175,-86.5 175,-67.5 110,-67.5"/>
<text text-anchor="middle" x="142.5" y="-74.5" font-family="Helvetica,sans-Serif" font-size="10.00">Controller</text>
</a>
</g>
</g>
<!-- Node3&#45;&gt;Node4 -->
<g id="edge4" class="edge">
<title>Node3&#45;&gt;Node4</title>
<path fill="none" stroke="midnightblue" d="M83.61,-127.71C98.78,-114.91 119.89,-97.09 132.28,-86.63"/>
<polygon fill="none" stroke="midnightblue" points="81.27,-125.11 75.88,-134.23 85.78,-130.46 81.27,-125.11"/>
</g>
<!-- Node4&#45;&gt;Node1 -->
<g id="edge3" class="edge">
<title>Node4&#45;&gt;Node1</title>
<path fill="none" stroke="#404040" d="M133.46,-67.23C123.22,-57.29 106.26,-40.84 93.32,-28.29"/>
<polygon fill="none" stroke="#404040" points="93.01,-27.98 85.91,-26.68 84.39,-19.63 91.48,-20.93 93.01,-27.98"/>
<text text-anchor="middle" x="140.5" y="-41" font-family="Helvetica,sans-Serif" font-size="10.00"> &#45;controller</text>
</g>
<!-- Node5 -->
<g id="node5" class="node">
<title>Node5</title>
<g id="a_node5"><a xlink:href="classStatusBar.xhtml" target="_top" xlink:title="A class used to conduct command line output containing information about the state of the used Optimi...">
<polygon fill="white" stroke="black" points="115.5,-134.5 115.5,-153.5 179.5,-153.5 179.5,-134.5 115.5,-134.5"/>
<text text-anchor="middle" x="147.5" y="-141.5" font-family="Helvetica,sans-Serif" font-size="10.00">StatusBar</text>
</a>
</g>
</g>
<!-- Node5&#45;&gt;Node4 -->
<g id="edge5" class="edge">
<title>Node5&#45;&gt;Node4</title>
<path fill="none" stroke="#404040" d="M146.83,-134.23C146.13,-125.17 145.01,-110.69 144.09,-98.69"/>
<polygon fill="none" stroke="#404040" points="144.08,-98.59 139.64,-92.92 143.16,-86.63 147.61,-92.3 144.08,-98.59"/>
<text text-anchor="middle" x="174.5" y="-108" font-family="Helvetica,sans-Serif" font-size="10.00"> #statusBar</text>
</g>
<!-- Node6 -->
<g id="node6" class="node">
<title>Node6</title>
<g id="a_node6"><a xlink:href="structController_1_1stepstate.xhtml" target="_top" xlink:title="A struct keeping track of the currently running optimization step for StatusBar::updateStatus.">
<polygon fill="white" stroke="black" points="197.5,-134.5 197.5,-153.5 313.5,-153.5 313.5,-134.5 197.5,-134.5"/>
<text text-anchor="middle" x="255.5" y="-141.5" font-family="Helvetica,sans-Serif" font-size="10.00">Controller::stepstate</text>
</a>
</g>
</g>
<!-- Node6&#45;&gt;Node4 -->
<g id="edge6" class="edge">
<title>Node6&#45;&gt;Node4</title>
<path fill="none" stroke="#404040" d="M246.15,-134.3C236.87,-125.99 221.98,-113.51 207.5,-105 198.59,-99.76 188.47,-95.03 178.91,-91.05"/>
<polygon fill="none" stroke="#404040" points="178.81,-91.01 171.76,-92.52 167.65,-86.59 174.71,-85.08 178.81,-91.01"/>
<text text-anchor="middle" x="251.5" y="-108" font-family="Helvetica,sans-Serif" font-size="10.00"> #stepState</text>
</g>
</g>
</svg>
