<?xml version="1.0" encoding="UTF-8" standalone="no"?>
<!DOCTYPE svg PUBLIC "-//W3C//DTD SVG 1.1//EN"
 "http://www.w3.org/Graphics/SVG/1.1/DTD/svg11.dtd">
<!-- Generated by graphviz version 2.43.0 (0)
 -->
<!-- Title: PlexeSimulationRunner Pages: 1 -->
<svg width="433pt" height="360pt"
 viewBox="0.00 0.00 432.50 360.00" xmlns="http://www.w3.org/2000/svg" xmlns:xlink="http://www.w3.org/1999/xlink">
<g id="graph0" class="graph" transform="scale(1 1) rotate(0) translate(4 356)">
<title>PlexeSimulationRunner</title>
<polygon fill="white" stroke="transparent" points="-4,4 -4,-356 428.5,-356 428.5,4 -4,4"/>
<!-- Node1 -->
<g id="node1" class="node">
<title>Node1</title>
<g id="a_node1"><a xlink:title="A class capable of starting platooning simulations in the Plexe framework with given parameterCombina...">
<polygon fill="#bfbfbf" stroke="black" points="185.5,-0.5 185.5,-19.5 315.5,-19.5 315.5,-0.5 185.5,-0.5"/>
<text text-anchor="middle" x="250.5" y="-7.5" font-family="Helvetica,sans-Serif" font-size="10.00">PlexeSimulationRunner</text>
</a>
</g>
</g>
<!-- Node2 -->
<g id="node2" class="node">
<title>Node2</title>
<g id="a_node2"><a xlink:href="classSimulationRunner.xhtml" target="_top" xlink:title="A class capable of running simulations with certain parameterCombinations.">
<polygon fill="white" stroke="black" points="158.5,-57.5 158.5,-76.5 262.5,-76.5 262.5,-57.5 158.5,-57.5"/>
<text text-anchor="middle" x="210.5" y="-64.5" font-family="Helvetica,sans-Serif" font-size="10.00">SimulationRunner</text>
</a>
</g>
</g>
<!-- Node2&#45;&gt;Node1 -->
<g id="edge1" class="edge">
<title>Node2&#45;&gt;Node1</title>
<path fill="none" stroke="midnightblue" d="M222.69,-49.23C229.78,-39.49 238.41,-27.62 244.16,-19.71"/>
<polygon fill="none" stroke="midnightblue" points="219.8,-47.26 216.75,-57.41 225.46,-51.38 219.8,-47.26"/>
</g>
<!-- Node3 -->
<g id="node3" class="node">
<title>Node3</title>
<g id="a_node3"><a xlink:href="classMultithreaded.xhtml" target="_top" xlink:title=" ">
<polygon fill="white" stroke="black" points="0,-177.5 0,-240.5 173,-240.5 173,-177.5 0,-177.5"/>
<text text-anchor="start" x="8" y="-228.5" font-family="Helvetica,sans-Serif" font-size="10.00">Multithreaded&lt; parameter</text>
<text text-anchor="start" x="8" y="-217.5" font-family="Helvetica,sans-Serif" font-size="10.00">Combination, std::pair</text>
<text text-anchor="start" x="8" y="-206.5" font-family="Helvetica,sans-Serif" font-size="10.00">&lt; std::filesystem::path,</text>
<text text-anchor="start" x="8" y="-195.5" font-family="Helvetica,sans-Serif" font-size="10.00"> std::set&lt; runId &gt; &gt;, CmpVector</text>
<text text-anchor="middle" x="86.5" y="-184.5" font-family="Helvetica,sans-Serif" font-size="10.00">SharedParameter &gt;</text>
</a>
</g>
</g>
<!-- Node3&#45;&gt;Node2 -->
<g id="edge2" class="edge">
<title>Node3&#45;&gt;Node2</title>
<path fill="none" stroke="midnightblue" d="M120.64,-169.45C148.8,-137.66 186.63,-94.95 202.73,-76.78"/>
<polygon fill="none" stroke="midnightblue" points="117.72,-167.47 113.71,-177.28 122.96,-172.11 117.72,-167.47"/>
</g>
<!-- Node4 -->
<g id="node4" class="node">
<title>Node4</title>
<g id="a_node4"><a xlink:href="classMultithreaded.xhtml" target="_top" xlink:title="A class implementing concurrent execution of the same function for different arguments.">
<polygon fill="white" stroke="black" points="121,-321.5 121,-351.5 258,-351.5 258,-321.5 121,-321.5"/>
<text text-anchor="start" x="129" y="-339.5" font-family="Helvetica,sans-Serif" font-size="10.00">Multithreaded&lt; Key,</text>
<text text-anchor="middle" x="189.5" y="-328.5" font-family="Helvetica,sans-Serif" font-size="10.00"> T, Compare, Allocator &gt;</text>
</a>
</g>
</g>
<!-- Node4&#45;&gt;Node3 -->
<g id="edge3" class="edge">
<title>Node4&#45;&gt;Node3</title>
<path fill="none" stroke="orange" d="M115.92,-316.46C110.12,-312.75 104.84,-308.31 100.5,-303 86.45,-285.8 83.38,-260.63 83.58,-240.81"/>
<polygon fill="orange" stroke="orange" points="114.31,-319.57 124.75,-321.4 117.73,-313.46 114.31,-319.57"/>
<text text-anchor="start" x="100.5" y="-295" font-family="Helvetica,sans-Serif" font-size="10.00"> &lt; parameterCombination,</text>
<text text-anchor="start" x="100.5" y="-284" font-family="Helvetica,sans-Serif" font-size="10.00"> std::pair&lt; std::filesystem</text>
<text text-anchor="start" x="100.5" y="-273" font-family="Helvetica,sans-Serif" font-size="10.00">::path, std::set&lt; runId &gt;</text>
<text text-anchor="middle" x="183.5" y="-262" font-family="Helvetica,sans-Serif" font-size="10.00"> &gt;, CmpVectorSharedParameter &gt;</text>
</g>
<!-- Node6 -->
<g id="node6" class="node">
<title>Node6</title>
<g id="a_node6"><a xlink:href="classMultithreaded.xhtml" target="_top" xlink:title=" ">
<polygon fill="white" stroke="black" points="226.5,-95.5 226.5,-158.5 354.5,-158.5 354.5,-95.5 226.5,-95.5"/>
<text text-anchor="start" x="234.5" y="-146.5" font-family="Helvetica,sans-Serif" font-size="10.00">Multithreaded&lt; std</text>
<text text-anchor="start" x="234.5" y="-135.5" font-family="Helvetica,sans-Serif" font-size="10.00">::pair&lt; std::filesystem</text>
<text text-anchor="start" x="234.5" y="-124.5" font-family="Helvetica,sans-Serif" font-size="10.00">::path, std::pair&lt; std</text>
<text text-anchor="start" x="234.5" y="-113.5" font-family="Helvetica,sans-Serif" font-size="10.00">::string, unsigned int &gt;</text>
<text text-anchor="middle" x="290.5" y="-102.5" font-family="Helvetica,sans-Serif" font-size="10.00"> &gt;, bool &gt;</text>
</a>
</g>
</g>
<!-- Node4&#45;&gt;Node6 -->
<g id="edge6" class="edge">
<title>Node4&#45;&gt;Node6</title>
<path fill="none" stroke="orange" d="M252.24,-316.13C257.66,-312.47 262.56,-308.14 266.5,-303 298.58,-261.13 298.39,-196.53 294.81,-158.64"/>
<polygon fill="orange" stroke="orange" points="250.23,-313.25 243.38,-321.33 253.77,-319.29 250.23,-313.25"/>
<text text-anchor="start" x="286.5" y="-289.5" font-family="Helvetica,sans-Serif" font-size="10.00"> &lt; std::pair&lt; std::filesystem</text>
<text text-anchor="start" x="286.5" y="-278.5" font-family="Helvetica,sans-Serif" font-size="10.00">::path, std::pair&lt; std::string,</text>
<text text-anchor="middle" x="355.5" y="-267.5" font-family="Helvetica,sans-Serif" font-size="10.00"> unsigned int &gt; &gt;, bool &gt;</text>
</g>
<!-- Node5 -->
<g id="node5" class="node">
<title>Node5</title>
<g id="a_node5"><a xlink:href="classStatus.xhtml" target="_top" xlink:title="An interface defining functions for status updates on configuration and progress of a class.">
<polygon fill="white" stroke="black" points="191,-199.5 191,-218.5 238,-218.5 238,-199.5 191,-199.5"/>
<text text-anchor="middle" x="214.5" y="-206.5" font-family="Helvetica,sans-Serif" font-size="10.00">Status</text>
</a>
</g>
</g>
<!-- Node5&#45;&gt;Node2 -->
<g id="edge4" class="edge">
<title>Node5&#45;&gt;Node2</title>
<path fill="none" stroke="midnightblue" d="M213.96,-189.02C213.08,-158.34 211.39,-99.04 210.75,-76.75"/>
<polygon fill="none" stroke="midnightblue" points="210.47,-189.35 214.25,-199.24 217.46,-189.15 210.47,-189.35"/>
</g>
<!-- Node6&#45;&gt;Node1 -->
<g id="edge5" class="edge">
<title>Node6&#45;&gt;Node1</title>
<path fill="none" stroke="midnightblue" d="M280.58,-85.77C277.92,-76.24 274.84,-66.19 271.5,-57 266.64,-43.63 259.52,-28.76 254.95,-19.64"/>
<polygon fill="none" stroke="midnightblue" points="277.21,-86.71 283.21,-95.44 283.97,-84.88 277.21,-86.71"/>
</g>
</g>
</svg>
