<?xml version="1.0" encoding="UTF-8" standalone="no"?>
<!DOCTYPE svg PUBLIC "-//W3C//DTD SVG 1.1//EN"
 "http://www.w3.org/Graphics/SVG/1.1/DTD/svg11.dtd">
<!-- Generated by graphviz version 2.43.0 (0)
 -->
<!-- Title: Status Pages: 1 -->
<svg width="591pt" height="140pt"
 viewBox="0.00 0.00 591.00 140.00" xmlns="http://www.w3.org/2000/svg" xmlns:xlink="http://www.w3.org/1999/xlink">
<g id="graph0" class="graph" transform="scale(1 1) rotate(0) translate(4 136)">
<title>Status</title>
<polygon fill="white" stroke="transparent" points="-4,4 -4,-136 587,-136 587,4 -4,4"/>
<!-- Node1 -->
<g id="node1" class="node">
<title>Node1</title>
<g id="a_node1"><a xlink:title="An interface defining functions for status updates on configuration and progress of a class.">
<polygon fill="#bfbfbf" stroke="black" points="249.5,-112.5 249.5,-131.5 296.5,-131.5 296.5,-112.5 249.5,-112.5"/>
<text text-anchor="middle" x="273" y="-119.5" font-family="Helvetica,sans-Serif" font-size="10.00">Status</text>
</a>
</g>
</g>
<!-- Node2 -->
<g id="node2" class="node">
<title>Node2</title>
<g id="a_node2"><a xlink:href="classEvaluation.xhtml" target="_top" xlink:title="A class capable of evaluating simulation results and scoring them with a value which is treated as th...">
<polygon fill="white" stroke="black" points="87,-56.5 87,-75.5 155,-75.5 155,-56.5 87,-56.5"/>
<text text-anchor="middle" x="121" y="-63.5" font-family="Helvetica,sans-Serif" font-size="10.00">Evaluation</text>
</a>
</g>
</g>
<!-- Node1&#45;&gt;Node2 -->
<g id="edge1" class="edge">
<title>Node1&#45;&gt;Node2</title>
<path fill="none" stroke="midnightblue" d="M239.68,-109.16C211.1,-99.01 170.61,-84.63 145.08,-75.56"/>
<polygon fill="none" stroke="midnightblue" points="238.66,-112.51 249.25,-112.56 241,-105.92 238.66,-112.51"/>
</g>
<!-- Node4 -->
<g id="node4" class="node">
<title>Node4</title>
<g id="a_node4"><a xlink:href="classOptimizer.xhtml" target="_top" xlink:title="A class containing an optimization strategy which searches the minimum of a blackbox function given t...">
<polygon fill="white" stroke="black" points="240.5,-56.5 240.5,-75.5 305.5,-75.5 305.5,-56.5 240.5,-56.5"/>
<text text-anchor="middle" x="273" y="-63.5" font-family="Helvetica,sans-Serif" font-size="10.00">Optimizer</text>
</a>
</g>
</g>
<!-- Node1&#45;&gt;Node4 -->
<g id="edge3" class="edge">
<title>Node1&#45;&gt;Node4</title>
<path fill="none" stroke="midnightblue" d="M273,-101.8C273,-92.91 273,-82.78 273,-75.75"/>
<polygon fill="none" stroke="midnightblue" points="269.5,-102.08 273,-112.08 276.5,-102.08 269.5,-102.08"/>
</g>
<!-- Node8 -->
<g id="node8" class="node">
<title>Node8</title>
<g id="a_node8"><a xlink:href="classSimulationRunner.xhtml" target="_top" xlink:title="A class capable of running simulations with certain parameterCombinations.">
<polygon fill="white" stroke="black" points="395,-56.5 395,-75.5 499,-75.5 499,-56.5 395,-56.5"/>
<text text-anchor="middle" x="447" y="-63.5" font-family="Helvetica,sans-Serif" font-size="10.00">SimulationRunner</text>
</a>
</g>
</g>
<!-- Node1&#45;&gt;Node8 -->
<g id="edge7" class="edge">
<title>Node1&#45;&gt;Node8</title>
<path fill="none" stroke="midnightblue" d="M306.45,-110.62C339.29,-100.43 388.8,-85.06 419.45,-75.55"/>
<polygon fill="none" stroke="midnightblue" points="305.34,-107.3 296.83,-113.6 307.42,-113.98 305.34,-107.3"/>
</g>
<!-- Node3 -->
<g id="node3" class="node">
<title>Node3</title>
<g id="a_node3"><a xlink:href="classConstantHeadway.xhtml" target="_top" xlink:title="A wrapper for the constant_headway.py script.">
<polygon fill="white" stroke="black" points="0,-0.5 0,-19.5 106,-19.5 106,-0.5 0,-0.5"/>
<text text-anchor="middle" x="53" y="-7.5" font-family="Helvetica,sans-Serif" font-size="10.00">ConstantHeadway</text>
</a>
</g>
</g>
<!-- Node2&#45;&gt;Node3 -->
<g id="edge2" class="edge">
<title>Node2&#45;&gt;Node3</title>
<path fill="none" stroke="midnightblue" d="M102.24,-50.1C90,-40.38 74.44,-28.03 64.12,-19.83"/>
<polygon fill="none" stroke="midnightblue" points="100.07,-52.85 110.07,-56.32 104.42,-47.36 100.07,-52.85"/>
</g>
<!-- Node5 -->
<g id="node5" class="node">
<title>Node5</title>
<g id="a_node5"><a xlink:href="classDirectOptimizer.xhtml" target="_top" xlink:title="A class capable of finding the minimum of a blackbox function using the DIRECT algorithm.">
<polygon fill="white" stroke="black" points="124,-0.5 124,-19.5 218,-19.5 218,-0.5 124,-0.5"/>
<text text-anchor="middle" x="171" y="-7.5" font-family="Helvetica,sans-Serif" font-size="10.00">DirectOptimizer</text>
</a>
</g>
</g>
<!-- Node4&#45;&gt;Node5 -->
<g id="edge4" class="edge">
<title>Node4&#45;&gt;Node5</title>
<path fill="none" stroke="midnightblue" d="M247.67,-51.59C228.81,-41.61 203.62,-28.27 187.35,-19.65"/>
<polygon fill="none" stroke="midnightblue" points="246.14,-54.74 256.61,-56.32 249.41,-48.55 246.14,-54.74"/>
</g>
<!-- Node6 -->
<g id="node6" class="node">
<title>Node6</title>
<g id="a_node6"><a xlink:href="classMonteCarlo.xhtml" target="_top" xlink:title="A class capable of finding the minimum of a blackbox function using the Monte Carlo algorithm.">
<polygon fill="white" stroke="black" points="236.5,-0.5 236.5,-19.5 309.5,-19.5 309.5,-0.5 236.5,-0.5"/>
<text text-anchor="middle" x="273" y="-7.5" font-family="Helvetica,sans-Serif" font-size="10.00">MonteCarlo</text>
</a>
</g>
</g>
<!-- Node4&#45;&gt;Node6 -->
<g id="edge5" class="edge">
<title>Node4&#45;&gt;Node6</title>
<path fill="none" stroke="midnightblue" d="M273,-45.8C273,-36.91 273,-26.78 273,-19.75"/>
<polygon fill="none" stroke="midnightblue" points="269.5,-46.08 273,-56.08 276.5,-46.08 269.5,-46.08"/>
</g>
<!-- Node7 -->
<g id="node7" class="node">
<title>Node7</title>
<g id="a_node7"><a xlink:href="classRandomNeighbors.xhtml" target="_top" xlink:title="A class capable of finding the minimum of a blackbox function using the Random Neighbors algorithm.">
<polygon fill="white" stroke="black" points="327.5,-0.5 327.5,-19.5 434.5,-19.5 434.5,-0.5 327.5,-0.5"/>
<text text-anchor="middle" x="381" y="-7.5" font-family="Helvetica,sans-Serif" font-size="10.00">RandomNeighbors</text>
</a>
</g>
</g>
<!-- Node4&#45;&gt;Node7 -->
<g id="edge6" class="edge">
<title>Node4&#45;&gt;Node7</title>
<path fill="none" stroke="midnightblue" d="M299.55,-51.73C319.55,-41.73 346.39,-28.31 363.69,-19.65"/>
<polygon fill="none" stroke="midnightblue" points="297.73,-48.72 290.35,-56.32 300.86,-54.98 297.73,-48.72"/>
</g>
<!-- Node9 -->
<g id="node9" class="node">
<title>Node9</title>
<g id="a_node9"><a xlink:href="classPlexeSimulationRunner.xhtml" target="_top" xlink:title="A class capable of starting platooning simulations in the Plexe framework with given parameterCombina...">
<polygon fill="white" stroke="black" points="453,-0.5 453,-19.5 583,-19.5 583,-0.5 453,-0.5"/>
<text text-anchor="middle" x="518" y="-7.5" font-family="Helvetica,sans-Serif" font-size="10.00">PlexeSimulationRunner</text>
</a>
</g>
</g>
<!-- Node8&#45;&gt;Node9 -->
<g id="edge8" class="edge">
<title>Node8&#45;&gt;Node9</title>
<path fill="none" stroke="midnightblue" d="M466.59,-50.1C479.37,-40.38 495.61,-28.03 506.39,-19.83"/>
<polygon fill="none" stroke="midnightblue" points="464.25,-47.48 458.41,-56.32 468.49,-53.06 464.25,-47.48"/>
</g>
</g>
</svg>
