<?xml version="1.0" encoding="UTF-8" standalone="no"?>
<!DOCTYPE svg PUBLIC "-//W3C//DTD SVG 1.1//EN"
 "http://www.w3.org/Graphics/SVG/1.1/DTD/svg11.dtd">
<!-- Generated by graphviz version 2.43.0 (0)
 -->
<!-- Title: SimulationRunner Pages: 1 -->
<svg width="261pt" height="240pt"
 viewBox="0.00 0.00 260.50 240.00" xmlns="http://www.w3.org/2000/svg" xmlns:xlink="http://www.w3.org/1999/xlink">
<g id="graph0" class="graph" transform="scale(1 1) rotate(0) translate(4 236)">
<title>SimulationRunner</title>
<polygon fill="white" stroke="transparent" points="-4,4 -4,-236 256.5,-236 256.5,4 -4,4"/>
<!-- Node1 -->
<g id="node1" class="node">
<title>Node1</title>
<g id="a_node1"><a xlink:title="A class capable of running simulations with certain parameterCombinations.">
<polygon fill="#bfbfbf" stroke="black" points="130.5,-0.5 130.5,-19.5 234.5,-19.5 234.5,-0.5 130.5,-0.5"/>
<text text-anchor="middle" x="182.5" y="-7.5" font-family="Helvetica,sans-Serif" font-size="10.00">SimulationRunner</text>
</a>
</g>
</g>
<!-- Node2 -->
<g id="node2" class="node">
<title>Node2</title>
<g id="a_node2"><a xlink:href="classMultithreaded.xhtml" target="_top" xlink:title=" ">
<polygon fill="white" stroke="black" points="0,-57.5 0,-120.5 173,-120.5 173,-57.5 0,-57.5"/>
<text text-anchor="start" x="8" y="-108.5" font-family="Helvetica,sans-Serif" font-size="10.00">Multithreaded&lt; parameter</text>
<text text-anchor="start" x="8" y="-97.5" font-family="Helvetica,sans-Serif" font-size="10.00">Combination, std::pair</text>
<text text-anchor="start" x="8" y="-86.5" font-family="Helvetica,sans-Serif" font-size="10.00">&lt; std::filesystem::path,</text>
<text text-anchor="start" x="8" y="-75.5" font-family="Helvetica,sans-Serif" font-size="10.00"> std::set&lt; runId &gt; &gt;, CmpVector</text>
<text text-anchor="middle" x="86.5" y="-64.5" font-family="Helvetica,sans-Serif" font-size="10.00">SharedParameter &gt;</text>
</a>
</g>
</g>
<!-- Node2&#45;&gt;Node1 -->
<g id="edge1" class="edge">
<title>Node2&#45;&gt;Node1</title>
<path fill="none" stroke="midnightblue" d="M132.75,-50.9C147.31,-39.23 162.08,-27.38 171.7,-19.66"/>
<polygon fill="none" stroke="midnightblue" points="130.33,-48.36 124.72,-57.35 134.71,-53.82 130.33,-48.36"/>
</g>
<!-- Node3 -->
<g id="node3" class="node">
<title>Node3</title>
<g id="a_node3"><a xlink:href="classMultithreaded.xhtml" target="_top" xlink:title="A class implementing concurrent execution of the same function for different arguments.">
<polygon fill="white" stroke="black" points="18,-201.5 18,-231.5 155,-231.5 155,-201.5 18,-201.5"/>
<text text-anchor="start" x="26" y="-219.5" font-family="Helvetica,sans-Serif" font-size="10.00">Multithreaded&lt; Key,</text>
<text text-anchor="middle" x="86.5" y="-208.5" font-family="Helvetica,sans-Serif" font-size="10.00"> T, Compare, Allocator &gt;</text>
</a>
</g>
</g>
<!-- Node3&#45;&gt;Node2 -->
<g id="edge2" class="edge">
<title>Node3&#45;&gt;Node2</title>
<path fill="none" stroke="orange" d="M86.5,-190.9C86.5,-170.79 86.5,-142.27 86.5,-120.67"/>
<polygon fill="orange" stroke="orange" points="83,-191.1 86.5,-201.1 90,-191.1 83,-191.1"/>
<text text-anchor="start" x="86.5" y="-175" font-family="Helvetica,sans-Serif" font-size="10.00"> &lt; parameterCombination,</text>
<text text-anchor="start" x="86.5" y="-164" font-family="Helvetica,sans-Serif" font-size="10.00"> std::pair&lt; std::filesystem</text>
<text text-anchor="start" x="86.5" y="-153" font-family="Helvetica,sans-Serif" font-size="10.00">::path, std::set&lt; runId &gt;</text>
<text text-anchor="middle" x="169.5" y="-142" font-family="Helvetica,sans-Serif" font-size="10.00"> &gt;, CmpVectorSharedParameter &gt;</text>
</g>
<!-- Node4 -->
<g id="node4" class="node">
<title>Node4</title>
<g id="a_node4"><a xlink:href="classStatus.xhtml" target="_top" xlink:title="An interface defining functions for status updates on configuration and progress of a class.">
<polygon fill="white" stroke="black" points="191,-79.5 191,-98.5 238,-98.5 238,-79.5 191,-79.5"/>
<text text-anchor="middle" x="214.5" y="-86.5" font-family="Helvetica,sans-Serif" font-size="10.00">Status</text>
</a>
</g>
</g>
<!-- Node4&#45;&gt;Node1 -->
<g id="edge3" class="edge">
<title>Node4&#45;&gt;Node1</title>
<path fill="none" stroke="midnightblue" d="M207.11,-70.22C200.55,-54.44 191.24,-32.04 186.16,-19.81"/>
<polygon fill="none" stroke="midnightblue" points="203.88,-71.57 210.95,-79.47 210.35,-68.89 203.88,-71.57"/>
</g>
</g>
</svg>
