<?xml version="1.0" encoding="UTF-8" standalone="no"?>
<!DOCTYPE svg PUBLIC "-//W3C//DTD SVG 1.1//EN"
 "http://www.w3.org/Graphics/SVG/1.1/DTD/svg11.dtd">
<!-- Generated by graphviz version 2.43.0 (0)
 -->
<!-- Title: StubController Pages: 1 -->
<svg width="288pt" height="152pt"
 viewBox="0.00 0.00 288.00 152.00" xmlns="http://www.w3.org/2000/svg" xmlns:xlink="http://www.w3.org/1999/xlink">
<g id="graph0" class="graph" transform="scale(1 1) rotate(0) translate(4 148)">
<title>StubController</title>
<polygon fill="white" stroke="transparent" points="-4,4 -4,-148 284,-148 284,4 -4,4"/>
<!-- Node1 -->
<g id="node1" class="node">
<title>Node1</title>
<g id="a_node1"><a xlink:title="A class that mocks behaviour of Controller.">
<polygon fill="#bfbfbf" stroke="black" points="71,-0.5 71,-19.5 157,-19.5 157,-0.5 71,-0.5"/>
<text text-anchor="middle" x="114" y="-7.5" font-family="Helvetica,sans-Serif" font-size="10.00">StubController</text>
</a>
</g>
</g>
<!-- Node2 -->
<g id="node2" class="node">
<title>Node2</title>
<g id="a_node2"><a xlink:href="classController.xhtml" target="_top" xlink:title="A class responsible for communication between Optimizer, SimulationRunner and Evaluation and also use...">
<polygon fill="white" stroke="black" points="81.5,-57.5 81.5,-76.5 146.5,-76.5 146.5,-57.5 81.5,-57.5"/>
<text text-anchor="middle" x="114" y="-64.5" font-family="Helvetica,sans-Serif" font-size="10.00">Controller</text>
</a>
</g>
</g>
<!-- Node2&#45;&gt;Node1 -->
<g id="edge1" class="edge">
<title>Node2&#45;&gt;Node1</title>
<path fill="none" stroke="midnightblue" d="M114,-47.12C114,-37.82 114,-27.06 114,-19.71"/>
<polygon fill="none" stroke="midnightblue" points="110.5,-47.41 114,-57.41 117.5,-47.41 110.5,-47.41"/>
</g>
<!-- Node3 -->
<g id="node3" class="node">
<title>Node3</title>
<g id="a_node3"><a xlink:href="classAbortable.xhtml" target="_top" xlink:title="A simple interface for classes that encapsulate abortable processes.">
<polygon fill="white" stroke="black" points="0,-124.5 0,-143.5 64,-143.5 64,-124.5 0,-124.5"/>
<text text-anchor="middle" x="32" y="-131.5" font-family="Helvetica,sans-Serif" font-size="10.00">Abortable</text>
</a>
</g>
</g>
<!-- Node3&#45;&gt;Node2 -->
<g id="edge2" class="edge">
<title>Node3&#45;&gt;Node2</title>
<path fill="none" stroke="midnightblue" d="M51.28,-117.71C67.44,-104.91 89.92,-87.09 103.12,-76.63"/>
<polygon fill="none" stroke="midnightblue" points="48.72,-115.28 43.06,-124.23 53.07,-120.76 48.72,-115.28"/>
</g>
<!-- Node4 -->
<g id="node4" class="node">
<title>Node4</title>
<g id="a_node4"><a xlink:href="classStatusBar.xhtml" target="_top" xlink:title="A class used to conduct command line output containing information about the state of the used Optimi...">
<polygon fill="white" stroke="black" points="82,-124.5 82,-143.5 146,-143.5 146,-124.5 82,-124.5"/>
<text text-anchor="middle" x="114" y="-131.5" font-family="Helvetica,sans-Serif" font-size="10.00">StatusBar</text>
</a>
</g>
</g>
<!-- Node4&#45;&gt;Node2 -->
<g id="edge3" class="edge">
<title>Node4&#45;&gt;Node2</title>
<path fill="none" stroke="#404040" d="M114,-124.23C114,-115.17 114,-100.69 114,-88.69"/>
<polygon fill="none" stroke="#404040" points="114,-88.63 110,-82.63 114,-76.63 118,-82.63 114,-88.63"/>
<text text-anchor="middle" x="143" y="-98" font-family="Helvetica,sans-Serif" font-size="10.00"> #statusBar</text>
</g>
<!-- Node5 -->
<g id="node5" class="node">
<title>Node5</title>
<g id="a_node5"><a xlink:href="structController_1_1stepstate.xhtml" target="_top" xlink:title="A struct keeping track of the currently running optimization step for StatusBar::updateStatus.">
<polygon fill="white" stroke="black" points="164,-124.5 164,-143.5 280,-143.5 280,-124.5 164,-124.5"/>
<text text-anchor="middle" x="222" y="-131.5" font-family="Helvetica,sans-Serif" font-size="10.00">Controller::stepstate</text>
</a>
</g>
</g>
<!-- Node5&#45;&gt;Node2 -->
<g id="edge4" class="edge">
<title>Node5&#45;&gt;Node2</title>
<path fill="none" stroke="#404040" d="M213.07,-124.32C204.2,-116.03 189.95,-103.56 176,-95 167.56,-89.82 157.95,-85.12 148.85,-81.15"/>
<polygon fill="none" stroke="#404040" points="148.82,-81.13 141.74,-82.52 137.74,-76.52 144.81,-75.13 148.82,-81.13"/>
<text text-anchor="middle" x="219" y="-98" font-family="Helvetica,sans-Serif" font-size="10.00"> #stepState</text>
</g>
</g>
</svg>
