<?xml version="1.0" encoding="UTF-8" standalone="no"?>
<!DOCTYPE svg PUBLIC "-//W3C//DTD SVG 1.1//EN"
 "http://www.w3.org/Graphics/SVG/1.1/DTD/svg11.dtd">
<!-- Generated by graphviz version 2.43.0 (0)
 -->
<!-- Title: DirectOptimizer Pages: 1 -->
<svg width="446pt" height="229pt"
 viewBox="0.00 0.00 445.50 229.00" xmlns="http://www.w3.org/2000/svg" xmlns:xlink="http://www.w3.org/1999/xlink">
<g id="graph0" class="graph" transform="scale(1 1) rotate(0) translate(4 225)">
<title>DirectOptimizer</title>
<polygon fill="white" stroke="transparent" points="-4,4 -4,-225 441.5,-225 441.5,4 -4,4"/>
<!-- Node1 -->
<g id="node1" class="node">
<title>Node1</title>
<g id="a_node1"><a xlink:title="A class capable of finding the minimum of a blackbox function using the DIRECT algorithm.">
<polygon fill="#bfbfbf" stroke="black" points="205.5,-0.5 205.5,-19.5 299.5,-19.5 299.5,-0.5 205.5,-0.5"/>
<text text-anchor="middle" x="252.5" y="-7.5" font-family="Helvetica,sans-Serif" font-size="10.00">DirectOptimizer</text>
</a>
</g>
</g>
<!-- Node2 -->
<g id="node2" class="node">
<title>Node2</title>
<g id="a_node2"><a xlink:href="classOptimizer.xhtml" target="_top" xlink:title="A class containing an optimization strategy which searches the minimum of a blackbox function given t...">
<polygon fill="white" stroke="black" points="43,-67.5 43,-86.5 108,-86.5 108,-67.5 43,-67.5"/>
<text text-anchor="middle" x="75.5" y="-74.5" font-family="Helvetica,sans-Serif" font-size="10.00">Optimizer</text>
</a>
</g>
</g>
<!-- Node2&#45;&gt;Node1 -->
<g id="edge1" class="edge">
<title>Node2&#45;&gt;Node1</title>
<path fill="none" stroke="midnightblue" d="M108.8,-63.77C143.93,-50.87 198.38,-30.88 229.18,-19.56"/>
<polygon fill="none" stroke="midnightblue" points="107.18,-60.64 99,-67.37 109.6,-67.21 107.18,-60.64"/>
</g>
<!-- Node3 -->
<g id="node3" class="node">
<title>Node3</title>
<g id="a_node3"><a xlink:href="classStatus.xhtml" target="_top" xlink:title="An interface defining functions for status updates on configuration and progress of a class.">
<polygon fill="white" stroke="black" points="0,-134.5 0,-153.5 47,-153.5 47,-134.5 0,-134.5"/>
<text text-anchor="middle" x="23.5" y="-141.5" font-family="Helvetica,sans-Serif" font-size="10.00">Status</text>
</a>
</g>
</g>
<!-- Node3&#45;&gt;Node2 -->
<g id="edge2" class="edge">
<title>Node3&#45;&gt;Node2</title>
<path fill="none" stroke="midnightblue" d="M36.88,-126.27C47.02,-113.6 60.54,-96.7 68.6,-86.63"/>
<polygon fill="none" stroke="midnightblue" points="34.03,-124.24 30.51,-134.23 39.49,-128.61 34.03,-124.24"/>
</g>
<!-- Node4 -->
<g id="node4" class="node">
<title>Node4</title>
<g id="a_node4"><a xlink:href="classAbortable.xhtml" target="_top" xlink:title="A simple interface for classes that encapsulate abortable processes.">
<polygon fill="white" stroke="black" points="33.5,-201.5 33.5,-220.5 97.5,-220.5 97.5,-201.5 33.5,-201.5"/>
<text text-anchor="middle" x="65.5" y="-208.5" font-family="Helvetica,sans-Serif" font-size="10.00">Abortable</text>
</a>
</g>
</g>
<!-- Node4&#45;&gt;Node2 -->
<g id="edge3" class="edge">
<title>Node4&#45;&gt;Node2</title>
<path fill="none" stroke="midnightblue" d="M66.92,-191.28C69.12,-162.25 73.26,-107.54 74.85,-86.52"/>
<polygon fill="none" stroke="midnightblue" points="63.42,-191.1 66.16,-201.34 70.4,-191.63 63.42,-191.1"/>
</g>
<!-- Node5 -->
<g id="node5" class="node">
<title>Node5</title>
<g id="a_node5"><a xlink:href="classController.xhtml" target="_top" xlink:title="A class responsible for communication between Optimizer, SimulationRunner and Evaluation and also use...">
<polygon fill="white" stroke="black" points="110,-134.5 110,-153.5 175,-153.5 175,-134.5 110,-134.5"/>
<text text-anchor="middle" x="142.5" y="-141.5" font-family="Helvetica,sans-Serif" font-size="10.00">Controller</text>
</a>
</g>
</g>
<!-- Node4&#45;&gt;Node5 -->
<g id="edge5" class="edge">
<title>Node4&#45;&gt;Node5</title>
<path fill="none" stroke="midnightblue" d="M83.61,-194.71C98.78,-181.91 119.89,-164.09 132.28,-153.63"/>
<polygon fill="none" stroke="midnightblue" points="81.27,-192.11 75.88,-201.23 85.78,-197.46 81.27,-192.11"/>
</g>
<!-- Node5&#45;&gt;Node2 -->
<g id="edge4" class="edge">
<title>Node5&#45;&gt;Node2</title>
<path fill="none" stroke="#404040" d="M133.46,-134.23C123.22,-124.29 106.26,-107.84 93.32,-95.29"/>
<polygon fill="none" stroke="#404040" points="93.01,-94.98 85.91,-93.68 84.39,-86.63 91.48,-87.93 93.01,-94.98"/>
<text text-anchor="middle" x="140.5" y="-108" font-family="Helvetica,sans-Serif" font-size="10.00"> &#45;controller</text>
</g>
<!-- Node6 -->
<g id="node6" class="node">
<title>Node6</title>
<g id="a_node6"><a xlink:href="classStatusBar.xhtml" target="_top" xlink:title="A class used to conduct command line output containing information about the state of the used Optimi...">
<polygon fill="white" stroke="black" points="115.5,-201.5 115.5,-220.5 179.5,-220.5 179.5,-201.5 115.5,-201.5"/>
<text text-anchor="middle" x="147.5" y="-208.5" font-family="Helvetica,sans-Serif" font-size="10.00">StatusBar</text>
</a>
</g>
</g>
<!-- Node6&#45;&gt;Node5 -->
<g id="edge6" class="edge">
<title>Node6&#45;&gt;Node5</title>
<path fill="none" stroke="#404040" d="M146.83,-201.23C146.13,-192.17 145.01,-177.69 144.09,-165.69"/>
<polygon fill="none" stroke="#404040" points="144.08,-165.59 139.64,-159.92 143.16,-153.63 147.61,-159.3 144.08,-165.59"/>
<text text-anchor="middle" x="174.5" y="-175" font-family="Helvetica,sans-Serif" font-size="10.00"> #statusBar</text>
</g>
<!-- Node7 -->
<g id="node7" class="node">
<title>Node7</title>
<g id="a_node7"><a xlink:href="structController_1_1stepstate.xhtml" target="_top" xlink:title="A struct keeping track of the currently running optimization step for StatusBar::updateStatus.">
<polygon fill="white" stroke="black" points="197.5,-201.5 197.5,-220.5 313.5,-220.5 313.5,-201.5 197.5,-201.5"/>
<text text-anchor="middle" x="255.5" y="-208.5" font-family="Helvetica,sans-Serif" font-size="10.00">Controller::stepstate</text>
</a>
</g>
</g>
<!-- Node7&#45;&gt;Node5 -->
<g id="edge7" class="edge">
<title>Node7&#45;&gt;Node5</title>
<path fill="none" stroke="#404040" d="M246.15,-201.3C236.87,-192.99 221.98,-180.51 207.5,-172 198.59,-166.76 188.47,-162.03 178.91,-158.05"/>
<polygon fill="none" stroke="#404040" points="178.81,-158.01 171.76,-159.52 167.65,-153.59 174.71,-152.08 178.81,-158.01"/>
<text text-anchor="middle" x="252.5" y="-175" font-family="Helvetica,sans-Serif" font-size="10.00"> #stepState</text>
</g>
<!-- Node8 -->
<g id="node8" class="node">
<title>Node8</title>
<g id="a_node8"><a xlink:href="classParameterNormalizer.xhtml" target="_top" xlink:title="A class used for transforming parameters between the actual Parameter space and the unit hypercube us...">
<polygon fill="white" stroke="black" points="126,-67.5 126,-86.5 247,-86.5 247,-67.5 126,-67.5"/>
<text text-anchor="middle" x="186.5" y="-74.5" font-family="Helvetica,sans-Serif" font-size="10.00">ParameterNormalizer</text>
</a>
</g>
</g>
<!-- Node8&#45;&gt;Node1 -->
<g id="edge8" class="edge">
<title>Node8&#45;&gt;Node1</title>
<path fill="none" stroke="#404040" d="M195.4,-67.23C205.5,-57.29 222.2,-40.84 234.94,-28.29"/>
<polygon fill="none" stroke="#404040" points="235.19,-28.05 236.66,-20.99 243.74,-19.63 242.27,-26.69 235.19,-28.05"/>
<text text-anchor="middle" x="253.5" y="-41" font-family="Helvetica,sans-Serif" font-size="10.00"> &#45;normalizer</text>
</g>
<!-- Node9 -->
<g id="node9" class="node">
<title>Node9</title>
<g id="a_node9"><a xlink:href="classStoppingCondition.xhtml" target="_top" xlink:title="A class used for deciding whether the DIRECT should be stopped.">
<polygon fill="white" stroke="black" points="265.5,-67.5 265.5,-86.5 371.5,-86.5 371.5,-67.5 265.5,-67.5"/>
<text text-anchor="middle" x="318.5" y="-74.5" font-family="Helvetica,sans-Serif" font-size="10.00">StoppingCondition</text>
</a>
</g>
</g>
<!-- Node9&#45;&gt;Node1 -->
<g id="edge9" class="edge">
<title>Node9&#45;&gt;Node1</title>
<path fill="none" stroke="#404040" d="M312.36,-67.38C306.45,-59.35 297.02,-47.26 287.5,-38 283.6,-34.21 279.18,-30.44 274.82,-26.99"/>
<polygon fill="none" stroke="#404040" points="274.62,-26.84 267.42,-26.41 265.05,-19.6 272.25,-20.03 274.62,-26.84"/>
<text text-anchor="middle" x="321" y="-41" font-family="Helvetica,sans-Serif" font-size="10.00"> &#45;stopCon</text>
</g>
<!-- Node10 -->
<g id="node10" class="node">
<title>Node10</title>
<g id="a_node10"><a xlink:href="classLevels.xhtml" target="_top" xlink:title="A providing functionality for the usage of different weightings between local and global search throu...">
<polygon fill="white" stroke="black" points="389.5,-67.5 389.5,-86.5 437.5,-86.5 437.5,-67.5 389.5,-67.5"/>
<text text-anchor="middle" x="413.5" y="-74.5" font-family="Helvetica,sans-Serif" font-size="10.00">Levels</text>
</a>
</g>
</g>
<!-- Node10&#45;&gt;Node1 -->
<g id="edge10" class="edge">
<title>Node10&#45;&gt;Node1</title>
<path fill="none" stroke="#404040" d="M401.05,-67.43C388.33,-58.98 367.75,-46.18 348.5,-38 334.17,-31.91 318.05,-26.77 303.18,-22.66"/>
<polygon fill="none" stroke="#404040" points="303.17,-22.66 296.35,-24.99 291.57,-19.58 298.4,-17.25 303.17,-22.66"/>
<text text-anchor="middle" x="386" y="-41" font-family="Helvetica,sans-Serif" font-size="10.00"> &#45;level</text>
</g>
</g>
</svg>
