<?xml version="1.0" encoding="UTF-8" standalone="no"?>
<!DOCTYPE svg PUBLIC "-//W3C//DTD SVG 1.1//EN"
 "http://www.w3.org/Graphics/SVG/1.1/DTD/svg11.dtd">
<!-- Generated by graphviz version 2.43.0 (0)
 -->
<!-- Title: ConstantHeadway Pages: 1 -->
<svg width="172pt" height="140pt"
 viewBox="0.00 0.00 172.00 140.00" xmlns="http://www.w3.org/2000/svg" xmlns:xlink="http://www.w3.org/1999/xlink">
<g id="graph0" class="graph" transform="scale(1 1) rotate(0) translate(4 136)">
<title>ConstantHeadway</title>
<polygon fill="white" stroke="transparent" points="-4,4 -4,-136 168,-136 168,4 -4,4"/>
<!-- Node1 -->
<g id="node1" class="node">
<title>Node1</title>
<g id="a_node1"><a xlink:title="A wrapper for the constant_headway.py script.">
<polygon fill="#bfbfbf" stroke="black" points="26,-0.5 26,-19.5 132,-19.5 132,-0.5 26,-0.5"/>
<text text-anchor="middle" x="79" y="-7.5" font-family="Helvetica,sans-Serif" font-size="10.00">ConstantHeadway</text>
</a>
</g>
</g>
<!-- Node2 -->
<g id="node2" class="node">
<title>Node2</title>
<g id="a_node2"><a xlink:href="classEvaluation.xhtml" target="_top" xlink:title="A class capable of evaluating simulation results and scoring them with a value which is treated as th...">
<polygon fill="white" stroke="black" points="0,-56.5 0,-75.5 68,-75.5 68,-56.5 0,-56.5"/>
<text text-anchor="middle" x="34" y="-63.5" font-family="Helvetica,sans-Serif" font-size="10.00">Evaluation</text>
</a>
</g>
</g>
<!-- Node2&#45;&gt;Node1 -->
<g id="edge1" class="edge">
<title>Node2&#45;&gt;Node1</title>
<path fill="none" stroke="midnightblue" d="M48.05,-48.14C55.89,-38.74 65.33,-27.4 71.71,-19.75"/>
<polygon fill="none" stroke="midnightblue" points="45.14,-46.16 41.43,-56.08 50.52,-50.64 45.14,-46.16"/>
</g>
<!-- Node3 -->
<g id="node3" class="node">
<title>Node3</title>
<g id="a_node3"><a xlink:href="classStatus.xhtml" target="_top" xlink:title="An interface defining functions for status updates on configuration and progress of a class.">
<polygon fill="white" stroke="black" points="10.5,-112.5 10.5,-131.5 57.5,-131.5 57.5,-112.5 10.5,-112.5"/>
<text text-anchor="middle" x="34" y="-119.5" font-family="Helvetica,sans-Serif" font-size="10.00">Status</text>
</a>
</g>
</g>
<!-- Node3&#45;&gt;Node2 -->
<g id="edge2" class="edge">
<title>Node3&#45;&gt;Node2</title>
<path fill="none" stroke="midnightblue" d="M34,-101.8C34,-92.91 34,-82.78 34,-75.75"/>
<polygon fill="none" stroke="midnightblue" points="30.5,-102.08 34,-112.08 37.5,-102.08 30.5,-102.08"/>
</g>
<!-- Node4 -->
<g id="node4" class="node">
<title>Node4</title>
<g id="a_node4"><a xlink:href="classPythonScript.xhtml" target="_top" xlink:title="A class containing functionality for interfacing with the function of a Python module on creation.">
<polygon fill="white" stroke="black" points="86,-56.5 86,-75.5 164,-75.5 164,-56.5 86,-56.5"/>
<text text-anchor="middle" x="125" y="-63.5" font-family="Helvetica,sans-Serif" font-size="10.00">PythonScript</text>
</a>
</g>
</g>
<!-- Node4&#45;&gt;Node1 -->
<g id="edge3" class="edge">
<title>Node4&#45;&gt;Node1</title>
<path fill="none" stroke="midnightblue" d="M110.89,-48.43C102.82,-38.97 93.04,-27.48 86.45,-19.75"/>
<polygon fill="none" stroke="midnightblue" points="108.25,-50.74 117.4,-56.08 113.58,-46.2 108.25,-50.74"/>
</g>
</g>
</svg>
