<?xml version="1.0" encoding="UTF-8" standalone="no"?>
<!DOCTYPE svg PUBLIC "-//W3C//DTD SVG 1.1//EN"
 "http://www.w3.org/Graphics/SVG/1.1/DTD/svg11.dtd">
<!-- Generated by graphviz version 2.43.0 (0)
 -->
<!-- Title: Parameter Pages: 1 -->
<svg width="256pt" height="84pt"
 viewBox="0.00 0.00 255.50 84.00" xmlns="http://www.w3.org/2000/svg" xmlns:xlink="http://www.w3.org/1999/xlink">
<g id="graph0" class="graph" transform="scale(1 1) rotate(0) translate(4 80)">
<title>Parameter</title>
<polygon fill="white" stroke="transparent" points="-4,4 -4,-80 251.5,-80 251.5,4 -4,4"/>
<!-- Node1 -->
<g id="node1" class="node">
<title>Node1</title>
<g id="a_node1"><a xlink:title="A class acting as the container of the value of a parameter defined by a ParameterDefinition.">
<polygon fill="#bfbfbf" stroke="black" points="93.5,-56.5 93.5,-75.5 160.5,-75.5 160.5,-56.5 93.5,-56.5"/>
<text text-anchor="middle" x="127" y="-63.5" font-family="Helvetica,sans-Serif" font-size="10.00">Parameter</text>
</a>
</g>
</g>
<!-- Node2 -->
<g id="node2" class="node">
<title>Node2</title>
<g id="a_node2"><a xlink:href="classContinuousParameter.xhtml" target="_top" xlink:title="Implements a Parameter using continuos values in the form of floating point numbers.">
<polygon fill="white" stroke="black" points="0,-0.5 0,-19.5 122,-19.5 122,-0.5 0,-0.5"/>
<text text-anchor="middle" x="61" y="-7.5" font-family="Helvetica,sans-Serif" font-size="10.00">ContinuousParameter</text>
</a>
</g>
</g>
<!-- Node1&#45;&gt;Node2 -->
<g id="edge1" class="edge">
<title>Node1&#45;&gt;Node2</title>
<path fill="none" stroke="midnightblue" d="M108.45,-49.82C96.62,-40.15 81.71,-27.95 71.8,-19.83"/>
<polygon fill="none" stroke="midnightblue" points="106.44,-52.7 116.4,-56.32 110.87,-47.28 106.44,-52.7"/>
</g>
<!-- Node3 -->
<g id="node3" class="node">
<title>Node3</title>
<g id="a_node3"><a xlink:href="classDiscreteParameter.xhtml" target="_top" xlink:title="Implements a Parameter using discrete values.">
<polygon fill="white" stroke="black" points="140.5,-0.5 140.5,-19.5 247.5,-19.5 247.5,-0.5 140.5,-0.5"/>
<text text-anchor="middle" x="194" y="-7.5" font-family="Helvetica,sans-Serif" font-size="10.00">DiscreteParameter</text>
</a>
</g>
</g>
<!-- Node1&#45;&gt;Node3 -->
<g id="edge2" class="edge">
<title>Node1&#45;&gt;Node3</title>
<path fill="none" stroke="midnightblue" d="M145.83,-49.82C157.84,-40.15 172.97,-27.95 183.04,-19.83"/>
<polygon fill="none" stroke="midnightblue" points="143.35,-47.32 137.76,-56.32 147.75,-52.77 143.35,-47.32"/>
</g>
</g>
</svg>
