<?xml version="1.0" encoding="UTF-8" standalone="no"?>
<!DOCTYPE svg PUBLIC "-//W3C//DTD SVG 1.1//EN"
 "http://www.w3.org/Graphics/SVG/1.1/DTD/svg11.dtd">
<!-- Generated by graphviz version 2.43.0 (0)
 -->
<!-- Title: Abortable Pages: 1 -->
<svg width="423pt" height="140pt"
 viewBox="0.00 0.00 422.50 140.00" xmlns="http://www.w3.org/2000/svg" xmlns:xlink="http://www.w3.org/1999/xlink">
<g id="graph0" class="graph" transform="scale(1 1) rotate(0) translate(4 136)">
<title>Abortable</title>
<polygon fill="white" stroke="transparent" points="-4,4 -4,-136 418.5,-136 418.5,4 -4,4"/>
<!-- Node1 -->
<g id="node1" class="node">
<title>Node1</title>
<g id="a_node1"><a xlink:title="A simple interface for classes that encapsulate abortable processes.">
<polygon fill="#bfbfbf" stroke="black" points="116,-112.5 116,-131.5 180,-131.5 180,-112.5 116,-112.5"/>
<text text-anchor="middle" x="148" y="-119.5" font-family="Helvetica,sans-Serif" font-size="10.00">Abortable</text>
</a>
</g>
</g>
<!-- Node2 -->
<g id="node2" class="node">
<title>Node2</title>
<g id="a_node2"><a xlink:href="classController.xhtml" target="_top" xlink:title="A class responsible for communication between Optimizer, SimulationRunner and Evaluation and also use...">
<polygon fill="white" stroke="black" points="74.5,-56.5 74.5,-75.5 139.5,-75.5 139.5,-56.5 74.5,-56.5"/>
<text text-anchor="middle" x="107" y="-63.5" font-family="Helvetica,sans-Serif" font-size="10.00">Controller</text>
</a>
</g>
</g>
<!-- Node1&#45;&gt;Node2 -->
<g id="edge1" class="edge">
<title>Node1&#45;&gt;Node2</title>
<path fill="none" stroke="midnightblue" d="M134.98,-103.86C127.88,-94.5 119.4,-83.33 113.64,-75.75"/>
<polygon fill="none" stroke="midnightblue" points="132.39,-106.24 141.23,-112.08 137.97,-102 132.39,-106.24"/>
</g>
<!-- Node4 -->
<g id="node4" class="node">
<title>Node4</title>
<g id="a_node4"><a xlink:href="classOptimizer.xhtml" target="_top" xlink:title="A class containing an optimization strategy which searches the minimum of a blackbox function given t...">
<polygon fill="white" stroke="black" points="169.5,-56.5 169.5,-75.5 234.5,-75.5 234.5,-56.5 169.5,-56.5"/>
<text text-anchor="middle" x="202" y="-63.5" font-family="Helvetica,sans-Serif" font-size="10.00">Optimizer</text>
</a>
</g>
</g>
<!-- Node1&#45;&gt;Node4 -->
<g id="edge3" class="edge">
<title>Node1&#45;&gt;Node4</title>
<path fill="none" stroke="midnightblue" d="M164,-105C173.57,-95.43 185.36,-83.64 193.25,-75.75"/>
<polygon fill="none" stroke="midnightblue" points="161.51,-102.54 156.92,-112.08 166.46,-107.49 161.51,-102.54"/>
</g>
<!-- Node3 -->
<g id="node3" class="node">
<title>Node3</title>
<g id="a_node3"><a xlink:href="classStubController.xhtml" target="_top" xlink:title="A class that mocks behaviour of Controller.">
<polygon fill="white" stroke="black" points="0,-0.5 0,-19.5 86,-19.5 86,-0.5 0,-0.5"/>
<text text-anchor="middle" x="43" y="-7.5" font-family="Helvetica,sans-Serif" font-size="10.00">StubController</text>
</a>
</g>
</g>
<!-- Node2&#45;&gt;Node3 -->
<g id="edge2" class="edge">
<title>Node2&#45;&gt;Node3</title>
<path fill="none" stroke="midnightblue" d="M89.01,-49.82C77.54,-40.15 63.09,-27.95 53.47,-19.83"/>
<polygon fill="none" stroke="midnightblue" points="86.82,-52.55 96.72,-56.32 91.33,-47.2 86.82,-52.55"/>
</g>
<!-- Node5 -->
<g id="node5" class="node">
<title>Node5</title>
<g id="a_node5"><a xlink:href="classDirectOptimizer.xhtml" target="_top" xlink:title="A class capable of finding the minimum of a blackbox function using the DIRECT algorithm.">
<polygon fill="white" stroke="black" points="104,-0.5 104,-19.5 198,-19.5 198,-0.5 104,-0.5"/>
<text text-anchor="middle" x="151" y="-7.5" font-family="Helvetica,sans-Serif" font-size="10.00">DirectOptimizer</text>
</a>
</g>
</g>
<!-- Node4&#45;&gt;Node5 -->
<g id="edge4" class="edge">
<title>Node4&#45;&gt;Node5</title>
<path fill="none" stroke="midnightblue" d="M186.62,-48.72C177.63,-39.2 166.64,-27.56 159.26,-19.75"/>
<polygon fill="none" stroke="midnightblue" points="184.17,-51.22 193.58,-56.08 189.26,-46.41 184.17,-51.22"/>
</g>
<!-- Node6 -->
<g id="node6" class="node">
<title>Node6</title>
<g id="a_node6"><a xlink:href="classMonteCarlo.xhtml" target="_top" xlink:title="A class capable of finding the minimum of a blackbox function using the Monte Carlo algorithm.">
<polygon fill="white" stroke="black" points="216.5,-0.5 216.5,-19.5 289.5,-19.5 289.5,-0.5 216.5,-0.5"/>
<text text-anchor="middle" x="253" y="-7.5" font-family="Helvetica,sans-Serif" font-size="10.00">MonteCarlo</text>
</a>
</g>
</g>
<!-- Node4&#45;&gt;Node6 -->
<g id="edge5" class="edge">
<title>Node4&#45;&gt;Node6</title>
<path fill="none" stroke="midnightblue" d="M217.38,-48.72C226.37,-39.2 237.36,-27.56 244.74,-19.75"/>
<polygon fill="none" stroke="midnightblue" points="214.74,-46.41 210.42,-56.08 219.83,-51.22 214.74,-46.41"/>
</g>
<!-- Node7 -->
<g id="node7" class="node">
<title>Node7</title>
<g id="a_node7"><a xlink:href="classRandomNeighbors.xhtml" target="_top" xlink:title="A class capable of finding the minimum of a blackbox function using the Random Neighbors algorithm.">
<polygon fill="white" stroke="black" points="307.5,-0.5 307.5,-19.5 414.5,-19.5 414.5,-0.5 307.5,-0.5"/>
<text text-anchor="middle" x="361" y="-7.5" font-family="Helvetica,sans-Serif" font-size="10.00">RandomNeighbors</text>
</a>
</g>
</g>
<!-- Node4&#45;&gt;Node7 -->
<g id="edge6" class="edge">
<title>Node4&#45;&gt;Node7</title>
<path fill="none" stroke="midnightblue" d="M236.83,-53.17C266.77,-43 309.22,-28.59 335.92,-19.52"/>
<polygon fill="none" stroke="midnightblue" points="235.54,-49.91 227.19,-56.44 237.79,-56.54 235.54,-49.91"/>
</g>
</g>
</svg>
