<?xml version="1.0" encoding="UTF-8" standalone="no"?>
<!DOCTYPE svg PUBLIC "-//W3C//DTD SVG 1.1//EN"
 "http://www.w3.org/Graphics/SVG/1.1/DTD/svg11.dtd">
<!-- Generated by graphviz version 2.43.0 (0)
 -->
<!-- Title: Controller Pages: 1 -->
<svg width="288pt" height="95pt"
 viewBox="0.00 0.00 288.00 95.00" xmlns="http://www.w3.org/2000/svg" xmlns:xlink="http://www.w3.org/1999/xlink">
<g id="graph0" class="graph" transform="scale(1 1) rotate(0) translate(4 91)">
<title>Controller</title>
<polygon fill="white" stroke="transparent" points="-4,4 -4,-91 284,-91 284,4 -4,4"/>
<!-- Node1 -->
<g id="node1" class="node">
<title>Node1</title>
<g id="a_node1"><a xlink:title="A class responsible for communication between Optimizer, SimulationRunner and Evaluation and also use...">
<polygon fill="#bfbfbf" stroke="black" points="81.5,-0.5 81.5,-19.5 146.5,-19.5 146.5,-0.5 81.5,-0.5"/>
<text text-anchor="middle" x="114" y="-7.5" font-family="Helvetica,sans-Serif" font-size="10.00">Controller</text>
</a>
</g>
</g>
<!-- Node2 -->
<g id="node2" class="node">
<title>Node2</title>
<g id="a_node2"><a xlink:href="classAbortable.xhtml" target="_top" xlink:title="A simple interface for classes that encapsulate abortable processes.">
<polygon fill="white" stroke="black" points="0,-67.5 0,-86.5 64,-86.5 64,-67.5 0,-67.5"/>
<text text-anchor="middle" x="32" y="-74.5" font-family="Helvetica,sans-Serif" font-size="10.00">Abortable</text>
</a>
</g>
</g>
<!-- Node2&#45;&gt;Node1 -->
<g id="edge1" class="edge">
<title>Node2&#45;&gt;Node1</title>
<path fill="none" stroke="midnightblue" d="M51.28,-60.71C67.44,-47.91 89.92,-30.09 103.12,-19.63"/>
<polygon fill="none" stroke="midnightblue" points="48.72,-58.28 43.06,-67.23 53.07,-63.76 48.72,-58.28"/>
</g>
<!-- Node3 -->
<g id="node3" class="node">
<title>Node3</title>
<g id="a_node3"><a xlink:href="classStatusBar.xhtml" target="_top" xlink:title="A class used to conduct command line output containing information about the state of the used Optimi...">
<polygon fill="white" stroke="black" points="82,-67.5 82,-86.5 146,-86.5 146,-67.5 82,-67.5"/>
<text text-anchor="middle" x="114" y="-74.5" font-family="Helvetica,sans-Serif" font-size="10.00">StatusBar</text>
</a>
</g>
</g>
<!-- Node3&#45;&gt;Node1 -->
<g id="edge2" class="edge">
<title>Node3&#45;&gt;Node1</title>
<path fill="none" stroke="#404040" d="M114,-67.23C114,-58.17 114,-43.69 114,-31.69"/>
<polygon fill="none" stroke="#404040" points="114,-31.63 110,-25.63 114,-19.63 118,-25.63 114,-31.63"/>
<text text-anchor="middle" x="143" y="-41" font-family="Helvetica,sans-Serif" font-size="10.00"> #statusBar</text>
</g>
<!-- Node4 -->
<g id="node4" class="node">
<title>Node4</title>
<g id="a_node4"><a xlink:href="structController_1_1stepstate.xhtml" target="_top" xlink:title="A struct keeping track of the currently running optimization step for StatusBar::updateStatus.">
<polygon fill="white" stroke="black" points="164,-67.5 164,-86.5 280,-86.5 280,-67.5 164,-67.5"/>
<text text-anchor="middle" x="222" y="-74.5" font-family="Helvetica,sans-Serif" font-size="10.00">Controller::stepstate</text>
</a>
</g>
</g>
<!-- Node4&#45;&gt;Node1 -->
<g id="edge3" class="edge">
<title>Node4&#45;&gt;Node1</title>
<path fill="none" stroke="#404040" d="M213.07,-67.32C204.2,-59.03 189.95,-46.56 176,-38 167.56,-32.82 157.95,-28.12 148.85,-24.15"/>
<polygon fill="none" stroke="#404040" points="148.82,-24.13 141.74,-25.52 137.74,-19.52 144.81,-18.13 148.82,-24.13"/>
<text text-anchor="middle" x="219" y="-41" font-family="Helvetica,sans-Serif" font-size="10.00"> #stepState</text>
</g>
</g>
</svg>
