<?xml version="1.0" encoding="UTF-8" standalone="no"?>
<!DOCTYPE svg PUBLIC "-//W3C//DTD SVG 1.1//EN"
 "http://www.w3.org/Graphics/SVG/1.1/DTD/svg11.dtd">
<!-- Generated by graphviz version 2.43.0 (0)
 -->
<!-- Title: Optimizer Pages: 1 -->
<svg width="138pt" height="140pt"
 viewBox="0.00 0.00 137.50 140.00" xmlns="http://www.w3.org/2000/svg" xmlns:xlink="http://www.w3.org/1999/xlink">
<g id="graph0" class="graph" transform="scale(1 1) rotate(0) translate(4 136)">
<title>Optimizer</title>
<polygon fill="white" stroke="transparent" points="-4,4 -4,-136 133.5,-136 133.5,4 -4,4"/>
<!-- Node1 -->
<g id="node1" class="node">
<title>Node1</title>
<g id="a_node1"><a xlink:title="A class containing an optimization strategy which searches the minimum of a blackbox function given t...">
<polygon fill="#bfbfbf" stroke="black" points="28,-56.5 28,-75.5 93,-75.5 93,-56.5 28,-56.5"/>
<text text-anchor="middle" x="60.5" y="-63.5" font-family="Helvetica,sans-Serif" font-size="10.00">Optimizer</text>
</a>
</g>
</g>
<!-- Node4 -->
<g id="node4" class="node">
<title>Node4</title>
<g id="a_node4"><a xlink:href="classDirectOptimizer.xhtml" target="_top" xlink:title="A class capable of finding the minimum of a blackbox function using the DIRECT algorithm.">
<polygon fill="white" stroke="black" points="13.5,-0.5 13.5,-19.5 107.5,-19.5 107.5,-0.5 13.5,-0.5"/>
<text text-anchor="middle" x="60.5" y="-7.5" font-family="Helvetica,sans-Serif" font-size="10.00">DirectOptimizer</text>
</a>
</g>
</g>
<!-- Node1&#45;&gt;Node4 -->
<g id="edge3" class="edge">
<title>Node1&#45;&gt;Node4</title>
<path fill="none" stroke="midnightblue" d="M60.5,-45.8C60.5,-36.91 60.5,-26.78 60.5,-19.75"/>
<polygon fill="none" stroke="midnightblue" points="57,-46.08 60.5,-56.08 64,-46.08 57,-46.08"/>
</g>
<!-- Node2 -->
<g id="node2" class="node">
<title>Node2</title>
<g id="a_node2"><a xlink:href="classStatus.xhtml" target="_top" xlink:title="An interface defining functions for status updates on configuration and progress of a class.">
<polygon fill="white" stroke="black" points="0,-112.5 0,-131.5 47,-131.5 47,-112.5 0,-112.5"/>
<text text-anchor="middle" x="23.5" y="-119.5" font-family="Helvetica,sans-Serif" font-size="10.00">Status</text>
</a>
</g>
</g>
<!-- Node2&#45;&gt;Node1 -->
<g id="edge1" class="edge">
<title>Node2&#45;&gt;Node1</title>
<path fill="none" stroke="midnightblue" d="M35.45,-103.57C41.81,-94.27 49.37,-83.25 54.5,-75.75"/>
<polygon fill="none" stroke="midnightblue" points="32.37,-101.86 29.61,-112.08 38.15,-105.81 32.37,-101.86"/>
</g>
<!-- Node3 -->
<g id="node3" class="node">
<title>Node3</title>
<g id="a_node3"><a xlink:href="classAbortable.xhtml" target="_top" xlink:title="A simple interface for classes that encapsulate abortable processes.">
<polygon fill="white" stroke="black" points="65.5,-112.5 65.5,-131.5 129.5,-131.5 129.5,-112.5 65.5,-112.5"/>
<text text-anchor="middle" x="97.5" y="-119.5" font-family="Helvetica,sans-Serif" font-size="10.00">Abortable</text>
</a>
</g>
</g>
<!-- Node3&#45;&gt;Node1 -->
<g id="edge2" class="edge">
<title>Node3&#45;&gt;Node1</title>
<path fill="none" stroke="midnightblue" d="M85.55,-103.57C79.19,-94.27 71.63,-83.25 66.5,-75.75"/>
<polygon fill="none" stroke="midnightblue" points="82.85,-105.81 91.39,-112.08 88.63,-101.86 82.85,-105.81"/>
</g>
</g>
</svg>
