<?xml version="1.0" encoding="UTF-8" standalone="no"?>
<!DOCTYPE svg PUBLIC "-//W3C//DTD SVG 1.1//EN"
 "http://www.w3.org/Graphics/SVG/1.1/DTD/svg11.dtd">
<!-- Generated by graphviz version 2.43.0 (0)
 -->
<!-- Title: Optimizer Pages: 1 -->
<svg width="319pt" height="140pt"
 viewBox="0.00 0.00 318.50 140.00" xmlns="http://www.w3.org/2000/svg" xmlns:xlink="http://www.w3.org/1999/xlink">
<g id="graph0" class="graph" transform="scale(1 1) rotate(0) translate(4 136)">
<title>Optimizer</title>
<polygon fill="white" stroke="transparent" points="-4,4 -4,-136 314.5,-136 314.5,4 -4,4"/>
<!-- Node1 -->
<g id="node1" class="node">
<title>Node1</title>
<g id="a_node1"><a xlink:title="A class containing an optimization strategy which searches the minimum of a blackbox function given t...">
<polygon fill="#bfbfbf" stroke="black" points="116.5,-56.5 116.5,-75.5 181.5,-75.5 181.5,-56.5 116.5,-56.5"/>
<text text-anchor="middle" x="149" y="-63.5" font-family="Helvetica,sans-Serif" font-size="10.00">Optimizer</text>
</a>
</g>
</g>
<!-- Node4 -->
<g id="node4" class="node">
<title>Node4</title>
<g id="a_node4"><a xlink:href="classDirectOptimizer.xhtml" target="_top" xlink:title="A class capable of finding the minimum of a blackbox function using the DIRECT algorithm.">
<polygon fill="white" stroke="black" points="0,-0.5 0,-19.5 94,-19.5 94,-0.5 0,-0.5"/>
<text text-anchor="middle" x="47" y="-7.5" font-family="Helvetica,sans-Serif" font-size="10.00">DirectOptimizer</text>
</a>
</g>
</g>
<!-- Node1&#45;&gt;Node4 -->
<g id="edge3" class="edge">
<title>Node1&#45;&gt;Node4</title>
<path fill="none" stroke="midnightblue" d="M123.67,-51.59C104.81,-41.61 79.62,-28.27 63.35,-19.65"/>
<polygon fill="none" stroke="midnightblue" points="122.14,-54.74 132.61,-56.32 125.41,-48.55 122.14,-54.74"/>
</g>
<!-- Node5 -->
<g id="node5" class="node">
<title>Node5</title>
<g id="a_node5"><a xlink:href="classMonteCarlo.xhtml" target="_top" xlink:title="A class capable of finding the minimum of a blackbox function using the Monte Carlo algorithm.">
<polygon fill="white" stroke="black" points="112.5,-0.5 112.5,-19.5 185.5,-19.5 185.5,-0.5 112.5,-0.5"/>
<text text-anchor="middle" x="149" y="-7.5" font-family="Helvetica,sans-Serif" font-size="10.00">MonteCarlo</text>
</a>
</g>
</g>
<!-- Node1&#45;&gt;Node5 -->
<g id="edge4" class="edge">
<title>Node1&#45;&gt;Node5</title>
<path fill="none" stroke="midnightblue" d="M149,-45.8C149,-36.91 149,-26.78 149,-19.75"/>
<polygon fill="none" stroke="midnightblue" points="145.5,-46.08 149,-56.08 152.5,-46.08 145.5,-46.08"/>
</g>
<!-- Node6 -->
<g id="node6" class="node">
<title>Node6</title>
<g id="a_node6"><a xlink:href="classRandomNeighbors.xhtml" target="_top" xlink:title="A class capable of finding the minimum of a blackbox function using the Random Neighbors algorithm.">
<polygon fill="white" stroke="black" points="203.5,-0.5 203.5,-19.5 310.5,-19.5 310.5,-0.5 203.5,-0.5"/>
<text text-anchor="middle" x="257" y="-7.5" font-family="Helvetica,sans-Serif" font-size="10.00">RandomNeighbors</text>
</a>
</g>
</g>
<!-- Node1&#45;&gt;Node6 -->
<g id="edge5" class="edge">
<title>Node1&#45;&gt;Node6</title>
<path fill="none" stroke="midnightblue" d="M175.55,-51.73C195.55,-41.73 222.39,-28.31 239.69,-19.65"/>
<polygon fill="none" stroke="midnightblue" points="173.73,-48.72 166.35,-56.32 176.86,-54.98 173.73,-48.72"/>
</g>
<!-- Node2 -->
<g id="node2" class="node">
<title>Node2</title>
<g id="a_node2"><a xlink:href="classStatus.xhtml" target="_top" xlink:title="An interface defining functions for status updates on configuration and progress of a class.">
<polygon fill="white" stroke="black" points="88.5,-112.5 88.5,-131.5 135.5,-131.5 135.5,-112.5 88.5,-112.5"/>
<text text-anchor="middle" x="112" y="-119.5" font-family="Helvetica,sans-Serif" font-size="10.00">Status</text>
</a>
</g>
</g>
<!-- Node2&#45;&gt;Node1 -->
<g id="edge1" class="edge">
<title>Node2&#45;&gt;Node1</title>
<path fill="none" stroke="midnightblue" d="M123.95,-103.57C130.31,-94.27 137.87,-83.25 143,-75.75"/>
<polygon fill="none" stroke="midnightblue" points="120.87,-101.86 118.11,-112.08 126.65,-105.81 120.87,-101.86"/>
</g>
<!-- Node3 -->
<g id="node3" class="node">
<title>Node3</title>
<g id="a_node3"><a xlink:href="classAbortable.xhtml" target="_top" xlink:title="A simple interface for classes that encapsulate abortable processes.">
<polygon fill="white" stroke="black" points="154,-112.5 154,-131.5 218,-131.5 218,-112.5 154,-112.5"/>
<text text-anchor="middle" x="186" y="-119.5" font-family="Helvetica,sans-Serif" font-size="10.00">Abortable</text>
</a>
</g>
</g>
<!-- Node3&#45;&gt;Node1 -->
<g id="edge2" class="edge">
<title>Node3&#45;&gt;Node1</title>
<path fill="none" stroke="midnightblue" d="M174.05,-103.57C167.69,-94.27 160.13,-83.25 155,-75.75"/>
<polygon fill="none" stroke="midnightblue" points="171.35,-105.81 179.89,-112.08 177.13,-101.86 171.35,-105.81"/>
</g>
</g>
</svg>
