<?xml version="1.0" encoding="UTF-8" standalone="no"?>
<!DOCTYPE svg PUBLIC "-//W3C//DTD SVG 1.1//EN"
 "http://www.w3.org/Graphics/SVG/1.1/DTD/svg11.dtd">
<!-- Generated by graphviz version 2.43.0 (0)
 -->
<!-- Title: PlexeSimulationRunner Pages: 1 -->
<svg width="420pt" height="370pt"
 viewBox="0.00 0.00 420.00 370.00" xmlns="http://www.w3.org/2000/svg" xmlns:xlink="http://www.w3.org/1999/xlink">
<g id="graph0" class="graph" transform="scale(1 1) rotate(0) translate(4 366)">
<title>PlexeSimulationRunner</title>
<polygon fill="white" stroke="transparent" points="-4,4 -4,-366 416,-366 416,4 -4,4"/>
<!-- Node1 -->
<g id="node1" class="node">
<title>Node1</title>
<g id="a_node1"><a xlink:title="A class capable of starting platooning simulations in the Plexe framework with given parameterCombina...">
<polygon fill="#bfbfbf" stroke="black" points="79,-0.5 79,-19.5 209,-19.5 209,-0.5 79,-0.5"/>
<text text-anchor="middle" x="144" y="-7.5" font-family="Helvetica,sans-Serif" font-size="10.00">PlexeSimulationRunner</text>
</a>
</g>
</g>
<!-- Node2 -->
<g id="node2" class="node">
<title>Node2</title>
<g id="a_node2"><a xlink:href="classSimulationRunner.xhtml" target="_top" xlink:title="A class capable of running simulations with certain parameterCombinations.">
<polygon fill="white" stroke="black" points="92,-67.5 92,-86.5 196,-86.5 196,-67.5 92,-67.5"/>
<text text-anchor="middle" x="144" y="-74.5" font-family="Helvetica,sans-Serif" font-size="10.00">SimulationRunner</text>
</a>
</g>
</g>
<!-- Node2&#45;&gt;Node1 -->
<g id="edge1" class="edge">
<title>Node2&#45;&gt;Node1</title>
<path fill="none" stroke="midnightblue" d="M144,-57.04C144,-44.67 144,-29.12 144,-19.63"/>
<polygon fill="none" stroke="midnightblue" points="140.5,-57.23 144,-67.23 147.5,-57.23 140.5,-57.23"/>
</g>
<!-- Node3 -->
<g id="node3" class="node">
<title>Node3</title>
<g id="a_node3"><a xlink:href="classMultithreaded.xhtml" target="_top" xlink:title=" ">
<polygon fill="white" stroke="black" points="177.5,-187.5 177.5,-250.5 350.5,-250.5 350.5,-187.5 177.5,-187.5"/>
<text text-anchor="start" x="185.5" y="-238.5" font-family="Helvetica,sans-Serif" font-size="10.00">Multithreaded&lt; parameter</text>
<text text-anchor="start" x="185.5" y="-227.5" font-family="Helvetica,sans-Serif" font-size="10.00">Combination, std::pair</text>
<text text-anchor="start" x="185.5" y="-216.5" font-family="Helvetica,sans-Serif" font-size="10.00">&lt; std::filesystem::path,</text>
<text text-anchor="start" x="185.5" y="-205.5" font-family="Helvetica,sans-Serif" font-size="10.00"> std::set&lt; runId &gt; &gt;, CmpVector</text>
<text text-anchor="middle" x="264" y="-194.5" font-family="Helvetica,sans-Serif" font-size="10.00">SharedParameter &gt;</text>
</a>
</g>
</g>
<!-- Node3&#45;&gt;Node2 -->
<g id="edge2" class="edge">
<title>Node3&#45;&gt;Node2</title>
<path fill="none" stroke="midnightblue" d="M230.96,-179.45C203.71,-147.66 167.1,-104.95 151.52,-86.78"/>
<polygon fill="none" stroke="midnightblue" points="228.5,-181.96 237.67,-187.28 233.81,-177.41 228.5,-181.96"/>
</g>
<!-- Node4 -->
<g id="node4" class="node">
<title>Node4</title>
<g id="a_node4"><a xlink:href="classMultithreaded.xhtml" target="_top" xlink:title="A class implementing concurrent execution of the same function for different arguments.">
<polygon fill="white" stroke="black" points="88.5,-331.5 88.5,-361.5 225.5,-361.5 225.5,-331.5 88.5,-331.5"/>
<text text-anchor="start" x="96.5" y="-349.5" font-family="Helvetica,sans-Serif" font-size="10.00">Multithreaded&lt; Key,</text>
<text text-anchor="middle" x="157" y="-338.5" font-family="Helvetica,sans-Serif" font-size="10.00"> T, Compare, Allocator &gt;</text>
</a>
</g>
</g>
<!-- Node4&#45;&gt;Node3 -->
<g id="edge3" class="edge">
<title>Node4&#45;&gt;Node3</title>
<path fill="none" stroke="orange" d="M202.16,-326.29C208.28,-322.47 214.12,-318.04 219,-313 235.97,-295.48 247.61,-270.32 254.79,-250.59"/>
<polygon fill="orange" stroke="orange" points="200.04,-323.47 193.09,-331.47 203.51,-329.55 200.04,-323.47"/>
<text text-anchor="start" x="246" y="-305" font-family="Helvetica,sans-Serif" font-size="10.00"> &lt; parameterCombination,</text>
<text text-anchor="start" x="246" y="-294" font-family="Helvetica,sans-Serif" font-size="10.00"> std::pair&lt; std::filesystem</text>
<text text-anchor="start" x="246" y="-283" font-family="Helvetica,sans-Serif" font-size="10.00">::path, std::set&lt; runId &gt;</text>
<text text-anchor="middle" x="329" y="-272" font-family="Helvetica,sans-Serif" font-size="10.00"> &gt;, CmpVectorSharedParameter &gt;</text>
</g>
<!-- Node6 -->
<g id="node6" class="node">
<title>Node6</title>
<g id="a_node6"><a xlink:href="classMultithreaded.xhtml" target="_top" xlink:title=" ">
<polygon fill="white" stroke="black" points="0,-105.5 0,-168.5 128,-168.5 128,-105.5 0,-105.5"/>
<text text-anchor="start" x="8" y="-156.5" font-family="Helvetica,sans-Serif" font-size="10.00">Multithreaded&lt; std</text>
<text text-anchor="start" x="8" y="-145.5" font-family="Helvetica,sans-Serif" font-size="10.00">::pair&lt; std::filesystem</text>
<text text-anchor="start" x="8" y="-134.5" font-family="Helvetica,sans-Serif" font-size="10.00">::path, std::pair&lt; std</text>
<text text-anchor="start" x="8" y="-123.5" font-family="Helvetica,sans-Serif" font-size="10.00">::string, unsigned int &gt;</text>
<text text-anchor="middle" x="64" y="-112.5" font-family="Helvetica,sans-Serif" font-size="10.00"> &gt;, bool &gt;</text>
</a>
</g>
</g>
<!-- Node4&#45;&gt;Node6 -->
<g id="edge6" class="edge">
<title>Node4&#45;&gt;Node6</title>
<path fill="none" stroke="orange" d="M90.77,-326.18C85.5,-322.52 80.76,-318.17 77,-313 46.24,-270.77 50.86,-206.58 57.26,-168.81"/>
<polygon fill="orange" stroke="orange" points="89.06,-329.23 99.43,-331.37 92.66,-323.23 89.06,-329.23"/>
<text text-anchor="start" x="77" y="-299.5" font-family="Helvetica,sans-Serif" font-size="10.00"> &lt; std::pair&lt; std::filesystem</text>
<text text-anchor="start" x="77" y="-288.5" font-family="Helvetica,sans-Serif" font-size="10.00">::path, std::pair&lt; std::string,</text>
<text text-anchor="middle" x="146" y="-277.5" font-family="Helvetica,sans-Serif" font-size="10.00"> unsigned int &gt; &gt;, bool &gt;</text>
</g>
<!-- Node5 -->
<g id="node5" class="node">
<title>Node5</title>
<g id="a_node5"><a xlink:href="classStatus.xhtml" target="_top" xlink:title="An interface defining functions for status updates on configuration and progress of a class.">
<polygon fill="white" stroke="black" points="112.5,-209.5 112.5,-228.5 159.5,-228.5 159.5,-209.5 112.5,-209.5"/>
<text text-anchor="middle" x="136" y="-216.5" font-family="Helvetica,sans-Serif" font-size="10.00">Status</text>
</a>
</g>
</g>
<!-- Node5&#45;&gt;Node2 -->
<g id="edge4" class="edge">
<title>Node5&#45;&gt;Node2</title>
<path fill="none" stroke="midnightblue" d="M137.08,-199.02C138.84,-168.34 142.23,-109.04 143.5,-86.75"/>
<polygon fill="none" stroke="midnightblue" points="133.58,-199.06 136.5,-209.24 140.57,-199.46 133.58,-199.06"/>
</g>
<!-- Node6&#45;&gt;Node1 -->
<g id="edge5" class="edge">
<title>Node6&#45;&gt;Node1</title>
<path fill="none" stroke="midnightblue" d="M71.15,-95.36C73.93,-85.62 77.76,-75.58 83,-67 95.37,-46.76 117.13,-29.35 131.04,-19.52"/>
<polygon fill="none" stroke="midnightblue" points="67.69,-94.75 68.62,-105.31 74.48,-96.48 67.69,-94.75"/>
</g>
<!-- Node7 -->
<g id="node7" class="node">
<title>Node7</title>
<g id="a_node7"><a xlink:href="classConfigEditor.xhtml" target="_top" xlink:title="A class capable of creating .ini files with certain options based on a complete omnetpp....">
<polygon fill="white" stroke="black" points="214,-67.5 214,-86.5 290,-86.5 290,-67.5 214,-67.5"/>
<text text-anchor="middle" x="252" y="-74.5" font-family="Helvetica,sans-Serif" font-size="10.00">ConfigEditor</text>
</a>
</g>
</g>
<!-- Node7&#45;&gt;Node1 -->
<g id="edge7" class="edge">
<title>Node7&#45;&gt;Node1</title>
<path fill="none" stroke="#404040" d="M237.43,-67.23C219.86,-56.66 190.05,-38.71 168.82,-25.94"/>
<polygon fill="none" stroke="#404040" points="168.62,-25.82 161.41,-26.15 158.33,-19.63 165.54,-19.29 168.62,-25.82"/>
<text text-anchor="middle" x="222" y="-41" font-family="Helvetica,sans-Serif" font-size="10.00"> &#45;editor</text>
</g>
</g>
</svg>
