<?xml version="1.0" encoding="UTF-8" standalone="no"?>
<!DOCTYPE svg PUBLIC "-//W3C//DTD SVG 1.1//EN"
 "http://www.w3.org/Graphics/SVG/1.1/DTD/svg11.dtd">
<!-- Generated by graphviz version 2.43.0 (0)
 -->
<!-- Title: DirectOptimizer Pages: 1 -->
<svg width="510pt" height="229pt"
 viewBox="0.00 0.00 509.50 229.00" xmlns="http://www.w3.org/2000/svg" xmlns:xlink="http://www.w3.org/1999/xlink">
<g id="graph0" class="graph" transform="scale(1 1) rotate(0) translate(4 225)">
<title>DirectOptimizer</title>
<polygon fill="white" stroke="transparent" points="-4,4 -4,-225 505.5,-225 505.5,4 -4,4"/>
<!-- Node1 -->
<g id="node1" class="node">
<title>Node1</title>
<g id="a_node1"><a xlink:title="A class capable of finding the minimum of a blackbox function using the DIRECT algorithm.">
<polygon fill="#bfbfbf" stroke="black" points="290.5,-0.5 290.5,-19.5 384.5,-19.5 384.5,-0.5 290.5,-0.5"/>
<text text-anchor="middle" x="337.5" y="-7.5" font-family="Helvetica,sans-Serif" font-size="10.00">DirectOptimizer</text>
</a>
</g>
</g>
<!-- Node2 -->
<g id="node2" class="node">
<title>Node2</title>
<g id="a_node2"><a xlink:href="classOptimizer.xhtml" target="_top" xlink:title="A class containing an optimization strategy which searches the minimum of a blackbox function given t...">
<polygon fill="white" stroke="black" points="66,-67.5 66,-86.5 131,-86.5 131,-67.5 66,-67.5"/>
<text text-anchor="middle" x="98.5" y="-74.5" font-family="Helvetica,sans-Serif" font-size="10.00">Optimizer</text>
</a>
</g>
</g>
<!-- Node2&#45;&gt;Node1 -->
<g id="edge1" class="edge">
<title>Node2&#45;&gt;Node1</title>
<path fill="none" stroke="midnightblue" d="M140.15,-64.67C187.41,-51.82 263.44,-31.14 306.01,-19.56"/>
<polygon fill="none" stroke="midnightblue" points="138.97,-61.37 130.24,-67.37 140.81,-68.12 138.97,-61.37"/>
</g>
<!-- Node3 -->
<g id="node3" class="node">
<title>Node3</title>
<g id="a_node3"><a xlink:href="classStatus.xhtml" target="_top" xlink:title="An interface defining functions for status updates on configuration and progress of a class.">
<polygon fill="white" stroke="black" points="0,-134.5 0,-153.5 47,-153.5 47,-134.5 0,-134.5"/>
<text text-anchor="middle" x="23.5" y="-141.5" font-family="Helvetica,sans-Serif" font-size="10.00">Status</text>
</a>
</g>
</g>
<!-- Node3&#45;&gt;Node2 -->
<g id="edge2" class="edge">
<title>Node3&#45;&gt;Node2</title>
<path fill="none" stroke="midnightblue" d="M38.49,-126.93C45.28,-119.94 53.55,-111.8 61.5,-105 69.23,-98.38 78.48,-91.63 85.8,-86.54"/>
<polygon fill="none" stroke="midnightblue" points="35.67,-124.81 31.3,-134.47 40.74,-129.64 35.67,-124.81"/>
</g>
<!-- Node4 -->
<g id="node4" class="node">
<title>Node4</title>
<g id="a_node4"><a xlink:href="classAbortable.xhtml" target="_top" xlink:title="A simple interface for classes that encapsulate abortable processes.">
<polygon fill="white" stroke="black" points="32.5,-201.5 32.5,-220.5 96.5,-220.5 96.5,-201.5 32.5,-201.5"/>
<text text-anchor="middle" x="64.5" y="-208.5" font-family="Helvetica,sans-Serif" font-size="10.00">Abortable</text>
</a>
</g>
</g>
<!-- Node4&#45;&gt;Node2 -->
<g id="edge3" class="edge">
<title>Node4&#45;&gt;Node2</title>
<path fill="none" stroke="midnightblue" d="M69.32,-191.28C76.8,-162.25 90.89,-107.54 96.31,-86.52"/>
<polygon fill="none" stroke="midnightblue" points="65.84,-190.78 66.73,-201.34 72.61,-192.53 65.84,-190.78"/>
</g>
<!-- Node5 -->
<g id="node5" class="node">
<title>Node5</title>
<g id="a_node5"><a xlink:href="classController.xhtml" target="_top" xlink:title="A class responsible for communication between Optimizer, SimulationRunner and Evaluation and also use...">
<polygon fill="white" stroke="black" points="104,-134.5 104,-153.5 169,-153.5 169,-134.5 104,-134.5"/>
<text text-anchor="middle" x="136.5" y="-141.5" font-family="Helvetica,sans-Serif" font-size="10.00">Controller</text>
</a>
</g>
</g>
<!-- Node4&#45;&gt;Node5 -->
<g id="edge5" class="edge">
<title>Node4&#45;&gt;Node5</title>
<path fill="none" stroke="midnightblue" d="M81.83,-194.36C95.98,-181.58 115.46,-163.99 126.94,-153.63"/>
<polygon fill="none" stroke="midnightblue" points="79.29,-191.93 74.21,-201.23 83.98,-197.13 79.29,-191.93"/>
</g>
<!-- Node5&#45;&gt;Node2 -->
<g id="edge4" class="edge">
<title>Node5&#45;&gt;Node2</title>
<path fill="none" stroke="#404040" d="M131.38,-134.23C125.85,-124.78 116.88,-109.44 109.7,-97.16"/>
<polygon fill="none" stroke="#404040" points="109.6,-96.99 103.12,-93.83 103.54,-86.63 110.03,-89.79 109.6,-96.99"/>
<text text-anchor="middle" x="147.5" y="-108" font-family="Helvetica,sans-Serif" font-size="10.00"> &#45;controller</text>
</g>
<!-- Node6 -->
<g id="node6" class="node">
<title>Node6</title>
<g id="a_node6"><a xlink:href="classStatusBar.xhtml" target="_top" xlink:title="A class used to conduct command line output containing information about the state of the used Optimi...">
<polygon fill="white" stroke="black" points="114.5,-201.5 114.5,-220.5 178.5,-220.5 178.5,-201.5 114.5,-201.5"/>
<text text-anchor="middle" x="146.5" y="-208.5" font-family="Helvetica,sans-Serif" font-size="10.00">StatusBar</text>
</a>
</g>
</g>
<!-- Node6&#45;&gt;Node5 -->
<g id="edge6" class="edge">
<title>Node6&#45;&gt;Node5</title>
<path fill="none" stroke="#404040" d="M145.15,-201.23C143.76,-192.17 141.53,-177.69 139.68,-165.69"/>
<polygon fill="none" stroke="#404040" points="139.65,-165.49 134.79,-160.17 137.83,-153.63 142.69,-158.95 139.65,-165.49"/>
<text text-anchor="middle" x="171.5" y="-175" font-family="Helvetica,sans-Serif" font-size="10.00"> #statusBar</text>
</g>
<!-- Node7 -->
<g id="node7" class="node">
<title>Node7</title>
<g id="a_node7"><a xlink:href="structController_1_1stepstate.xhtml" target="_top" xlink:title="A struct keeping track of the currently running optimization step for StatusBar::updateStatus.">
<polygon fill="white" stroke="black" points="196.5,-201.5 196.5,-220.5 312.5,-220.5 312.5,-201.5 196.5,-201.5"/>
<text text-anchor="middle" x="254.5" y="-208.5" font-family="Helvetica,sans-Serif" font-size="10.00">Controller::stepstate</text>
</a>
</g>
</g>
<!-- Node7&#45;&gt;Node5 -->
<g id="edge7" class="edge">
<title>Node7&#45;&gt;Node5</title>
<path fill="none" stroke="#404040" d="M244.72,-201.28C235.03,-192.96 219.5,-180.47 204.5,-172 195.04,-166.66 184.31,-161.87 174.21,-157.87"/>
<polygon fill="none" stroke="#404040" points="173.99,-157.78 166.97,-159.4 162.77,-153.54 169.8,-151.92 173.99,-157.78"/>
<text text-anchor="middle" x="249.5" y="-175" font-family="Helvetica,sans-Serif" font-size="10.00"> #stepState</text>
</g>
<!-- Node8 -->
<g id="node8" class="node">
<title>Node8</title>
<g id="a_node8"><a xlink:href="classDirectStoppingCondition.xhtml" target="_top" xlink:title="A class used for deciding whether the DIRECT should be stopped.">
<polygon fill="white" stroke="black" points="161,-67.5 161,-86.5 296,-86.5 296,-67.5 161,-67.5"/>
<text text-anchor="middle" x="228.5" y="-74.5" font-family="Helvetica,sans-Serif" font-size="10.00">DirectStoppingCondition</text>
</a>
</g>
</g>
<!-- Node8&#45;&gt;Node1 -->
<g id="edge8" class="edge">
<title>Node8&#45;&gt;Node1</title>
<path fill="none" stroke="#404040" d="M243.2,-67.23C260.93,-56.66 291.03,-38.71 312.45,-25.94"/>
<polygon fill="none" stroke="#404040" points="312.73,-25.77 315.83,-19.26 323.03,-19.63 319.93,-26.14 312.73,-25.77"/>
<text text-anchor="middle" x="314" y="-41" font-family="Helvetica,sans-Serif" font-size="10.00"> &#45;stopCon</text>
</g>
<!-- Node9 -->
<g id="node9" class="node">
<title>Node9</title>
<g id="a_node9"><a xlink:href="classStoppingCondition.xhtml" target="_top" xlink:title="A class used for deciding whether the optimization should be stopped.">
<polygon fill="white" stroke="black" points="187.5,-134.5 187.5,-153.5 293.5,-153.5 293.5,-134.5 187.5,-134.5"/>
<text text-anchor="middle" x="240.5" y="-141.5" font-family="Helvetica,sans-Serif" font-size="10.00">StoppingCondition</text>
</a>
</g>
</g>
<!-- Node9&#45;&gt;Node8 -->
<g id="edge9" class="edge">
<title>Node9&#45;&gt;Node8</title>
<path fill="none" stroke="midnightblue" d="M237,-124.04C234.72,-111.67 231.85,-96.12 230.09,-86.63"/>
<polygon fill="none" stroke="midnightblue" points="233.62,-125.04 238.88,-134.23 240.51,-123.76 233.62,-125.04"/>
</g>
<!-- Node10 -->
<g id="node10" class="node">
<title>Node10</title>
<g id="a_node10"><a xlink:href="classParameterNormalizer.xhtml" target="_top" xlink:title="A class used for transforming parameters between the actual Parameter space and the unit hypercube us...">
<polygon fill="white" stroke="black" points="314,-67.5 314,-86.5 435,-86.5 435,-67.5 314,-67.5"/>
<text text-anchor="middle" x="374.5" y="-74.5" font-family="Helvetica,sans-Serif" font-size="10.00">ParameterNormalizer</text>
</a>
</g>
</g>
<!-- Node10&#45;&gt;Node1 -->
<g id="edge10" class="edge">
<title>Node10&#45;&gt;Node1</title>
<path fill="none" stroke="#404040" d="M369.51,-67.23C364.13,-57.78 355.39,-42.44 348.41,-30.16"/>
<polygon fill="none" stroke="#404040" points="348.35,-30.06 341.9,-26.82 342.41,-19.63 348.86,-22.86 348.35,-30.06"/>
<text text-anchor="middle" x="387.5" y="-41" font-family="Helvetica,sans-Serif" font-size="10.00"> &#45;normalizer</text>
</g>
<!-- Node11 -->
<g id="node11" class="node">
<title>Node11</title>
<g id="a_node11"><a xlink:href="classLevels.xhtml" target="_top" xlink:title="A providing functionality for the usage of different weightings between local and global search throu...">
<polygon fill="white" stroke="black" points="453.5,-67.5 453.5,-86.5 501.5,-86.5 501.5,-67.5 453.5,-67.5"/>
<text text-anchor="middle" x="477.5" y="-74.5" font-family="Helvetica,sans-Serif" font-size="10.00">Levels</text>
</a>
</g>
</g>
<!-- Node11&#45;&gt;Node1 -->
<g id="edge11" class="edge">
<title>Node11&#45;&gt;Node1</title>
<path fill="none" stroke="#404040" d="M466.91,-67.45C456.05,-59.02 438.4,-46.24 421.5,-38 409.5,-32.15 395.94,-27.15 383.26,-23.11"/>
<polygon fill="none" stroke="#404040" points="382.95,-23.01 376.04,-25.1 371.47,-19.52 378.37,-17.44 382.95,-23.01"/>
<text text-anchor="middle" x="456" y="-41" font-family="Helvetica,sans-Serif" font-size="10.00"> &#45;level</text>
</g>
</g>
</svg>
