<?xml version="1.0" encoding="UTF-8" standalone="no"?>
<!DOCTYPE svg PUBLIC "-//W3C//DTD SVG 1.1//EN"
 "http://www.w3.org/Graphics/SVG/1.1/DTD/svg11.dtd">
<!-- Generated by graphviz version 2.43.0 (0)
 -->
<!-- Title: Multithreaded&lt; Key, T, Compare, Allocator &gt; Pages: 1 -->
<svg width="377pt" height="360pt"
 viewBox="0.00 0.00 377.00 360.00" xmlns="http://www.w3.org/2000/svg" xmlns:xlink="http://www.w3.org/1999/xlink">
<g id="graph0" class="graph" transform="scale(1 1) rotate(0) translate(4 356)">
<title>Multithreaded&lt; Key, T, Compare, Allocator &gt;</title>
<polygon fill="white" stroke="transparent" points="-4,4 -4,-356 373,-356 373,4 -4,4"/>
<!-- Node1 -->
<g id="node1" class="node">
<title>Node1</title>
<g id="a_node1"><a xlink:title="A class implementing concurrent execution of the same function for different arguments.">
<polygon fill="#bfbfbf" stroke="black" points="66.5,-321.5 66.5,-351.5 203.5,-351.5 203.5,-321.5 66.5,-321.5"/>
<text text-anchor="start" x="74.5" y="-339.5" font-family="Helvetica,sans-Serif" font-size="10.00">Multithreaded&lt; Key,</text>
<text text-anchor="middle" x="135" y="-328.5" font-family="Helvetica,sans-Serif" font-size="10.00"> T, Compare, Allocator &gt;</text>
</a>
</g>
</g>
<!-- Node2 -->
<g id="node2" class="node">
<title>Node2</title>
<g id="a_node2"><a xlink:href="classMultithreaded.xhtml" target="_top" xlink:title=" ">
<polygon fill="white" stroke="black" points="0,-95.5 0,-158.5 128,-158.5 128,-95.5 0,-95.5"/>
<text text-anchor="start" x="8" y="-146.5" font-family="Helvetica,sans-Serif" font-size="10.00">Multithreaded&lt; std</text>
<text text-anchor="start" x="8" y="-135.5" font-family="Helvetica,sans-Serif" font-size="10.00">::pair&lt; std::filesystem</text>
<text text-anchor="start" x="8" y="-124.5" font-family="Helvetica,sans-Serif" font-size="10.00">::path, std::pair&lt; std</text>
<text text-anchor="start" x="8" y="-113.5" font-family="Helvetica,sans-Serif" font-size="10.00">::string, unsigned int &gt;</text>
<text text-anchor="middle" x="64" y="-102.5" font-family="Helvetica,sans-Serif" font-size="10.00"> &gt;, bool &gt;</text>
</a>
</g>
</g>
<!-- Node1&#45;&gt;Node2 -->
<g id="edge1" class="edge">
<title>Node1&#45;&gt;Node2</title>
<path fill="none" stroke="orange" d="M64.79,-315.98C59.85,-312.36 55.46,-308.08 52,-303 22.56,-259.86 37.95,-195.98 51.32,-158.51"/>
<polygon fill="orange" stroke="orange" points="63.23,-319.12 73.56,-321.45 66.93,-313.19 63.23,-319.12"/>
<text text-anchor="start" x="52" y="-289.5" font-family="Helvetica,sans-Serif" font-size="10.00"> &lt; std::pair&lt; std::filesystem</text>
<text text-anchor="start" x="52" y="-278.5" font-family="Helvetica,sans-Serif" font-size="10.00">::path, std::pair&lt; std::string,</text>
<text text-anchor="middle" x="121" y="-267.5" font-family="Helvetica,sans-Serif" font-size="10.00"> unsigned int &gt; &gt;, bool &gt;</text>
</g>
<!-- Node4 -->
<g id="node4" class="node">
<title>Node4</title>
<g id="a_node4"><a xlink:href="classMultithreaded.xhtml" target="_top" xlink:title=" ">
<polygon fill="white" stroke="black" points="106.5,-177.5 106.5,-240.5 279.5,-240.5 279.5,-177.5 106.5,-177.5"/>
<text text-anchor="start" x="114.5" y="-228.5" font-family="Helvetica,sans-Serif" font-size="10.00">Multithreaded&lt; parameter</text>
<text text-anchor="start" x="114.5" y="-217.5" font-family="Helvetica,sans-Serif" font-size="10.00">Combination, std::pair</text>
<text text-anchor="start" x="114.5" y="-206.5" font-family="Helvetica,sans-Serif" font-size="10.00">&lt; std::filesystem::path,</text>
<text text-anchor="start" x="114.5" y="-195.5" font-family="Helvetica,sans-Serif" font-size="10.00"> std::set&lt; runId &gt; &gt;, CmpVector</text>
<text text-anchor="middle" x="193" y="-184.5" font-family="Helvetica,sans-Serif" font-size="10.00">SharedParameter &gt;</text>
</a>
</g>
</g>
<!-- Node1&#45;&gt;Node4 -->
<g id="edge3" class="edge">
<title>Node1&#45;&gt;Node4</title>
<path fill="none" stroke="orange" d="M182.87,-315.6C187.27,-312.02 191.14,-307.85 194,-303 205.01,-284.37 204.22,-259.76 200.96,-240.54"/>
<polygon fill="orange" stroke="orange" points="180.7,-312.84 174.48,-321.42 184.69,-318.59 180.7,-312.84"/>
<text text-anchor="start" x="203" y="-295" font-family="Helvetica,sans-Serif" font-size="10.00"> &lt; parameterCombination,</text>
<text text-anchor="start" x="203" y="-284" font-family="Helvetica,sans-Serif" font-size="10.00"> std::pair&lt; std::filesystem</text>
<text text-anchor="start" x="203" y="-273" font-family="Helvetica,sans-Serif" font-size="10.00">::path, std::set&lt; runId &gt;</text>
<text text-anchor="middle" x="286" y="-262" font-family="Helvetica,sans-Serif" font-size="10.00"> &gt;, CmpVectorSharedParameter &gt;</text>
</g>
<!-- Node3 -->
<g id="node3" class="node">
<title>Node3</title>
<g id="a_node3"><a xlink:href="classPlexeSimulationRunner.xhtml" target="_top" xlink:title="A class capable of starting platooning simulations in the Plexe framework with given parameterCombina...">
<polygon fill="white" stroke="black" points="28,-0.5 28,-19.5 158,-19.5 158,-0.5 28,-0.5"/>
<text text-anchor="middle" x="93" y="-7.5" font-family="Helvetica,sans-Serif" font-size="10.00">PlexeSimulationRunner</text>
</a>
</g>
</g>
<!-- Node2&#45;&gt;Node3 -->
<g id="edge2" class="edge">
<title>Node2&#45;&gt;Node3</title>
<path fill="none" stroke="midnightblue" d="M74.19,-85.58C80.21,-61.73 87.31,-33.56 90.82,-19.66"/>
<polygon fill="none" stroke="midnightblue" points="70.75,-84.93 71.7,-95.48 77.53,-86.64 70.75,-84.93"/>
</g>
<!-- Node5 -->
<g id="node5" class="node">
<title>Node5</title>
<g id="a_node5"><a xlink:href="classSimulationRunner.xhtml" target="_top" xlink:title="A class capable of running simulations with certain parameterCombinations.">
<polygon fill="white" stroke="black" points="125,-57.5 125,-76.5 229,-76.5 229,-57.5 125,-57.5"/>
<text text-anchor="middle" x="177" y="-64.5" font-family="Helvetica,sans-Serif" font-size="10.00">SimulationRunner</text>
</a>
</g>
</g>
<!-- Node4&#45;&gt;Node5 -->
<g id="edge4" class="edge">
<title>Node4&#45;&gt;Node5</title>
<path fill="none" stroke="midnightblue" d="M188.32,-167.01C184.72,-135.51 180.03,-94.49 178,-76.78"/>
<polygon fill="none" stroke="midnightblue" points="184.88,-167.74 189.49,-177.28 191.83,-166.94 184.88,-167.74"/>
</g>
<!-- Node5&#45;&gt;Node3 -->
<g id="edge5" class="edge">
<title>Node5&#45;&gt;Node3</title>
<path fill="none" stroke="midnightblue" d="M155.35,-51.82C139.74,-41.61 119.19,-28.15 106.03,-19.53"/>
<polygon fill="none" stroke="midnightblue" points="153.59,-54.86 163.88,-57.41 157.43,-49 153.59,-54.86"/>
</g>
</g>
</svg>
