<?xml version="1.0" encoding="UTF-8" standalone="no"?>
<!DOCTYPE svg PUBLIC "-//W3C//DTD SVG 1.1//EN"
 "http://www.w3.org/Graphics/SVG/1.1/DTD/svg11.dtd">
<!-- Generated by graphviz version 2.43.0 (0)
 -->
<!-- Title: Abortable Pages: 1 -->
<svg width="206pt" height="140pt"
 viewBox="0.00 0.00 206.00 140.00" xmlns="http://www.w3.org/2000/svg" xmlns:xlink="http://www.w3.org/1999/xlink">
<g id="graph0" class="graph" transform="scale(1 1) rotate(0) translate(4 136)">
<title>Abortable</title>
<polygon fill="white" stroke="transparent" points="-4,4 -4,-136 202,-136 202,4 -4,4"/>
<!-- Node1 -->
<g id="node1" class="node">
<title>Node1</title>
<g id="a_node1"><a xlink:title="A simple interface for classes that encapsulate abortable processes.">
<polygon fill="#bfbfbf" stroke="black" points="64,-112.5 64,-131.5 128,-131.5 128,-112.5 64,-112.5"/>
<text text-anchor="middle" x="96" y="-119.5" font-family="Helvetica,sans-Serif" font-size="10.00">Abortable</text>
</a>
</g>
</g>
<!-- Node2 -->
<g id="node2" class="node">
<title>Node2</title>
<g id="a_node2"><a xlink:href="classController.xhtml" target="_top" xlink:title="A class responsible for communication between Optimizer, SimulationRunner and Evaluation and also use...">
<polygon fill="white" stroke="black" points="16.5,-56.5 16.5,-75.5 81.5,-75.5 81.5,-56.5 16.5,-56.5"/>
<text text-anchor="middle" x="49" y="-63.5" font-family="Helvetica,sans-Serif" font-size="10.00">Controller</text>
</a>
</g>
</g>
<!-- Node1&#45;&gt;Node2 -->
<g id="edge1" class="edge">
<title>Node1&#45;&gt;Node2</title>
<path fill="none" stroke="midnightblue" d="M81.58,-104.43C73.34,-94.97 63.35,-83.48 56.62,-75.75"/>
<polygon fill="none" stroke="midnightblue" points="79.03,-106.84 88.24,-112.08 84.31,-102.24 79.03,-106.84"/>
</g>
<!-- Node4 -->
<g id="node4" class="node">
<title>Node4</title>
<g id="a_node4"><a xlink:href="classOptimizer.xhtml" target="_top" xlink:title="A class containing an optimization strategy which searches the minimum of a blackbox function given t...">
<polygon fill="white" stroke="black" points="111.5,-56.5 111.5,-75.5 176.5,-75.5 176.5,-56.5 111.5,-56.5"/>
<text text-anchor="middle" x="144" y="-63.5" font-family="Helvetica,sans-Serif" font-size="10.00">Optimizer</text>
</a>
</g>
</g>
<!-- Node1&#45;&gt;Node4 -->
<g id="edge3" class="edge">
<title>Node1&#45;&gt;Node4</title>
<path fill="none" stroke="midnightblue" d="M110.73,-104.43C119.14,-94.97 129.35,-83.48 136.22,-75.75"/>
<polygon fill="none" stroke="midnightblue" points="107.95,-102.28 103.93,-112.08 113.19,-106.93 107.95,-102.28"/>
</g>
<!-- Node3 -->
<g id="node3" class="node">
<title>Node3</title>
<g id="a_node3"><a xlink:href="classStubController.xhtml" target="_top" xlink:title="A class that mocks behaviour of Controller.">
<polygon fill="white" stroke="black" points="0,-0.5 0,-19.5 86,-19.5 86,-0.5 0,-0.5"/>
<text text-anchor="middle" x="43" y="-7.5" font-family="Helvetica,sans-Serif" font-size="10.00">StubController</text>
</a>
</g>
</g>
<!-- Node2&#45;&gt;Node3 -->
<g id="edge2" class="edge">
<title>Node2&#45;&gt;Node3</title>
<path fill="none" stroke="midnightblue" d="M46.9,-46.1C45.9,-37.14 44.76,-26.86 43.97,-19.75"/>
<polygon fill="none" stroke="midnightblue" points="43.43,-46.53 48.01,-56.08 50.38,-45.76 43.43,-46.53"/>
</g>
<!-- Node5 -->
<g id="node5" class="node">
<title>Node5</title>
<g id="a_node5"><a xlink:href="classDirectOptimizer.xhtml" target="_top" xlink:title="A class capable of finding the minimum of a blackbox function using the DIRECT algorithm.">
<polygon fill="white" stroke="black" points="104,-0.5 104,-19.5 198,-19.5 198,-0.5 104,-0.5"/>
<text text-anchor="middle" x="151" y="-7.5" font-family="Helvetica,sans-Serif" font-size="10.00">DirectOptimizer</text>
</a>
</g>
</g>
<!-- Node4&#45;&gt;Node5 -->
<g id="edge4" class="edge">
<title>Node4&#45;&gt;Node5</title>
<path fill="none" stroke="midnightblue" d="M146.45,-46.1C147.61,-37.14 148.94,-26.86 149.87,-19.75"/>
<polygon fill="none" stroke="midnightblue" points="142.97,-45.72 145.16,-56.08 149.91,-46.62 142.97,-45.72"/>
</g>
</g>
</svg>
