<?xml version="1.0" encoding="UTF-8" standalone="no"?>
<!DOCTYPE svg PUBLIC "-//W3C//DTD SVG 1.1//EN"
 "http://www.w3.org/Graphics/SVG/1.1/DTD/svg11.dtd">
<!-- Generated by graphviz version 2.43.0 (0)
 -->
<!-- Title: SimulationRunner Pages: 1 -->
<svg width="261pt" height="297pt"
 viewBox="0.00 0.00 260.50 297.00" xmlns="http://www.w3.org/2000/svg" xmlns:xlink="http://www.w3.org/1999/xlink">
<g id="graph0" class="graph" transform="scale(1 1) rotate(0) translate(4 293)">
<title>SimulationRunner</title>
<polygon fill="white" stroke="transparent" points="-4,4 -4,-293 256.5,-293 256.5,4 -4,4"/>
<!-- Node1 -->
<g id="node1" class="node">
<title>Node1</title>
<g id="a_node1"><a xlink:title="A class capable of running simulations with certain parameterCombinations.">
<polygon fill="#bfbfbf" stroke="black" points="130.5,-57.5 130.5,-76.5 234.5,-76.5 234.5,-57.5 130.5,-57.5"/>
<text text-anchor="middle" x="182.5" y="-64.5" font-family="Helvetica,sans-Serif" font-size="10.00">SimulationRunner</text>
</a>
</g>
</g>
<!-- Node5 -->
<g id="node5" class="node">
<title>Node5</title>
<g id="a_node5"><a xlink:href="classPlexeSimulationRunner.xhtml" target="_top" xlink:title="A class capable of starting platooning simulations in the Plexe framework with given parameterCombina...">
<polygon fill="white" stroke="black" points="117.5,-0.5 117.5,-19.5 247.5,-19.5 247.5,-0.5 117.5,-0.5"/>
<text text-anchor="middle" x="182.5" y="-7.5" font-family="Helvetica,sans-Serif" font-size="10.00">PlexeSimulationRunner</text>
</a>
</g>
</g>
<!-- Node1&#45;&gt;Node5 -->
<g id="edge4" class="edge">
<title>Node1&#45;&gt;Node5</title>
<path fill="none" stroke="midnightblue" d="M182.5,-47.12C182.5,-37.82 182.5,-27.06 182.5,-19.71"/>
<polygon fill="none" stroke="midnightblue" points="179,-47.41 182.5,-57.41 186,-47.41 179,-47.41"/>
</g>
<!-- Node2 -->
<g id="node2" class="node">
<title>Node2</title>
<g id="a_node2"><a xlink:href="classMultithreaded.xhtml" target="_top" xlink:title=" ">
<polygon fill="white" stroke="black" points="0,-114.5 0,-177.5 173,-177.5 173,-114.5 0,-114.5"/>
<text text-anchor="start" x="8" y="-165.5" font-family="Helvetica,sans-Serif" font-size="10.00">Multithreaded&lt; parameter</text>
<text text-anchor="start" x="8" y="-154.5" font-family="Helvetica,sans-Serif" font-size="10.00">Combination, std::pair</text>
<text text-anchor="start" x="8" y="-143.5" font-family="Helvetica,sans-Serif" font-size="10.00">&lt; std::filesystem::path,</text>
<text text-anchor="start" x="8" y="-132.5" font-family="Helvetica,sans-Serif" font-size="10.00"> std::set&lt; runId &gt; &gt;, CmpVector</text>
<text text-anchor="middle" x="86.5" y="-121.5" font-family="Helvetica,sans-Serif" font-size="10.00">SharedParameter &gt;</text>
</a>
</g>
</g>
<!-- Node2&#45;&gt;Node1 -->
<g id="edge1" class="edge">
<title>Node2&#45;&gt;Node1</title>
<path fill="none" stroke="midnightblue" d="M132.75,-107.9C147.31,-96.23 162.08,-84.38 171.7,-76.66"/>
<polygon fill="none" stroke="midnightblue" points="130.33,-105.36 124.72,-114.35 134.71,-110.82 130.33,-105.36"/>
</g>
<!-- Node3 -->
<g id="node3" class="node">
<title>Node3</title>
<g id="a_node3"><a xlink:href="classMultithreaded.xhtml" target="_top" xlink:title="A class implementing concurrent execution of the same function for different arguments.">
<polygon fill="white" stroke="black" points="18,-258.5 18,-288.5 155,-288.5 155,-258.5 18,-258.5"/>
<text text-anchor="start" x="26" y="-276.5" font-family="Helvetica,sans-Serif" font-size="10.00">Multithreaded&lt; Key,</text>
<text text-anchor="middle" x="86.5" y="-265.5" font-family="Helvetica,sans-Serif" font-size="10.00"> T, Compare, Allocator &gt;</text>
</a>
</g>
</g>
<!-- Node3&#45;&gt;Node2 -->
<g id="edge2" class="edge">
<title>Node3&#45;&gt;Node2</title>
<path fill="none" stroke="orange" d="M86.5,-247.9C86.5,-227.79 86.5,-199.27 86.5,-177.67"/>
<polygon fill="orange" stroke="orange" points="83,-248.1 86.5,-258.1 90,-248.1 83,-248.1"/>
<text text-anchor="start" x="86.5" y="-232" font-family="Helvetica,sans-Serif" font-size="10.00"> &lt; parameterCombination,</text>
<text text-anchor="start" x="86.5" y="-221" font-family="Helvetica,sans-Serif" font-size="10.00"> std::pair&lt; std::filesystem</text>
<text text-anchor="start" x="86.5" y="-210" font-family="Helvetica,sans-Serif" font-size="10.00">::path, std::set&lt; runId &gt;</text>
<text text-anchor="middle" x="169.5" y="-199" font-family="Helvetica,sans-Serif" font-size="10.00"> &gt;, CmpVectorSharedParameter &gt;</text>
</g>
<!-- Node4 -->
<g id="node4" class="node">
<title>Node4</title>
<g id="a_node4"><a xlink:href="classStatus.xhtml" target="_top" xlink:title="An interface defining functions for status updates on configuration and progress of a class.">
<polygon fill="white" stroke="black" points="191,-136.5 191,-155.5 238,-155.5 238,-136.5 191,-136.5"/>
<text text-anchor="middle" x="214.5" y="-143.5" font-family="Helvetica,sans-Serif" font-size="10.00">Status</text>
</a>
</g>
</g>
<!-- Node4&#45;&gt;Node1 -->
<g id="edge3" class="edge">
<title>Node4&#45;&gt;Node1</title>
<path fill="none" stroke="midnightblue" d="M207.11,-127.22C200.55,-111.44 191.24,-89.04 186.16,-76.81"/>
<polygon fill="none" stroke="midnightblue" points="203.88,-128.57 210.95,-136.47 210.35,-125.89 203.88,-128.57"/>
</g>
</g>
</svg>
