<?xml version="1.0" encoding="UTF-8" standalone="no"?>
<!DOCTYPE svg PUBLIC "-//W3C//DTD SVG 1.1//EN"
 "http://www.w3.org/Graphics/SVG/1.1/DTD/svg11.dtd">
<!-- Generated by graphviz version 2.43.0 (0)
 -->
<!-- Title: src/utils/CommandLine.cpp Pages: 1 -->
<svg width="286pt" height="140pt"
 viewBox="0.00 0.00 285.50 140.00" xmlns="http://www.w3.org/2000/svg" xmlns:xlink="http://www.w3.org/1999/xlink">
<g id="graph0" class="graph" transform="scale(1 1) rotate(0) translate(4 136)">
<title>src/utils/CommandLine.cpp</title>
<polygon fill="white" stroke="transparent" points="-4,4 -4,-136 281.5,-136 281.5,4 -4,4"/>
<!-- Node1 -->
<g id="node1" class="node">
<title>Node1</title>
<g id="a_node1"><a xlink:title="In this file, the implementation of the CommandLine class is defined.">
<polygon fill="#bfbfbf" stroke="black" points="73.5,-112.5 73.5,-131.5 222.5,-131.5 222.5,-112.5 73.5,-112.5"/>
<text text-anchor="middle" x="148" y="-119.5" font-family="Helvetica,sans-Serif" font-size="10.00">src/utils/CommandLine.cpp</text>
</a>
</g>
</g>
<!-- Node2 -->
<g id="node2" class="node">
<title>Node2</title>
<g id="a_node2"><a xlink:href="CommandLine_8h.xhtml" target="_top" xlink:title="In this file, the header of the CommandLine class is defined.">
<polygon fill="white" stroke="black" points="0,-56.5 0,-75.5 96,-75.5 96,-56.5 0,-56.5"/>
<text text-anchor="middle" x="48" y="-63.5" font-family="Helvetica,sans-Serif" font-size="10.00">CommandLine.h</text>
</a>
</g>
</g>
<!-- Node1&#45;&gt;Node2 -->
<g id="edge1" class="edge">
<title>Node1&#45;&gt;Node2</title>
<path fill="none" stroke="midnightblue" d="M131.93,-112.32C116.04,-103.74 91.49,-90.49 73.04,-80.52"/>
<polygon fill="midnightblue" stroke="midnightblue" points="74.49,-77.33 64.03,-75.65 71.16,-83.49 74.49,-77.33"/>
</g>
<!-- Node4 -->
<g id="node4" class="node">
<title>Node4</title>
<g id="a_node4"><a xlink:title=" ">
<polygon fill="white" stroke="#bfbfbf" points="91,-0.5 91,-19.5 149,-19.5 149,-0.5 91,-0.5"/>
<text text-anchor="middle" x="120" y="-7.5" font-family="Helvetica,sans-Serif" font-size="10.00">memory</text>
</a>
</g>
</g>
<!-- Node1&#45;&gt;Node4 -->
<g id="edge5" class="edge">
<title>Node1&#45;&gt;Node4</title>
<path fill="none" stroke="midnightblue" d="M145.8,-112.37C141.28,-94.62 130.86,-53.67 124.73,-29.6"/>
<polygon fill="midnightblue" stroke="midnightblue" points="128.05,-28.42 122.19,-19.59 121.26,-30.15 128.05,-28.42"/>
</g>
<!-- Node5 -->
<g id="node5" class="node">
<title>Node5</title>
<g id="a_node5"><a xlink:title=" ">
<polygon fill="white" stroke="#bfbfbf" points="152,-56.5 152,-75.5 194,-75.5 194,-56.5 152,-56.5"/>
<text text-anchor="middle" x="173" y="-63.5" font-family="Helvetica,sans-Serif" font-size="10.00">array</text>
</a>
</g>
</g>
<!-- Node1&#45;&gt;Node5 -->
<g id="edge4" class="edge">
<title>Node1&#45;&gt;Node5</title>
<path fill="none" stroke="midnightblue" d="M152.13,-112.08C155.51,-104.77 160.42,-94.18 164.62,-85.1"/>
<polygon fill="midnightblue" stroke="midnightblue" points="167.92,-86.3 168.95,-75.75 161.57,-83.36 167.92,-86.3"/>
</g>
<!-- Node6 -->
<g id="node6" class="node">
<title>Node6</title>
<g id="a_node6"><a xlink:title=" ">
<polygon fill="white" stroke="#bfbfbf" points="212.5,-56.5 212.5,-75.5 277.5,-75.5 277.5,-56.5 212.5,-56.5"/>
<text text-anchor="middle" x="245" y="-63.5" font-family="Helvetica,sans-Serif" font-size="10.00">stdexcept</text>
</a>
</g>
</g>
<!-- Node1&#45;&gt;Node6 -->
<g id="edge6" class="edge">
<title>Node1&#45;&gt;Node6</title>
<path fill="none" stroke="midnightblue" d="M163.58,-112.32C179,-103.74 202.81,-90.49 220.71,-80.52"/>
<polygon fill="midnightblue" stroke="midnightblue" points="222.42,-83.58 229.45,-75.65 219.01,-77.46 222.42,-83.58"/>
</g>
<!-- Node3 -->
<g id="node3" class="node">
<title>Node3</title>
<g id="a_node3"><a xlink:title=" ">
<polygon fill="white" stroke="#bfbfbf" points="26,-0.5 26,-19.5 70,-19.5 70,-0.5 26,-0.5"/>
<text text-anchor="middle" x="48" y="-7.5" font-family="Helvetica,sans-Serif" font-size="10.00">string</text>
</a>
</g>
</g>
<!-- Node2&#45;&gt;Node3 -->
<g id="edge2" class="edge">
<title>Node2&#45;&gt;Node3</title>
<path fill="none" stroke="midnightblue" d="M48,-56.08C48,-49.01 48,-38.86 48,-29.99"/>
<polygon fill="midnightblue" stroke="midnightblue" points="51.5,-29.75 48,-19.75 44.5,-29.75 51.5,-29.75"/>
</g>
<!-- Node2&#45;&gt;Node4 -->
<g id="edge3" class="edge">
<title>Node2&#45;&gt;Node4</title>
<path fill="none" stroke="midnightblue" d="M59.57,-56.32C70.42,-48.18 86.88,-35.84 99.88,-26.09"/>
<polygon fill="midnightblue" stroke="midnightblue" points="102.32,-28.63 108.22,-19.83 98.12,-23.03 102.32,-28.63"/>
</g>
</g>
</svg>
