<?xml version="1.0" encoding="UTF-8" standalone="no"?>
<!DOCTYPE svg PUBLIC "-//W3C//DTD SVG 1.1//EN"
 "http://www.w3.org/Graphics/SVG/1.1/DTD/svg11.dtd">
<!-- Generated by graphviz version 2.43.0 (0)
 -->
<!-- Title: /home/runner/work/Simopticon/Simopticon/src/utils/CommandLine.h Pages: 1 -->
<svg width="206pt" height="95pt"
 viewBox="0.00 0.00 206.00 95.00" xmlns="http://www.w3.org/2000/svg" xmlns:xlink="http://www.w3.org/1999/xlink">
<g id="graph0" class="graph" transform="scale(1 1) rotate(0) translate(4 91)">
<title>/home/runner/work/Simopticon/Simopticon/src/utils/CommandLine.h</title>
<polygon fill="white" stroke="transparent" points="-4,4 -4,-91 202,-91 202,4 -4,4"/>
<!-- Node1 -->
<g id="node1" class="node">
<title>Node1</title>
<g id="a_node1"><a xlink:title="In this file, the header of the CommandLine class is defined.">
<polygon fill="#bfbfbf" stroke="black" points="0,-56.5 0,-86.5 198,-86.5 198,-56.5 0,-56.5"/>
<text text-anchor="start" x="8" y="-74.5" font-family="Helvetica,sans-Serif" font-size="10.00">/home/runner/work/Simopticon</text>
<text text-anchor="middle" x="99" y="-63.5" font-family="Helvetica,sans-Serif" font-size="10.00">/Simopticon/src/utils/CommandLine.h</text>
</a>
</g>
</g>
<!-- Node2 -->
<g id="node2" class="node">
<title>Node2</title>
<g id="a_node2"><a xlink:title=" ">
<polygon fill="white" stroke="#bfbfbf" points="43,-0.5 43,-19.5 87,-19.5 87,-0.5 43,-0.5"/>
<text text-anchor="middle" x="65" y="-7.5" font-family="Helvetica,sans-Serif" font-size="10.00">string</text>
</a>
</g>
</g>
<!-- Node1&#45;&gt;Node2 -->
<g id="edge1" class="edge">
<title>Node1&#45;&gt;Node2</title>
<path fill="none" stroke="midnightblue" d="M90.94,-56.4C86.15,-48.02 80.04,-37.33 74.96,-28.42"/>
<polygon fill="midnightblue" stroke="midnightblue" points="77.95,-26.6 69.95,-19.66 71.87,-30.08 77.95,-26.6"/>
</g>
<!-- Node3 -->
<g id="node3" class="node">
<title>Node3</title>
<g id="a_node3"><a xlink:title=" ">
<polygon fill="white" stroke="#bfbfbf" points="105,-0.5 105,-19.5 163,-19.5 163,-0.5 105,-0.5"/>
<text text-anchor="middle" x="134" y="-7.5" font-family="Helvetica,sans-Serif" font-size="10.00">memory</text>
</a>
</g>
</g>
<!-- Node1&#45;&gt;Node3 -->
<g id="edge2" class="edge">
<title>Node1&#45;&gt;Node3</title>
<path fill="none" stroke="midnightblue" d="M107.29,-56.4C112.22,-48.02 118.51,-37.33 123.75,-28.42"/>
<polygon fill="midnightblue" stroke="midnightblue" points="126.85,-30.05 128.91,-19.66 120.82,-26.5 126.85,-30.05"/>
</g>
</g>
</svg>
