<?xml version="1.0" encoding="UTF-8" standalone="no"?>
<!DOCTYPE svg PUBLIC "-//W3C//DTD SVG 1.1//EN"
 "http://www.w3.org/Graphics/SVG/1.1/DTD/svg11.dtd">
<!-- Generated by graphviz version 2.43.0 (0)
 -->
<!-- Title: src/utils/CommandLine.h Pages: 1 -->
<svg width="351pt" height="95pt"
 viewBox="0.00 0.00 350.50 95.00" xmlns="http://www.w3.org/2000/svg" xmlns:xlink="http://www.w3.org/1999/xlink">
<g id="graph0" class="graph" transform="scale(1 1) rotate(0) translate(4 91)">
<title>src/utils/CommandLine.h</title>
<polygon fill="white" stroke="transparent" points="-4,4 -4,-91 346.5,-91 346.5,4 -4,4"/>
<!-- Node1 -->
<g id="node1" class="node">
<title>Node1</title>
<g id="a_node1"><a xlink:title="In this file, the header of the CommandLine class is defined.">
<polygon fill="#bfbfbf" stroke="black" points="109.5,-67.5 109.5,-86.5 246.5,-86.5 246.5,-67.5 109.5,-67.5"/>
<text text-anchor="middle" x="178" y="-74.5" font-family="Helvetica,sans-Serif" font-size="10.00">src/utils/CommandLine.h</text>
</a>
</g>
</g>
<!-- Node2 -->
<g id="node2" class="node">
<title>Node2</title>
<g id="a_node2"><a xlink:href="PlexeSimulationRunner_8cpp.xhtml" target="_top" xlink:title="In this file, the implementation of the PlexeSimulationRunner class is defined.">
<polygon fill="white" stroke="black" points="0,-0.5 0,-30.5 176,-30.5 176,-0.5 0,-0.5"/>
<text text-anchor="start" x="8" y="-18.5" font-family="Helvetica,sans-Serif" font-size="10.00">src/runner/plexe/PlexeSimulation</text>
<text text-anchor="middle" x="88" y="-7.5" font-family="Helvetica,sans-Serif" font-size="10.00">Runner.cpp</text>
</a>
</g>
</g>
<!-- Node1&#45;&gt;Node2 -->
<g id="edge1" class="edge">
<title>Node1&#45;&gt;Node2</title>
<path fill="none" stroke="midnightblue" d="M156.43,-61.74C142.12,-52.28 123.44,-39.93 109.21,-30.52"/>
<polygon fill="midnightblue" stroke="midnightblue" points="154.83,-64.88 165.11,-67.48 158.69,-59.04 154.83,-64.88"/>
</g>
<!-- Node3 -->
<g id="node3" class="node">
<title>Node3</title>
<g id="a_node3"><a xlink:href="CommandLine_8cpp.xhtml" target="_top" xlink:title="In this file, the implementation of the CommandLine class is defined.">
<polygon fill="white" stroke="black" points="193.5,-6 193.5,-25 342.5,-25 342.5,-6 193.5,-6"/>
<text text-anchor="middle" x="268" y="-13" font-family="Helvetica,sans-Serif" font-size="10.00">src/utils/CommandLine.cpp</text>
</a>
</g>
</g>
<!-- Node1&#45;&gt;Node3 -->
<g id="edge2" class="edge">
<title>Node1&#45;&gt;Node3</title>
<path fill="none" stroke="midnightblue" d="M199.28,-61.93C216.63,-50.46 240.57,-34.63 255.13,-25.01"/>
<polygon fill="midnightblue" stroke="midnightblue" points="197.31,-59.04 190.89,-67.48 201.17,-64.88 197.31,-59.04"/>
</g>
</g>
</svg>
