<?xml version="1.0" encoding="UTF-8" standalone="no"?>
<!DOCTYPE svg PUBLIC "-//W3C//DTD SVG 1.1//EN"
 "http://www.w3.org/Graphics/SVG/1.1/DTD/svg11.dtd">
<!-- Generated by graphviz version 2.43.0 (0)
 -->
<!-- Title: /home/runner/work/Simopticon/Simopticon/src/utils/CommandLine.cpp Pages: 1 -->
<svg width="286pt" height="151pt"
 viewBox="0.00 0.00 285.50 151.00" xmlns="http://www.w3.org/2000/svg" xmlns:xlink="http://www.w3.org/1999/xlink">
<g id="graph0" class="graph" transform="scale(1 1) rotate(0) translate(4 147)">
<title>/home/runner/work/Simopticon/Simopticon/src/utils/CommandLine.cpp</title>
<polygon fill="white" stroke="transparent" points="-4,4 -4,-147 281.5,-147 281.5,4 -4,4"/>
<!-- Node1 -->
<g id="node1" class="node">
<title>Node1</title>
<g id="a_node1"><a xlink:title="In this file, the implementation of the CommandLine class is defined.">
<polygon fill="#bfbfbf" stroke="black" points="43.5,-112.5 43.5,-142.5 252.5,-142.5 252.5,-112.5 43.5,-112.5"/>
<text text-anchor="start" x="51.5" y="-130.5" font-family="Helvetica,sans-Serif" font-size="10.00">/home/runner/work/Simopticon</text>
<text text-anchor="middle" x="148" y="-119.5" font-family="Helvetica,sans-Serif" font-size="10.00">/Simopticon/src/utils/CommandLine.cpp</text>
</a>
</g>
</g>
<!-- Node2 -->
<g id="node2" class="node">
<title>Node2</title>
<g id="a_node2"><a xlink:href="CommandLine_8h.xhtml" target="_top" xlink:title="In this file, the header of the CommandLine class is defined.">
<polygon fill="white" stroke="black" points="0,-56.5 0,-75.5 96,-75.5 96,-56.5 0,-56.5"/>
<text text-anchor="middle" x="48" y="-63.5" font-family="Helvetica,sans-Serif" font-size="10.00">CommandLine.h</text>
</a>
</g>
</g>
<!-- Node1&#45;&gt;Node2 -->
<g id="edge1" class="edge">
<title>Node1&#45;&gt;Node2</title>
<path fill="none" stroke="midnightblue" d="M124.3,-112.4C108.27,-102.86 87.2,-90.32 71.26,-80.84"/>
<polygon fill="midnightblue" stroke="midnightblue" points="72.93,-77.76 62.55,-75.66 69.36,-83.78 72.93,-77.76"/>
</g>
<!-- Node4 -->
<g id="node4" class="node">
<title>Node4</title>
<g id="a_node4"><a xlink:title=" ">
<polygon fill="white" stroke="#bfbfbf" points="91,-0.5 91,-19.5 149,-19.5 149,-0.5 91,-0.5"/>
<text text-anchor="middle" x="120" y="-7.5" font-family="Helvetica,sans-Serif" font-size="10.00">memory</text>
</a>
</g>
</g>
<!-- Node1&#45;&gt;Node4 -->
<g id="edge5" class="edge">
<title>Node1&#45;&gt;Node4</title>
<path fill="none" stroke="midnightblue" d="M144.57,-112.34C139.52,-91.53 130.1,-52.66 124.51,-29.58"/>
<polygon fill="midnightblue" stroke="midnightblue" points="127.86,-28.56 122.1,-19.67 121.06,-30.21 127.86,-28.56"/>
</g>
<!-- Node5 -->
<g id="node5" class="node">
<title>Node5</title>
<g id="a_node5"><a xlink:title=" ">
<polygon fill="white" stroke="#bfbfbf" points="152,-56.5 152,-75.5 194,-75.5 194,-56.5 152,-56.5"/>
<text text-anchor="middle" x="173" y="-63.5" font-family="Helvetica,sans-Serif" font-size="10.00">array</text>
</a>
</g>
</g>
<!-- Node1&#45;&gt;Node5 -->
<g id="edge4" class="edge">
<title>Node1&#45;&gt;Node5</title>
<path fill="none" stroke="midnightblue" d="M153.92,-112.4C157.37,-104.2 161.75,-93.78 165.44,-84.99"/>
<polygon fill="midnightblue" stroke="midnightblue" points="168.72,-86.23 169.36,-75.66 162.26,-83.52 168.72,-86.23"/>
</g>
<!-- Node6 -->
<g id="node6" class="node">
<title>Node6</title>
<g id="a_node6"><a xlink:title=" ">
<polygon fill="white" stroke="#bfbfbf" points="212.5,-56.5 212.5,-75.5 277.5,-75.5 277.5,-56.5 212.5,-56.5"/>
<text text-anchor="middle" x="245" y="-63.5" font-family="Helvetica,sans-Serif" font-size="10.00">stdexcept</text>
</a>
</g>
</g>
<!-- Node1&#45;&gt;Node6 -->
<g id="edge6" class="edge">
<title>Node1&#45;&gt;Node6</title>
<path fill="none" stroke="midnightblue" d="M170.99,-112.4C186.39,-102.95 206.59,-90.56 222,-81.11"/>
<polygon fill="midnightblue" stroke="midnightblue" points="224.19,-83.87 230.89,-75.66 220.53,-77.9 224.19,-83.87"/>
</g>
<!-- Node3 -->
<g id="node3" class="node">
<title>Node3</title>
<g id="a_node3"><a xlink:title=" ">
<polygon fill="white" stroke="#bfbfbf" points="26,-0.5 26,-19.5 70,-19.5 70,-0.5 26,-0.5"/>
<text text-anchor="middle" x="48" y="-7.5" font-family="Helvetica,sans-Serif" font-size="10.00">string</text>
</a>
</g>
</g>
<!-- Node2&#45;&gt;Node3 -->
<g id="edge2" class="edge">
<title>Node2&#45;&gt;Node3</title>
<path fill="none" stroke="midnightblue" d="M48,-56.08C48,-49.01 48,-38.86 48,-29.99"/>
<polygon fill="midnightblue" stroke="midnightblue" points="51.5,-29.75 48,-19.75 44.5,-29.75 51.5,-29.75"/>
</g>
<!-- Node2&#45;&gt;Node4 -->
<g id="edge3" class="edge">
<title>Node2&#45;&gt;Node4</title>
<path fill="none" stroke="midnightblue" d="M59.57,-56.32C70.42,-48.18 86.88,-35.84 99.88,-26.09"/>
<polygon fill="midnightblue" stroke="midnightblue" points="102.32,-28.63 108.22,-19.83 98.12,-23.03 102.32,-28.63"/>
</g>
</g>
</svg>
