<?xml version="1.0" encoding="UTF-8" standalone="no"?>
<!DOCTYPE svg PUBLIC "-//W3C//DTD SVG 1.1//EN"
 "http://www.w3.org/Graphics/SVG/1.1/DTD/svg11.dtd">
<!-- Generated by graphviz version 2.43.0 (0)
 -->
<!-- Title: /home/runner/work/Simopticon/Simopticon/src/utils/CommandLine.h Pages: 1 -->
<svg width="402pt" height="117pt"
 viewBox="0.00 0.00 402.00 117.00" xmlns="http://www.w3.org/2000/svg" xmlns:xlink="http://www.w3.org/1999/xlink">
<g id="graph0" class="graph" transform="scale(1 1) rotate(0) translate(4 113)">
<title>/home/runner/work/Simopticon/Simopticon/src/utils/CommandLine.h</title>
<polygon fill="white" stroke="transparent" points="-4,4 -4,-113 398,-113 398,4 -4,4"/>
<!-- Node1 -->
<g id="node1" class="node">
<title>Node1</title>
<g id="a_node1"><a xlink:title="In this file, the header of the CommandLine class is defined.">
<polygon fill="#bfbfbf" stroke="black" points="87.5,-78.5 87.5,-108.5 285.5,-108.5 285.5,-78.5 87.5,-78.5"/>
<text text-anchor="start" x="95.5" y="-96.5" font-family="Helvetica,sans-Serif" font-size="10.00">/home/runner/work/Simopticon</text>
<text text-anchor="middle" x="186.5" y="-85.5" font-family="Helvetica,sans-Serif" font-size="10.00">/Simopticon/src/utils/CommandLine.h</text>
</a>
</g>
</g>
<!-- Node2 -->
<g id="node2" class="node">
<title>Node2</title>
<g id="a_node2"><a xlink:href="PlexeSimulationRunner_8cpp.xhtml" target="_top" xlink:title="In this file, the implementation of the PlexeSimulationRunner class is defined.">
<polygon fill="white" stroke="black" points="0,-0.5 0,-41.5 167,-41.5 167,-0.5 0,-0.5"/>
<text text-anchor="start" x="8" y="-29.5" font-family="Helvetica,sans-Serif" font-size="10.00">/home/runner/work/Simopticon</text>
<text text-anchor="start" x="8" y="-18.5" font-family="Helvetica,sans-Serif" font-size="10.00">/Simopticon/src/runner/plexe</text>
<text text-anchor="middle" x="83.5" y="-7.5" font-family="Helvetica,sans-Serif" font-size="10.00">/PlexeSimulationRunner.cpp</text>
</a>
</g>
</g>
<!-- Node1&#45;&gt;Node2 -->
<g id="edge1" class="edge">
<title>Node1&#45;&gt;Node2</title>
<path fill="none" stroke="midnightblue" d="M157.26,-72.48C143.11,-62.8 126.18,-51.22 112.12,-41.59"/>
<polygon fill="midnightblue" stroke="midnightblue" points="155.43,-75.47 165.66,-78.23 159.38,-69.7 155.43,-75.47"/>
</g>
<!-- Node3 -->
<g id="node3" class="node">
<title>Node3</title>
<g id="a_node3"><a xlink:href="CommandLine_8cpp.xhtml" target="_top" xlink:title="In this file, the implementation of the CommandLine class is defined.">
<polygon fill="white" stroke="black" points="185,-6 185,-36 394,-36 394,-6 185,-6"/>
<text text-anchor="start" x="193" y="-24" font-family="Helvetica,sans-Serif" font-size="10.00">/home/runner/work/Simopticon</text>
<text text-anchor="middle" x="289.5" y="-13" font-family="Helvetica,sans-Serif" font-size="10.00">/Simopticon/src/utils/CommandLine.cpp</text>
</a>
</g>
</g>
<!-- Node1&#45;&gt;Node3 -->
<g id="edge2" class="edge">
<title>Node1&#45;&gt;Node3</title>
<path fill="none" stroke="midnightblue" d="M215.82,-72.43C232.82,-60.79 253.82,-46.42 269.04,-36"/>
<polygon fill="midnightblue" stroke="midnightblue" points="213.62,-69.7 207.34,-78.23 217.57,-75.47 213.62,-69.7"/>
</g>
</g>
</svg>
