<?xml version="1.0" encoding="UTF-8" standalone="no"?>
<!DOCTYPE svg PUBLIC "-//W3C//DTD SVG 1.1//EN"
 "http://www.w3.org/Graphics/SVG/1.1/DTD/svg11.dtd">
<!-- Generated by graphviz version 2.43.0 (0)
 -->
<!-- Title: /home/runner/work/Simopticon/Simopticon/src/ComparisonFunctions.h Pages: 1 -->
<!--zoomable 429 -->
<svg id="main" version="1.1" xmlns="http://www.w3.org/2000/svg" xmlns:xlink="http://www.w3.org/1999/xlink" xml:space="preserve" onload="init(evt)">
<style type="text/css"><![CDATA[
.edge:hover path { stroke: red; }
.edge:hover polygon { stroke: red; fill: red; }
]]></style>
<script type="text/javascript"><![CDATA[
var edges = document.getElementsByTagName('g');
if (edges && edges.length) {
  for (var i=0;i<edges.length;i++) {
    if (edges[i].id.substr(0,4)=='edge') {
      edges[i].setAttribute('class','edge');
    }
  }
}
]]></script>
        <defs>
                <circle id="rim" cx="0" cy="0" r="7"/>
                <circle id="rim2" cx="0" cy="0" r="3.5"/>
                <g id="zoomPlus">
                        <use xlink:href="#rim" fill="#404040">
                                <set attributeName="fill" to="#808080" begin="zoomplus.mouseover" end="zoomplus.mouseout"/>
                        </use>
                        <path d="M-4,0h8M0,-4v8" fill="none" stroke="white" stroke-width="1.5" pointer-events="none"/>
                </g>
                <g id="zoomMin">
                        <use xlink:href="#rim" fill="#404040">
                                <set attributeName="fill" to="#808080" begin="zoomminus.mouseover" end="zoomminus.mouseout"/>
                        </use>
                        <path d="M-4,0h8" fill="none" stroke="white" stroke-width="1.5" pointer-events="none"/>
                </g>
                <g id="dirArrow">
                        <path fill="none" stroke="white" stroke-width="1.5" d="M0,-3.0v7 M-2.5,-0.5L0,-3.0L2.5,-0.5"/>
                </g>
               <g id="resetDef">
                       <use xlink:href="#rim2" fill="#404040">
                               <set attributeName="fill" to="#808080" begin="reset.mouseover" end="reset.mouseout"/>
                       </use>
               </g>
        </defs>

<script type="text/javascript">
var viewWidth = 1326;
var viewHeight = 429;
var sectionId = 'dynsection-1';
</script>
<script xlink:href="svgpan.js"/>
<svg id="graph" class="graph">
<g id="viewport">
<title>/home/runner/work/Simopticon/Simopticon/src/ComparisonFunctions.h</title>
<polygon fill="white" stroke="transparent" points="-4,4 -4,-425 1322.18,-425 1322.18,4 -4,4"/>
<!-- Node1 -->
<g id="node1" class="node">
<title>Node1</title>
<g id="a_node1"><a xlink:title="In this file, comparison functions are defined which should be used across the whole framework.">
<polygon fill="#bfbfbf" stroke="black" points="656,-390.5 656,-420.5 865,-420.5 865,-390.5 656,-390.5"/>
<text text-anchor="start" x="664" y="-408.5" font-family="Helvetica,sans-Serif" font-size="10.00">/home/runner/work/Simopticon</text>
<text text-anchor="middle" x="760.5" y="-397.5" font-family="Helvetica,sans-Serif" font-size="10.00">/Simopticon/src/ComparisonFunctions.h</text>
</a>
</g>
</g>
<!-- Node2 -->
<g id="node2" class="node">
<title>Node2</title>
<g id="a_node2"><a xlink:href="ValueMap_8h.xhtml" target="_top" xlink:title="In this file, the header of the ValueMap class is defined.">
<polygon fill="white" stroke="black" points="315,-312.5 315,-353.5 482,-353.5 482,-312.5 315,-312.5"/>
<text text-anchor="start" x="323" y="-341.5" font-family="Helvetica,sans-Serif" font-size="10.00">/home/runner/work/Simopticon</text>
<text text-anchor="start" x="323" y="-330.5" font-family="Helvetica,sans-Serif" font-size="10.00">/Simopticon/src/controller</text>
<text text-anchor="middle" x="398.5" y="-319.5" font-family="Helvetica,sans-Serif" font-size="10.00">/ValueMap.h</text>
</a>
</g>
</g>
<!-- Node1&#45;&gt;Node2 -->
<g id="edge1" class="edge">
<title>Node1&#45;&gt;Node2</title>
<path fill="none" stroke="midnightblue" d="M678.57,-388.54C619.88,-377.11 541.11,-361.77 482.05,-350.27"/>
<polygon fill="midnightblue" stroke="midnightblue" points="678.06,-392.01 688.55,-390.49 679.4,-385.14 678.06,-392.01"/>
</g>
<!-- Node8 -->
<g id="node8" class="node">
<title>Node8</title>
<g id="a_node8"><a xlink:href="Controller_8h.xhtml" target="_top" xlink:title="In this file, the header of the Controller class is defined.">
<polygon fill="white" stroke="black" points="657,-156.5 657,-197.5 824,-197.5 824,-156.5 657,-156.5"/>
<text text-anchor="start" x="665" y="-185.5" font-family="Helvetica,sans-Serif" font-size="10.00">/home/runner/work/Simopticon</text>
<text text-anchor="start" x="665" y="-174.5" font-family="Helvetica,sans-Serif" font-size="10.00">/Simopticon/src/controller</text>
<text text-anchor="middle" x="740.5" y="-163.5" font-family="Helvetica,sans-Serif" font-size="10.00">/Controller.h</text>
</a>
</g>
</g>
<!-- Node1&#45;&gt;Node8 -->
<g id="edge16" class="edge">
<title>Node1&#45;&gt;Node8</title>
<path fill="none" stroke="midnightblue" d="M737.93,-382.62C730.95,-374.38 724.14,-364.46 720.5,-354 701.6,-299.69 720.98,-230.81 732.8,-197.63"/>
<polygon fill="midnightblue" stroke="midnightblue" points="735.54,-385.19 744.85,-390.25 740.72,-380.49 735.54,-385.19"/>
</g>
<!-- Node13 -->
<g id="node13" class="node">
<title>Node13</title>
<g id="a_node13"><a xlink:href="SimulationRunner_8h.xhtml" target="_top" xlink:title="In this file, the header of the SimulationRunner class is defined.">
<polygon fill="white" stroke="black" points="729.5,-312.5 729.5,-353.5 911.5,-353.5 911.5,-312.5 729.5,-312.5"/>
<text text-anchor="start" x="737.5" y="-341.5" font-family="Helvetica,sans-Serif" font-size="10.00">/home/runner/work/Simopticon</text>
<text text-anchor="start" x="737.5" y="-330.5" font-family="Helvetica,sans-Serif" font-size="10.00">/Simopticon/src/runner/Simulation</text>
<text text-anchor="middle" x="820.5" y="-319.5" font-family="Helvetica,sans-Serif" font-size="10.00">Runner.h</text>
</a>
</g>
</g>
<!-- Node1&#45;&gt;Node13 -->
<g id="edge17" class="edge">
<title>Node1&#45;&gt;Node13</title>
<path fill="none" stroke="midnightblue" d="M779.19,-382.54C787.07,-373.28 796.18,-362.58 803.83,-353.59"/>
<polygon fill="midnightblue" stroke="midnightblue" points="776.46,-380.35 772.64,-390.23 781.79,-384.89 776.46,-380.35"/>
</g>
<!-- Node17 -->
<g id="node17" class="node">
<title>Node17</title>
<g id="a_node17"><a xlink:href="ConfigEditor_8h.xhtml" target="_top" xlink:title="In this file, the header of the ConfigEditor class is defined.">
<polygon fill="white" stroke="black" points="1041,-312.5 1041,-353.5 1208,-353.5 1208,-312.5 1041,-312.5"/>
<text text-anchor="start" x="1049" y="-341.5" font-family="Helvetica,sans-Serif" font-size="10.00">/home/runner/work/Simopticon</text>
<text text-anchor="start" x="1049" y="-330.5" font-family="Helvetica,sans-Serif" font-size="10.00">/Simopticon/src/runner/plexe</text>
<text text-anchor="middle" x="1124.5" y="-319.5" font-family="Helvetica,sans-Serif" font-size="10.00">/ConfigEditor.h</text>
</a>
</g>
</g>
<!-- Node1&#45;&gt;Node17 -->
<g id="edge23" class="edge">
<title>Node1&#45;&gt;Node17</title>
<path fill="none" stroke="midnightblue" d="M842.9,-388.54C902.02,-377.09 981.4,-361.72 1040.82,-350.21"/>
<polygon fill="midnightblue" stroke="midnightblue" points="842,-385.15 832.85,-390.49 843.33,-392.02 842,-385.15"/>
</g>
<!-- Node3 -->
<g id="node3" class="node">
<title>Node3</title>
<g id="a_node3"><a xlink:href="ValueMap_8cpp.xhtml" target="_top" xlink:title="In this file, the implementation of the ValueMap class is defined.">
<polygon fill="white" stroke="black" points="0,-234.5 0,-275.5 167,-275.5 167,-234.5 0,-234.5"/>
<text text-anchor="start" x="8" y="-263.5" font-family="Helvetica,sans-Serif" font-size="10.00">/home/runner/work/Simopticon</text>
<text text-anchor="start" x="8" y="-252.5" font-family="Helvetica,sans-Serif" font-size="10.00">/Simopticon/src/controller</text>
<text text-anchor="middle" x="83.5" y="-241.5" font-family="Helvetica,sans-Serif" font-size="10.00">/ValueMap.cpp</text>
</a>
</g>
</g>
<!-- Node2&#45;&gt;Node3 -->
<g id="edge2" class="edge">
<title>Node2&#45;&gt;Node3</title>
<path fill="none" stroke="midnightblue" d="M307.57,-310.06C262.34,-299.15 208.12,-286.07 164.35,-275.51"/>
<polygon fill="midnightblue" stroke="midnightblue" points="306.84,-313.49 317.38,-312.43 308.48,-306.68 306.84,-313.49"/>
</g>
<!-- Node4 -->
<g id="node4" class="node">
<title>Node4</title>
<g id="a_node4"><a xlink:href="StubController_8cpp.xhtml" target="_top" xlink:title="In this file, the implementation of the StubController class is defined.">
<polygon fill="white" stroke="black" points="273,-0.5 273,-41.5 440,-41.5 440,-0.5 273,-0.5"/>
<text text-anchor="start" x="281" y="-29.5" font-family="Helvetica,sans-Serif" font-size="10.00">/home/runner/work/Simopticon</text>
<text text-anchor="start" x="281" y="-18.5" font-family="Helvetica,sans-Serif" font-size="10.00">/Simopticon/src/controller</text>
<text text-anchor="middle" x="356.5" y="-7.5" font-family="Helvetica,sans-Serif" font-size="10.00">/StubController.cpp</text>
</a>
</g>
</g>
<!-- Node2&#45;&gt;Node4 -->
<g id="edge3" class="edge">
<title>Node2&#45;&gt;Node4</title>
<path fill="none" stroke="midnightblue" d="M394.44,-302.06C385.91,-239.1 366.31,-94.44 359.17,-41.7"/>
<polygon fill="midnightblue" stroke="midnightblue" points="391,-302.7 395.81,-312.14 397.93,-301.76 391,-302.7"/>
</g>
<!-- Node5 -->
<g id="node5" class="node">
<title>Node5</title>
<g id="a_node5"><a xlink:href="Controller_8cpp.xhtml" target="_top" xlink:title="In this file, the implementation of the Controller class is defined.">
<polygon fill="white" stroke="black" points="643,-0.5 643,-41.5 810,-41.5 810,-0.5 643,-0.5"/>
<text text-anchor="start" x="651" y="-29.5" font-family="Helvetica,sans-Serif" font-size="10.00">/home/runner/work/Simopticon</text>
<text text-anchor="start" x="651" y="-18.5" font-family="Helvetica,sans-Serif" font-size="10.00">/Simopticon/src/controller</text>
<text text-anchor="middle" x="726.5" y="-7.5" font-family="Helvetica,sans-Serif" font-size="10.00">/Controller.cpp</text>
</a>
</g>
</g>
<!-- Node2&#45;&gt;Node5 -->
<g id="edge4" class="edge">
<title>Node2&#45;&gt;Node5</title>
<path fill="none" stroke="midnightblue" d="M400.97,-302.31C405.33,-257.56 415.92,-175.93 436.5,-156 500.43,-94.08 555.23,-162.37 633.5,-120 668.36,-101.13 697.72,-64.46 713.66,-41.72"/>
<polygon fill="midnightblue" stroke="midnightblue" points="397.49,-302.03 400.04,-312.31 404.46,-302.67 397.49,-302.03"/>
</g>
<!-- Node6 -->
<g id="node6" class="node">
<title>Node6</title>
<g id="a_node6"><a xlink:href="DirectOptimizer_8cpp.xhtml" target="_top" xlink:title="In this file, the implementation of the DirectOptimizer class is defined.">
<polygon fill="white" stroke="black" points="185,-234.5 185,-275.5 352,-275.5 352,-234.5 185,-234.5"/>
<text text-anchor="start" x="193" y="-263.5" font-family="Helvetica,sans-Serif" font-size="10.00">/home/runner/work/Simopticon</text>
<text text-anchor="start" x="193" y="-252.5" font-family="Helvetica,sans-Serif" font-size="10.00">/Simopticon/src/optimizer</text>
<text text-anchor="middle" x="268.5" y="-241.5" font-family="Helvetica,sans-Serif" font-size="10.00">/direct/DirectOptimizer.cpp</text>
</a>
</g>
</g>
<!-- Node2&#45;&gt;Node6 -->
<g id="edge5" class="edge">
<title>Node2&#45;&gt;Node6</title>
<path fill="none" stroke="midnightblue" d="M356.08,-307.2C338.49,-296.92 318.38,-285.16 301.86,-275.51"/>
<polygon fill="midnightblue" stroke="midnightblue" points="354.62,-310.4 365.02,-312.43 358.16,-304.36 354.62,-310.4"/>
</g>
<!-- Node7 -->
<g id="node7" class="node">
<title>Node7</title>
<g id="a_node7"><a xlink:href="StatusBar_8h.xhtml" target="_top" xlink:title="In this file, the header of the StatusBar class is defined.">
<polygon fill="white" stroke="black" points="451,-240 451,-270 634,-270 634,-240 451,-240"/>
<text text-anchor="start" x="459" y="-258" font-family="Helvetica,sans-Serif" font-size="10.00">/home/runner/work/Simopticon</text>
<text text-anchor="middle" x="542.5" y="-247" font-family="Helvetica,sans-Serif" font-size="10.00">/Simopticon/src/status/StatusBar.h</text>
</a>
</g>
</g>
<!-- Node2&#45;&gt;Node7 -->
<g id="edge6" class="edge">
<title>Node2&#45;&gt;Node7</title>
<path fill="none" stroke="midnightblue" d="M444.65,-307.64C468.04,-295.3 495.64,-280.73 515.55,-270.23"/>
<polygon fill="midnightblue" stroke="midnightblue" points="442.79,-304.67 435.58,-312.43 446.06,-310.86 442.79,-304.67"/>
</g>
<!-- Node7&#45;&gt;Node8 -->
<g id="edge7" class="edge">
<title>Node7&#45;&gt;Node8</title>
<path fill="none" stroke="midnightblue" d="M588.72,-236.26C618.88,-224.68 658.27,-209.56 689.36,-197.63"/>
<polygon fill="midnightblue" stroke="midnightblue" points="587.36,-233.03 579.28,-239.88 589.87,-239.57 587.36,-233.03"/>
</g>
<!-- Node12 -->
<g id="node12" class="node">
<title>Node12</title>
<g id="a_node12"><a xlink:href="StatusBar_8cpp.xhtml" target="_top" xlink:title="In this file, the implementation of the StatusBar class is defined.">
<polygon fill="white" stroke="black" points="445.5,-162 445.5,-192 639.5,-192 639.5,-162 445.5,-162"/>
<text text-anchor="start" x="453.5" y="-180" font-family="Helvetica,sans-Serif" font-size="10.00">/home/runner/work/Simopticon</text>
<text text-anchor="middle" x="542.5" y="-169" font-family="Helvetica,sans-Serif" font-size="10.00">/Simopticon/src/status/StatusBar.cpp</text>
</a>
</g>
</g>
<!-- Node7&#45;&gt;Node12 -->
<g id="edge15" class="edge">
<title>Node7&#45;&gt;Node12</title>
<path fill="none" stroke="midnightblue" d="M542.5,-229.59C542.5,-217.26 542.5,-202.72 542.5,-192.23"/>
<polygon fill="midnightblue" stroke="midnightblue" points="539,-229.7 542.5,-239.7 546,-229.71 539,-229.7"/>
</g>
<!-- Node8&#45;&gt;Node5 -->
<g id="edge8" class="edge">
<title>Node8&#45;&gt;Node5</title>
<path fill="none" stroke="midnightblue" d="M737.81,-146.36C735.01,-115.61 730.71,-68.36 728.3,-41.83"/>
<polygon fill="midnightblue" stroke="midnightblue" points="734.34,-146.85 738.73,-156.5 741.31,-146.22 734.34,-146.85"/>
</g>
<!-- Node9 -->
<g id="node9" class="node">
<title>Node9</title>
<g id="a_node9"><a xlink:href="main_8cpp.xhtml" target="_top" xlink:title="In this file, the main function running the Simopticon framework is defined.">
<polygon fill="white" stroke="black" points="458,-6 458,-36 625,-36 625,-6 458,-6"/>
<text text-anchor="start" x="466" y="-24" font-family="Helvetica,sans-Serif" font-size="10.00">/home/runner/work/Simopticon</text>
<text text-anchor="middle" x="541.5" y="-13" font-family="Helvetica,sans-Serif" font-size="10.00">/Simopticon/src/main.cpp</text>
</a>
</g>
</g>
<!-- Node8&#45;&gt;Node9 -->
<g id="edge9" class="edge">
<title>Node8&#45;&gt;Node9</title>
<path fill="none" stroke="midnightblue" d="M646.82,-156C589.69,-147.93 475.77,-152.62 448.5,-120 436.53,-105.68 439.32,-94.25 448.5,-78 459.53,-58.47 480.41,-45 499.58,-36.17"/>
<polygon fill="midnightblue" stroke="midnightblue" points="646.35,-159.47 656.79,-157.67 647.5,-152.57 646.35,-159.47"/>
</g>
<!-- Node10 -->
<g id="node10" class="node">
<title>Node10</title>
<g id="a_node10"><a xlink:href="StubController_8h.xhtml" target="_top" xlink:title="In this file, the header of the StubController class is defined.">
<polygon fill="white" stroke="black" points="458,-78.5 458,-119.5 625,-119.5 625,-78.5 458,-78.5"/>
<text text-anchor="start" x="466" y="-107.5" font-family="Helvetica,sans-Serif" font-size="10.00">/home/runner/work/Simopticon</text>
<text text-anchor="start" x="466" y="-96.5" font-family="Helvetica,sans-Serif" font-size="10.00">/Simopticon/src/controller</text>
<text text-anchor="middle" x="541.5" y="-85.5" font-family="Helvetica,sans-Serif" font-size="10.00">/StubController.h</text>
</a>
</g>
</g>
<!-- Node8&#45;&gt;Node10 -->
<g id="edge10" class="edge">
<title>Node8&#45;&gt;Node10</title>
<path fill="none" stroke="midnightblue" d="M679.62,-152.75C651.76,-142.11 619.13,-129.65 592.57,-119.51"/>
<polygon fill="midnightblue" stroke="midnightblue" points="678.66,-156.13 689.25,-156.43 681.16,-149.59 678.66,-156.13"/>
</g>
<!-- Node11 -->
<g id="node11" class="node">
<title>Node11</title>
<g id="a_node11"><a xlink:href="Optimizer_8cpp.xhtml" target="_top" xlink:title="In this file, the implementation of the Optimizer class is defined.">
<polygon fill="white" stroke="black" points="754,-78.5 754,-119.5 921,-119.5 921,-78.5 754,-78.5"/>
<text text-anchor="start" x="762" y="-107.5" font-family="Helvetica,sans-Serif" font-size="10.00">/home/runner/work/Simopticon</text>
<text text-anchor="start" x="762" y="-96.5" font-family="Helvetica,sans-Serif" font-size="10.00">/Simopticon/src/optimizer</text>
<text text-anchor="middle" x="837.5" y="-85.5" font-family="Helvetica,sans-Serif" font-size="10.00">/Optimizer.cpp</text>
</a>
</g>
</g>
<!-- Node8&#45;&gt;Node11 -->
<g id="edge14" class="edge">
<title>Node8&#45;&gt;Node11</title>
<path fill="none" stroke="midnightblue" d="M773.6,-150.06C786.37,-140.06 800.74,-128.8 812.6,-119.51"/>
<polygon fill="midnightblue" stroke="midnightblue" points="771.19,-147.51 765.48,-156.43 775.51,-153.02 771.19,-147.51"/>
</g>
<!-- Node10&#45;&gt;Node4 -->
<g id="edge11" class="edge">
<title>Node10&#45;&gt;Node4</title>
<path fill="none" stroke="midnightblue" d="M484.56,-74.61C458.74,-64 428.56,-51.6 403.98,-41.51"/>
<polygon fill="midnightblue" stroke="midnightblue" points="483.28,-77.87 493.86,-78.43 485.94,-71.39 483.28,-77.87"/>
</g>
<!-- Node10&#45;&gt;Node5 -->
<g id="edge12" class="edge">
<title>Node10&#45;&gt;Node5</title>
<path fill="none" stroke="midnightblue" d="M598.44,-74.61C624.26,-64 654.44,-51.6 679.02,-41.51"/>
<polygon fill="midnightblue" stroke="midnightblue" points="597.06,-71.39 589.14,-78.43 599.72,-77.87 597.06,-71.39"/>
</g>
<!-- Node10&#45;&gt;Node9 -->
<g id="edge13" class="edge">
<title>Node10&#45;&gt;Node9</title>
<path fill="none" stroke="midnightblue" d="M541.5,-68.28C541.5,-57.25 541.5,-45.25 541.5,-36.23"/>
<polygon fill="midnightblue" stroke="midnightblue" points="538,-68.43 541.5,-78.43 545,-68.43 538,-68.43"/>
</g>
<!-- Node13&#45;&gt;Node8 -->
<g id="edge18" class="edge">
<title>Node13&#45;&gt;Node8</title>
<path fill="none" stroke="midnightblue" d="M768.16,-306.79C756.68,-298.64 746.02,-288.43 739.5,-276 726.62,-251.44 730.55,-218.42 735.1,-197.68"/>
<polygon fill="midnightblue" stroke="midnightblue" points="766.34,-309.78 776.62,-312.35 770.19,-303.93 766.34,-309.78"/>
</g>
<!-- Node14 -->
<g id="node14" class="node">
<title>Node14</title>
<g id="a_node14"><a xlink:href="PlexeSimulationRunner_8h.xhtml" target="_top" xlink:title="In this file, the header of the PlexeSimulationRunner class is defined.">
<polygon fill="white" stroke="black" points="949,-234.5 949,-275.5 1116,-275.5 1116,-234.5 949,-234.5"/>
<text text-anchor="start" x="957" y="-263.5" font-family="Helvetica,sans-Serif" font-size="10.00">/home/runner/work/Simopticon</text>
<text text-anchor="start" x="957" y="-252.5" font-family="Helvetica,sans-Serif" font-size="10.00">/Simopticon/src/runner/plexe</text>
<text text-anchor="middle" x="1032.5" y="-241.5" font-family="Helvetica,sans-Serif" font-size="10.00">/PlexeSimulationRunner.h</text>
</a>
</g>
</g>
<!-- Node13&#45;&gt;Node14 -->
<g id="edge19" class="edge">
<title>Node13&#45;&gt;Node14</title>
<path fill="none" stroke="midnightblue" d="M884.58,-309.03C914.43,-298.33 949.56,-285.73 978.09,-275.51"/>
<polygon fill="midnightblue" stroke="midnightblue" points="883.33,-305.76 875.1,-312.43 885.69,-312.35 883.33,-305.76"/>
</g>
<!-- Node16 -->
<g id="node16" class="node">
<title>Node16</title>
<g id="a_node16"><a xlink:href="SimulationRunner_8cpp.xhtml" target="_top" xlink:title="In this file, the implementation of the SimulationRunner class is defined.">
<polygon fill="white" stroke="black" points="748.5,-234.5 748.5,-275.5 930.5,-275.5 930.5,-234.5 748.5,-234.5"/>
<text text-anchor="start" x="756.5" y="-263.5" font-family="Helvetica,sans-Serif" font-size="10.00">/home/runner/work/Simopticon</text>
<text text-anchor="start" x="756.5" y="-252.5" font-family="Helvetica,sans-Serif" font-size="10.00">/Simopticon/src/runner/Simulation</text>
<text text-anchor="middle" x="839.5" y="-241.5" font-family="Helvetica,sans-Serif" font-size="10.00">Runner.cpp</text>
</a>
</g>
</g>
<!-- Node13&#45;&gt;Node16 -->
<g id="edge22" class="edge">
<title>Node13&#45;&gt;Node16</title>
<path fill="none" stroke="midnightblue" d="M827.85,-302.59C830.12,-293.51 832.56,-283.74 834.62,-275.51"/>
<polygon fill="midnightblue" stroke="midnightblue" points="824.42,-301.88 825.39,-312.43 831.21,-303.58 824.42,-301.88"/>
</g>
<!-- Node14&#45;&gt;Node5 -->
<g id="edge20" class="edge">
<title>Node14&#45;&gt;Node5</title>
<path fill="none" stroke="midnightblue" d="M1023.23,-224.72C1009.28,-185.41 979.08,-116.1 929.5,-78 895.29,-51.71 849.49,-37.76 810.05,-30.36"/>
<polygon fill="midnightblue" stroke="midnightblue" points="1019.95,-225.95 1026.51,-234.27 1026.57,-223.67 1019.95,-225.95"/>
</g>
<!-- Node15 -->
<g id="node15" class="node">
<title>Node15</title>
<g id="a_node15"><a xlink:href="PlexeSimulationRunner_8cpp.xhtml" target="_top" xlink:title="In this file, the implementation of the PlexeSimulationRunner class is defined.">
<polygon fill="white" stroke="black" points="1139,-156.5 1139,-197.5 1306,-197.5 1306,-156.5 1139,-156.5"/>
<text text-anchor="start" x="1147" y="-185.5" font-family="Helvetica,sans-Serif" font-size="10.00">/home/runner/work/Simopticon</text>
<text text-anchor="start" x="1147" y="-174.5" font-family="Helvetica,sans-Serif" font-size="10.00">/Simopticon/src/runner/plexe</text>
<text text-anchor="middle" x="1222.5" y="-163.5" font-family="Helvetica,sans-Serif" font-size="10.00">/PlexeSimulationRunner.cpp</text>
</a>
</g>
</g>
<!-- Node14&#45;&gt;Node15 -->
<g id="edge21" class="edge">
<title>Node14&#45;&gt;Node15</title>
<path fill="none" stroke="midnightblue" d="M1090.98,-230.61C1117.5,-220 1148.5,-207.6 1173.74,-197.51"/>
<polygon fill="midnightblue" stroke="midnightblue" points="1089.41,-227.46 1081.43,-234.43 1092.01,-233.96 1089.41,-227.46"/>
</g>
<!-- Node17&#45;&gt;Node14 -->
<g id="edge24" class="edge">
<title>Node17&#45;&gt;Node14</title>
<path fill="none" stroke="midnightblue" d="M1092.76,-305.78C1080.73,-295.84 1067.26,-284.72 1056.11,-275.51"/>
<polygon fill="midnightblue" stroke="midnightblue" points="1090.87,-308.76 1100.81,-312.43 1095.33,-303.36 1090.87,-308.76"/>
</g>
<!-- Node17&#45;&gt;Node15 -->
<g id="edge26" class="edge">
<title>Node17&#45;&gt;Node15</title>
<path fill="none" stroke="midnightblue" d="M1218.01,-314.65C1258.17,-305.12 1298.63,-291.97 1310.5,-276 1321.64,-261.02 1319.48,-250.36 1310.5,-234 1301.87,-218.28 1286.76,-206.35 1271.46,-197.62"/>
<polygon fill="midnightblue" stroke="midnightblue" points="1217.06,-311.28 1208.1,-316.93 1218.63,-318.1 1217.06,-311.28"/>
</g>
<!-- Node18 -->
<g id="node18" class="node">
<title>Node18</title>
<g id="a_node18"><a xlink:href="ConfigEditor_8cpp.xhtml" target="_top" xlink:title="In this file, the implementation of the ConfigEditor class is defined.">
<polygon fill="white" stroke="black" points="1134,-234.5 1134,-275.5 1301,-275.5 1301,-234.5 1134,-234.5"/>
<text text-anchor="start" x="1142" y="-263.5" font-family="Helvetica,sans-Serif" font-size="10.00">/home/runner/work/Simopticon</text>
<text text-anchor="start" x="1142" y="-252.5" font-family="Helvetica,sans-Serif" font-size="10.00">/Simopticon/src/runner/plexe</text>
<text text-anchor="middle" x="1217.5" y="-241.5" font-family="Helvetica,sans-Serif" font-size="10.00">/ConfigEditor.cpp</text>
</a>
</g>
</g>
<!-- Node17&#45;&gt;Node18 -->
<g id="edge25" class="edge">
<title>Node17&#45;&gt;Node18</title>
<path fill="none" stroke="midnightblue" d="M1156.24,-306.06C1168.48,-296.06 1182.25,-284.8 1193.63,-275.51"/>
<polygon fill="midnightblue" stroke="midnightblue" points="1153.98,-303.39 1148.45,-312.43 1158.41,-308.81 1153.98,-303.39"/>
</g>
</g>
</svg>
        <g id="navigator" transform="translate(0 0)" fill="#404254">
                <rect fill="#f2f5e9" fill-opacity="0.5" stroke="#606060" stroke-width=".5" x="0" y="0" width="60" height="60"/>
                <use id="zoomplus" xlink:href="#zoomPlus" x="17" y="9" onmousedown="handleZoom(evt,'in')"/>
                <use id="zoomminus" xlink:href="#zoomMin" x="42" y="9" onmousedown="handleZoom(evt,'out')"/>
                <use id="reset" xlink:href="#resetDef" x="30" y="36" onmousedown="handleReset()"/>
                <g id="arrowUp" xlink:href="#dirArrow" transform="translate(30 24)" onmousedown="handlePan(0,-1)">
                  <use xlink:href="#rim" fill="#404040">
                        <set attributeName="fill" to="#808080" begin="arrowUp.mouseover" end="arrowUp.mouseout"/>
                  </use>
                  <path fill="none" stroke="white" stroke-width="1.5" d="M0,-3.0v7 M-2.5,-0.5L0,-3.0L2.5,-0.5"/>
                </g>
                <g id="arrowRight" xlink:href="#dirArrow" transform="rotate(90) translate(36 -43)" onmousedown="handlePan(1,0)">
                  <use xlink:href="#rim" fill="#404040">
                        <set attributeName="fill" to="#808080" begin="arrowRight.mouseover" end="arrowRight.mouseout"/>
                  </use>
                  <path fill="none" stroke="white" stroke-width="1.5" d="M0,-3.0v7 M-2.5,-0.5L0,-3.0L2.5,-0.5"/>
                </g>
                <g id="arrowDown" xlink:href="#dirArrow" transform="rotate(180) translate(-30 -48)" onmousedown="handlePan(0,1)">
                  <use xlink:href="#rim" fill="#404040">
                        <set attributeName="fill" to="#808080" begin="arrowDown.mouseover" end="arrowDown.mouseout"/>
                  </use>
                  <path fill="none" stroke="white" stroke-width="1.5" d="M0,-3.0v7 M-2.5,-0.5L0,-3.0L2.5,-0.5"/>
                </g>
                <g id="arrowLeft" xlink:href="#dirArrow" transform="rotate(270) translate(-36 17)" onmousedown="handlePan(-1,0)">
                  <use xlink:href="#rim" fill="#404040">
                        <set attributeName="fill" to="#808080" begin="arrowLeft.mouseover" end="arrowLeft.mouseout"/>
                  </use>
                  <path fill="none" stroke="white" stroke-width="1.5" d="M0,-3.0v7 M-2.5,-0.5L0,-3.0L2.5,-0.5"/>
                </g>
        </g>
        <svg viewBox="0 0 15 15" width="100%" height="30px" preserveAspectRatio="xMaxYMin meet">
         <g id="arrow_out" transform="scale(0.3 0.3)">
          <a xlink:href="ComparisonFunctions_8h__dep__incl_org.svg" target="_base">
           <rect id="button" ry="5" rx="5" y="6" x="6" height="38" width="38"
                fill="#f2f5e9" fill-opacity="0.5" stroke="#606060" stroke-width="1.0"/>
           <path id="arrow"
             d="M 11.500037,31.436501 C 11.940474,20.09759 22.043105,11.32322 32.158766,21.979434 L 37.068811,17.246167 C 37.068811,17.246167 37.088388,32 37.088388,32 L 22.160133,31.978069 C 22.160133,31.978069 26.997745,27.140456 26.997745,27.140456 C 18.528582,18.264221 13.291696,25.230495 11.500037,31.436501 z"
             style="fill:#404040;"/>
          </a>
         </g>
        </svg>
</svg>
