<?xml version="1.0" encoding="UTF-8" standalone="no"?>
<!DOCTYPE svg PUBLIC "-//W3C//DTD SVG 1.1//EN"
 "http://www.w3.org/Graphics/SVG/1.1/DTD/svg11.dtd">
<!-- Generated by graphviz version 2.43.0 (0)
 -->
<!-- Title: /home/runner/work/Simopticon/Simopticon/src/ComparisonFunctions.h Pages: 1 -->
<svg width="1714pt" height="429pt"
 viewBox="0.00 0.00 1713.82 429.00" xmlns="http://www.w3.org/2000/svg" xmlns:xlink="http://www.w3.org/1999/xlink">
<g id="graph0" class="graph" transform="scale(1 1) rotate(0) translate(4 425)">
<title>/home/runner/work/Simopticon/Simopticon/src/ComparisonFunctions.h</title>
<polygon fill="white" stroke="transparent" points="-4,4 -4,-425 1709.82,-425 1709.82,4 -4,4"/>
<!-- Node1 -->
<g id="node1" class="node">
<title>Node1</title>
<g id="a_node1"><a xlink:title="In this file, comparison functions are defined which should be used across the whole framework.">
<polygon fill="#bfbfbf" stroke="black" points="1024.02,-390.5 1024.02,-420.5 1233.02,-420.5 1233.02,-390.5 1024.02,-390.5"/>
<text text-anchor="start" x="1032.02" y="-408.5" font-family="Helvetica,sans-Serif" font-size="10.00">/home/runner/work/Simopticon</text>
<text text-anchor="middle" x="1128.52" y="-397.5" font-family="Helvetica,sans-Serif" font-size="10.00">/Simopticon/src/ComparisonFunctions.h</text>
</a>
</g>
</g>
<!-- Node2 -->
<g id="node2" class="node">
<title>Node2</title>
<g id="a_node2"><a xlink:href="ValueMap_8h.xhtml" target="_top" xlink:title="In this file, the header of the ValueMap class is defined.">
<polygon fill="white" stroke="black" points="521.02,-312.5 521.02,-353.5 688.02,-353.5 688.02,-312.5 521.02,-312.5"/>
<text text-anchor="start" x="529.02" y="-341.5" font-family="Helvetica,sans-Serif" font-size="10.00">/home/runner/work/Simopticon</text>
<text text-anchor="start" x="529.02" y="-330.5" font-family="Helvetica,sans-Serif" font-size="10.00">/Simopticon/src/controller</text>
<text text-anchor="middle" x="604.52" y="-319.5" font-family="Helvetica,sans-Serif" font-size="10.00">/ValueMap.h</text>
</a>
</g>
</g>
<!-- Node1&#45;&gt;Node2 -->
<g id="edge1" class="edge">
<title>Node1&#45;&gt;Node2</title>
<path fill="none" stroke="midnightblue" d="M1014.38,-389.14C916.07,-375.92 776.45,-357.13 688.2,-345.26"/>
<polygon fill="midnightblue" stroke="midnightblue" points="1013.99,-392.62 1024.36,-390.49 1014.92,-385.68 1013.99,-392.62"/>
</g>
<!-- Node10 -->
<g id="node10" class="node">
<title>Node10</title>
<g id="a_node10"><a xlink:href="Controller_8h.xhtml" target="_top" xlink:title="In this file, the header of the Controller class is defined.">
<polygon fill="white" stroke="black" points="764.02,-156.5 764.02,-197.5 931.02,-197.5 931.02,-156.5 764.02,-156.5"/>
<text text-anchor="start" x="772.02" y="-185.5" font-family="Helvetica,sans-Serif" font-size="10.00">/home/runner/work/Simopticon</text>
<text text-anchor="start" x="772.02" y="-174.5" font-family="Helvetica,sans-Serif" font-size="10.00">/Simopticon/src/controller</text>
<text text-anchor="middle" x="847.52" y="-163.5" font-family="Helvetica,sans-Serif" font-size="10.00">/Controller.h</text>
</a>
</g>
</g>
<!-- Node1&#45;&gt;Node10 -->
<g id="edge18" class="edge">
<title>Node1&#45;&gt;Node10</title>
<path fill="none" stroke="midnightblue" d="M1110.19,-382.41C1103.2,-373.71 1095.29,-363.54 1088.52,-354 1070.25,-328.26 1037.32,-253.52 1012.52,-234 988.98,-215.48 958.97,-202.91 931.02,-194.46"/>
<polygon fill="midnightblue" stroke="midnightblue" points="1107.52,-384.67 1116.55,-390.23 1112.96,-380.26 1107.52,-384.67"/>
</g>
<!-- Node15 -->
<g id="node15" class="node">
<title>Node15</title>
<g id="a_node15"><a xlink:href="SimulationRunner_8h.xhtml" target="_top" xlink:title="In this file, the header of the SimulationRunner class is defined.">
<polygon fill="white" stroke="black" points="1097.52,-312.5 1097.52,-353.5 1279.52,-353.5 1279.52,-312.5 1097.52,-312.5"/>
<text text-anchor="start" x="1105.52" y="-341.5" font-family="Helvetica,sans-Serif" font-size="10.00">/home/runner/work/Simopticon</text>
<text text-anchor="start" x="1105.52" y="-330.5" font-family="Helvetica,sans-Serif" font-size="10.00">/Simopticon/src/runner/Simulation</text>
<text text-anchor="middle" x="1188.52" y="-319.5" font-family="Helvetica,sans-Serif" font-size="10.00">Runner.h</text>
</a>
</g>
</g>
<!-- Node1&#45;&gt;Node15 -->
<g id="edge19" class="edge">
<title>Node1&#45;&gt;Node15</title>
<path fill="none" stroke="midnightblue" d="M1147.2,-382.54C1155.09,-373.28 1164.19,-362.58 1171.85,-353.59"/>
<polygon fill="midnightblue" stroke="midnightblue" points="1144.47,-380.35 1140.66,-390.23 1149.8,-384.89 1144.47,-380.35"/>
</g>
<!-- Node19 -->
<g id="node19" class="node">
<title>Node19</title>
<g id="a_node19"><a xlink:href="ConfigEditor_8h.xhtml" target="_top" xlink:title="In this file, the header of the ConfigEditor class is defined.">
<polygon fill="white" stroke="black" points="1428.02,-312.5 1428.02,-353.5 1595.02,-353.5 1595.02,-312.5 1428.02,-312.5"/>
<text text-anchor="start" x="1436.02" y="-341.5" font-family="Helvetica,sans-Serif" font-size="10.00">/home/runner/work/Simopticon</text>
<text text-anchor="start" x="1436.02" y="-330.5" font-family="Helvetica,sans-Serif" font-size="10.00">/Simopticon/src/runner/plexe</text>
<text text-anchor="middle" x="1511.52" y="-319.5" font-family="Helvetica,sans-Serif" font-size="10.00">/ConfigEditor.h</text>
</a>
</g>
</g>
<!-- Node1&#45;&gt;Node19 -->
<g id="edge25" class="edge">
<title>Node1&#45;&gt;Node19</title>
<path fill="none" stroke="midnightblue" d="M1214.67,-388.64C1278.41,-376.91 1364.76,-361.01 1427.89,-349.39"/>
<polygon fill="midnightblue" stroke="midnightblue" points="1213.84,-385.23 1204.64,-390.49 1215.11,-392.12 1213.84,-385.23"/>
</g>
<!-- Node3 -->
<g id="node3" class="node">
<title>Node3</title>
<g id="a_node3"><a xlink:href="ValueMap_8cpp.xhtml" target="_top" xlink:title="In this file, the implementation of the ValueMap class is defined.">
<polygon fill="white" stroke="black" points="837.02,-234.5 837.02,-275.5 1004.02,-275.5 1004.02,-234.5 837.02,-234.5"/>
<text text-anchor="start" x="845.02" y="-263.5" font-family="Helvetica,sans-Serif" font-size="10.00">/home/runner/work/Simopticon</text>
<text text-anchor="start" x="845.02" y="-252.5" font-family="Helvetica,sans-Serif" font-size="10.00">/Simopticon/src/controller</text>
<text text-anchor="middle" x="920.52" y="-241.5" font-family="Helvetica,sans-Serif" font-size="10.00">/ValueMap.cpp</text>
</a>
</g>
</g>
<!-- Node2&#45;&gt;Node3 -->
<g id="edge2" class="edge">
<title>Node2&#45;&gt;Node3</title>
<path fill="none" stroke="midnightblue" d="M695.73,-310.06C741.11,-299.15 795.5,-286.07 839.41,-275.51"/>
<polygon fill="midnightblue" stroke="midnightblue" points="694.8,-306.69 685.89,-312.43 696.44,-313.49 694.8,-306.69"/>
</g>
<!-- Node4 -->
<g id="node4" class="node">
<title>Node4</title>
<g id="a_node4"><a xlink:href="StubController_8cpp.xhtml" target="_top" xlink:title="In this file, the implementation of the StubController class is defined.">
<polygon fill="white" stroke="black" points="138.02,-0.5 138.02,-41.5 305.02,-41.5 305.02,-0.5 138.02,-0.5"/>
<text text-anchor="start" x="146.02" y="-29.5" font-family="Helvetica,sans-Serif" font-size="10.00">/home/runner/work/Simopticon</text>
<text text-anchor="start" x="146.02" y="-18.5" font-family="Helvetica,sans-Serif" font-size="10.00">/Simopticon/src/controller</text>
<text text-anchor="middle" x="221.52" y="-7.5" font-family="Helvetica,sans-Serif" font-size="10.00">/StubController.cpp</text>
</a>
</g>
</g>
<!-- Node2&#45;&gt;Node4 -->
<g id="edge3" class="edge">
<title>Node2&#45;&gt;Node4</title>
<path fill="none" stroke="midnightblue" d="M510.66,-329.79C353.7,-325.12 51.85,-311.58 19.52,-276 -56.08,-192.82 108.82,-85.03 185.29,-41.5"/>
<polygon fill="midnightblue" stroke="midnightblue" points="510.69,-333.3 520.79,-330.09 510.89,-326.3 510.69,-333.3"/>
</g>
<!-- Node5 -->
<g id="node5" class="node">
<title>Node5</title>
<g id="a_node5"><a xlink:href="Controller_8cpp.xhtml" target="_top" xlink:title="In this file, the implementation of the Controller class is defined.">
<polygon fill="white" stroke="black" points="857.02,-0.5 857.02,-41.5 1024.02,-41.5 1024.02,-0.5 857.02,-0.5"/>
<text text-anchor="start" x="865.02" y="-29.5" font-family="Helvetica,sans-Serif" font-size="10.00">/home/runner/work/Simopticon</text>
<text text-anchor="start" x="865.02" y="-18.5" font-family="Helvetica,sans-Serif" font-size="10.00">/Simopticon/src/controller</text>
<text text-anchor="middle" x="940.52" y="-7.5" font-family="Helvetica,sans-Serif" font-size="10.00">/Controller.cpp</text>
</a>
</g>
</g>
<!-- Node2&#45;&gt;Node5 -->
<g id="edge4" class="edge">
<title>Node2&#45;&gt;Node5</title>
<path fill="none" stroke="midnightblue" d="M698.22,-331.02C804.13,-327.92 967.65,-316.49 1012.52,-276 1079.04,-215.97 1097.35,-154.39 1050.52,-78 1040.49,-61.65 1024.03,-49.89 1006.86,-41.5"/>
<polygon fill="midnightblue" stroke="midnightblue" points="698.06,-327.52 688.16,-331.29 698.25,-334.52 698.06,-327.52"/>
</g>
<!-- Node6 -->
<g id="node6" class="node">
<title>Node6</title>
<g id="a_node6"><a xlink:href="DirectOptimizer_8cpp.xhtml" target="_top" xlink:title="In this file, the implementation of the DirectOptimizer class is defined.">
<polygon fill="white" stroke="black" points="29.02,-234.5 29.02,-275.5 196.02,-275.5 196.02,-234.5 29.02,-234.5"/>
<text text-anchor="start" x="37.02" y="-263.5" font-family="Helvetica,sans-Serif" font-size="10.00">/home/runner/work/Simopticon</text>
<text text-anchor="start" x="37.02" y="-252.5" font-family="Helvetica,sans-Serif" font-size="10.00">/Simopticon/src/optimizer</text>
<text text-anchor="middle" x="112.52" y="-241.5" font-family="Helvetica,sans-Serif" font-size="10.00">/direct/DirectOptimizer.cpp</text>
</a>
</g>
</g>
<!-- Node2&#45;&gt;Node6 -->
<g id="edge5" class="edge">
<title>Node2&#45;&gt;Node6</title>
<path fill="none" stroke="midnightblue" d="M510.51,-320.86C429.25,-310.75 308.78,-294.6 204.52,-276 201.78,-275.51 199,-275 196.2,-274.47"/>
<polygon fill="midnightblue" stroke="midnightblue" points="510.37,-324.37 520.72,-322.12 511.23,-317.42 510.37,-324.37"/>
</g>
<!-- Node7 -->
<g id="node7" class="node">
<title>Node7</title>
<g id="a_node7"><a xlink:href="MonteCarlo_8cpp.xhtml" target="_top" xlink:title="In this file, the implementation of the MonteCarlo optimizer class is defined.">
<polygon fill="white" stroke="black" points="415.02,-234.5 415.02,-275.5 582.02,-275.5 582.02,-234.5 415.02,-234.5"/>
<text text-anchor="start" x="423.02" y="-263.5" font-family="Helvetica,sans-Serif" font-size="10.00">/home/runner/work/Simopticon</text>
<text text-anchor="start" x="423.02" y="-252.5" font-family="Helvetica,sans-Serif" font-size="10.00">/Simopticon/src/optimizer</text>
<text text-anchor="middle" x="498.52" y="-241.5" font-family="Helvetica,sans-Serif" font-size="10.00">/montecarlo/MonteCarlo.cpp</text>
</a>
</g>
</g>
<!-- Node2&#45;&gt;Node7 -->
<g id="edge6" class="edge">
<title>Node2&#45;&gt;Node7</title>
<path fill="none" stroke="midnightblue" d="M568.74,-306.35C554.68,-296.27 538.81,-284.89 525.72,-275.51"/>
<polygon fill="midnightblue" stroke="midnightblue" points="567.05,-309.45 577.22,-312.43 571.13,-303.76 567.05,-309.45"/>
</g>
<!-- Node8 -->
<g id="node8" class="node">
<title>Node8</title>
<g id="a_node8"><a xlink:href="RandomNeighbors_8cpp.xhtml" target="_top" xlink:title="In this file, the implementation of the RandomNeighbors optimizer class is defined.">
<polygon fill="white" stroke="black" points="600.52,-234.5 600.52,-275.5 818.52,-275.5 818.52,-234.5 600.52,-234.5"/>
<text text-anchor="start" x="608.52" y="-263.5" font-family="Helvetica,sans-Serif" font-size="10.00">/home/runner/work/Simopticon</text>
<text text-anchor="start" x="608.52" y="-252.5" font-family="Helvetica,sans-Serif" font-size="10.00">/Simopticon/src/optimizer</text>
<text text-anchor="middle" x="709.52" y="-241.5" font-family="Helvetica,sans-Serif" font-size="10.00">/randomneighbors/RandomNeighbors.cpp</text>
</a>
</g>
</g>
<!-- Node2&#45;&gt;Node8 -->
<g id="edge7" class="edge">
<title>Node2&#45;&gt;Node8</title>
<path fill="none" stroke="midnightblue" d="M639.95,-306.35C653.88,-296.27 669.6,-284.89 682.57,-275.51"/>
<polygon fill="midnightblue" stroke="midnightblue" points="637.6,-303.73 631.56,-312.43 641.71,-309.4 637.6,-303.73"/>
</g>
<!-- Node9 -->
<g id="node9" class="node">
<title>Node9</title>
<g id="a_node9"><a xlink:href="StatusBar_8h.xhtml" target="_top" xlink:title="In this file, the header of the StatusBar class is defined.">
<polygon fill="white" stroke="black" points="214.02,-240 214.02,-270 397.02,-270 397.02,-240 214.02,-240"/>
<text text-anchor="start" x="222.02" y="-258" font-family="Helvetica,sans-Serif" font-size="10.00">/home/runner/work/Simopticon</text>
<text text-anchor="middle" x="305.52" y="-247" font-family="Helvetica,sans-Serif" font-size="10.00">/Simopticon/src/status/StatusBar.h</text>
</a>
</g>
</g>
<!-- Node2&#45;&gt;Node9 -->
<g id="edge8" class="edge">
<title>Node2&#45;&gt;Node9</title>
<path fill="none" stroke="midnightblue" d="M517.58,-309.9C467.07,-297.06 404.93,-281.27 361.01,-270.11"/>
<polygon fill="midnightblue" stroke="midnightblue" points="516.96,-313.36 527.52,-312.43 518.69,-306.57 516.96,-313.36"/>
</g>
<!-- Node9&#45;&gt;Node10 -->
<g id="edge9" class="edge">
<title>Node9&#45;&gt;Node10</title>
<path fill="none" stroke="midnightblue" d="M382.07,-238.11C389.98,-236.64 397.9,-235.24 405.52,-234 529.76,-213.73 674.67,-196.6 763.76,-186.81"/>
<polygon fill="midnightblue" stroke="midnightblue" points="381.27,-234.7 372.1,-240 382.57,-241.58 381.27,-234.7"/>
</g>
<!-- Node14 -->
<g id="node14" class="node">
<title>Node14</title>
<g id="a_node14"><a xlink:href="StatusBar_8cpp.xhtml" target="_top" xlink:title="In this file, the implementation of the StatusBar class is defined.">
<polygon fill="white" stroke="black" points="208.52,-162 208.52,-192 402.52,-192 402.52,-162 208.52,-162"/>
<text text-anchor="start" x="216.52" y="-180" font-family="Helvetica,sans-Serif" font-size="10.00">/home/runner/work/Simopticon</text>
<text text-anchor="middle" x="305.52" y="-169" font-family="Helvetica,sans-Serif" font-size="10.00">/Simopticon/src/status/StatusBar.cpp</text>
</a>
</g>
</g>
<!-- Node9&#45;&gt;Node14 -->
<g id="edge17" class="edge">
<title>Node9&#45;&gt;Node14</title>
<path fill="none" stroke="midnightblue" d="M305.52,-229.59C305.52,-217.26 305.52,-202.72 305.52,-192.23"/>
<polygon fill="midnightblue" stroke="midnightblue" points="302.02,-229.7 305.52,-239.7 309.02,-229.71 302.02,-229.7"/>
</g>
<!-- Node10&#45;&gt;Node5 -->
<g id="edge10" class="edge">
<title>Node10&#45;&gt;Node5</title>
<path fill="none" stroke="midnightblue" d="M847.4,-146.39C848.58,-125.82 852.77,-98.53 865.52,-78 874.77,-63.09 889.57,-50.79 903.58,-41.56"/>
<polygon fill="midnightblue" stroke="midnightblue" points="843.89,-146.34 847.02,-156.47 850.89,-146.6 843.89,-146.34"/>
</g>
<!-- Node11 -->
<g id="node11" class="node">
<title>Node11</title>
<g id="a_node11"><a xlink:href="main_8cpp.xhtml" target="_top" xlink:title="In this file, the main function running the Simopticon framework is defined.">
<polygon fill="white" stroke="black" points="598.02,-6 598.02,-36 765.02,-36 765.02,-6 598.02,-6"/>
<text text-anchor="start" x="606.02" y="-24" font-family="Helvetica,sans-Serif" font-size="10.00">/home/runner/work/Simopticon</text>
<text text-anchor="middle" x="681.52" y="-13" font-family="Helvetica,sans-Serif" font-size="10.00">/Simopticon/src/main.cpp</text>
</a>
</g>
</g>
<!-- Node10&#45;&gt;Node11 -->
<g id="edge11" class="edge">
<title>Node10&#45;&gt;Node11</title>
<path fill="none" stroke="midnightblue" d="M754.02,-161.59C707.21,-152.26 657.55,-138.4 643.52,-120 623.71,-94.03 650.18,-56.46 667.9,-36.21"/>
<polygon fill="midnightblue" stroke="midnightblue" points="753.47,-165.04 763.95,-163.51 754.8,-158.17 753.47,-165.04"/>
</g>
<!-- Node12 -->
<g id="node12" class="node">
<title>Node12</title>
<g id="a_node12"><a xlink:href="StubController_8h.xhtml" target="_top" xlink:title="In this file, the header of the StubController class is defined.">
<polygon fill="white" stroke="black" points="653.02,-78.5 653.02,-119.5 820.02,-119.5 820.02,-78.5 653.02,-78.5"/>
<text text-anchor="start" x="661.02" y="-107.5" font-family="Helvetica,sans-Serif" font-size="10.00">/home/runner/work/Simopticon</text>
<text text-anchor="start" x="661.02" y="-96.5" font-family="Helvetica,sans-Serif" font-size="10.00">/Simopticon/src/controller</text>
<text text-anchor="middle" x="736.52" y="-85.5" font-family="Helvetica,sans-Serif" font-size="10.00">/StubController.h</text>
</a>
</g>
</g>
<!-- Node10&#45;&gt;Node12 -->
<g id="edge12" class="edge">
<title>Node10&#45;&gt;Node12</title>
<path fill="none" stroke="midnightblue" d="M810.47,-150.64C795.65,-140.49 778.84,-128.98 765,-119.51"/>
<polygon fill="midnightblue" stroke="midnightblue" points="808.7,-153.67 818.93,-156.43 812.66,-147.89 808.7,-153.67"/>
</g>
<!-- Node13 -->
<g id="node13" class="node">
<title>Node13</title>
<g id="a_node13"><a xlink:href="Optimizer_8cpp.xhtml" target="_top" xlink:title="In this file, the implementation of the Optimizer class is defined.">
<polygon fill="white" stroke="black" points="875.02,-78.5 875.02,-119.5 1042.02,-119.5 1042.02,-78.5 875.02,-78.5"/>
<text text-anchor="start" x="883.02" y="-107.5" font-family="Helvetica,sans-Serif" font-size="10.00">/home/runner/work/Simopticon</text>
<text text-anchor="start" x="883.02" y="-96.5" font-family="Helvetica,sans-Serif" font-size="10.00">/Simopticon/src/optimizer</text>
<text text-anchor="middle" x="958.52" y="-85.5" font-family="Helvetica,sans-Serif" font-size="10.00">/Optimizer.cpp</text>
</a>
</g>
</g>
<!-- Node10&#45;&gt;Node13 -->
<g id="edge16" class="edge">
<title>Node10&#45;&gt;Node13</title>
<path fill="none" stroke="midnightblue" d="M884.56,-150.64C899.38,-140.49 916.19,-128.98 930.03,-119.51"/>
<polygon fill="midnightblue" stroke="midnightblue" points="882.38,-147.89 876.1,-156.43 886.33,-153.67 882.38,-147.89"/>
</g>
<!-- Node12&#45;&gt;Node4 -->
<g id="edge13" class="edge">
<title>Node12&#45;&gt;Node4</title>
<path fill="none" stroke="midnightblue" d="M642.88,-84.18C546.45,-69.95 397.59,-47.98 305.04,-34.33"/>
<polygon fill="midnightblue" stroke="midnightblue" points="642.51,-87.67 652.91,-85.66 643.53,-80.74 642.51,-87.67"/>
</g>
<!-- Node12&#45;&gt;Node5 -->
<g id="edge14" class="edge">
<title>Node12&#45;&gt;Node5</title>
<path fill="none" stroke="midnightblue" d="M798.56,-74.89C827.19,-64.22 860.82,-51.69 888.16,-41.51"/>
<polygon fill="midnightblue" stroke="midnightblue" points="797.2,-71.66 789.05,-78.43 799.64,-78.22 797.2,-71.66"/>
</g>
<!-- Node12&#45;&gt;Node11 -->
<g id="edge15" class="edge">
<title>Node12&#45;&gt;Node11</title>
<path fill="none" stroke="midnightblue" d="M716.48,-70.32C708.11,-58.75 698.74,-45.8 691.81,-36.23"/>
<polygon fill="midnightblue" stroke="midnightblue" points="713.65,-72.38 722.35,-78.43 719.32,-68.27 713.65,-72.38"/>
</g>
<!-- Node15&#45;&gt;Node10 -->
<g id="edge20" class="edge">
<title>Node15&#45;&gt;Node10</title>
<path fill="none" stroke="midnightblue" d="M1157.04,-305.95C1129.22,-284.05 1086.76,-253.33 1045.52,-234 1009.45,-217.1 967.24,-204.3 931.08,-195.23"/>
<polygon fill="midnightblue" stroke="midnightblue" points="1155.18,-308.94 1165.19,-312.43 1159.54,-303.47 1155.18,-308.94"/>
</g>
<!-- Node16 -->
<g id="node16" class="node">
<title>Node16</title>
<g id="a_node16"><a xlink:href="PlexeSimulationRunner_8h.xhtml" target="_top" xlink:title="In this file, the header of the PlexeSimulationRunner class is defined.">
<polygon fill="white" stroke="black" points="1336.02,-234.5 1336.02,-275.5 1503.02,-275.5 1503.02,-234.5 1336.02,-234.5"/>
<text text-anchor="start" x="1344.02" y="-263.5" font-family="Helvetica,sans-Serif" font-size="10.00">/home/runner/work/Simopticon</text>
<text text-anchor="start" x="1344.02" y="-252.5" font-family="Helvetica,sans-Serif" font-size="10.00">/Simopticon/src/runner/plexe</text>
<text text-anchor="middle" x="1419.52" y="-241.5" font-family="Helvetica,sans-Serif" font-size="10.00">/PlexeSimulationRunner.h</text>
</a>
</g>
</g>
<!-- Node15&#45;&gt;Node16 -->
<g id="edge21" class="edge">
<title>Node15&#45;&gt;Node16</title>
<path fill="none" stroke="midnightblue" d="M1257.92,-309.17C1290.53,-298.44 1329,-285.78 1360.23,-275.51"/>
<polygon fill="midnightblue" stroke="midnightblue" points="1256.41,-305.98 1248,-312.43 1258.6,-312.63 1256.41,-305.98"/>
</g>
<!-- Node18 -->
<g id="node18" class="node">
<title>Node18</title>
<g id="a_node18"><a xlink:href="SimulationRunner_8cpp.xhtml" target="_top" xlink:title="In this file, the implementation of the SimulationRunner class is defined.">
<polygon fill="white" stroke="black" points="1135.52,-234.5 1135.52,-275.5 1317.52,-275.5 1317.52,-234.5 1135.52,-234.5"/>
<text text-anchor="start" x="1143.52" y="-263.5" font-family="Helvetica,sans-Serif" font-size="10.00">/home/runner/work/Simopticon</text>
<text text-anchor="start" x="1143.52" y="-252.5" font-family="Helvetica,sans-Serif" font-size="10.00">/Simopticon/src/runner/Simulation</text>
<text text-anchor="middle" x="1226.52" y="-241.5" font-family="Helvetica,sans-Serif" font-size="10.00">Runner.cpp</text>
</a>
</g>
</g>
<!-- Node15&#45;&gt;Node18 -->
<g id="edge24" class="edge">
<title>Node15&#45;&gt;Node18</title>
<path fill="none" stroke="midnightblue" d="M1202.78,-303.47C1207.44,-294.14 1212.51,-284.01 1216.76,-275.51"/>
<polygon fill="midnightblue" stroke="midnightblue" points="1199.64,-301.92 1198.3,-312.43 1205.9,-305.05 1199.64,-301.92"/>
</g>
<!-- Node16&#45;&gt;Node5 -->
<g id="edge22" class="edge">
<title>Node16&#45;&gt;Node5</title>
<path fill="none" stroke="midnightblue" d="M1376.42,-229.48C1313.21,-193.96 1191.16,-127.09 1083.52,-78 1054.53,-64.78 1021.44,-51.7 994.4,-41.51"/>
<polygon fill="midnightblue" stroke="midnightblue" points="1374.88,-232.63 1385.31,-234.49 1378.32,-226.53 1374.88,-232.63"/>
</g>
<!-- Node17 -->
<g id="node17" class="node">
<title>Node17</title>
<g id="a_node17"><a xlink:href="PlexeSimulationRunner_8cpp.xhtml" target="_top" xlink:title="In this file, the implementation of the PlexeSimulationRunner class is defined.">
<polygon fill="white" stroke="black" points="1441.02,-156.5 1441.02,-197.5 1608.02,-197.5 1608.02,-156.5 1441.02,-156.5"/>
<text text-anchor="start" x="1449.02" y="-185.5" font-family="Helvetica,sans-Serif" font-size="10.00">/home/runner/work/Simopticon</text>
<text text-anchor="start" x="1449.02" y="-174.5" font-family="Helvetica,sans-Serif" font-size="10.00">/Simopticon/src/runner/plexe</text>
<text text-anchor="middle" x="1524.52" y="-163.5" font-family="Helvetica,sans-Serif" font-size="10.00">/PlexeSimulationRunner.cpp</text>
</a>
</g>
</g>
<!-- Node16&#45;&gt;Node17 -->
<g id="edge23" class="edge">
<title>Node16&#45;&gt;Node17</title>
<path fill="none" stroke="midnightblue" d="M1454.95,-228.35C1468.88,-218.27 1484.6,-206.89 1497.57,-197.51"/>
<polygon fill="midnightblue" stroke="midnightblue" points="1452.6,-225.73 1446.56,-234.43 1456.71,-231.4 1452.6,-225.73"/>
</g>
<!-- Node19&#45;&gt;Node16 -->
<g id="edge26" class="edge">
<title>Node19&#45;&gt;Node16</title>
<path fill="none" stroke="midnightblue" d="M1479.77,-305.78C1467.75,-295.84 1454.28,-284.72 1443.13,-275.51"/>
<polygon fill="midnightblue" stroke="midnightblue" points="1477.89,-308.76 1487.82,-312.43 1482.34,-303.36 1477.89,-308.76"/>
</g>
<!-- Node19&#45;&gt;Node17 -->
<g id="edge28" class="edge">
<title>Node19&#45;&gt;Node17</title>
<path fill="none" stroke="midnightblue" d="M1605.03,-314.65C1645.19,-305.12 1685.65,-291.97 1697.52,-276 1708.65,-261.02 1708.5,-249.1 1697.52,-234 1676.9,-205.66 1641.64,-191.37 1608.31,-184.27"/>
<polygon fill="midnightblue" stroke="midnightblue" points="1604.07,-311.28 1595.11,-316.93 1605.64,-318.1 1604.07,-311.28"/>
</g>
<!-- Node20 -->
<g id="node20" class="node">
<title>Node20</title>
<g id="a_node20"><a xlink:href="ConfigEditor_8cpp.xhtml" target="_top" xlink:title="In this file, the implementation of the ConfigEditor class is defined.">
<polygon fill="white" stroke="black" points="1521.02,-234.5 1521.02,-275.5 1688.02,-275.5 1688.02,-234.5 1521.02,-234.5"/>
<text text-anchor="start" x="1529.02" y="-263.5" font-family="Helvetica,sans-Serif" font-size="10.00">/home/runner/work/Simopticon</text>
<text text-anchor="start" x="1529.02" y="-252.5" font-family="Helvetica,sans-Serif" font-size="10.00">/Simopticon/src/runner/plexe</text>
<text text-anchor="middle" x="1604.52" y="-241.5" font-family="Helvetica,sans-Serif" font-size="10.00">/ConfigEditor.cpp</text>
</a>
</g>
</g>
<!-- Node19&#45;&gt;Node20 -->
<g id="edge27" class="edge">
<title>Node19&#45;&gt;Node20</title>
<path fill="none" stroke="midnightblue" d="M1543.25,-306.06C1555.5,-296.06 1569.27,-284.8 1580.65,-275.51"/>
<polygon fill="midnightblue" stroke="midnightblue" points="1540.99,-303.39 1535.47,-312.43 1545.42,-308.81 1540.99,-303.39"/>
</g>
</g>
</svg>
