<?xml version="1.0" encoding="UTF-8" standalone="no"?>
<!DOCTYPE svg PUBLIC "-//W3C//DTD SVG 1.1//EN"
 "http://www.w3.org/Graphics/SVG/1.1/DTD/svg11.dtd">
<!-- Generated by graphviz version 2.43.0 (0)
 -->
<!-- Title: src/ComparisonFunctions.h Pages: 1 -->
<svg width="1206pt" height="330pt"
 viewBox="0.00 0.00 1206.01 330.00" xmlns="http://www.w3.org/2000/svg" xmlns:xlink="http://www.w3.org/1999/xlink">
<g id="graph0" class="graph" transform="scale(1 1) rotate(0) translate(4 326)">
<title>src/ComparisonFunctions.h</title>
<polygon fill="white" stroke="transparent" points="-4,4 -4,-326 1202.01,-326 1202.01,4 -4,4"/>
<!-- Node1 -->
<g id="node1" class="node">
<title>Node1</title>
<g id="a_node1"><a xlink:title="In this file, comparison functions are defined which should be used across the whole framework.">
<polygon fill="#bfbfbf" stroke="black" points="556,-302.5 556,-321.5 704,-321.5 704,-302.5 556,-302.5"/>
<text text-anchor="middle" x="630" y="-309.5" font-family="Helvetica,sans-Serif" font-size="10.00">src/ComparisonFunctions.h</text>
</a>
</g>
</g>
<!-- Node2 -->
<g id="node2" class="node">
<title>Node2</title>
<g id="a_node2"><a xlink:href="Controller_8h.xhtml" target="_top" xlink:title="In this file, the header of the Controller class is defined.">
<polygon fill="white" stroke="black" points="535,-118 535,-137 675,-137 675,-118 535,-118"/>
<text text-anchor="middle" x="605" y="-125" font-family="Helvetica,sans-Serif" font-size="10.00">src/controller/Controller.h</text>
</a>
</g>
</g>
<!-- Node1&#45;&gt;Node2 -->
<g id="edge1" class="edge">
<title>Node1&#45;&gt;Node2</title>
<path fill="none" stroke="midnightblue" d="M612.6,-294.82C605.37,-286.92 597.79,-276.79 594,-266 577.75,-219.67 594.58,-159.37 601.93,-137.18"/>
<polygon fill="midnightblue" stroke="midnightblue" points="610.33,-297.51 619.84,-302.19 615.33,-292.6 610.33,-297.51"/>
</g>
<!-- Node8 -->
<g id="node8" class="node">
<title>Node8</title>
<g id="a_node8"><a xlink:href="ValueMap_8h.xhtml" target="_top" xlink:title="In this file, the header of the ValueMap class is defined.">
<polygon fill="white" stroke="black" points="263,-246.5 263,-265.5 403,-265.5 403,-246.5 263,-246.5"/>
<text text-anchor="middle" x="333" y="-253.5" font-family="Helvetica,sans-Serif" font-size="10.00">src/controller/ValueMap.h</text>
</a>
</g>
</g>
<!-- Node1&#45;&gt;Node8 -->
<g id="edge9" class="edge">
<title>Node1&#45;&gt;Node8</title>
<path fill="none" stroke="midnightblue" d="M572.8,-300.6C516.67,-290.4 432.1,-275.02 379.84,-265.52"/>
<polygon fill="midnightblue" stroke="midnightblue" points="572.47,-304.1 582.94,-302.44 573.73,-297.21 572.47,-304.1"/>
</g>
<!-- Node13 -->
<g id="node13" class="node">
<title>Node13</title>
<g id="a_node13"><a xlink:href="SimulationRunner_8h.xhtml" target="_top" xlink:title="In this file, the header of the SimulationRunner class is defined.">
<polygon fill="white" stroke="black" points="603,-246.5 603,-265.5 767,-265.5 767,-246.5 603,-246.5"/>
<text text-anchor="middle" x="685" y="-253.5" font-family="Helvetica,sans-Serif" font-size="10.00">src/runner/SimulationRunner.h</text>
</a>
</g>
</g>
<!-- Node1&#45;&gt;Node13 -->
<g id="edge17" class="edge">
<title>Node1&#45;&gt;Node13</title>
<path fill="none" stroke="midnightblue" d="M646.29,-295C656.04,-285.43 668.05,-273.64 676.09,-265.75"/>
<polygon fill="midnightblue" stroke="midnightblue" points="643.77,-292.58 639.08,-302.08 648.67,-297.57 643.77,-292.58"/>
</g>
<!-- Node17 -->
<g id="node17" class="node">
<title>Node17</title>
<g id="a_node17"><a xlink:href="ConfigEditor_8h.xhtml" target="_top" xlink:title="In this file, the header of the ConfigEditor class is defined.">
<polygon fill="white" stroke="black" points="915.5,-246.5 915.5,-265.5 1080.5,-265.5 1080.5,-246.5 915.5,-246.5"/>
<text text-anchor="middle" x="998" y="-253.5" font-family="Helvetica,sans-Serif" font-size="10.00">src/runner/plexe/ConfigEditor.h</text>
</a>
</g>
</g>
<!-- Node1&#45;&gt;Node17 -->
<g id="edge23" class="edge">
<title>Node1&#45;&gt;Node17</title>
<path fill="none" stroke="midnightblue" d="M698.29,-300.98C767.8,-290.78 874.4,-275.14 939.96,-265.52"/>
<polygon fill="midnightblue" stroke="midnightblue" points="697.7,-297.53 688.31,-302.44 698.71,-304.45 697.7,-297.53"/>
</g>
<!-- Node3 -->
<g id="node3" class="node">
<title>Node3</title>
<g id="a_node3"><a xlink:href="Controller_8cpp.xhtml" target="_top" xlink:title="In this file, the implementation of the Controller class is defined.">
<polygon fill="white" stroke="black" points="524.5,-0.5 524.5,-19.5 675.5,-19.5 675.5,-0.5 524.5,-0.5"/>
<text text-anchor="middle" x="600" y="-7.5" font-family="Helvetica,sans-Serif" font-size="10.00">src/controller/Controller.cpp</text>
</a>
</g>
</g>
<!-- Node2&#45;&gt;Node3 -->
<g id="edge2" class="edge">
<title>Node2&#45;&gt;Node3</title>
<path fill="none" stroke="midnightblue" d="M604.18,-107.66C603.09,-82.37 601.19,-38.44 600.38,-19.78"/>
<polygon fill="midnightblue" stroke="midnightblue" points="600.69,-107.98 604.62,-117.82 607.69,-107.68 600.69,-107.98"/>
</g>
<!-- Node4 -->
<g id="node4" class="node">
<title>Node4</title>
<g id="a_node4"><a xlink:href="StubController_8h.xhtml" target="_top" xlink:title="In this file, the header of the StubController class is defined.">
<polygon fill="white" stroke="black" points="380.5,-56.5 380.5,-75.5 541.5,-75.5 541.5,-56.5 380.5,-56.5"/>
<text text-anchor="middle" x="461" y="-63.5" font-family="Helvetica,sans-Serif" font-size="10.00">src/controller/StubController.h</text>
</a>
</g>
</g>
<!-- Node2&#45;&gt;Node4 -->
<g id="edge3" class="edge">
<title>Node2&#45;&gt;Node4</title>
<path fill="none" stroke="midnightblue" d="M575.07,-114.13C547.09,-102.57 506.06,-85.62 481.59,-75.51"/>
<polygon fill="midnightblue" stroke="midnightblue" points="573.79,-117.39 584.37,-117.98 576.46,-110.92 573.79,-117.39"/>
</g>
<!-- Node6 -->
<g id="node6" class="node">
<title>Node6</title>
<g id="a_node6"><a xlink:href="main_8cpp.xhtml" target="_top" xlink:title="In this file, the main function running the Simopticon framework is defined.">
<polygon fill="white" stroke="black" points="420.5,-0.5 420.5,-19.5 499.5,-19.5 499.5,-0.5 420.5,-0.5"/>
<text text-anchor="middle" x="460" y="-7.5" font-family="Helvetica,sans-Serif" font-size="10.00">src/main.cpp</text>
</a>
</g>
</g>
<!-- Node2&#45;&gt;Node6 -->
<g id="edge7" class="edge">
<title>Node2&#45;&gt;Node6</title>
<path fill="none" stroke="midnightblue" d="M548.48,-116.08C481.33,-103.44 377.6,-82.94 372,-76 351.73,-50.87 397.19,-30.45 430.02,-19.57"/>
<polygon fill="midnightblue" stroke="midnightblue" points="548.04,-119.56 558.51,-117.96 549.33,-112.68 548.04,-119.56"/>
</g>
<!-- Node7 -->
<g id="node7" class="node">
<title>Node7</title>
<g id="a_node7"><a xlink:href="Optimizer_8cpp.xhtml" target="_top" xlink:title="In this file, the implementation of the Optimizer class is defined.">
<polygon fill="white" stroke="black" points="636.5,-56.5 636.5,-75.5 787.5,-75.5 787.5,-56.5 636.5,-56.5"/>
<text text-anchor="middle" x="712" y="-63.5" font-family="Helvetica,sans-Serif" font-size="10.00">src/optimizer/Optimizer.cpp</text>
</a>
</g>
</g>
<!-- Node2&#45;&gt;Node7 -->
<g id="edge8" class="edge">
<title>Node2&#45;&gt;Node7</title>
<path fill="none" stroke="midnightblue" d="M629.18,-113.06C649.88,-101.54 679.07,-85.31 696.7,-75.51"/>
<polygon fill="midnightblue" stroke="midnightblue" points="627.37,-110.06 620.33,-117.98 630.77,-116.17 627.37,-110.06"/>
</g>
<!-- Node4&#45;&gt;Node3 -->
<g id="edge5" class="edge">
<title>Node4&#45;&gt;Node3</title>
<path fill="none" stroke="midnightblue" d="M492.48,-52.77C518.59,-42.63 555.04,-28.47 578.08,-19.52"/>
<polygon fill="midnightblue" stroke="midnightblue" points="491.08,-49.56 483.02,-56.44 493.61,-56.08 491.08,-49.56"/>
</g>
<!-- Node5 -->
<g id="node5" class="node">
<title>Node5</title>
<g id="a_node5"><a xlink:href="StubController_8cpp.xhtml" target="_top" xlink:title="In this file, the implementation of the StubController class is defined.">
<polygon fill="white" stroke="black" points="228.5,-0.5 228.5,-19.5 401.5,-19.5 401.5,-0.5 228.5,-0.5"/>
<text text-anchor="middle" x="315" y="-7.5" font-family="Helvetica,sans-Serif" font-size="10.00">src/controller/StubController.cpp</text>
</a>
</g>
</g>
<!-- Node4&#45;&gt;Node5 -->
<g id="edge4" class="edge">
<title>Node4&#45;&gt;Node5</title>
<path fill="none" stroke="midnightblue" d="M428.3,-52.91C400.85,-42.75 362.33,-28.51 338.03,-19.52"/>
<polygon fill="midnightblue" stroke="midnightblue" points="427.27,-56.26 437.87,-56.44 429.7,-49.69 427.27,-56.26"/>
</g>
<!-- Node4&#45;&gt;Node6 -->
<g id="edge6" class="edge">
<title>Node4&#45;&gt;Node6</title>
<path fill="none" stroke="midnightblue" d="M460.64,-45.8C460.48,-36.91 460.29,-26.78 460.16,-19.75"/>
<polygon fill="midnightblue" stroke="midnightblue" points="457.15,-46.15 460.83,-56.08 464.15,-46.02 457.15,-46.15"/>
</g>
<!-- Node8&#45;&gt;Node3 -->
<g id="edge11" class="edge">
<title>Node8&#45;&gt;Node3</title>
<path fill="none" stroke="midnightblue" d="M337.2,-236.39C345.66,-199.65 364.72,-120.58 374,-112 432.95,-57.51 483.1,-118.83 551,-76 573.23,-61.98 589.02,-34.02 596,-19.78"/>
<polygon fill="midnightblue" stroke="midnightblue" points="333.75,-235.78 334.94,-246.31 340.58,-237.34 333.75,-235.78"/>
</g>
<!-- Node8&#45;&gt;Node5 -->
<g id="edge10" class="edge">
<title>Node8&#45;&gt;Node5</title>
<path fill="none" stroke="midnightblue" d="M331.61,-236.09C327.95,-186.57 318.21,-54.52 315.63,-19.58"/>
<polygon fill="midnightblue" stroke="midnightblue" points="328.13,-236.6 332.36,-246.32 335.11,-236.09 328.13,-236.6"/>
</g>
<!-- Node9 -->
<g id="node9" class="node">
<title>Node9</title>
<g id="a_node9"><a xlink:href="ValueMap_8cpp.xhtml" target="_top" xlink:title="In this file, the implementation of the ValueMap class is defined.">
<polygon fill="white" stroke="black" points="0,-185 0,-204 152,-204 152,-185 0,-185"/>
<text text-anchor="middle" x="76" y="-192" font-family="Helvetica,sans-Serif" font-size="10.00">src/controller/ValueMap.cpp</text>
</a>
</g>
</g>
<!-- Node8&#45;&gt;Node9 -->
<g id="edge12" class="edge">
<title>Node8&#45;&gt;Node9</title>
<path fill="none" stroke="midnightblue" d="M286.29,-244.19C236.42,-232.64 158.43,-214.58 112.75,-204.01"/>
<polygon fill="midnightblue" stroke="midnightblue" points="285.65,-247.63 296.18,-246.48 287.23,-240.81 285.65,-247.63"/>
</g>
<!-- Node10 -->
<g id="node10" class="node">
<title>Node10</title>
<g id="a_node10"><a xlink:href="DirectOptimizer_8cpp.xhtml" target="_top" xlink:title="In this file, the implementation of the DirectOptimizer class is defined.">
<polygon fill="white" stroke="black" points="170,-179.5 170,-209.5 286,-209.5 286,-179.5 170,-179.5"/>
<text text-anchor="start" x="178" y="-197.5" font-family="Helvetica,sans-Serif" font-size="10.00">src/optimizer/direct</text>
<text text-anchor="middle" x="228" y="-186.5" font-family="Helvetica,sans-Serif" font-size="10.00">/DirectOptimizer.cpp</text>
</a>
</g>
</g>
<!-- Node8&#45;&gt;Node10 -->
<g id="edge13" class="edge">
<title>Node8&#45;&gt;Node10</title>
<path fill="none" stroke="midnightblue" d="M309.25,-241.54C292.4,-231.99 269.82,-219.2 252.75,-209.52"/>
<polygon fill="midnightblue" stroke="midnightblue" points="307.53,-244.59 317.96,-246.48 310.98,-238.5 307.53,-244.59"/>
</g>
<!-- Node11 -->
<g id="node11" class="node">
<title>Node11</title>
<g id="a_node11"><a xlink:href="StatusBar_8h.xhtml" target="_top" xlink:title="In this file, the header of the StatusBar class is defined.">
<polygon fill="white" stroke="black" points="389,-185 389,-204 511,-204 511,-185 389,-185"/>
<text text-anchor="middle" x="450" y="-192" font-family="Helvetica,sans-Serif" font-size="10.00">src/status/StatusBar.h</text>
</a>
</g>
</g>
<!-- Node8&#45;&gt;Node11 -->
<g id="edge14" class="edge">
<title>Node8&#45;&gt;Node11</title>
<path fill="none" stroke="midnightblue" d="M358.83,-241.87C381.5,-230.33 413.82,-213.9 433.27,-204.01"/>
<polygon fill="midnightblue" stroke="midnightblue" points="357.09,-238.82 349.76,-246.48 360.26,-245.06 357.09,-238.82"/>
</g>
<!-- Node11&#45;&gt;Node2 -->
<g id="edge15" class="edge">
<title>Node11&#45;&gt;Node2</title>
<path fill="none" stroke="midnightblue" d="M479.93,-180.95C510.62,-168.08 557.54,-148.4 584.33,-137.17"/>
<polygon fill="midnightblue" stroke="midnightblue" points="478.45,-177.77 470.58,-184.87 481.16,-184.23 478.45,-177.77"/>
</g>
<!-- Node12 -->
<g id="node12" class="node">
<title>Node12</title>
<g id="a_node12"><a xlink:href="StatusBar_8cpp.xhtml" target="_top" xlink:title="In this file, the implementation of the StatusBar class is defined.">
<polygon fill="white" stroke="black" points="383,-118 383,-137 517,-137 517,-118 383,-118"/>
<text text-anchor="middle" x="450" y="-125" font-family="Helvetica,sans-Serif" font-size="10.00">src/status/StatusBar.cpp</text>
</a>
</g>
</g>
<!-- Node11&#45;&gt;Node12 -->
<g id="edge16" class="edge">
<title>Node11&#45;&gt;Node12</title>
<path fill="none" stroke="midnightblue" d="M450,-174.54C450,-162.17 450,-146.62 450,-137.13"/>
<polygon fill="midnightblue" stroke="midnightblue" points="446.5,-174.73 450,-184.73 453.5,-174.73 446.5,-174.73"/>
</g>
<!-- Node13&#45;&gt;Node2 -->
<g id="edge18" class="edge">
<title>Node13&#45;&gt;Node2</title>
<path fill="none" stroke="midnightblue" d="M649.9,-242.17C635.38,-235 619.88,-224.52 611,-210 596.86,-186.88 600.48,-152.89 603.23,-137.12"/>
<polygon fill="midnightblue" stroke="midnightblue" points="648.68,-245.46 659.23,-246.41 651.58,-239.09 648.68,-245.46"/>
</g>
<!-- Node14 -->
<g id="node14" class="node">
<title>Node14</title>
<g id="a_node14"><a xlink:href="PlexeSimulationRunner_8h.xhtml" target="_top" xlink:title="In this file, the header of the PlexeSimulationRunner class is defined.">
<polygon fill="white" stroke="black" points="813,-179.5 813,-209.5 989,-209.5 989,-179.5 813,-179.5"/>
<text text-anchor="start" x="821" y="-197.5" font-family="Helvetica,sans-Serif" font-size="10.00">src/runner/plexe/PlexeSimulation</text>
<text text-anchor="middle" x="901" y="-186.5" font-family="Helvetica,sans-Serif" font-size="10.00">Runner.h</text>
</a>
</g>
</g>
<!-- Node13&#45;&gt;Node14 -->
<g id="edge19" class="edge">
<title>Node13&#45;&gt;Node14</title>
<path fill="none" stroke="midnightblue" d="M725.9,-243.73C761.15,-234.02 812.2,-219.96 850.09,-209.52"/>
<polygon fill="midnightblue" stroke="midnightblue" points="724.66,-240.44 715.95,-246.48 726.52,-247.19 724.66,-240.44"/>
</g>
<!-- Node16 -->
<g id="node16" class="node">
<title>Node16</title>
<g id="a_node16"><a xlink:href="SimulationRunner_8cpp.xhtml" target="_top" xlink:title="In this file, the implementation of the SimulationRunner class is defined.">
<polygon fill="white" stroke="black" points="619.5,-185 619.5,-204 794.5,-204 794.5,-185 619.5,-185"/>
<text text-anchor="middle" x="707" y="-192" font-family="Helvetica,sans-Serif" font-size="10.00">src/runner/SimulationRunner.cpp</text>
</a>
</g>
</g>
<!-- Node13&#45;&gt;Node16 -->
<g id="edge22" class="edge">
<title>Node13&#45;&gt;Node16</title>
<path fill="none" stroke="midnightblue" d="M691.66,-237C695.7,-226.05 700.69,-212.57 703.85,-204.01"/>
<polygon fill="midnightblue" stroke="midnightblue" points="688.34,-235.88 688.15,-246.48 694.9,-238.31 688.34,-235.88"/>
</g>
<!-- Node14&#45;&gt;Node3 -->
<g id="edge20" class="edge">
<title>Node14&#45;&gt;Node3</title>
<path fill="none" stroke="midnightblue" d="M889.83,-169.97C873.79,-138.84 841.23,-84.59 797,-56 761.06,-32.76 714.63,-21.45 675.88,-15.98"/>
<polygon fill="midnightblue" stroke="midnightblue" points="886.84,-171.82 894.45,-179.2 893.1,-168.69 886.84,-171.82"/>
</g>
<!-- Node15 -->
<g id="node15" class="node">
<title>Node15</title>
<g id="a_node15"><a xlink:href="PlexeSimulationRunner_8cpp.xhtml" target="_top" xlink:title="In this file, the implementation of the PlexeSimulationRunner class is defined.">
<polygon fill="white" stroke="black" points="1004,-112.5 1004,-142.5 1180,-142.5 1180,-112.5 1004,-112.5"/>
<text text-anchor="start" x="1012" y="-130.5" font-family="Helvetica,sans-Serif" font-size="10.00">src/runner/plexe/PlexeSimulation</text>
<text text-anchor="middle" x="1092" y="-119.5" font-family="Helvetica,sans-Serif" font-size="10.00">Runner.cpp</text>
</a>
</g>
</g>
<!-- Node14&#45;&gt;Node15 -->
<g id="edge21" class="edge">
<title>Node14&#45;&gt;Node15</title>
<path fill="none" stroke="midnightblue" d="M952.15,-176.09C982.99,-165.6 1021.75,-152.41 1050.64,-142.58"/>
<polygon fill="midnightblue" stroke="midnightblue" points="950.78,-172.86 942.44,-179.4 953.04,-179.49 950.78,-172.86"/>
</g>
<!-- Node17&#45;&gt;Node14 -->
<g id="edge24" class="edge">
<title>Node17&#45;&gt;Node14</title>
<path fill="none" stroke="midnightblue" d="M975.19,-241.01C959.72,-231.52 939.34,-219.02 923.86,-209.52"/>
<polygon fill="midnightblue" stroke="midnightblue" points="973.75,-244.23 984.1,-246.48 977.41,-238.26 973.75,-244.23"/>
</g>
<!-- Node17&#45;&gt;Node15 -->
<g id="edge26" class="edge">
<title>Node17&#45;&gt;Node15</title>
<path fill="none" stroke="midnightblue" d="M1088.05,-244.97C1132.13,-238.01 1178.58,-226.89 1192,-210 1200.57,-199.21 1199.22,-190.73 1192,-179 1181.4,-161.77 1162.91,-150.21 1144.69,-142.55"/>
<polygon fill="midnightblue" stroke="midnightblue" points="1087.47,-241.52 1078.1,-246.48 1088.52,-248.44 1087.47,-241.52"/>
</g>
<!-- Node18 -->
<g id="node18" class="node">
<title>Node18</title>
<g id="a_node18"><a xlink:href="ConfigEditor_8cpp.xhtml" target="_top" xlink:title="In this file, the implementation of the ConfigEditor class is defined.">
<polygon fill="white" stroke="black" points="1007,-185 1007,-204 1183,-204 1183,-185 1007,-185"/>
<text text-anchor="middle" x="1095" y="-192" font-family="Helvetica,sans-Serif" font-size="10.00">src/runner/plexe/ConfigEditor.cpp</text>
</a>
</g>
</g>
<!-- Node17&#45;&gt;Node18 -->
<g id="edge25" class="edge">
<title>Node17&#45;&gt;Node18</title>
<path fill="none" stroke="midnightblue" d="M1020.43,-241.24C1039.16,-229.75 1065.29,-213.72 1081.13,-204.01"/>
<polygon fill="midnightblue" stroke="midnightblue" points="1018.59,-238.26 1011.9,-246.48 1022.25,-244.23 1018.59,-238.26"/>
</g>
</g>
</svg>
