<?xml version="1.0" encoding="UTF-8" standalone="no"?>
<!DOCTYPE svg PUBLIC "-//W3C//DTD SVG 1.1//EN"
 "http://www.w3.org/Graphics/SVG/1.1/DTD/svg11.dtd">
<!-- Generated by graphviz version 2.43.0 (0)
 -->
<!-- Title: src/ComparisonFunctions.h Pages: 1 -->
<svg width="203pt" height="196pt"
 viewBox="0.00 0.00 203.00 196.00" xmlns="http://www.w3.org/2000/svg" xmlns:xlink="http://www.w3.org/1999/xlink">
<g id="graph0" class="graph" transform="scale(1 1) rotate(0) translate(4 192)">
<title>src/ComparisonFunctions.h</title>
<polygon fill="white" stroke="transparent" points="-4,4 -4,-192 199,-192 199,4 -4,4"/>
<!-- Node1 -->
<g id="node1" class="node">
<title>Node1</title>
<g id="a_node1"><a xlink:title="In this file, comparison functions are defined which should be used across the whole framework.">
<polygon fill="#bfbfbf" stroke="black" points="47,-168.5 47,-187.5 195,-187.5 195,-168.5 47,-168.5"/>
<text text-anchor="middle" x="121" y="-175.5" font-family="Helvetica,sans-Serif" font-size="10.00">src/ComparisonFunctions.h</text>
</a>
</g>
</g>
<!-- Node2 -->
<g id="node2" class="node">
<title>Node2</title>
<g id="a_node2"><a xlink:href="Parameter_8h.xhtml" target="_top" xlink:title="In this file, the header of the Parameter class is defined.">
<polygon fill="white" stroke="black" points="7,-112.5 7,-131.5 141,-131.5 141,-112.5 7,-112.5"/>
<text text-anchor="middle" x="74" y="-119.5" font-family="Helvetica,sans-Serif" font-size="10.00">parameters/Parameter.h</text>
</a>
</g>
</g>
<!-- Node1&#45;&gt;Node2 -->
<g id="edge1" class="edge">
<title>Node1&#45;&gt;Node2</title>
<path fill="none" stroke="midnightblue" d="M113.24,-168.08C106.46,-160.3 96.46,-148.8 88.24,-139.37"/>
<polygon fill="midnightblue" stroke="midnightblue" points="90.82,-137 81.62,-131.75 85.54,-141.59 90.82,-137"/>
</g>
<!-- Node5 -->
<g id="node5" class="node">
<title>Node5</title>
<g id="a_node5"><a xlink:title=" ">
<polygon fill="white" stroke="#bfbfbf" points="144.5,-0.5 144.5,-19.5 191.5,-19.5 191.5,-0.5 144.5,-0.5"/>
<text text-anchor="middle" x="168" y="-7.5" font-family="Helvetica,sans-Serif" font-size="10.00">vector</text>
</a>
</g>
</g>
<!-- Node1&#45;&gt;Node5 -->
<g id="edge8" class="edge">
<title>Node1&#45;&gt;Node5</title>
<path fill="none" stroke="midnightblue" d="M128.22,-168.31C134.99,-159.66 144.83,-145.74 150,-132 162.99,-97.5 166.64,-54.15 167.64,-29.82"/>
<polygon fill="midnightblue" stroke="midnightblue" points="171.15,-29.62 167.95,-19.52 164.15,-29.41 171.15,-29.62"/>
</g>
<!-- Node3 -->
<g id="node3" class="node">
<title>Node3</title>
<g id="a_node3"><a xlink:href="Types_8h.xhtml" target="_top" xlink:title="In this file, types are defined which should be used across the whole framework.">
<polygon fill="white" stroke="black" points="42,-56.5 42,-75.5 104,-75.5 104,-56.5 42,-56.5"/>
<text text-anchor="middle" x="73" y="-63.5" font-family="Helvetica,sans-Serif" font-size="10.00">../Types.h</text>
</a>
</g>
</g>
<!-- Node2&#45;&gt;Node3 -->
<g id="edge2" class="edge">
<title>Node2&#45;&gt;Node3</title>
<path fill="none" stroke="midnightblue" d="M73.83,-112.08C73.7,-105.01 73.52,-94.86 73.35,-85.99"/>
<polygon fill="midnightblue" stroke="midnightblue" points="76.85,-85.68 73.16,-75.75 69.85,-85.81 76.85,-85.68"/>
</g>
<!-- Node4 -->
<g id="node4" class="node">
<title>Node4</title>
<g id="a_node4"><a xlink:title=" ">
<polygon fill="white" stroke="#bfbfbf" points="0,-0.5 0,-19.5 44,-19.5 44,-0.5 0,-0.5"/>
<text text-anchor="middle" x="22" y="-7.5" font-family="Helvetica,sans-Serif" font-size="10.00">string</text>
</a>
</g>
</g>
<!-- Node2&#45;&gt;Node4 -->
<g id="edge6" class="edge">
<title>Node2&#45;&gt;Node4</title>
<path fill="none" stroke="midnightblue" d="M63.05,-112.23C53.52,-103.94 40.13,-90.63 33,-76 25.95,-61.53 23.33,-43.34 22.39,-29.89"/>
<polygon fill="midnightblue" stroke="midnightblue" points="25.89,-29.72 21.95,-19.89 18.9,-30.03 25.89,-29.72"/>
</g>
<!-- Node6 -->
<g id="node6" class="node">
<title>Node6</title>
<g id="a_node6"><a xlink:title=" ">
<polygon fill="white" stroke="#bfbfbf" points="66,-0.5 66,-19.5 124,-19.5 124,-0.5 66,-0.5"/>
<text text-anchor="middle" x="95" y="-7.5" font-family="Helvetica,sans-Serif" font-size="10.00">memory</text>
</a>
</g>
</g>
<!-- Node2&#45;&gt;Node6 -->
<g id="edge7" class="edge">
<title>Node2&#45;&gt;Node6</title>
<path fill="none" stroke="midnightblue" d="M84.99,-112.37C94.45,-104.17 107.44,-90.92 113,-76 118.87,-60.26 112.51,-41.76 105.78,-28.52"/>
<polygon fill="midnightblue" stroke="midnightblue" points="108.71,-26.58 100.77,-19.56 102.6,-30 108.71,-26.58"/>
</g>
<!-- Node3&#45;&gt;Node4 -->
<g id="edge3" class="edge">
<title>Node3&#45;&gt;Node4</title>
<path fill="none" stroke="midnightblue" d="M64.58,-56.08C57.15,-48.22 46.15,-36.57 37.19,-27.08"/>
<polygon fill="midnightblue" stroke="midnightblue" points="39.68,-24.62 30.26,-19.75 34.59,-29.42 39.68,-24.62"/>
</g>
<!-- Node3&#45;&gt;Node5 -->
<g id="edge4" class="edge">
<title>Node3&#45;&gt;Node5</title>
<path fill="none" stroke="midnightblue" d="M88.26,-56.32C103.22,-47.82 126.25,-34.73 143.73,-24.8"/>
<polygon fill="midnightblue" stroke="midnightblue" points="145.81,-27.64 152.77,-19.65 142.35,-21.55 145.81,-27.64"/>
</g>
<!-- Node3&#45;&gt;Node6 -->
<g id="edge5" class="edge">
<title>Node3&#45;&gt;Node6</title>
<path fill="none" stroke="midnightblue" d="M76.63,-56.08C79.61,-48.77 83.93,-38.18 87.62,-29.1"/>
<polygon fill="midnightblue" stroke="midnightblue" points="90.9,-30.33 91.43,-19.75 84.42,-27.69 90.9,-30.33"/>
</g>
</g>
</svg>
