<?xml version="1.0" encoding="UTF-8" standalone="no"?>
<!DOCTYPE svg PUBLIC "-//W3C//DTD SVG 1.1//EN"
 "http://www.w3.org/Graphics/SVG/1.1/DTD/svg11.dtd">
<!-- Generated by graphviz version 2.43.0 (0)
 -->
<!-- Title: src/runner/plexe/ConfigEditor.h Pages: 1 -->
<svg width="518pt" height="252pt"
 viewBox="0.00 0.00 518.09 252.00" xmlns="http://www.w3.org/2000/svg" xmlns:xlink="http://www.w3.org/1999/xlink">
<g id="graph0" class="graph" transform="scale(1 1) rotate(0) translate(4 248)">
<title>src/runner/plexe/ConfigEditor.h</title>
<polygon fill="white" stroke="transparent" points="-4,4 -4,-248 514.09,-248 514.09,4 -4,4"/>
<!-- Node1 -->
<g id="node1" class="node">
<title>Node1</title>
<g id="a_node1"><a xlink:title="In this file, the header of the ConfigEditor class is defined.">
<polygon fill="#bfbfbf" stroke="black" points="147.59,-224.5 147.59,-243.5 312.59,-243.5 312.59,-224.5 147.59,-224.5"/>
<text text-anchor="middle" x="230.09" y="-231.5" font-family="Helvetica,sans-Serif" font-size="10.00">src/runner/plexe/ConfigEditor.h</text>
</a>
</g>
</g>
<!-- Node2 -->
<g id="node2" class="node">
<title>Node2</title>
<g id="a_node2"><a xlink:href="ComparisonFunctions_8h.xhtml" target="_top" xlink:title="In this file, comparison functions are defined which should be used across the whole framework.">
<polygon fill="white" stroke="black" points="53.59,-168.5 53.59,-187.5 202.59,-187.5 202.59,-168.5 53.59,-168.5"/>
<text text-anchor="middle" x="128.09" y="-175.5" font-family="Helvetica,sans-Serif" font-size="10.00">../../ComparisonFunctions.h</text>
</a>
</g>
</g>
<!-- Node1&#45;&gt;Node2 -->
<g id="edge1" class="edge">
<title>Node1&#45;&gt;Node2</title>
<path fill="none" stroke="midnightblue" d="M213.7,-224.32C197.42,-215.7 172.22,-202.36 153.37,-192.39"/>
<polygon fill="midnightblue" stroke="midnightblue" points="154.91,-189.24 144.44,-187.65 151.64,-195.43 154.91,-189.24"/>
</g>
<!-- Node5 -->
<g id="node5" class="node">
<title>Node5</title>
<g id="a_node5"><a xlink:title=" ">
<polygon fill="white" stroke="#bfbfbf" points="78.09,-0.5 78.09,-19.5 122.09,-19.5 122.09,-0.5 78.09,-0.5"/>
<text text-anchor="middle" x="100.09" y="-7.5" font-family="Helvetica,sans-Serif" font-size="10.00">string</text>
</a>
</g>
</g>
<!-- Node1&#45;&gt;Node5 -->
<g id="edge12" class="edge">
<title>Node1&#45;&gt;Node5</title>
<path fill="none" stroke="midnightblue" d="M147.19,-229.17C112.01,-223.74 72.64,-212.13 44.09,-188 17.03,-165.14 10.32,-146.05 20.09,-112 30.39,-76.09 61.29,-44.05 81.54,-26.12"/>
<polygon fill="midnightblue" stroke="midnightblue" points="83.9,-28.7 89.22,-19.53 79.35,-23.38 83.9,-28.7"/>
</g>
<!-- Node6 -->
<g id="node6" class="node">
<title>Node6</title>
<g id="a_node6"><a xlink:title=" ">
<polygon fill="white" stroke="#bfbfbf" points="168.59,-0.5 168.59,-19.5 215.59,-19.5 215.59,-0.5 168.59,-0.5"/>
<text text-anchor="middle" x="192.09" y="-7.5" font-family="Helvetica,sans-Serif" font-size="10.00">vector</text>
</a>
</g>
</g>
<!-- Node1&#45;&gt;Node6 -->
<g id="edge13" class="edge">
<title>Node1&#45;&gt;Node6</title>
<path fill="none" stroke="midnightblue" d="M229.19,-224.47C226.4,-198.81 217.32,-120.19 204.09,-56 202.27,-47.18 199.76,-37.52 197.51,-29.41"/>
<polygon fill="midnightblue" stroke="midnightblue" points="200.81,-28.21 194.69,-19.56 194.08,-30.13 200.81,-28.21"/>
</g>
<!-- Node7 -->
<g id="node7" class="node">
<title>Node7</title>
<g id="a_node7"><a xlink:title=" ">
<polygon fill="white" stroke="#bfbfbf" points="2.09,-0.5 2.09,-19.5 60.09,-19.5 60.09,-0.5 2.09,-0.5"/>
<text text-anchor="middle" x="31.09" y="-7.5" font-family="Helvetica,sans-Serif" font-size="10.00">memory</text>
</a>
</g>
</g>
<!-- Node1&#45;&gt;Node7 -->
<g id="edge11" class="edge">
<title>Node1&#45;&gt;Node7</title>
<path fill="none" stroke="midnightblue" d="M147.5,-224.66C97.21,-217.84 39.4,-206.27 22.09,-188 -19.13,-144.5 7.58,-64.73 22.72,-29.07"/>
<polygon fill="midnightblue" stroke="midnightblue" points="25.94,-30.43 26.79,-19.87 19.54,-27.6 25.94,-30.43"/>
</g>
<!-- Node8 -->
<g id="node8" class="node">
<title>Node8</title>
<g id="a_node8"><a xlink:title=" ">
<polygon fill="white" stroke="#bfbfbf" points="258.09,-168.5 258.09,-187.5 368.09,-187.5 368.09,-168.5 258.09,-168.5"/>
<text text-anchor="middle" x="313.09" y="-175.5" font-family="Helvetica,sans-Serif" font-size="10.00">nlohmann/json.hpp</text>
</a>
</g>
</g>
<!-- Node1&#45;&gt;Node8 -->
<g id="edge10" class="edge">
<title>Node1&#45;&gt;Node8</title>
<path fill="none" stroke="midnightblue" d="M243.43,-224.32C256.25,-215.98 275.87,-203.21 291.03,-193.35"/>
<polygon fill="midnightblue" stroke="midnightblue" points="293.31,-196.04 299.79,-187.65 289.5,-190.17 293.31,-196.04"/>
</g>
<!-- Node9 -->
<g id="node9" class="node">
<title>Node9</title>
<g id="a_node9"><a xlink:title=" ">
<polygon fill="white" stroke="#bfbfbf" points="386.09,-168.5 386.09,-187.5 424.09,-187.5 424.09,-168.5 386.09,-168.5"/>
<text text-anchor="middle" x="405.09" y="-175.5" font-family="Helvetica,sans-Serif" font-size="10.00">map</text>
</a>
</g>
</g>
<!-- Node1&#45;&gt;Node9 -->
<g id="edge14" class="edge">
<title>Node1&#45;&gt;Node9</title>
<path fill="none" stroke="midnightblue" d="M258.31,-224.49C286.02,-216.1 329.74,-202.8 376.19,-188.26"/>
<polygon fill="midnightblue" stroke="midnightblue" points="377.33,-191.57 385.82,-185.23 375.23,-184.89 377.33,-191.57"/>
</g>
<!-- Node10 -->
<g id="node10" class="node">
<title>Node10</title>
<g id="a_node10"><a xlink:title=" ">
<polygon fill="white" stroke="#bfbfbf" points="442.09,-168.5 442.09,-187.5 510.09,-187.5 510.09,-168.5 442.09,-168.5"/>
<text text-anchor="middle" x="476.09" y="-175.5" font-family="Helvetica,sans-Serif" font-size="10.00">filesystem</text>
</a>
</g>
</g>
<!-- Node1&#45;&gt;Node10 -->
<g id="edge15" class="edge">
<title>Node1&#45;&gt;Node10</title>
<path fill="none" stroke="midnightblue" d="M269.07,-224.44C313.4,-214.71 385.64,-198.86 432,-188.68"/>
<polygon fill="midnightblue" stroke="midnightblue" points="433.03,-192.04 442.05,-186.47 431.53,-185.2 433.03,-192.04"/>
</g>
<!-- Node3 -->
<g id="node3" class="node">
<title>Node3</title>
<g id="a_node3"><a xlink:href="Parameter_8h.xhtml" target="_top" xlink:title="In this file, the header of the Parameter class is defined.">
<polygon fill="white" stroke="black" points="29.09,-112.5 29.09,-131.5 163.09,-131.5 163.09,-112.5 29.09,-112.5"/>
<text text-anchor="middle" x="96.09" y="-119.5" font-family="Helvetica,sans-Serif" font-size="10.00">parameters/Parameter.h</text>
</a>
</g>
</g>
<!-- Node2&#45;&gt;Node3 -->
<g id="edge2" class="edge">
<title>Node2&#45;&gt;Node3</title>
<path fill="none" stroke="midnightblue" d="M122.81,-168.08C118.38,-160.61 111.93,-149.72 106.47,-140.52"/>
<polygon fill="midnightblue" stroke="midnightblue" points="109.38,-138.57 101.28,-131.75 103.36,-142.14 109.38,-138.57"/>
</g>
<!-- Node2&#45;&gt;Node6 -->
<g id="edge9" class="edge">
<title>Node2&#45;&gt;Node6</title>
<path fill="none" stroke="midnightblue" d="M139.86,-168.41C150.11,-160.25 164.48,-147.01 172.09,-132 188.87,-98.88 192.07,-54.74 192.4,-29.96"/>
<polygon fill="midnightblue" stroke="midnightblue" points="195.9,-29.75 192.39,-19.76 188.9,-29.76 195.9,-29.75"/>
</g>
<!-- Node4 -->
<g id="node4" class="node">
<title>Node4</title>
<g id="a_node4"><a xlink:href="Types_8h.xhtml" target="_top" xlink:title="In this file, types are defined which should be used across the whole framework.">
<polygon fill="white" stroke="black" points="64.09,-56.5 64.09,-75.5 126.09,-75.5 126.09,-56.5 64.09,-56.5"/>
<text text-anchor="middle" x="95.09" y="-63.5" font-family="Helvetica,sans-Serif" font-size="10.00">../Types.h</text>
</a>
</g>
</g>
<!-- Node3&#45;&gt;Node4 -->
<g id="edge3" class="edge">
<title>Node3&#45;&gt;Node4</title>
<path fill="none" stroke="midnightblue" d="M95.92,-112.08C95.79,-105.01 95.61,-94.86 95.44,-85.99"/>
<polygon fill="midnightblue" stroke="midnightblue" points="98.94,-85.68 95.25,-75.75 91.94,-85.81 98.94,-85.68"/>
</g>
<!-- Node3&#45;&gt;Node5 -->
<g id="edge7" class="edge">
<title>Node3&#45;&gt;Node5</title>
<path fill="none" stroke="midnightblue" d="M107.08,-112.37C116.54,-104.17 129.53,-90.92 135.09,-76 141.62,-58.5 129.37,-39.86 117.61,-27.04"/>
<polygon fill="midnightblue" stroke="midnightblue" points="120.04,-24.53 110.52,-19.88 115.06,-29.45 120.04,-24.53"/>
</g>
<!-- Node3&#45;&gt;Node7 -->
<g id="edge8" class="edge">
<title>Node3&#45;&gt;Node7</title>
<path fill="none" stroke="midnightblue" d="M86.13,-112.21C77.01,-103.72 63.66,-90.09 55.09,-76 46.3,-61.55 39.93,-43.36 35.96,-29.9"/>
<polygon fill="midnightblue" stroke="midnightblue" points="39.24,-28.6 33.21,-19.89 32.49,-30.46 39.24,-28.6"/>
</g>
<!-- Node4&#45;&gt;Node5 -->
<g id="edge4" class="edge">
<title>Node4&#45;&gt;Node5</title>
<path fill="none" stroke="midnightblue" d="M95.92,-56.08C96.57,-49.01 97.51,-38.86 98.33,-29.99"/>
<polygon fill="midnightblue" stroke="midnightblue" points="101.84,-30.03 99.28,-19.75 94.87,-29.39 101.84,-30.03"/>
</g>
<!-- Node4&#45;&gt;Node6 -->
<g id="edge5" class="edge">
<title>Node4&#45;&gt;Node6</title>
<path fill="none" stroke="midnightblue" d="M110.67,-56.32C126.09,-47.74 149.9,-34.49 167.8,-24.52"/>
<polygon fill="midnightblue" stroke="midnightblue" points="169.51,-27.58 176.54,-19.65 166.1,-21.46 169.51,-27.58"/>
</g>
<!-- Node4&#45;&gt;Node7 -->
<g id="edge6" class="edge">
<title>Node4&#45;&gt;Node7</title>
<path fill="none" stroke="midnightblue" d="M84.81,-56.32C75.25,-48.26 60.81,-36.08 49.31,-26.37"/>
<polygon fill="midnightblue" stroke="midnightblue" points="51.46,-23.61 41.56,-19.83 46.95,-28.96 51.46,-23.61"/>
</g>
</g>
</svg>
