<?xml version="1.0" encoding="UTF-8" standalone="no"?>
<!DOCTYPE svg PUBLIC "-//W3C//DTD SVG 1.1//EN"
 "http://www.w3.org/Graphics/SVG/1.1/DTD/svg11.dtd">
<!-- Generated by graphviz version 2.43.0 (0)
 -->
<!-- Title: /home/runner/work/Simopticon/Simopticon/src/runner/plexe/ConfigEditor.h Pages: 1 -->
<svg width="517pt" height="274pt"
 viewBox="0.00 0.00 517.45 274.00" xmlns="http://www.w3.org/2000/svg" xmlns:xlink="http://www.w3.org/1999/xlink">
<g id="graph0" class="graph" transform="scale(1 1) rotate(0) translate(4 270)">
<title>/home/runner/work/Simopticon/Simopticon/src/runner/plexe/ConfigEditor.h</title>
<polygon fill="white" stroke="transparent" points="-4,4 -4,-270 513.45,-270 513.45,4 -4,4"/>
<!-- Node1 -->
<g id="node1" class="node">
<title>Node1</title>
<g id="a_node1"><a xlink:title="In this file, the header of the ConfigEditor class is defined.">
<polygon fill="#bfbfbf" stroke="black" points="145.95,-224.5 145.95,-265.5 312.95,-265.5 312.95,-224.5 145.95,-224.5"/>
<text text-anchor="start" x="153.95" y="-253.5" font-family="Helvetica,sans-Serif" font-size="10.00">/home/runner/work/Simopticon</text>
<text text-anchor="start" x="153.95" y="-242.5" font-family="Helvetica,sans-Serif" font-size="10.00">/Simopticon/src/runner/plexe</text>
<text text-anchor="middle" x="229.45" y="-231.5" font-family="Helvetica,sans-Serif" font-size="10.00">/ConfigEditor.h</text>
</a>
</g>
</g>
<!-- Node2 -->
<g id="node2" class="node">
<title>Node2</title>
<g id="a_node2"><a xlink:href="ComparisonFunctions_8h.xhtml" target="_top" xlink:title="In this file, comparison functions are defined which should be used across the whole framework.">
<polygon fill="white" stroke="black" points="52.95,-168.5 52.95,-187.5 201.95,-187.5 201.95,-168.5 52.95,-168.5"/>
<text text-anchor="middle" x="127.45" y="-175.5" font-family="Helvetica,sans-Serif" font-size="10.00">../../ComparisonFunctions.h</text>
</a>
</g>
</g>
<!-- Node1&#45;&gt;Node2 -->
<g id="edge1" class="edge">
<title>Node1&#45;&gt;Node2</title>
<path fill="none" stroke="midnightblue" d="M198.85,-224.5C183.06,-214.44 164.15,-202.38 149.76,-193.21"/>
<polygon fill="midnightblue" stroke="midnightblue" points="151.34,-190.08 141.03,-187.65 147.58,-195.98 151.34,-190.08"/>
</g>
<!-- Node5 -->
<g id="node5" class="node">
<title>Node5</title>
<g id="a_node5"><a xlink:title=" ">
<polygon fill="white" stroke="#bfbfbf" points="77.45,-0.5 77.45,-19.5 121.45,-19.5 121.45,-0.5 77.45,-0.5"/>
<text text-anchor="middle" x="99.45" y="-7.5" font-family="Helvetica,sans-Serif" font-size="10.00">string</text>
</a>
</g>
</g>
<!-- Node1&#45;&gt;Node5 -->
<g id="edge12" class="edge">
<title>Node1&#45;&gt;Node5</title>
<path fill="none" stroke="midnightblue" d="M145.84,-234.66C110.74,-227.03 71.62,-213.16 43.45,-188 17.04,-164.4 9.69,-146.05 19.45,-112 29.75,-76.09 60.65,-44.05 80.9,-26.12"/>
<polygon fill="midnightblue" stroke="midnightblue" points="83.26,-28.7 88.58,-19.53 78.71,-23.38 83.26,-28.7"/>
</g>
<!-- Node6 -->
<g id="node6" class="node">
<title>Node6</title>
<g id="a_node6"><a xlink:title=" ">
<polygon fill="white" stroke="#bfbfbf" points="167.95,-0.5 167.95,-19.5 214.95,-19.5 214.95,-0.5 167.95,-0.5"/>
<text text-anchor="middle" x="191.45" y="-7.5" font-family="Helvetica,sans-Serif" font-size="10.00">vector</text>
</a>
</g>
</g>
<!-- Node1&#45;&gt;Node6 -->
<g id="edge13" class="edge">
<title>Node1&#45;&gt;Node6</title>
<path fill="none" stroke="midnightblue" d="M227.54,-224.38C224.02,-190.04 215.73,-116.88 203.45,-56 201.67,-47.17 199.17,-37.51 196.91,-29.41"/>
<polygon fill="midnightblue" stroke="midnightblue" points="200.2,-28.19 194.07,-19.55 193.48,-30.13 200.2,-28.19"/>
</g>
<!-- Node7 -->
<g id="node7" class="node">
<title>Node7</title>
<g id="a_node7"><a xlink:title=" ">
<polygon fill="white" stroke="#bfbfbf" points="1.45,-0.5 1.45,-19.5 59.45,-19.5 59.45,-0.5 1.45,-0.5"/>
<text text-anchor="middle" x="30.45" y="-7.5" font-family="Helvetica,sans-Serif" font-size="10.00">memory</text>
</a>
</g>
</g>
<!-- Node1&#45;&gt;Node7 -->
<g id="edge11" class="edge">
<title>Node1&#45;&gt;Node7</title>
<path fill="none" stroke="midnightblue" d="M145.86,-230.97C95.69,-221.41 38.42,-206.82 21.45,-188 -18.5,-143.68 7.25,-64.93 22.08,-29.35"/>
<polygon fill="midnightblue" stroke="midnightblue" points="25.46,-30.35 26.24,-19.78 19.04,-27.55 25.46,-30.35"/>
</g>
<!-- Node8 -->
<g id="node8" class="node">
<title>Node8</title>
<g id="a_node8"><a xlink:title=" ">
<polygon fill="white" stroke="#bfbfbf" points="257.45,-168.5 257.45,-187.5 367.45,-187.5 367.45,-168.5 257.45,-168.5"/>
<text text-anchor="middle" x="312.45" y="-175.5" font-family="Helvetica,sans-Serif" font-size="10.00">nlohmann/json.hpp</text>
</a>
</g>
</g>
<!-- Node1&#45;&gt;Node8 -->
<g id="edge10" class="edge">
<title>Node1&#45;&gt;Node8</title>
<path fill="none" stroke="midnightblue" d="M254.35,-224.5C266.84,-214.72 281.71,-203.07 293.29,-194.01"/>
<polygon fill="midnightblue" stroke="midnightblue" points="295.69,-196.57 301.4,-187.65 291.37,-191.06 295.69,-196.57"/>
</g>
<!-- Node9 -->
<g id="node9" class="node">
<title>Node9</title>
<g id="a_node9"><a xlink:title=" ">
<polygon fill="white" stroke="#bfbfbf" points="385.45,-168.5 385.45,-187.5 423.45,-187.5 423.45,-168.5 385.45,-168.5"/>
<text text-anchor="middle" x="404.45" y="-175.5" font-family="Helvetica,sans-Serif" font-size="10.00">map</text>
</a>
</g>
</g>
<!-- Node1&#45;&gt;Node9 -->
<g id="edge14" class="edge">
<title>Node1&#45;&gt;Node9</title>
<path fill="none" stroke="midnightblue" d="M281.96,-224.5C312.71,-213.08 350.37,-199.09 375.75,-189.66"/>
<polygon fill="midnightblue" stroke="midnightblue" points="377,-192.93 385.16,-186.17 374.56,-186.37 377,-192.93"/>
</g>
<!-- Node10 -->
<g id="node10" class="node">
<title>Node10</title>
<g id="a_node10"><a xlink:title=" ">
<polygon fill="white" stroke="#bfbfbf" points="441.45,-168.5 441.45,-187.5 509.45,-187.5 509.45,-168.5 441.45,-168.5"/>
<text text-anchor="middle" x="475.45" y="-175.5" font-family="Helvetica,sans-Serif" font-size="10.00">filesystem</text>
</a>
</g>
</g>
<!-- Node1&#45;&gt;Node10 -->
<g id="edge15" class="edge">
<title>Node1&#45;&gt;Node10</title>
<path fill="none" stroke="midnightblue" d="M303.26,-224.5C345.64,-213.3 397.34,-199.64 432.97,-190.22"/>
<polygon fill="midnightblue" stroke="midnightblue" points="434.25,-193.51 443.03,-187.57 432.47,-186.74 434.25,-193.51"/>
</g>
<!-- Node3 -->
<g id="node3" class="node">
<title>Node3</title>
<g id="a_node3"><a xlink:href="Parameter_8h.xhtml" target="_top" xlink:title="In this file, the header of the Parameter class is defined.">
<polygon fill="white" stroke="black" points="28.45,-112.5 28.45,-131.5 162.45,-131.5 162.45,-112.5 28.45,-112.5"/>
<text text-anchor="middle" x="95.45" y="-119.5" font-family="Helvetica,sans-Serif" font-size="10.00">parameters/Parameter.h</text>
</a>
</g>
</g>
<!-- Node2&#45;&gt;Node3 -->
<g id="edge2" class="edge">
<title>Node2&#45;&gt;Node3</title>
<path fill="none" stroke="midnightblue" d="M122.17,-168.08C117.74,-160.61 111.29,-149.72 105.83,-140.52"/>
<polygon fill="midnightblue" stroke="midnightblue" points="108.75,-138.57 100.64,-131.75 102.72,-142.14 108.75,-138.57"/>
</g>
<!-- Node2&#45;&gt;Node6 -->
<g id="edge9" class="edge">
<title>Node2&#45;&gt;Node6</title>
<path fill="none" stroke="midnightblue" d="M139.22,-168.41C149.47,-160.25 163.85,-147.01 171.45,-132 188.23,-98.88 191.43,-54.74 191.77,-29.96"/>
<polygon fill="midnightblue" stroke="midnightblue" points="195.27,-29.75 191.75,-19.76 188.27,-29.76 195.27,-29.75"/>
</g>
<!-- Node4 -->
<g id="node4" class="node">
<title>Node4</title>
<g id="a_node4"><a xlink:href="Types_8h.xhtml" target="_top" xlink:title="In this file, types are defined which should be used across the whole framework.">
<polygon fill="white" stroke="black" points="63.45,-56.5 63.45,-75.5 125.45,-75.5 125.45,-56.5 63.45,-56.5"/>
<text text-anchor="middle" x="94.45" y="-63.5" font-family="Helvetica,sans-Serif" font-size="10.00">../Types.h</text>
</a>
</g>
</g>
<!-- Node3&#45;&gt;Node4 -->
<g id="edge3" class="edge">
<title>Node3&#45;&gt;Node4</title>
<path fill="none" stroke="midnightblue" d="M95.29,-112.08C95.16,-105.01 94.97,-94.86 94.8,-85.99"/>
<polygon fill="midnightblue" stroke="midnightblue" points="98.3,-85.68 94.61,-75.75 91.3,-85.81 98.3,-85.68"/>
</g>
<!-- Node3&#45;&gt;Node5 -->
<g id="edge7" class="edge">
<title>Node3&#45;&gt;Node5</title>
<path fill="none" stroke="midnightblue" d="M106.44,-112.37C115.9,-104.17 128.89,-90.92 134.45,-76 140.98,-58.5 128.73,-39.86 116.97,-27.04"/>
<polygon fill="midnightblue" stroke="midnightblue" points="119.4,-24.53 109.88,-19.88 114.43,-29.45 119.4,-24.53"/>
</g>
<!-- Node3&#45;&gt;Node7 -->
<g id="edge8" class="edge">
<title>Node3&#45;&gt;Node7</title>
<path fill="none" stroke="midnightblue" d="M85.49,-112.21C76.37,-103.72 63.02,-90.09 54.45,-76 45.66,-61.55 39.29,-43.36 35.33,-29.9"/>
<polygon fill="midnightblue" stroke="midnightblue" points="38.6,-28.6 32.57,-19.89 31.85,-30.46 38.6,-28.6"/>
</g>
<!-- Node4&#45;&gt;Node5 -->
<g id="edge4" class="edge">
<title>Node4&#45;&gt;Node5</title>
<path fill="none" stroke="midnightblue" d="M95.28,-56.08C95.93,-49.01 96.87,-38.86 97.69,-29.99"/>
<polygon fill="midnightblue" stroke="midnightblue" points="101.2,-30.03 98.64,-19.75 94.23,-29.39 101.2,-30.03"/>
</g>
<!-- Node4&#45;&gt;Node6 -->
<g id="edge5" class="edge">
<title>Node4&#45;&gt;Node6</title>
<path fill="none" stroke="midnightblue" d="M110.04,-56.32C125.45,-47.74 149.26,-34.49 167.16,-24.52"/>
<polygon fill="midnightblue" stroke="midnightblue" points="168.87,-27.58 175.91,-19.65 165.47,-21.46 168.87,-27.58"/>
</g>
<!-- Node4&#45;&gt;Node7 -->
<g id="edge6" class="edge">
<title>Node4&#45;&gt;Node7</title>
<path fill="none" stroke="midnightblue" d="M84.17,-56.32C74.62,-48.26 60.17,-36.08 48.67,-26.37"/>
<polygon fill="midnightblue" stroke="midnightblue" points="50.82,-23.61 40.92,-19.83 46.31,-28.96 50.82,-23.61"/>
</g>
</g>
</svg>
