<?xml version="1.0" encoding="UTF-8" standalone="no"?>
<!DOCTYPE svg PUBLIC "-//W3C//DTD SVG 1.1//EN"
 "http://www.w3.org/Graphics/SVG/1.1/DTD/svg11.dtd">
<!-- Generated by graphviz version 2.43.0 (0)
 -->
<!-- Title: src/runner/plexe/ConfigEditor.cpp Pages: 1 -->
<!--zoomable 308 -->
<svg id="main" version="1.1" xmlns="http://www.w3.org/2000/svg" xmlns:xlink="http://www.w3.org/1999/xlink" xml:space="preserve" onload="init(evt)">
<style type="text/css"><![CDATA[
.edge:hover path { stroke: red; }
.edge:hover polygon { stroke: red; fill: red; }
]]></style>
<script type="text/javascript"><![CDATA[
var edges = document.getElementsByTagName('g');
if (edges && edges.length) {
  for (var i=0;i<edges.length;i++) {
    if (edges[i].id.substr(0,4)=='edge') {
      edges[i].setAttribute('class','edge');
    }
  }
}
]]></script>
        <defs>
                <circle id="rim" cx="0" cy="0" r="7"/>
                <circle id="rim2" cx="0" cy="0" r="3.5"/>
                <g id="zoomPlus">
                        <use xlink:href="#rim" fill="#404040">
                                <set attributeName="fill" to="#808080" begin="zoomplus.mouseover" end="zoomplus.mouseout"/>
                        </use>
                        <path d="M-4,0h8M0,-4v8" fill="none" stroke="white" stroke-width="1.5" pointer-events="none"/>
                </g>
                <g id="zoomMin">
                        <use xlink:href="#rim" fill="#404040">
                                <set attributeName="fill" to="#808080" begin="zoomminus.mouseover" end="zoomminus.mouseout"/>
                        </use>
                        <path d="M-4,0h8" fill="none" stroke="white" stroke-width="1.5" pointer-events="none"/>
                </g>
                <g id="dirArrow">
                        <path fill="none" stroke="white" stroke-width="1.5" d="M0,-3.0v7 M-2.5,-0.5L0,-3.0L2.5,-0.5"/>
                </g>
               <g id="resetDef">
                       <use xlink:href="#rim2" fill="#404040">
                               <set attributeName="fill" to="#808080" begin="reset.mouseover" end="reset.mouseout"/>
                       </use>
               </g>
        </defs>

<script type="text/javascript">
var viewWidth = 518;
var viewHeight = 308;
var sectionId = 'dynsection-0';
</script>
<script xlink:href="svgpan.js"/>
<svg id="graph" class="graph">
<g id="viewport">
<title>src/runner/plexe/ConfigEditor.cpp</title>
<polygon fill="white" stroke="transparent" points="-4,4 -4,-304 514.09,-304 514.09,4 -4,4"/>
<!-- Node1 -->
<g id="node1" class="node">
<title>Node1</title>
<g id="a_node1"><a xlink:title="In this file, the implementation of the ConfigEditor class is defined.">
<polygon fill="#bfbfbf" stroke="black" points="230.09,-280.5 230.09,-299.5 406.09,-299.5 406.09,-280.5 230.09,-280.5"/>
<text text-anchor="middle" x="318.09" y="-287.5" font-family="Helvetica,sans-Serif" font-size="10.00">src/runner/plexe/ConfigEditor.cpp</text>
</a>
</g>
</g>
<!-- Node2 -->
<g id="node2" class="node">
<title>Node2</title>
<g id="a_node2"><a xlink:href="ConfigEditor_8h.xhtml" target="_top" xlink:title="In this file, the header of the ConfigEditor class is defined.">
<polygon fill="white" stroke="black" points="188.09,-224.5 188.09,-243.5 272.09,-243.5 272.09,-224.5 188.09,-224.5"/>
<text text-anchor="middle" x="230.09" y="-231.5" font-family="Helvetica,sans-Serif" font-size="10.00">ConfigEditor.h</text>
</a>
</g>
</g>
<!-- Node1&#45;&gt;Node2 -->
<g id="edge1" class="edge">
<title>Node1&#45;&gt;Node2</title>
<path fill="none" stroke="midnightblue" d="M303.95,-280.32C290.22,-271.9 269.15,-258.97 253.03,-249.07"/>
<polygon fill="midnightblue" stroke="midnightblue" points="254.55,-245.9 244.19,-243.65 250.89,-251.87 254.55,-245.9"/>
</g>
<!-- Node12 -->
<g id="node12" class="node">
<title>Node12</title>
<g id="a_node12"><a xlink:title=" ">
<polygon fill="white" stroke="#bfbfbf" points="290.59,-224.5 290.59,-243.5 345.59,-243.5 345.59,-224.5 290.59,-224.5"/>
<text text-anchor="middle" x="318.09" y="-231.5" font-family="Helvetica,sans-Serif" font-size="10.00">fstream</text>
</a>
</g>
</g>
<!-- Node1&#45;&gt;Node12 -->
<g id="edge17" class="edge">
<title>Node1&#45;&gt;Node12</title>
<path fill="none" stroke="midnightblue" d="M318.09,-280.08C318.09,-273.01 318.09,-262.86 318.09,-253.99"/>
<polygon fill="midnightblue" stroke="midnightblue" points="321.59,-253.75 318.09,-243.75 314.59,-253.75 321.59,-253.75"/>
</g>
<!-- Node13 -->
<g id="node13" class="node">
<title>Node13</title>
<g id="a_node13"><a xlink:title=" ">
<polygon fill="white" stroke="#bfbfbf" points="363.59,-224.5 363.59,-243.5 408.59,-243.5 408.59,-224.5 363.59,-224.5"/>
<text text-anchor="middle" x="386.09" y="-231.5" font-family="Helvetica,sans-Serif" font-size="10.00">utility</text>
</a>
</g>
</g>
<!-- Node1&#45;&gt;Node13 -->
<g id="edge18" class="edge">
<title>Node1&#45;&gt;Node13</title>
<path fill="none" stroke="midnightblue" d="M329.02,-280.32C339.26,-272.18 354.81,-259.84 367.09,-250.09"/>
<polygon fill="midnightblue" stroke="midnightblue" points="369.31,-252.79 374.97,-243.83 364.96,-247.31 369.31,-252.79"/>
</g>
<!-- Node3 -->
<g id="node3" class="node">
<title>Node3</title>
<g id="a_node3"><a xlink:href="ComparisonFunctions_8h.xhtml" target="_top" xlink:title="In this file, comparison functions are defined which should be used across the whole framework.">
<polygon fill="white" stroke="black" points="53.59,-168.5 53.59,-187.5 202.59,-187.5 202.59,-168.5 53.59,-168.5"/>
<text text-anchor="middle" x="128.09" y="-175.5" font-family="Helvetica,sans-Serif" font-size="10.00">../../ComparisonFunctions.h</text>
</a>
</g>
</g>
<!-- Node2&#45;&gt;Node3 -->
<g id="edge2" class="edge">
<title>Node2&#45;&gt;Node3</title>
<path fill="none" stroke="midnightblue" d="M213.7,-224.32C197.42,-215.7 172.22,-202.36 153.37,-192.39"/>
<polygon fill="midnightblue" stroke="midnightblue" points="154.91,-189.24 144.44,-187.65 151.64,-195.43 154.91,-189.24"/>
</g>
<!-- Node6 -->
<g id="node6" class="node">
<title>Node6</title>
<g id="a_node6"><a xlink:title=" ">
<polygon fill="white" stroke="#bfbfbf" points="78.09,-0.5 78.09,-19.5 122.09,-19.5 122.09,-0.5 78.09,-0.5"/>
<text text-anchor="middle" x="100.09" y="-7.5" font-family="Helvetica,sans-Serif" font-size="10.00">string</text>
</a>
</g>
</g>
<!-- Node2&#45;&gt;Node6 -->
<g id="edge13" class="edge">
<title>Node2&#45;&gt;Node6</title>
<path fill="none" stroke="midnightblue" d="M187.98,-233.22C146.81,-231.26 84.56,-222.2 44.09,-188 17.03,-165.14 10.32,-146.05 20.09,-112 30.39,-76.09 61.29,-44.05 81.54,-26.12"/>
<polygon fill="midnightblue" stroke="midnightblue" points="83.9,-28.7 89.22,-19.53 79.35,-23.38 83.9,-28.7"/>
</g>
<!-- Node7 -->
<g id="node7" class="node">
<title>Node7</title>
<g id="a_node7"><a xlink:title=" ">
<polygon fill="white" stroke="#bfbfbf" points="168.59,-0.5 168.59,-19.5 215.59,-19.5 215.59,-0.5 168.59,-0.5"/>
<text text-anchor="middle" x="192.09" y="-7.5" font-family="Helvetica,sans-Serif" font-size="10.00">vector</text>
</a>
</g>
</g>
<!-- Node2&#45;&gt;Node7 -->
<g id="edge14" class="edge">
<title>Node2&#45;&gt;Node7</title>
<path fill="none" stroke="midnightblue" d="M229.19,-224.47C226.4,-198.81 217.32,-120.19 204.09,-56 202.27,-47.18 199.76,-37.52 197.51,-29.41"/>
<polygon fill="midnightblue" stroke="midnightblue" points="200.81,-28.21 194.69,-19.56 194.08,-30.13 200.81,-28.21"/>
</g>
<!-- Node8 -->
<g id="node8" class="node">
<title>Node8</title>
<g id="a_node8"><a xlink:title=" ">
<polygon fill="white" stroke="#bfbfbf" points="2.09,-0.5 2.09,-19.5 60.09,-19.5 60.09,-0.5 2.09,-0.5"/>
<text text-anchor="middle" x="31.09" y="-7.5" font-family="Helvetica,sans-Serif" font-size="10.00">memory</text>
</a>
</g>
</g>
<!-- Node2&#45;&gt;Node8 -->
<g id="edge12" class="edge">
<title>Node2&#45;&gt;Node8</title>
<path fill="none" stroke="midnightblue" d="M187.94,-229.43C133.87,-223.95 44.39,-211.53 22.09,-188 -19.13,-144.5 7.58,-64.73 22.72,-29.07"/>
<polygon fill="midnightblue" stroke="midnightblue" points="25.94,-30.43 26.79,-19.87 19.54,-27.6 25.94,-30.43"/>
</g>
<!-- Node9 -->
<g id="node9" class="node">
<title>Node9</title>
<g id="a_node9"><a xlink:title=" ">
<polygon fill="white" stroke="#bfbfbf" points="258.09,-168.5 258.09,-187.5 368.09,-187.5 368.09,-168.5 258.09,-168.5"/>
<text text-anchor="middle" x="313.09" y="-175.5" font-family="Helvetica,sans-Serif" font-size="10.00">nlohmann/json.hpp</text>
</a>
</g>
</g>
<!-- Node2&#45;&gt;Node9 -->
<g id="edge11" class="edge">
<title>Node2&#45;&gt;Node9</title>
<path fill="none" stroke="midnightblue" d="M243.43,-224.32C256.25,-215.98 275.87,-203.21 291.03,-193.35"/>
<polygon fill="midnightblue" stroke="midnightblue" points="293.31,-196.04 299.79,-187.65 289.5,-190.17 293.31,-196.04"/>
</g>
<!-- Node10 -->
<g id="node10" class="node">
<title>Node10</title>
<g id="a_node10"><a xlink:title=" ">
<polygon fill="white" stroke="#bfbfbf" points="386.09,-168.5 386.09,-187.5 424.09,-187.5 424.09,-168.5 386.09,-168.5"/>
<text text-anchor="middle" x="405.09" y="-175.5" font-family="Helvetica,sans-Serif" font-size="10.00">map</text>
</a>
</g>
</g>
<!-- Node2&#45;&gt;Node10 -->
<g id="edge15" class="edge">
<title>Node2&#45;&gt;Node10</title>
<path fill="none" stroke="midnightblue" d="M258.31,-224.49C286.02,-216.1 329.74,-202.8 376.19,-188.26"/>
<polygon fill="midnightblue" stroke="midnightblue" points="377.33,-191.57 385.82,-185.23 375.23,-184.89 377.33,-191.57"/>
</g>
<!-- Node11 -->
<g id="node11" class="node">
<title>Node11</title>
<g id="a_node11"><a xlink:title=" ">
<polygon fill="white" stroke="#bfbfbf" points="442.09,-168.5 442.09,-187.5 510.09,-187.5 510.09,-168.5 442.09,-168.5"/>
<text text-anchor="middle" x="476.09" y="-175.5" font-family="Helvetica,sans-Serif" font-size="10.00">filesystem</text>
</a>
</g>
</g>
<!-- Node2&#45;&gt;Node11 -->
<g id="edge16" class="edge">
<title>Node2&#45;&gt;Node11</title>
<path fill="none" stroke="midnightblue" d="M269.07,-224.44C313.4,-214.71 385.64,-198.86 432,-188.68"/>
<polygon fill="midnightblue" stroke="midnightblue" points="433.03,-192.04 442.05,-186.47 431.53,-185.2 433.03,-192.04"/>
</g>
<!-- Node4 -->
<g id="node4" class="node">
<title>Node4</title>
<g id="a_node4"><a xlink:href="Parameter_8h.xhtml" target="_top" xlink:title="In this file, the header of the Parameter class is defined.">
<polygon fill="white" stroke="black" points="29.09,-112.5 29.09,-131.5 163.09,-131.5 163.09,-112.5 29.09,-112.5"/>
<text text-anchor="middle" x="96.09" y="-119.5" font-family="Helvetica,sans-Serif" font-size="10.00">parameters/Parameter.h</text>
</a>
</g>
</g>
<!-- Node3&#45;&gt;Node4 -->
<g id="edge3" class="edge">
<title>Node3&#45;&gt;Node4</title>
<path fill="none" stroke="midnightblue" d="M122.81,-168.08C118.38,-160.61 111.93,-149.72 106.47,-140.52"/>
<polygon fill="midnightblue" stroke="midnightblue" points="109.38,-138.57 101.28,-131.75 103.36,-142.14 109.38,-138.57"/>
</g>
<!-- Node3&#45;&gt;Node7 -->
<g id="edge10" class="edge">
<title>Node3&#45;&gt;Node7</title>
<path fill="none" stroke="midnightblue" d="M139.86,-168.41C150.11,-160.25 164.48,-147.01 172.09,-132 188.87,-98.88 192.07,-54.74 192.4,-29.96"/>
<polygon fill="midnightblue" stroke="midnightblue" points="195.9,-29.75 192.39,-19.76 188.9,-29.76 195.9,-29.75"/>
</g>
<!-- Node5 -->
<g id="node5" class="node">
<title>Node5</title>
<g id="a_node5"><a xlink:href="Types_8h.xhtml" target="_top" xlink:title="In this file, types are defined which should be used across the whole framework.">
<polygon fill="white" stroke="black" points="64.09,-56.5 64.09,-75.5 126.09,-75.5 126.09,-56.5 64.09,-56.5"/>
<text text-anchor="middle" x="95.09" y="-63.5" font-family="Helvetica,sans-Serif" font-size="10.00">../Types.h</text>
</a>
</g>
</g>
<!-- Node4&#45;&gt;Node5 -->
<g id="edge4" class="edge">
<title>Node4&#45;&gt;Node5</title>
<path fill="none" stroke="midnightblue" d="M95.92,-112.08C95.79,-105.01 95.61,-94.86 95.44,-85.99"/>
<polygon fill="midnightblue" stroke="midnightblue" points="98.94,-85.68 95.25,-75.75 91.94,-85.81 98.94,-85.68"/>
</g>
<!-- Node4&#45;&gt;Node6 -->
<g id="edge8" class="edge">
<title>Node4&#45;&gt;Node6</title>
<path fill="none" stroke="midnightblue" d="M107.08,-112.37C116.54,-104.17 129.53,-90.92 135.09,-76 141.62,-58.5 129.37,-39.86 117.61,-27.04"/>
<polygon fill="midnightblue" stroke="midnightblue" points="120.04,-24.53 110.52,-19.88 115.06,-29.45 120.04,-24.53"/>
</g>
<!-- Node4&#45;&gt;Node8 -->
<g id="edge9" class="edge">
<title>Node4&#45;&gt;Node8</title>
<path fill="none" stroke="midnightblue" d="M86.13,-112.21C77.01,-103.72 63.66,-90.09 55.09,-76 46.3,-61.55 39.93,-43.36 35.96,-29.9"/>
<polygon fill="midnightblue" stroke="midnightblue" points="39.24,-28.6 33.21,-19.89 32.49,-30.46 39.24,-28.6"/>
</g>
<!-- Node5&#45;&gt;Node6 -->
<g id="edge5" class="edge">
<title>Node5&#45;&gt;Node6</title>
<path fill="none" stroke="midnightblue" d="M95.92,-56.08C96.57,-49.01 97.51,-38.86 98.33,-29.99"/>
<polygon fill="midnightblue" stroke="midnightblue" points="101.84,-30.03 99.28,-19.75 94.87,-29.39 101.84,-30.03"/>
</g>
<!-- Node5&#45;&gt;Node7 -->
<g id="edge6" class="edge">
<title>Node5&#45;&gt;Node7</title>
<path fill="none" stroke="midnightblue" d="M110.67,-56.32C126.09,-47.74 149.9,-34.49 167.8,-24.52"/>
<polygon fill="midnightblue" stroke="midnightblue" points="169.51,-27.58 176.54,-19.65 166.1,-21.46 169.51,-27.58"/>
</g>
<!-- Node5&#45;&gt;Node8 -->
<g id="edge7" class="edge">
<title>Node5&#45;&gt;Node8</title>
<path fill="none" stroke="midnightblue" d="M84.81,-56.32C75.25,-48.26 60.81,-36.08 49.31,-26.37"/>
<polygon fill="midnightblue" stroke="midnightblue" points="51.46,-23.61 41.56,-19.83 46.95,-28.96 51.46,-23.61"/>
</g>
</g>
</svg>
        <g id="navigator" transform="translate(0 0)" fill="#404254">
                <rect fill="#f2f5e9" fill-opacity="0.5" stroke="#606060" stroke-width=".5" x="0" y="0" width="60" height="60"/>
                <use id="zoomplus" xlink:href="#zoomPlus" x="17" y="9" onmousedown="handleZoom(evt,'in')"/>
                <use id="zoomminus" xlink:href="#zoomMin" x="42" y="9" onmousedown="handleZoom(evt,'out')"/>
                <use id="reset" xlink:href="#resetDef" x="30" y="36" onmousedown="handleReset()"/>
                <g id="arrowUp" xlink:href="#dirArrow" transform="translate(30 24)" onmousedown="handlePan(0,-1)">
                  <use xlink:href="#rim" fill="#404040">
                        <set attributeName="fill" to="#808080" begin="arrowUp.mouseover" end="arrowUp.mouseout"/>
                  </use>
                  <path fill="none" stroke="white" stroke-width="1.5" d="M0,-3.0v7 M-2.5,-0.5L0,-3.0L2.5,-0.5"/>
                </g>
                <g id="arrowRight" xlink:href="#dirArrow" transform="rotate(90) translate(36 -43)" onmousedown="handlePan(1,0)">
                  <use xlink:href="#rim" fill="#404040">
                        <set attributeName="fill" to="#808080" begin="arrowRight.mouseover" end="arrowRight.mouseout"/>
                  </use>
                  <path fill="none" stroke="white" stroke-width="1.5" d="M0,-3.0v7 M-2.5,-0.5L0,-3.0L2.5,-0.5"/>
                </g>
                <g id="arrowDown" xlink:href="#dirArrow" transform="rotate(180) translate(-30 -48)" onmousedown="handlePan(0,1)">
                  <use xlink:href="#rim" fill="#404040">
                        <set attributeName="fill" to="#808080" begin="arrowDown.mouseover" end="arrowDown.mouseout"/>
                  </use>
                  <path fill="none" stroke="white" stroke-width="1.5" d="M0,-3.0v7 M-2.5,-0.5L0,-3.0L2.5,-0.5"/>
                </g>
                <g id="arrowLeft" xlink:href="#dirArrow" transform="rotate(270) translate(-36 17)" onmousedown="handlePan(-1,0)">
                  <use xlink:href="#rim" fill="#404040">
                        <set attributeName="fill" to="#808080" begin="arrowLeft.mouseover" end="arrowLeft.mouseout"/>
                  </use>
                  <path fill="none" stroke="white" stroke-width="1.5" d="M0,-3.0v7 M-2.5,-0.5L0,-3.0L2.5,-0.5"/>
                </g>
        </g>
        <svg viewBox="0 0 15 15" width="100%" height="30px" preserveAspectRatio="xMaxYMin meet">
         <g id="arrow_out" transform="scale(0.3 0.3)">
          <a xlink:href="ConfigEditor_8cpp__incl_org.svg" target="_base">
           <rect id="button" ry="5" rx="5" y="6" x="6" height="38" width="38"
                fill="#f2f5e9" fill-opacity="0.5" stroke="#606060" stroke-width="1.0"/>
           <path id="arrow"
             d="M 11.500037,31.436501 C 11.940474,20.09759 22.043105,11.32322 32.158766,21.979434 L 37.068811,17.246167 C 37.068811,17.246167 37.088388,32 37.088388,32 L 22.160133,31.978069 C 22.160133,31.978069 26.997745,27.140456 26.997745,27.140456 C 18.528582,18.264221 13.291696,25.230495 11.500037,31.436501 z"
             style="fill:#404040;"/>
          </a>
         </g>
        </svg>
</svg>
