<?xml version="1.0" encoding="UTF-8" standalone="no"?>
<!DOCTYPE svg PUBLIC "-//W3C//DTD SVG 1.1//EN"
 "http://www.w3.org/Graphics/SVG/1.1/DTD/svg11.dtd">
<!-- Generated by graphviz version 2.43.0 (0)
 -->
<!-- Title: src/runner/plexe/ConfigEditor.h Pages: 1 -->
<svg width="470pt" height="162pt"
 viewBox="0.00 0.00 469.50 162.00" xmlns="http://www.w3.org/2000/svg" xmlns:xlink="http://www.w3.org/1999/xlink">
<g id="graph0" class="graph" transform="scale(1 1) rotate(0) translate(4 158)">
<title>src/runner/plexe/ConfigEditor.h</title>
<polygon fill="white" stroke="transparent" points="-4,4 -4,-158 465.5,-158 465.5,4 -4,4"/>
<!-- Node1 -->
<g id="node1" class="node">
<title>Node1</title>
<g id="a_node1"><a xlink:title="In this file, the header of the ConfigEditor class is defined.">
<polygon fill="#bfbfbf" stroke="black" points="175,-134.5 175,-153.5 340,-153.5 340,-134.5 175,-134.5"/>
<text text-anchor="middle" x="257.5" y="-141.5" font-family="Helvetica,sans-Serif" font-size="10.00">src/runner/plexe/ConfigEditor.h</text>
</a>
</g>
</g>
<!-- Node2 -->
<g id="node2" class="node">
<title>Node2</title>
<g id="a_node2"><a xlink:href="PlexeSimulationRunner_8h.xhtml" target="_top" xlink:title="In this file, the header of the PlexeSimulationRunner class is defined.">
<polygon fill="white" stroke="black" points="53.5,-67.5 53.5,-97.5 229.5,-97.5 229.5,-67.5 53.5,-67.5"/>
<text text-anchor="start" x="61.5" y="-85.5" font-family="Helvetica,sans-Serif" font-size="10.00">src/runner/plexe/PlexeSimulation</text>
<text text-anchor="middle" x="141.5" y="-74.5" font-family="Helvetica,sans-Serif" font-size="10.00">Runner.h</text>
</a>
</g>
</g>
<!-- Node1&#45;&gt;Node2 -->
<g id="edge1" class="edge">
<title>Node1&#45;&gt;Node2</title>
<path fill="none" stroke="midnightblue" d="M231.78,-129.81C213.1,-120.23 187.88,-107.29 168.84,-97.52"/>
<polygon fill="midnightblue" stroke="midnightblue" points="230.38,-133.03 240.88,-134.48 233.58,-126.8 230.38,-133.03"/>
</g>
<!-- Node4 -->
<g id="node4" class="node">
<title>Node4</title>
<g id="a_node4"><a xlink:href="PlexeSimulationRunner_8cpp.xhtml" target="_top" xlink:title="In this file, the implementation of the PlexeSimulationRunner class is defined.">
<polygon fill="white" stroke="black" points="169.5,-0.5 169.5,-30.5 345.5,-30.5 345.5,-0.5 169.5,-0.5"/>
<text text-anchor="start" x="177.5" y="-18.5" font-family="Helvetica,sans-Serif" font-size="10.00">src/runner/plexe/PlexeSimulation</text>
<text text-anchor="middle" x="257.5" y="-7.5" font-family="Helvetica,sans-Serif" font-size="10.00">Runner.cpp</text>
</a>
</g>
</g>
<!-- Node1&#45;&gt;Node4 -->
<g id="edge5" class="edge">
<title>Node1&#45;&gt;Node4</title>
<path fill="none" stroke="midnightblue" d="M257.5,-124.11C257.5,-98.63 257.5,-53.81 257.5,-30.89"/>
<polygon fill="midnightblue" stroke="midnightblue" points="254,-124.31 257.5,-134.31 261,-124.31 254,-124.31"/>
</g>
<!-- Node5 -->
<g id="node5" class="node">
<title>Node5</title>
<g id="a_node5"><a xlink:href="ConfigEditor_8cpp.xhtml" target="_top" xlink:title="In this file, the implementation of the ConfigEditor class is defined.">
<polygon fill="white" stroke="black" points="285.5,-73 285.5,-92 461.5,-92 461.5,-73 285.5,-73"/>
<text text-anchor="middle" x="373.5" y="-80" font-family="Helvetica,sans-Serif" font-size="10.00">src/runner/plexe/ConfigEditor.cpp</text>
</a>
</g>
</g>
<!-- Node1&#45;&gt;Node5 -->
<g id="edge4" class="edge">
<title>Node1&#45;&gt;Node5</title>
<path fill="none" stroke="midnightblue" d="M283.1,-129.87C305.59,-118.33 337.63,-101.9 356.91,-92.01"/>
<polygon fill="midnightblue" stroke="midnightblue" points="281.42,-126.8 274.12,-134.48 284.62,-133.03 281.42,-126.8"/>
</g>
<!-- Node3 -->
<g id="node3" class="node">
<title>Node3</title>
<g id="a_node3"><a xlink:href="Controller_8cpp.xhtml" target="_top" xlink:title="In this file, the implementation of the Controller class is defined.">
<polygon fill="white" stroke="black" points="0,-6 0,-25 151,-25 151,-6 0,-6"/>
<text text-anchor="middle" x="75.5" y="-13" font-family="Helvetica,sans-Serif" font-size="10.00">src/controller/Controller.cpp</text>
</a>
</g>
</g>
<!-- Node2&#45;&gt;Node3 -->
<g id="edge2" class="edge">
<title>Node2&#45;&gt;Node3</title>
<path fill="none" stroke="midnightblue" d="M120.01,-60.34C107.89,-48.4 93.41,-34.14 84.33,-25.19"/>
<polygon fill="midnightblue" stroke="midnightblue" points="117.6,-62.87 127.18,-67.4 122.51,-57.89 117.6,-62.87"/>
</g>
<!-- Node2&#45;&gt;Node4 -->
<g id="edge3" class="edge">
<title>Node2&#45;&gt;Node4</title>
<path fill="none" stroke="midnightblue" d="M175.77,-62.3C193.92,-52.12 215.82,-39.85 232.38,-30.58"/>
<polygon fill="midnightblue" stroke="midnightblue" points="173.68,-59.45 166.67,-67.4 177.1,-65.56 173.68,-59.45"/>
</g>
</g>
</svg>
