<?xml version="1.0" encoding="UTF-8" standalone="no"?>
<!DOCTYPE svg PUBLIC "-//W3C//DTD SVG 1.1//EN"
 "http://www.w3.org/Graphics/SVG/1.1/DTD/svg11.dtd">
<!-- Generated by graphviz version 2.43.0 (0)
 -->
<!-- Title: src/evaluation/constant_headway/ConstantHeadway.cpp Pages: 1 -->
<svg width="486pt" height="263pt"
 viewBox="0.00 0.00 485.50 263.00" xmlns="http://www.w3.org/2000/svg" xmlns:xlink="http://www.w3.org/1999/xlink">
<g id="graph0" class="graph" transform="scale(1 1) rotate(0) translate(4 259)">
<title>src/evaluation/constant_headway/ConstantHeadway.cpp</title>
<polygon fill="white" stroke="transparent" points="-4,4 -4,-259 481.5,-259 481.5,4 -4,4"/>
<!-- Node1 -->
<g id="node1" class="node">
<title>Node1</title>
<g id="a_node1"><a xlink:title="In this file, the implementation of the ConstantHeadway class is defined.">
<polygon fill="#bfbfbf" stroke="black" points="300.5,-224.5 300.5,-254.5 477.5,-254.5 477.5,-224.5 300.5,-224.5"/>
<text text-anchor="start" x="308.5" y="-242.5" font-family="Helvetica,sans-Serif" font-size="10.00">src/evaluation/constant</text>
<text text-anchor="middle" x="389" y="-231.5" font-family="Helvetica,sans-Serif" font-size="10.00">_headway/ConstantHeadway.cpp</text>
</a>
</g>
</g>
<!-- Node2 -->
<g id="node2" class="node">
<title>Node2</title>
<g id="a_node2"><a xlink:href="ConstantHeadway_8h.xhtml" target="_top" xlink:title="In this file, the header of the ConstantHeadway class is defined.">
<polygon fill="white" stroke="black" points="280.5,-168.5 280.5,-187.5 393.5,-187.5 393.5,-168.5 280.5,-168.5"/>
<text text-anchor="middle" x="337" y="-175.5" font-family="Helvetica,sans-Serif" font-size="10.00">ConstantHeadway.h</text>
</a>
</g>
</g>
<!-- Node1&#45;&gt;Node2 -->
<g id="edge1" class="edge">
<title>Node1&#45;&gt;Node2</title>
<path fill="none" stroke="midnightblue" d="M376.68,-224.4C369.04,-215.66 359.21,-204.41 351.24,-195.3"/>
<polygon fill="midnightblue" stroke="midnightblue" points="353.78,-192.88 344.57,-187.66 348.51,-197.49 353.78,-192.88"/>
</g>
<!-- Node14 -->
<g id="node14" class="node">
<title>Node14</title>
<g id="a_node14"><a xlink:title=" ">
<polygon fill="white" stroke="#bfbfbf" points="412,-168.5 412,-187.5 472,-187.5 472,-168.5 412,-168.5"/>
<text text-anchor="middle" x="442" y="-175.5" font-family="Helvetica,sans-Serif" font-size="10.00">iostream</text>
</a>
</g>
</g>
<!-- Node1&#45;&gt;Node14 -->
<g id="edge16" class="edge">
<title>Node1&#45;&gt;Node14</title>
<path fill="none" stroke="midnightblue" d="M401.56,-224.4C409.34,-215.66 419.36,-204.41 427.48,-195.3"/>
<polygon fill="midnightblue" stroke="midnightblue" points="430.25,-197.45 434.29,-187.66 425.02,-192.8 430.25,-197.45"/>
</g>
<!-- Node3 -->
<g id="node3" class="node">
<title>Node3</title>
<g id="a_node3"><a xlink:href="Evaluation_8h.xhtml" target="_top" xlink:title="In this file, the header of the Evaluation class is defined.">
<polygon fill="white" stroke="black" points="168,-112.5 168,-131.5 254,-131.5 254,-112.5 168,-112.5"/>
<text text-anchor="middle" x="211" y="-119.5" font-family="Helvetica,sans-Serif" font-size="10.00">../Evaluation.h</text>
</a>
</g>
</g>
<!-- Node2&#45;&gt;Node3 -->
<g id="edge2" class="edge">
<title>Node2&#45;&gt;Node3</title>
<path fill="none" stroke="midnightblue" d="M317.03,-168.44C296.39,-159.6 263.94,-145.69 240.37,-135.59"/>
<polygon fill="midnightblue" stroke="midnightblue" points="241.44,-132.24 230.87,-131.52 238.68,-138.67 241.44,-132.24"/>
</g>
<!-- Node12 -->
<g id="node12" class="node">
<title>Node12</title>
<g id="a_node12"><a xlink:href="PythonScript_8h.xhtml" target="_top" xlink:title="In this file, the header of the PythonScript class is defined.">
<polygon fill="white" stroke="black" points="272.5,-112.5 272.5,-131.5 401.5,-131.5 401.5,-112.5 272.5,-112.5"/>
<text text-anchor="middle" x="337" y="-119.5" font-family="Helvetica,sans-Serif" font-size="10.00">../../utils/PythonScript.h</text>
</a>
</g>
</g>
<!-- Node2&#45;&gt;Node12 -->
<g id="edge12" class="edge">
<title>Node2&#45;&gt;Node12</title>
<path fill="none" stroke="midnightblue" d="M337,-168.08C337,-161.01 337,-150.86 337,-141.99"/>
<polygon fill="midnightblue" stroke="midnightblue" points="340.5,-141.75 337,-131.75 333.5,-141.75 340.5,-141.75"/>
</g>
<!-- Node13 -->
<g id="node13" class="node">
<title>Node13</title>
<g id="a_node13"><a xlink:title=" ">
<polygon fill="white" stroke="#bfbfbf" points="395.5,-56.5 395.5,-75.5 454.5,-75.5 454.5,-56.5 395.5,-56.5"/>
<text text-anchor="middle" x="425" y="-63.5" font-family="Helvetica,sans-Serif" font-size="10.00">Python.h</text>
</a>
</g>
</g>
<!-- Node2&#45;&gt;Node13 -->
<g id="edge15" class="edge">
<title>Node2&#45;&gt;Node13</title>
<path fill="none" stroke="midnightblue" d="M360.94,-168.37C377.51,-161.17 398.71,-149.28 411,-132 420.51,-118.63 423.78,-100.06 424.8,-86.19"/>
<polygon fill="midnightblue" stroke="midnightblue" points="428.31,-86 425.22,-75.86 421.32,-85.71 428.31,-86"/>
</g>
<!-- Node4 -->
<g id="node4" class="node">
<title>Node4</title>
<g id="a_node4"><a xlink:href="Types_8h.xhtml" target="_top" xlink:title="In this file, types are defined which should be used across the whole framework.">
<polygon fill="white" stroke="black" points="116,-56.5 116,-75.5 178,-75.5 178,-56.5 116,-56.5"/>
<text text-anchor="middle" x="147" y="-63.5" font-family="Helvetica,sans-Serif" font-size="10.00">../Types.h</text>
</a>
</g>
</g>
<!-- Node3&#45;&gt;Node4 -->
<g id="edge3" class="edge">
<title>Node3&#45;&gt;Node4</title>
<path fill="none" stroke="midnightblue" d="M200.72,-112.32C191.16,-104.26 176.72,-92.08 165.22,-82.37"/>
<polygon fill="midnightblue" stroke="midnightblue" points="167.37,-79.61 157.47,-75.83 162.86,-84.96 167.37,-79.61"/>
</g>
<!-- Node8 -->
<g id="node8" class="node">
<title>Node8</title>
<g id="a_node8"><a xlink:href="Status_8h.xhtml" target="_top" xlink:title="In this file, the header of the Status class is defined.">
<polygon fill="white" stroke="black" points="0,-56.5 0,-75.5 98,-75.5 98,-56.5 0,-56.5"/>
<text text-anchor="middle" x="49" y="-63.5" font-family="Helvetica,sans-Serif" font-size="10.00">../status/Status.h</text>
</a>
</g>
</g>
<!-- Node3&#45;&gt;Node8 -->
<g id="edge7" class="edge">
<title>Node3&#45;&gt;Node8</title>
<path fill="none" stroke="midnightblue" d="M185.33,-112.44C158.08,-103.36 114.82,-88.94 84.35,-78.78"/>
<polygon fill="midnightblue" stroke="midnightblue" points="85.14,-75.36 74.55,-75.52 82.93,-82 85.14,-75.36"/>
</g>
<!-- Node9 -->
<g id="node9" class="node">
<title>Node9</title>
<g id="a_node9"><a xlink:title=" ">
<polygon fill="white" stroke="#bfbfbf" points="196,-56.5 196,-75.5 228,-75.5 228,-56.5 196,-56.5"/>
<text text-anchor="middle" x="212" y="-63.5" font-family="Helvetica,sans-Serif" font-size="10.00">set</text>
</a>
</g>
</g>
<!-- Node3&#45;&gt;Node9 -->
<g id="edge9" class="edge">
<title>Node3&#45;&gt;Node9</title>
<path fill="none" stroke="midnightblue" d="M211.17,-112.08C211.3,-105.01 211.48,-94.86 211.65,-85.99"/>
<polygon fill="midnightblue" stroke="midnightblue" points="215.15,-85.81 211.84,-75.75 208.15,-85.68 215.15,-85.81"/>
</g>
<!-- Node10 -->
<g id="node10" class="node">
<title>Node10</title>
<g id="a_node10"><a xlink:title=" ">
<polygon fill="white" stroke="#bfbfbf" points="303,-56.5 303,-75.5 371,-75.5 371,-56.5 303,-56.5"/>
<text text-anchor="middle" x="337" y="-63.5" font-family="Helvetica,sans-Serif" font-size="10.00">filesystem</text>
</a>
</g>
</g>
<!-- Node3&#45;&gt;Node10 -->
<g id="edge10" class="edge">
<title>Node3&#45;&gt;Node10</title>
<path fill="none" stroke="midnightblue" d="M230.97,-112.44C251.61,-103.6 284.06,-89.69 307.63,-79.59"/>
<polygon fill="midnightblue" stroke="midnightblue" points="309.32,-82.67 317.13,-75.52 306.56,-76.24 309.32,-82.67"/>
</g>
<!-- Node11 -->
<g id="node11" class="node">
<title>Node11</title>
<g id="a_node11"><a xlink:title=" ">
<polygon fill="white" stroke="#bfbfbf" points="246,-56.5 246,-75.5 284,-75.5 284,-56.5 246,-56.5"/>
<text text-anchor="middle" x="265" y="-63.5" font-family="Helvetica,sans-Serif" font-size="10.00">map</text>
</a>
</g>
</g>
<!-- Node3&#45;&gt;Node11 -->
<g id="edge11" class="edge">
<title>Node3&#45;&gt;Node11</title>
<path fill="none" stroke="midnightblue" d="M219.92,-112.08C227.78,-104.22 239.43,-92.57 248.92,-83.08"/>
<polygon fill="midnightblue" stroke="midnightblue" points="251.65,-85.3 256.25,-75.75 246.7,-80.35 251.65,-85.3"/>
</g>
<!-- Node5 -->
<g id="node5" class="node">
<title>Node5</title>
<g id="a_node5"><a xlink:title=" ">
<polygon fill="white" stroke="#bfbfbf" points="44,-0.5 44,-19.5 88,-19.5 88,-0.5 44,-0.5"/>
<text text-anchor="middle" x="66" y="-7.5" font-family="Helvetica,sans-Serif" font-size="10.00">string</text>
</a>
</g>
</g>
<!-- Node4&#45;&gt;Node5 -->
<g id="edge4" class="edge">
<title>Node4&#45;&gt;Node5</title>
<path fill="none" stroke="midnightblue" d="M133.99,-56.32C121.47,-47.98 102.32,-35.21 87.53,-25.35"/>
<polygon fill="midnightblue" stroke="midnightblue" points="89.24,-22.29 78.98,-19.65 85.36,-28.11 89.24,-22.29"/>
</g>
<!-- Node6 -->
<g id="node6" class="node">
<title>Node6</title>
<g id="a_node6"><a xlink:title=" ">
<polygon fill="white" stroke="#bfbfbf" points="114.5,-0.5 114.5,-19.5 161.5,-19.5 161.5,-0.5 114.5,-0.5"/>
<text text-anchor="middle" x="138" y="-7.5" font-family="Helvetica,sans-Serif" font-size="10.00">vector</text>
</a>
</g>
</g>
<!-- Node4&#45;&gt;Node6 -->
<g id="edge5" class="edge">
<title>Node4&#45;&gt;Node6</title>
<path fill="none" stroke="midnightblue" d="M145.51,-56.08C144.32,-48.93 142.61,-38.64 141.12,-29.69"/>
<polygon fill="midnightblue" stroke="midnightblue" points="144.55,-29.04 139.46,-19.75 137.65,-30.19 144.55,-29.04"/>
</g>
<!-- Node7 -->
<g id="node7" class="node">
<title>Node7</title>
<g id="a_node7"><a xlink:title=" ">
<polygon fill="white" stroke="#bfbfbf" points="180,-0.5 180,-19.5 238,-19.5 238,-0.5 180,-0.5"/>
<text text-anchor="middle" x="209" y="-7.5" font-family="Helvetica,sans-Serif" font-size="10.00">memory</text>
</a>
</g>
</g>
<!-- Node4&#45;&gt;Node7 -->
<g id="edge6" class="edge">
<title>Node4&#45;&gt;Node7</title>
<path fill="none" stroke="midnightblue" d="M156.96,-56.32C166.13,-48.34 179.94,-36.31 191.03,-26.65"/>
<polygon fill="midnightblue" stroke="midnightblue" points="193.62,-29.04 198.86,-19.83 189.02,-23.76 193.62,-29.04"/>
</g>
<!-- Node8&#45;&gt;Node5 -->
<g id="edge8" class="edge">
<title>Node8&#45;&gt;Node5</title>
<path fill="none" stroke="midnightblue" d="M51.81,-56.08C54.08,-48.85 57.37,-38.41 60.21,-29.4"/>
<polygon fill="midnightblue" stroke="midnightblue" points="63.58,-30.34 63.25,-19.75 56.9,-28.24 63.58,-30.34"/>
</g>
<!-- Node12&#45;&gt;Node10 -->
<g id="edge14" class="edge">
<title>Node12&#45;&gt;Node10</title>
<path fill="none" stroke="midnightblue" d="M337,-112.08C337,-105.01 337,-94.86 337,-85.99"/>
<polygon fill="midnightblue" stroke="midnightblue" points="340.5,-85.75 337,-75.75 333.5,-85.75 340.5,-85.75"/>
</g>
<!-- Node12&#45;&gt;Node13 -->
<g id="edge13" class="edge">
<title>Node12&#45;&gt;Node13</title>
<path fill="none" stroke="midnightblue" d="M351.14,-112.32C364.87,-103.9 385.94,-90.97 402.06,-81.07"/>
<polygon fill="midnightblue" stroke="midnightblue" points="404.2,-83.87 410.9,-75.65 400.54,-77.9 404.2,-83.87"/>
</g>
</g>
</svg>
