<?xml version="1.0" encoding="UTF-8" standalone="no"?>
<!DOCTYPE svg PUBLIC "-//W3C//DTD SVG 1.1//EN"
 "http://www.w3.org/Graphics/SVG/1.1/DTD/svg11.dtd">
<!-- Generated by graphviz version 2.43.0 (0)
 -->
<!-- Title: src/parameters/ContinuousParameter.h Pages: 1 -->
<svg width="318pt" height="106pt"
 viewBox="0.00 0.00 317.50 106.00" xmlns="http://www.w3.org/2000/svg" xmlns:xlink="http://www.w3.org/1999/xlink">
<g id="graph0" class="graph" transform="scale(1 1) rotate(0) translate(4 102)">
<title>src/parameters/ContinuousParameter.h</title>
<polygon fill="white" stroke="transparent" points="-4,4 -4,-102 313.5,-102 313.5,4 -4,4"/>
<!-- Node1 -->
<g id="node1" class="node">
<title>Node1</title>
<g id="a_node1"><a xlink:title="In this file, the header of the ContinuousParameter class is defined.">
<polygon fill="#bfbfbf" stroke="black" points="79.5,-67.5 79.5,-97.5 227.5,-97.5 227.5,-67.5 79.5,-67.5"/>
<text text-anchor="start" x="87.5" y="-85.5" font-family="Helvetica,sans-Serif" font-size="10.00">src/parameters/Continuous</text>
<text text-anchor="middle" x="153.5" y="-74.5" font-family="Helvetica,sans-Serif" font-size="10.00">Parameter.h</text>
</a>
</g>
</g>
<!-- Node2 -->
<g id="node2" class="node">
<title>Node2</title>
<g id="a_node2"><a xlink:href="ParameterNormalizer_8cpp.xhtml" target="_top" xlink:title="In this file, the implementation of the ParameterNormalizer class is defined.">
<polygon fill="white" stroke="black" points="0,-0.5 0,-30.5 143,-30.5 143,-0.5 0,-0.5"/>
<text text-anchor="start" x="8" y="-18.5" font-family="Helvetica,sans-Serif" font-size="10.00">src/optimizer/direct</text>
<text text-anchor="middle" x="71.5" y="-7.5" font-family="Helvetica,sans-Serif" font-size="10.00">/ParameterNormalizer.cpp</text>
</a>
</g>
</g>
<!-- Node1&#45;&gt;Node2 -->
<g id="edge1" class="edge">
<title>Node1&#45;&gt;Node2</title>
<path fill="none" stroke="midnightblue" d="M127.85,-61.17C115.31,-51.23 100.53,-39.51 89.26,-30.58"/>
<polygon fill="midnightblue" stroke="midnightblue" points="125.7,-63.93 135.71,-67.4 130.04,-58.44 125.7,-63.93"/>
</g>
<!-- Node3 -->
<g id="node3" class="node">
<title>Node3</title>
<g id="a_node3"><a xlink:href="ContinuousParameter_8cpp.xhtml" target="_top" xlink:title="In this file, the implementation of the ContinuousParameter class is defined.">
<polygon fill="white" stroke="black" points="161.5,-0.5 161.5,-30.5 309.5,-30.5 309.5,-0.5 161.5,-0.5"/>
<text text-anchor="start" x="169.5" y="-18.5" font-family="Helvetica,sans-Serif" font-size="10.00">src/parameters/Continuous</text>
<text text-anchor="middle" x="235.5" y="-7.5" font-family="Helvetica,sans-Serif" font-size="10.00">Parameter.cpp</text>
</a>
</g>
</g>
<!-- Node1&#45;&gt;Node3 -->
<g id="edge2" class="edge">
<title>Node1&#45;&gt;Node3</title>
<path fill="none" stroke="midnightblue" d="M179.15,-61.17C191.69,-51.23 206.47,-39.51 217.74,-30.58"/>
<polygon fill="midnightblue" stroke="midnightblue" points="176.96,-58.44 171.29,-67.4 181.3,-63.93 176.96,-58.44"/>
</g>
</g>
</svg>
