<?xml version="1.0" encoding="UTF-8" standalone="no"?>
<!DOCTYPE svg PUBLIC "-//W3C//DTD SVG 1.1//EN"
 "http://www.w3.org/Graphics/SVG/1.1/DTD/svg11.dtd">
<!-- Generated by graphviz version 2.43.0 (0)
 -->
<!-- Title: /home/runner/work/Simopticon/Simopticon/src/parameters/ContinuousParameter.h Pages: 1 -->
<svg width="368pt" height="128pt"
 viewBox="0.00 0.00 367.50 128.00" xmlns="http://www.w3.org/2000/svg" xmlns:xlink="http://www.w3.org/1999/xlink">
<g id="graph0" class="graph" transform="scale(1 1) rotate(0) translate(4 124)">
<title>/home/runner/work/Simopticon/Simopticon/src/parameters/ContinuousParameter.h</title>
<polygon fill="white" stroke="transparent" points="-4,4 -4,-124 363.5,-124 363.5,4 -4,4"/>
<!-- Node1 -->
<g id="node1" class="node">
<title>Node1</title>
<g id="a_node1"><a xlink:title="In this file, the header of the ContinuousParameter class is defined.">
<polygon fill="#bfbfbf" stroke="black" points="97.5,-78.5 97.5,-119.5 264.5,-119.5 264.5,-78.5 97.5,-78.5"/>
<text text-anchor="start" x="105.5" y="-107.5" font-family="Helvetica,sans-Serif" font-size="10.00">/home/runner/work/Simopticon</text>
<text text-anchor="start" x="105.5" y="-96.5" font-family="Helvetica,sans-Serif" font-size="10.00">/Simopticon/src/parameters</text>
<text text-anchor="middle" x="181" y="-85.5" font-family="Helvetica,sans-Serif" font-size="10.00">/ContinuousParameter.h</text>
</a>
</g>
</g>
<!-- Node2 -->
<g id="node2" class="node">
<title>Node2</title>
<g id="a_node2"><a xlink:href="ParameterNormalizer_8cpp.xhtml" target="_top" xlink:title="In this file, the implementation of the ParameterNormalizer class is defined.">
<polygon fill="white" stroke="black" points="0,-0.5 0,-41.5 174,-41.5 174,-0.5 0,-0.5"/>
<text text-anchor="start" x="8" y="-29.5" font-family="Helvetica,sans-Serif" font-size="10.00">/home/runner/work/Simopticon</text>
<text text-anchor="start" x="8" y="-18.5" font-family="Helvetica,sans-Serif" font-size="10.00">/Simopticon/src/optimizer</text>
<text text-anchor="middle" x="87" y="-7.5" font-family="Helvetica,sans-Serif" font-size="10.00">/direct/ParameterNormalizer.cpp</text>
</a>
</g>
</g>
<!-- Node1&#45;&gt;Node2 -->
<g id="edge1" class="edge">
<title>Node1&#45;&gt;Node2</title>
<path fill="none" stroke="midnightblue" d="M148.92,-72.06C136.54,-62.06 122.63,-50.8 111.13,-41.51"/>
<polygon fill="midnightblue" stroke="midnightblue" points="146.82,-74.86 156.79,-78.43 151.22,-69.42 146.82,-74.86"/>
</g>
<!-- Node3 -->
<g id="node3" class="node">
<title>Node3</title>
<g id="a_node3"><a xlink:href="ContinuousParameter_8cpp.xhtml" target="_top" xlink:title="In this file, the implementation of the ContinuousParameter class is defined.">
<polygon fill="white" stroke="black" points="192.5,-0.5 192.5,-41.5 359.5,-41.5 359.5,-0.5 192.5,-0.5"/>
<text text-anchor="start" x="200.5" y="-29.5" font-family="Helvetica,sans-Serif" font-size="10.00">/home/runner/work/Simopticon</text>
<text text-anchor="start" x="200.5" y="-18.5" font-family="Helvetica,sans-Serif" font-size="10.00">/Simopticon/src/parameters</text>
<text text-anchor="middle" x="276" y="-7.5" font-family="Helvetica,sans-Serif" font-size="10.00">/ContinuousParameter.cpp</text>
</a>
</g>
</g>
<!-- Node1&#45;&gt;Node3 -->
<g id="edge2" class="edge">
<title>Node1&#45;&gt;Node3</title>
<path fill="none" stroke="midnightblue" d="M213.42,-72.06C225.93,-62.06 239.99,-50.8 251.62,-41.51"/>
<polygon fill="midnightblue" stroke="midnightblue" points="211.09,-69.45 205.46,-78.43 215.46,-74.91 211.09,-69.45"/>
</g>
</g>
</svg>
