<?xml version="1.0" encoding="UTF-8" standalone="no"?>
<!DOCTYPE svg PUBLIC "-//W3C//DTD SVG 1.1//EN"
 "http://www.w3.org/Graphics/SVG/1.1/DTD/svg11.dtd">
<!-- Generated by graphviz version 2.43.0 (0)
 -->
<!-- Title: /home/runner/work/Simopticon/Simopticon/src/parameters/ContinuousParameter.h Pages: 1 -->
<svg width="790pt" height="128pt"
 viewBox="0.00 0.00 789.50 128.00" xmlns="http://www.w3.org/2000/svg" xmlns:xlink="http://www.w3.org/1999/xlink">
<g id="graph0" class="graph" transform="scale(1 1) rotate(0) translate(4 124)">
<title>/home/runner/work/Simopticon/Simopticon/src/parameters/ContinuousParameter.h</title>
<polygon fill="white" stroke="transparent" points="-4,4 -4,-124 785.5,-124 785.5,4 -4,4"/>
<!-- Node1 -->
<g id="node1" class="node">
<title>Node1</title>
<g id="a_node1"><a xlink:title="In this file, the header of the ContinuousParameter class is defined.">
<polygon fill="#bfbfbf" stroke="black" points="297.5,-78.5 297.5,-119.5 464.5,-119.5 464.5,-78.5 297.5,-78.5"/>
<text text-anchor="start" x="305.5" y="-107.5" font-family="Helvetica,sans-Serif" font-size="10.00">/home/runner/work/Simopticon</text>
<text text-anchor="start" x="305.5" y="-96.5" font-family="Helvetica,sans-Serif" font-size="10.00">/Simopticon/src/parameters</text>
<text text-anchor="middle" x="381" y="-85.5" font-family="Helvetica,sans-Serif" font-size="10.00">/ContinuousParameter.h</text>
</a>
</g>
</g>
<!-- Node2 -->
<g id="node2" class="node">
<title>Node2</title>
<g id="a_node2"><a xlink:href="ParameterNormalizer_8cpp.xhtml" target="_top" xlink:title="In this file, the implementation of the ParameterNormalizer class is defined.">
<polygon fill="white" stroke="black" points="0,-0.5 0,-41.5 174,-41.5 174,-0.5 0,-0.5"/>
<text text-anchor="start" x="8" y="-29.5" font-family="Helvetica,sans-Serif" font-size="10.00">/home/runner/work/Simopticon</text>
<text text-anchor="start" x="8" y="-18.5" font-family="Helvetica,sans-Serif" font-size="10.00">/Simopticon/src/optimizer</text>
<text text-anchor="middle" x="87" y="-7.5" font-family="Helvetica,sans-Serif" font-size="10.00">/direct/ParameterNormalizer.cpp</text>
</a>
</g>
</g>
<!-- Node1&#45;&gt;Node2 -->
<g id="edge1" class="edge">
<title>Node1&#45;&gt;Node2</title>
<path fill="none" stroke="midnightblue" d="M295.6,-75.92C253.49,-65.04 203.14,-52.02 162.46,-41.51"/>
<polygon fill="midnightblue" stroke="midnightblue" points="294.73,-79.31 305.29,-78.43 296.48,-72.54 294.73,-79.31"/>
</g>
<!-- Node3 -->
<g id="node3" class="node">
<title>Node3</title>
<g id="a_node3"><a xlink:href="MonteCarlo_8cpp.xhtml" target="_top" xlink:title="In this file, the implementation of the MonteCarlo optimizer class is defined.">
<polygon fill="white" stroke="black" points="192.5,-0.5 192.5,-41.5 359.5,-41.5 359.5,-0.5 192.5,-0.5"/>
<text text-anchor="start" x="200.5" y="-29.5" font-family="Helvetica,sans-Serif" font-size="10.00">/home/runner/work/Simopticon</text>
<text text-anchor="start" x="200.5" y="-18.5" font-family="Helvetica,sans-Serif" font-size="10.00">/Simopticon/src/optimizer</text>
<text text-anchor="middle" x="276" y="-7.5" font-family="Helvetica,sans-Serif" font-size="10.00">/montecarlo/MonteCarlo.cpp</text>
</a>
</g>
</g>
<!-- Node1&#45;&gt;Node3 -->
<g id="edge2" class="edge">
<title>Node1&#45;&gt;Node3</title>
<path fill="none" stroke="midnightblue" d="M345.56,-72.35C331.64,-62.27 315.92,-50.89 302.95,-41.51"/>
<polygon fill="midnightblue" stroke="midnightblue" points="343.81,-75.4 353.96,-78.43 347.91,-69.73 343.81,-75.4"/>
</g>
<!-- Node4 -->
<g id="node4" class="node">
<title>Node4</title>
<g id="a_node4"><a xlink:href="RandomNeighbors_8cpp.xhtml" target="_top" xlink:title="In this file, the implementation of the RandomNeighbors optimizer class is defined.">
<polygon fill="white" stroke="black" points="378,-0.5 378,-41.5 596,-41.5 596,-0.5 378,-0.5"/>
<text text-anchor="start" x="386" y="-29.5" font-family="Helvetica,sans-Serif" font-size="10.00">/home/runner/work/Simopticon</text>
<text text-anchor="start" x="386" y="-18.5" font-family="Helvetica,sans-Serif" font-size="10.00">/Simopticon/src/optimizer</text>
<text text-anchor="middle" x="487" y="-7.5" font-family="Helvetica,sans-Serif" font-size="10.00">/randomneighbors/RandomNeighbors.cpp</text>
</a>
</g>
</g>
<!-- Node1&#45;&gt;Node4 -->
<g id="edge3" class="edge">
<title>Node1&#45;&gt;Node4</title>
<path fill="none" stroke="midnightblue" d="M416.77,-72.35C430.83,-62.27 446.7,-50.89 459.79,-41.51"/>
<polygon fill="midnightblue" stroke="midnightblue" points="414.39,-69.76 408.3,-78.43 418.46,-75.45 414.39,-69.76"/>
</g>
<!-- Node5 -->
<g id="node5" class="node">
<title>Node5</title>
<g id="a_node5"><a xlink:href="ContinuousParameter_8cpp.xhtml" target="_top" xlink:title="In this file, the implementation of the ContinuousParameter class is defined.">
<polygon fill="white" stroke="black" points="614.5,-0.5 614.5,-41.5 781.5,-41.5 781.5,-0.5 614.5,-0.5"/>
<text text-anchor="start" x="622.5" y="-29.5" font-family="Helvetica,sans-Serif" font-size="10.00">/home/runner/work/Simopticon</text>
<text text-anchor="start" x="622.5" y="-18.5" font-family="Helvetica,sans-Serif" font-size="10.00">/Simopticon/src/parameters</text>
<text text-anchor="middle" x="698" y="-7.5" font-family="Helvetica,sans-Serif" font-size="10.00">/ContinuousParameter.cpp</text>
</a>
</g>
</g>
<!-- Node1&#45;&gt;Node5 -->
<g id="edge4" class="edge">
<title>Node1&#45;&gt;Node5</title>
<path fill="none" stroke="midnightblue" d="M472.5,-76.06C518.03,-65.15 572.59,-52.07 616.64,-41.51"/>
<polygon fill="midnightblue" stroke="midnightblue" points="471.54,-72.69 462.64,-78.43 473.18,-79.5 471.54,-72.69"/>
</g>
</g>
</svg>
