<?xml version="1.0" encoding="UTF-8" standalone="no"?>
<!DOCTYPE svg PUBLIC "-//W3C//DTD SVG 1.1//EN"
 "http://www.w3.org/Graphics/SVG/1.1/DTD/svg11.dtd">
<!-- Generated by graphviz version 2.43.0 (0)
 -->
<!-- Title: /home/runner/work/Simopticon/Simopticon/src/controller/Controller.h Pages: 1 -->
<svg width="1884pt" height="386pt"
 viewBox="0.00 0.00 1884.00 386.00" xmlns="http://www.w3.org/2000/svg" xmlns:xlink="http://www.w3.org/1999/xlink">
<g id="graph0" class="graph" transform="scale(1 1) rotate(0) translate(4 382)">
<title>/home/runner/work/Simopticon/Simopticon/src/controller/Controller.h</title>
<polygon fill="white" stroke="transparent" points="-4,4 -4,-382 1880,-382 1880,4 -4,4"/>
<!-- Node1 -->
<g id="node1" class="node">
<title>Node1</title>
<g id="a_node1"><a xlink:title="In this file, the header of the Controller class is defined.">
<polygon fill="#bfbfbf" stroke="black" points="539.5,-336.5 539.5,-377.5 706.5,-377.5 706.5,-336.5 539.5,-336.5"/>
<text text-anchor="start" x="547.5" y="-365.5" font-family="Helvetica,sans-Serif" font-size="10.00">/home/runner/work/Simopticon</text>
<text text-anchor="start" x="547.5" y="-354.5" font-family="Helvetica,sans-Serif" font-size="10.00">/Simopticon/src/controller</text>
<text text-anchor="middle" x="623" y="-343.5" font-family="Helvetica,sans-Serif" font-size="10.00">/Controller.h</text>
</a>
</g>
</g>
<!-- Node2 -->
<g id="node2" class="node">
<title>Node2</title>
<g id="a_node2"><a xlink:href="Types_8h.xhtml" target="_top" xlink:title="In this file, types are defined which should be used across the whole framework.">
<polygon fill="white" stroke="black" points="511,-56.5 511,-75.5 573,-75.5 573,-56.5 511,-56.5"/>
<text text-anchor="middle" x="542" y="-63.5" font-family="Helvetica,sans-Serif" font-size="10.00">../Types.h</text>
</a>
</g>
</g>
<!-- Node1&#45;&gt;Node2 -->
<g id="edge1" class="edge">
<title>Node1&#45;&gt;Node2</title>
<path fill="none" stroke="midnightblue" d="M539.15,-342.11C515.46,-333.89 492.27,-320.81 478,-300 429.92,-229.88 498.08,-124.75 528.57,-83.99"/>
<polygon fill="midnightblue" stroke="midnightblue" points="531.47,-85.96 534.77,-75.89 525.91,-81.7 531.47,-85.96"/>
</g>
<!-- Node4 -->
<g id="node4" class="node">
<title>Node4</title>
<g id="a_node4"><a xlink:title=" ">
<polygon fill="white" stroke="#bfbfbf" points="1080.5,-0.5 1080.5,-19.5 1127.5,-19.5 1127.5,-0.5 1080.5,-0.5"/>
<text text-anchor="middle" x="1104" y="-7.5" font-family="Helvetica,sans-Serif" font-size="10.00">vector</text>
</a>
</g>
</g>
<!-- Node1&#45;&gt;Node4 -->
<g id="edge72" class="edge">
<title>Node1&#45;&gt;Node4</title>
<path fill="none" stroke="midnightblue" d="M706.67,-356.71C987.07,-358 1876,-352.81 1876,-235 1876,-235 1876,-235 1876,-121 1876,-45.3 1286.77,-17.91 1137.86,-12.2"/>
<polygon fill="midnightblue" stroke="midnightblue" points="1137.65,-8.69 1127.53,-11.81 1137.39,-15.68 1137.65,-8.69"/>
</g>
<!-- Node5 -->
<g id="node5" class="node">
<title>Node5</title>
<g id="a_node5"><a xlink:title=" ">
<polygon fill="white" stroke="#bfbfbf" points="85,-0.5 85,-19.5 143,-19.5 143,-0.5 85,-0.5"/>
<text text-anchor="middle" x="114" y="-7.5" font-family="Helvetica,sans-Serif" font-size="10.00">memory</text>
</a>
</g>
</g>
<!-- Node1&#45;&gt;Node5 -->
<g id="edge74" class="edge">
<title>Node1&#45;&gt;Node5</title>
<path fill="none" stroke="midnightblue" d="M539.3,-356.98C369.4,-356.69 0,-343.6 0,-235 0,-235 0,-235 0,-121 0,-74.11 50.55,-40.89 84.33,-23.93"/>
<polygon fill="midnightblue" stroke="midnightblue" points="85.87,-27.07 93.36,-19.58 82.83,-20.77 85.87,-27.07"/>
</g>
<!-- Node6 -->
<g id="node6" class="node">
<title>Node6</title>
<g id="a_node6"><a xlink:href="ComparisonFunctions_8h.xhtml" target="_top" xlink:title="In this file, comparison functions are defined which should be used across the whole framework.">
<polygon fill="white" stroke="black" points="1342,-168.5 1342,-187.5 1482,-187.5 1482,-168.5 1342,-168.5"/>
<text text-anchor="middle" x="1412" y="-175.5" font-family="Helvetica,sans-Serif" font-size="10.00">../ComparisonFunctions.h</text>
</a>
</g>
</g>
<!-- Node1&#45;&gt;Node6 -->
<g id="edge5" class="edge">
<title>Node1&#45;&gt;Node6</title>
<path fill="none" stroke="midnightblue" d="M706.51,-353.03C824.61,-347.77 1046.77,-333.96 1233,-300 1325.07,-283.21 1379.3,-318.46 1436,-244 1446.98,-229.58 1436.72,-209.61 1426.41,-195.62"/>
<polygon fill="midnightblue" stroke="midnightblue" points="1429.15,-193.43 1420.18,-187.79 1423.67,-197.79 1429.15,-193.43"/>
</g>
<!-- Node7 -->
<g id="node7" class="node">
<title>Node7</title>
<g id="a_node7"><a xlink:href="Parameter_8h.xhtml" target="_top" xlink:title="In this file, the header of the Parameter class is defined.">
<polygon fill="white" stroke="black" points="734,-112.5 734,-131.5 868,-131.5 868,-112.5 734,-112.5"/>
<text text-anchor="middle" x="801" y="-119.5" font-family="Helvetica,sans-Serif" font-size="10.00">parameters/Parameter.h</text>
</a>
</g>
</g>
<!-- Node1&#45;&gt;Node7 -->
<g id="edge53" class="edge">
<title>Node1&#45;&gt;Node7</title>
<path fill="none" stroke="midnightblue" d="M589.17,-336.26C576.63,-327 563.82,-314.73 557,-300 553.27,-291.93 554.29,-288.46 557,-280 575.67,-221.75 586.83,-203 637,-168 662.45,-150.24 694.65,-139.48 723.76,-132.96"/>
<polygon fill="midnightblue" stroke="midnightblue" points="724.85,-136.31 733.92,-130.83 723.41,-129.46 724.85,-136.31"/>
</g>
<!-- Node8 -->
<g id="node8" class="node">
<title>Node8</title>
<g id="a_node8"><a xlink:href="Optimizer_8h.xhtml" target="_top" xlink:title="In this file, the header of the Optimizer class is defined.">
<polygon fill="white" stroke="black" points="220.5,-224.5 220.5,-243.5 351.5,-243.5 351.5,-224.5 220.5,-224.5"/>
<text text-anchor="middle" x="286" y="-231.5" font-family="Helvetica,sans-Serif" font-size="10.00">../optimizer/Optimizer.h</text>
</a>
</g>
</g>
<!-- Node1&#45;&gt;Node8 -->
<g id="edge11" class="edge">
<title>Node1&#45;&gt;Node8</title>
<path fill="none" stroke="midnightblue" d="M539.34,-347.79C487.45,-340.31 420.52,-326.23 366,-300 340.69,-287.82 316.35,-266.15 301.3,-251.2"/>
<polygon fill="midnightblue" stroke="midnightblue" points="303.44,-248.38 293.95,-243.69 298.44,-253.28 303.44,-248.38"/>
</g>
<!-- Node11 -->
<g id="node11" class="node">
<title>Node11</title>
<g id="a_node11"><a xlink:href="Abortable_8h.xhtml" target="_top" xlink:title="In this file, the header of the Abortable class is defined.">
<polygon fill="white" stroke="black" points="104,-168.5 104,-187.5 210,-187.5 210,-168.5 104,-168.5"/>
<text text-anchor="middle" x="157" y="-175.5" font-family="Helvetica,sans-Serif" font-size="10.00">../utils/Abortable.h</text>
</a>
</g>
</g>
<!-- Node1&#45;&gt;Node11 -->
<g id="edge70" class="edge">
<title>Node1&#45;&gt;Node11</title>
<path fill="none" stroke="midnightblue" d="M539.32,-351.81C449.7,-343.41 307.4,-318.37 211,-244 193.47,-230.47 177.84,-210.3 167.96,-196.02"/>
<polygon fill="midnightblue" stroke="midnightblue" points="170.81,-193.99 162.34,-187.62 164.99,-197.88 170.81,-193.99"/>
</g>
<!-- Node12 -->
<g id="node12" class="node">
<title>Node12</title>
<g id="a_node12"><a xlink:title=" ">
<polygon fill="white" stroke="#bfbfbf" points="570,-112.5 570,-131.5 602,-131.5 602,-112.5 570,-112.5"/>
<text text-anchor="middle" x="586" y="-119.5" font-family="Helvetica,sans-Serif" font-size="10.00">list</text>
</a>
</g>
</g>
<!-- Node1&#45;&gt;Node12 -->
<g id="edge73" class="edge">
<title>Node1&#45;&gt;Node12</title>
<path fill="none" stroke="midnightblue" d="M539.26,-337.45C520.29,-329.17 502.41,-317.23 491,-300 472.35,-271.84 478.55,-255.4 491,-224 505.79,-186.69 541.6,-155.15 564.79,-137.68"/>
<polygon fill="midnightblue" stroke="midnightblue" points="566.97,-140.41 572.98,-131.69 562.84,-134.76 566.97,-140.41"/>
</g>
<!-- Node13 -->
<g id="node13" class="node">
<title>Node13</title>
<g id="a_node13"><a xlink:title=" ">
<polygon fill="white" stroke="#bfbfbf" points="1038,-168.5 1038,-187.5 1076,-187.5 1076,-168.5 1038,-168.5"/>
<text text-anchor="middle" x="1057" y="-175.5" font-family="Helvetica,sans-Serif" font-size="10.00">map</text>
</a>
</g>
</g>
<!-- Node1&#45;&gt;Node13 -->
<g id="edge71" class="edge">
<title>Node1&#45;&gt;Node13</title>
<path fill="none" stroke="midnightblue" d="M706.83,-352.01C794.81,-343.75 932.74,-318.81 1024,-244 1038.51,-232.11 1047.28,-212.2 1052.09,-197.54"/>
<polygon fill="midnightblue" stroke="midnightblue" points="1055.56,-198.16 1055.03,-187.57 1048.84,-196.18 1055.56,-198.16"/>
</g>
<!-- Node14 -->
<g id="node14" class="node">
<title>Node14</title>
<g id="a_node14"><a xlink:href="SimulationRunner_8h.xhtml" target="_top" xlink:title="In this file, the header of the SimulationRunner class is defined.">
<polygon fill="white" stroke="black" points="1049.5,-280.5 1049.5,-299.5 1204.5,-299.5 1204.5,-280.5 1049.5,-280.5"/>
<text text-anchor="middle" x="1127" y="-287.5" font-family="Helvetica,sans-Serif" font-size="10.00">../runner/SimulationRunner.h</text>
</a>
</g>
</g>
<!-- Node1&#45;&gt;Node14 -->
<g id="edge23" class="edge">
<title>Node1&#45;&gt;Node14</title>
<path fill="none" stroke="midnightblue" d="M706.51,-345.23C802.37,-332.87 958.25,-312.76 1050.89,-300.82"/>
<polygon fill="midnightblue" stroke="midnightblue" points="1051.56,-304.26 1061.03,-299.51 1050.67,-297.32 1051.56,-304.26"/>
</g>
<!-- Node19 -->
<g id="node19" class="node">
<title>Node19</title>
<g id="a_node19"><a xlink:title=" ">
<polygon fill="white" stroke="#bfbfbf" points="1170,-168.5 1170,-187.5 1202,-187.5 1202,-168.5 1170,-168.5"/>
<text text-anchor="middle" x="1186" y="-175.5" font-family="Helvetica,sans-Serif" font-size="10.00">set</text>
</a>
</g>
</g>
<!-- Node1&#45;&gt;Node19 -->
<g id="edge75" class="edge">
<title>Node1&#45;&gt;Node19</title>
<path fill="none" stroke="midnightblue" d="M706.68,-354.18C861.62,-349.93 1180.54,-336.78 1214,-300 1240.49,-270.88 1214.95,-221.75 1198.13,-195.96"/>
<polygon fill="midnightblue" stroke="midnightblue" points="1200.95,-193.9 1192.43,-187.6 1195.17,-197.84 1200.95,-193.9"/>
</g>
<!-- Node25 -->
<g id="node25" class="node">
<title>Node25</title>
<g id="a_node25"><a xlink:href="Evaluation_8h.xhtml" target="_top" xlink:title="In this file, the header of the Evaluation class is defined.">
<polygon fill="white" stroke="black" points="723.5,-224.5 723.5,-243.5 864.5,-243.5 864.5,-224.5 723.5,-224.5"/>
<text text-anchor="middle" x="794" y="-231.5" font-family="Helvetica,sans-Serif" font-size="10.00">../evaluation/Evaluation.h</text>
</a>
</g>
</g>
<!-- Node1&#45;&gt;Node25 -->
<g id="edge47" class="edge">
<title>Node1&#45;&gt;Node25</title>
<path fill="none" stroke="midnightblue" d="M650.85,-336.29C685.31,-311.91 743.14,-270.99 773.68,-249.38"/>
<polygon fill="midnightblue" stroke="midnightblue" points="775.74,-252.21 781.88,-243.57 771.7,-246.49 775.74,-252.21"/>
</g>
<!-- Node26 -->
<g id="node26" class="node">
<title>Node26</title>
<g id="a_node26"><a xlink:href="StatusBar_8h.xhtml" target="_top" xlink:title="In this file, the header of the StatusBar class is defined.">
<polygon fill="white" stroke="black" points="566,-280.5 566,-299.5 680,-299.5 680,-280.5 566,-280.5"/>
<text text-anchor="middle" x="623" y="-287.5" font-family="Helvetica,sans-Serif" font-size="10.00">../status/StatusBar.h</text>
</a>
</g>
</g>
<!-- Node1&#45;&gt;Node26 -->
<g id="edge54" class="edge">
<title>Node1&#45;&gt;Node26</title>
<path fill="none" stroke="midnightblue" d="M623,-336.5C623,-328.07 623,-318.24 623,-309.87"/>
<polygon fill="midnightblue" stroke="midnightblue" points="626.5,-309.65 623,-299.65 619.5,-309.65 626.5,-309.65"/>
</g>
<!-- Node3 -->
<g id="node3" class="node">
<title>Node3</title>
<g id="a_node3"><a xlink:title=" ">
<polygon fill="white" stroke="#bfbfbf" points="579,-0.5 579,-19.5 623,-19.5 623,-0.5 579,-0.5"/>
<text text-anchor="middle" x="601" y="-7.5" font-family="Helvetica,sans-Serif" font-size="10.00">string</text>
</a>
</g>
</g>
<!-- Node2&#45;&gt;Node3 -->
<g id="edge2" class="edge">
<title>Node2&#45;&gt;Node3</title>
<path fill="none" stroke="midnightblue" d="M551.48,-56.32C560.2,-48.34 573.34,-36.31 583.9,-26.65"/>
<polygon fill="midnightblue" stroke="midnightblue" points="586.33,-29.17 591.35,-19.83 581.61,-24 586.33,-29.17"/>
</g>
<!-- Node2&#45;&gt;Node4 -->
<g id="edge3" class="edge">
<title>Node2&#45;&gt;Node4</title>
<path fill="none" stroke="midnightblue" d="M573.02,-62.02C670.36,-52.67 969.33,-23.94 1070.29,-14.24"/>
<polygon fill="midnightblue" stroke="midnightblue" points="1070.63,-17.72 1080.25,-13.28 1069.96,-10.75 1070.63,-17.72"/>
</g>
<!-- Node2&#45;&gt;Node5 -->
<g id="edge4" class="edge">
<title>Node2&#45;&gt;Node5</title>
<path fill="none" stroke="midnightblue" d="M510.87,-61.07C434.41,-51.43 237.46,-26.58 153.2,-15.95"/>
<polygon fill="midnightblue" stroke="midnightblue" points="153.38,-12.44 143.02,-14.66 152.5,-19.39 153.38,-12.44"/>
</g>
<!-- Node6&#45;&gt;Node4 -->
<g id="edge10" class="edge">
<title>Node6&#45;&gt;Node4</title>
<path fill="none" stroke="midnightblue" d="M1398.55,-168.46C1378.3,-155.72 1338.67,-131.15 1304,-112 1243.26,-78.45 1170.06,-42.61 1131.26,-23.97"/>
<polygon fill="midnightblue" stroke="midnightblue" points="1132.69,-20.78 1122.16,-19.61 1129.67,-27.09 1132.69,-20.78"/>
</g>
<!-- Node6&#45;&gt;Node7 -->
<g id="edge6" class="edge">
<title>Node6&#45;&gt;Node7</title>
<path fill="none" stroke="midnightblue" d="M1341.8,-168.9C1338.83,-168.59 1335.88,-168.29 1333,-168 1171.43,-151.97 981.89,-136.81 878.3,-128.83"/>
<polygon fill="midnightblue" stroke="midnightblue" points="878.48,-125.33 868.24,-128.06 877.94,-132.31 878.48,-125.33"/>
</g>
<!-- Node7&#45;&gt;Node2 -->
<g id="edge7" class="edge">
<title>Node7&#45;&gt;Node2</title>
<path fill="none" stroke="midnightblue" d="M759.96,-112.44C711.49,-102.34 631.34,-85.63 582.92,-75.53"/>
<polygon fill="midnightblue" stroke="midnightblue" points="583.6,-72.1 573.09,-73.48 582.17,-78.95 583.6,-72.1"/>
</g>
<!-- Node7&#45;&gt;Node3 -->
<g id="edge8" class="edge">
<title>Node7&#45;&gt;Node3</title>
<path fill="none" stroke="midnightblue" d="M785.31,-112.37C750.62,-93.29 667.22,-47.42 625.56,-24.51"/>
<polygon fill="midnightblue" stroke="midnightblue" points="627.07,-21.34 616.62,-19.59 623.7,-27.48 627.07,-21.34"/>
</g>
<!-- Node7&#45;&gt;Node5 -->
<g id="edge9" class="edge">
<title>Node7&#45;&gt;Node5</title>
<path fill="none" stroke="midnightblue" d="M777.71,-112.47C738.1,-98.32 654.8,-70.17 582,-56 425,-25.45 234.15,-15.3 153.25,-12.22"/>
<polygon fill="midnightblue" stroke="midnightblue" points="153.16,-8.72 143.04,-11.85 152.9,-15.71 153.16,-8.72"/>
</g>
<!-- Node8&#45;&gt;Node2 -->
<g id="edge12" class="edge">
<title>Node8&#45;&gt;Node2</title>
<path fill="none" stroke="midnightblue" d="M291.64,-224.28C300.45,-211.07 318.52,-185.67 338,-168 387.16,-123.42 459.6,-93.87 503.63,-78.81"/>
<polygon fill="midnightblue" stroke="midnightblue" points="505,-82.04 513.37,-75.55 502.78,-75.4 505,-82.04"/>
</g>
<!-- Node8&#45;&gt;Node4 -->
<g id="edge20" class="edge">
<title>Node8&#45;&gt;Node4</title>
<path fill="none" stroke="midnightblue" d="M317.14,-224.47C350.13,-215.44 403.74,-200.74 450,-188 572.25,-154.33 602.62,-145.22 725,-112 852.57,-77.38 1004.59,-37.19 1070.63,-19.78"/>
<polygon fill="midnightblue" stroke="midnightblue" points="1071.69,-23.12 1080.47,-17.19 1069.91,-16.35 1071.69,-23.12"/>
</g>
<!-- Node8&#45;&gt;Node5 -->
<g id="edge22" class="edge">
<title>Node8&#45;&gt;Node5</title>
<path fill="none" stroke="midnightblue" d="M278.95,-224.43C267.51,-210.97 243.71,-184.7 219,-168 186.36,-145.94 162.59,-162.78 138,-132 114.35,-102.4 111.92,-55.93 112.68,-30.04"/>
<polygon fill="midnightblue" stroke="midnightblue" points="116.2,-29.88 113.19,-19.72 109.2,-29.54 116.2,-29.88"/>
</g>
<!-- Node9 -->
<g id="node9" class="node">
<title>Node9</title>
<g id="a_node9"><a xlink:href="ParameterDefinition_8h.xhtml" target="_top" xlink:title="In this file, the header of the ParameterDefinition class is defined.">
<polygon fill="white" stroke="black" points="180.5,-112.5 180.5,-131.5 371.5,-131.5 371.5,-112.5 180.5,-112.5"/>
<text text-anchor="middle" x="276" y="-119.5" font-family="Helvetica,sans-Serif" font-size="10.00">../parameters/ParameterDefinition.h</text>
</a>
</g>
</g>
<!-- Node8&#45;&gt;Node9 -->
<g id="edge13" class="edge">
<title>Node8&#45;&gt;Node9</title>
<path fill="none" stroke="midnightblue" d="M285.22,-224.37C283.6,-206.62 279.88,-165.67 277.69,-141.6"/>
<polygon fill="midnightblue" stroke="midnightblue" points="281.17,-141.23 276.78,-131.59 274.2,-141.87 281.17,-141.23"/>
</g>
<!-- Node10 -->
<g id="node10" class="node">
<title>Node10</title>
<g id="a_node10"><a xlink:href="Status_8h.xhtml" target="_top" xlink:title="In this file, the header of the Status class is defined.">
<polygon fill="white" stroke="black" points="646,-168.5 646,-187.5 744,-187.5 744,-168.5 646,-168.5"/>
<text text-anchor="middle" x="695" y="-175.5" font-family="Helvetica,sans-Serif" font-size="10.00">../status/Status.h</text>
</a>
</g>
</g>
<!-- Node8&#45;&gt;Node10 -->
<g id="edge16" class="edge">
<title>Node8&#45;&gt;Node10</title>
<path fill="none" stroke="midnightblue" d="M350.81,-224.44C429.11,-214.1 559.77,-196.85 635.58,-186.85"/>
<polygon fill="midnightblue" stroke="midnightblue" points="636.44,-190.26 645.9,-185.48 635.53,-183.32 636.44,-190.26"/>
</g>
<!-- Node8&#45;&gt;Node11 -->
<g id="edge18" class="edge">
<title>Node8&#45;&gt;Node11</title>
<path fill="none" stroke="midnightblue" d="M265.56,-224.44C244.33,-215.56 210.9,-201.56 186.75,-191.45"/>
<polygon fill="midnightblue" stroke="midnightblue" points="187.92,-188.15 177.34,-187.52 185.22,-194.61 187.92,-188.15"/>
</g>
<!-- Node8&#45;&gt;Node12 -->
<g id="edge19" class="edge">
<title>Node8&#45;&gt;Node12</title>
<path fill="none" stroke="midnightblue" d="M309.54,-224.37C364.92,-204.06 503.09,-153.4 560.43,-132.38"/>
<polygon fill="midnightblue" stroke="midnightblue" points="561.67,-135.65 569.85,-128.92 559.26,-129.08 561.67,-135.65"/>
</g>
<!-- Node8&#45;&gt;Node13 -->
<g id="edge21" class="edge">
<title>Node8&#45;&gt;Node13</title>
<path fill="none" stroke="midnightblue" d="M351.74,-228.4C511.56,-217.2 915.6,-188.9 1027.74,-181.05"/>
<polygon fill="midnightblue" stroke="midnightblue" points="1028.22,-184.52 1037.95,-180.33 1027.73,-177.54 1028.22,-184.52"/>
</g>
<!-- Node9&#45;&gt;Node2 -->
<g id="edge14" class="edge">
<title>Node9&#45;&gt;Node2</title>
<path fill="none" stroke="midnightblue" d="M318.15,-112.44C368.2,-102.28 451.15,-85.44 500.79,-75.37"/>
<polygon fill="midnightblue" stroke="midnightblue" points="501.75,-78.74 510.85,-73.32 500.36,-71.88 501.75,-78.74"/>
</g>
<!-- Node9&#45;&gt;Node3 -->
<g id="edge15" class="edge">
<title>Node9&#45;&gt;Node3</title>
<path fill="none" stroke="midnightblue" d="M301.23,-112.46C359.7,-92.67 504.38,-43.7 568.97,-21.84"/>
<polygon fill="midnightblue" stroke="midnightblue" points="570.27,-25.1 578.62,-18.57 568.03,-18.47 570.27,-25.1"/>
</g>
<!-- Node10&#45;&gt;Node3 -->
<g id="edge17" class="edge">
<title>Node10&#45;&gt;Node3</title>
<path fill="none" stroke="midnightblue" d="M742.2,-168.43C793.28,-158.69 868.6,-142.73 877,-132 882.48,-125 882.09,-119.29 877,-112 820.75,-31.52 693.1,-14.96 633.19,-11.7"/>
<polygon fill="midnightblue" stroke="midnightblue" points="633.3,-8.2 623.16,-11.25 632.99,-15.2 633.3,-8.2"/>
</g>
<!-- Node14&#45;&gt;Node2 -->
<g id="edge24" class="edge">
<title>Node14&#45;&gt;Node2</title>
<path fill="none" stroke="midnightblue" d="M1049.37,-286.55C941.79,-282.22 753.54,-270.96 691,-244 620.97,-213.81 602.28,-196.12 561,-132 551.95,-117.94 547.09,-99.45 544.56,-85.78"/>
<polygon fill="midnightblue" stroke="midnightblue" points="547.98,-84.97 542.94,-75.64 541.06,-86.07 547.98,-84.97"/>
</g>
<!-- Node14&#45;&gt;Node4 -->
<g id="edge41" class="edge">
<title>Node14&#45;&gt;Node4</title>
<path fill="none" stroke="midnightblue" d="M1128.49,-280.41C1129.98,-271.38 1132.15,-256.74 1133,-244 1133.59,-235.13 1133.4,-232.88 1133,-224 1129.66,-149.11 1132.55,-129.54 1118,-56 1116.23,-47.07 1113.36,-37.4 1110.67,-29.33"/>
<polygon fill="midnightblue" stroke="midnightblue" points="1113.95,-28.11 1107.36,-19.82 1107.34,-30.42 1113.95,-28.11"/>
</g>
<!-- Node14&#45;&gt;Node5 -->
<g id="edge44" class="edge">
<title>Node14&#45;&gt;Node5</title>
<path fill="none" stroke="midnightblue" d="M1049.44,-286.96C843.13,-281.27 291.05,-264.35 211,-244 146.46,-227.6 76,-245.59 76,-179 76,-179 76,-179 76,-121 76,-86.81 92.6,-49.76 103.86,-28.57"/>
<polygon fill="midnightblue" stroke="midnightblue" points="106.95,-30.22 108.72,-19.77 100.82,-26.83 106.95,-30.22"/>
</g>
<!-- Node14&#45;&gt;Node6 -->
<g id="edge25" class="edge">
<title>Node14&#45;&gt;Node6</title>
<path fill="none" stroke="midnightblue" d="M1148.17,-280.44C1179.36,-267.87 1239.54,-243.77 1291,-224 1320.61,-212.63 1354.45,-200.08 1378.81,-191.13"/>
<polygon fill="midnightblue" stroke="midnightblue" points="1380.11,-194.38 1388.29,-187.65 1377.7,-187.81 1380.11,-194.38"/>
</g>
<!-- Node14&#45;&gt;Node10 -->
<g id="edge40" class="edge">
<title>Node14&#45;&gt;Node10</title>
<path fill="none" stroke="midnightblue" d="M1049.1,-285.76C933.99,-280.23 729.35,-267.24 705,-244 692.76,-232.31 691.34,-212.37 692.32,-197.65"/>
<polygon fill="midnightblue" stroke="midnightblue" points="695.8,-197.95 693.39,-187.63 688.84,-197.2 695.8,-197.95"/>
</g>
<!-- Node14&#45;&gt;Node13 -->
<g id="edge43" class="edge">
<title>Node14&#45;&gt;Node13</title>
<path fill="none" stroke="midnightblue" d="M1121.51,-280.37C1110.01,-262.3 1083.2,-220.18 1068.01,-196.31"/>
<polygon fill="midnightblue" stroke="midnightblue" points="1070.79,-194.15 1062.47,-187.59 1064.88,-197.91 1070.79,-194.15"/>
</g>
<!-- Node15 -->
<g id="node15" class="node">
<title>Node15</title>
<g id="a_node15"><a xlink:href="Multithreaded_8h.xhtml" target="_top" xlink:title="In this file, the header of the Multithreaded class is defined.">
<polygon fill="white" stroke="black" points="1299.5,-224.5 1299.5,-243.5 1426.5,-243.5 1426.5,-224.5 1299.5,-224.5"/>
<text text-anchor="middle" x="1363" y="-231.5" font-family="Helvetica,sans-Serif" font-size="10.00">../utils/Multithreaded.h</text>
</a>
</g>
</g>
<!-- Node14&#45;&gt;Node15 -->
<g id="edge26" class="edge">
<title>Node14&#45;&gt;Node15</title>
<path fill="none" stroke="midnightblue" d="M1164.39,-280.44C1205.39,-271.06 1271.25,-255.99 1315.78,-245.8"/>
<polygon fill="midnightblue" stroke="midnightblue" points="1316.81,-249.16 1325.78,-243.52 1315.25,-242.34 1316.81,-249.16"/>
</g>
<!-- Node17 -->
<g id="node17" class="node">
<title>Node17</title>
<g id="a_node17"><a xlink:title=" ">
<polygon fill="white" stroke="#bfbfbf" points="1795.5,-112.5 1795.5,-131.5 1842.5,-131.5 1842.5,-112.5 1795.5,-112.5"/>
<text text-anchor="middle" x="1819" y="-119.5" font-family="Helvetica,sans-Serif" font-size="10.00">queue</text>
</a>
</g>
</g>
<!-- Node14&#45;&gt;Node17 -->
<g id="edge46" class="edge">
<title>Node14&#45;&gt;Node17</title>
<path fill="none" stroke="midnightblue" d="M1204.62,-288.06C1363.53,-284.49 1718.15,-267.57 1804,-188 1816.59,-176.33 1819.63,-156.38 1819.96,-141.66"/>
<polygon fill="midnightblue" stroke="midnightblue" points="1823.46,-141.58 1819.79,-131.64 1816.46,-141.69 1823.46,-141.58"/>
</g>
<!-- Node14&#45;&gt;Node19 -->
<g id="edge42" class="edge">
<title>Node14&#45;&gt;Node19</title>
<path fill="none" stroke="midnightblue" d="M1138.54,-280.29C1148.64,-272.05 1162.93,-258.76 1171,-244 1178.9,-229.55 1182.65,-211.1 1184.43,-197.55"/>
<polygon fill="midnightblue" stroke="midnightblue" points="1187.92,-197.83 1185.5,-187.52 1180.96,-197.09 1187.92,-197.83"/>
</g>
<!-- Node24 -->
<g id="node24" class="node">
<title>Node24</title>
<g id="a_node24"><a xlink:title=" ">
<polygon fill="white" stroke="#bfbfbf" points="762,-168.5 762,-187.5 830,-187.5 830,-168.5 762,-168.5"/>
<text text-anchor="middle" x="796" y="-175.5" font-family="Helvetica,sans-Serif" font-size="10.00">filesystem</text>
</a>
</g>
</g>
<!-- Node14&#45;&gt;Node24 -->
<g id="edge45" class="edge">
<title>Node14&#45;&gt;Node24</title>
<path fill="none" stroke="midnightblue" d="M1049.38,-286.04C935.96,-280.9 735.94,-268.46 714,-244 695.01,-222.83 729.91,-203.24 759.9,-191.22"/>
<polygon fill="midnightblue" stroke="midnightblue" points="761.29,-194.43 769.38,-187.59 758.79,-187.9 761.29,-194.43"/>
</g>
<!-- Node15&#45;&gt;Node13 -->
<g id="edge29" class="edge">
<title>Node15&#45;&gt;Node13</title>
<path fill="none" stroke="midnightblue" d="M1314.51,-224.44C1250.19,-213.09 1138.65,-193.41 1086.05,-184.13"/>
<polygon fill="midnightblue" stroke="midnightblue" points="1086.5,-180.65 1076.05,-182.36 1085.29,-187.55 1086.5,-180.65"/>
</g>
<!-- Node16 -->
<g id="node16" class="node">
<title>Node16</title>
<g id="a_node16"><a xlink:title=" ">
<polygon fill="white" stroke="#bfbfbf" points="1524,-112.5 1524,-131.5 1572,-131.5 1572,-112.5 1524,-112.5"/>
<text text-anchor="middle" x="1548" y="-119.5" font-family="Helvetica,sans-Serif" font-size="10.00">mutex</text>
</a>
</g>
</g>
<!-- Node15&#45;&gt;Node16 -->
<g id="edge27" class="edge">
<title>Node15&#45;&gt;Node16</title>
<path fill="none" stroke="midnightblue" d="M1426.57,-228.84C1459.25,-223.62 1497.65,-212.3 1524,-188 1537.11,-175.91 1543.08,-156.03 1545.79,-141.44"/>
<polygon fill="midnightblue" stroke="midnightblue" points="1549.26,-141.93 1547.29,-131.52 1542.33,-140.89 1549.26,-141.93"/>
</g>
<!-- Node15&#45;&gt;Node17 -->
<g id="edge28" class="edge">
<title>Node15&#45;&gt;Node17</title>
<path fill="none" stroke="midnightblue" d="M1426.89,-233.02C1529.18,-231.93 1724.02,-224.89 1781,-188 1797.42,-177.37 1807.63,-156.95 1813.28,-141.82"/>
<polygon fill="midnightblue" stroke="midnightblue" points="1816.73,-142.55 1816.61,-131.96 1810.09,-140.31 1816.73,-142.55"/>
</g>
<!-- Node18 -->
<g id="node18" class="node">
<title>Node18</title>
<g id="a_node18"><a xlink:title=" ">
<polygon fill="white" stroke="#bfbfbf" points="1576.5,-168.5 1576.5,-187.5 1641.5,-187.5 1641.5,-168.5 1576.5,-168.5"/>
<text text-anchor="middle" x="1609" y="-175.5" font-family="Helvetica,sans-Serif" font-size="10.00">functional</text>
</a>
</g>
</g>
<!-- Node15&#45;&gt;Node18 -->
<g id="edge30" class="edge">
<title>Node15&#45;&gt;Node18</title>
<path fill="none" stroke="midnightblue" d="M1401.98,-224.44C1446.82,-214.6 1520.19,-198.49 1566.48,-188.33"/>
<polygon fill="midnightblue" stroke="midnightblue" points="1567.47,-191.7 1576.49,-186.14 1565.97,-184.86 1567.47,-191.7"/>
</g>
<!-- Node15&#45;&gt;Node19 -->
<g id="edge31" class="edge">
<title>Node15&#45;&gt;Node19</title>
<path fill="none" stroke="midnightblue" d="M1332.27,-224.47C1303.44,-216.33 1258.92,-203.47 1211.85,-188.15"/>
<polygon fill="midnightblue" stroke="midnightblue" points="1212.68,-184.74 1202.09,-184.95 1210.5,-191.39 1212.68,-184.74"/>
</g>
<!-- Node20 -->
<g id="node20" class="node">
<title>Node20</title>
<g id="a_node20"><a xlink:href="ThreadsafeQueue_8h.xhtml" target="_top" xlink:title="In this file, the header of the ThreadSafeQueue class is defined.">
<polygon fill="white" stroke="black" points="1660,-168.5 1660,-187.5 1772,-187.5 1772,-168.5 1660,-168.5"/>
<text text-anchor="middle" x="1716" y="-175.5" font-family="Helvetica,sans-Serif" font-size="10.00">ThreadsafeQueue.h</text>
</a>
</g>
</g>
<!-- Node15&#45;&gt;Node20 -->
<g id="edge32" class="edge">
<title>Node15&#45;&gt;Node20</title>
<path fill="none" stroke="midnightblue" d="M1418.93,-224.44C1481.8,-214.83 1583.77,-199.23 1650.36,-189.04"/>
<polygon fill="midnightblue" stroke="midnightblue" points="1650.97,-192.49 1660.33,-187.52 1649.91,-185.57 1650.97,-192.49"/>
</g>
<!-- Node22 -->
<g id="node22" class="node">
<title>Node22</title>
<g id="a_node22"><a xlink:href="Multithreaded_8tpp.xhtml" target="_top" xlink:title="In this file, the implementation of the Multithreaded class is defined.">
<polygon fill="white" stroke="black" points="1220,-168.5 1220,-187.5 1324,-187.5 1324,-168.5 1220,-168.5"/>
<text text-anchor="middle" x="1272" y="-175.5" font-family="Helvetica,sans-Serif" font-size="10.00">Multithreaded.tpp</text>
</a>
</g>
</g>
<!-- Node15&#45;&gt;Node22 -->
<g id="edge37" class="edge">
<title>Node15&#45;&gt;Node22</title>
<path fill="none" stroke="midnightblue" d="M1348.38,-224.32C1334.05,-215.82 1311.99,-202.73 1295.25,-192.8"/>
<polygon fill="midnightblue" stroke="midnightblue" points="1296.97,-189.75 1286.58,-187.65 1293.4,-195.77 1296.97,-189.75"/>
</g>
<!-- Node20&#45;&gt;Node16 -->
<g id="edge34" class="edge">
<title>Node20&#45;&gt;Node16</title>
<path fill="none" stroke="midnightblue" d="M1689.38,-168.44C1660.24,-159.08 1613.46,-144.04 1581.77,-133.85"/>
<polygon fill="midnightblue" stroke="midnightblue" points="1582.64,-130.46 1572.05,-130.73 1580.5,-137.12 1582.64,-130.46"/>
</g>
<!-- Node20&#45;&gt;Node17 -->
<g id="edge33" class="edge">
<title>Node20&#45;&gt;Node17</title>
<path fill="none" stroke="midnightblue" d="M1732.55,-168.32C1748.99,-159.7 1774.43,-146.36 1793.47,-136.39"/>
<polygon fill="midnightblue" stroke="midnightblue" points="1795.26,-139.4 1802.49,-131.65 1792.01,-133.2 1795.26,-139.4"/>
</g>
<!-- Node21 -->
<g id="node21" class="node">
<title>Node21</title>
<g id="a_node21"><a xlink:href="ThreadsafeQueue_8tpp.xhtml" target="_top" xlink:title="In this file, the implementation of the ThreadSafeQueue class is defined.">
<polygon fill="white" stroke="black" points="1655,-112.5 1655,-131.5 1777,-131.5 1777,-112.5 1655,-112.5"/>
<text text-anchor="middle" x="1716" y="-119.5" font-family="Helvetica,sans-Serif" font-size="10.00">ThreadsafeQueue.tpp</text>
</a>
</g>
</g>
<!-- Node20&#45;&gt;Node21 -->
<g id="edge35" class="edge">
<title>Node20&#45;&gt;Node21</title>
<path fill="none" stroke="midnightblue" d="M1710.83,-168.08C1709.32,-160.93 1708.89,-150.64 1709.54,-141.69"/>
<polygon fill="midnightblue" stroke="midnightblue" points="1713.02,-142.13 1710.87,-131.75 1706.08,-141.2 1713.02,-142.13"/>
</g>
<!-- Node21&#45;&gt;Node20 -->
<g id="edge36" class="edge">
<title>Node21&#45;&gt;Node20</title>
<path fill="none" stroke="midnightblue" d="M1721.13,-131.75C1722.66,-138.86 1723.1,-149.14 1722.47,-158.1"/>
<polygon fill="midnightblue" stroke="midnightblue" points="1718.99,-157.71 1721.17,-168.08 1725.93,-158.62 1718.99,-157.71"/>
</g>
<!-- Node22&#45;&gt;Node12 -->
<g id="edge39" class="edge">
<title>Node22&#45;&gt;Node12</title>
<path fill="none" stroke="midnightblue" d="M1219.79,-169.04C1216.82,-168.66 1213.87,-168.31 1211,-168 1150.82,-161.4 722.79,-132.26 612.09,-124.76"/>
<polygon fill="midnightblue" stroke="midnightblue" points="612.32,-121.27 602.11,-124.09 611.85,-128.25 612.32,-121.27"/>
</g>
<!-- Node23 -->
<g id="node23" class="node">
<title>Node23</title>
<g id="a_node23"><a xlink:title=" ">
<polygon fill="white" stroke="#bfbfbf" points="1249,-112.5 1249,-131.5 1295,-131.5 1295,-112.5 1249,-112.5"/>
<text text-anchor="middle" x="1272" y="-119.5" font-family="Helvetica,sans-Serif" font-size="10.00">future</text>
</a>
</g>
</g>
<!-- Node22&#45;&gt;Node23 -->
<g id="edge38" class="edge">
<title>Node22&#45;&gt;Node23</title>
<path fill="none" stroke="midnightblue" d="M1272,-168.08C1272,-161.01 1272,-150.86 1272,-141.99"/>
<polygon fill="midnightblue" stroke="midnightblue" points="1275.5,-141.75 1272,-131.75 1268.5,-141.75 1275.5,-141.75"/>
</g>
<!-- Node25&#45;&gt;Node2 -->
<g id="edge48" class="edge">
<title>Node25&#45;&gt;Node2</title>
<path fill="none" stroke="midnightblue" d="M807.39,-224.47C825.76,-211.73 854.8,-187.17 839,-168 785.73,-103.36 732.42,-161.43 654,-132 619.74,-119.14 583.78,-96.36 562.12,-81.47"/>
<polygon fill="midnightblue" stroke="midnightblue" points="563.96,-78.49 553.76,-75.63 559.95,-84.23 563.96,-78.49"/>
</g>
<!-- Node25&#45;&gt;Node10 -->
<g id="edge49" class="edge">
<title>Node25&#45;&gt;Node10</title>
<path fill="none" stroke="midnightblue" d="M778.09,-224.32C762.36,-215.74 738.06,-202.49 719.79,-192.52"/>
<polygon fill="midnightblue" stroke="midnightblue" points="721.32,-189.37 710.87,-187.65 717.97,-195.52 721.32,-189.37"/>
</g>
<!-- Node25&#45;&gt;Node13 -->
<g id="edge52" class="edge">
<title>Node25&#45;&gt;Node13</title>
<path fill="none" stroke="midnightblue" d="M835.67,-224.44C889.29,-213.44 981.07,-194.59 1027.8,-185"/>
<polygon fill="midnightblue" stroke="midnightblue" points="1028.77,-188.37 1037.86,-182.93 1027.36,-181.51 1028.77,-188.37"/>
</g>
<!-- Node25&#45;&gt;Node19 -->
<g id="edge50" class="edge">
<title>Node25&#45;&gt;Node19</title>
<path fill="none" stroke="midnightblue" d="M856.11,-224.44C943.28,-212.44 1098.12,-191.11 1159.69,-182.62"/>
<polygon fill="midnightblue" stroke="midnightblue" points="1160.31,-186.07 1169.74,-181.24 1159.35,-179.14 1160.31,-186.07"/>
</g>
<!-- Node25&#45;&gt;Node24 -->
<g id="edge51" class="edge">
<title>Node25&#45;&gt;Node24</title>
<path fill="none" stroke="midnightblue" d="M794.33,-224.08C794.59,-217.01 794.97,-206.86 795.3,-197.99"/>
<polygon fill="midnightblue" stroke="midnightblue" points="798.8,-197.87 795.68,-187.75 791.81,-197.61 798.8,-197.87"/>
</g>
<!-- Node26&#45;&gt;Node2 -->
<g id="edge55" class="edge">
<title>Node26&#45;&gt;Node2</title>
<path fill="none" stroke="midnightblue" d="M582.99,-280.34C563.2,-273.84 541.03,-262.72 529,-244 496.99,-194.18 520.37,-119.4 534.02,-85.22"/>
<polygon fill="midnightblue" stroke="midnightblue" points="537.4,-86.21 538.02,-75.63 530.94,-83.51 537.4,-86.21"/>
</g>
<!-- Node26&#45;&gt;Node4 -->
<g id="edge68" class="edge">
<title>Node26&#45;&gt;Node4</title>
<path fill="none" stroke="midnightblue" d="M680.16,-286.94C775.9,-282.76 964.07,-271.29 1024,-244 1057.5,-228.75 1068.41,-220.85 1085,-188 1111.41,-135.68 1109.12,-63.74 1106.16,-29.97"/>
<polygon fill="midnightblue" stroke="midnightblue" points="1109.61,-29.31 1105.13,-19.71 1102.64,-30.01 1109.61,-29.31"/>
</g>
<!-- Node26&#45;&gt;Node5 -->
<g id="edge67" class="edge">
<title>Node26&#45;&gt;Node5</title>
<path fill="none" stroke="midnightblue" d="M565.9,-287.86C431.12,-284.7 101.52,-273.95 62,-244 37.46,-225.4 38,-209.8 38,-179 38,-179 38,-179 38,-121 38,-90.2 44.47,-81.32 62,-56 70.18,-44.19 82.15,-33.54 92.55,-25.57"/>
<polygon fill="midnightblue" stroke="midnightblue" points="94.79,-28.27 100.8,-19.54 90.66,-22.62 94.79,-28.27"/>
</g>
<!-- Node26&#45;&gt;Node10 -->
<g id="edge66" class="edge">
<title>Node26&#45;&gt;Node10</title>
<path fill="none" stroke="midnightblue" d="M616.55,-280.39C607.62,-267.33 593.8,-242.13 605,-224 614.67,-208.35 631.62,-197.96 648.22,-191.15"/>
<polygon fill="midnightblue" stroke="midnightblue" points="649.75,-194.32 657.9,-187.54 647.31,-187.76 649.75,-194.32"/>
</g>
<!-- Node26&#45;&gt;Node24 -->
<g id="edge69" class="edge">
<title>Node26&#45;&gt;Node24</title>
<path fill="none" stroke="midnightblue" d="M628.76,-280.24C638.19,-266.52 658.15,-239.89 681,-224 702.7,-208.91 730.16,-197.92 752.81,-190.58"/>
<polygon fill="midnightblue" stroke="midnightblue" points="754,-193.87 762.51,-187.56 751.92,-187.19 754,-193.87"/>
</g>
<!-- Node27 -->
<g id="node27" class="node">
<title>Node27</title>
<g id="a_node27"><a xlink:href="ValueMap_8h.xhtml" target="_top" xlink:title="In this file, the header of the ValueMap class is defined.">
<polygon fill="white" stroke="black" points="883,-224.5 883,-243.5 1015,-243.5 1015,-224.5 883,-224.5"/>
<text text-anchor="middle" x="949" y="-231.5" font-family="Helvetica,sans-Serif" font-size="10.00">../controller/ValueMap.h</text>
</a>
</g>
</g>
<!-- Node26&#45;&gt;Node27 -->
<g id="edge56" class="edge">
<title>Node26&#45;&gt;Node27</title>
<path fill="none" stroke="midnightblue" d="M674.66,-280.44C732.48,-270.87 826.11,-255.36 887.62,-245.17"/>
<polygon fill="midnightblue" stroke="midnightblue" points="888.29,-248.6 897.59,-243.52 887.15,-241.7 888.29,-248.6"/>
</g>
<!-- Node27&#45;&gt;Node2 -->
<g id="edge57" class="edge">
<title>Node27&#45;&gt;Node2</title>
<path fill="none" stroke="midnightblue" d="M941.51,-224.38C928.84,-210.36 901.75,-182.71 873,-168 812.74,-137.16 789.87,-151.35 725,-132 670.96,-115.88 609.41,-93.07 573.23,-79.2"/>
<polygon fill="midnightblue" stroke="midnightblue" points="574.32,-75.87 563.73,-75.54 571.8,-82.4 574.32,-75.87"/>
</g>
<!-- Node27&#45;&gt;Node4 -->
<g id="edge61" class="edge">
<title>Node27&#45;&gt;Node4</title>
<path fill="none" stroke="midnightblue" d="M955.08,-224.3C978.17,-191.22 1060.77,-72.91 1091.96,-28.24"/>
<polygon fill="midnightblue" stroke="midnightblue" points="1094.94,-30.09 1097.8,-19.88 1089.2,-26.08 1094.94,-30.09"/>
</g>
<!-- Node27&#45;&gt;Node5 -->
<g id="edge63" class="edge">
<title>Node27&#45;&gt;Node5</title>
<path fill="none" stroke="midnightblue" d="M882.7,-224.82C695.89,-201.7 178.21,-137.26 171,-132 153.37,-119.15 130.91,-59.96 120.21,-29.39"/>
<polygon fill="midnightblue" stroke="midnightblue" points="123.39,-27.88 116.83,-19.56 116.77,-30.16 123.39,-27.88"/>
</g>
<!-- Node27&#45;&gt;Node6 -->
<g id="edge58" class="edge">
<title>Node27&#45;&gt;Node6</title>
<path fill="none" stroke="midnightblue" d="M1015.34,-225.26C1098.88,-215.52 1242.31,-198.79 1331.89,-188.34"/>
<polygon fill="midnightblue" stroke="midnightblue" points="1332.47,-191.8 1342,-187.16 1331.66,-184.85 1332.47,-191.8"/>
</g>
<!-- Node27&#45;&gt;Node7 -->
<g id="edge59" class="edge">
<title>Node27&#45;&gt;Node7</title>
<path fill="none" stroke="midnightblue" d="M951.77,-224.41C955.54,-210.92 960.48,-184.6 948,-168 931.5,-146.06 904.53,-134.48 878.17,-128.48"/>
<polygon fill="midnightblue" stroke="midnightblue" points="878.61,-125 868.12,-126.45 877.22,-131.86 878.61,-125"/>
</g>
<!-- Node27&#45;&gt;Node12 -->
<g id="edge62" class="edge">
<title>Node27&#45;&gt;Node12</title>
<path fill="none" stroke="midnightblue" d="M937.5,-224.29C918.23,-210.15 877.69,-182.34 839,-168 797.53,-152.63 668.52,-134.07 612.46,-126.49"/>
<polygon fill="midnightblue" stroke="midnightblue" points="612.64,-122.98 602.27,-125.12 611.71,-129.92 612.64,-122.98"/>
</g>
<!-- Node27&#45;&gt;Node13 -->
<g id="edge60" class="edge">
<title>Node27&#45;&gt;Node13</title>
<path fill="none" stroke="midnightblue" d="M966.35,-224.32C983.67,-215.66 1010.52,-202.24 1030.5,-192.25"/>
<polygon fill="midnightblue" stroke="midnightblue" points="1032.31,-195.26 1039.69,-187.65 1029.18,-189 1032.31,-195.26"/>
</g>
<!-- Node27&#45;&gt;Node16 -->
<g id="edge65" class="edge">
<title>Node27&#45;&gt;Node16</title>
<path fill="none" stroke="midnightblue" d="M1015.22,-230.28C1150.52,-224.31 1449.45,-208.94 1491,-188 1511.87,-177.48 1528.43,-155.72 1538.21,-140.27"/>
<polygon fill="midnightblue" stroke="midnightblue" points="1541.26,-142.01 1543.4,-131.63 1535.26,-138.4 1541.26,-142.01"/>
</g>
<!-- Node27&#45;&gt;Node19 -->
<g id="edge64" class="edge">
<title>Node27&#45;&gt;Node19</title>
<path fill="none" stroke="midnightblue" d="M986.55,-224.44C1034.94,-213.42 1117.82,-194.53 1159.88,-184.95"/>
<polygon fill="midnightblue" stroke="midnightblue" points="1160.91,-188.31 1169.88,-182.67 1159.35,-181.48 1160.91,-188.31"/>
</g>
</g>
</svg>
