<?xml version="1.0" encoding="UTF-8" standalone="no"?>
<!DOCTYPE svg PUBLIC "-//W3C//DTD SVG 1.1//EN"
 "http://www.w3.org/Graphics/SVG/1.1/DTD/svg11.dtd">
<!-- Generated by graphviz version 2.43.0 (0)
 -->
<!-- Title: src/controller/Controller.h Pages: 1 -->
<svg width="552pt" height="140pt"
 viewBox="0.00 0.00 552.00 140.00" xmlns="http://www.w3.org/2000/svg" xmlns:xlink="http://www.w3.org/1999/xlink">
<g id="graph0" class="graph" transform="scale(1 1) rotate(0) translate(4 136)">
<title>src/controller/Controller.h</title>
<polygon fill="white" stroke="transparent" points="-4,4 -4,-136 548,-136 548,4 -4,4"/>
<!-- Node1 -->
<g id="node1" class="node">
<title>Node1</title>
<g id="a_node1"><a xlink:title="In this file, the header of the Controller class is defined.">
<polygon fill="#bfbfbf" stroke="black" points="239.5,-112.5 239.5,-131.5 379.5,-131.5 379.5,-112.5 239.5,-112.5"/>
<text text-anchor="middle" x="309.5" y="-119.5" font-family="Helvetica,sans-Serif" font-size="10.00">src/controller/Controller.h</text>
</a>
</g>
</g>
<!-- Node2 -->
<g id="node2" class="node">
<title>Node2</title>
<g id="a_node2"><a xlink:href="Controller_8cpp.xhtml" target="_top" xlink:title="In this file, the implementation of the Controller class is defined.">
<polygon fill="white" stroke="black" points="0,-0.5 0,-19.5 151,-19.5 151,-0.5 0,-0.5"/>
<text text-anchor="middle" x="75.5" y="-7.5" font-family="Helvetica,sans-Serif" font-size="10.00">src/controller/Controller.cpp</text>
</a>
</g>
</g>
<!-- Node1&#45;&gt;Node2 -->
<g id="edge1" class="edge">
<title>Node1&#45;&gt;Node2</title>
<path fill="none" stroke="midnightblue" d="M260.82,-109.98C232.19,-102.48 195.77,-91.16 165.5,-76 133.79,-60.12 101.17,-33.49 85.33,-19.76"/>
<polygon fill="midnightblue" stroke="midnightblue" points="260.05,-113.39 270.6,-112.47 261.78,-106.61 260.05,-113.39"/>
</g>
<!-- Node3 -->
<g id="node3" class="node">
<title>Node3</title>
<g id="a_node3"><a xlink:href="StubController_8h.xhtml" target="_top" xlink:title="In this file, the header of the StubController class is defined.">
<polygon fill="white" stroke="black" points="175,-56.5 175,-75.5 336,-75.5 336,-56.5 175,-56.5"/>
<text text-anchor="middle" x="255.5" y="-63.5" font-family="Helvetica,sans-Serif" font-size="10.00">src/controller/StubController.h</text>
</a>
</g>
</g>
<!-- Node1&#45;&gt;Node3 -->
<g id="edge2" class="edge">
<title>Node1&#45;&gt;Node3</title>
<path fill="none" stroke="midnightblue" d="M293.5,-105C283.93,-95.43 272.14,-83.64 264.25,-75.75"/>
<polygon fill="midnightblue" stroke="midnightblue" points="291.04,-107.49 300.58,-112.08 295.99,-102.54 291.04,-107.49"/>
</g>
<!-- Node5 -->
<g id="node5" class="node">
<title>Node5</title>
<g id="a_node5"><a xlink:href="main_8cpp.xhtml" target="_top" xlink:title="In this file, the main function running the Simopticon framework is defined.">
<polygon fill="white" stroke="black" points="360,-0.5 360,-19.5 439,-19.5 439,-0.5 360,-0.5"/>
<text text-anchor="middle" x="399.5" y="-7.5" font-family="Helvetica,sans-Serif" font-size="10.00">src/main.cpp</text>
</a>
</g>
</g>
<!-- Node1&#45;&gt;Node5 -->
<g id="edge6" class="edge">
<title>Node1&#45;&gt;Node5</title>
<path fill="none" stroke="midnightblue" d="M322.93,-104.59C342.33,-80.87 377.52,-37.87 392.47,-19.59"/>
<polygon fill="midnightblue" stroke="midnightblue" points="320.19,-102.41 316.56,-112.37 325.6,-106.85 320.19,-102.41"/>
</g>
<!-- Node6 -->
<g id="node6" class="node">
<title>Node6</title>
<g id="a_node6"><a xlink:href="Optimizer_8cpp.xhtml" target="_top" xlink:title="In this file, the implementation of the Optimizer class is defined.">
<polygon fill="white" stroke="black" points="393,-56.5 393,-75.5 544,-75.5 544,-56.5 393,-56.5"/>
<text text-anchor="middle" x="468.5" y="-63.5" font-family="Helvetica,sans-Serif" font-size="10.00">src/optimizer/Optimizer.cpp</text>
</a>
</g>
</g>
<!-- Node1&#45;&gt;Node6 -->
<g id="edge7" class="edge">
<title>Node1&#45;&gt;Node6</title>
<path fill="none" stroke="midnightblue" d="M344.33,-109.17C374.27,-99 416.72,-84.59 443.42,-75.52"/>
<polygon fill="midnightblue" stroke="midnightblue" points="343.04,-105.91 334.69,-112.44 345.29,-112.54 343.04,-105.91"/>
</g>
<!-- Node3&#45;&gt;Node2 -->
<g id="edge4" class="edge">
<title>Node3&#45;&gt;Node2</title>
<path fill="none" stroke="midnightblue" d="M217.39,-53.57C183.44,-43.38 134.51,-28.7 103.89,-19.52"/>
<polygon fill="midnightblue" stroke="midnightblue" points="216.39,-56.92 226.98,-56.44 218.41,-50.22 216.39,-56.92"/>
</g>
<!-- Node4 -->
<g id="node4" class="node">
<title>Node4</title>
<g id="a_node4"><a xlink:href="StubController_8cpp.xhtml" target="_top" xlink:title="In this file, the implementation of the StubController class is defined.">
<polygon fill="white" stroke="black" points="169,-0.5 169,-19.5 342,-19.5 342,-0.5 169,-0.5"/>
<text text-anchor="middle" x="255.5" y="-7.5" font-family="Helvetica,sans-Serif" font-size="10.00">src/controller/StubController.cpp</text>
</a>
</g>
</g>
<!-- Node3&#45;&gt;Node4 -->
<g id="edge3" class="edge">
<title>Node3&#45;&gt;Node4</title>
<path fill="none" stroke="midnightblue" d="M255.5,-45.8C255.5,-36.91 255.5,-26.78 255.5,-19.75"/>
<polygon fill="midnightblue" stroke="midnightblue" points="252,-46.08 255.5,-56.08 259,-46.08 252,-46.08"/>
</g>
<!-- Node3&#45;&gt;Node5 -->
<g id="edge5" class="edge">
<title>Node3&#45;&gt;Node5</title>
<path fill="none" stroke="midnightblue" d="M287.75,-52.91C314.82,-42.75 352.82,-28.51 376.79,-19.52"/>
<polygon fill="midnightblue" stroke="midnightblue" points="286.45,-49.66 278.32,-56.44 288.91,-56.21 286.45,-49.66"/>
</g>
</g>
</svg>
