<?xml version="1.0" encoding="UTF-8" standalone="no"?>
<!DOCTYPE svg PUBLIC "-//W3C//DTD SVG 1.1//EN"
 "http://www.w3.org/Graphics/SVG/1.1/DTD/svg11.dtd">
<!-- Generated by graphviz version 2.43.0 (0)
 -->
<!-- Title: src/evaluation/constant_headway Pages: 1 -->
<svg width="148pt" height="151pt"
 viewBox="0.00 0.00 148.00 151.00" xmlns="http://www.w3.org/2000/svg" xmlns:xlink="http://www.w3.org/1999/xlink">
<g id="graph0" class="graph" transform="scale(1 1) rotate(0) translate(4 147)">
<title>src/evaluation/constant_headway</title>
<polygon fill="white" stroke="transparent" points="-4,4 -4,-147 144,-147 144,4 -4,4"/>
<g id="clust1" class="cluster">
<title>clusterdir_211e0f6adb36544d22235d2adc40a517</title>
<g id="a_clust1"><a xlink:href="dir_211e0f6adb36544d22235d2adc40a517.xhtml" target="_top" xlink:title="evaluation">
<polygon fill="#ddddee" stroke="black" points="8,-64 8,-135 132,-135 132,-64 8,-64"/>
<text text-anchor="middle" x="70" y="-123" font-family="Helvetica,sans-Serif" font-size="10.00">evaluation</text>
</a>
</g>
</g>
<!-- dir_b9b26cefe975a1133bec7a4d690190d9 -->
<g id="node1" class="node">
<title>dir_b9b26cefe975a1133bec7a4d690190d9</title>
<g id="a_node1"><a xlink:href="dir_b9b26cefe975a1133bec7a4d690190d9.xhtml" target="_top" xlink:title="constant_headway">
<polygon fill="#eeeeff" stroke="black" points="124,-108 16,-108 16,-72 124,-72 124,-108"/>
<text text-anchor="middle" x="70" y="-87.5" font-family="Helvetica,sans-Serif" font-size="10.00">constant_headway</text>
</a>
</g>
</g>
<!-- dir_313caf1132e152dd9b58bea13a4052ca -->
<g id="node2" class="node">
<title>dir_313caf1132e152dd9b58bea13a4052ca</title>
<g id="a_node2"><a xlink:href="dir_313caf1132e152dd9b58bea13a4052ca.xhtml" target="_top" xlink:title="utils">
<polygon fill="none" stroke="black" points="97,-36 43,-36 43,0 97,0 97,-36"/>
<text text-anchor="middle" x="70" y="-15.5" font-family="Helvetica,sans-Serif" font-size="10.00">utils</text>
</a>
</g>
</g>
<!-- dir_b9b26cefe975a1133bec7a4d690190d9&#45;&gt;dir_313caf1132e152dd9b58bea13a4052ca -->
<g id="edge1" class="edge">
<title>dir_b9b26cefe975a1133bec7a4d690190d9&#45;&gt;dir_313caf1132e152dd9b58bea13a4052ca</title>
<path fill="none" stroke="black" d="M70,-71.7C70,-63.98 70,-54.71 70,-46.11"/>
<polygon fill="black" stroke="black" points="73.5,-46.1 70,-36.1 66.5,-46.1 73.5,-46.1"/>
<g id="a_edge1&#45;headlabel"><a xlink:href="dir_000003_000011.xhtml" target="_top" xlink:title="1">
<text text-anchor="middle" x="76.34" y="-47.2" font-family="Helvetica,sans-Serif" font-size="10.00">1</text>
</a>
</g>
</g>
</g>
</svg>
