<?xml version="1.0" encoding="UTF-8" standalone="no"?>
<!DOCTYPE svg PUBLIC "-//W3C//DTD SVG 1.1//EN"
 "http://www.w3.org/Graphics/SVG/1.1/DTD/svg11.dtd">
<!-- Generated by graphviz version 2.43.0 (0)
 -->
<!-- Title: /home/runner/work/Simopticon/Simopticon/src/optimizer Pages: 1 -->
<svg width="498pt" height="239pt"
 viewBox="0.00 0.00 498.00 239.00" xmlns="http://www.w3.org/2000/svg" xmlns:xlink="http://www.w3.org/1999/xlink">
<g id="graph0" class="graph" transform="scale(1 1) rotate(0) translate(4 235)">
<title>/home/runner/work/Simopticon/Simopticon/src/optimizer</title>
<polygon fill="white" stroke="transparent" points="-4,4 -4,-235 494,-235 494,4 -4,4"/>
<g id="clust1" class="cluster">
<title>clusterdir_d60bff54a8563e68d2216c43d85b14c6</title>
<g id="a_clust1"><a xlink:href="dir_d60bff54a8563e68d2216c43d85b14c6.xhtml" target="_top" xlink:title="src">
<polygon fill="#ddddee" stroke="black" points="8,-8 8,-223 482,-223 482,-8 8,-8"/>
<text text-anchor="middle" x="245" y="-211" font-family="Helvetica,sans-Serif" font-size="10.00">src</text>
</a>
</g>
</g>
<g id="clust2" class="cluster">
<title>clusterdir_73384fdeffbbc95c2842eb1d043b1e8b</title>
<g id="a_clust2"><a xlink:href="dir_73384fdeffbbc95c2842eb1d043b1e8b.xhtml" target="_top">
<polygon fill="#eeeeff" stroke="black" points="100,-80 100,-132 462,-132 462,-80 100,-80"/>
</a>
</g>
</g>
<!-- dir_3665e743d8a0456ad0a3390167838d2d -->
<g id="node1" class="node">
<title>dir_3665e743d8a0456ad0a3390167838d2d</title>
<g id="a_node1"><a xlink:href="dir_3665e743d8a0456ad0a3390167838d2d.xhtml" target="_top" xlink:title="utils">
<polygon fill="none" stroke="black" points="141,-52 87,-52 87,-16 141,-16 141,-52"/>
<text text-anchor="middle" x="114" y="-31.5" font-family="Helvetica,sans-Serif" font-size="10.00">utils</text>
</a>
</g>
</g>
<!-- dir_a3c4a1d834482353a11eff58ca091e1a -->
<g id="node2" class="node">
<title>dir_a3c4a1d834482353a11eff58ca091e1a</title>
<g id="a_node2"><a xlink:href="dir_a3c4a1d834482353a11eff58ca091e1a.xhtml" target="_top" xlink:title="parameters">
<polygon fill="none" stroke="black" points="391.5,-52 318.5,-52 318.5,-16 391.5,-16 391.5,-52"/>
<text text-anchor="middle" x="355" y="-31.5" font-family="Helvetica,sans-Serif" font-size="10.00">parameters</text>
</a>
</g>
</g>
<!-- dir_a9b790eb2cf6fd2d46bd88177bae791e -->
<g id="node3" class="node">
<title>dir_a9b790eb2cf6fd2d46bd88177bae791e</title>
<g id="a_node3"><a xlink:href="dir_a9b790eb2cf6fd2d46bd88177bae791e.xhtml" target="_top" xlink:title="status">
<polygon fill="none" stroke="black" points="70,-124 16,-124 16,-88 70,-88 70,-124"/>
<text text-anchor="middle" x="43" y="-103.5" font-family="Helvetica,sans-Serif" font-size="10.00">status</text>
</a>
</g>
</g>
<!-- dir_bb72d452b5d5f8d9665874f32947aa30 -->
<g id="node4" class="node">
<title>dir_bb72d452b5d5f8d9665874f32947aa30</title>
<g id="a_node4"><a xlink:href="dir_bb72d452b5d5f8d9665874f32947aa30.xhtml" target="_top" xlink:title="controller">
<polygon fill="none" stroke="black" points="257.5,-196 194.5,-196 194.5,-160 257.5,-160 257.5,-196"/>
<text text-anchor="middle" x="226" y="-175.5" font-family="Helvetica,sans-Serif" font-size="10.00">controller</text>
</a>
</g>
</g>
<!-- dir_a9b790eb2cf6fd2d46bd88177bae791e&#45;&gt;dir_bb72d452b5d5f8d9665874f32947aa30 -->
<g id="edge17" class="edge">
<title>dir_a9b790eb2cf6fd2d46bd88177bae791e&#45;&gt;dir_bb72d452b5d5f8d9665874f32947aa30</title>
<path fill="none" stroke="black" d="M70.13,-119.69C77.5,-123.98 85.41,-128.55 93,-132 122.74,-145.54 157.72,-156.68 184.43,-164.48"/>
<polygon fill="black" stroke="black" points="183.66,-167.9 194.24,-167.31 185.6,-161.18 183.66,-167.9"/>
<g id="a_edge17&#45;headlabel"><a xlink:href="dir_000017_000006.xhtml" target="_top" xlink:title="1">
<text text-anchor="middle" x="179.42" y="-167.14" font-family="Helvetica,sans-Serif" font-size="10.00">1</text>
</a>
</g>
</g>
<!-- dir_73384fdeffbbc95c2842eb1d043b1e8b -->
<g id="node5" class="node">
<title>dir_73384fdeffbbc95c2842eb1d043b1e8b</title>
<text text-anchor="middle" x="140" y="-103.5" font-family="Helvetica,sans-Serif" font-size="10.00">optimizer</text>
</g>
<!-- dir_a9b790eb2cf6fd2d46bd88177bae791e&#45;&gt;dir_73384fdeffbbc95c2842eb1d043b1e8b -->
<g id="edge16" class="edge">
<title>dir_a9b790eb2cf6fd2d46bd88177bae791e&#45;&gt;dir_73384fdeffbbc95c2842eb1d043b1e8b</title>
<path fill="none" stroke="black" d="M70.28,-106C79.61,-106 88.95,-106 98.28,-106"/>
<polygon fill="black" stroke="black" points="98.41,-109.5 108.41,-106 98.41,-102.5 98.41,-109.5"/>
<g id="a_edge16&#45;headlabel"><a xlink:href="dir_000017_000009.xhtml" target="_top" xlink:title="1">
<text text-anchor="middle" x="94.81" y="-109.84" font-family="Helvetica,sans-Serif" font-size="10.00">1</text>
</a>
</g>
</g>
<!-- dir_bb72d452b5d5f8d9665874f32947aa30&#45;&gt;dir_3665e743d8a0456ad0a3390167838d2d -->
<g id="edge2" class="edge">
<title>dir_bb72d452b5d5f8d9665874f32947aa30&#45;&gt;dir_3665e743d8a0456ad0a3390167838d2d</title>
<path fill="none" stroke="black" d="M194.22,-175.89C163.41,-172.92 118.17,-163.13 96,-132 81.27,-111.31 89.64,-82.04 99.3,-61.08"/>
<polygon fill="black" stroke="black" points="102.45,-62.6 103.75,-52.09 96.17,-59.5 102.45,-62.6"/>
<g id="a_edge2&#45;headlabel"><a xlink:href="dir_000006_000018.xhtml" target="_top" xlink:title="1">
<text text-anchor="middle" x="103.4" y="-64.59" font-family="Helvetica,sans-Serif" font-size="10.00">1</text>
</a>
</g>
</g>
<!-- dir_bb72d452b5d5f8d9665874f32947aa30&#45;&gt;dir_a3c4a1d834482353a11eff58ca091e1a -->
<g id="edge5" class="edge">
<title>dir_bb72d452b5d5f8d9665874f32947aa30&#45;&gt;dir_a3c4a1d834482353a11eff58ca091e1a</title>
<path fill="none" stroke="black" d="M257.7,-175.88C316.73,-173.07 439.87,-163.48 466,-132 480.76,-114.22 478.91,-99.17 466,-80 451.56,-58.57 424.99,-47.34 401.47,-41.46"/>
<polygon fill="black" stroke="black" points="402.14,-38.03 391.62,-39.25 400.61,-44.86 402.14,-38.03"/>
<g id="a_edge5&#45;headlabel"><a xlink:href="dir_000006_000014.xhtml" target="_top" xlink:title="2">
<text text-anchor="middle" x="406.27" y="-33.54" font-family="Helvetica,sans-Serif" font-size="10.00">2</text>
</a>
</g>
</g>
<!-- dir_bb72d452b5d5f8d9665874f32947aa30&#45;&gt;dir_a9b790eb2cf6fd2d46bd88177bae791e -->
<g id="edge6" class="edge">
<title>dir_bb72d452b5d5f8d9665874f32947aa30&#45;&gt;dir_a9b790eb2cf6fd2d46bd88177bae791e</title>
<path fill="none" stroke="black" d="M194.48,-171.02C163.05,-163.67 114.42,-149.95 75,-132 72.97,-131.07 70.91,-130.07 68.86,-129.01"/>
<polygon fill="black" stroke="black" points="70.54,-125.94 60.11,-124.1 67.12,-132.04 70.54,-125.94"/>
<g id="a_edge6&#45;headlabel"><a xlink:href="dir_000006_000017.xhtml" target="_top" xlink:title="1">
<text text-anchor="middle" x="75.07" y="-122.72" font-family="Helvetica,sans-Serif" font-size="10.00">1</text>
</a>
</g>
</g>
<!-- dir_bb72d452b5d5f8d9665874f32947aa30&#45;&gt;dir_73384fdeffbbc95c2842eb1d043b1e8b -->
<g id="edge4" class="edge">
<title>dir_bb72d452b5d5f8d9665874f32947aa30&#45;&gt;dir_73384fdeffbbc95c2842eb1d043b1e8b</title>
<path fill="none" stroke="black" d="M204.74,-159.7C193.91,-150.88 180.58,-140.03 168.84,-130.47"/>
<polygon fill="black" stroke="black" points="170.98,-127.7 161.01,-124.1 166.56,-133.13 170.98,-127.7"/>
<g id="a_edge4&#45;headlabel"><a xlink:href="dir_000006_000009.xhtml" target="_top" xlink:title="5">
<text text-anchor="middle" x="175.56" y="-125.27" font-family="Helvetica,sans-Serif" font-size="10.00">5</text>
</a>
</g>
</g>
<!-- dir_0f30671e74f5846f3b74522ef71a06d6 -->
<g id="node6" class="node">
<title>dir_0f30671e74f5846f3b74522ef71a06d6</title>
<g id="a_node6"><a xlink:href="dir_0f30671e74f5846f3b74522ef71a06d6.xhtml" target="_top" xlink:title="direct">
<polygon fill="white" stroke="red" points="334,-124 280,-124 280,-88 334,-88 334,-124"/>
<text text-anchor="middle" x="307" y="-103.5" font-family="Helvetica,sans-Serif" font-size="10.00">direct</text>
</a>
</g>
</g>
<!-- dir_bb72d452b5d5f8d9665874f32947aa30&#45;&gt;dir_0f30671e74f5846f3b74522ef71a06d6 -->
<g id="edge1" class="edge">
<title>dir_bb72d452b5d5f8d9665874f32947aa30&#45;&gt;dir_0f30671e74f5846f3b74522ef71a06d6</title>
<path fill="none" stroke="black" d="M251.94,-159.7C262.84,-151.05 275.28,-140.45 285.64,-131.03"/>
<polygon fill="black" stroke="black" points="288.15,-133.47 293.1,-124.1 283.39,-128.34 288.15,-133.47"/>
<g id="a_edge1&#45;headlabel"><a xlink:href="dir_000006_000010.xhtml" target="_top" xlink:title="2">
<text text-anchor="middle" x="287.45" y="-135.5" font-family="Helvetica,sans-Serif" font-size="10.00">2</text>
</a>
</g>
</g>
<!-- dir_e11eeec074eae8a341f2ac4839b2cc72 -->
<g id="node7" class="node">
<title>dir_e11eeec074eae8a341f2ac4839b2cc72</title>
<g id="a_node7"><a xlink:href="dir_e11eeec074eae8a341f2ac4839b2cc72.xhtml" target="_top" xlink:title="montecarlo">
<polygon fill="white" stroke="black" points="262,-124 190,-124 190,-88 262,-88 262,-124"/>
<text text-anchor="middle" x="226" y="-103.5" font-family="Helvetica,sans-Serif" font-size="10.00">montecarlo</text>
</a>
</g>
</g>
<!-- dir_bb72d452b5d5f8d9665874f32947aa30&#45;&gt;dir_e11eeec074eae8a341f2ac4839b2cc72 -->
<g id="edge7" class="edge">
<title>dir_bb72d452b5d5f8d9665874f32947aa30&#45;&gt;dir_e11eeec074eae8a341f2ac4839b2cc72</title>
<path fill="none" stroke="black" d="M231.92,-159.7C232.71,-151.98 232.94,-142.71 232.6,-134.11"/>
<polygon fill="black" stroke="black" points="236.08,-133.84 231.9,-124.1 229.1,-134.32 236.08,-133.84"/>
<g id="a_edge7&#45;headlabel"><a xlink:href="dir_000006_000012.xhtml" target="_top" xlink:title="1">
<text text-anchor="middle" x="239.17" y="-134.72" font-family="Helvetica,sans-Serif" font-size="10.00">1</text>
</a>
</g>
</g>
<!-- dir_5b043100a5c4286150eb5bd96697c561 -->
<g id="node8" class="node">
<title>dir_5b043100a5c4286150eb5bd96697c561</title>
<g id="a_node8"><a xlink:href="dir_5b043100a5c4286150eb5bd96697c561.xhtml" target="_top" xlink:title="randomneighbors">
<polygon fill="white" stroke="black" points="454,-124 352,-124 352,-88 454,-88 454,-124"/>
<text text-anchor="middle" x="403" y="-103.5" font-family="Helvetica,sans-Serif" font-size="10.00">randomneighbors</text>
</a>
</g>
</g>
<!-- dir_bb72d452b5d5f8d9665874f32947aa30&#45;&gt;dir_5b043100a5c4286150eb5bd96697c561 -->
<g id="edge3" class="edge">
<title>dir_bb72d452b5d5f8d9665874f32947aa30&#45;&gt;dir_5b043100a5c4286150eb5bd96697c561</title>
<path fill="none" stroke="black" d="M257.65,-167.72C283.46,-158.75 320.28,-144.7 352,-132 355.24,-130.7 358.57,-129.35 361.92,-127.98"/>
<polygon fill="black" stroke="black" points="363.39,-131.16 371.28,-124.1 360.7,-124.7 363.39,-131.16"/>
<g id="a_edge3&#45;headlabel"><a xlink:href="dir_000006_000013.xhtml" target="_top" xlink:title="1">
<text text-anchor="middle" x="361.15" y="-132.66" font-family="Helvetica,sans-Serif" font-size="10.00">1</text>
</a>
</g>
</g>
<!-- dir_73384fdeffbbc95c2842eb1d043b1e8b&#45;&gt;dir_3665e743d8a0456ad0a3390167838d2d -->
<g id="edge10" class="edge">
<title>dir_73384fdeffbbc95c2842eb1d043b1e8b&#45;&gt;dir_3665e743d8a0456ad0a3390167838d2d</title>
<path fill="none" stroke="black" d="M133.57,-87.7C130.64,-79.81 127.11,-70.3 123.86,-61.55"/>
<polygon fill="black" stroke="black" points="127.12,-60.26 120.35,-52.1 120.55,-62.7 127.12,-60.26"/>
<g id="a_edge10&#45;headlabel"><a xlink:href="dir_000009_000018.xhtml" target="_top" xlink:title="1">
<text text-anchor="middle" x="131.03" y="-60.14" font-family="Helvetica,sans-Serif" font-size="10.00">1</text>
</a>
</g>
</g>
<!-- dir_73384fdeffbbc95c2842eb1d043b1e8b&#45;&gt;dir_a9b790eb2cf6fd2d46bd88177bae791e -->
<g id="edge11" class="edge">
<title>dir_73384fdeffbbc95c2842eb1d043b1e8b&#45;&gt;dir_a9b790eb2cf6fd2d46bd88177bae791e</title>
<path fill="none" stroke="black" d="M108.41,-106C99.08,-106 89.74,-106 80.41,-106"/>
<polygon fill="black" stroke="black" points="80.28,-102.5 70.28,-106 80.28,-109.5 80.28,-102.5"/>
<g id="a_edge11&#45;headlabel"><a xlink:href="dir_000009_000017.xhtml" target="_top" xlink:title="1">
<text text-anchor="middle" x="83.88" y="-97.16" font-family="Helvetica,sans-Serif" font-size="10.00">1</text>
</a>
</g>
</g>
<!-- dir_0f30671e74f5846f3b74522ef71a06d6&#45;&gt;dir_a3c4a1d834482353a11eff58ca091e1a -->
<g id="edge12" class="edge">
<title>dir_0f30671e74f5846f3b74522ef71a06d6&#45;&gt;dir_a3c4a1d834482353a11eff58ca091e1a</title>
<path fill="none" stroke="black" d="M318.87,-87.7C324.5,-79.47 331.35,-69.48 337.57,-60.42"/>
<polygon fill="black" stroke="black" points="340.5,-62.33 343.27,-52.1 334.73,-58.37 340.5,-62.33"/>
<g id="a_edge12&#45;headlabel"><a xlink:href="dir_000010_000014.xhtml" target="_top" xlink:title="2">
<text text-anchor="middle" x="340.81" y="-64.4" font-family="Helvetica,sans-Serif" font-size="10.00">2</text>
</a>
</g>
</g>
<!-- dir_0f30671e74f5846f3b74522ef71a06d6&#45;&gt;dir_bb72d452b5d5f8d9665874f32947aa30 -->
<g id="edge13" class="edge">
<title>dir_0f30671e74f5846f3b74522ef71a06d6&#45;&gt;dir_bb72d452b5d5f8d9665874f32947aa30</title>
<path fill="none" stroke="black" d="M281.31,-124.1C270.44,-132.72 257.99,-143.32 247.6,-152.76"/>
<polygon fill="black" stroke="black" points="245.06,-150.33 240.11,-159.7 249.82,-155.47 245.06,-150.33"/>
<g id="a_edge13&#45;headlabel"><a xlink:href="dir_000010_000006.xhtml" target="_top" xlink:title="1">
<text text-anchor="middle" x="245.77" y="-143.31" font-family="Helvetica,sans-Serif" font-size="10.00">1</text>
</a>
</g>
</g>
<!-- dir_e11eeec074eae8a341f2ac4839b2cc72&#45;&gt;dir_a3c4a1d834482353a11eff58ca091e1a -->
<g id="edge8" class="edge">
<title>dir_e11eeec074eae8a341f2ac4839b2cc72&#45;&gt;dir_a3c4a1d834482353a11eff58ca091e1a</title>
<path fill="none" stroke="black" d="M256.46,-87.99C261.32,-85.31 266.29,-82.57 271,-80 284.81,-72.47 299.94,-64.32 313.52,-57.06"/>
<polygon fill="black" stroke="black" points="315.46,-59.99 322.63,-52.19 312.16,-53.82 315.46,-59.99"/>
<g id="a_edge8&#45;headlabel"><a xlink:href="dir_000012_000014.xhtml" target="_top" xlink:title="1">
<text text-anchor="middle" x="313.62" y="-61.69" font-family="Helvetica,sans-Serif" font-size="10.00">1</text>
</a>
</g>
</g>
<!-- dir_e11eeec074eae8a341f2ac4839b2cc72&#45;&gt;dir_bb72d452b5d5f8d9665874f32947aa30 -->
<g id="edge9" class="edge">
<title>dir_e11eeec074eae8a341f2ac4839b2cc72&#45;&gt;dir_bb72d452b5d5f8d9665874f32947aa30</title>
<path fill="none" stroke="black" d="M220.1,-124.1C219.3,-131.79 219.06,-141.05 219.4,-149.67"/>
<polygon fill="black" stroke="black" points="215.91,-149.96 220.08,-159.7 222.89,-149.48 215.91,-149.96"/>
<g id="a_edge9&#45;headlabel"><a xlink:href="dir_000012_000006.xhtml" target="_top" xlink:title="1">
<text text-anchor="middle" x="212.83" y="-144.07" font-family="Helvetica,sans-Serif" font-size="10.00">1</text>
</a>
</g>
</g>
<!-- dir_5b043100a5c4286150eb5bd96697c561&#45;&gt;dir_a3c4a1d834482353a11eff58ca091e1a -->
<g id="edge14" class="edge">
<title>dir_5b043100a5c4286150eb5bd96697c561&#45;&gt;dir_a3c4a1d834482353a11eff58ca091e1a</title>
<path fill="none" stroke="black" d="M391.13,-87.7C385.5,-79.47 378.65,-69.48 372.43,-60.42"/>
<polygon fill="black" stroke="black" points="375.27,-58.37 366.73,-52.1 369.5,-62.33 375.27,-58.37"/>
<g id="a_edge14&#45;headlabel"><a xlink:href="dir_000013_000014.xhtml" target="_top" xlink:title="1">
<text text-anchor="middle" x="379.65" y="-57.23" font-family="Helvetica,sans-Serif" font-size="10.00">1</text>
</a>
</g>
</g>
<!-- dir_5b043100a5c4286150eb5bd96697c561&#45;&gt;dir_bb72d452b5d5f8d9665874f32947aa30 -->
<g id="edge15" class="edge">
<title>dir_5b043100a5c4286150eb5bd96697c561&#45;&gt;dir_bb72d452b5d5f8d9665874f32947aa30</title>
<path fill="none" stroke="black" d="M353.51,-124.1C346.92,-126.77 340.29,-129.48 334,-132 311.95,-140.83 287.44,-150.31 267.26,-158.28"/>
<polygon fill="black" stroke="black" points="265.74,-155.12 257.74,-162.07 268.33,-161.63 265.74,-155.12"/>
<g id="a_edge15&#45;headlabel"><a xlink:href="dir_000013_000006.xhtml" target="_top" xlink:title="1">
<text text-anchor="middle" x="268.03" y="-148.66" font-family="Helvetica,sans-Serif" font-size="10.00">1</text>
</a>
</g>
</g>
</g>
</svg>
