<?xml version="1.0" encoding="UTF-8" standalone="no"?>
<!DOCTYPE svg PUBLIC "-//W3C//DTD SVG 1.1//EN"
 "http://www.w3.org/Graphics/SVG/1.1/DTD/svg11.dtd">
<!-- Generated by graphviz version 2.43.0 (0)
 -->
<!-- Title: src/controller Pages: 1 -->
<svg width="236pt" height="383pt"
 viewBox="0.00 0.00 236.00 383.00" xmlns="http://www.w3.org/2000/svg" xmlns:xlink="http://www.w3.org/1999/xlink">
<g id="graph0" class="graph" transform="scale(1 1) rotate(0) translate(4 379)">
<title>src/controller</title>
<polygon fill="white" stroke="transparent" points="-4,4 -4,-379 232,-379 232,4 -4,4"/>
<g id="clust1" class="cluster">
<title>clusterdir_68267d1309a1af8e8297ef4c3efbcdba</title>
<g id="a_clust1"><a xlink:href="dir_68267d1309a1af8e8297ef4c3efbcdba.xhtml" target="_top" xlink:title="src">
<polygon fill="#ddddee" stroke="black" points="8,-8 8,-367 220,-367 220,-8 8,-8"/>
<text text-anchor="middle" x="114" y="-355" font-family="Helvetica,sans-Serif" font-size="10.00">src</text>
</a>
</g>
</g>
<!-- dir_211e0f6adb36544d22235d2adc40a517 -->
<g id="node1" class="node">
<title>dir_211e0f6adb36544d22235d2adc40a517</title>
<g id="a_node1"><a xlink:href="dir_211e0f6adb36544d22235d2adc40a517.xhtml" target="_top" xlink:title="evaluation">
<polygon fill="white" stroke="red" points="111,-340 43,-340 43,-304 111,-304 111,-340"/>
<text text-anchor="middle" x="77" y="-319.5" font-family="Helvetica,sans-Serif" font-size="10.00">evaluation</text>
</a>
</g>
</g>
<!-- dir_313caf1132e152dd9b58bea13a4052ca -->
<g id="node2" class="node">
<title>dir_313caf1132e152dd9b58bea13a4052ca</title>
<g id="a_node2"><a xlink:href="dir_313caf1132e152dd9b58bea13a4052ca.xhtml" target="_top" xlink:title="utils">
<polygon fill="none" stroke="black" points="97,-52 43,-52 43,-16 97,-16 97,-52"/>
<text text-anchor="middle" x="70" y="-31.5" font-family="Helvetica,sans-Serif" font-size="10.00">utils</text>
</a>
</g>
</g>
<!-- dir_211e0f6adb36544d22235d2adc40a517&#45;&gt;dir_313caf1132e152dd9b58bea13a4052ca -->
<g id="edge8" class="edge">
<title>dir_211e0f6adb36544d22235d2adc40a517&#45;&gt;dir_313caf1132e152dd9b58bea13a4052ca</title>
<path fill="none" stroke="black" d="M67.06,-303.92C45.65,-264.82 -0.73,-166.18 27,-88 30.66,-77.68 37.29,-67.9 44.26,-59.61"/>
<polygon fill="black" stroke="black" points="46.87,-61.94 50.96,-52.16 41.67,-57.26 46.87,-61.94"/>
<g id="a_edge8&#45;headlabel"><a xlink:href="dir_000002_000011.xhtml" target="_top" xlink:title="1">
<text text-anchor="middle" x="46.58" y="-64.01" font-family="Helvetica,sans-Serif" font-size="10.00">1</text>
</a>
</g>
</g>
<!-- dir_3b5a16ca9d597ec3bd11cf60fc07b716 -->
<g id="node3" class="node">
<title>dir_3b5a16ca9d597ec3bd11cf60fc07b716</title>
<g id="a_node3"><a xlink:href="dir_3b5a16ca9d597ec3bd11cf60fc07b716.xhtml" target="_top" xlink:title="status">
<polygon fill="none" stroke="black" points="150,-268 96,-268 96,-232 150,-232 150,-268"/>
<text text-anchor="middle" x="123" y="-247.5" font-family="Helvetica,sans-Serif" font-size="10.00">status</text>
</a>
</g>
</g>
<!-- dir_211e0f6adb36544d22235d2adc40a517&#45;&gt;dir_3b5a16ca9d597ec3bd11cf60fc07b716 -->
<g id="edge9" class="edge">
<title>dir_211e0f6adb36544d22235d2adc40a517&#45;&gt;dir_3b5a16ca9d597ec3bd11cf60fc07b716</title>
<path fill="none" stroke="black" d="M88.37,-303.7C93.72,-295.56 100.2,-285.69 106.11,-276.7"/>
<polygon fill="black" stroke="black" points="109.19,-278.38 111.76,-268.1 103.34,-274.54 109.19,-278.38"/>
<g id="a_edge9&#45;headlabel"><a xlink:href="dir_000002_000010.xhtml" target="_top" xlink:title="1">
<text text-anchor="middle" x="109.59" y="-280.45" font-family="Helvetica,sans-Serif" font-size="10.00">1</text>
</a>
</g>
</g>
<!-- dir_fef26d3633d38d4ca65fa53115b5e5dd -->
<g id="node6" class="node">
<title>dir_fef26d3633d38d4ca65fa53115b5e5dd</title>
<g id="a_node6"><a xlink:href="dir_fef26d3633d38d4ca65fa53115b5e5dd.xhtml" target="_top" xlink:title="optimizer">
<polygon fill="white" stroke="red" points="211.5,-124 148.5,-124 148.5,-88 211.5,-88 211.5,-124"/>
<text text-anchor="middle" x="180" y="-103.5" font-family="Helvetica,sans-Serif" font-size="10.00">optimizer</text>
</a>
</g>
</g>
<!-- dir_3b5a16ca9d597ec3bd11cf60fc07b716&#45;&gt;dir_fef26d3633d38d4ca65fa53115b5e5dd -->
<g id="edge4" class="edge">
<title>dir_3b5a16ca9d597ec3bd11cf60fc07b716&#45;&gt;dir_fef26d3633d38d4ca65fa53115b5e5dd</title>
<path fill="none" stroke="black" d="M131.81,-231.77C139.34,-222.03 149.14,-209.18 155,-196 163.74,-176.33 167.71,-152.21 170.89,-134.04"/>
<polygon fill="black" stroke="black" points="174.35,-134.57 172.7,-124.11 167.46,-133.31 174.35,-134.57"/>
<g id="a_edge4&#45;headlabel"><a xlink:href="dir_000010_000004.xhtml" target="_top" xlink:title="1">
<text text-anchor="middle" x="176.5" y="-136.12" font-family="Helvetica,sans-Serif" font-size="10.00">1</text>
</a>
</g>
</g>
<!-- dir_41ef5d8a90b9cc03a02949a5c062e6f0 -->
<g id="node7" class="node">
<title>dir_41ef5d8a90b9cc03a02949a5c062e6f0</title>
<g id="a_node7"><a xlink:href="dir_41ef5d8a90b9cc03a02949a5c062e6f0.xhtml" target="_top" xlink:title="controller">
<polygon fill="#eeeeff" stroke="black" points="154.5,-196 91.5,-196 91.5,-160 154.5,-160 154.5,-196"/>
<text text-anchor="middle" x="123" y="-175.5" font-family="Helvetica,sans-Serif" font-size="10.00">controller</text>
</a>
</g>
</g>
<!-- dir_3b5a16ca9d597ec3bd11cf60fc07b716&#45;&gt;dir_41ef5d8a90b9cc03a02949a5c062e6f0 -->
<g id="edge3" class="edge">
<title>dir_3b5a16ca9d597ec3bd11cf60fc07b716&#45;&gt;dir_41ef5d8a90b9cc03a02949a5c062e6f0</title>
<path fill="none" stroke="black" d="M117.08,-231.7C116.29,-223.98 116.06,-214.71 116.4,-206.11"/>
<polygon fill="black" stroke="black" points="119.9,-206.32 117.1,-196.1 112.92,-205.84 119.9,-206.32"/>
<g id="a_edge3&#45;headlabel"><a xlink:href="dir_000010_000001.xhtml" target="_top" xlink:title="1">
<text text-anchor="middle" x="122.48" y="-207.61" font-family="Helvetica,sans-Serif" font-size="10.00">1</text>
</a>
</g>
</g>
<!-- dir_434cae81b587a8a3fa87d985996d40d2 -->
<g id="node4" class="node">
<title>dir_434cae81b587a8a3fa87d985996d40d2</title>
<g id="a_node4"><a xlink:href="dir_434cae81b587a8a3fa87d985996d40d2.xhtml" target="_top" xlink:title="parameters">
<polygon fill="none" stroke="black" points="203.5,-52 130.5,-52 130.5,-16 203.5,-16 203.5,-52"/>
<text text-anchor="middle" x="167" y="-31.5" font-family="Helvetica,sans-Serif" font-size="10.00">parameters</text>
</a>
</g>
</g>
<!-- dir_4b8531e8826e0d1f43bc622169bd7122 -->
<g id="node5" class="node">
<title>dir_4b8531e8826e0d1f43bc622169bd7122</title>
<g id="a_node5"><a xlink:href="dir_4b8531e8826e0d1f43bc622169bd7122.xhtml" target="_top" xlink:title="runner">
<polygon fill="white" stroke="red" points="90,-124 36,-124 36,-88 90,-88 90,-124"/>
<text text-anchor="middle" x="63" y="-103.5" font-family="Helvetica,sans-Serif" font-size="10.00">runner</text>
</a>
</g>
</g>
<!-- dir_4b8531e8826e0d1f43bc622169bd7122&#45;&gt;dir_313caf1132e152dd9b58bea13a4052ca -->
<g id="edge1" class="edge">
<title>dir_4b8531e8826e0d1f43bc622169bd7122&#45;&gt;dir_313caf1132e152dd9b58bea13a4052ca</title>
<path fill="none" stroke="black" d="M64.73,-87.7C65.5,-79.98 66.43,-70.71 67.29,-62.11"/>
<polygon fill="black" stroke="black" points="70.78,-62.4 68.29,-52.1 63.81,-61.71 70.78,-62.4"/>
<g id="a_edge1&#45;headlabel"><a xlink:href="dir_000008_000011.xhtml" target="_top" xlink:title="2">
<text text-anchor="middle" x="73.24" y="-63.76" font-family="Helvetica,sans-Serif" font-size="10.00">2</text>
</a>
</g>
</g>
<!-- dir_4b8531e8826e0d1f43bc622169bd7122&#45;&gt;dir_3b5a16ca9d597ec3bd11cf60fc07b716 -->
<g id="edge2" class="edge">
<title>dir_4b8531e8826e0d1f43bc622169bd7122&#45;&gt;dir_3b5a16ca9d597ec3bd11cf60fc07b716</title>
<path fill="none" stroke="black" d="M64.66,-124.09C66.95,-142.54 72.08,-172.43 83,-196 87.51,-205.73 94.02,-215.38 100.48,-223.73"/>
<polygon fill="black" stroke="black" points="97.84,-226.03 106.85,-231.6 103.28,-221.63 97.84,-226.03"/>
<g id="a_edge2&#45;headlabel"><a xlink:href="dir_000008_000010.xhtml" target="_top" xlink:title="1">
<text text-anchor="middle" x="93.37" y="-222.53" font-family="Helvetica,sans-Serif" font-size="10.00">1</text>
</a>
</g>
</g>
<!-- dir_fef26d3633d38d4ca65fa53115b5e5dd&#45;&gt;dir_313caf1132e152dd9b58bea13a4052ca -->
<g id="edge5" class="edge">
<title>dir_fef26d3633d38d4ca65fa53115b5e5dd&#45;&gt;dir_313caf1132e152dd9b58bea13a4052ca</title>
<path fill="none" stroke="black" d="M153.09,-87.88C138.84,-78.81 121.15,-67.55 105.76,-57.76"/>
<polygon fill="black" stroke="black" points="107.33,-54.61 97.01,-52.19 103.57,-60.51 107.33,-54.61"/>
<g id="a_edge5&#45;headlabel"><a xlink:href="dir_000004_000011.xhtml" target="_top" xlink:title="1">
<text text-anchor="middle" x="111.89" y="-51.64" font-family="Helvetica,sans-Serif" font-size="10.00">1</text>
</a>
</g>
</g>
<!-- dir_fef26d3633d38d4ca65fa53115b5e5dd&#45;&gt;dir_3b5a16ca9d597ec3bd11cf60fc07b716 -->
<g id="edge6" class="edge">
<title>dir_fef26d3633d38d4ca65fa53115b5e5dd&#45;&gt;dir_3b5a16ca9d597ec3bd11cf60fc07b716</title>
<path fill="none" stroke="black" d="M185.97,-124.11C187.08,-142.56 183.45,-172.47 173,-196 168.56,-205.99 161.86,-215.79 154.7,-224.19"/>
<polygon fill="black" stroke="black" points="151.93,-222.03 147.77,-231.77 157.1,-226.75 151.93,-222.03"/>
<g id="a_edge6&#45;headlabel"><a xlink:href="dir_000004_000010.xhtml" target="_top" xlink:title="1">
<text text-anchor="middle" x="152.26" y="-214.96" font-family="Helvetica,sans-Serif" font-size="10.00">1</text>
</a>
</g>
</g>
<!-- dir_fef26d3633d38d4ca65fa53115b5e5dd&#45;&gt;dir_434cae81b587a8a3fa87d985996d40d2 -->
<g id="edge7" class="edge">
<title>dir_fef26d3633d38d4ca65fa53115b5e5dd&#45;&gt;dir_434cae81b587a8a3fa87d985996d40d2</title>
<path fill="none" stroke="black" d="M176.79,-87.7C175.35,-79.98 173.63,-70.71 172.04,-62.11"/>
<polygon fill="black" stroke="black" points="175.44,-61.3 170.18,-52.1 168.56,-62.58 175.44,-61.3"/>
<g id="a_edge7&#45;headlabel"><a xlink:href="dir_000004_000007.xhtml" target="_top" xlink:title="3">
<text text-anchor="middle" x="178.89" y="-61.81" font-family="Helvetica,sans-Serif" font-size="10.00">3</text>
</a>
</g>
</g>
<!-- dir_41ef5d8a90b9cc03a02949a5c062e6f0&#45;&gt;dir_211e0f6adb36544d22235d2adc40a517 -->
<g id="edge10" class="edge">
<title>dir_41ef5d8a90b9cc03a02949a5c062e6f0&#45;&gt;dir_211e0f6adb36544d22235d2adc40a517</title>
<path fill="none" stroke="black" d="M107.97,-196.42C100.38,-206.22 91.78,-219.06 87,-232 79.68,-251.78 77.31,-275.58 76.7,-293.59"/>
<polygon fill="black" stroke="black" points="73.2,-293.65 76.52,-303.71 80.2,-293.77 73.2,-293.65"/>
<g id="a_edge10&#45;headlabel"><a xlink:href="dir_000001_000002.xhtml" target="_top" xlink:title="2">
<text text-anchor="middle" x="70.43" y="-287.5" font-family="Helvetica,sans-Serif" font-size="10.00">2</text>
</a>
</g>
</g>
<!-- dir_41ef5d8a90b9cc03a02949a5c062e6f0&#45;&gt;dir_313caf1132e152dd9b58bea13a4052ca -->
<g id="edge11" class="edge">
<title>dir_41ef5d8a90b9cc03a02949a5c062e6f0&#45;&gt;dir_313caf1132e152dd9b58bea13a4052ca</title>
<path fill="none" stroke="black" d="M119.65,-159.88C115.8,-141.67 108.72,-112.2 99,-88 95.36,-78.95 90.54,-69.48 85.88,-61.09"/>
<polygon fill="black" stroke="black" points="88.76,-59.09 80.75,-52.16 82.69,-62.57 88.76,-59.09"/>
<g id="a_edge11&#45;headlabel"><a xlink:href="dir_000001_000011.xhtml" target="_top" xlink:title="1">
<text text-anchor="middle" x="93.01" y="-58.29" font-family="Helvetica,sans-Serif" font-size="10.00">1</text>
</a>
</g>
</g>
<!-- dir_41ef5d8a90b9cc03a02949a5c062e6f0&#45;&gt;dir_3b5a16ca9d597ec3bd11cf60fc07b716 -->
<g id="edge12" class="edge">
<title>dir_41ef5d8a90b9cc03a02949a5c062e6f0&#45;&gt;dir_3b5a16ca9d597ec3bd11cf60fc07b716</title>
<path fill="none" stroke="black" d="M128.9,-196.1C129.7,-203.79 129.94,-213.05 129.6,-221.67"/>
<polygon fill="black" stroke="black" points="126.11,-221.48 128.92,-231.7 133.09,-221.96 126.11,-221.48"/>
<g id="a_edge12&#45;headlabel"><a xlink:href="dir_000001_000010.xhtml" target="_top" xlink:title="1">
<text text-anchor="middle" x="123.52" y="-215.2" font-family="Helvetica,sans-Serif" font-size="10.00">1</text>
</a>
</g>
</g>
<!-- dir_41ef5d8a90b9cc03a02949a5c062e6f0&#45;&gt;dir_434cae81b587a8a3fa87d985996d40d2 -->
<g id="edge13" class="edge">
<title>dir_41ef5d8a90b9cc03a02949a5c062e6f0&#45;&gt;dir_434cae81b587a8a3fa87d985996d40d2</title>
<path fill="none" stroke="black" d="M124.81,-159.9C127.07,-141.71 131.69,-112.26 140,-88 143.11,-78.91 147.53,-69.44 151.89,-61.05"/>
<polygon fill="black" stroke="black" points="155.03,-62.58 156.71,-52.12 148.88,-59.25 155.03,-62.58"/>
<g id="a_edge13&#45;headlabel"><a xlink:href="dir_000001_000007.xhtml" target="_top" xlink:title="2">
<text text-anchor="middle" x="155.82" y="-64.59" font-family="Helvetica,sans-Serif" font-size="10.00">2</text>
</a>
</g>
</g>
<!-- dir_41ef5d8a90b9cc03a02949a5c062e6f0&#45;&gt;dir_4b8531e8826e0d1f43bc622169bd7122 -->
<g id="edge14" class="edge">
<title>dir_41ef5d8a90b9cc03a02949a5c062e6f0&#45;&gt;dir_4b8531e8826e0d1f43bc622169bd7122</title>
<path fill="none" stroke="black" d="M108.17,-159.7C100.98,-151.3 92.2,-141.07 84.31,-131.86"/>
<polygon fill="black" stroke="black" points="86.83,-129.42 77.66,-124.1 81.51,-133.97 86.83,-129.42"/>
<g id="a_edge14&#45;headlabel"><a xlink:href="dir_000001_000008.xhtml" target="_top" xlink:title="2">
<text text-anchor="middle" x="91.32" y="-127.8" font-family="Helvetica,sans-Serif" font-size="10.00">2</text>
</a>
</g>
</g>
<!-- dir_41ef5d8a90b9cc03a02949a5c062e6f0&#45;&gt;dir_fef26d3633d38d4ca65fa53115b5e5dd -->
<g id="edge15" class="edge">
<title>dir_41ef5d8a90b9cc03a02949a5c062e6f0&#45;&gt;dir_fef26d3633d38d4ca65fa53115b5e5dd</title>
<path fill="none" stroke="black" d="M137.09,-159.7C143.92,-151.3 152.26,-141.07 159.76,-131.86"/>
<polygon fill="black" stroke="black" points="162.47,-134.07 166.07,-124.1 157.04,-129.65 162.47,-134.07"/>
<g id="a_edge15&#45;headlabel"><a xlink:href="dir_000001_000004.xhtml" target="_top" xlink:title="3">
<text text-anchor="middle" x="162.4" y="-136.15" font-family="Helvetica,sans-Serif" font-size="10.00">3</text>
</a>
</g>
</g>
</g>
</svg>
