<?xml version="1.0" encoding="UTF-8" standalone="no"?>
<!DOCTYPE svg PUBLIC "-//W3C//DTD SVG 1.1//EN"
 "http://www.w3.org/Graphics/SVG/1.1/DTD/svg11.dtd">
<!-- Generated by graphviz version 2.43.0 (0)
 -->
<!-- Title: src/runner Pages: 1 -->
<svg width="182pt" height="175pt"
 viewBox="0.00 0.00 182.00 175.00" xmlns="http://www.w3.org/2000/svg" xmlns:xlink="http://www.w3.org/1999/xlink">
<g id="graph0" class="graph" transform="scale(1 1) rotate(0) translate(4 171)">
<title>src/runner</title>
<polygon fill="white" stroke="transparent" points="-4,4 -4,-171 178,-171 178,4 -4,4"/>
<g id="clust1" class="cluster">
<title>clusterdir_68267d1309a1af8e8297ef4c3efbcdba</title>
<g id="a_clust1"><a xlink:href="dir_68267d1309a1af8e8297ef4c3efbcdba.xhtml" target="_top" xlink:title="src">
<polygon fill="#ddddee" stroke="black" points="8,-8 8,-159 166,-159 166,-8 8,-8"/>
<text text-anchor="middle" x="87" y="-147" font-family="Helvetica,sans-Serif" font-size="10.00">src</text>
</a>
</g>
</g>
<g id="clust2" class="cluster">
<title>clusterdir_4b8531e8826e0d1f43bc622169bd7122</title>
<g id="a_clust2"><a xlink:href="dir_4b8531e8826e0d1f43bc622169bd7122.xhtml" target="_top">
<polygon fill="#eeeeff" stroke="black" points="16,-80 16,-132 158,-132 158,-80 16,-80"/>
</a>
</g>
</g>
<!-- dir_313caf1132e152dd9b58bea13a4052ca -->
<g id="node1" class="node">
<title>dir_313caf1132e152dd9b58bea13a4052ca</title>
<g id="a_node1"><a xlink:href="dir_313caf1132e152dd9b58bea13a4052ca.xhtml" target="_top" xlink:title="utils">
<polygon fill="none" stroke="black" points="150,-52 96,-52 96,-16 150,-16 150,-52"/>
<text text-anchor="middle" x="123" y="-31.5" font-family="Helvetica,sans-Serif" font-size="10.00">utils</text>
</a>
</g>
</g>
<!-- dir_3b5a16ca9d597ec3bd11cf60fc07b716 -->
<g id="node2" class="node">
<title>dir_3b5a16ca9d597ec3bd11cf60fc07b716</title>
<g id="a_node2"><a xlink:href="dir_3b5a16ca9d597ec3bd11cf60fc07b716.xhtml" target="_top" xlink:title="status">
<polygon fill="none" stroke="black" points="78,-52 24,-52 24,-16 78,-16 78,-52"/>
<text text-anchor="middle" x="51" y="-31.5" font-family="Helvetica,sans-Serif" font-size="10.00">status</text>
</a>
</g>
</g>
<!-- dir_4b8531e8826e0d1f43bc622169bd7122 -->
<g id="node3" class="node">
<title>dir_4b8531e8826e0d1f43bc622169bd7122</title>
<text text-anchor="middle" x="51" y="-103.5" font-family="Helvetica,sans-Serif" font-size="10.00">runner</text>
</g>
<!-- dir_4b8531e8826e0d1f43bc622169bd7122&#45;&gt;dir_3b5a16ca9d597ec3bd11cf60fc07b716 -->
<g id="edge1" class="edge">
<title>dir_4b8531e8826e0d1f43bc622169bd7122&#45;&gt;dir_3b5a16ca9d597ec3bd11cf60fc07b716</title>
<path fill="none" stroke="black" d="M51,-87.7C51,-79.98 51,-70.71 51,-62.11"/>
<polygon fill="black" stroke="black" points="54.5,-62.1 51,-52.1 47.5,-62.1 54.5,-62.1"/>
<g id="a_edge1&#45;headlabel"><a xlink:href="dir_000008_000010.xhtml" target="_top" xlink:title="1">
<text text-anchor="middle" x="57.34" y="-63.2" font-family="Helvetica,sans-Serif" font-size="10.00">1</text>
</a>
</g>
</g>
<!-- dir_840a2e32f029e00a99e161cb1105f99d -->
<g id="node4" class="node">
<title>dir_840a2e32f029e00a99e161cb1105f99d</title>
<g id="a_node4"><a xlink:href="dir_840a2e32f029e00a99e161cb1105f99d.xhtml" target="_top" xlink:title="plexe">
<polygon fill="white" stroke="black" points="150,-124 96,-124 96,-88 150,-88 150,-124"/>
<text text-anchor="middle" x="123" y="-103.5" font-family="Helvetica,sans-Serif" font-size="10.00">plexe</text>
</a>
</g>
</g>
<!-- dir_840a2e32f029e00a99e161cb1105f99d&#45;&gt;dir_313caf1132e152dd9b58bea13a4052ca -->
<g id="edge2" class="edge">
<title>dir_840a2e32f029e00a99e161cb1105f99d&#45;&gt;dir_313caf1132e152dd9b58bea13a4052ca</title>
<path fill="none" stroke="black" d="M123,-87.7C123,-79.98 123,-70.71 123,-62.11"/>
<polygon fill="black" stroke="black" points="126.5,-62.1 123,-52.1 119.5,-62.1 126.5,-62.1"/>
<g id="a_edge2&#45;headlabel"><a xlink:href="dir_000009_000011.xhtml" target="_top" xlink:title="1">
<text text-anchor="middle" x="129.34" y="-63.2" font-family="Helvetica,sans-Serif" font-size="10.00">1</text>
</a>
</g>
</g>
</g>
</svg>
