<?xml version="1.0" encoding="UTF-8" standalone="no"?>
<!DOCTYPE svg PUBLIC "-//W3C//DTD SVG 1.1//EN"
 "http://www.w3.org/Graphics/SVG/1.1/DTD/svg11.dtd">
<!-- Generated by graphviz version 2.43.0 (0)
 -->
<!-- Title: /home/runner/work/Simopticon/Simopticon/src/optimizer/randomneighbors Pages: 1 -->
<svg width="208pt" height="151pt"
 viewBox="0.00 0.00 207.50 151.00" xmlns="http://www.w3.org/2000/svg" xmlns:xlink="http://www.w3.org/1999/xlink">
<g id="graph0" class="graph" transform="scale(1 1) rotate(0) translate(4 147)">
<title>/home/runner/work/Simopticon/Simopticon/src/optimizer/randomneighbors</title>
<polygon fill="white" stroke="transparent" points="-4,4 -4,-147 203.5,-147 203.5,4 -4,4"/>
<g id="clust1" class="cluster">
<title>clusterdir_73384fdeffbbc95c2842eb1d043b1e8b</title>
<g id="a_clust1"><a xlink:href="dir_73384fdeffbbc95c2842eb1d043b1e8b.xhtml" target="_top" xlink:title="optimizer">
<polygon fill="#ddddee" stroke="black" points="8,-64 8,-135 126,-135 126,-64 8,-64"/>
<text text-anchor="middle" x="67" y="-123" font-family="Helvetica,sans-Serif" font-size="10.00">optimizer</text>
</a>
</g>
</g>
<!-- dir_5b043100a5c4286150eb5bd96697c561 -->
<g id="node1" class="node">
<title>dir_5b043100a5c4286150eb5bd96697c561</title>
<g id="a_node1"><a xlink:href="dir_5b043100a5c4286150eb5bd96697c561.xhtml" target="_top" xlink:title="randomneighbors">
<polygon fill="#eeeeff" stroke="black" points="118,-108 16,-108 16,-72 118,-72 118,-108"/>
<text text-anchor="middle" x="67" y="-87.5" font-family="Helvetica,sans-Serif" font-size="10.00">randomneighbors</text>
</a>
</g>
</g>
<!-- dir_a3c4a1d834482353a11eff58ca091e1a -->
<g id="node2" class="node">
<title>dir_a3c4a1d834482353a11eff58ca091e1a</title>
<g id="a_node2"><a xlink:href="dir_a3c4a1d834482353a11eff58ca091e1a.xhtml" target="_top" xlink:title="parameters">
<polygon fill="none" stroke="black" points="153.5,-36 80.5,-36 80.5,0 153.5,0 153.5,-36"/>
<text text-anchor="middle" x="117" y="-15.5" font-family="Helvetica,sans-Serif" font-size="10.00">parameters</text>
</a>
</g>
</g>
<!-- dir_5b043100a5c4286150eb5bd96697c561&#45;&gt;dir_a3c4a1d834482353a11eff58ca091e1a -->
<g id="edge3" class="edge">
<title>dir_5b043100a5c4286150eb5bd96697c561&#45;&gt;dir_a3c4a1d834482353a11eff58ca091e1a</title>
<path fill="none" stroke="black" d="M79.36,-71.7C85.23,-63.47 92.37,-53.48 98.84,-44.42"/>
<polygon fill="black" stroke="black" points="101.82,-46.28 104.78,-36.1 96.12,-42.21 101.82,-46.28"/>
<g id="a_edge3&#45;headlabel"><a xlink:href="dir_000013_000014.xhtml" target="_top" xlink:title="1">
<text text-anchor="middle" x="102.04" y="-48.35" font-family="Helvetica,sans-Serif" font-size="10.00">1</text>
</a>
</g>
</g>
<!-- dir_bb72d452b5d5f8d9665874f32947aa30 -->
<g id="node3" class="node">
<title>dir_bb72d452b5d5f8d9665874f32947aa30</title>
<g id="a_node3"><a xlink:href="dir_bb72d452b5d5f8d9665874f32947aa30.xhtml" target="_top" xlink:title="controller">
<polygon fill="none" stroke="black" points="199.5,-108 136.5,-108 136.5,-72 199.5,-72 199.5,-108"/>
<text text-anchor="middle" x="168" y="-87.5" font-family="Helvetica,sans-Serif" font-size="10.00">controller</text>
</a>
</g>
</g>
<!-- dir_5b043100a5c4286150eb5bd96697c561&#45;&gt;dir_bb72d452b5d5f8d9665874f32947aa30 -->
<g id="edge4" class="edge">
<title>dir_5b043100a5c4286150eb5bd96697c561&#45;&gt;dir_bb72d452b5d5f8d9665874f32947aa30</title>
<path fill="none" stroke="black" d="M118.29,-90C120.89,-90 123.5,-90 126.1,-90"/>
<polygon fill="black" stroke="black" points="126.15,-93.5 136.15,-90 126.15,-86.5 126.15,-93.5"/>
<g id="a_edge4&#45;headlabel"><a xlink:href="dir_000013_000006.xhtml" target="_top" xlink:title="1">
<text text-anchor="middle" x="122.56" y="-93.84" font-family="Helvetica,sans-Serif" font-size="10.00">1</text>
</a>
</g>
</g>
<!-- dir_bb72d452b5d5f8d9665874f32947aa30&#45;&gt;dir_5b043100a5c4286150eb5bd96697c561 -->
<g id="edge1" class="edge">
<title>dir_bb72d452b5d5f8d9665874f32947aa30&#45;&gt;dir_5b043100a5c4286150eb5bd96697c561</title>
<path fill="none" stroke="black" d="M136.15,-90C133.55,-90 130.94,-90 128.34,-90"/>
<polygon fill="black" stroke="black" points="128.29,-86.5 118.29,-90 128.29,-93.5 128.29,-86.5"/>
<g id="a_edge1&#45;headlabel"><a xlink:href="dir_000006_000013.xhtml" target="_top" xlink:title="1">
<text text-anchor="middle" x="131.88" y="-81.16" font-family="Helvetica,sans-Serif" font-size="10.00">1</text>
</a>
</g>
</g>
<!-- dir_bb72d452b5d5f8d9665874f32947aa30&#45;&gt;dir_a3c4a1d834482353a11eff58ca091e1a -->
<g id="edge2" class="edge">
<title>dir_bb72d452b5d5f8d9665874f32947aa30&#45;&gt;dir_a3c4a1d834482353a11eff58ca091e1a</title>
<path fill="none" stroke="black" d="M155.39,-71.7C149.4,-63.47 142.12,-53.48 135.52,-44.42"/>
<polygon fill="black" stroke="black" points="138.18,-42.13 129.46,-36.1 132.52,-46.25 138.18,-42.13"/>
<g id="a_edge2&#45;headlabel"><a xlink:href="dir_000006_000014.xhtml" target="_top" xlink:title="2">
<text text-anchor="middle" x="142.59" y="-40.86" font-family="Helvetica,sans-Serif" font-size="10.00">2</text>
</a>
</g>
</g>
</g>
</svg>
