<?xml version="1.0" encoding="UTF-8" standalone="no"?>
<!DOCTYPE svg PUBLIC "-//W3C//DTD SVG 1.1//EN"
 "http://www.w3.org/Graphics/SVG/1.1/DTD/svg11.dtd">
<!-- Generated by graphviz version 2.43.0 (0)
 -->
<!-- Title: /home/runner/work/Simopticon/Simopticon/src/status Pages: 1 -->
<svg width="124pt" height="239pt"
 viewBox="0.00 0.00 124.00 239.00" xmlns="http://www.w3.org/2000/svg" xmlns:xlink="http://www.w3.org/1999/xlink">
<g id="graph0" class="graph" transform="scale(1 1) rotate(0) translate(4 235)">
<title>/home/runner/work/Simopticon/Simopticon/src/status</title>
<polygon fill="white" stroke="transparent" points="-4,4 -4,-235 120,-235 120,4 -4,4"/>
<g id="clust1" class="cluster">
<title>clusterdir_d60bff54a8563e68d2216c43d85b14c6</title>
<g id="a_clust1"><a xlink:href="dir_d60bff54a8563e68d2216c43d85b14c6.xhtml" target="_top" xlink:title="src">
<polygon fill="#ddddee" stroke="black" points="8,-8 8,-223 108,-223 108,-8 8,-8"/>
<text text-anchor="middle" x="58" y="-211" font-family="Helvetica,sans-Serif" font-size="10.00">src</text>
</a>
</g>
</g>
<!-- dir_73384fdeffbbc95c2842eb1d043b1e8b -->
<g id="node1" class="node">
<title>dir_73384fdeffbbc95c2842eb1d043b1e8b</title>
<g id="a_node1"><a xlink:href="dir_73384fdeffbbc95c2842eb1d043b1e8b.xhtml" target="_top" xlink:title="optimizer">
<polygon fill="white" stroke="red" points="89.5,-196 26.5,-196 26.5,-160 89.5,-160 89.5,-196"/>
<text text-anchor="middle" x="58" y="-175.5" font-family="Helvetica,sans-Serif" font-size="10.00">optimizer</text>
</a>
</g>
</g>
<!-- dir_bb72d452b5d5f8d9665874f32947aa30 -->
<g id="node2" class="node">
<title>dir_bb72d452b5d5f8d9665874f32947aa30</title>
<g id="a_node2"><a xlink:href="dir_bb72d452b5d5f8d9665874f32947aa30.xhtml" target="_top" xlink:title="controller">
<polygon fill="none" stroke="black" points="79.5,-124 16.5,-124 16.5,-88 79.5,-88 79.5,-124"/>
<text text-anchor="middle" x="48" y="-103.5" font-family="Helvetica,sans-Serif" font-size="10.00">controller</text>
</a>
</g>
</g>
<!-- dir_73384fdeffbbc95c2842eb1d043b1e8b&#45;&gt;dir_bb72d452b5d5f8d9665874f32947aa30 -->
<g id="edge4" class="edge">
<title>dir_73384fdeffbbc95c2842eb1d043b1e8b&#45;&gt;dir_bb72d452b5d5f8d9665874f32947aa30</title>
<path fill="none" stroke="black" d="M49.61,-159.7C47.71,-151.98 46.16,-142.71 45.28,-134.11"/>
<polygon fill="black" stroke="black" points="48.77,-133.82 44.55,-124.1 41.78,-134.33 48.77,-133.82"/>
<g id="a_edge4&#45;headlabel"><a xlink:href="dir_000009_000006.xhtml" target="_top" xlink:title="4">
<text text-anchor="middle" x="51.86" y="-134.7" font-family="Helvetica,sans-Serif" font-size="10.00">4</text>
</a>
</g>
</g>
<!-- dir_a9b790eb2cf6fd2d46bd88177bae791e -->
<g id="node3" class="node">
<title>dir_a9b790eb2cf6fd2d46bd88177bae791e</title>
<g id="a_node3"><a xlink:href="dir_a9b790eb2cf6fd2d46bd88177bae791e.xhtml" target="_top" xlink:title="status">
<polygon fill="#eeeeff" stroke="black" points="87,-52 33,-52 33,-16 87,-16 87,-52"/>
<text text-anchor="middle" x="60" y="-31.5" font-family="Helvetica,sans-Serif" font-size="10.00">status</text>
</a>
</g>
</g>
<!-- dir_73384fdeffbbc95c2842eb1d043b1e8b&#45;&gt;dir_a9b790eb2cf6fd2d46bd88177bae791e -->
<g id="edge3" class="edge">
<title>dir_73384fdeffbbc95c2842eb1d043b1e8b&#45;&gt;dir_a9b790eb2cf6fd2d46bd88177bae791e</title>
<path fill="none" stroke="black" d="M63.22,-159.91C68.92,-150.01 76.49,-136.96 80,-124 84.18,-108.56 83.96,-103.5 80,-88 77.65,-78.8 73.33,-69.47 69.13,-61.26"/>
<polygon fill="black" stroke="black" points="72.13,-59.44 64.38,-52.22 65.93,-62.7 72.13,-59.44"/>
<g id="a_edge3&#45;headlabel"><a xlink:href="dir_000009_000017.xhtml" target="_top" xlink:title="1">
<text text-anchor="middle" x="76.31" y="-58.81" font-family="Helvetica,sans-Serif" font-size="10.00">1</text>
</a>
</g>
</g>
<!-- dir_bb72d452b5d5f8d9665874f32947aa30&#45;&gt;dir_73384fdeffbbc95c2842eb1d043b1e8b -->
<g id="edge1" class="edge">
<title>dir_bb72d452b5d5f8d9665874f32947aa30&#45;&gt;dir_73384fdeffbbc95c2842eb1d043b1e8b</title>
<path fill="none" stroke="black" d="M56.34,-124.1C58.24,-131.79 59.8,-141.05 60.7,-149.67"/>
<polygon fill="black" stroke="black" points="57.21,-149.98 61.44,-159.7 64.19,-149.46 57.21,-149.98"/>
<g id="a_edge1&#45;headlabel"><a xlink:href="dir_000006_000009.xhtml" target="_top" xlink:title="5">
<text text-anchor="middle" x="54.12" y="-144.11" font-family="Helvetica,sans-Serif" font-size="10.00">5</text>
</a>
</g>
</g>
<!-- dir_bb72d452b5d5f8d9665874f32947aa30&#45;&gt;dir_a9b790eb2cf6fd2d46bd88177bae791e -->
<g id="edge2" class="edge">
<title>dir_bb72d452b5d5f8d9665874f32947aa30&#45;&gt;dir_a9b790eb2cf6fd2d46bd88177bae791e</title>
<path fill="none" stroke="black" d="M45.05,-87.7C45.58,-79.9 46.97,-70.51 48.82,-61.83"/>
<polygon fill="black" stroke="black" points="52.22,-62.65 51.17,-52.1 45.42,-61 52.22,-62.65"/>
<g id="a_edge2&#45;headlabel"><a xlink:href="dir_000006_000017.xhtml" target="_top" xlink:title="1">
<text text-anchor="middle" x="54.13" y="-64.31" font-family="Helvetica,sans-Serif" font-size="10.00">1</text>
</a>
</g>
</g>
<!-- dir_a9b790eb2cf6fd2d46bd88177bae791e&#45;&gt;dir_73384fdeffbbc95c2842eb1d043b1e8b -->
<g id="edge5" class="edge">
<title>dir_a9b790eb2cf6fd2d46bd88177bae791e&#45;&gt;dir_73384fdeffbbc95c2842eb1d043b1e8b</title>
<path fill="none" stroke="black" d="M80.23,-52.22C87.65,-62.16 94.73,-75.2 98,-88 101.96,-103.5 102.18,-108.56 98,-124 95.39,-133.62 90.55,-143.29 85.02,-151.68"/>
<polygon fill="black" stroke="black" points="82.1,-149.75 79.07,-159.91 87.77,-153.85 82.1,-149.75"/>
<g id="a_edge5&#45;headlabel"><a xlink:href="dir_000017_000009.xhtml" target="_top" xlink:title="1">
<text text-anchor="middle" x="81.9" y="-142.68" font-family="Helvetica,sans-Serif" font-size="10.00">1</text>
</a>
</g>
</g>
<!-- dir_a9b790eb2cf6fd2d46bd88177bae791e&#45;&gt;dir_bb72d452b5d5f8d9665874f32947aa30 -->
<g id="edge6" class="edge">
<title>dir_a9b790eb2cf6fd2d46bd88177bae791e&#45;&gt;dir_bb72d452b5d5f8d9665874f32947aa30</title>
<path fill="none" stroke="black" d="M62.96,-52.1C62.44,-59.88 61.07,-69.26 59.23,-77.95"/>
<polygon fill="black" stroke="black" points="55.82,-77.16 56.88,-87.7 62.63,-78.79 55.82,-77.16"/>
<g id="a_edge6&#45;headlabel"><a xlink:href="dir_000017_000006.xhtml" target="_top" xlink:title="1">
<text text-anchor="middle" x="53.9" y="-70.5" font-family="Helvetica,sans-Serif" font-size="10.00">1</text>
</a>
</g>
</g>
</g>
</svg>
