<?xml version="1.0" encoding="UTF-8" standalone="no"?>
<!DOCTYPE svg PUBLIC "-//W3C//DTD SVG 1.1//EN"
 "http://www.w3.org/Graphics/SVG/1.1/DTD/svg11.dtd">
<!-- Generated by graphviz version 2.43.0 (0)
 -->
<!-- Title: src Pages: 1 -->
<svg width="260pt" height="364pt"
 viewBox="0.00 0.00 260.00 364.00" xmlns="http://www.w3.org/2000/svg" xmlns:xlink="http://www.w3.org/1999/xlink">
<g id="graph0" class="graph" transform="scale(1 1) rotate(0) translate(4 360)">
<title>src</title>
<polygon fill="white" stroke="transparent" points="-4,4 -4,-360 256,-360 256,4 -4,4"/>
<g id="clust1" class="cluster">
<title>clusterdir_68267d1309a1af8e8297ef4c3efbcdba</title>
<g id="a_clust1"><a xlink:href="dir_68267d1309a1af8e8297ef4c3efbcdba.xhtml" target="_top">
<polygon fill="#eeeeff" stroke="black" points="8,-8 8,-348 244,-348 244,-8 8,-8"/>
</a>
</g>
</g>
<!-- dir_68267d1309a1af8e8297ef4c3efbcdba -->
<g id="node1" class="node">
<title>dir_68267d1309a1af8e8297ef4c3efbcdba</title>
<text text-anchor="middle" x="171" y="-319.5" font-family="Helvetica,sans-Serif" font-size="10.00">src</text>
</g>
<!-- dir_41ef5d8a90b9cc03a02949a5c062e6f0 -->
<g id="node2" class="node">
<title>dir_41ef5d8a90b9cc03a02949a5c062e6f0</title>
<g id="a_node2"><a xlink:href="dir_41ef5d8a90b9cc03a02949a5c062e6f0.xhtml" target="_top" xlink:title="controller">
<polygon fill="white" stroke="black" points="88.5,-340 25.5,-340 25.5,-304 88.5,-304 88.5,-340"/>
<text text-anchor="middle" x="57" y="-319.5" font-family="Helvetica,sans-Serif" font-size="10.00">controller</text>
</a>
</g>
</g>
<!-- dir_211e0f6adb36544d22235d2adc40a517 -->
<g id="node3" class="node">
<title>dir_211e0f6adb36544d22235d2adc40a517</title>
<g id="a_node3"><a xlink:href="dir_211e0f6adb36544d22235d2adc40a517.xhtml" target="_top" xlink:title="evaluation">
<polygon fill="white" stroke="red" points="144,-268 76,-268 76,-232 144,-232 144,-268"/>
<text text-anchor="middle" x="110" y="-247.5" font-family="Helvetica,sans-Serif" font-size="10.00">evaluation</text>
</a>
</g>
</g>
<!-- dir_41ef5d8a90b9cc03a02949a5c062e6f0&#45;&gt;dir_211e0f6adb36544d22235d2adc40a517 -->
<g id="edge11" class="edge">
<title>dir_41ef5d8a90b9cc03a02949a5c062e6f0&#45;&gt;dir_211e0f6adb36544d22235d2adc40a517</title>
<path fill="none" stroke="black" d="M70.1,-303.7C76.39,-295.39 84.05,-285.28 90.96,-276.14"/>
<polygon fill="black" stroke="black" points="93.8,-278.19 97.05,-268.1 88.22,-273.96 93.8,-278.19"/>
<g id="a_edge11&#45;headlabel"><a xlink:href="dir_000001_000002.xhtml" target="_top" xlink:title="2">
<text text-anchor="middle" x="93.9" y="-280.27" font-family="Helvetica,sans-Serif" font-size="10.00">2</text>
</a>
</g>
</g>
<!-- dir_fef26d3633d38d4ca65fa53115b5e5dd -->
<g id="node4" class="node">
<title>dir_fef26d3633d38d4ca65fa53115b5e5dd</title>
<g id="a_node4"><a xlink:href="dir_fef26d3633d38d4ca65fa53115b5e5dd.xhtml" target="_top" xlink:title="optimizer">
<polygon fill="white" stroke="red" points="112.5,-124 49.5,-124 49.5,-88 112.5,-88 112.5,-124"/>
<text text-anchor="middle" x="81" y="-103.5" font-family="Helvetica,sans-Serif" font-size="10.00">optimizer</text>
</a>
</g>
</g>
<!-- dir_41ef5d8a90b9cc03a02949a5c062e6f0&#45;&gt;dir_fef26d3633d38d4ca65fa53115b5e5dd -->
<g id="edge16" class="edge">
<title>dir_41ef5d8a90b9cc03a02949a5c062e6f0&#45;&gt;dir_fef26d3633d38d4ca65fa53115b5e5dd</title>
<path fill="none" stroke="black" d="M46.69,-303.65C35.52,-273.67 23.19,-210.52 38,-160 40.83,-150.35 46.02,-140.78 51.92,-132.49"/>
<polygon fill="black" stroke="black" points="54.87,-134.4 58.27,-124.37 49.36,-130.1 54.87,-134.4"/>
<g id="a_edge16&#45;headlabel"><a xlink:href="dir_000001_000004.xhtml" target="_top" xlink:title="3">
<text text-anchor="middle" x="54.9" y="-136.48" font-family="Helvetica,sans-Serif" font-size="10.00">3</text>
</a>
</g>
</g>
<!-- dir_434cae81b587a8a3fa87d985996d40d2 -->
<g id="node5" class="node">
<title>dir_434cae81b587a8a3fa87d985996d40d2</title>
<g id="a_node5"><a xlink:href="dir_434cae81b587a8a3fa87d985996d40d2.xhtml" target="_top" xlink:title="parameters">
<polygon fill="white" stroke="black" points="103.5,-52 30.5,-52 30.5,-16 103.5,-16 103.5,-52"/>
<text text-anchor="middle" x="67" y="-31.5" font-family="Helvetica,sans-Serif" font-size="10.00">parameters</text>
</a>
</g>
</g>
<!-- dir_41ef5d8a90b9cc03a02949a5c062e6f0&#45;&gt;dir_434cae81b587a8a3fa87d985996d40d2 -->
<g id="edge14" class="edge">
<title>dir_41ef5d8a90b9cc03a02949a5c062e6f0&#45;&gt;dir_434cae81b587a8a3fa87d985996d40d2</title>
<path fill="none" stroke="black" d="M48.69,-303.79C44.26,-293.63 39.26,-280.38 37,-268 22.64,-189.29 19.71,-165.4 40,-88 42.4,-78.86 46.53,-69.47 50.86,-61.19"/>
<polygon fill="black" stroke="black" points="53.95,-62.83 55.74,-52.38 47.83,-59.44 53.95,-62.83"/>
<g id="a_edge14&#45;headlabel"><a xlink:href="dir_000001_000007.xhtml" target="_top" xlink:title="2">
<text text-anchor="middle" x="54.69" y="-64.85" font-family="Helvetica,sans-Serif" font-size="10.00">2</text>
</a>
</g>
</g>
<!-- dir_4b8531e8826e0d1f43bc622169bd7122 -->
<g id="node6" class="node">
<title>dir_4b8531e8826e0d1f43bc622169bd7122</title>
<g id="a_node6"><a xlink:href="dir_4b8531e8826e0d1f43bc622169bd7122.xhtml" target="_top" xlink:title="runner">
<polygon fill="white" stroke="red" points="216,-268 162,-268 162,-232 216,-232 216,-268"/>
<text text-anchor="middle" x="189" y="-247.5" font-family="Helvetica,sans-Serif" font-size="10.00">runner</text>
</a>
</g>
</g>
<!-- dir_41ef5d8a90b9cc03a02949a5c062e6f0&#45;&gt;dir_4b8531e8826e0d1f43bc622169bd7122 -->
<g id="edge15" class="edge">
<title>dir_41ef5d8a90b9cc03a02949a5c062e6f0&#45;&gt;dir_4b8531e8826e0d1f43bc622169bd7122</title>
<path fill="none" stroke="black" d="M88.62,-304.23C107.93,-293.99 132.69,-280.86 152.79,-270.2"/>
<polygon fill="black" stroke="black" points="154.47,-273.27 161.66,-265.5 151.19,-267.09 154.47,-273.27"/>
<g id="a_edge15&#45;headlabel"><a xlink:href="dir_000001_000008.xhtml" target="_top" xlink:title="2">
<text text-anchor="middle" x="152.62" y="-274.97" font-family="Helvetica,sans-Serif" font-size="10.00">2</text>
</a>
</g>
</g>
<!-- dir_3b5a16ca9d597ec3bd11cf60fc07b716 -->
<g id="node7" class="node">
<title>dir_3b5a16ca9d597ec3bd11cf60fc07b716</title>
<g id="a_node7"><a xlink:href="dir_3b5a16ca9d597ec3bd11cf60fc07b716.xhtml" target="_top" xlink:title="status">
<polygon fill="white" stroke="black" points="110,-196 56,-196 56,-160 110,-160 110,-196"/>
<text text-anchor="middle" x="83" y="-175.5" font-family="Helvetica,sans-Serif" font-size="10.00">status</text>
</a>
</g>
</g>
<!-- dir_41ef5d8a90b9cc03a02949a5c062e6f0&#45;&gt;dir_3b5a16ca9d597ec3bd11cf60fc07b716 -->
<g id="edge13" class="edge">
<title>dir_41ef5d8a90b9cc03a02949a5c062e6f0&#45;&gt;dir_3b5a16ca9d597ec3bd11cf60fc07b716</title>
<path fill="none" stroke="black" d="M51.29,-303.79C50.27,-285.76 52.93,-256.67 58,-232 59.76,-223.43 62.29,-214.26 65.22,-205.99"/>
<polygon fill="black" stroke="black" points="68.57,-207.05 68.98,-196.46 62.06,-204.48 68.57,-207.05"/>
<g id="a_edge13&#45;headlabel"><a xlink:href="dir_000001_000010.xhtml" target="_top" xlink:title="1">
<text text-anchor="middle" x="69.89" y="-208.93" font-family="Helvetica,sans-Serif" font-size="10.00">1</text>
</a>
</g>
</g>
<!-- dir_313caf1132e152dd9b58bea13a4052ca -->
<g id="node8" class="node">
<title>dir_313caf1132e152dd9b58bea13a4052ca</title>
<g id="a_node8"><a xlink:href="dir_313caf1132e152dd9b58bea13a4052ca.xhtml" target="_top" xlink:title="utils">
<polygon fill="white" stroke="black" points="187,-52 133,-52 133,-16 187,-16 187,-52"/>
<text text-anchor="middle" x="160" y="-31.5" font-family="Helvetica,sans-Serif" font-size="10.00">utils</text>
</a>
</g>
</g>
<!-- dir_41ef5d8a90b9cc03a02949a5c062e6f0&#45;&gt;dir_313caf1132e152dd9b58bea13a4052ca -->
<g id="edge12" class="edge">
<title>dir_41ef5d8a90b9cc03a02949a5c062e6f0&#45;&gt;dir_313caf1132e152dd9b58bea13a4052ca</title>
<path fill="none" stroke="black" d="M88.55,-313.19C134.88,-301.4 216.75,-279.25 225,-268 272.24,-203.57 213.37,-106.23 180.01,-60.47"/>
<polygon fill="black" stroke="black" points="182.7,-58.22 173.92,-52.29 177.09,-62.4 182.7,-58.22"/>
<g id="a_edge12&#45;headlabel"><a xlink:href="dir_000001_000011.xhtml" target="_top" xlink:title="1">
<text text-anchor="middle" x="187.12" y="-56.9" font-family="Helvetica,sans-Serif" font-size="10.00">1</text>
</a>
</g>
</g>
<!-- dir_211e0f6adb36544d22235d2adc40a517&#45;&gt;dir_3b5a16ca9d597ec3bd11cf60fc07b716 -->
<g id="edge10" class="edge">
<title>dir_211e0f6adb36544d22235d2adc40a517&#45;&gt;dir_3b5a16ca9d597ec3bd11cf60fc07b716</title>
<path fill="none" stroke="black" d="M103.33,-231.7C100.29,-223.81 96.62,-214.3 93.24,-205.55"/>
<polygon fill="black" stroke="black" points="96.46,-204.17 89.6,-196.1 89.93,-206.69 96.46,-204.17"/>
<g id="a_edge10&#45;headlabel"><a xlink:href="dir_000002_000010.xhtml" target="_top" xlink:title="1">
<text text-anchor="middle" x="100.4" y="-204.01" font-family="Helvetica,sans-Serif" font-size="10.00">1</text>
</a>
</g>
</g>
<!-- dir_211e0f6adb36544d22235d2adc40a517&#45;&gt;dir_313caf1132e152dd9b58bea13a4052ca -->
<g id="edge9" class="edge">
<title>dir_211e0f6adb36544d22235d2adc40a517&#45;&gt;dir_313caf1132e152dd9b58bea13a4052ca</title>
<path fill="none" stroke="black" d="M114.01,-231.85C122.67,-194.75 143.22,-106.81 153.67,-62.1"/>
<polygon fill="black" stroke="black" points="157.11,-62.77 155.97,-52.23 150.29,-61.17 157.11,-62.77"/>
<g id="a_edge9&#45;headlabel"><a xlink:href="dir_000002_000011.xhtml" target="_top" xlink:title="1">
<text text-anchor="middle" x="159.05" y="-64.41" font-family="Helvetica,sans-Serif" font-size="10.00">1</text>
</a>
</g>
</g>
<!-- dir_fef26d3633d38d4ca65fa53115b5e5dd&#45;&gt;dir_41ef5d8a90b9cc03a02949a5c062e6f0 -->
<g id="edge7" class="edge">
<title>dir_fef26d3633d38d4ca65fa53115b5e5dd&#45;&gt;dir_41ef5d8a90b9cc03a02949a5c062e6f0</title>
<path fill="none" stroke="black" d="M74.22,-124.37C67.91,-134.15 59.81,-146.99 56,-160 42.69,-205.39 51.3,-260.97 56.11,-293.54"/>
<polygon fill="black" stroke="black" points="52.68,-294.25 57.56,-303.65 59.6,-293.25 52.68,-294.25"/>
<g id="a_edge7&#45;headlabel"><a xlink:href="dir_000004_000001.xhtml" target="_top" xlink:title="2">
<text text-anchor="middle" x="49.35" y="-288.59" font-family="Helvetica,sans-Serif" font-size="10.00">2</text>
</a>
</g>
</g>
<!-- dir_fef26d3633d38d4ca65fa53115b5e5dd&#45;&gt;dir_434cae81b587a8a3fa87d985996d40d2 -->
<g id="edge8" class="edge">
<title>dir_fef26d3633d38d4ca65fa53115b5e5dd&#45;&gt;dir_434cae81b587a8a3fa87d985996d40d2</title>
<path fill="none" stroke="black" d="M77.54,-87.7C76,-79.98 74.14,-70.71 72.42,-62.11"/>
<polygon fill="black" stroke="black" points="75.81,-61.22 70.42,-52.1 68.95,-62.6 75.81,-61.22"/>
<g id="a_edge8&#45;headlabel"><a xlink:href="dir_000004_000007.xhtml" target="_top" xlink:title="3">
<text text-anchor="middle" x="79.3" y="-61.69" font-family="Helvetica,sans-Serif" font-size="10.00">3</text>
</a>
</g>
</g>
<!-- dir_fef26d3633d38d4ca65fa53115b5e5dd&#45;&gt;dir_3b5a16ca9d597ec3bd11cf60fc07b716 -->
<g id="edge6" class="edge">
<title>dir_fef26d3633d38d4ca65fa53115b5e5dd&#45;&gt;dir_3b5a16ca9d597ec3bd11cf60fc07b716</title>
<path fill="none" stroke="black" d="M87.38,-124.1C88.41,-131.79 88.91,-141.05 88.82,-149.67"/>
<polygon fill="black" stroke="black" points="85.32,-149.56 88.42,-159.7 92.32,-149.84 85.32,-149.56"/>
<g id="a_edge6&#45;headlabel"><a xlink:href="dir_000004_000010.xhtml" target="_top" xlink:title="1">
<text text-anchor="middle" x="82.63" y="-143.36" font-family="Helvetica,sans-Serif" font-size="10.00">1</text>
</a>
</g>
</g>
<!-- dir_fef26d3633d38d4ca65fa53115b5e5dd&#45;&gt;dir_313caf1132e152dd9b58bea13a4052ca -->
<g id="edge5" class="edge">
<title>dir_fef26d3633d38d4ca65fa53115b5e5dd&#45;&gt;dir_313caf1132e152dd9b58bea13a4052ca</title>
<path fill="none" stroke="black" d="M100.53,-87.7C110.38,-78.97 122.49,-68.24 133.2,-58.75"/>
<polygon fill="black" stroke="black" points="135.53,-61.36 140.7,-52.1 130.89,-56.12 135.53,-61.36"/>
<g id="a_edge5&#45;headlabel"><a xlink:href="dir_000004_000011.xhtml" target="_top" xlink:title="1">
<text text-anchor="middle" x="134.73" y="-63.36" font-family="Helvetica,sans-Serif" font-size="10.00">1</text>
</a>
</g>
</g>
<!-- dir_4b8531e8826e0d1f43bc622169bd7122&#45;&gt;dir_3b5a16ca9d597ec3bd11cf60fc07b716 -->
<g id="edge2" class="edge">
<title>dir_4b8531e8826e0d1f43bc622169bd7122&#45;&gt;dir_3b5a16ca9d597ec3bd11cf60fc07b716</title>
<path fill="none" stroke="black" d="M163.07,-231.88C149.34,-222.81 132.29,-211.55 117.46,-201.76"/>
<polygon fill="black" stroke="black" points="119.3,-198.78 109.03,-196.19 115.45,-204.62 119.3,-198.78"/>
<g id="a_edge2&#45;headlabel"><a xlink:href="dir_000008_000010.xhtml" target="_top" xlink:title="1">
<text text-anchor="middle" x="123.87" y="-195.89" font-family="Helvetica,sans-Serif" font-size="10.00">1</text>
</a>
</g>
</g>
<!-- dir_4b8531e8826e0d1f43bc622169bd7122&#45;&gt;dir_313caf1132e152dd9b58bea13a4052ca -->
<g id="edge1" class="edge">
<title>dir_4b8531e8826e0d1f43bc622169bd7122&#45;&gt;dir_313caf1132e152dd9b58bea13a4052ca</title>
<path fill="none" stroke="black" d="M186.68,-231.85C181.66,-194.83 169.78,-107.18 163.71,-62.39"/>
<polygon fill="black" stroke="black" points="167.15,-61.67 162.34,-52.23 160.21,-62.61 167.15,-61.67"/>
<g id="a_edge1&#45;headlabel"><a xlink:href="dir_000008_000011.xhtml" target="_top" xlink:title="2">
<text text-anchor="middle" x="170.44" y="-62.35" font-family="Helvetica,sans-Serif" font-size="10.00">2</text>
</a>
</g>
</g>
<!-- dir_3b5a16ca9d597ec3bd11cf60fc07b716&#45;&gt;dir_41ef5d8a90b9cc03a02949a5c062e6f0 -->
<g id="edge3" class="edge">
<title>dir_3b5a16ca9d597ec3bd11cf60fc07b716&#45;&gt;dir_41ef5d8a90b9cc03a02949a5c062e6f0</title>
<path fill="none" stroke="black" d="M84.73,-196.46C82.47,-206.7 78.47,-219.95 76,-232 71.8,-252.43 69.26,-275.89 66.49,-293.59"/>
<polygon fill="black" stroke="black" points="62.98,-293.34 64.72,-303.79 69.88,-294.54 62.98,-293.34"/>
<g id="a_edge3&#45;headlabel"><a xlink:href="dir_000010_000001.xhtml" target="_top" xlink:title="1">
<text text-anchor="middle" x="60.8" y="-286.82" font-family="Helvetica,sans-Serif" font-size="10.00">1</text>
</a>
</g>
</g>
<!-- dir_3b5a16ca9d597ec3bd11cf60fc07b716&#45;&gt;dir_fef26d3633d38d4ca65fa53115b5e5dd -->
<g id="edge4" class="edge">
<title>dir_3b5a16ca9d597ec3bd11cf60fc07b716&#45;&gt;dir_fef26d3633d38d4ca65fa53115b5e5dd</title>
<path fill="none" stroke="black" d="M76.59,-159.7C75.57,-151.98 75.08,-142.71 75.18,-134.11"/>
<polygon fill="black" stroke="black" points="78.68,-134.24 75.59,-124.1 71.68,-133.95 78.68,-134.24"/>
<g id="a_edge4&#45;headlabel"><a xlink:href="dir_000010_000004.xhtml" target="_top" xlink:title="1">
<text text-anchor="middle" x="81.37" y="-135.45" font-family="Helvetica,sans-Serif" font-size="10.00">1</text>
</a>
</g>
</g>
</g>
</svg>
