<?xml version="1.0" encoding="UTF-8" standalone="no"?>
<!DOCTYPE svg PUBLIC "-//W3C//DTD SVG 1.1//EN"
 "http://www.w3.org/Graphics/SVG/1.1/DTD/svg11.dtd">
<!-- Generated by graphviz version 2.43.0 (0)
 -->
<!-- Title: /home/runner/work/Simopticon/Simopticon/src/optimizer/montecarlo Pages: 1 -->
<svg width="178pt" height="151pt"
 viewBox="0.00 0.00 177.50 151.00" xmlns="http://www.w3.org/2000/svg" xmlns:xlink="http://www.w3.org/1999/xlink">
<g id="graph0" class="graph" transform="scale(1 1) rotate(0) translate(4 147)">
<title>/home/runner/work/Simopticon/Simopticon/src/optimizer/montecarlo</title>
<polygon fill="white" stroke="transparent" points="-4,4 -4,-147 173.5,-147 173.5,4 -4,4"/>
<g id="clust1" class="cluster">
<title>clusterdir_73384fdeffbbc95c2842eb1d043b1e8b</title>
<g id="a_clust1"><a xlink:href="dir_73384fdeffbbc95c2842eb1d043b1e8b.xhtml" target="_top" xlink:title="optimizer">
<polygon fill="#ddddee" stroke="black" points="8,-64 8,-135 96,-135 96,-64 8,-64"/>
<text text-anchor="middle" x="52" y="-123" font-family="Helvetica,sans-Serif" font-size="10.00">optimizer</text>
</a>
</g>
</g>
<!-- dir_e11eeec074eae8a341f2ac4839b2cc72 -->
<g id="node1" class="node">
<title>dir_e11eeec074eae8a341f2ac4839b2cc72</title>
<g id="a_node1"><a xlink:href="dir_e11eeec074eae8a341f2ac4839b2cc72.xhtml" target="_top" xlink:title="montecarlo">
<polygon fill="#eeeeff" stroke="black" points="88,-108 16,-108 16,-72 88,-72 88,-108"/>
<text text-anchor="middle" x="52" y="-87.5" font-family="Helvetica,sans-Serif" font-size="10.00">montecarlo</text>
</a>
</g>
</g>
<!-- dir_a3c4a1d834482353a11eff58ca091e1a -->
<g id="node2" class="node">
<title>dir_a3c4a1d834482353a11eff58ca091e1a</title>
<g id="a_node2"><a xlink:href="dir_a3c4a1d834482353a11eff58ca091e1a.xhtml" target="_top" xlink:title="parameters">
<polygon fill="none" stroke="black" points="131.5,-36 58.5,-36 58.5,0 131.5,0 131.5,-36"/>
<text text-anchor="middle" x="95" y="-15.5" font-family="Helvetica,sans-Serif" font-size="10.00">parameters</text>
</a>
</g>
</g>
<!-- dir_e11eeec074eae8a341f2ac4839b2cc72&#45;&gt;dir_a3c4a1d834482353a11eff58ca091e1a -->
<g id="edge3" class="edge">
<title>dir_e11eeec074eae8a341f2ac4839b2cc72&#45;&gt;dir_a3c4a1d834482353a11eff58ca091e1a</title>
<path fill="none" stroke="black" d="M62.63,-71.7C67.63,-63.56 73.69,-53.69 79.21,-44.7"/>
<polygon fill="black" stroke="black" points="82.24,-46.46 84.49,-36.1 76.28,-42.79 82.24,-46.46"/>
<g id="a_edge3&#45;headlabel"><a xlink:href="dir_000012_000014.xhtml" target="_top" xlink:title="1">
<text text-anchor="middle" x="82.78" y="-48.51" font-family="Helvetica,sans-Serif" font-size="10.00">1</text>
</a>
</g>
</g>
<!-- dir_bb72d452b5d5f8d9665874f32947aa30 -->
<g id="node3" class="node">
<title>dir_bb72d452b5d5f8d9665874f32947aa30</title>
<g id="a_node3"><a xlink:href="dir_bb72d452b5d5f8d9665874f32947aa30.xhtml" target="_top" xlink:title="controller">
<polygon fill="none" stroke="black" points="169.5,-108 106.5,-108 106.5,-72 169.5,-72 169.5,-108"/>
<text text-anchor="middle" x="138" y="-87.5" font-family="Helvetica,sans-Serif" font-size="10.00">controller</text>
</a>
</g>
</g>
<!-- dir_e11eeec074eae8a341f2ac4839b2cc72&#45;&gt;dir_bb72d452b5d5f8d9665874f32947aa30 -->
<g id="edge4" class="edge">
<title>dir_e11eeec074eae8a341f2ac4839b2cc72&#45;&gt;dir_bb72d452b5d5f8d9665874f32947aa30</title>
<path fill="none" stroke="black" d="M88.28,-90C90.89,-90 93.49,-90 96.1,-90"/>
<polygon fill="black" stroke="black" points="96.15,-93.5 106.15,-90 96.15,-86.5 96.15,-93.5"/>
<g id="a_edge4&#45;headlabel"><a xlink:href="dir_000012_000006.xhtml" target="_top" xlink:title="1">
<text text-anchor="middle" x="92.55" y="-93.84" font-family="Helvetica,sans-Serif" font-size="10.00">1</text>
</a>
</g>
</g>
<!-- dir_bb72d452b5d5f8d9665874f32947aa30&#45;&gt;dir_e11eeec074eae8a341f2ac4839b2cc72 -->
<g id="edge2" class="edge">
<title>dir_bb72d452b5d5f8d9665874f32947aa30&#45;&gt;dir_e11eeec074eae8a341f2ac4839b2cc72</title>
<path fill="none" stroke="black" d="M106.15,-90C103.54,-90 100.94,-90 98.33,-90"/>
<polygon fill="black" stroke="black" points="98.28,-86.5 88.28,-90 98.28,-93.5 98.28,-86.5"/>
<g id="a_edge2&#45;headlabel"><a xlink:href="dir_000006_000012.xhtml" target="_top" xlink:title="1">
<text text-anchor="middle" x="101.88" y="-81.16" font-family="Helvetica,sans-Serif" font-size="10.00">1</text>
</a>
</g>
</g>
<!-- dir_bb72d452b5d5f8d9665874f32947aa30&#45;&gt;dir_a3c4a1d834482353a11eff58ca091e1a -->
<g id="edge1" class="edge">
<title>dir_bb72d452b5d5f8d9665874f32947aa30&#45;&gt;dir_a3c4a1d834482353a11eff58ca091e1a</title>
<path fill="none" stroke="black" d="M127.37,-71.7C122.37,-63.56 116.31,-53.69 110.79,-44.7"/>
<polygon fill="black" stroke="black" points="113.72,-42.79 105.51,-36.1 107.76,-46.46 113.72,-42.79"/>
<g id="a_edge1&#45;headlabel"><a xlink:href="dir_000006_000014.xhtml" target="_top" xlink:title="2">
<text text-anchor="middle" x="118.02" y="-41.87" font-family="Helvetica,sans-Serif" font-size="10.00">2</text>
</a>
</g>
</g>
</g>
</svg>
