<?xml version="1.0" encoding="UTF-8" standalone="no"?>
<!DOCTYPE svg PUBLIC "-//W3C//DTD SVG 1.1//EN"
 "http://www.w3.org/Graphics/SVG/1.1/DTD/svg11.dtd">
<!-- Generated by graphviz version 2.43.0 (0)
 -->
<!-- Title: /home/runner/work/Simopticon/Simopticon/src/optimizer/direct Pages: 1 -->
<svg width="184pt" height="183pt"
 viewBox="0.00 0.00 183.50 183.00" xmlns="http://www.w3.org/2000/svg" xmlns:xlink="http://www.w3.org/1999/xlink">
<g id="graph0" class="graph" transform="scale(1 1) rotate(0) translate(4 179)">
<title>/home/runner/work/Simopticon/Simopticon/src/optimizer/direct</title>
<polygon fill="white" stroke="transparent" points="-4,4 -4,-179 179.5,-179 179.5,4 -4,4"/>
<g id="clust1" class="cluster">
<title>clusterdir_73384fdeffbbc95c2842eb1d043b1e8b</title>
<g id="a_clust1"><a xlink:href="dir_73384fdeffbbc95c2842eb1d043b1e8b.xhtml" target="_top" xlink:title="optimizer">
<polygon fill="#ddddee" stroke="black" points="8,-8 8,-167 94,-167 94,-8 8,-8"/>
<text text-anchor="middle" x="51" y="-155" font-family="Helvetica,sans-Serif" font-size="10.00">optimizer</text>
</a>
</g>
</g>
<g id="clust2" class="cluster">
<title>clusterdir_0f30671e74f5846f3b74522ef71a06d6</title>
<g id="a_clust2"><a xlink:href="dir_0f30671e74f5846f3b74522ef71a06d6.xhtml" target="_top">
<polygon fill="#eeeeff" stroke="black" points="16,-16 16,-140 86,-140 86,-16 16,-16"/>
</a>
</g>
</g>
<!-- dir_0f30671e74f5846f3b74522ef71a06d6 -->
<g id="node1" class="node">
<title>dir_0f30671e74f5846f3b74522ef71a06d6</title>
<text text-anchor="middle" x="51" y="-111.5" font-family="Helvetica,sans-Serif" font-size="10.00">direct</text>
</g>
<!-- dir_b839a3348fcbf6152bec6ea98232cfb3 -->
<g id="node2" class="node">
<title>dir_b839a3348fcbf6152bec6ea98232cfb3</title>
<g id="a_node2"><a xlink:href="dir_b839a3348fcbf6152bec6ea98232cfb3.xhtml" target="_top" xlink:title="hyrect">
<polygon fill="white" stroke="black" points="78,-60 24,-60 24,-24 78,-24 78,-60"/>
<text text-anchor="middle" x="51" y="-39.5" font-family="Helvetica,sans-Serif" font-size="10.00">hyrect</text>
</a>
</g>
</g>
<!-- dir_0f30671e74f5846f3b74522ef71a06d6&#45;&gt;dir_b839a3348fcbf6152bec6ea98232cfb3 -->
<g id="edge4" class="edge">
<title>dir_0f30671e74f5846f3b74522ef71a06d6&#45;&gt;dir_b839a3348fcbf6152bec6ea98232cfb3</title>
<path fill="none" stroke="black" d="M51,-95.7C51,-87.98 51,-78.71 51,-70.11"/>
<polygon fill="black" stroke="black" points="54.5,-70.1 51,-60.1 47.5,-70.1 54.5,-70.1"/>
<g id="a_edge4&#45;headlabel"><a xlink:href="dir_000010_000011.xhtml" target="_top" xlink:title="5">
<text text-anchor="middle" x="57.34" y="-71.2" font-family="Helvetica,sans-Serif" font-size="10.00">5</text>
</a>
</g>
</g>
<!-- dir_a3c4a1d834482353a11eff58ca091e1a -->
<g id="node3" class="node">
<title>dir_a3c4a1d834482353a11eff58ca091e1a</title>
<g id="a_node3"><a xlink:href="dir_a3c4a1d834482353a11eff58ca091e1a.xhtml" target="_top" xlink:title="parameters">
<polygon fill="none" stroke="black" points="175.5,-60 102.5,-60 102.5,-24 175.5,-24 175.5,-60"/>
<text text-anchor="middle" x="139" y="-39.5" font-family="Helvetica,sans-Serif" font-size="10.00">parameters</text>
</a>
</g>
</g>
<!-- dir_0f30671e74f5846f3b74522ef71a06d6&#45;&gt;dir_a3c4a1d834482353a11eff58ca091e1a -->
<g id="edge3" class="edge">
<title>dir_0f30671e74f5846f3b74522ef71a06d6&#45;&gt;dir_a3c4a1d834482353a11eff58ca091e1a</title>
<path fill="none" stroke="black" d="M72.75,-95.7C83.84,-86.88 97.47,-76.03 109.49,-66.47"/>
<polygon fill="black" stroke="black" points="111.85,-69.07 117.5,-60.1 107.49,-63.59 111.85,-69.07"/>
<g id="a_edge3&#45;headlabel"><a xlink:href="dir_000010_000012.xhtml" target="_top" xlink:title="2">
<text text-anchor="middle" x="110.8" y="-71.03" font-family="Helvetica,sans-Serif" font-size="10.00">2</text>
</a>
</g>
</g>
<!-- dir_bb72d452b5d5f8d9665874f32947aa30 -->
<g id="node4" class="node">
<title>dir_bb72d452b5d5f8d9665874f32947aa30</title>
<g id="a_node4"><a xlink:href="dir_bb72d452b5d5f8d9665874f32947aa30.xhtml" target="_top" xlink:title="controller">
<polygon fill="none" stroke="black" points="167.5,-132 104.5,-132 104.5,-96 167.5,-96 167.5,-132"/>
<text text-anchor="middle" x="136" y="-111.5" font-family="Helvetica,sans-Serif" font-size="10.00">controller</text>
</a>
</g>
</g>
<!-- dir_0f30671e74f5846f3b74522ef71a06d6&#45;&gt;dir_bb72d452b5d5f8d9665874f32947aa30 -->
<g id="edge5" class="edge">
<title>dir_0f30671e74f5846f3b74522ef71a06d6&#45;&gt;dir_bb72d452b5d5f8d9665874f32947aa30</title>
<path fill="none" stroke="black" d="M78.23,-114C83.54,-114 88.86,-114 94.18,-114"/>
<polygon fill="black" stroke="black" points="94.41,-117.5 104.41,-114 94.41,-110.5 94.41,-117.5"/>
<g id="a_edge5&#45;headlabel"><a xlink:href="dir_000010_000006.xhtml" target="_top" xlink:title="1">
<text text-anchor="middle" x="90.81" y="-117.84" font-family="Helvetica,sans-Serif" font-size="10.00">1</text>
</a>
</g>
</g>
<!-- dir_bb72d452b5d5f8d9665874f32947aa30&#45;&gt;dir_0f30671e74f5846f3b74522ef71a06d6 -->
<g id="edge1" class="edge">
<title>dir_bb72d452b5d5f8d9665874f32947aa30&#45;&gt;dir_0f30671e74f5846f3b74522ef71a06d6</title>
<path fill="none" stroke="black" d="M104.41,-114C99.09,-114 93.77,-114 88.45,-114"/>
<polygon fill="black" stroke="black" points="88.23,-110.5 78.23,-114 88.23,-117.5 88.23,-110.5"/>
<g id="a_edge1&#45;headlabel"><a xlink:href="dir_000006_000010.xhtml" target="_top" xlink:title="2">
<text text-anchor="middle" x="91.82" y="-105.16" font-family="Helvetica,sans-Serif" font-size="10.00">2</text>
</a>
</g>
</g>
<!-- dir_bb72d452b5d5f8d9665874f32947aa30&#45;&gt;dir_a3c4a1d834482353a11eff58ca091e1a -->
<g id="edge2" class="edge">
<title>dir_bb72d452b5d5f8d9665874f32947aa30&#45;&gt;dir_a3c4a1d834482353a11eff58ca091e1a</title>
<path fill="none" stroke="black" d="M136.74,-95.7C137.07,-87.98 137.47,-78.71 137.84,-70.11"/>
<polygon fill="black" stroke="black" points="141.34,-70.25 138.27,-60.1 134.34,-69.95 141.34,-70.25"/>
<g id="a_edge2&#45;headlabel"><a xlink:href="dir_000006_000012.xhtml" target="_top" xlink:title="2">
<text text-anchor="middle" x="144.02" y="-71.46" font-family="Helvetica,sans-Serif" font-size="10.00">2</text>
</a>
</g>
</g>
</g>
</svg>
