<?xml version="1.0" encoding="UTF-8" standalone="no"?>
<!DOCTYPE svg PUBLIC "-//W3C//DTD SVG 1.1//EN"
 "http://www.w3.org/Graphics/SVG/1.1/DTD/svg11.dtd">
<!-- Generated by graphviz version 2.43.0 (0)
 -->
<!-- Title: src/evaluation Pages: 1 -->
<svg width="250pt" height="175pt"
 viewBox="0.00 0.00 250.00 175.00" xmlns="http://www.w3.org/2000/svg" xmlns:xlink="http://www.w3.org/1999/xlink">
<g id="graph0" class="graph" transform="scale(1 1) rotate(0) translate(4 171)">
<title>src/evaluation</title>
<polygon fill="white" stroke="transparent" points="-4,4 -4,-171 246,-171 246,4 -4,4"/>
<g id="clust1" class="cluster">
<title>clusterdir_68267d1309a1af8e8297ef4c3efbcdba</title>
<g id="a_clust1"><a xlink:href="dir_68267d1309a1af8e8297ef4c3efbcdba.xhtml" target="_top" xlink:title="src">
<polygon fill="#ddddee" stroke="black" points="8,-8 8,-159 234,-159 234,-8 8,-8"/>
<text text-anchor="middle" x="121" y="-147" font-family="Helvetica,sans-Serif" font-size="10.00">src</text>
</a>
</g>
</g>
<g id="clust2" class="cluster">
<title>clusterdir_211e0f6adb36544d22235d2adc40a517</title>
<g id="a_clust2"><a xlink:href="dir_211e0f6adb36544d22235d2adc40a517.xhtml" target="_top">
<polygon fill="#eeeeff" stroke="black" points="16,-80 16,-132 226,-132 226,-80 16,-80"/>
</a>
</g>
</g>
<!-- dir_313caf1132e152dd9b58bea13a4052ca -->
<g id="node1" class="node">
<title>dir_313caf1132e152dd9b58bea13a4052ca</title>
<g id="a_node1"><a xlink:href="dir_313caf1132e152dd9b58bea13a4052ca.xhtml" target="_top" xlink:title="utils">
<polygon fill="none" stroke="black" points="191,-52 137,-52 137,-16 191,-16 191,-52"/>
<text text-anchor="middle" x="164" y="-31.5" font-family="Helvetica,sans-Serif" font-size="10.00">utils</text>
</a>
</g>
</g>
<!-- dir_3b5a16ca9d597ec3bd11cf60fc07b716 -->
<g id="node2" class="node">
<title>dir_3b5a16ca9d597ec3bd11cf60fc07b716</title>
<g id="a_node2"><a xlink:href="dir_3b5a16ca9d597ec3bd11cf60fc07b716.xhtml" target="_top" xlink:title="status">
<polygon fill="none" stroke="black" points="85,-52 31,-52 31,-16 85,-16 85,-52"/>
<text text-anchor="middle" x="58" y="-31.5" font-family="Helvetica,sans-Serif" font-size="10.00">status</text>
</a>
</g>
</g>
<!-- dir_211e0f6adb36544d22235d2adc40a517 -->
<g id="node3" class="node">
<title>dir_211e0f6adb36544d22235d2adc40a517</title>
<text text-anchor="middle" x="58" y="-103.5" font-family="Helvetica,sans-Serif" font-size="10.00">evaluation</text>
</g>
<!-- dir_211e0f6adb36544d22235d2adc40a517&#45;&gt;dir_3b5a16ca9d597ec3bd11cf60fc07b716 -->
<g id="edge1" class="edge">
<title>dir_211e0f6adb36544d22235d2adc40a517&#45;&gt;dir_3b5a16ca9d597ec3bd11cf60fc07b716</title>
<path fill="none" stroke="black" d="M58,-87.7C58,-79.98 58,-70.71 58,-62.11"/>
<polygon fill="black" stroke="black" points="61.5,-62.1 58,-52.1 54.5,-62.1 61.5,-62.1"/>
<g id="a_edge1&#45;headlabel"><a xlink:href="dir_000002_000010.xhtml" target="_top" xlink:title="1">
<text text-anchor="middle" x="64.34" y="-63.2" font-family="Helvetica,sans-Serif" font-size="10.00">1</text>
</a>
</g>
</g>
<!-- dir_b9b26cefe975a1133bec7a4d690190d9 -->
<g id="node4" class="node">
<title>dir_b9b26cefe975a1133bec7a4d690190d9</title>
<g id="a_node4"><a xlink:href="dir_b9b26cefe975a1133bec7a4d690190d9.xhtml" target="_top" xlink:title="constant_headway">
<polygon fill="white" stroke="black" points="218,-124 110,-124 110,-88 218,-88 218,-124"/>
<text text-anchor="middle" x="164" y="-103.5" font-family="Helvetica,sans-Serif" font-size="10.00">constant_headway</text>
</a>
</g>
</g>
<!-- dir_b9b26cefe975a1133bec7a4d690190d9&#45;&gt;dir_313caf1132e152dd9b58bea13a4052ca -->
<g id="edge2" class="edge">
<title>dir_b9b26cefe975a1133bec7a4d690190d9&#45;&gt;dir_313caf1132e152dd9b58bea13a4052ca</title>
<path fill="none" stroke="black" d="M164,-87.7C164,-79.98 164,-70.71 164,-62.11"/>
<polygon fill="black" stroke="black" points="167.5,-62.1 164,-52.1 160.5,-62.1 167.5,-62.1"/>
<g id="a_edge2&#45;headlabel"><a xlink:href="dir_000003_000011.xhtml" target="_top" xlink:title="1">
<text text-anchor="middle" x="170.34" y="-63.2" font-family="Helvetica,sans-Serif" font-size="10.00">1</text>
</a>
</g>
</g>
</g>
</svg>
