<?xml version="1.0" encoding="UTF-8" standalone="no"?>
<!DOCTYPE svg PUBLIC "-//W3C//DTD SVG 1.1//EN"
 "http://www.w3.org/Graphics/SVG/1.1/DTD/svg11.dtd">
<!-- Generated by graphviz version 2.43.0 (0)
 -->
<!-- Title: /home/runner/work/Simopticon/Simopticon/src Pages: 1 -->
<svg width="276pt" height="399pt"
 viewBox="0.00 0.00 276.00 399.00" xmlns="http://www.w3.org/2000/svg" xmlns:xlink="http://www.w3.org/1999/xlink">
<g id="graph0" class="graph" transform="scale(1 1) rotate(0) translate(4 395)">
<title>/home/runner/work/Simopticon/Simopticon/src</title>
<polygon fill="white" stroke="transparent" points="-4,4 -4,-395 272,-395 272,4 -4,4"/>
<g id="clust1" class="cluster">
<title>clusterdir_d52ba758f150d691552c4ae8701aa21e</title>
<g id="a_clust1"><a xlink:href="dir_d52ba758f150d691552c4ae8701aa21e.xhtml" target="_top" xlink:title="Simopticon">
<polygon fill="#ddddee" stroke="black" points="8,-8 8,-383 260,-383 260,-8 8,-8"/>
<text text-anchor="middle" x="134" y="-371" font-family="Helvetica,sans-Serif" font-size="10.00">Simopticon</text>
</a>
</g>
</g>
<g id="clust2" class="cluster">
<title>clusterdir_d60bff54a8563e68d2216c43d85b14c6</title>
<g id="a_clust2"><a xlink:href="dir_d60bff54a8563e68d2216c43d85b14c6.xhtml" target="_top">
<polygon fill="#eeeeff" stroke="black" points="16,-16 16,-356 252,-356 252,-16 16,-16"/>
</a>
</g>
</g>
<!-- dir_d60bff54a8563e68d2216c43d85b14c6 -->
<g id="node1" class="node">
<title>dir_d60bff54a8563e68d2216c43d85b14c6</title>
<text text-anchor="middle" x="179" y="-327.5" font-family="Helvetica,sans-Serif" font-size="10.00">src</text>
</g>
<!-- dir_bb72d452b5d5f8d9665874f32947aa30 -->
<g id="node2" class="node">
<title>dir_bb72d452b5d5f8d9665874f32947aa30</title>
<g id="a_node2"><a xlink:href="dir_bb72d452b5d5f8d9665874f32947aa30.xhtml" target="_top" xlink:title="controller">
<polygon fill="white" stroke="black" points="96.5,-348 33.5,-348 33.5,-312 96.5,-312 96.5,-348"/>
<text text-anchor="middle" x="65" y="-327.5" font-family="Helvetica,sans-Serif" font-size="10.00">controller</text>
</a>
</g>
</g>
<!-- dir_02257d726b13d325628964d16834dcd4 -->
<g id="node3" class="node">
<title>dir_02257d726b13d325628964d16834dcd4</title>
<g id="a_node3"><a xlink:href="dir_02257d726b13d325628964d16834dcd4.xhtml" target="_top" xlink:title="evaluation">
<polygon fill="white" stroke="red" points="152,-276 84,-276 84,-240 152,-240 152,-276"/>
<text text-anchor="middle" x="118" y="-255.5" font-family="Helvetica,sans-Serif" font-size="10.00">evaluation</text>
</a>
</g>
</g>
<!-- dir_bb72d452b5d5f8d9665874f32947aa30&#45;&gt;dir_02257d726b13d325628964d16834dcd4 -->
<g id="edge1" class="edge">
<title>dir_bb72d452b5d5f8d9665874f32947aa30&#45;&gt;dir_02257d726b13d325628964d16834dcd4</title>
<path fill="none" stroke="black" d="M78.1,-311.7C84.39,-303.39 92.05,-293.28 98.96,-284.14"/>
<polygon fill="black" stroke="black" points="101.8,-286.19 105.05,-276.1 96.22,-281.96 101.8,-286.19"/>
<g id="a_edge1&#45;headlabel"><a xlink:href="dir_000006_000007.xhtml" target="_top" xlink:title="2">
<text text-anchor="middle" x="101.9" y="-288.27" font-family="Helvetica,sans-Serif" font-size="10.00">2</text>
</a>
</g>
</g>
<!-- dir_73384fdeffbbc95c2842eb1d043b1e8b -->
<g id="node4" class="node">
<title>dir_73384fdeffbbc95c2842eb1d043b1e8b</title>
<g id="a_node4"><a xlink:href="dir_73384fdeffbbc95c2842eb1d043b1e8b.xhtml" target="_top" xlink:title="optimizer">
<polygon fill="white" stroke="red" points="120.5,-132 57.5,-132 57.5,-96 120.5,-96 120.5,-132"/>
<text text-anchor="middle" x="89" y="-111.5" font-family="Helvetica,sans-Serif" font-size="10.00">optimizer</text>
</a>
</g>
</g>
<!-- dir_bb72d452b5d5f8d9665874f32947aa30&#45;&gt;dir_73384fdeffbbc95c2842eb1d043b1e8b -->
<g id="edge3" class="edge">
<title>dir_bb72d452b5d5f8d9665874f32947aa30&#45;&gt;dir_73384fdeffbbc95c2842eb1d043b1e8b</title>
<path fill="none" stroke="black" d="M54.69,-311.65C43.52,-281.67 31.19,-218.52 46,-168 48.83,-158.35 54.02,-148.78 59.92,-140.49"/>
<polygon fill="black" stroke="black" points="62.87,-142.4 66.27,-132.37 57.36,-138.1 62.87,-142.4"/>
<g id="a_edge3&#45;headlabel"><a xlink:href="dir_000006_000009.xhtml" target="_top" xlink:title="3">
<text text-anchor="middle" x="62.9" y="-144.48" font-family="Helvetica,sans-Serif" font-size="10.00">3</text>
</a>
</g>
</g>
<!-- dir_a3c4a1d834482353a11eff58ca091e1a -->
<g id="node5" class="node">
<title>dir_a3c4a1d834482353a11eff58ca091e1a</title>
<g id="a_node5"><a xlink:href="dir_a3c4a1d834482353a11eff58ca091e1a.xhtml" target="_top" xlink:title="parameters">
<polygon fill="white" stroke="black" points="111.5,-60 38.5,-60 38.5,-24 111.5,-24 111.5,-60"/>
<text text-anchor="middle" x="75" y="-39.5" font-family="Helvetica,sans-Serif" font-size="10.00">parameters</text>
</a>
</g>
</g>
<!-- dir_bb72d452b5d5f8d9665874f32947aa30&#45;&gt;dir_a3c4a1d834482353a11eff58ca091e1a -->
<g id="edge5" class="edge">
<title>dir_bb72d452b5d5f8d9665874f32947aa30&#45;&gt;dir_a3c4a1d834482353a11eff58ca091e1a</title>
<path fill="none" stroke="black" d="M56.69,-311.79C52.26,-301.63 47.26,-288.38 45,-276 30.64,-197.29 27.71,-173.4 48,-96 50.4,-86.86 54.53,-77.47 58.86,-69.19"/>
<polygon fill="black" stroke="black" points="61.95,-70.83 63.74,-60.38 55.83,-67.44 61.95,-70.83"/>
<g id="a_edge5&#45;headlabel"><a xlink:href="dir_000006_000012.xhtml" target="_top" xlink:title="2">
<text text-anchor="middle" x="62.69" y="-72.85" font-family="Helvetica,sans-Serif" font-size="10.00">2</text>
</a>
</g>
</g>
<!-- dir_78983c2230674e3ceb85c16456deaf57 -->
<g id="node6" class="node">
<title>dir_78983c2230674e3ceb85c16456deaf57</title>
<g id="a_node6"><a xlink:href="dir_78983c2230674e3ceb85c16456deaf57.xhtml" target="_top" xlink:title="runner">
<polygon fill="white" stroke="red" points="224,-276 170,-276 170,-240 224,-240 224,-276"/>
<text text-anchor="middle" x="197" y="-255.5" font-family="Helvetica,sans-Serif" font-size="10.00">runner</text>
</a>
</g>
</g>
<!-- dir_bb72d452b5d5f8d9665874f32947aa30&#45;&gt;dir_78983c2230674e3ceb85c16456deaf57 -->
<g id="edge4" class="edge">
<title>dir_bb72d452b5d5f8d9665874f32947aa30&#45;&gt;dir_78983c2230674e3ceb85c16456deaf57</title>
<path fill="none" stroke="black" d="M96.62,-312.23C115.93,-301.99 140.69,-288.86 160.79,-278.2"/>
<polygon fill="black" stroke="black" points="162.47,-281.27 169.66,-273.5 159.19,-275.09 162.47,-281.27"/>
<g id="a_edge4&#45;headlabel"><a xlink:href="dir_000006_000013.xhtml" target="_top" xlink:title="2">
<text text-anchor="middle" x="160.62" y="-282.97" font-family="Helvetica,sans-Serif" font-size="10.00">2</text>
</a>
</g>
</g>
<!-- dir_a9b790eb2cf6fd2d46bd88177bae791e -->
<g id="node7" class="node">
<title>dir_a9b790eb2cf6fd2d46bd88177bae791e</title>
<g id="a_node7"><a xlink:href="dir_a9b790eb2cf6fd2d46bd88177bae791e.xhtml" target="_top" xlink:title="status">
<polygon fill="white" stroke="black" points="118,-204 64,-204 64,-168 118,-168 118,-204"/>
<text text-anchor="middle" x="91" y="-183.5" font-family="Helvetica,sans-Serif" font-size="10.00">status</text>
</a>
</g>
</g>
<!-- dir_bb72d452b5d5f8d9665874f32947aa30&#45;&gt;dir_a9b790eb2cf6fd2d46bd88177bae791e -->
<g id="edge6" class="edge">
<title>dir_bb72d452b5d5f8d9665874f32947aa30&#45;&gt;dir_a9b790eb2cf6fd2d46bd88177bae791e</title>
<path fill="none" stroke="black" d="M59.29,-311.79C58.27,-293.76 60.93,-264.67 66,-240 67.76,-231.43 70.29,-222.26 73.22,-213.99"/>
<polygon fill="black" stroke="black" points="76.57,-215.05 76.98,-204.46 70.06,-212.48 76.57,-215.05"/>
<g id="a_edge6&#45;headlabel"><a xlink:href="dir_000006_000015.xhtml" target="_top" xlink:title="1">
<text text-anchor="middle" x="77.89" y="-216.93" font-family="Helvetica,sans-Serif" font-size="10.00">1</text>
</a>
</g>
</g>
<!-- dir_3665e743d8a0456ad0a3390167838d2d -->
<g id="node8" class="node">
<title>dir_3665e743d8a0456ad0a3390167838d2d</title>
<g id="a_node8"><a xlink:href="dir_3665e743d8a0456ad0a3390167838d2d.xhtml" target="_top" xlink:title="utils">
<polygon fill="white" stroke="black" points="195,-60 141,-60 141,-24 195,-24 195,-60"/>
<text text-anchor="middle" x="168" y="-39.5" font-family="Helvetica,sans-Serif" font-size="10.00">utils</text>
</a>
</g>
</g>
<!-- dir_bb72d452b5d5f8d9665874f32947aa30&#45;&gt;dir_3665e743d8a0456ad0a3390167838d2d -->
<g id="edge2" class="edge">
<title>dir_bb72d452b5d5f8d9665874f32947aa30&#45;&gt;dir_3665e743d8a0456ad0a3390167838d2d</title>
<path fill="none" stroke="black" d="M96.55,-321.19C142.88,-309.4 224.75,-287.25 233,-276 280.24,-211.57 221.37,-114.23 188.01,-68.47"/>
<polygon fill="black" stroke="black" points="190.7,-66.22 181.92,-60.29 185.09,-70.4 190.7,-66.22"/>
<g id="a_edge2&#45;headlabel"><a xlink:href="dir_000006_000016.xhtml" target="_top" xlink:title="1">
<text text-anchor="middle" x="195.12" y="-64.9" font-family="Helvetica,sans-Serif" font-size="10.00">1</text>
</a>
</g>
</g>
<!-- dir_02257d726b13d325628964d16834dcd4&#45;&gt;dir_a9b790eb2cf6fd2d46bd88177bae791e -->
<g id="edge14" class="edge">
<title>dir_02257d726b13d325628964d16834dcd4&#45;&gt;dir_a9b790eb2cf6fd2d46bd88177bae791e</title>
<path fill="none" stroke="black" d="M111.33,-239.7C108.29,-231.81 104.62,-222.3 101.24,-213.55"/>
<polygon fill="black" stroke="black" points="104.46,-212.17 97.6,-204.1 97.93,-214.69 104.46,-212.17"/>
<g id="a_edge14&#45;headlabel"><a xlink:href="dir_000007_000015.xhtml" target="_top" xlink:title="1">
<text text-anchor="middle" x="108.4" y="-212.01" font-family="Helvetica,sans-Serif" font-size="10.00">1</text>
</a>
</g>
</g>
<!-- dir_02257d726b13d325628964d16834dcd4&#45;&gt;dir_3665e743d8a0456ad0a3390167838d2d -->
<g id="edge13" class="edge">
<title>dir_02257d726b13d325628964d16834dcd4&#45;&gt;dir_3665e743d8a0456ad0a3390167838d2d</title>
<path fill="none" stroke="black" d="M122.01,-239.85C130.67,-202.75 151.22,-114.81 161.67,-70.1"/>
<polygon fill="black" stroke="black" points="165.11,-70.77 163.97,-60.23 158.29,-69.17 165.11,-70.77"/>
<g id="a_edge13&#45;headlabel"><a xlink:href="dir_000007_000016.xhtml" target="_top" xlink:title="1">
<text text-anchor="middle" x="167.05" y="-72.41" font-family="Helvetica,sans-Serif" font-size="10.00">1</text>
</a>
</g>
</g>
<!-- dir_73384fdeffbbc95c2842eb1d043b1e8b&#45;&gt;dir_bb72d452b5d5f8d9665874f32947aa30 -->
<g id="edge10" class="edge">
<title>dir_73384fdeffbbc95c2842eb1d043b1e8b&#45;&gt;dir_bb72d452b5d5f8d9665874f32947aa30</title>
<path fill="none" stroke="black" d="M82.22,-132.37C75.91,-142.15 67.81,-154.99 64,-168 50.69,-213.39 59.3,-268.97 64.11,-301.54"/>
<polygon fill="black" stroke="black" points="60.68,-302.25 65.56,-311.65 67.6,-301.25 60.68,-302.25"/>
<g id="a_edge10&#45;headlabel"><a xlink:href="dir_000009_000006.xhtml" target="_top" xlink:title="2">
<text text-anchor="middle" x="57.35" y="-296.59" font-family="Helvetica,sans-Serif" font-size="10.00">2</text>
</a>
</g>
</g>
<!-- dir_73384fdeffbbc95c2842eb1d043b1e8b&#45;&gt;dir_a3c4a1d834482353a11eff58ca091e1a -->
<g id="edge8" class="edge">
<title>dir_73384fdeffbbc95c2842eb1d043b1e8b&#45;&gt;dir_a3c4a1d834482353a11eff58ca091e1a</title>
<path fill="none" stroke="black" d="M85.54,-95.7C84,-87.98 82.14,-78.71 80.42,-70.11"/>
<polygon fill="black" stroke="black" points="83.81,-69.22 78.42,-60.1 76.95,-70.6 83.81,-69.22"/>
<g id="a_edge8&#45;headlabel"><a xlink:href="dir_000009_000012.xhtml" target="_top" xlink:title="3">
<text text-anchor="middle" x="87.3" y="-69.69" font-family="Helvetica,sans-Serif" font-size="10.00">3</text>
</a>
</g>
</g>
<!-- dir_73384fdeffbbc95c2842eb1d043b1e8b&#45;&gt;dir_a9b790eb2cf6fd2d46bd88177bae791e -->
<g id="edge9" class="edge">
<title>dir_73384fdeffbbc95c2842eb1d043b1e8b&#45;&gt;dir_a9b790eb2cf6fd2d46bd88177bae791e</title>
<path fill="none" stroke="black" d="M95.38,-132.1C96.41,-139.79 96.91,-149.05 96.82,-157.67"/>
<polygon fill="black" stroke="black" points="93.32,-157.56 96.42,-167.7 100.32,-157.84 93.32,-157.56"/>
<g id="a_edge9&#45;headlabel"><a xlink:href="dir_000009_000015.xhtml" target="_top" xlink:title="1">
<text text-anchor="middle" x="90.63" y="-151.36" font-family="Helvetica,sans-Serif" font-size="10.00">1</text>
</a>
</g>
</g>
<!-- dir_73384fdeffbbc95c2842eb1d043b1e8b&#45;&gt;dir_3665e743d8a0456ad0a3390167838d2d -->
<g id="edge7" class="edge">
<title>dir_73384fdeffbbc95c2842eb1d043b1e8b&#45;&gt;dir_3665e743d8a0456ad0a3390167838d2d</title>
<path fill="none" stroke="black" d="M108.53,-95.7C118.38,-86.97 130.49,-76.24 141.2,-66.75"/>
<polygon fill="black" stroke="black" points="143.53,-69.36 148.7,-60.1 138.89,-64.12 143.53,-69.36"/>
<g id="a_edge7&#45;headlabel"><a xlink:href="dir_000009_000016.xhtml" target="_top" xlink:title="1">
<text text-anchor="middle" x="142.73" y="-71.36" font-family="Helvetica,sans-Serif" font-size="10.00">1</text>
</a>
</g>
</g>
<!-- dir_78983c2230674e3ceb85c16456deaf57&#45;&gt;dir_a9b790eb2cf6fd2d46bd88177bae791e -->
<g id="edge12" class="edge">
<title>dir_78983c2230674e3ceb85c16456deaf57&#45;&gt;dir_a9b790eb2cf6fd2d46bd88177bae791e</title>
<path fill="none" stroke="black" d="M171.07,-239.88C157.34,-230.81 140.29,-219.55 125.46,-209.76"/>
<polygon fill="black" stroke="black" points="127.3,-206.78 117.03,-204.19 123.45,-212.62 127.3,-206.78"/>
<g id="a_edge12&#45;headlabel"><a xlink:href="dir_000013_000015.xhtml" target="_top" xlink:title="1">
<text text-anchor="middle" x="131.87" y="-203.89" font-family="Helvetica,sans-Serif" font-size="10.00">1</text>
</a>
</g>
</g>
<!-- dir_78983c2230674e3ceb85c16456deaf57&#45;&gt;dir_3665e743d8a0456ad0a3390167838d2d -->
<g id="edge11" class="edge">
<title>dir_78983c2230674e3ceb85c16456deaf57&#45;&gt;dir_3665e743d8a0456ad0a3390167838d2d</title>
<path fill="none" stroke="black" d="M194.68,-239.85C189.66,-202.83 177.78,-115.18 171.71,-70.39"/>
<polygon fill="black" stroke="black" points="175.15,-69.67 170.34,-60.23 168.21,-70.61 175.15,-69.67"/>
<g id="a_edge11&#45;headlabel"><a xlink:href="dir_000013_000016.xhtml" target="_top" xlink:title="2">
<text text-anchor="middle" x="178.44" y="-70.35" font-family="Helvetica,sans-Serif" font-size="10.00">2</text>
</a>
</g>
</g>
<!-- dir_a9b790eb2cf6fd2d46bd88177bae791e&#45;&gt;dir_bb72d452b5d5f8d9665874f32947aa30 -->
<g id="edge16" class="edge">
<title>dir_a9b790eb2cf6fd2d46bd88177bae791e&#45;&gt;dir_bb72d452b5d5f8d9665874f32947aa30</title>
<path fill="none" stroke="black" d="M92.73,-204.46C90.47,-214.7 86.47,-227.95 84,-240 79.8,-260.43 77.26,-283.89 74.49,-301.59"/>
<polygon fill="black" stroke="black" points="70.98,-301.34 72.72,-311.79 77.88,-302.54 70.98,-301.34"/>
<g id="a_edge16&#45;headlabel"><a xlink:href="dir_000015_000006.xhtml" target="_top" xlink:title="1">
<text text-anchor="middle" x="68.8" y="-294.82" font-family="Helvetica,sans-Serif" font-size="10.00">1</text>
</a>
</g>
</g>
<!-- dir_a9b790eb2cf6fd2d46bd88177bae791e&#45;&gt;dir_73384fdeffbbc95c2842eb1d043b1e8b -->
<g id="edge15" class="edge">
<title>dir_a9b790eb2cf6fd2d46bd88177bae791e&#45;&gt;dir_73384fdeffbbc95c2842eb1d043b1e8b</title>
<path fill="none" stroke="black" d="M84.59,-167.7C83.57,-159.98 83.08,-150.71 83.18,-142.11"/>
<polygon fill="black" stroke="black" points="86.68,-142.24 83.59,-132.1 79.68,-141.95 86.68,-142.24"/>
<g id="a_edge15&#45;headlabel"><a xlink:href="dir_000015_000009.xhtml" target="_top" xlink:title="1">
<text text-anchor="middle" x="89.37" y="-143.45" font-family="Helvetica,sans-Serif" font-size="10.00">1</text>
</a>
</g>
</g>
</g>
</svg>
