<?xml version="1.0" encoding="UTF-8" standalone="no"?>
<!DOCTYPE svg PUBLIC "-//W3C//DTD SVG 1.1//EN"
 "http://www.w3.org/Graphics/SVG/1.1/DTD/svg11.dtd">
<!-- Generated by graphviz version 2.43.0 (0)
 -->
<!-- Title: /home/runner/work/Simopticon/Simopticon/src/runner Pages: 1 -->
<svg width="182pt" height="175pt"
 viewBox="0.00 0.00 182.00 175.00" xmlns="http://www.w3.org/2000/svg" xmlns:xlink="http://www.w3.org/1999/xlink">
<g id="graph0" class="graph" transform="scale(1 1) rotate(0) translate(4 171)">
<title>/home/runner/work/Simopticon/Simopticon/src/runner</title>
<polygon fill="white" stroke="transparent" points="-4,4 -4,-171 178,-171 178,4 -4,4"/>
<g id="clust1" class="cluster">
<title>clusterdir_d60bff54a8563e68d2216c43d85b14c6</title>
<g id="a_clust1"><a xlink:href="dir_d60bff54a8563e68d2216c43d85b14c6.xhtml" target="_top" xlink:title="src">
<polygon fill="#ddddee" stroke="black" points="8,-8 8,-159 166,-159 166,-8 8,-8"/>
<text text-anchor="middle" x="87" y="-147" font-family="Helvetica,sans-Serif" font-size="10.00">src</text>
</a>
</g>
</g>
<g id="clust2" class="cluster">
<title>clusterdir_78983c2230674e3ceb85c16456deaf57</title>
<g id="a_clust2"><a xlink:href="dir_78983c2230674e3ceb85c16456deaf57.xhtml" target="_top">
<polygon fill="#eeeeff" stroke="black" points="16,-80 16,-132 158,-132 158,-80 16,-80"/>
</a>
</g>
</g>
<!-- dir_3665e743d8a0456ad0a3390167838d2d -->
<g id="node1" class="node">
<title>dir_3665e743d8a0456ad0a3390167838d2d</title>
<g id="a_node1"><a xlink:href="dir_3665e743d8a0456ad0a3390167838d2d.xhtml" target="_top" xlink:title="utils">
<polygon fill="none" stroke="black" points="150,-52 96,-52 96,-16 150,-16 150,-52"/>
<text text-anchor="middle" x="123" y="-31.5" font-family="Helvetica,sans-Serif" font-size="10.00">utils</text>
</a>
</g>
</g>
<!-- dir_a9b790eb2cf6fd2d46bd88177bae791e -->
<g id="node2" class="node">
<title>dir_a9b790eb2cf6fd2d46bd88177bae791e</title>
<g id="a_node2"><a xlink:href="dir_a9b790eb2cf6fd2d46bd88177bae791e.xhtml" target="_top" xlink:title="status">
<polygon fill="none" stroke="black" points="78,-52 24,-52 24,-16 78,-16 78,-52"/>
<text text-anchor="middle" x="51" y="-31.5" font-family="Helvetica,sans-Serif" font-size="10.00">status</text>
</a>
</g>
</g>
<!-- dir_78983c2230674e3ceb85c16456deaf57 -->
<g id="node3" class="node">
<title>dir_78983c2230674e3ceb85c16456deaf57</title>
<text text-anchor="middle" x="51" y="-103.5" font-family="Helvetica,sans-Serif" font-size="10.00">runner</text>
</g>
<!-- dir_78983c2230674e3ceb85c16456deaf57&#45;&gt;dir_a9b790eb2cf6fd2d46bd88177bae791e -->
<g id="edge1" class="edge">
<title>dir_78983c2230674e3ceb85c16456deaf57&#45;&gt;dir_a9b790eb2cf6fd2d46bd88177bae791e</title>
<path fill="none" stroke="black" d="M51,-87.7C51,-79.98 51,-70.71 51,-62.11"/>
<polygon fill="black" stroke="black" points="54.5,-62.1 51,-52.1 47.5,-62.1 54.5,-62.1"/>
<g id="a_edge1&#45;headlabel"><a xlink:href="dir_000015_000017.xhtml" target="_top" xlink:title="1">
<text text-anchor="middle" x="57.34" y="-63.2" font-family="Helvetica,sans-Serif" font-size="10.00">1</text>
</a>
</g>
</g>
<!-- dir_1c05e295a0f2fa2bffed30b7547fd8b2 -->
<g id="node4" class="node">
<title>dir_1c05e295a0f2fa2bffed30b7547fd8b2</title>
<g id="a_node4"><a xlink:href="dir_1c05e295a0f2fa2bffed30b7547fd8b2.xhtml" target="_top" xlink:title="plexe">
<polygon fill="white" stroke="black" points="150,-124 96,-124 96,-88 150,-88 150,-124"/>
<text text-anchor="middle" x="123" y="-103.5" font-family="Helvetica,sans-Serif" font-size="10.00">plexe</text>
</a>
</g>
</g>
<!-- dir_1c05e295a0f2fa2bffed30b7547fd8b2&#45;&gt;dir_3665e743d8a0456ad0a3390167838d2d -->
<g id="edge2" class="edge">
<title>dir_1c05e295a0f2fa2bffed30b7547fd8b2&#45;&gt;dir_3665e743d8a0456ad0a3390167838d2d</title>
<path fill="none" stroke="black" d="M123,-87.7C123,-79.98 123,-70.71 123,-62.11"/>
<polygon fill="black" stroke="black" points="126.5,-62.1 123,-52.1 119.5,-62.1 126.5,-62.1"/>
<g id="a_edge2&#45;headlabel"><a xlink:href="dir_000016_000018.xhtml" target="_top" xlink:title="1">
<text text-anchor="middle" x="129.34" y="-63.2" font-family="Helvetica,sans-Serif" font-size="10.00">1</text>
</a>
</g>
</g>
</g>
</svg>
