<?xml version="1.0" encoding="UTF-8" standalone="no"?>
<!DOCTYPE svg PUBLIC "-//W3C//DTD SVG 1.1//EN"
 "http://www.w3.org/Graphics/SVG/1.1/DTD/svg11.dtd">
<!-- Generated by graphviz version 2.43.0 (0)
 -->
<!-- Title: src/optimizer/direct Pages: 1 -->
<svg width="184pt" height="183pt"
 viewBox="0.00 0.00 183.50 183.00" xmlns="http://www.w3.org/2000/svg" xmlns:xlink="http://www.w3.org/1999/xlink">
<g id="graph0" class="graph" transform="scale(1 1) rotate(0) translate(4 179)">
<title>src/optimizer/direct</title>
<polygon fill="white" stroke="transparent" points="-4,4 -4,-179 179.5,-179 179.5,4 -4,4"/>
<g id="clust1" class="cluster">
<title>clusterdir_fef26d3633d38d4ca65fa53115b5e5dd</title>
<g id="a_clust1"><a xlink:href="dir_fef26d3633d38d4ca65fa53115b5e5dd.xhtml" target="_top" xlink:title="optimizer">
<polygon fill="#ddddee" stroke="black" points="8,-8 8,-167 94,-167 94,-8 8,-8"/>
<text text-anchor="middle" x="51" y="-155" font-family="Helvetica,sans-Serif" font-size="10.00">optimizer</text>
</a>
</g>
</g>
<g id="clust2" class="cluster">
<title>clusterdir_2d657aea63603d07fa4cf559e7749f92</title>
<g id="a_clust2"><a xlink:href="dir_2d657aea63603d07fa4cf559e7749f92.xhtml" target="_top">
<polygon fill="#eeeeff" stroke="black" points="16,-16 16,-140 86,-140 86,-16 16,-16"/>
</a>
</g>
</g>
<!-- dir_2d657aea63603d07fa4cf559e7749f92 -->
<g id="node1" class="node">
<title>dir_2d657aea63603d07fa4cf559e7749f92</title>
<text text-anchor="middle" x="51" y="-111.5" font-family="Helvetica,sans-Serif" font-size="10.00">direct</text>
</g>
<!-- dir_34efaa5f7cf566a6e55f58069b2fc258 -->
<g id="node2" class="node">
<title>dir_34efaa5f7cf566a6e55f58069b2fc258</title>
<g id="a_node2"><a xlink:href="dir_34efaa5f7cf566a6e55f58069b2fc258.xhtml" target="_top" xlink:title="hyrect">
<polygon fill="white" stroke="black" points="78,-60 24,-60 24,-24 78,-24 78,-60"/>
<text text-anchor="middle" x="51" y="-39.5" font-family="Helvetica,sans-Serif" font-size="10.00">hyrect</text>
</a>
</g>
</g>
<!-- dir_2d657aea63603d07fa4cf559e7749f92&#45;&gt;dir_34efaa5f7cf566a6e55f58069b2fc258 -->
<g id="edge1" class="edge">
<title>dir_2d657aea63603d07fa4cf559e7749f92&#45;&gt;dir_34efaa5f7cf566a6e55f58069b2fc258</title>
<path fill="none" stroke="black" d="M51,-95.7C51,-87.98 51,-78.71 51,-70.11"/>
<polygon fill="black" stroke="black" points="54.5,-70.1 51,-60.1 47.5,-70.1 54.5,-70.1"/>
<g id="a_edge1&#45;headlabel"><a xlink:href="dir_000005_000006.xhtml" target="_top" xlink:title="5">
<text text-anchor="middle" x="57.34" y="-71.2" font-family="Helvetica,sans-Serif" font-size="10.00">5</text>
</a>
</g>
</g>
<!-- dir_41ef5d8a90b9cc03a02949a5c062e6f0 -->
<g id="node3" class="node">
<title>dir_41ef5d8a90b9cc03a02949a5c062e6f0</title>
<g id="a_node3"><a xlink:href="dir_41ef5d8a90b9cc03a02949a5c062e6f0.xhtml" target="_top" xlink:title="controller">
<polygon fill="none" stroke="black" points="167.5,-132 104.5,-132 104.5,-96 167.5,-96 167.5,-132"/>
<text text-anchor="middle" x="136" y="-111.5" font-family="Helvetica,sans-Serif" font-size="10.00">controller</text>
</a>
</g>
</g>
<!-- dir_2d657aea63603d07fa4cf559e7749f92&#45;&gt;dir_41ef5d8a90b9cc03a02949a5c062e6f0 -->
<g id="edge2" class="edge">
<title>dir_2d657aea63603d07fa4cf559e7749f92&#45;&gt;dir_41ef5d8a90b9cc03a02949a5c062e6f0</title>
<path fill="none" stroke="black" d="M78.23,-114C83.54,-114 88.86,-114 94.18,-114"/>
<polygon fill="black" stroke="black" points="94.41,-117.5 104.41,-114 94.41,-110.5 94.41,-117.5"/>
<g id="a_edge2&#45;headlabel"><a xlink:href="dir_000005_000001.xhtml" target="_top" xlink:title="1">
<text text-anchor="middle" x="90.81" y="-117.84" font-family="Helvetica,sans-Serif" font-size="10.00">1</text>
</a>
</g>
</g>
<!-- dir_434cae81b587a8a3fa87d985996d40d2 -->
<g id="node4" class="node">
<title>dir_434cae81b587a8a3fa87d985996d40d2</title>
<g id="a_node4"><a xlink:href="dir_434cae81b587a8a3fa87d985996d40d2.xhtml" target="_top" xlink:title="parameters">
<polygon fill="none" stroke="black" points="175.5,-60 102.5,-60 102.5,-24 175.5,-24 175.5,-60"/>
<text text-anchor="middle" x="139" y="-39.5" font-family="Helvetica,sans-Serif" font-size="10.00">parameters</text>
</a>
</g>
</g>
<!-- dir_2d657aea63603d07fa4cf559e7749f92&#45;&gt;dir_434cae81b587a8a3fa87d985996d40d2 -->
<g id="edge3" class="edge">
<title>dir_2d657aea63603d07fa4cf559e7749f92&#45;&gt;dir_434cae81b587a8a3fa87d985996d40d2</title>
<path fill="none" stroke="black" d="M72.75,-95.7C83.84,-86.88 97.47,-76.03 109.49,-66.47"/>
<polygon fill="black" stroke="black" points="111.85,-69.07 117.5,-60.1 107.49,-63.59 111.85,-69.07"/>
<g id="a_edge3&#45;headlabel"><a xlink:href="dir_000005_000007.xhtml" target="_top" xlink:title="2">
<text text-anchor="middle" x="110.8" y="-71.03" font-family="Helvetica,sans-Serif" font-size="10.00">2</text>
</a>
</g>
</g>
<!-- dir_41ef5d8a90b9cc03a02949a5c062e6f0&#45;&gt;dir_2d657aea63603d07fa4cf559e7749f92 -->
<g id="edge4" class="edge">
<title>dir_41ef5d8a90b9cc03a02949a5c062e6f0&#45;&gt;dir_2d657aea63603d07fa4cf559e7749f92</title>
<path fill="none" stroke="black" d="M104.41,-114C99.09,-114 93.77,-114 88.45,-114"/>
<polygon fill="black" stroke="black" points="88.23,-110.5 78.23,-114 88.23,-117.5 88.23,-110.5"/>
<g id="a_edge4&#45;headlabel"><a xlink:href="dir_000001_000005.xhtml" target="_top" xlink:title="2">
<text text-anchor="middle" x="91.82" y="-105.16" font-family="Helvetica,sans-Serif" font-size="10.00">2</text>
</a>
</g>
</g>
<!-- dir_41ef5d8a90b9cc03a02949a5c062e6f0&#45;&gt;dir_434cae81b587a8a3fa87d985996d40d2 -->
<g id="edge5" class="edge">
<title>dir_41ef5d8a90b9cc03a02949a5c062e6f0&#45;&gt;dir_434cae81b587a8a3fa87d985996d40d2</title>
<path fill="none" stroke="black" d="M136.74,-95.7C137.07,-87.98 137.47,-78.71 137.84,-70.11"/>
<polygon fill="black" stroke="black" points="141.34,-70.25 138.27,-60.1 134.34,-69.95 141.34,-70.25"/>
<g id="a_edge5&#45;headlabel"><a xlink:href="dir_000001_000007.xhtml" target="_top" xlink:title="2">
<text text-anchor="middle" x="144.02" y="-71.46" font-family="Helvetica,sans-Serif" font-size="10.00">2</text>
</a>
</g>
</g>
</g>
</svg>
