<?xml version="1.0" encoding="UTF-8" standalone="no"?>
<!DOCTYPE svg PUBLIC "-//W3C//DTD SVG 1.1//EN"
 "http://www.w3.org/Graphics/SVG/1.1/DTD/svg11.dtd">
<!-- Generated by graphviz version 2.43.0 (0)
 -->
<!-- Title: src/optimizer Pages: 1 -->
<svg width="288pt" height="239pt"
 viewBox="0.00 0.00 288.00 239.00" xmlns="http://www.w3.org/2000/svg" xmlns:xlink="http://www.w3.org/1999/xlink">
<g id="graph0" class="graph" transform="scale(1 1) rotate(0) translate(4 235)">
<title>src/optimizer</title>
<polygon fill="white" stroke="transparent" points="-4,4 -4,-235 284,-235 284,4 -4,4"/>
<g id="clust1" class="cluster">
<title>clusterdir_68267d1309a1af8e8297ef4c3efbcdba</title>
<g id="a_clust1"><a xlink:href="dir_68267d1309a1af8e8297ef4c3efbcdba.xhtml" target="_top" xlink:title="src">
<polygon fill="#ddddee" stroke="black" points="8,-8 8,-223 272,-223 272,-8 8,-8"/>
<text text-anchor="middle" x="140" y="-211" font-family="Helvetica,sans-Serif" font-size="10.00">src</text>
</a>
</g>
</g>
<g id="clust2" class="cluster">
<title>clusterdir_fef26d3633d38d4ca65fa53115b5e5dd</title>
<g id="a_clust2"><a xlink:href="dir_fef26d3633d38d4ca65fa53115b5e5dd.xhtml" target="_top">
<polygon fill="#eeeeff" stroke="black" points="100,-80 100,-132 252,-132 252,-80 100,-80"/>
</a>
</g>
</g>
<!-- dir_313caf1132e152dd9b58bea13a4052ca -->
<g id="node1" class="node">
<title>dir_313caf1132e152dd9b58bea13a4052ca</title>
<g id="a_node1"><a xlink:href="dir_313caf1132e152dd9b58bea13a4052ca.xhtml" target="_top" xlink:title="utils">
<polygon fill="none" stroke="black" points="141,-52 87,-52 87,-16 141,-16 141,-52"/>
<text text-anchor="middle" x="114" y="-31.5" font-family="Helvetica,sans-Serif" font-size="10.00">utils</text>
</a>
</g>
</g>
<!-- dir_3b5a16ca9d597ec3bd11cf60fc07b716 -->
<g id="node2" class="node">
<title>dir_3b5a16ca9d597ec3bd11cf60fc07b716</title>
<g id="a_node2"><a xlink:href="dir_3b5a16ca9d597ec3bd11cf60fc07b716.xhtml" target="_top" xlink:title="status">
<polygon fill="none" stroke="black" points="70,-124 16,-124 16,-88 70,-88 70,-124"/>
<text text-anchor="middle" x="43" y="-103.5" font-family="Helvetica,sans-Serif" font-size="10.00">status</text>
</a>
</g>
</g>
<!-- dir_41ef5d8a90b9cc03a02949a5c062e6f0 -->
<g id="node3" class="node">
<title>dir_41ef5d8a90b9cc03a02949a5c062e6f0</title>
<g id="a_node3"><a xlink:href="dir_41ef5d8a90b9cc03a02949a5c062e6f0.xhtml" target="_top" xlink:title="controller">
<polygon fill="none" stroke="black" points="145.5,-196 82.5,-196 82.5,-160 145.5,-160 145.5,-196"/>
<text text-anchor="middle" x="114" y="-175.5" font-family="Helvetica,sans-Serif" font-size="10.00">controller</text>
</a>
</g>
</g>
<!-- dir_3b5a16ca9d597ec3bd11cf60fc07b716&#45;&gt;dir_41ef5d8a90b9cc03a02949a5c062e6f0 -->
<g id="edge1" class="edge">
<title>dir_3b5a16ca9d597ec3bd11cf60fc07b716&#45;&gt;dir_41ef5d8a90b9cc03a02949a5c062e6f0</title>
<path fill="none" stroke="black" d="M66.24,-124.1C75.7,-132.55 86.39,-142.9 95.33,-152.2"/>
<polygon fill="black" stroke="black" points="92.97,-154.8 102.37,-159.7 98.08,-150.01 92.97,-154.8"/>
<g id="a_edge1&#45;headlabel"><a xlink:href="dir_000010_000001.xhtml" target="_top" xlink:title="1">
<text text-anchor="middle" x="88.44" y="-151.62" font-family="Helvetica,sans-Serif" font-size="10.00">1</text>
</a>
</g>
</g>
<!-- dir_fef26d3633d38d4ca65fa53115b5e5dd -->
<g id="node5" class="node">
<title>dir_fef26d3633d38d4ca65fa53115b5e5dd</title>
<text text-anchor="middle" x="140" y="-103.5" font-family="Helvetica,sans-Serif" font-size="10.00">optimizer</text>
</g>
<!-- dir_3b5a16ca9d597ec3bd11cf60fc07b716&#45;&gt;dir_fef26d3633d38d4ca65fa53115b5e5dd -->
<g id="edge2" class="edge">
<title>dir_3b5a16ca9d597ec3bd11cf60fc07b716&#45;&gt;dir_fef26d3633d38d4ca65fa53115b5e5dd</title>
<path fill="none" stroke="black" d="M70.28,-106C79.61,-106 88.95,-106 98.28,-106"/>
<polygon fill="black" stroke="black" points="98.41,-109.5 108.41,-106 98.41,-102.5 98.41,-109.5"/>
<g id="a_edge2&#45;headlabel"><a xlink:href="dir_000010_000004.xhtml" target="_top" xlink:title="1">
<text text-anchor="middle" x="94.81" y="-109.84" font-family="Helvetica,sans-Serif" font-size="10.00">1</text>
</a>
</g>
</g>
<!-- dir_41ef5d8a90b9cc03a02949a5c062e6f0&#45;&gt;dir_313caf1132e152dd9b58bea13a4052ca -->
<g id="edge8" class="edge">
<title>dir_41ef5d8a90b9cc03a02949a5c062e6f0&#45;&gt;dir_313caf1132e152dd9b58bea13a4052ca</title>
<path fill="none" stroke="black" d="M105.39,-159.94C101.71,-151.72 97.85,-141.58 96,-132 91.63,-109.31 91.63,-102.69 96,-80 97.18,-73.86 99.2,-67.49 101.46,-61.55"/>
<polygon fill="black" stroke="black" points="104.8,-62.63 105.39,-52.06 98.33,-59.95 104.8,-62.63"/>
<g id="a_edge8&#45;headlabel"><a xlink:href="dir_000001_000011.xhtml" target="_top" xlink:title="1">
<text text-anchor="middle" x="106.04" y="-64.54" font-family="Helvetica,sans-Serif" font-size="10.00">1</text>
</a>
</g>
</g>
<!-- dir_41ef5d8a90b9cc03a02949a5c062e6f0&#45;&gt;dir_3b5a16ca9d597ec3bd11cf60fc07b716 -->
<g id="edge9" class="edge">
<title>dir_41ef5d8a90b9cc03a02949a5c062e6f0&#45;&gt;dir_3b5a16ca9d597ec3bd11cf60fc07b716</title>
<path fill="none" stroke="black" d="M90.53,-159.7C81.06,-151.22 70.37,-140.86 61.46,-131.58"/>
<polygon fill="black" stroke="black" points="63.84,-129.01 54.45,-124.1 58.73,-133.8 63.84,-129.01"/>
<g id="a_edge9&#45;headlabel"><a xlink:href="dir_000001_000010.xhtml" target="_top" xlink:title="1">
<text text-anchor="middle" x="68.37" y="-127.19" font-family="Helvetica,sans-Serif" font-size="10.00">1</text>
</a>
</g>
</g>
<!-- dir_434cae81b587a8a3fa87d985996d40d2 -->
<g id="node4" class="node">
<title>dir_434cae81b587a8a3fa87d985996d40d2</title>
<g id="a_node4"><a xlink:href="dir_434cae81b587a8a3fa87d985996d40d2.xhtml" target="_top" xlink:title="parameters">
<polygon fill="none" stroke="black" points="258.5,-52 185.5,-52 185.5,-16 258.5,-16 258.5,-52"/>
<text text-anchor="middle" x="222" y="-31.5" font-family="Helvetica,sans-Serif" font-size="10.00">parameters</text>
</a>
</g>
</g>
<!-- dir_41ef5d8a90b9cc03a02949a5c062e6f0&#45;&gt;dir_434cae81b587a8a3fa87d985996d40d2 -->
<g id="edge10" class="edge">
<title>dir_41ef5d8a90b9cc03a02949a5c062e6f0&#45;&gt;dir_434cae81b587a8a3fa87d985996d40d2</title>
<path fill="none" stroke="black" d="M145.52,-177.04C179.09,-175.17 230.79,-166.43 256,-132 269.65,-113.35 263.35,-101.91 256,-80 253.7,-73.14 249.89,-66.49 245.64,-60.5"/>
<polygon fill="black" stroke="black" points="248.13,-57.99 239.22,-52.25 242.6,-62.29 248.13,-57.99"/>
<g id="a_edge10&#45;headlabel"><a xlink:href="dir_000001_000007.xhtml" target="_top" xlink:title="2">
<text text-anchor="middle" x="252.57" y="-56.58" font-family="Helvetica,sans-Serif" font-size="10.00">2</text>
</a>
</g>
</g>
<!-- dir_41ef5d8a90b9cc03a02949a5c062e6f0&#45;&gt;dir_fef26d3633d38d4ca65fa53115b5e5dd -->
<g id="edge11" class="edge">
<title>dir_41ef5d8a90b9cc03a02949a5c062e6f0&#45;&gt;dir_fef26d3633d38d4ca65fa53115b5e5dd</title>
<path fill="none" stroke="black" d="M120.43,-159.7C123.36,-151.81 126.89,-142.3 130.14,-133.55"/>
<polygon fill="black" stroke="black" points="133.45,-134.7 133.65,-124.1 126.88,-132.26 133.45,-134.7"/>
<g id="a_edge11&#45;headlabel"><a xlink:href="dir_000001_000004.xhtml" target="_top" xlink:title="3">
<text text-anchor="middle" x="134.86" y="-136.56" font-family="Helvetica,sans-Serif" font-size="10.00">3</text>
</a>
</g>
</g>
<!-- dir_2d657aea63603d07fa4cf559e7749f92 -->
<g id="node6" class="node">
<title>dir_2d657aea63603d07fa4cf559e7749f92</title>
<g id="a_node6"><a xlink:href="dir_2d657aea63603d07fa4cf559e7749f92.xhtml" target="_top" xlink:title="direct">
<polygon fill="white" stroke="red" points="244,-124 190,-124 190,-88 244,-88 244,-124"/>
<text text-anchor="middle" x="217" y="-103.5" font-family="Helvetica,sans-Serif" font-size="10.00">direct</text>
</a>
</g>
</g>
<!-- dir_41ef5d8a90b9cc03a02949a5c062e6f0&#45;&gt;dir_2d657aea63603d07fa4cf559e7749f92 -->
<g id="edge7" class="edge">
<title>dir_41ef5d8a90b9cc03a02949a5c062e6f0&#45;&gt;dir_2d657aea63603d07fa4cf559e7749f92</title>
<path fill="none" stroke="black" d="M145.6,-161.26C159.48,-152.66 175.65,-141.8 190,-132 190.91,-131.38 191.83,-130.75 192.76,-130.11"/>
<polygon fill="black" stroke="black" points="194.94,-132.86 201.14,-124.26 190.94,-127.11 194.94,-132.86"/>
<g id="a_edge7&#45;headlabel"><a xlink:href="dir_000001_000005.xhtml" target="_top" xlink:title="2">
<text text-anchor="middle" x="193.62" y="-134.74" font-family="Helvetica,sans-Serif" font-size="10.00">2</text>
</a>
</g>
</g>
<!-- dir_fef26d3633d38d4ca65fa53115b5e5dd&#45;&gt;dir_313caf1132e152dd9b58bea13a4052ca -->
<g id="edge3" class="edge">
<title>dir_fef26d3633d38d4ca65fa53115b5e5dd&#45;&gt;dir_313caf1132e152dd9b58bea13a4052ca</title>
<path fill="none" stroke="black" d="M133.57,-87.7C130.64,-79.81 127.11,-70.3 123.86,-61.55"/>
<polygon fill="black" stroke="black" points="127.12,-60.26 120.35,-52.1 120.55,-62.7 127.12,-60.26"/>
<g id="a_edge3&#45;headlabel"><a xlink:href="dir_000004_000011.xhtml" target="_top" xlink:title="1">
<text text-anchor="middle" x="131.03" y="-60.14" font-family="Helvetica,sans-Serif" font-size="10.00">1</text>
</a>
</g>
</g>
<!-- dir_fef26d3633d38d4ca65fa53115b5e5dd&#45;&gt;dir_3b5a16ca9d597ec3bd11cf60fc07b716 -->
<g id="edge4" class="edge">
<title>dir_fef26d3633d38d4ca65fa53115b5e5dd&#45;&gt;dir_3b5a16ca9d597ec3bd11cf60fc07b716</title>
<path fill="none" stroke="black" d="M108.41,-106C99.08,-106 89.74,-106 80.41,-106"/>
<polygon fill="black" stroke="black" points="80.28,-102.5 70.28,-106 80.28,-109.5 80.28,-102.5"/>
<g id="a_edge4&#45;headlabel"><a xlink:href="dir_000004_000010.xhtml" target="_top" xlink:title="1">
<text text-anchor="middle" x="83.88" y="-97.16" font-family="Helvetica,sans-Serif" font-size="10.00">1</text>
</a>
</g>
</g>
<!-- dir_2d657aea63603d07fa4cf559e7749f92&#45;&gt;dir_41ef5d8a90b9cc03a02949a5c062e6f0 -->
<g id="edge5" class="edge">
<title>dir_2d657aea63603d07fa4cf559e7749f92&#45;&gt;dir_41ef5d8a90b9cc03a02949a5c062e6f0</title>
<path fill="none" stroke="black" d="M189.74,-120.03C183.78,-123.9 177.66,-128.14 172,-132 161.44,-139.21 149.89,-147 139.81,-154.04"/>
<polygon fill="black" stroke="black" points="137.54,-151.36 131.4,-160 141.58,-157.08 137.54,-151.36"/>
<g id="a_edge5&#45;headlabel"><a xlink:href="dir_000005_000001.xhtml" target="_top" xlink:title="1">
<text text-anchor="middle" x="138.83" y="-144.47" font-family="Helvetica,sans-Serif" font-size="10.00">1</text>
</a>
</g>
</g>
<!-- dir_2d657aea63603d07fa4cf559e7749f92&#45;&gt;dir_434cae81b587a8a3fa87d985996d40d2 -->
<g id="edge6" class="edge">
<title>dir_2d657aea63603d07fa4cf559e7749f92&#45;&gt;dir_434cae81b587a8a3fa87d985996d40d2</title>
<path fill="none" stroke="black" d="M218.24,-87.7C218.79,-79.98 219.45,-70.71 220.06,-62.11"/>
<polygon fill="black" stroke="black" points="223.56,-62.33 220.78,-52.1 216.57,-61.83 223.56,-62.33"/>
<g id="a_edge6&#45;headlabel"><a xlink:href="dir_000005_000007.xhtml" target="_top" xlink:title="2">
<text text-anchor="middle" x="226.13" y="-63.62" font-family="Helvetica,sans-Serif" font-size="10.00">2</text>
</a>
</g>
</g>
</g>
</svg>
