<?xml version="1.0" encoding="UTF-8" standalone="no"?>
<!DOCTYPE svg PUBLIC "-//W3C//DTD SVG 1.1//EN"
 "http://www.w3.org/Graphics/SVG/1.1/DTD/svg11.dtd">
<!-- Generated by graphviz version 2.43.0 (0)
 -->
<!-- Title: /home/runner/work/Simopticon/Simopticon/src/optimizer/direct/DirectOptimizer.h Pages: 1 -->
<svg width="1486pt" height="330pt"
 viewBox="0.00 0.00 1486.00 330.00" xmlns="http://www.w3.org/2000/svg" xmlns:xlink="http://www.w3.org/1999/xlink">
<g id="graph0" class="graph" transform="scale(1 1) rotate(0) translate(4 326)">
<title>/home/runner/work/Simopticon/Simopticon/src/optimizer/direct/DirectOptimizer.h</title>
<polygon fill="white" stroke="transparent" points="-4,4 -4,-326 1482,-326 1482,4 -4,4"/>
<!-- Node1 -->
<g id="node1" class="node">
<title>Node1</title>
<g id="a_node1"><a xlink:title="In this file, the header of the DirectOptimizer class is defined.">
<polygon fill="#bfbfbf" stroke="black" points="325.5,-280.5 325.5,-321.5 492.5,-321.5 492.5,-280.5 325.5,-280.5"/>
<text text-anchor="start" x="333.5" y="-309.5" font-family="Helvetica,sans-Serif" font-size="10.00">/home/runner/work/Simopticon</text>
<text text-anchor="start" x="333.5" y="-298.5" font-family="Helvetica,sans-Serif" font-size="10.00">/Simopticon/src/optimizer</text>
<text text-anchor="middle" x="409" y="-287.5" font-family="Helvetica,sans-Serif" font-size="10.00">/direct/DirectOptimizer.h</text>
</a>
</g>
</g>
<!-- Node2 -->
<g id="node2" class="node">
<title>Node2</title>
<g id="a_node2"><a xlink:href="DirectTypes_8h.xhtml" target="_top" xlink:title="In this file, types are defined which are used in the direct module.">
<polygon fill="white" stroke="black" points="330.5,-56.5 330.5,-75.5 413.5,-75.5 413.5,-56.5 330.5,-56.5"/>
<text text-anchor="middle" x="372" y="-63.5" font-family="Helvetica,sans-Serif" font-size="10.00">DirectTypes.h</text>
</a>
</g>
</g>
<!-- Node1&#45;&gt;Node2 -->
<g id="edge1" class="edge">
<title>Node1&#45;&gt;Node2</title>
<path fill="none" stroke="midnightblue" d="M325.4,-298.39C250.72,-291.65 149.44,-267.54 125,-188 112.03,-145.79 149.83,-132.39 189,-112 230.25,-90.53 282.11,-79.03 320.08,-73.04"/>
<polygon fill="midnightblue" stroke="midnightblue" points="321.03,-76.44 330.4,-71.5 319.99,-69.52 321.03,-76.44"/>
</g>
<!-- Node3 -->
<g id="node3" class="node">
<title>Node3</title>
<g id="a_node3"><a xlink:href="DirectComparisonFunctions_8h.xhtml" target="_top" xlink:title="In this file, comparison functions are defined which are used in the direct module.">
<polygon fill="white" stroke="black" points="142,-168.5 142,-187.5 302,-187.5 302,-168.5 142,-168.5"/>
<text text-anchor="middle" x="222" y="-175.5" font-family="Helvetica,sans-Serif" font-size="10.00">DirectComparisonFunctions.h</text>
</a>
</g>
</g>
<!-- Node1&#45;&gt;Node3 -->
<g id="edge2" class="edge">
<title>Node1&#45;&gt;Node3</title>
<path fill="none" stroke="midnightblue" d="M378.54,-280.29C340.7,-255.81 277.08,-214.64 243.79,-193.1"/>
<polygon fill="midnightblue" stroke="midnightblue" points="245.55,-190.07 235.25,-187.57 241.75,-195.95 245.55,-190.07"/>
</g>
<!-- Node4 -->
<g id="node4" class="node">
<title>Node4</title>
<g id="a_node4"><a xlink:href="HyRect_8h.xhtml" target="_top" xlink:title="In this file, the header of the HyRect class is defined.">
<polygon fill="white" stroke="black" points="197.5,-112.5 197.5,-131.5 292.5,-131.5 292.5,-112.5 197.5,-112.5"/>
<text text-anchor="middle" x="245" y="-119.5" font-family="Helvetica,sans-Serif" font-size="10.00">hyrect/HyRect.h</text>
</a>
</g>
</g>
<!-- Node1&#45;&gt;Node4 -->
<g id="edge37" class="edge">
<title>Node1&#45;&gt;Node4</title>
<path fill="none" stroke="midnightblue" d="M325.25,-290.79C260.74,-278.81 175.6,-251.27 133,-188 114.9,-161.12 152.68,-143.91 189.15,-133.99"/>
<polygon fill="midnightblue" stroke="midnightblue" points="190.04,-137.38 198.86,-131.51 188.3,-130.6 190.04,-137.38"/>
</g>
<!-- Node8 -->
<g id="node8" class="node">
<title>Node8</title>
<g id="a_node8"><a xlink:title=" ">
<polygon fill="white" stroke="#bfbfbf" points="369,-0.5 369,-19.5 427,-19.5 427,-0.5 369,-0.5"/>
<text text-anchor="middle" x="398" y="-7.5" font-family="Helvetica,sans-Serif" font-size="10.00">memory</text>
</a>
</g>
</g>
<!-- Node1&#45;&gt;Node8 -->
<g id="edge53" class="edge">
<title>Node1&#45;&gt;Node8</title>
<path fill="none" stroke="midnightblue" d="M325.25,-292.3C205.59,-278.93 0,-246.2 0,-179 0,-179 0,-179 0,-121 0,-47.09 258.22,-20.88 358.68,-13.48"/>
<polygon fill="midnightblue" stroke="midnightblue" points="359.01,-16.96 368.73,-12.76 358.51,-9.98 359.01,-16.96"/>
</g>
<!-- Node13 -->
<g id="node13" class="node">
<title>Node13</title>
<g id="a_node13"><a xlink:href="Optimizer_8h.xhtml" target="_top" xlink:title="In this file, the header of the Optimizer class is defined.">
<polygon fill="white" stroke="black" points="636,-168.5 636,-187.5 718,-187.5 718,-168.5 636,-168.5"/>
<text text-anchor="middle" x="677" y="-175.5" font-family="Helvetica,sans-Serif" font-size="10.00">../Optimizer.h</text>
</a>
</g>
</g>
<!-- Node1&#45;&gt;Node13 -->
<g id="edge15" class="edge">
<title>Node1&#45;&gt;Node13</title>
<path fill="none" stroke="midnightblue" d="M444.06,-280.35C473.48,-264.23 516.85,-241.32 556,-224 584.28,-211.49 617.23,-199.39 641.6,-190.89"/>
<polygon fill="midnightblue" stroke="midnightblue" points="642.84,-194.17 651.15,-187.6 640.55,-187.55 642.84,-194.17"/>
</g>
<!-- Node18 -->
<g id="node18" class="node">
<title>Node18</title>
<g id="a_node18"><a xlink:href="DirectStoppingCondition_8h.xhtml" target="_top" xlink:title="In this file, the header of the StoppingCondition class is defined.">
<polygon fill="white" stroke="black" points="1214,-168.5 1214,-187.5 1358,-187.5 1358,-168.5 1214,-168.5"/>
<text text-anchor="middle" x="1286" y="-175.5" font-family="Helvetica,sans-Serif" font-size="10.00">DirectStoppingCondition.h</text>
</a>
</g>
</g>
<!-- Node1&#45;&gt;Node18 -->
<g id="edge27" class="edge">
<title>Node1&#45;&gt;Node18</title>
<path fill="none" stroke="midnightblue" d="M460.96,-280.4C487.52,-270.09 520.22,-256.92 549,-244 567.13,-235.86 569.81,-229.19 589,-224 702.68,-193.26 1045.1,-183.26 1203.71,-180.23"/>
<polygon fill="midnightblue" stroke="midnightblue" points="1203.96,-183.72 1213.89,-180.04 1203.83,-176.72 1203.96,-183.72"/>
</g>
<!-- Node22 -->
<g id="node22" class="node">
<title>Node22</title>
<g id="a_node22"><a xlink:href="ParameterNormalizer_8h.xhtml" target="_top" xlink:title="In this file, the header of the ParameterNormalizer class is defined.">
<polygon fill="white" stroke="black" points="481.5,-112.5 481.5,-131.5 610.5,-131.5 610.5,-112.5 481.5,-112.5"/>
<text text-anchor="middle" x="546" y="-119.5" font-family="Helvetica,sans-Serif" font-size="10.00">ParameterNormalizer.h</text>
</a>
</g>
</g>
<!-- Node1&#45;&gt;Node22 -->
<g id="edge38" class="edge">
<title>Node1&#45;&gt;Node22</title>
<path fill="none" stroke="midnightblue" d="M424.18,-280.38C451.31,-245.33 507.64,-172.57 533.06,-139.72"/>
<polygon fill="midnightblue" stroke="midnightblue" points="536,-141.63 539.36,-131.58 530.47,-137.35 536,-141.63"/>
</g>
<!-- Node23 -->
<g id="node23" class="node">
<title>Node23</title>
<g id="a_node23"><a xlink:href="Levels_8h.xhtml" target="_top" xlink:title="In this file, the header of the Levels class is defined.">
<polygon fill="white" stroke="black" points="339.5,-224.5 339.5,-243.5 396.5,-243.5 396.5,-224.5 339.5,-224.5"/>
<text text-anchor="middle" x="368" y="-231.5" font-family="Helvetica,sans-Serif" font-size="10.00">Levels.h</text>
</a>
</g>
</g>
<!-- Node1&#45;&gt;Node23 -->
<g id="edge44" class="edge">
<title>Node1&#45;&gt;Node23</title>
<path fill="none" stroke="midnightblue" d="M396.7,-280.5C391.02,-271.49 384.33,-260.89 378.84,-252.19"/>
<polygon fill="midnightblue" stroke="midnightblue" points="381.75,-250.24 373.46,-243.65 375.83,-253.98 381.75,-250.24"/>
</g>
<!-- Node24 -->
<g id="node24" class="node">
<title>Node24</title>
<g id="a_node24"><a xlink:title=" ">
<polygon fill="white" stroke="#bfbfbf" points="434,-168.5 434,-187.5 466,-187.5 466,-168.5 434,-168.5"/>
<text text-anchor="middle" x="450" y="-175.5" font-family="Helvetica,sans-Serif" font-size="10.00">set</text>
</a>
</g>
</g>
<!-- Node1&#45;&gt;Node24 -->
<g id="edge51" class="edge">
<title>Node1&#45;&gt;Node24</title>
<path fill="none" stroke="midnightblue" d="M415.68,-280.29C423.48,-257.27 436.28,-219.5 443.84,-197.17"/>
<polygon fill="midnightblue" stroke="midnightblue" points="447.2,-198.17 447.09,-187.57 440.57,-195.92 447.2,-198.17"/>
</g>
<!-- Node25 -->
<g id="node25" class="node">
<title>Node25</title>
<g id="a_node25"><a xlink:title=" ">
<polygon fill="white" stroke="#bfbfbf" points="598,-224.5 598,-243.5 684,-243.5 684,-224.5 598,-224.5"/>
<text text-anchor="middle" x="641" y="-231.5" font-family="Helvetica,sans-Serif" font-size="10.00">unordered_set</text>
</a>
</g>
</g>
<!-- Node1&#45;&gt;Node25 -->
<g id="edge52" class="edge">
<title>Node1&#45;&gt;Node25</title>
<path fill="none" stroke="midnightblue" d="M478.61,-280.5C518.4,-269.35 566.92,-255.76 600.5,-246.35"/>
<polygon fill="midnightblue" stroke="midnightblue" points="601.74,-249.64 610.42,-243.57 599.85,-242.89 601.74,-249.64"/>
</g>
<!-- Node3&#45;&gt;Node4 -->
<g id="edge3" class="edge">
<title>Node3&#45;&gt;Node4</title>
<path fill="none" stroke="midnightblue" d="M225.8,-168.08C228.91,-160.77 233.42,-150.18 237.29,-141.1"/>
<polygon fill="midnightblue" stroke="midnightblue" points="240.57,-142.32 241.27,-131.75 234.13,-139.58 240.57,-142.32"/>
</g>
<!-- Node4&#45;&gt;Node2 -->
<g id="edge8" class="edge">
<title>Node4&#45;&gt;Node2</title>
<path fill="none" stroke="midnightblue" d="M265.12,-112.44C286.02,-103.56 318.93,-89.56 342.72,-79.45"/>
<polygon fill="midnightblue" stroke="midnightblue" points="344.14,-82.65 351.97,-75.52 341.4,-76.21 344.14,-82.65"/>
</g>
<!-- Node5 -->
<g id="node5" class="node">
<title>Node5</title>
<g id="a_node5"><a xlink:href="Types_8h.xhtml" target="_top" xlink:title="In this file, types are defined which should be used across the whole framework.">
<polygon fill="white" stroke="black" points="705,-56.5 705,-75.5 785,-75.5 785,-56.5 705,-56.5"/>
<text text-anchor="middle" x="745" y="-63.5" font-family="Helvetica,sans-Serif" font-size="10.00">../../../Types.h</text>
</a>
</g>
</g>
<!-- Node4&#45;&gt;Node5 -->
<g id="edge4" class="edge">
<title>Node4&#45;&gt;Node5</title>
<path fill="none" stroke="midnightblue" d="M292.94,-115.82C387.75,-105.58 598.34,-82.84 694.89,-72.41"/>
<polygon fill="midnightblue" stroke="midnightblue" points="695.41,-75.88 704.97,-71.32 694.66,-68.92 695.41,-75.88"/>
</g>
<!-- Node7 -->
<g id="node7" class="node">
<title>Node7</title>
<g id="a_node7"><a xlink:title=" ">
<polygon fill="white" stroke="#bfbfbf" points="597.5,-0.5 597.5,-19.5 644.5,-19.5 644.5,-0.5 597.5,-0.5"/>
<text text-anchor="middle" x="621" y="-7.5" font-family="Helvetica,sans-Serif" font-size="10.00">vector</text>
</a>
</g>
</g>
<!-- Node4&#45;&gt;Node7 -->
<g id="edge11" class="edge">
<title>Node4&#45;&gt;Node7</title>
<path fill="none" stroke="midnightblue" d="M252.47,-112.09C265.14,-97.65 292.36,-69.42 322,-56 411.4,-15.51 529.68,-10.16 586.99,-10.22"/>
<polygon fill="midnightblue" stroke="midnightblue" points="587.26,-13.72 597.28,-10.29 587.31,-6.72 587.26,-13.72"/>
</g>
<!-- Node4&#45;&gt;Node8 -->
<g id="edge14" class="edge">
<title>Node4&#45;&gt;Node8</title>
<path fill="none" stroke="midnightblue" d="M234.07,-112.46C218.78,-99.5 194.45,-74.42 209,-56 227.3,-32.83 308.94,-20.31 358.75,-14.7"/>
<polygon fill="midnightblue" stroke="midnightblue" points="359.29,-18.17 368.86,-13.61 358.54,-11.21 359.29,-18.17"/>
</g>
<!-- Node9 -->
<g id="node9" class="node">
<title>Node9</title>
<g id="a_node9"><a xlink:title=" ">
<polygon fill="white" stroke="#bfbfbf" points="218,-56.5 218,-75.5 274,-75.5 274,-56.5 218,-56.5"/>
<text text-anchor="middle" x="246" y="-63.5" font-family="Helvetica,sans-Serif" font-size="10.00">optional</text>
</a>
</g>
</g>
<!-- Node4&#45;&gt;Node9 -->
<g id="edge9" class="edge">
<title>Node4&#45;&gt;Node9</title>
<path fill="none" stroke="midnightblue" d="M245.17,-112.08C245.3,-105.01 245.48,-94.86 245.65,-85.99"/>
<polygon fill="midnightblue" stroke="midnightblue" points="249.15,-85.81 245.84,-75.75 242.15,-85.68 249.15,-85.81"/>
</g>
<!-- Node10 -->
<g id="node10" class="node">
<title>Node10</title>
<g id="a_node10"><a xlink:title=" ">
<polygon fill="white" stroke="#bfbfbf" points="120,-56.5 120,-75.5 162,-75.5 162,-56.5 120,-56.5"/>
<text text-anchor="middle" x="141" y="-63.5" font-family="Helvetica,sans-Serif" font-size="10.00">array</text>
</a>
</g>
</g>
<!-- Node4&#45;&gt;Node10 -->
<g id="edge10" class="edge">
<title>Node4&#45;&gt;Node10</title>
<path fill="none" stroke="midnightblue" d="M228.29,-112.32C211.69,-103.7 186,-90.36 166.78,-80.39"/>
<polygon fill="midnightblue" stroke="midnightblue" points="168.16,-77.16 157.67,-75.65 164.93,-83.37 168.16,-77.16"/>
</g>
<!-- Node11 -->
<g id="node11" class="node">
<title>Node11</title>
<g id="a_node11"><a xlink:title=" ">
<polygon fill="white" stroke="#bfbfbf" points="1217.5,-56.5 1217.5,-75.5 1264.5,-75.5 1264.5,-56.5 1217.5,-56.5"/>
<text text-anchor="middle" x="1241" y="-63.5" font-family="Helvetica,sans-Serif" font-size="10.00">cmath</text>
</a>
</g>
</g>
<!-- Node4&#45;&gt;Node11 -->
<g id="edge12" class="edge">
<title>Node4&#45;&gt;Node11</title>
<path fill="none" stroke="midnightblue" d="M292.7,-117.59C318.03,-115.83 349.7,-113.7 378,-112 700.77,-92.67 1091.74,-73.99 1207.3,-68.57"/>
<polygon fill="midnightblue" stroke="midnightblue" points="1207.49,-72.06 1217.31,-68.1 1207.16,-65.07 1207.49,-72.06"/>
</g>
<!-- Node12 -->
<g id="node12" class="node">
<title>Node12</title>
<g id="a_node12"><a xlink:title=" ">
<polygon fill="white" stroke="#bfbfbf" points="435,-56.5 435,-75.5 467,-75.5 467,-56.5 435,-56.5"/>
<text text-anchor="middle" x="451" y="-63.5" font-family="Helvetica,sans-Serif" font-size="10.00">list</text>
</a>
</g>
</g>
<!-- Node4&#45;&gt;Node12 -->
<g id="edge13" class="edge">
<title>Node4&#45;&gt;Node12</title>
<path fill="none" stroke="midnightblue" d="M281.66,-112.45C317.77,-103.86 374.44,-89.93 423,-76 423.72,-75.79 424.45,-75.58 425.18,-75.37"/>
<polygon fill="midnightblue" stroke="midnightblue" points="426.24,-78.7 434.77,-72.41 424.18,-72.01 426.24,-78.7"/>
</g>
<!-- Node6 -->
<g id="node6" class="node">
<title>Node6</title>
<g id="a_node6"><a xlink:title=" ">
<polygon fill="white" stroke="#bfbfbf" points="941,-0.5 941,-19.5 985,-19.5 985,-0.5 941,-0.5"/>
<text text-anchor="middle" x="963" y="-7.5" font-family="Helvetica,sans-Serif" font-size="10.00">string</text>
</a>
</g>
</g>
<!-- Node5&#45;&gt;Node6 -->
<g id="edge5" class="edge">
<title>Node5&#45;&gt;Node6</title>
<path fill="none" stroke="midnightblue" d="M779.54,-56.44C821.18,-46.13 890.58,-28.94 931.03,-18.92"/>
<polygon fill="midnightblue" stroke="midnightblue" points="932.04,-22.28 940.9,-16.47 930.35,-15.48 932.04,-22.28"/>
</g>
<!-- Node5&#45;&gt;Node7 -->
<g id="edge6" class="edge">
<title>Node5&#45;&gt;Node7</title>
<path fill="none" stroke="midnightblue" d="M725.35,-56.44C705.04,-47.6 673.1,-33.69 649.9,-23.59"/>
<polygon fill="midnightblue" stroke="midnightblue" points="651.12,-20.3 640.56,-19.52 648.33,-26.72 651.12,-20.3"/>
</g>
<!-- Node5&#45;&gt;Node8 -->
<g id="edge7" class="edge">
<title>Node5&#45;&gt;Node8</title>
<path fill="none" stroke="midnightblue" d="M704.86,-58.75C637.8,-48.32 503.81,-27.47 437.31,-17.12"/>
<polygon fill="midnightblue" stroke="midnightblue" points="437.66,-13.63 427.24,-15.55 436.58,-20.55 437.66,-13.63"/>
</g>
<!-- Node13&#45;&gt;Node5 -->
<g id="edge16" class="edge">
<title>Node13&#45;&gt;Node5</title>
<path fill="none" stroke="midnightblue" d="M682.34,-168.37C693.51,-150.3 719.55,-108.18 734.3,-84.31"/>
<polygon fill="midnightblue" stroke="midnightblue" points="737.41,-85.94 739.69,-75.59 731.45,-82.26 737.41,-85.94"/>
</g>
<!-- Node13&#45;&gt;Node7 -->
<g id="edge24" class="edge">
<title>Node13&#45;&gt;Node7</title>
<path fill="none" stroke="midnightblue" d="M676.53,-168.42C675.17,-148.1 670.12,-95.73 653,-56 648.6,-45.79 641.61,-35.59 635.29,-27.49"/>
<polygon fill="midnightblue" stroke="midnightblue" points="637.89,-25.14 628.84,-19.62 632.47,-29.57 637.89,-25.14"/>
</g>
<!-- Node13&#45;&gt;Node8 -->
<g id="edge26" class="edge">
<title>Node13&#45;&gt;Node8</title>
<path fill="none" stroke="midnightblue" d="M671.24,-168.42C661.84,-154.94 642.04,-128.65 620,-112 562.4,-68.48 483.06,-38.13 436.48,-22.71"/>
<polygon fill="midnightblue" stroke="midnightblue" points="437.37,-19.32 426.78,-19.56 435.21,-25.98 437.37,-19.32"/>
</g>
<!-- Node13&#45;&gt;Node12 -->
<g id="edge23" class="edge">
<title>Node13&#45;&gt;Node12</title>
<path fill="none" stroke="midnightblue" d="M635.75,-172.7C583.28,-166.43 496.63,-153.18 473,-132 459.85,-120.21 454.55,-100.29 452.42,-85.6"/>
<polygon fill="midnightblue" stroke="midnightblue" points="455.9,-85.17 451.33,-75.6 448.94,-85.92 455.9,-85.17"/>
</g>
<!-- Node14 -->
<g id="node14" class="node">
<title>Node14</title>
<g id="a_node14"><a xlink:href="ParameterDefinition_8h.xhtml" target="_top" xlink:title="In this file, the header of the ParameterDefinition class is defined.">
<polygon fill="white" stroke="black" points="867.5,-112.5 867.5,-131.5 1058.5,-131.5 1058.5,-112.5 867.5,-112.5"/>
<text text-anchor="middle" x="963" y="-119.5" font-family="Helvetica,sans-Serif" font-size="10.00">../parameters/ParameterDefinition.h</text>
</a>
</g>
</g>
<!-- Node13&#45;&gt;Node14 -->
<g id="edge17" class="edge">
<title>Node13&#45;&gt;Node14</title>
<path fill="none" stroke="midnightblue" d="M718.28,-169.21C768.23,-159.77 852.51,-143.86 907.95,-133.39"/>
<polygon fill="midnightblue" stroke="midnightblue" points="908.78,-136.8 917.96,-131.5 907.48,-129.92 908.78,-136.8"/>
</g>
<!-- Node15 -->
<g id="node15" class="node">
<title>Node15</title>
<g id="a_node15"><a xlink:href="Status_8h.xhtml" target="_top" xlink:title="In this file, the header of the Status class is defined.">
<polygon fill="white" stroke="black" points="1115,-112.5 1115,-131.5 1213,-131.5 1213,-112.5 1115,-112.5"/>
<text text-anchor="middle" x="1164" y="-119.5" font-family="Helvetica,sans-Serif" font-size="10.00">../status/Status.h</text>
</a>
</g>
</g>
<!-- Node13&#45;&gt;Node15 -->
<g id="edge20" class="edge">
<title>Node13&#45;&gt;Node15</title>
<path fill="none" stroke="midnightblue" d="M718.1,-172.44C804.45,-162.87 1004.99,-140.63 1105.03,-129.54"/>
<polygon fill="midnightblue" stroke="midnightblue" points="1105.42,-133.02 1114.98,-128.44 1104.65,-126.06 1105.42,-133.02"/>
</g>
<!-- Node16 -->
<g id="node16" class="node">
<title>Node16</title>
<g id="a_node16"><a xlink:href="Abortable_8h.xhtml" target="_top" xlink:title="In this file, the header of the Abortable class is defined.">
<polygon fill="white" stroke="black" points="743,-112.5 743,-131.5 849,-131.5 849,-112.5 743,-112.5"/>
<text text-anchor="middle" x="796" y="-119.5" font-family="Helvetica,sans-Serif" font-size="10.00">../utils/Abortable.h</text>
</a>
</g>
</g>
<!-- Node13&#45;&gt;Node16 -->
<g id="edge22" class="edge">
<title>Node13&#45;&gt;Node16</title>
<path fill="none" stroke="midnightblue" d="M695.86,-168.44C715.27,-159.64 745.73,-145.81 767.96,-135.72"/>
<polygon fill="midnightblue" stroke="midnightblue" points="769.57,-138.84 777.23,-131.52 766.68,-132.46 769.57,-138.84"/>
</g>
<!-- Node17 -->
<g id="node17" class="node">
<title>Node17</title>
<g id="a_node17"><a xlink:title=" ">
<polygon fill="white" stroke="#bfbfbf" points="387,-112.5 387,-131.5 425,-131.5 425,-112.5 387,-112.5"/>
<text text-anchor="middle" x="406" y="-119.5" font-family="Helvetica,sans-Serif" font-size="10.00">map</text>
</a>
</g>
</g>
<!-- Node13&#45;&gt;Node17 -->
<g id="edge25" class="edge">
<title>Node13&#45;&gt;Node17</title>
<path fill="none" stroke="midnightblue" d="M635.94,-170.26C588.34,-162.2 507.64,-147.82 439,-132 437.73,-131.71 436.44,-131.4 435.13,-131.08"/>
<polygon fill="midnightblue" stroke="midnightblue" points="435.69,-127.61 425.13,-128.49 433.94,-134.39 435.69,-127.61"/>
</g>
<!-- Node14&#45;&gt;Node5 -->
<g id="edge18" class="edge">
<title>Node14&#45;&gt;Node5</title>
<path fill="none" stroke="midnightblue" d="M928.46,-112.44C890.75,-103.1 830.26,-88.12 789.14,-77.93"/>
<polygon fill="midnightblue" stroke="midnightblue" points="789.93,-74.52 779.38,-75.52 788.25,-81.32 789.93,-74.52"/>
</g>
<!-- Node14&#45;&gt;Node6 -->
<g id="edge19" class="edge">
<title>Node14&#45;&gt;Node6</title>
<path fill="none" stroke="midnightblue" d="M963,-112.37C963,-94.62 963,-53.67 963,-29.6"/>
<polygon fill="midnightblue" stroke="midnightblue" points="966.5,-29.59 963,-19.59 959.5,-29.59 966.5,-29.59"/>
</g>
<!-- Node15&#45;&gt;Node6 -->
<g id="edge21" class="edge">
<title>Node15&#45;&gt;Node6</title>
<path fill="none" stroke="midnightblue" d="M1148.23,-112.37C1113.37,-93.29 1029.55,-47.42 987.68,-24.51"/>
<polygon fill="midnightblue" stroke="midnightblue" points="989.15,-21.32 978.7,-19.59 985.79,-27.46 989.15,-21.32"/>
</g>
<!-- Node18&#45;&gt;Node5 -->
<g id="edge28" class="edge">
<title>Node18&#45;&gt;Node5</title>
<path fill="none" stroke="midnightblue" d="M1238.82,-168.43C1201.94,-160.97 1149.79,-148.72 1106,-132 1088.17,-125.19 1086.17,-117.85 1068,-112 974.7,-81.96 859.88,-71.97 795.31,-68.65"/>
<polygon fill="midnightblue" stroke="midnightblue" points="795.17,-65.14 785.01,-68.16 794.83,-72.13 795.17,-65.14"/>
</g>
<!-- Node18&#45;&gt;Node11 -->
<g id="edge36" class="edge">
<title>Node18&#45;&gt;Node11</title>
<path fill="none" stroke="midnightblue" d="M1280.17,-168.36C1274.41,-159.53 1265.68,-145.27 1260,-132 1253.5,-116.8 1248.41,-98.68 1245.14,-85.44"/>
<polygon fill="midnightblue" stroke="midnightblue" points="1248.53,-84.57 1242.83,-75.64 1241.71,-86.18 1248.53,-84.57"/>
</g>
<!-- Node19 -->
<g id="node19" class="node">
<title>Node19</title>
<g id="a_node19"><a xlink:title=" ">
<polygon fill="white" stroke="#bfbfbf" points="1294,-56.5 1294,-75.5 1404,-75.5 1404,-56.5 1294,-56.5"/>
<text text-anchor="middle" x="1349" y="-63.5" font-family="Helvetica,sans-Serif" font-size="10.00">nlohmann/json.hpp</text>
</a>
</g>
</g>
<!-- Node18&#45;&gt;Node19 -->
<g id="edge29" class="edge">
<title>Node18&#45;&gt;Node19</title>
<path fill="none" stroke="midnightblue" d="M1344.57,-168.48C1366.33,-162.16 1388.88,-151.16 1402,-132 1414.63,-113.56 1393.06,-93.86 1373.76,-81.05"/>
<polygon fill="midnightblue" stroke="midnightblue" points="1375.52,-78.02 1365.19,-75.67 1371.8,-83.95 1375.52,-78.02"/>
</g>
<!-- Node20 -->
<g id="node20" class="node">
<title>Node20</title>
<g id="a_node20"><a xlink:href="StoppingCondition_8h.xhtml" target="_top" xlink:title="In this file, the header of the StoppingCondition class is defined.">
<polygon fill="white" stroke="black" points="1269,-112.5 1269,-131.5 1393,-131.5 1393,-112.5 1269,-112.5"/>
<text text-anchor="middle" x="1331" y="-119.5" font-family="Helvetica,sans-Serif" font-size="10.00">../StoppingCondition.h</text>
</a>
</g>
</g>
<!-- Node18&#45;&gt;Node20 -->
<g id="edge30" class="edge">
<title>Node18&#45;&gt;Node20</title>
<path fill="none" stroke="midnightblue" d="M1293.43,-168.08C1299.85,-160.38 1309.31,-149.03 1317.12,-139.65"/>
<polygon fill="midnightblue" stroke="midnightblue" points="1319.99,-141.67 1323.71,-131.75 1314.62,-137.19 1319.99,-141.67"/>
</g>
<!-- Node21 -->
<g id="node21" class="node">
<title>Node21</title>
<g id="a_node21"><a xlink:title=" ">
<polygon fill="white" stroke="#bfbfbf" points="1428,-56.5 1428,-75.5 1478,-75.5 1478,-56.5 1428,-56.5"/>
<text text-anchor="middle" x="1453" y="-63.5" font-family="Helvetica,sans-Serif" font-size="10.00">chrono</text>
</a>
</g>
</g>
<!-- Node18&#45;&gt;Node21 -->
<g id="edge35" class="edge">
<title>Node18&#45;&gt;Node21</title>
<path fill="none" stroke="midnightblue" d="M1337.31,-168.5C1363.46,-162.05 1394.43,-150.93 1417,-132 1431.63,-119.73 1441.38,-99.91 1447,-85.38"/>
<polygon fill="midnightblue" stroke="midnightblue" points="1450.31,-86.51 1450.37,-75.91 1443.72,-84.16 1450.31,-86.51"/>
</g>
<!-- Node20&#45;&gt;Node5 -->
<g id="edge31" class="edge">
<title>Node20&#45;&gt;Node5</title>
<path fill="none" stroke="midnightblue" d="M1268.84,-115.27C1152.11,-104.52 902.24,-81.49 795.28,-71.63"/>
<polygon fill="midnightblue" stroke="midnightblue" points="795.35,-68.13 785.07,-70.69 794.71,-75.1 795.35,-68.13"/>
</g>
<!-- Node20&#45;&gt;Node11 -->
<g id="edge34" class="edge">
<title>Node20&#45;&gt;Node11</title>
<path fill="none" stroke="midnightblue" d="M1316.54,-112.32C1302.5,-103.9 1280.95,-90.97 1264.46,-81.07"/>
<polygon fill="midnightblue" stroke="midnightblue" points="1265.8,-77.8 1255.42,-75.65 1262.2,-83.8 1265.8,-77.8"/>
</g>
<!-- Node20&#45;&gt;Node19 -->
<g id="edge32" class="edge">
<title>Node20&#45;&gt;Node19</title>
<path fill="none" stroke="midnightblue" d="M1333.97,-112.08C1336.38,-104.85 1339.86,-94.41 1342.87,-85.4"/>
<polygon fill="midnightblue" stroke="midnightblue" points="1346.24,-86.34 1346.08,-75.75 1339.6,-84.13 1346.24,-86.34"/>
</g>
<!-- Node20&#45;&gt;Node21 -->
<g id="edge33" class="edge">
<title>Node20&#45;&gt;Node21</title>
<path fill="none" stroke="midnightblue" d="M1350.33,-112.44C1370.32,-103.6 1401.74,-89.69 1424.56,-79.59"/>
<polygon fill="midnightblue" stroke="midnightblue" points="1426.03,-82.76 1433.76,-75.52 1423.2,-76.36 1426.03,-82.76"/>
</g>
<!-- Node22&#45;&gt;Node2 -->
<g id="edge39" class="edge">
<title>Node22&#45;&gt;Node2</title>
<path fill="none" stroke="midnightblue" d="M518.43,-112.44C488.9,-103.28 441.88,-88.69 409.12,-78.52"/>
<polygon fill="midnightblue" stroke="midnightblue" points="410.03,-75.14 399.44,-75.52 407.96,-81.82 410.03,-75.14"/>
</g>
<!-- Node22&#45;&gt;Node5 -->
<g id="edge40" class="edge">
<title>Node22&#45;&gt;Node5</title>
<path fill="none" stroke="midnightblue" d="M577.53,-112.44C611.59,-103.2 666.01,-88.44 703.52,-78.26"/>
<polygon fill="midnightblue" stroke="midnightblue" points="704.88,-81.51 713.62,-75.52 703.05,-74.76 704.88,-81.51"/>
</g>
<!-- Node22&#45;&gt;Node7 -->
<g id="edge42" class="edge">
<title>Node22&#45;&gt;Node7</title>
<path fill="none" stroke="midnightblue" d="M551.89,-112.37C564.26,-94.22 593.18,-51.8 609.42,-27.99"/>
<polygon fill="midnightblue" stroke="midnightblue" points="612.4,-29.83 615.14,-19.59 606.62,-25.88 612.4,-29.83"/>
</g>
<!-- Node22&#45;&gt;Node8 -->
<g id="edge43" class="edge">
<title>Node22&#45;&gt;Node8</title>
<path fill="none" stroke="midnightblue" d="M537.92,-112.34C525.42,-99.22 500.28,-73.92 476,-56 459.75,-44.01 440.04,-32.66 424.49,-24.36"/>
<polygon fill="midnightblue" stroke="midnightblue" points="425.91,-21.15 415.42,-19.61 422.66,-27.35 425.91,-21.15"/>
</g>
<!-- Node22&#45;&gt;Node12 -->
<g id="edge41" class="edge">
<title>Node22&#45;&gt;Node12</title>
<path fill="none" stroke="midnightblue" d="M530.74,-112.32C515.78,-103.82 492.75,-90.73 475.27,-80.8"/>
<polygon fill="midnightblue" stroke="midnightblue" points="476.65,-77.55 466.23,-75.65 473.19,-83.64 476.65,-77.55"/>
</g>
<!-- Node23&#45;&gt;Node2 -->
<g id="edge46" class="edge">
<title>Node23&#45;&gt;Node2</title>
<path fill="none" stroke="midnightblue" d="M363.68,-224.38C354.25,-204.39 333.53,-153.42 345,-112 347.79,-101.92 353.51,-91.83 358.97,-83.77"/>
<polygon fill="midnightblue" stroke="midnightblue" points="361.82,-85.79 364.85,-75.64 356.15,-81.69 361.82,-85.79"/>
</g>
<!-- Node23&#45;&gt;Node3 -->
<g id="edge45" class="edge">
<title>Node23&#45;&gt;Node3</title>
<path fill="none" stroke="midnightblue" d="M344.87,-224.44C320.52,-215.44 281.99,-201.19 254.58,-191.05"/>
<polygon fill="midnightblue" stroke="midnightblue" points="255.62,-187.7 245.03,-187.52 253.19,-194.27 255.62,-187.7"/>
</g>
<!-- Node23&#45;&gt;Node8 -->
<g id="edge47" class="edge">
<title>Node23&#45;&gt;Node8</title>
<path fill="none" stroke="midnightblue" d="M339.22,-231.42C283.03,-227.73 161.71,-216.57 133,-188 90.84,-146.04 72.34,-101.2 111,-56 142.34,-19.36 286.94,-12.35 358.15,-11.15"/>
<polygon fill="midnightblue" stroke="midnightblue" points="358.56,-14.64 368.51,-11.01 358.47,-7.64 358.56,-14.64"/>
</g>
<!-- Node23&#45;&gt;Node12 -->
<g id="edge49" class="edge">
<title>Node23&#45;&gt;Node12</title>
<path fill="none" stroke="midnightblue" d="M366.23,-224.28C362.44,-203.19 355.62,-148.47 378,-112 388.64,-94.66 408.72,-83.01 425.13,-75.92"/>
<polygon fill="midnightblue" stroke="midnightblue" points="426.76,-79.03 434.76,-72.08 424.17,-72.53 426.76,-79.03"/>
</g>
<!-- Node23&#45;&gt;Node17 -->
<g id="edge48" class="edge">
<title>Node23&#45;&gt;Node17</title>
<path fill="none" stroke="midnightblue" d="M370.98,-224.37C377.14,-206.54 391.39,-165.3 399.69,-141.27"/>
<polygon fill="midnightblue" stroke="midnightblue" points="403.07,-142.19 403.03,-131.59 396.46,-139.9 403.07,-142.19"/>
</g>
<!-- Node23&#45;&gt;Node24 -->
<g id="edge50" class="edge">
<title>Node23&#45;&gt;Node24</title>
<path fill="none" stroke="midnightblue" d="M381.17,-224.32C393.85,-215.98 413.23,-203.21 428.21,-193.35"/>
<polygon fill="midnightblue" stroke="midnightblue" points="430.43,-196.08 436.86,-187.65 426.58,-190.23 430.43,-196.08"/>
</g>
</g>
</svg>
