<?xml version="1.0" encoding="UTF-8" standalone="no"?>
<!DOCTYPE svg PUBLIC "-//W3C//DTD SVG 1.1//EN"
 "http://www.w3.org/Graphics/SVG/1.1/DTD/svg11.dtd">
<!-- Generated by graphviz version 2.43.0 (0)
 -->
<!-- Title: /home/runner/work/Simopticon/Simopticon/src/optimizer/direct/DirectTypes.h Pages: 1 -->
<svg width="1603pt" height="440pt"
 viewBox="0.00 0.00 1602.92 440.00" xmlns="http://www.w3.org/2000/svg" xmlns:xlink="http://www.w3.org/1999/xlink">
<g id="graph0" class="graph" transform="scale(1 1) rotate(0) translate(4 436)">
<title>/home/runner/work/Simopticon/Simopticon/src/optimizer/direct/DirectTypes.h</title>
<polygon fill="white" stroke="transparent" points="-4,4 -4,-436 1598.92,-436 1598.92,4 -4,4"/>
<!-- Node1 -->
<g id="node1" class="node">
<title>Node1</title>
<g id="a_node1"><a xlink:title="In this file, types are defined which are used in the direct module.">
<polygon fill="#bfbfbf" stroke="black" points="878,-390.5 878,-431.5 1045,-431.5 1045,-390.5 878,-390.5"/>
<text text-anchor="start" x="886" y="-419.5" font-family="Helvetica,sans-Serif" font-size="10.00">/home/runner/work/Simopticon</text>
<text text-anchor="start" x="886" y="-408.5" font-family="Helvetica,sans-Serif" font-size="10.00">/Simopticon/src/optimizer</text>
<text text-anchor="middle" x="961.5" y="-397.5" font-family="Helvetica,sans-Serif" font-size="10.00">/direct/DirectTypes.h</text>
</a>
</g>
</g>
<!-- Node2 -->
<g id="node2" class="node">
<title>Node2</title>
<g id="a_node2"><a xlink:href="StubController_8h.xhtml" target="_top" xlink:title="In this file, the header of the StubController class is defined.">
<polygon fill="white" stroke="black" points="167,-312.5 167,-353.5 334,-353.5 334,-312.5 167,-312.5"/>
<text text-anchor="start" x="175" y="-341.5" font-family="Helvetica,sans-Serif" font-size="10.00">/home/runner/work/Simopticon</text>
<text text-anchor="start" x="175" y="-330.5" font-family="Helvetica,sans-Serif" font-size="10.00">/Simopticon/src/controller</text>
<text text-anchor="middle" x="250.5" y="-319.5" font-family="Helvetica,sans-Serif" font-size="10.00">/StubController.h</text>
</a>
</g>
</g>
<!-- Node1&#45;&gt;Node2 -->
<g id="edge1" class="edge">
<title>Node1&#45;&gt;Node2</title>
<path fill="none" stroke="midnightblue" d="M867.59,-399.96C727.91,-385.03 467.57,-357.2 334.11,-342.94"/>
<polygon fill="midnightblue" stroke="midnightblue" points="867.53,-403.48 877.85,-401.06 868.28,-396.52 867.53,-403.48"/>
</g>
<!-- Node6 -->
<g id="node6" class="node">
<title>Node6</title>
<g id="a_node6"><a xlink:href="DirectOptimizer_8h.xhtml" target="_top" xlink:title="In this file, the header of the DirectOptimizer class is defined.">
<polygon fill="white" stroke="black" points="1027,-78.5 1027,-119.5 1194,-119.5 1194,-78.5 1027,-78.5"/>
<text text-anchor="start" x="1035" y="-107.5" font-family="Helvetica,sans-Serif" font-size="10.00">/home/runner/work/Simopticon</text>
<text text-anchor="start" x="1035" y="-96.5" font-family="Helvetica,sans-Serif" font-size="10.00">/Simopticon/src/optimizer</text>
<text text-anchor="middle" x="1110.5" y="-85.5" font-family="Helvetica,sans-Serif" font-size="10.00">/direct/DirectOptimizer.h</text>
</a>
</g>
</g>
<!-- Node1&#45;&gt;Node6 -->
<g id="edge5" class="edge">
<title>Node1&#45;&gt;Node6</title>
<path fill="none" stroke="midnightblue" d="M1055.34,-404.73C1179.13,-396.88 1389.82,-380.18 1462.5,-354 1522,-332.57 1551.44,-331.64 1581.5,-276 1661.99,-127 1350,-102.76 1194.16,-99.75"/>
<polygon fill="midnightblue" stroke="midnightblue" points="1054.87,-401.25 1045.11,-405.37 1055.31,-408.24 1054.87,-401.25"/>
</g>
<!-- Node8 -->
<g id="node8" class="node">
<title>Node8</title>
<g id="a_node8"><a xlink:href="HyRect_8h.xhtml" target="_top" xlink:title="In this file, the header of the HyRect class is defined.">
<polygon fill="white" stroke="black" points="878,-312.5 878,-353.5 1045,-353.5 1045,-312.5 878,-312.5"/>
<text text-anchor="start" x="886" y="-341.5" font-family="Helvetica,sans-Serif" font-size="10.00">/home/runner/work/Simopticon</text>
<text text-anchor="start" x="886" y="-330.5" font-family="Helvetica,sans-Serif" font-size="10.00">/Simopticon/src/optimizer</text>
<text text-anchor="middle" x="961.5" y="-319.5" font-family="Helvetica,sans-Serif" font-size="10.00">/direct/hyrect/HyRect.h</text>
</a>
</g>
</g>
<!-- Node1&#45;&gt;Node8 -->
<g id="edge8" class="edge">
<title>Node1&#45;&gt;Node8</title>
<path fill="none" stroke="midnightblue" d="M961.5,-380.3C961.5,-371.3 961.5,-361.65 961.5,-353.51"/>
<polygon fill="midnightblue" stroke="midnightblue" points="958,-380.43 961.5,-390.43 965,-380.43 958,-380.43"/>
</g>
<!-- Node11 -->
<g id="node11" class="node">
<title>Node11</title>
<g id="a_node11"><a xlink:href="Levels_8h.xhtml" target="_top" xlink:title="In this file, the header of the Levels class is defined.">
<polygon fill="white" stroke="black" points="477,-156.5 477,-197.5 644,-197.5 644,-156.5 477,-156.5"/>
<text text-anchor="start" x="485" y="-185.5" font-family="Helvetica,sans-Serif" font-size="10.00">/home/runner/work/Simopticon</text>
<text text-anchor="start" x="485" y="-174.5" font-family="Helvetica,sans-Serif" font-size="10.00">/Simopticon/src/optimizer</text>
<text text-anchor="middle" x="560.5" y="-163.5" font-family="Helvetica,sans-Serif" font-size="10.00">/direct/Levels.h</text>
</a>
</g>
</g>
<!-- Node1&#45;&gt;Node11 -->
<g id="edge27" class="edge">
<title>Node1&#45;&gt;Node11</title>
<path fill="none" stroke="midnightblue" d="M867.64,-397.82C739.49,-379.04 520.19,-338.52 472.5,-276 461.18,-261.16 463.52,-250.36 472.5,-234 481.13,-218.28 496.24,-206.35 511.54,-197.62"/>
<polygon fill="midnightblue" stroke="midnightblue" points="867.44,-401.33 877.84,-399.3 868.45,-394.4 867.44,-401.33"/>
</g>
<!-- Node18 -->
<g id="node18" class="node">
<title>Node18</title>
<g id="a_node18"><a xlink:href="ParameterNormalizer_8h.xhtml" target="_top" xlink:title="In this file, the header of the ParameterNormalizer class is defined.">
<polygon fill="white" stroke="black" points="1287,-312.5 1287,-353.5 1454,-353.5 1454,-312.5 1287,-312.5"/>
<text text-anchor="start" x="1295" y="-341.5" font-family="Helvetica,sans-Serif" font-size="10.00">/home/runner/work/Simopticon</text>
<text text-anchor="start" x="1295" y="-330.5" font-family="Helvetica,sans-Serif" font-size="10.00">/Simopticon/src/optimizer</text>
<text text-anchor="middle" x="1370.5" y="-319.5" font-family="Helvetica,sans-Serif" font-size="10.00">/direct/ParameterNormalizer.h</text>
</a>
</g>
</g>
<!-- Node1&#45;&gt;Node18 -->
<g id="edge24" class="edge">
<title>Node1&#45;&gt;Node18</title>
<path fill="none" stroke="midnightblue" d="M1055.37,-392.56C1125.19,-379.58 1219.62,-362.04 1286.86,-349.54"/>
<polygon fill="midnightblue" stroke="midnightblue" points="1054.45,-389.17 1045.25,-394.44 1055.73,-396.05 1054.45,-389.17"/>
</g>
<!-- Node3 -->
<g id="node3" class="node">
<title>Node3</title>
<g id="a_node3"><a xlink:href="StubController_8cpp.xhtml" target="_top" xlink:title="In this file, the implementation of the StubController class is defined.">
<polygon fill="white" stroke="black" points="0,-234.5 0,-275.5 167,-275.5 167,-234.5 0,-234.5"/>
<text text-anchor="start" x="8" y="-263.5" font-family="Helvetica,sans-Serif" font-size="10.00">/home/runner/work/Simopticon</text>
<text text-anchor="start" x="8" y="-252.5" font-family="Helvetica,sans-Serif" font-size="10.00">/Simopticon/src/controller</text>
<text text-anchor="middle" x="83.5" y="-241.5" font-family="Helvetica,sans-Serif" font-size="10.00">/StubController.cpp</text>
</a>
</g>
</g>
<!-- Node2&#45;&gt;Node3 -->
<g id="edge2" class="edge">
<title>Node2&#45;&gt;Node3</title>
<path fill="none" stroke="midnightblue" d="M198.18,-308.19C175.08,-297.67 148.25,-285.47 126.36,-275.51"/>
<polygon fill="midnightblue" stroke="midnightblue" points="196.94,-311.47 207.49,-312.43 199.84,-305.1 196.94,-311.47"/>
</g>
<!-- Node4 -->
<g id="node4" class="node">
<title>Node4</title>
<g id="a_node4"><a xlink:href="Controller_8cpp.xhtml" target="_top" xlink:title="In this file, the implementation of the Controller class is defined.">
<polygon fill="white" stroke="black" points="588,-0.5 588,-41.5 755,-41.5 755,-0.5 588,-0.5"/>
<text text-anchor="start" x="596" y="-29.5" font-family="Helvetica,sans-Serif" font-size="10.00">/home/runner/work/Simopticon</text>
<text text-anchor="start" x="596" y="-18.5" font-family="Helvetica,sans-Serif" font-size="10.00">/Simopticon/src/controller</text>
<text text-anchor="middle" x="671.5" y="-7.5" font-family="Helvetica,sans-Serif" font-size="10.00">/Controller.cpp</text>
</a>
</g>
</g>
<!-- Node2&#45;&gt;Node4 -->
<g id="edge3" class="edge">
<title>Node2&#45;&gt;Node4</title>
<path fill="none" stroke="midnightblue" d="M226.91,-304.22C221.04,-295.7 215.55,-285.94 212.5,-276 207.02,-258.16 205.06,-251.12 212.5,-234 252.96,-140.84 288.96,-124.04 379.5,-78 444.72,-44.84 527.24,-31.23 587.91,-25.69"/>
<polygon fill="midnightblue" stroke="midnightblue" points="224.09,-306.29 232.83,-312.28 229.73,-302.15 224.09,-306.29"/>
</g>
<!-- Node5 -->
<g id="node5" class="node">
<title>Node5</title>
<g id="a_node5"><a xlink:href="main_8cpp.xhtml" target="_top" xlink:title="In this file, the main function running the Simopticon framework is defined.">
<polygon fill="white" stroke="black" points="222,-240 222,-270 389,-270 389,-240 222,-240"/>
<text text-anchor="start" x="230" y="-258" font-family="Helvetica,sans-Serif" font-size="10.00">/home/runner/work/Simopticon</text>
<text text-anchor="middle" x="305.5" y="-247" font-family="Helvetica,sans-Serif" font-size="10.00">/Simopticon/src/main.cpp</text>
</a>
</g>
</g>
<!-- Node2&#45;&gt;Node5 -->
<g id="edge4" class="edge">
<title>Node2&#45;&gt;Node5</title>
<path fill="none" stroke="midnightblue" d="M270.53,-304.32C278.9,-292.75 288.27,-279.8 295.21,-270.23"/>
<polygon fill="midnightblue" stroke="midnightblue" points="267.69,-302.27 264.66,-312.43 273.36,-306.38 267.69,-302.27"/>
</g>
<!-- Node6&#45;&gt;Node4 -->
<g id="edge6" class="edge">
<title>Node6&#45;&gt;Node4</title>
<path fill="none" stroke="midnightblue" d="M1016.64,-81.75C939.03,-68.31 829.83,-49.41 755.17,-36.48"/>
<polygon fill="midnightblue" stroke="midnightblue" points="1016.44,-85.27 1026.89,-83.53 1017.64,-78.37 1016.44,-85.27"/>
</g>
<!-- Node7 -->
<g id="node7" class="node">
<title>Node7</title>
<g id="a_node7"><a xlink:href="DirectOptimizer_8cpp.xhtml" target="_top" xlink:title="In this file, the implementation of the DirectOptimizer class is defined.">
<polygon fill="white" stroke="black" points="1138,-0.5 1138,-41.5 1305,-41.5 1305,-0.5 1138,-0.5"/>
<text text-anchor="start" x="1146" y="-29.5" font-family="Helvetica,sans-Serif" font-size="10.00">/home/runner/work/Simopticon</text>
<text text-anchor="start" x="1146" y="-18.5" font-family="Helvetica,sans-Serif" font-size="10.00">/Simopticon/src/optimizer</text>
<text text-anchor="middle" x="1221.5" y="-7.5" font-family="Helvetica,sans-Serif" font-size="10.00">/direct/DirectOptimizer.cpp</text>
</a>
</g>
</g>
<!-- Node6&#45;&gt;Node7 -->
<g id="edge7" class="edge">
<title>Node6&#45;&gt;Node7</title>
<path fill="none" stroke="midnightblue" d="M1147.55,-72.64C1162.37,-62.49 1179.17,-50.98 1193.01,-41.51"/>
<polygon fill="midnightblue" stroke="midnightblue" points="1145.36,-69.89 1139.09,-78.43 1149.31,-75.67 1145.36,-69.89"/>
</g>
<!-- Node8&#45;&gt;Node6 -->
<g id="edge9" class="edge">
<title>Node8&#45;&gt;Node6</title>
<path fill="none" stroke="midnightblue" d="M1030.88,-307.91C1046.08,-299.82 1060.8,-289.35 1071.5,-276 1108.78,-229.47 1112.17,-154.73 1111.47,-119.53"/>
<polygon fill="midnightblue" stroke="midnightblue" points="1029.29,-304.79 1021.91,-312.4 1032.42,-311.06 1029.29,-304.79"/>
</g>
<!-- Node9 -->
<g id="node9" class="node">
<title>Node9</title>
<g id="a_node9"><a xlink:href="GrahamScan_8cpp.xhtml" target="_top" xlink:title="In this file, the implementation of the GrahamScan class is defined.">
<polygon fill="white" stroke="black" points="482,-234.5 482,-275.5 649,-275.5 649,-234.5 482,-234.5"/>
<text text-anchor="start" x="490" y="-263.5" font-family="Helvetica,sans-Serif" font-size="10.00">/home/runner/work/Simopticon</text>
<text text-anchor="start" x="490" y="-252.5" font-family="Helvetica,sans-Serif" font-size="10.00">/Simopticon/src/optimizer</text>
<text text-anchor="middle" x="565.5" y="-241.5" font-family="Helvetica,sans-Serif" font-size="10.00">/direct/GrahamScan.cpp</text>
</a>
</g>
</g>
<!-- Node8&#45;&gt;Node9 -->
<g id="edge10" class="edge">
<title>Node8&#45;&gt;Node9</title>
<path fill="none" stroke="midnightblue" d="M867.95,-315.56C807.76,-304.79 727.9,-290.13 657.5,-276 654.78,-275.45 652.01,-274.89 649.21,-274.32"/>
<polygon fill="midnightblue" stroke="midnightblue" points="867.36,-319.01 877.81,-317.33 868.59,-312.12 867.36,-319.01"/>
</g>
<!-- Node10 -->
<g id="node10" class="node">
<title>Node10</title>
<g id="a_node10"><a xlink:href="DirectComparisonFunctions_8h.xhtml" target="_top" xlink:title="In this file, comparison functions are defined which are used in the direct module.">
<polygon fill="white" stroke="black" points="666.5,-234.5 666.5,-275.5 860.5,-275.5 860.5,-234.5 666.5,-234.5"/>
<text text-anchor="start" x="674.5" y="-263.5" font-family="Helvetica,sans-Serif" font-size="10.00">/home/runner/work/Simopticon</text>
<text text-anchor="start" x="674.5" y="-252.5" font-family="Helvetica,sans-Serif" font-size="10.00">/Simopticon/src/optimizer</text>
<text text-anchor="middle" x="763.5" y="-241.5" font-family="Helvetica,sans-Serif" font-size="10.00">/direct/DirectComparisonFunctions.h</text>
</a>
</g>
</g>
<!-- Node8&#45;&gt;Node10 -->
<g id="edge11" class="edge">
<title>Node8&#45;&gt;Node10</title>
<path fill="none" stroke="midnightblue" d="M900.92,-308.75C873.21,-298.11 840.74,-285.65 814.32,-275.51"/>
<polygon fill="midnightblue" stroke="midnightblue" points="899.92,-312.11 910.51,-312.43 902.43,-305.58 899.92,-312.11"/>
</g>
<!-- Node12 -->
<g id="node12" class="node">
<title>Node12</title>
<g id="a_node12"><a xlink:href="Levels_8cpp.xhtml" target="_top" xlink:title="In this file, the implementation of the Levels class is defined.">
<polygon fill="white" stroke="black" points="389,-78.5 389,-119.5 556,-119.5 556,-78.5 389,-78.5"/>
<text text-anchor="start" x="397" y="-107.5" font-family="Helvetica,sans-Serif" font-size="10.00">/home/runner/work/Simopticon</text>
<text text-anchor="start" x="397" y="-96.5" font-family="Helvetica,sans-Serif" font-size="10.00">/Simopticon/src/optimizer</text>
<text text-anchor="middle" x="472.5" y="-85.5" font-family="Helvetica,sans-Serif" font-size="10.00">/direct/Levels.cpp</text>
</a>
</g>
</g>
<!-- Node8&#45;&gt;Node12 -->
<g id="edge20" class="edge">
<title>Node8&#45;&gt;Node12</title>
<path fill="none" stroke="midnightblue" d="M867.66,-327.64C733.28,-320.46 499.19,-304.06 472.5,-276 432.07,-233.49 452.28,-155.75 464.92,-119.53"/>
<polygon fill="midnightblue" stroke="midnightblue" points="867.78,-331.16 877.95,-328.19 868.15,-324.16 867.78,-331.16"/>
</g>
<!-- Node13 -->
<g id="node13" class="node">
<title>Node13</title>
<g id="a_node13"><a xlink:href="BaseRect_8h.xhtml" target="_top" xlink:title="In this file, the header of the BaseRect class is defined.">
<polygon fill="white" stroke="black" points="1138,-234.5 1138,-275.5 1305,-275.5 1305,-234.5 1138,-234.5"/>
<text text-anchor="start" x="1146" y="-263.5" font-family="Helvetica,sans-Serif" font-size="10.00">/home/runner/work/Simopticon</text>
<text text-anchor="start" x="1146" y="-252.5" font-family="Helvetica,sans-Serif" font-size="10.00">/Simopticon/src/optimizer</text>
<text text-anchor="middle" x="1221.5" y="-241.5" font-family="Helvetica,sans-Serif" font-size="10.00">/direct/hyrect/BaseRect.h</text>
</a>
</g>
</g>
<!-- Node8&#45;&gt;Node13 -->
<g id="edge16" class="edge">
<title>Node8&#45;&gt;Node13</title>
<path fill="none" stroke="midnightblue" d="M1038.2,-309.58C1075.2,-298.76 1119.17,-285.91 1154.77,-275.51"/>
<polygon fill="midnightblue" stroke="midnightblue" points="1037.07,-306.26 1028.46,-312.43 1039.04,-312.98 1037.07,-306.26"/>
</g>
<!-- Node15 -->
<g id="node15" class="node">
<title>Node15</title>
<g id="a_node15"><a xlink:href="HyRect_8cpp.xhtml" target="_top" xlink:title="In this file, the implementation of the HyRect class is defined.">
<polygon fill="white" stroke="black" points="916,-156.5 916,-197.5 1083,-197.5 1083,-156.5 916,-156.5"/>
<text text-anchor="start" x="924" y="-185.5" font-family="Helvetica,sans-Serif" font-size="10.00">/home/runner/work/Simopticon</text>
<text text-anchor="start" x="924" y="-174.5" font-family="Helvetica,sans-Serif" font-size="10.00">/Simopticon/src/optimizer</text>
<text text-anchor="middle" x="999.5" y="-163.5" font-family="Helvetica,sans-Serif" font-size="10.00">/direct/hyrect/HyRect.cpp</text>
</a>
</g>
</g>
<!-- Node8&#45;&gt;Node15 -->
<g id="edge19" class="edge">
<title>Node8&#45;&gt;Node15</title>
<path fill="none" stroke="midnightblue" d="M1022.33,-307.12C1034.79,-299.09 1046.28,-288.85 1053.5,-276 1062.65,-259.73 1060.49,-251.31 1053.5,-234 1047.79,-219.85 1036.6,-207.28 1025.88,-197.65"/>
<polygon fill="midnightblue" stroke="midnightblue" points="1020.4,-304.2 1013.6,-312.33 1023.98,-310.21 1020.4,-304.2"/>
</g>
<!-- Node16 -->
<g id="node16" class="node">
<title>Node16</title>
<g id="a_node16"><a xlink:href="ChildRect_8h.xhtml" target="_top" xlink:title="In this file, the header of the ChildRect class is defined.">
<polygon fill="white" stroke="black" points="878,-234.5 878,-275.5 1045,-275.5 1045,-234.5 878,-234.5"/>
<text text-anchor="start" x="886" y="-263.5" font-family="Helvetica,sans-Serif" font-size="10.00">/home/runner/work/Simopticon</text>
<text text-anchor="start" x="886" y="-252.5" font-family="Helvetica,sans-Serif" font-size="10.00">/Simopticon/src/optimizer</text>
<text text-anchor="middle" x="961.5" y="-241.5" font-family="Helvetica,sans-Serif" font-size="10.00">/direct/hyrect/ChildRect.h</text>
</a>
</g>
</g>
<!-- Node8&#45;&gt;Node16 -->
<g id="edge21" class="edge">
<title>Node8&#45;&gt;Node16</title>
<path fill="none" stroke="midnightblue" d="M961.5,-302.3C961.5,-293.3 961.5,-283.65 961.5,-275.51"/>
<polygon fill="midnightblue" stroke="midnightblue" points="958,-302.43 961.5,-312.43 965,-302.43 958,-302.43"/>
</g>
<!-- Node10&#45;&gt;Node6 -->
<g id="edge12" class="edge">
<title>Node10&#45;&gt;Node6</title>
<path fill="none" stroke="midnightblue" d="M737.21,-226.72C720.02,-205.55 703.77,-176.47 721.5,-156 760.2,-111.33 924.68,-101.47 1026.97,-99.77"/>
<polygon fill="midnightblue" stroke="midnightblue" points="734.62,-229.07 743.77,-234.4 739.94,-224.53 734.62,-229.07"/>
</g>
<!-- Node10&#45;&gt;Node11 -->
<g id="edge13" class="edge">
<title>Node10&#45;&gt;Node11</title>
<path fill="none" stroke="midnightblue" d="M701.76,-230.89C673.27,-220.22 639.8,-207.69 612.6,-197.51"/>
<polygon fill="midnightblue" stroke="midnightblue" points="700.63,-234.2 711.22,-234.43 703.08,-227.64 700.63,-234.2"/>
</g>
<!-- Node11&#45;&gt;Node6 -->
<g id="edge14" class="edge">
<title>Node11&#45;&gt;Node6</title>
<path fill="none" stroke="midnightblue" d="M654.05,-161.25C665.98,-159.44 678.02,-157.65 689.5,-156 806.45,-139.16 941.95,-121.46 1026.95,-110.57"/>
<polygon fill="midnightblue" stroke="midnightblue" points="653.44,-157.81 644.08,-162.77 654.49,-164.73 653.44,-157.81"/>
</g>
<!-- Node11&#45;&gt;Node12 -->
<g id="edge15" class="edge">
<title>Node11&#45;&gt;Node12</title>
<path fill="none" stroke="midnightblue" d="M530.14,-149.78C518.63,-139.84 505.75,-128.72 495.09,-119.51"/>
<polygon fill="midnightblue" stroke="midnightblue" points="527.98,-152.54 537.84,-156.43 532.56,-147.24 527.98,-152.54"/>
</g>
<!-- Node13&#45;&gt;Node7 -->
<g id="edge17" class="edge">
<title>Node13&#45;&gt;Node7</title>
<path fill="none" stroke="midnightblue" d="M1282.33,-229.12C1294.79,-221.09 1306.28,-210.85 1313.5,-198 1322.65,-181.73 1319.03,-173.83 1313.5,-156 1299.29,-110.18 1263.38,-66.12 1240.86,-41.69"/>
<polygon fill="midnightblue" stroke="midnightblue" points="1280.4,-226.2 1273.6,-234.33 1283.98,-232.21 1280.4,-226.2"/>
</g>
<!-- Node14 -->
<g id="node14" class="node">
<title>Node14</title>
<g id="a_node14"><a xlink:href="BaseRect_8cpp.xhtml" target="_top" xlink:title="In this file, the implementation of the BaseRect class is defined.">
<polygon fill="white" stroke="black" points="1138,-156.5 1138,-197.5 1305,-197.5 1305,-156.5 1138,-156.5"/>
<text text-anchor="start" x="1146" y="-185.5" font-family="Helvetica,sans-Serif" font-size="10.00">/home/runner/work/Simopticon</text>
<text text-anchor="start" x="1146" y="-174.5" font-family="Helvetica,sans-Serif" font-size="10.00">/Simopticon/src/optimizer</text>
<text text-anchor="middle" x="1221.5" y="-163.5" font-family="Helvetica,sans-Serif" font-size="10.00">/direct/hyrect/BaseRect.cpp</text>
</a>
</g>
</g>
<!-- Node13&#45;&gt;Node14 -->
<g id="edge18" class="edge">
<title>Node13&#45;&gt;Node14</title>
<path fill="none" stroke="midnightblue" d="M1221.5,-224.3C1221.5,-215.3 1221.5,-205.65 1221.5,-197.51"/>
<polygon fill="midnightblue" stroke="midnightblue" points="1218,-224.43 1221.5,-234.43 1225,-224.43 1218,-224.43"/>
</g>
<!-- Node16&#45;&gt;Node15 -->
<g id="edge23" class="edge">
<title>Node16&#45;&gt;Node15</title>
<path fill="none" stroke="midnightblue" d="M975.77,-225.47C980.43,-216.14 985.5,-206.01 989.75,-197.51"/>
<polygon fill="midnightblue" stroke="midnightblue" points="972.63,-223.92 971.29,-234.43 978.89,-227.05 972.63,-223.92"/>
</g>
<!-- Node17 -->
<g id="node17" class="node">
<title>Node17</title>
<g id="a_node17"><a xlink:href="ChildRect_8cpp.xhtml" target="_top" xlink:title="In this file, the implementation of the ChildRect class is defined.">
<polygon fill="white" stroke="black" points="731,-156.5 731,-197.5 898,-197.5 898,-156.5 731,-156.5"/>
<text text-anchor="start" x="739" y="-185.5" font-family="Helvetica,sans-Serif" font-size="10.00">/home/runner/work/Simopticon</text>
<text text-anchor="start" x="739" y="-174.5" font-family="Helvetica,sans-Serif" font-size="10.00">/Simopticon/src/optimizer</text>
<text text-anchor="middle" x="814.5" y="-163.5" font-family="Helvetica,sans-Serif" font-size="10.00">/direct/hyrect/ChildRect.cpp</text>
</a>
</g>
</g>
<!-- Node16&#45;&gt;Node17 -->
<g id="edge22" class="edge">
<title>Node16&#45;&gt;Node17</title>
<path fill="none" stroke="midnightblue" d="M914.63,-229.77C894.48,-219.35 871.24,-207.34 852.23,-197.51"/>
<polygon fill="midnightblue" stroke="midnightblue" points="913.15,-232.94 923.64,-234.43 916.37,-226.73 913.15,-232.94"/>
</g>
<!-- Node18&#45;&gt;Node6 -->
<g id="edge25" class="edge">
<title>Node18&#45;&gt;Node6</title>
<path fill="none" stroke="midnightblue" d="M1369.22,-302.3C1365.9,-263.22 1354.23,-194.97 1313.5,-156 1281.67,-125.54 1234.83,-111.35 1194.16,-104.86"/>
<polygon fill="midnightblue" stroke="midnightblue" points="1365.74,-302.77 1369.95,-312.49 1372.72,-302.27 1365.74,-302.77"/>
</g>
<!-- Node19 -->
<g id="node19" class="node">
<title>Node19</title>
<g id="a_node19"><a xlink:href="ParameterNormalizer_8cpp.xhtml" target="_top" xlink:title="In this file, the implementation of the ParameterNormalizer class is defined.">
<polygon fill="white" stroke="black" points="1398.5,-234.5 1398.5,-275.5 1572.5,-275.5 1572.5,-234.5 1398.5,-234.5"/>
<text text-anchor="start" x="1406.5" y="-263.5" font-family="Helvetica,sans-Serif" font-size="10.00">/home/runner/work/Simopticon</text>
<text text-anchor="start" x="1406.5" y="-252.5" font-family="Helvetica,sans-Serif" font-size="10.00">/Simopticon/src/optimizer</text>
<text text-anchor="middle" x="1485.5" y="-241.5" font-family="Helvetica,sans-Serif" font-size="10.00">/direct/ParameterNormalizer.cpp</text>
</a>
</g>
</g>
<!-- Node18&#45;&gt;Node19 -->
<g id="edge26" class="edge">
<title>Node18&#45;&gt;Node19</title>
<path fill="none" stroke="midnightblue" d="M1408.88,-306.64C1424.24,-296.49 1441.65,-284.98 1455.99,-275.51"/>
<polygon fill="midnightblue" stroke="midnightblue" points="1406.53,-303.99 1400.12,-312.43 1410.39,-309.83 1406.53,-303.99"/>
</g>
</g>
</svg>
