<?xml version="1.0" encoding="UTF-8" standalone="no"?>
<!DOCTYPE svg PUBLIC "-//W3C//DTD SVG 1.1//EN"
 "http://www.w3.org/Graphics/SVG/1.1/DTD/svg11.dtd">
<!-- Generated by graphviz version 2.43.0 (0)
 -->
<!-- Title: /home/runner/work/Simopticon/Simopticon/src/optimizer/direct/DirectOptimizer.cpp Pages: 1 -->
<!--zoomable 386 -->
<svg id="main" version="1.1" xmlns="http://www.w3.org/2000/svg" xmlns:xlink="http://www.w3.org/1999/xlink" xml:space="preserve" onload="init(evt)">
<style type="text/css"><![CDATA[
.edge:hover path { stroke: red; }
.edge:hover polygon { stroke: red; fill: red; }
]]></style>
<script type="text/javascript"><![CDATA[
var edges = document.getElementsByTagName('g');
if (edges && edges.length) {
  for (var i=0;i<edges.length;i++) {
    if (edges[i].id.substr(0,4)=='edge') {
      edges[i].setAttribute('class','edge');
    }
  }
}
]]></script>
        <defs>
                <circle id="rim" cx="0" cy="0" r="7"/>
                <circle id="rim2" cx="0" cy="0" r="3.5"/>
                <g id="zoomPlus">
                        <use xlink:href="#rim" fill="#404040">
                                <set attributeName="fill" to="#808080" begin="zoomplus.mouseover" end="zoomplus.mouseout"/>
                        </use>
                        <path d="M-4,0h8M0,-4v8" fill="none" stroke="white" stroke-width="1.5" pointer-events="none"/>
                </g>
                <g id="zoomMin">
                        <use xlink:href="#rim" fill="#404040">
                                <set attributeName="fill" to="#808080" begin="zoomminus.mouseover" end="zoomminus.mouseout"/>
                        </use>
                        <path d="M-4,0h8" fill="none" stroke="white" stroke-width="1.5" pointer-events="none"/>
                </g>
                <g id="dirArrow">
                        <path fill="none" stroke="white" stroke-width="1.5" d="M0,-3.0v7 M-2.5,-0.5L0,-3.0L2.5,-0.5"/>
                </g>
               <g id="resetDef">
                       <use xlink:href="#rim2" fill="#404040">
                               <set attributeName="fill" to="#808080" begin="reset.mouseover" end="reset.mouseout"/>
                       </use>
               </g>
        </defs>

<script type="text/javascript">
var viewWidth = 1982;
var viewHeight = 386;
var sectionId = 'dynsection-0';
</script>
<script xlink:href="svgpan.js"/>
<svg id="graph" class="graph">
<g id="viewport">
<title>/home/runner/work/Simopticon/Simopticon/src/optimizer/direct/DirectOptimizer.cpp</title>
<polygon fill="white" stroke="transparent" points="-4,4 -4,-382 1977.79,-382 1977.79,4 -4,4"/>
<!-- Node1 -->
<g id="node1" class="node">
<title>Node1</title>
<g id="a_node1"><a xlink:title="In this file, the implementation of the DirectOptimizer class is defined.">
<polygon fill="#bfbfbf" stroke="black" points="1671.79,-336.5 1671.79,-377.5 1838.79,-377.5 1838.79,-336.5 1671.79,-336.5"/>
<text text-anchor="start" x="1679.79" y="-365.5" font-family="Helvetica,sans-Serif" font-size="10.00">/home/runner/work/Simopticon</text>
<text text-anchor="start" x="1679.79" y="-354.5" font-family="Helvetica,sans-Serif" font-size="10.00">/Simopticon/src/optimizer</text>
<text text-anchor="middle" x="1755.29" y="-343.5" font-family="Helvetica,sans-Serif" font-size="10.00">/direct/DirectOptimizer.cpp</text>
</a>
</g>
</g>
<!-- Node2 -->
<g id="node2" class="node">
<title>Node2</title>
<g id="a_node2"><a xlink:href="DirectOptimizer_8h.xhtml" target="_top" xlink:title="In this file, the header of the DirectOptimizer class is defined.">
<polygon fill="white" stroke="black" points="1354.29,-280.5 1354.29,-299.5 1456.29,-299.5 1456.29,-280.5 1354.29,-280.5"/>
<text text-anchor="middle" x="1405.29" y="-287.5" font-family="Helvetica,sans-Serif" font-size="10.00">DirectOptimizer.h</text>
</a>
</g>
</g>
<!-- Node1&#45;&gt;Node2 -->
<g id="edge1" class="edge">
<title>Node1&#45;&gt;Node2</title>
<path fill="none" stroke="midnightblue" d="M1671.45,-340.43C1606.4,-328.35 1518.02,-311.94 1461.31,-301.4"/>
<polygon fill="midnightblue" stroke="midnightblue" points="1461.92,-297.96 1451.45,-299.57 1460.64,-304.84 1461.92,-297.96"/>
</g>
<!-- Node9 -->
<g id="node9" class="node">
<title>Node9</title>
<g id="a_node9"><a xlink:title=" ">
<polygon fill="white" stroke="#bfbfbf" points="1338.29,-0.5 1338.29,-19.5 1396.29,-19.5 1396.29,-0.5 1338.29,-0.5"/>
<text text-anchor="middle" x="1367.29" y="-7.5" font-family="Helvetica,sans-Serif" font-size="10.00">memory</text>
</a>
</g>
</g>
<!-- Node1&#45;&gt;Node9 -->
<g id="edge76" class="edge">
<title>Node1&#45;&gt;Node9</title>
<path fill="none" stroke="midnightblue" d="M1776.11,-336.29C1797.38,-313.94 1827.29,-275.33 1827.29,-235 1827.29,-235 1827.29,-235 1827.29,-121 1827.29,-34.79 1517.82,-16 1406.55,-12.03"/>
<polygon fill="midnightblue" stroke="midnightblue" points="1406.52,-8.53 1396.41,-11.69 1406.29,-15.52 1406.52,-8.53"/>
</g>
<!-- Node27 -->
<g id="node27" class="node">
<title>Node27</title>
<g id="a_node27"><a xlink:href="GrahamScan_8h.xhtml" target="_top" xlink:title="In this file, the header of the GrahamScan class is defined.">
<polygon fill="white" stroke="black" points="1711.29,-112.5 1711.29,-131.5 1799.29,-131.5 1799.29,-112.5 1711.29,-112.5"/>
<text text-anchor="middle" x="1755.29" y="-119.5" font-family="Helvetica,sans-Serif" font-size="10.00">GrahamScan.h</text>
</a>
</g>
</g>
<!-- Node1&#45;&gt;Node27 -->
<g id="edge55" class="edge">
<title>Node1&#45;&gt;Node27</title>
<path fill="none" stroke="midnightblue" d="M1755.29,-336.13C1755.29,-291.78 1755.29,-185.18 1755.29,-141.82"/>
<polygon fill="midnightblue" stroke="midnightblue" points="1758.79,-141.59 1755.29,-131.59 1751.79,-141.59 1758.79,-141.59"/>
</g>
<!-- Node28 -->
<g id="node28" class="node">
<title>Node28</title>
<g id="a_node28"><a xlink:href="BaseRect_8h.xhtml" target="_top" xlink:title="In this file, the header of the BaseRect class is defined.">
<polygon fill="white" stroke="black" points="1528.79,-224.5 1528.79,-243.5 1633.79,-243.5 1633.79,-224.5 1528.79,-224.5"/>
<text text-anchor="middle" x="1581.29" y="-231.5" font-family="Helvetica,sans-Serif" font-size="10.00">hyrect/BaseRect.h</text>
</a>
</g>
</g>
<!-- Node1&#45;&gt;Node28 -->
<g id="edge58" class="edge">
<title>Node1&#45;&gt;Node28</title>
<path fill="none" stroke="midnightblue" d="M1726.95,-336.29C1691.89,-311.91 1633.04,-270.99 1601.96,-249.38"/>
<polygon fill="midnightblue" stroke="midnightblue" points="1603.83,-246.41 1593.62,-243.57 1599.83,-252.16 1603.83,-246.41"/>
</g>
<!-- Node29 -->
<g id="node29" class="node">
<title>Node29</title>
<g id="a_node29"><a xlink:href="ValueMap_8h.xhtml" target="_top" xlink:title="In this file, the header of the ValueMap class is defined.">
<polygon fill="white" stroke="black" points="859.79,-224.5 859.79,-243.5 1000.79,-243.5 1000.79,-224.5 859.79,-224.5"/>
<text text-anchor="middle" x="930.29" y="-231.5" font-family="Helvetica,sans-Serif" font-size="10.00">../../controller/ValueMap.h</text>
</a>
</g>
</g>
<!-- Node1&#45;&gt;Node29 -->
<g id="edge60" class="edge">
<title>Node1&#45;&gt;Node29</title>
<path fill="none" stroke="midnightblue" d="M1671.59,-345.06C1588.69,-334.1 1458.13,-316.54 1345.29,-300 1220.04,-281.64 1073.85,-258.3 992.7,-245.17"/>
<polygon fill="midnightblue" stroke="midnightblue" points="993.08,-241.68 982.65,-243.54 991.96,-248.59 993.08,-241.68"/>
</g>
<!-- Node33 -->
<g id="node33" class="node">
<title>Node33</title>
<g id="a_node33"><a xlink:title=" ">
<polygon fill="white" stroke="#bfbfbf" points="1855.79,-280.5 1855.79,-299.5 1900.79,-299.5 1900.79,-280.5 1855.79,-280.5"/>
<text text-anchor="middle" x="1878.29" y="-287.5" font-family="Helvetica,sans-Serif" font-size="10.00">utility</text>
</a>
</g>
</g>
<!-- Node1&#45;&gt;Node33 -->
<g id="edge75" class="edge">
<title>Node1&#45;&gt;Node33</title>
<path fill="none" stroke="midnightblue" d="M1792.19,-336.5C1811.78,-326.15 1835.34,-313.69 1852.87,-304.43"/>
<polygon fill="midnightblue" stroke="midnightblue" points="1854.71,-307.42 1861.92,-299.65 1851.44,-301.23 1854.71,-307.42"/>
</g>
<!-- Node34 -->
<g id="node34" class="node">
<title>Node34</title>
<g id="a_node34"><a xlink:title=" ">
<polygon fill="white" stroke="#bfbfbf" points="1918.79,-280.5 1918.79,-299.5 1973.79,-299.5 1973.79,-280.5 1918.79,-280.5"/>
<text text-anchor="middle" x="1946.29" y="-287.5" font-family="Helvetica,sans-Serif" font-size="10.00">fstream</text>
</a>
</g>
</g>
<!-- Node1&#45;&gt;Node34 -->
<g id="edge77" class="edge">
<title>Node1&#45;&gt;Node34</title>
<path fill="none" stroke="midnightblue" d="M1812.59,-336.5C1844.69,-325.57 1883.69,-312.3 1911.26,-302.92"/>
<polygon fill="midnightblue" stroke="midnightblue" points="1912.52,-306.19 1920.86,-299.65 1910.27,-299.56 1912.52,-306.19"/>
</g>
<!-- Node3 -->
<g id="node3" class="node">
<title>Node3</title>
<g id="a_node3"><a xlink:href="DirectTypes_8h.xhtml" target="_top" xlink:title="In this file, types are defined which are used in the direct module.">
<polygon fill="white" stroke="black" points="1264.79,-56.5 1264.79,-75.5 1347.79,-75.5 1347.79,-56.5 1264.79,-56.5"/>
<text text-anchor="middle" x="1306.29" y="-63.5" font-family="Helvetica,sans-Serif" font-size="10.00">DirectTypes.h</text>
</a>
</g>
</g>
<!-- Node2&#45;&gt;Node3 -->
<g id="edge2" class="edge">
<title>Node2&#45;&gt;Node3</title>
<path fill="none" stroke="midnightblue" d="M1456.32,-286.69C1518.78,-282.68 1619.15,-271.94 1642.29,-244 1647.96,-237.15 1645.83,-232.15 1642.29,-224 1594.73,-114.56 1439.95,-81.29 1358.1,-71.27"/>
<polygon fill="midnightblue" stroke="midnightblue" points="1358.35,-67.77 1348.02,-70.1 1357.55,-74.73 1358.35,-67.77"/>
</g>
<!-- Node4 -->
<g id="node4" class="node">
<title>Node4</title>
<g id="a_node4"><a xlink:href="DirectComparisonFunctions_8h.xhtml" target="_top" xlink:title="In this file, comparison functions are defined which are used in the direct module.">
<polygon fill="white" stroke="black" points="1360.29,-168.5 1360.29,-187.5 1520.29,-187.5 1520.29,-168.5 1360.29,-168.5"/>
<text text-anchor="middle" x="1440.29" y="-175.5" font-family="Helvetica,sans-Serif" font-size="10.00">DirectComparisonFunctions.h</text>
</a>
</g>
</g>
<!-- Node2&#45;&gt;Node4 -->
<g id="edge3" class="edge">
<title>Node2&#45;&gt;Node4</title>
<path fill="none" stroke="midnightblue" d="M1415.73,-280.24C1424.71,-271.97 1437.03,-258.66 1442.29,-244 1447.64,-229.05 1446.51,-210.91 1444.4,-197.6"/>
<polygon fill="midnightblue" stroke="midnightblue" points="1447.83,-196.9 1442.53,-187.73 1440.96,-198.2 1447.83,-196.9"/>
</g>
<!-- Node5 -->
<g id="node5" class="node">
<title>Node5</title>
<g id="a_node5"><a xlink:href="HyRect_8h.xhtml" target="_top" xlink:title="In this file, the header of the HyRect class is defined.">
<polygon fill="white" stroke="black" points="1384.79,-112.5 1384.79,-131.5 1479.79,-131.5 1479.79,-112.5 1384.79,-112.5"/>
<text text-anchor="middle" x="1432.29" y="-119.5" font-family="Helvetica,sans-Serif" font-size="10.00">hyrect/HyRect.h</text>
</a>
</g>
</g>
<!-- Node2&#45;&gt;Node5 -->
<g id="edge38" class="edge">
<title>Node2&#45;&gt;Node5</title>
<path fill="none" stroke="midnightblue" d="M1423.99,-280.48C1452.9,-266.13 1507.36,-234.14 1529.29,-188 1541.69,-161.9 1510.2,-144.71 1479.85,-134.6"/>
<polygon fill="midnightblue" stroke="midnightblue" points="1480.68,-131.19 1470.09,-131.57 1478.6,-137.88 1480.68,-131.19"/>
</g>
<!-- Node2&#45;&gt;Node9 -->
<g id="edge54" class="edge">
<title>Node2&#45;&gt;Node9</title>
<path fill="none" stroke="midnightblue" d="M1456.3,-287.39C1522.64,-284.11 1633.04,-274.14 1658.29,-244 1664,-237.19 1660.47,-232.62 1658.29,-224 1637.43,-141.69 1635,-107.24 1567.29,-56 1520.23,-20.38 1450.22,-12.03 1406.73,-10.56"/>
<polygon fill="midnightblue" stroke="midnightblue" points="1406.62,-7.06 1396.55,-10.33 1406.46,-14.05 1406.62,-7.06"/>
</g>
<!-- Node14 -->
<g id="node14" class="node">
<title>Node14</title>
<g id="a_node14"><a xlink:href="Optimizer_8h.xhtml" target="_top" xlink:title="In this file, the header of the Optimizer class is defined.">
<polygon fill="white" stroke="black" points="893.29,-168.5 893.29,-187.5 975.29,-187.5 975.29,-168.5 893.29,-168.5"/>
<text text-anchor="middle" x="934.29" y="-175.5" font-family="Helvetica,sans-Serif" font-size="10.00">../Optimizer.h</text>
</a>
</g>
</g>
<!-- Node2&#45;&gt;Node14 -->
<g id="edge16" class="edge">
<title>Node2&#45;&gt;Node14</title>
<path fill="none" stroke="midnightblue" d="M1366.14,-280.5C1325.41,-271.6 1259.81,-257.12 1203.29,-244 1123.93,-225.57 1031.68,-203.04 978.43,-189.92"/>
<polygon fill="midnightblue" stroke="midnightblue" points="979.18,-186.5 968.64,-187.51 977.51,-193.3 979.18,-186.5"/>
</g>
<!-- Node19 -->
<g id="node19" class="node">
<title>Node19</title>
<g id="a_node19"><a xlink:href="DirectStoppingCondition_8h.xhtml" target="_top" xlink:title="In this file, the header of the StoppingCondition class is defined.">
<polygon fill="white" stroke="black" points="213.29,-168.5 213.29,-187.5 357.29,-187.5 357.29,-168.5 213.29,-168.5"/>
<text text-anchor="middle" x="285.29" y="-175.5" font-family="Helvetica,sans-Serif" font-size="10.00">DirectStoppingCondition.h</text>
</a>
</g>
</g>
<!-- Node2&#45;&gt;Node19 -->
<g id="edge28" class="edge">
<title>Node2&#45;&gt;Node19</title>
<path fill="none" stroke="midnightblue" d="M1353.97,-285.42C1255.98,-278.45 1035.49,-262.16 850.29,-244 676.08,-226.92 472.2,-202.33 363.29,-188.81"/>
<polygon fill="midnightblue" stroke="midnightblue" points="363.4,-185.3 353.05,-187.54 362.54,-192.25 363.4,-185.3"/>
</g>
<!-- Node23 -->
<g id="node23" class="node">
<title>Node23</title>
<g id="a_node23"><a xlink:href="ParameterNormalizer_8h.xhtml" target="_top" xlink:title="In this file, the header of the ParameterNormalizer class is defined.">
<polygon fill="white" stroke="black" points="1121.79,-112.5 1121.79,-131.5 1250.79,-131.5 1250.79,-112.5 1121.79,-112.5"/>
<text text-anchor="middle" x="1186.29" y="-119.5" font-family="Helvetica,sans-Serif" font-size="10.00">ParameterNormalizer.h</text>
</a>
</g>
</g>
<!-- Node2&#45;&gt;Node23 -->
<g id="edge39" class="edge">
<title>Node2&#45;&gt;Node23</title>
<path fill="none" stroke="midnightblue" d="M1353.97,-281.63C1325.03,-275.43 1289.53,-264.18 1263.29,-244 1227.72,-216.65 1204.08,-167.86 1193.19,-141.36"/>
<polygon fill="midnightblue" stroke="midnightblue" points="1196.34,-139.81 1189.42,-131.79 1189.83,-142.38 1196.34,-139.81"/>
</g>
<!-- Node24 -->
<g id="node24" class="node">
<title>Node24</title>
<g id="a_node24"><a xlink:href="Levels_8h.xhtml" target="_top" xlink:title="In this file, the header of the Levels class is defined.">
<polygon fill="white" stroke="black" points="1376.79,-224.5 1376.79,-243.5 1433.79,-243.5 1433.79,-224.5 1376.79,-224.5"/>
<text text-anchor="middle" x="1405.29" y="-231.5" font-family="Helvetica,sans-Serif" font-size="10.00">Levels.h</text>
</a>
</g>
</g>
<!-- Node2&#45;&gt;Node24 -->
<g id="edge45" class="edge">
<title>Node2&#45;&gt;Node24</title>
<path fill="none" stroke="midnightblue" d="M1405.29,-280.08C1405.29,-273.01 1405.29,-262.86 1405.29,-253.99"/>
<polygon fill="midnightblue" stroke="midnightblue" points="1408.79,-253.75 1405.29,-243.75 1401.79,-253.75 1408.79,-253.75"/>
</g>
<!-- Node25 -->
<g id="node25" class="node">
<title>Node25</title>
<g id="a_node25"><a xlink:title=" ">
<polygon fill="white" stroke="#bfbfbf" points="1158.29,-168.5 1158.29,-187.5 1190.29,-187.5 1190.29,-168.5 1158.29,-168.5"/>
<text text-anchor="middle" x="1174.29" y="-175.5" font-family="Helvetica,sans-Serif" font-size="10.00">set</text>
</a>
</g>
</g>
<!-- Node2&#45;&gt;Node25 -->
<g id="edge52" class="edge">
<title>Node2&#45;&gt;Node25</title>
<path fill="none" stroke="midnightblue" d="M1354.21,-284.1C1317.49,-278.69 1268,-267.42 1230.29,-244 1210.98,-232.01 1194.8,-211.22 1184.87,-196.38"/>
<polygon fill="midnightblue" stroke="midnightblue" points="1187.62,-194.18 1179.28,-187.64 1181.72,-197.95 1187.62,-194.18"/>
</g>
<!-- Node26 -->
<g id="node26" class="node">
<title>Node26</title>
<g id="a_node26"><a xlink:title=" ">
<polygon fill="white" stroke="#bfbfbf" points="1272.29,-224.5 1272.29,-243.5 1358.29,-243.5 1358.29,-224.5 1272.29,-224.5"/>
<text text-anchor="middle" x="1315.29" y="-231.5" font-family="Helvetica,sans-Serif" font-size="10.00">unordered_set</text>
</a>
</g>
</g>
<!-- Node2&#45;&gt;Node26 -->
<g id="edge53" class="edge">
<title>Node2&#45;&gt;Node26</title>
<path fill="none" stroke="midnightblue" d="M1390.83,-280.32C1376.79,-271.9 1355.24,-258.97 1338.75,-249.07"/>
<polygon fill="midnightblue" stroke="midnightblue" points="1340.09,-245.8 1329.71,-243.65 1336.49,-251.8 1340.09,-245.8"/>
</g>
<!-- Node4&#45;&gt;Node5 -->
<g id="edge4" class="edge">
<title>Node4&#45;&gt;Node5</title>
<path fill="none" stroke="midnightblue" d="M1438.97,-168.08C1437.91,-160.93 1436.38,-150.64 1435.06,-141.69"/>
<polygon fill="midnightblue" stroke="midnightblue" points="1438.51,-141.13 1433.59,-131.75 1431.59,-142.16 1438.51,-141.13"/>
</g>
<!-- Node5&#45;&gt;Node3 -->
<g id="edge9" class="edge">
<title>Node5&#45;&gt;Node3</title>
<path fill="none" stroke="midnightblue" d="M1412.32,-112.44C1391.68,-103.6 1359.23,-89.69 1335.66,-79.59"/>
<polygon fill="midnightblue" stroke="midnightblue" points="1336.73,-76.24 1326.16,-75.52 1333.97,-82.67 1336.73,-76.24"/>
</g>
<!-- Node6 -->
<g id="node6" class="node">
<title>Node6</title>
<g id="a_node6"><a xlink:href="Types_8h.xhtml" target="_top" xlink:title="In this file, types are defined which should be used across the whole framework.">
<polygon fill="white" stroke="black" points="683.29,-56.5 683.29,-75.5 763.29,-75.5 763.29,-56.5 683.29,-56.5"/>
<text text-anchor="middle" x="723.29" y="-63.5" font-family="Helvetica,sans-Serif" font-size="10.00">../../../Types.h</text>
</a>
</g>
</g>
<!-- Node5&#45;&gt;Node6 -->
<g id="edge5" class="edge">
<title>Node5&#45;&gt;Node6</title>
<path fill="none" stroke="midnightblue" d="M1384.67,-117.37C1256.5,-107.61 905.05,-80.84 773.7,-70.84"/>
<polygon fill="midnightblue" stroke="midnightblue" points="773.76,-67.33 763.52,-70.06 773.22,-74.31 773.76,-67.33"/>
</g>
<!-- Node8 -->
<g id="node8" class="node">
<title>Node8</title>
<g id="a_node8"><a xlink:title=" ">
<polygon fill="white" stroke="#bfbfbf" points="799.79,-0.5 799.79,-19.5 846.79,-19.5 846.79,-0.5 799.79,-0.5"/>
<text text-anchor="middle" x="823.29" y="-7.5" font-family="Helvetica,sans-Serif" font-size="10.00">vector</text>
</a>
</g>
</g>
<!-- Node5&#45;&gt;Node8 -->
<g id="edge12" class="edge">
<title>Node5&#45;&gt;Node8</title>
<path fill="none" stroke="midnightblue" d="M1425.43,-112.34C1413.28,-97.74 1386.4,-68.59 1356.29,-56 1265.47,-18.04 959.55,-12.09 857.07,-11.17"/>
<polygon fill="midnightblue" stroke="midnightblue" points="857,-7.67 846.97,-11.09 856.94,-14.67 857,-7.67"/>
</g>
<!-- Node5&#45;&gt;Node9 -->
<g id="edge15" class="edge">
<title>Node5&#45;&gt;Node9</title>
<path fill="none" stroke="midnightblue" d="M1467.38,-112.48C1502.82,-102.17 1549.65,-82.79 1529.29,-56 1514.48,-36.52 1449.57,-23.25 1406.55,-16.42"/>
<polygon fill="midnightblue" stroke="midnightblue" points="1406.81,-12.92 1396.39,-14.86 1405.74,-19.83 1406.81,-12.92"/>
</g>
<!-- Node10 -->
<g id="node10" class="node">
<title>Node10</title>
<g id="a_node10"><a xlink:title=" ">
<polygon fill="white" stroke="#bfbfbf" points="1404.29,-56.5 1404.29,-75.5 1460.29,-75.5 1460.29,-56.5 1404.29,-56.5"/>
<text text-anchor="middle" x="1432.29" y="-63.5" font-family="Helvetica,sans-Serif" font-size="10.00">optional</text>
</a>
</g>
</g>
<!-- Node5&#45;&gt;Node10 -->
<g id="edge10" class="edge">
<title>Node5&#45;&gt;Node10</title>
<path fill="none" stroke="midnightblue" d="M1432.29,-112.08C1432.29,-105.01 1432.29,-94.86 1432.29,-85.99"/>
<polygon fill="midnightblue" stroke="midnightblue" points="1435.79,-85.75 1432.29,-75.75 1428.79,-85.75 1435.79,-85.75"/>
</g>
<!-- Node11 -->
<g id="node11" class="node">
<title>Node11</title>
<g id="a_node11"><a xlink:title=" ">
<polygon fill="white" stroke="#bfbfbf" points="1478.29,-56.5 1478.29,-75.5 1520.29,-75.5 1520.29,-56.5 1478.29,-56.5"/>
<text text-anchor="middle" x="1499.29" y="-63.5" font-family="Helvetica,sans-Serif" font-size="10.00">array</text>
</a>
</g>
</g>
<!-- Node5&#45;&gt;Node11 -->
<g id="edge11" class="edge">
<title>Node5&#45;&gt;Node11</title>
<path fill="none" stroke="midnightblue" d="M1443.05,-112.32C1453.05,-104.26 1468.18,-92.08 1480.22,-82.37"/>
<polygon fill="midnightblue" stroke="midnightblue" points="1482.74,-84.83 1488.33,-75.83 1478.35,-79.38 1482.74,-84.83"/>
</g>
<!-- Node12 -->
<g id="node12" class="node">
<title>Node12</title>
<g id="a_node12"><a xlink:title=" ">
<polygon fill="white" stroke="#bfbfbf" points="263.79,-56.5 263.79,-75.5 310.79,-75.5 310.79,-56.5 263.79,-56.5"/>
<text text-anchor="middle" x="287.29" y="-63.5" font-family="Helvetica,sans-Serif" font-size="10.00">cmath</text>
</a>
</g>
</g>
<!-- Node5&#45;&gt;Node12 -->
<g id="edge13" class="edge">
<title>Node5&#45;&gt;Node12</title>
<path fill="none" stroke="midnightblue" d="M1384.57,-118.34C1349.83,-116.45 1301.65,-113.91 1259.29,-112 845.44,-93.3 734.87,-138.61 321.09,-75.7"/>
<polygon fill="midnightblue" stroke="midnightblue" points="321.36,-72.2 310.94,-74.14 320.3,-79.12 321.36,-72.2"/>
</g>
<!-- Node13 -->
<g id="node13" class="node">
<title>Node13</title>
<g id="a_node13"><a xlink:title=" ">
<polygon fill="white" stroke="#bfbfbf" points="1214.29,-56.5 1214.29,-75.5 1246.29,-75.5 1246.29,-56.5 1214.29,-56.5"/>
<text text-anchor="middle" x="1230.29" y="-63.5" font-family="Helvetica,sans-Serif" font-size="10.00">list</text>
</a>
</g>
</g>
<!-- Node5&#45;&gt;Node13 -->
<g id="edge14" class="edge">
<title>Node5&#45;&gt;Node13</title>
<path fill="none" stroke="midnightblue" d="M1394.36,-112.48C1360.36,-104.59 1308.97,-92.06 1255.92,-75.97"/>
<polygon fill="midnightblue" stroke="midnightblue" points="1256.94,-72.63 1246.35,-73.04 1254.88,-79.32 1256.94,-72.63"/>
</g>
<!-- Node7 -->
<g id="node7" class="node">
<title>Node7</title>
<g id="a_node7"><a xlink:title=" ">
<polygon fill="white" stroke="#bfbfbf" points="467.29,-0.5 467.29,-19.5 511.29,-19.5 511.29,-0.5 467.29,-0.5"/>
<text text-anchor="middle" x="489.29" y="-7.5" font-family="Helvetica,sans-Serif" font-size="10.00">string</text>
</a>
</g>
</g>
<!-- Node6&#45;&gt;Node7 -->
<g id="edge6" class="edge">
<title>Node6&#45;&gt;Node7</title>
<path fill="none" stroke="midnightblue" d="M686.21,-56.44C640.73,-45.95 564.39,-28.33 521.34,-18.4"/>
<polygon fill="midnightblue" stroke="midnightblue" points="521.94,-14.94 511.41,-16.1 520.36,-21.76 521.94,-14.94"/>
</g>
<!-- Node6&#45;&gt;Node8 -->
<g id="edge7" class="edge">
<title>Node6&#45;&gt;Node8</title>
<path fill="none" stroke="midnightblue" d="M739.36,-56.32C755.25,-47.74 779.8,-34.49 798.25,-24.52"/>
<polygon fill="midnightblue" stroke="midnightblue" points="800.13,-27.49 807.26,-19.65 796.8,-21.33 800.13,-27.49"/>
</g>
<!-- Node6&#45;&gt;Node9 -->
<g id="edge8" class="edge">
<title>Node6&#45;&gt;Node9</title>
<path fill="none" stroke="midnightblue" d="M763.57,-61.62C879.6,-51.89 1213.52,-23.89 1328.12,-14.28"/>
<polygon fill="midnightblue" stroke="midnightblue" points="1328.53,-17.76 1338.2,-13.44 1327.95,-10.79 1328.53,-17.76"/>
</g>
<!-- Node14&#45;&gt;Node6 -->
<g id="edge17" class="edge">
<title>Node14&#45;&gt;Node6</title>
<path fill="none" stroke="midnightblue" d="M896.38,-168.5C857.33,-159.29 799.55,-144.28 780.29,-132 760.98,-119.69 744.44,-98.96 734.23,-84.23"/>
<polygon fill="midnightblue" stroke="midnightblue" points="736.91,-81.95 728.46,-75.56 731.08,-85.82 736.91,-81.95"/>
</g>
<!-- Node14&#45;&gt;Node8 -->
<g id="edge25" class="edge">
<title>Node14&#45;&gt;Node8</title>
<path fill="none" stroke="midnightblue" d="M931.04,-168.25C926.11,-155.43 916.06,-131.02 904.29,-112 884.4,-79.87 855.7,-46.38 838.34,-27.17"/>
<polygon fill="midnightblue" stroke="midnightblue" points="840.78,-24.65 831.44,-19.64 835.61,-29.38 840.78,-24.65"/>
</g>
<!-- Node14&#45;&gt;Node9 -->
<g id="edge27" class="edge">
<title>Node14&#45;&gt;Node9</title>
<path fill="none" stroke="midnightblue" d="M939.23,-168.11C947.02,-154.69 963.25,-129.01 982.29,-112 1019.41,-78.83 1032.35,-72.57 1079.29,-56 1164.69,-25.86 1271.44,-15.87 1327.95,-12.58"/>
<polygon fill="midnightblue" stroke="midnightblue" points="1328.43,-16.06 1338.23,-12.03 1328.06,-9.07 1328.43,-16.06"/>
</g>
<!-- Node14&#45;&gt;Node13 -->
<g id="edge24" class="edge">
<title>Node14&#45;&gt;Node13</title>
<path fill="none" stroke="midnightblue" d="M942.72,-168.31C956.93,-154.2 987.17,-126.42 1018.29,-112 1080.97,-82.96 1162.78,-72.43 1204.05,-68.79"/>
<polygon fill="midnightblue" stroke="midnightblue" points="1204.41,-72.28 1214.1,-67.98 1203.84,-65.3 1204.41,-72.28"/>
</g>
<!-- Node15 -->
<g id="node15" class="node">
<title>Node15</title>
<g id="a_node15"><a xlink:href="ParameterDefinition_8h.xhtml" target="_top" xlink:title="In this file, the header of the ParameterDefinition class is defined.">
<polygon fill="white" stroke="black" points="465.79,-112.5 465.79,-131.5 656.79,-131.5 656.79,-112.5 465.79,-112.5"/>
<text text-anchor="middle" x="561.29" y="-119.5" font-family="Helvetica,sans-Serif" font-size="10.00">../parameters/ParameterDefinition.h</text>
</a>
</g>
</g>
<!-- Node14&#45;&gt;Node15 -->
<g id="edge18" class="edge">
<title>Node14&#45;&gt;Node15</title>
<path fill="none" stroke="midnightblue" d="M893.11,-169.45C890.13,-168.95 887.16,-168.46 884.29,-168 800.44,-154.62 703.97,-141.47 638.46,-132.88"/>
<polygon fill="midnightblue" stroke="midnightblue" points="638.58,-129.36 628.21,-131.54 637.68,-136.3 638.58,-129.36"/>
</g>
<!-- Node16 -->
<g id="node16" class="node">
<title>Node16</title>
<g id="a_node16"><a xlink:href="Status_8h.xhtml" target="_top" xlink:title="In this file, the header of the Status class is defined.">
<polygon fill="white" stroke="black" points="19.29,-56.5 19.29,-75.5 117.29,-75.5 117.29,-56.5 19.29,-56.5"/>
<text text-anchor="middle" x="68.29" y="-63.5" font-family="Helvetica,sans-Serif" font-size="10.00">../status/Status.h</text>
</a>
</g>
</g>
<!-- Node14&#45;&gt;Node16 -->
<g id="edge21" class="edge">
<title>Node14&#45;&gt;Node16</title>
<path fill="none" stroke="midnightblue" d="M893.15,-169.16C890.16,-168.72 887.18,-168.33 884.29,-168 800.29,-158.49 200.28,-169.04 124.29,-132 103.44,-121.84 87.24,-100 77.74,-84.44"/>
<polygon fill="midnightblue" stroke="midnightblue" points="80.74,-82.64 72.71,-75.73 74.68,-86.14 80.74,-82.64"/>
</g>
<!-- Node17 -->
<g id="node17" class="node">
<title>Node17</title>
<g id="a_node17"><a xlink:href="Abortable_8h.xhtml" target="_top" xlink:title="In this file, the header of the Abortable class is defined.">
<polygon fill="white" stroke="black" points="789.29,-112.5 789.29,-131.5 895.29,-131.5 895.29,-112.5 789.29,-112.5"/>
<text text-anchor="middle" x="842.29" y="-119.5" font-family="Helvetica,sans-Serif" font-size="10.00">../utils/Abortable.h</text>
</a>
</g>
</g>
<!-- Node14&#45;&gt;Node17 -->
<g id="edge23" class="edge">
<title>Node14&#45;&gt;Node17</title>
<path fill="none" stroke="midnightblue" d="M919.51,-168.32C905.02,-159.82 882.72,-146.73 865.8,-136.8"/>
<polygon fill="midnightblue" stroke="midnightblue" points="867.43,-133.7 857.03,-131.65 863.89,-139.74 867.43,-133.7"/>
</g>
<!-- Node18 -->
<g id="node18" class="node">
<title>Node18</title>
<g id="a_node18"><a xlink:title=" ">
<polygon fill="white" stroke="#bfbfbf" points="1027.29,-112.5 1027.29,-131.5 1065.29,-131.5 1065.29,-112.5 1027.29,-112.5"/>
<text text-anchor="middle" x="1046.29" y="-119.5" font-family="Helvetica,sans-Serif" font-size="10.00">map</text>
</a>
</g>
</g>
<!-- Node14&#45;&gt;Node18 -->
<g id="edge26" class="edge">
<title>Node14&#45;&gt;Node18</title>
<path fill="none" stroke="midnightblue" d="M952.28,-168.32C970.33,-159.62 998.34,-146.12 1019.09,-136.11"/>
<polygon fill="midnightblue" stroke="midnightblue" points="1020.85,-139.15 1028.34,-131.65 1017.81,-132.84 1020.85,-139.15"/>
</g>
<!-- Node15&#45;&gt;Node6 -->
<g id="edge19" class="edge">
<title>Node15&#45;&gt;Node6</title>
<path fill="none" stroke="midnightblue" d="M586.96,-112.44C614.21,-103.36 657.47,-88.94 687.94,-78.78"/>
<polygon fill="midnightblue" stroke="midnightblue" points="689.36,-82 697.74,-75.52 687.15,-75.36 689.36,-82"/>
</g>
<!-- Node15&#45;&gt;Node7 -->
<g id="edge20" class="edge">
<title>Node15&#45;&gt;Node7</title>
<path fill="none" stroke="midnightblue" d="M555.64,-112.37C543.76,-94.22 516,-51.8 500.41,-27.99"/>
<polygon fill="midnightblue" stroke="midnightblue" points="503.32,-26.04 494.91,-19.59 497.46,-29.88 503.32,-26.04"/>
</g>
<!-- Node16&#45;&gt;Node7 -->
<g id="edge22" class="edge">
<title>Node16&#45;&gt;Node7</title>
<path fill="none" stroke="midnightblue" d="M117.32,-57.28C120.35,-56.84 123.36,-56.41 126.29,-56 248.17,-38.99 393.54,-21.95 456.99,-14.67"/>
<polygon fill="midnightblue" stroke="midnightblue" points="457.62,-18.12 467.16,-13.5 456.83,-11.16 457.62,-18.12"/>
</g>
<!-- Node19&#45;&gt;Node6 -->
<g id="edge29" class="edge">
<title>Node19&#45;&gt;Node6</title>
<path fill="none" stroke="midnightblue" d="M357.42,-174.51C452.36,-170.21 613.29,-159.08 665.29,-132 686.17,-121.13 703.11,-99.44 713.17,-84.11"/>
<polygon fill="midnightblue" stroke="midnightblue" points="716.19,-85.88 718.52,-75.54 710.26,-82.17 716.19,-85.88"/>
</g>
<!-- Node19&#45;&gt;Node12 -->
<g id="edge37" class="edge">
<title>Node19&#45;&gt;Node12</title>
<path fill="none" stroke="midnightblue" d="M228.33,-168.49C187.32,-161.06 137.05,-148.82 124.29,-132 118.92,-124.92 118.9,-119.07 124.29,-112 124.54,-111.67 206.1,-89.26 253.74,-76.19"/>
<polygon fill="midnightblue" stroke="midnightblue" points="254.92,-79.5 263.63,-73.48 253.06,-72.75 254.92,-79.5"/>
</g>
<!-- Node20 -->
<g id="node20" class="node">
<title>Node20</title>
<g id="a_node20"><a xlink:title=" ">
<polygon fill="white" stroke="#bfbfbf" points="135.29,-56.5 135.29,-75.5 245.29,-75.5 245.29,-56.5 135.29,-56.5"/>
<text text-anchor="middle" x="190.29" y="-63.5" font-family="Helvetica,sans-Serif" font-size="10.00">nlohmann/json.hpp</text>
</a>
</g>
</g>
<!-- Node19&#45;&gt;Node20 -->
<g id="edge30" class="edge">
<title>Node19&#45;&gt;Node20</title>
<path fill="none" stroke="midnightblue" d="M223.31,-168.5C180.7,-161.24 129.52,-149.21 116.29,-132 100.23,-111.11 130.31,-91.82 156.8,-79.77"/>
<polygon fill="midnightblue" stroke="midnightblue" points="158.52,-82.85 166.31,-75.67 155.74,-76.42 158.52,-82.85"/>
</g>
<!-- Node21 -->
<g id="node21" class="node">
<title>Node21</title>
<g id="a_node21"><a xlink:href="StoppingCondition_8h.xhtml" target="_top" xlink:title="In this file, the header of the StoppingCondition class is defined.">
<polygon fill="white" stroke="black" points="133.29,-112.5 133.29,-131.5 257.29,-131.5 257.29,-112.5 133.29,-112.5"/>
<text text-anchor="middle" x="195.29" y="-119.5" font-family="Helvetica,sans-Serif" font-size="10.00">../StoppingCondition.h</text>
</a>
</g>
</g>
<!-- Node19&#45;&gt;Node21 -->
<g id="edge31" class="edge">
<title>Node19&#45;&gt;Node21</title>
<path fill="none" stroke="midnightblue" d="M270.83,-168.32C256.79,-159.9 235.24,-146.97 218.75,-137.07"/>
<polygon fill="midnightblue" stroke="midnightblue" points="220.09,-133.8 209.71,-131.65 216.49,-139.8 220.09,-133.8"/>
</g>
<!-- Node22 -->
<g id="node22" class="node">
<title>Node22</title>
<g id="a_node22"><a xlink:title=" ">
<polygon fill="white" stroke="#bfbfbf" points="329.29,-56.5 329.29,-75.5 379.29,-75.5 379.29,-56.5 329.29,-56.5"/>
<text text-anchor="middle" x="354.29" y="-63.5" font-family="Helvetica,sans-Serif" font-size="10.00">chrono</text>
</a>
</g>
</g>
<!-- Node19&#45;&gt;Node22 -->
<g id="edge36" class="edge">
<title>Node19&#45;&gt;Node22</title>
<path fill="none" stroke="midnightblue" d="M286.28,-168.39C288.1,-155.33 292.9,-130.12 304.29,-112 311.6,-100.38 322.74,-89.94 332.65,-82.05"/>
<polygon fill="midnightblue" stroke="midnightblue" points="335.04,-84.62 340.91,-75.81 330.83,-79.04 335.04,-84.62"/>
</g>
<!-- Node21&#45;&gt;Node6 -->
<g id="edge32" class="edge">
<title>Node21&#45;&gt;Node6</title>
<path fill="none" stroke="midnightblue" d="M257.41,-114.65C363.14,-103.83 576.04,-82.06 673.06,-72.14"/>
<polygon fill="midnightblue" stroke="midnightblue" points="673.6,-75.6 683.19,-71.1 672.89,-68.64 673.6,-75.6"/>
</g>
<!-- Node21&#45;&gt;Node12 -->
<g id="edge35" class="edge">
<title>Node21&#45;&gt;Node12</title>
<path fill="none" stroke="midnightblue" d="M210.07,-112.32C224.56,-103.82 246.86,-90.73 263.78,-80.8"/>
<polygon fill="midnightblue" stroke="midnightblue" points="265.69,-83.74 272.54,-75.65 262.15,-77.7 265.69,-83.74"/>
</g>
<!-- Node21&#45;&gt;Node20 -->
<g id="edge33" class="edge">
<title>Node21&#45;&gt;Node20</title>
<path fill="none" stroke="midnightblue" d="M194.46,-112.08C193.81,-105.01 192.87,-94.86 192.05,-85.99"/>
<polygon fill="midnightblue" stroke="midnightblue" points="195.51,-85.39 191.1,-75.75 188.54,-86.03 195.51,-85.39"/>
</g>
<!-- Node21&#45;&gt;Node22 -->
<g id="edge34" class="edge">
<title>Node21&#45;&gt;Node22</title>
<path fill="none" stroke="midnightblue" d="M220.48,-112.44C247.23,-103.36 289.69,-88.94 319.59,-78.78"/>
<polygon fill="midnightblue" stroke="midnightblue" points="320.87,-82.05 329.21,-75.52 318.62,-75.42 320.87,-82.05"/>
</g>
<!-- Node23&#45;&gt;Node3 -->
<g id="edge40" class="edge">
<title>Node23&#45;&gt;Node3</title>
<path fill="none" stroke="midnightblue" d="M1205.3,-112.44C1224.88,-103.64 1255.6,-89.81 1278.02,-79.72"/>
<polygon fill="midnightblue" stroke="midnightblue" points="1279.68,-82.81 1287.36,-75.52 1276.81,-76.43 1279.68,-82.81"/>
</g>
<!-- Node23&#45;&gt;Node6 -->
<g id="edge41" class="edge">
<title>Node23&#45;&gt;Node6</title>
<path fill="none" stroke="midnightblue" d="M1121.42,-113.43C1028.13,-102.55 858.02,-82.71 773.6,-72.87"/>
<polygon fill="midnightblue" stroke="midnightblue" points="773.83,-69.37 763.49,-71.69 773.02,-76.32 773.83,-69.37"/>
</g>
<!-- Node23&#45;&gt;Node8 -->
<g id="edge43" class="edge">
<title>Node23&#45;&gt;Node8</title>
<path fill="none" stroke="midnightblue" d="M1158.11,-112.46C1092.06,-92.45 927.51,-42.58 856.63,-21.1"/>
<polygon fill="midnightblue" stroke="midnightblue" points="857.46,-17.7 846.88,-18.15 855.43,-24.4 857.46,-17.7"/>
</g>
<!-- Node23&#45;&gt;Node9 -->
<g id="edge44" class="edge">
<title>Node23&#45;&gt;Node9</title>
<path fill="none" stroke="midnightblue" d="M1186.3,-112.07C1186.81,-98.13 1189.89,-71.19 1205.29,-56 1237.91,-23.81 1291.45,-14.18 1327.98,-11.54"/>
<polygon fill="midnightblue" stroke="midnightblue" points="1328.48,-15.02 1338.27,-10.95 1328.08,-8.03 1328.48,-15.02"/>
</g>
<!-- Node23&#45;&gt;Node13 -->
<g id="edge42" class="edge">
<title>Node23&#45;&gt;Node13</title>
<path fill="none" stroke="midnightblue" d="M1193.55,-112.08C1199.83,-104.38 1209.08,-93.03 1216.72,-83.65"/>
<polygon fill="midnightblue" stroke="midnightblue" points="1219.55,-85.71 1223.16,-75.75 1214.13,-81.29 1219.55,-85.71"/>
</g>
<!-- Node24&#45;&gt;Node3 -->
<g id="edge47" class="edge">
<title>Node24&#45;&gt;Node3</title>
<path fill="none" stroke="midnightblue" d="M1390.24,-224.19C1377.97,-216.24 1361.12,-203.44 1351.29,-188 1332.54,-158.53 1344.32,-144.41 1331.29,-112 1327.46,-102.46 1322.02,-92.41 1317.2,-84.24"/>
<polygon fill="midnightblue" stroke="midnightblue" points="1320.15,-82.35 1311.95,-75.64 1314.17,-86 1320.15,-82.35"/>
</g>
<!-- Node24&#45;&gt;Node4 -->
<g id="edge46" class="edge">
<title>Node24&#45;&gt;Node4</title>
<path fill="none" stroke="midnightblue" d="M1411.07,-224.08C1415.96,-216.53 1423.12,-205.49 1429.12,-196.23"/>
<polygon fill="midnightblue" stroke="midnightblue" points="1432.11,-198.05 1434.62,-187.75 1426.24,-194.24 1432.11,-198.05"/>
</g>
<!-- Node24&#45;&gt;Node9 -->
<g id="edge48" class="edge">
<title>Node24&#45;&gt;Node9</title>
<path fill="none" stroke="midnightblue" d="M1433.92,-230.82C1462.63,-227.03 1505.84,-216.6 1529.29,-188 1566.79,-142.25 1582.66,-102.65 1546.29,-56 1529.26,-34.16 1453.65,-21.3 1406.31,-15.25"/>
<polygon fill="midnightblue" stroke="midnightblue" points="1406.73,-11.78 1396.38,-14.03 1405.88,-18.72 1406.73,-11.78"/>
</g>
<!-- Node24&#45;&gt;Node13 -->
<g id="edge50" class="edge">
<title>Node24&#45;&gt;Node13</title>
<path fill="none" stroke="midnightblue" d="M1388.34,-224.42C1373.79,-216.44 1352.91,-203.48 1338.29,-188 1311.33,-159.47 1319.83,-140.92 1293.29,-112 1282.1,-99.81 1267.1,-88.94 1254.55,-80.93"/>
<polygon fill="midnightblue" stroke="midnightblue" points="1256.28,-77.89 1245.92,-75.63 1252.61,-83.85 1256.28,-77.89"/>
</g>
<!-- Node24&#45;&gt;Node18 -->
<g id="edge49" class="edge">
<title>Node24&#45;&gt;Node18</title>
<path fill="none" stroke="midnightblue" d="M1378.67,-224.42C1339.47,-211.82 1263.86,-187.68 1199.29,-168 1156.22,-154.87 1106.13,-140.27 1075.32,-131.35"/>
<polygon fill="midnightblue" stroke="midnightblue" points="1076.23,-127.97 1065.65,-128.56 1074.28,-134.7 1076.23,-127.97"/>
</g>
<!-- Node24&#45;&gt;Node25 -->
<g id="edge51" class="edge">
<title>Node24&#45;&gt;Node25</title>
<path fill="none" stroke="midnightblue" d="M1376.67,-226.17C1373.5,-225.43 1370.33,-224.7 1367.29,-224 1294.97,-207.45 1276.09,-206.67 1204.29,-188 1203.02,-187.67 1201.72,-187.32 1200.4,-186.96"/>
<polygon fill="midnightblue" stroke="midnightblue" points="1201,-183.49 1190.42,-184.08 1199.06,-190.21 1201,-183.49"/>
</g>
<!-- Node27&#45;&gt;Node9 -->
<g id="edge57" class="edge">
<title>Node27&#45;&gt;Node9</title>
<path fill="none" stroke="midnightblue" d="M1750.22,-112.04C1741.49,-97.54 1722.12,-69.21 1697.29,-56 1647.62,-29.58 1482.78,-17.32 1406.56,-12.96"/>
<polygon fill="midnightblue" stroke="midnightblue" points="1406.6,-9.46 1396.42,-12.4 1406.21,-16.45 1406.6,-9.46"/>
</g>
<!-- Node27&#45;&gt;Node13 -->
<g id="edge56" class="edge">
<title>Node27&#45;&gt;Node13</title>
<path fill="none" stroke="midnightblue" d="M1711.24,-120.79C1625.11,-119.59 1428.48,-112.87 1256.5,-75.72"/>
<polygon fill="midnightblue" stroke="midnightblue" points="1257.04,-72.25 1246.52,-73.52 1255.53,-79.09 1257.04,-72.25"/>
</g>
<!-- Node28&#45;&gt;Node5 -->
<g id="edge59" class="edge">
<title>Node28&#45;&gt;Node5</title>
<path fill="none" stroke="midnightblue" d="M1581.17,-224.18C1580.5,-210.39 1577.21,-183.67 1562.29,-168 1543.31,-148.07 1515.09,-136.97 1489.78,-130.78"/>
<polygon fill="midnightblue" stroke="midnightblue" points="1490.41,-127.34 1479.89,-128.57 1488.88,-134.17 1490.41,-127.34"/>
</g>
<!-- Node29&#45;&gt;Node6 -->
<g id="edge61" class="edge">
<title>Node29&#45;&gt;Node6</title>
<path fill="none" stroke="midnightblue" d="M901.93,-224.49C878.53,-216.81 844.96,-204.23 818.29,-188 785.71,-168.18 776.24,-162.45 753.29,-132 742.54,-117.75 734.41,-99.03 729.35,-85.34"/>
<polygon fill="midnightblue" stroke="midnightblue" points="732.55,-83.91 725.95,-75.63 725.94,-86.22 732.55,-83.91"/>
</g>
<!-- Node29&#45;&gt;Node8 -->
<g id="edge70" class="edge">
<title>Node29&#45;&gt;Node8</title>
<path fill="none" stroke="midnightblue" d="M859.48,-231.58C655.38,-227.18 78.35,-212.64 46.29,-188 4.83,-156.14 18.39,-127.66 10.29,-76 8.91,-67.22 4.18,-62.46 10.29,-56 23.9,-41.62 636.8,-17.93 789.24,-12.25"/>
<polygon fill="midnightblue" stroke="midnightblue" points="789.54,-15.74 799.41,-11.87 789.28,-8.75 789.54,-15.74"/>
</g>
<!-- Node29&#45;&gt;Node9 -->
<g id="edge72" class="edge">
<title>Node29&#45;&gt;Node9</title>
<path fill="none" stroke="midnightblue" d="M946.43,-224.36C962.41,-215.64 987.46,-201.56 1008.29,-188 1091.72,-133.67 1099.13,-98.25 1189.29,-56 1234.54,-34.8 1291.11,-22.69 1328.18,-16.49"/>
<polygon fill="midnightblue" stroke="midnightblue" points="1328.77,-19.94 1338.09,-14.89 1327.66,-13.02 1328.77,-19.94"/>
</g>
<!-- Node29&#45;&gt;Node13 -->
<g id="edge71" class="edge">
<title>Node29&#45;&gt;Node13</title>
<path fill="none" stroke="midnightblue" d="M972.91,-224.42C1008.97,-216.62 1061.73,-203.9 1106.29,-188 1126.14,-180.91 1129.68,-175.74 1149.29,-168 1197.14,-149.12 1229.1,-173.65 1259.29,-132 1270.22,-116.92 1258.23,-97.07 1246.52,-83.29"/>
<polygon fill="midnightblue" stroke="midnightblue" points="1248.8,-80.6 1239.47,-75.59 1243.64,-85.33 1248.8,-80.6"/>
</g>
<!-- Node29&#45;&gt;Node18 -->
<g id="edge69" class="edge">
<title>Node29&#45;&gt;Node18</title>
<path fill="none" stroke="midnightblue" d="M941.36,-224.39C952.5,-215.58 970.03,-201.34 984.29,-188 1001.27,-172.12 1019.49,-152.7 1031.76,-139.24"/>
<polygon fill="midnightblue" stroke="midnightblue" points="1034.45,-141.48 1038.56,-131.72 1029.26,-136.79 1034.45,-141.48"/>
</g>
<!-- Node29&#45;&gt;Node25 -->
<g id="edge73" class="edge">
<title>Node29&#45;&gt;Node25</title>
<path fill="none" stroke="midnightblue" d="M976.47,-224.46C1019.98,-216.13 1086.89,-202.62 1144.29,-188 1145.56,-187.68 1146.86,-187.33 1148.18,-186.98"/>
<polygon fill="midnightblue" stroke="midnightblue" points="1149.52,-190.23 1158.17,-184.11 1147.59,-183.5 1149.52,-190.23"/>
</g>
<!-- Node30 -->
<g id="node30" class="node">
<title>Node30</title>
<g id="a_node30"><a xlink:href="ComparisonFunctions_8h.xhtml" target="_top" xlink:title="In this file, comparison functions are defined which should be used across the whole framework.">
<polygon fill="white" stroke="black" points="55.29,-168.5 55.29,-187.5 195.29,-187.5 195.29,-168.5 55.29,-168.5"/>
<text text-anchor="middle" x="125.29" y="-175.5" font-family="Helvetica,sans-Serif" font-size="10.00">../ComparisonFunctions.h</text>
</a>
</g>
</g>
<!-- Node29&#45;&gt;Node30 -->
<g id="edge62" class="edge">
<title>Node29&#45;&gt;Node30</title>
<path fill="none" stroke="midnightblue" d="M859.6,-229.83C731.46,-223.82 452.03,-209.49 205.7,-188.08"/>
<polygon fill="midnightblue" stroke="midnightblue" points="205.75,-184.57 195.48,-187.19 205.14,-191.54 205.75,-184.57"/>
</g>
<!-- Node31 -->
<g id="node31" class="node">
<title>Node31</title>
<g id="a_node31"><a xlink:href="Parameter_8h.xhtml" target="_top" xlink:title="In this file, the header of the Parameter class is defined.">
<polygon fill="white" stroke="black" points="313.29,-112.5 313.29,-131.5 447.29,-131.5 447.29,-112.5 313.29,-112.5"/>
<text text-anchor="middle" x="380.29" y="-119.5" font-family="Helvetica,sans-Serif" font-size="10.00">parameters/Parameter.h</text>
</a>
</g>
</g>
<!-- Node29&#45;&gt;Node31 -->
<g id="edge68" class="edge">
<title>Node29&#45;&gt;Node31</title>
<path fill="none" stroke="midnightblue" d="M887.59,-224.46C788.2,-204.58 541.59,-155.26 433.03,-133.55"/>
<polygon fill="midnightblue" stroke="midnightblue" points="433.45,-130.06 422.96,-131.53 432.08,-136.93 433.45,-130.06"/>
</g>
<!-- Node32 -->
<g id="node32" class="node">
<title>Node32</title>
<g id="a_node32"><a xlink:title=" ">
<polygon fill="white" stroke="#bfbfbf" points="827.29,-168.5 827.29,-187.5 875.29,-187.5 875.29,-168.5 827.29,-168.5"/>
<text text-anchor="middle" x="851.29" y="-175.5" font-family="Helvetica,sans-Serif" font-size="10.00">mutex</text>
</a>
</g>
</g>
<!-- Node29&#45;&gt;Node32 -->
<g id="edge74" class="edge">
<title>Node29&#45;&gt;Node32</title>
<path fill="none" stroke="midnightblue" d="M917.6,-224.32C905.39,-215.98 886.71,-203.21 872.29,-193.35"/>
<polygon fill="midnightblue" stroke="midnightblue" points="874.18,-190.41 863.95,-187.65 870.23,-196.19 874.18,-190.41"/>
</g>
<!-- Node30&#45;&gt;Node8 -->
<g id="edge67" class="edge">
<title>Node30&#45;&gt;Node8</title>
<path fill="none" stroke="midnightblue" d="M105.79,-168.36C63.51,-148.52 -29.65,-98.21 10.29,-56 23.9,-41.62 636.8,-17.93 789.24,-12.25"/>
<polygon fill="midnightblue" stroke="midnightblue" points="789.54,-15.74 799.41,-11.87 789.28,-8.75 789.54,-15.74"/>
</g>
<!-- Node30&#45;&gt;Node31 -->
<g id="edge63" class="edge">
<title>Node30&#45;&gt;Node31</title>
<path fill="none" stroke="midnightblue" d="M165.69,-168.44C210.27,-159 282.06,-143.8 330.18,-133.61"/>
<polygon fill="midnightblue" stroke="midnightblue" points="331.01,-137.01 340.07,-131.52 329.56,-130.16 331.01,-137.01"/>
</g>
<!-- Node31&#45;&gt;Node6 -->
<g id="edge64" class="edge">
<title>Node31&#45;&gt;Node6</title>
<path fill="none" stroke="midnightblue" d="M434.64,-112.44C500.13,-102.13 609.28,-84.95 672.93,-74.93"/>
<polygon fill="midnightblue" stroke="midnightblue" points="673.79,-78.34 683.13,-73.32 672.7,-71.42 673.79,-78.34"/>
</g>
<!-- Node31&#45;&gt;Node7 -->
<g id="edge65" class="edge">
<title>Node31&#45;&gt;Node7</title>
<path fill="none" stroke="midnightblue" d="M388.84,-112.37C407.15,-93.89 450.35,-50.29 473.69,-26.74"/>
<polygon fill="midnightblue" stroke="midnightblue" points="476.22,-29.16 480.78,-19.59 471.25,-24.23 476.22,-29.16"/>
</g>
<!-- Node31&#45;&gt;Node9 -->
<g id="edge66" class="edge">
<title>Node31&#45;&gt;Node9</title>
<path fill="none" stroke="midnightblue" d="M411.33,-112.49C464.64,-98.25 577.25,-69.8 674.29,-56 921.25,-20.89 1221.67,-13.14 1327.84,-11.46"/>
<polygon fill="midnightblue" stroke="midnightblue" points="1328.13,-14.95 1338.08,-11.3 1328.03,-7.95 1328.13,-14.95"/>
</g>
</g>
</svg>
        <g id="navigator" transform="translate(0 0)" fill="#404254">
                <rect fill="#f2f5e9" fill-opacity="0.5" stroke="#606060" stroke-width=".5" x="0" y="0" width="60" height="60"/>
                <use id="zoomplus" xlink:href="#zoomPlus" x="17" y="9" onmousedown="handleZoom(evt,'in')"/>
                <use id="zoomminus" xlink:href="#zoomMin" x="42" y="9" onmousedown="handleZoom(evt,'out')"/>
                <use id="reset" xlink:href="#resetDef" x="30" y="36" onmousedown="handleReset()"/>
                <g id="arrowUp" xlink:href="#dirArrow" transform="translate(30 24)" onmousedown="handlePan(0,-1)">
                  <use xlink:href="#rim" fill="#404040">
                        <set attributeName="fill" to="#808080" begin="arrowUp.mouseover" end="arrowUp.mouseout"/>
                  </use>
                  <path fill="none" stroke="white" stroke-width="1.5" d="M0,-3.0v7 M-2.5,-0.5L0,-3.0L2.5,-0.5"/>
                </g>
                <g id="arrowRight" xlink:href="#dirArrow" transform="rotate(90) translate(36 -43)" onmousedown="handlePan(1,0)">
                  <use xlink:href="#rim" fill="#404040">
                        <set attributeName="fill" to="#808080" begin="arrowRight.mouseover" end="arrowRight.mouseout"/>
                  </use>
                  <path fill="none" stroke="white" stroke-width="1.5" d="M0,-3.0v7 M-2.5,-0.5L0,-3.0L2.5,-0.5"/>
                </g>
                <g id="arrowDown" xlink:href="#dirArrow" transform="rotate(180) translate(-30 -48)" onmousedown="handlePan(0,1)">
                  <use xlink:href="#rim" fill="#404040">
                        <set attributeName="fill" to="#808080" begin="arrowDown.mouseover" end="arrowDown.mouseout"/>
                  </use>
                  <path fill="none" stroke="white" stroke-width="1.5" d="M0,-3.0v7 M-2.5,-0.5L0,-3.0L2.5,-0.5"/>
                </g>
                <g id="arrowLeft" xlink:href="#dirArrow" transform="rotate(270) translate(-36 17)" onmousedown="handlePan(-1,0)">
                  <use xlink:href="#rim" fill="#404040">
                        <set attributeName="fill" to="#808080" begin="arrowLeft.mouseover" end="arrowLeft.mouseout"/>
                  </use>
                  <path fill="none" stroke="white" stroke-width="1.5" d="M0,-3.0v7 M-2.5,-0.5L0,-3.0L2.5,-0.5"/>
                </g>
        </g>
        <svg viewBox="0 0 15 15" width="100%" height="30px" preserveAspectRatio="xMaxYMin meet">
         <g id="arrow_out" transform="scale(0.3 0.3)">
          <a xlink:href="DirectOptimizer_8cpp__incl_org.svg" target="_base">
           <rect id="button" ry="5" rx="5" y="6" x="6" height="38" width="38"
                fill="#f2f5e9" fill-opacity="0.5" stroke="#606060" stroke-width="1.0"/>
           <path id="arrow"
             d="M 11.500037,31.436501 C 11.940474,20.09759 22.043105,11.32322 32.158766,21.979434 L 37.068811,17.246167 C 37.068811,17.246167 37.088388,32 37.088388,32 L 22.160133,31.978069 C 22.160133,31.978069 26.997745,27.140456 26.997745,27.140456 C 18.528582,18.264221 13.291696,25.230495 11.500037,31.436501 z"
             style="fill:#404040;"/>
          </a>
         </g>
        </svg>
</svg>
