<?xml version="1.0" encoding="UTF-8" standalone="no"?>
<!DOCTYPE svg PUBLIC "-//W3C//DTD SVG 1.1//EN"
 "http://www.w3.org/Graphics/SVG/1.1/DTD/svg11.dtd">
<!-- Generated by graphviz version 2.43.0 (0)
 -->
<!-- Title: /home/runner/work/Simopticon/Simopticon/src/optimizer/direct/DirectOptimizer.h Pages: 1 -->
<!--zoomable 330 -->
<svg id="main" version="1.1" xmlns="http://www.w3.org/2000/svg" xmlns:xlink="http://www.w3.org/1999/xlink" xml:space="preserve" onload="init(evt)">
<style type="text/css"><![CDATA[
.edge:hover path { stroke: red; }
.edge:hover polygon { stroke: red; fill: red; }
]]></style>
<script type="text/javascript"><![CDATA[
var edges = document.getElementsByTagName('g');
if (edges && edges.length) {
  for (var i=0;i<edges.length;i++) {
    if (edges[i].id.substr(0,4)=='edge') {
      edges[i].setAttribute('class','edge');
    }
  }
}
]]></script>
        <defs>
                <circle id="rim" cx="0" cy="0" r="7"/>
                <circle id="rim2" cx="0" cy="0" r="3.5"/>
                <g id="zoomPlus">
                        <use xlink:href="#rim" fill="#404040">
                                <set attributeName="fill" to="#808080" begin="zoomplus.mouseover" end="zoomplus.mouseout"/>
                        </use>
                        <path d="M-4,0h8M0,-4v8" fill="none" stroke="white" stroke-width="1.5" pointer-events="none"/>
                </g>
                <g id="zoomMin">
                        <use xlink:href="#rim" fill="#404040">
                                <set attributeName="fill" to="#808080" begin="zoomminus.mouseover" end="zoomminus.mouseout"/>
                        </use>
                        <path d="M-4,0h8" fill="none" stroke="white" stroke-width="1.5" pointer-events="none"/>
                </g>
                <g id="dirArrow">
                        <path fill="none" stroke="white" stroke-width="1.5" d="M0,-3.0v7 M-2.5,-0.5L0,-3.0L2.5,-0.5"/>
                </g>
               <g id="resetDef">
                       <use xlink:href="#rim2" fill="#404040">
                               <set attributeName="fill" to="#808080" begin="reset.mouseover" end="reset.mouseout"/>
                       </use>
               </g>
        </defs>

<script type="text/javascript">
var viewWidth = 1321;
var viewHeight = 330;
var sectionId = 'dynsection-0';
</script>
<script xlink:href="svgpan.js"/>
<svg id="graph" class="graph">
<g id="viewport">
<title>/home/runner/work/Simopticon/Simopticon/src/optimizer/direct/DirectOptimizer.h</title>
<polygon fill="white" stroke="transparent" points="-4,4 -4,-326 1317,-326 1317,4 -4,4"/>
<!-- Node1 -->
<g id="node1" class="node">
<title>Node1</title>
<g id="a_node1"><a xlink:title="In this file, the header of the DirectOptimizer class is defined.">
<polygon fill="#bfbfbf" stroke="black" points="325.5,-280.5 325.5,-321.5 492.5,-321.5 492.5,-280.5 325.5,-280.5"/>
<text text-anchor="start" x="333.5" y="-309.5" font-family="Helvetica,sans-Serif" font-size="10.00">/home/runner/work/Simopticon</text>
<text text-anchor="start" x="333.5" y="-298.5" font-family="Helvetica,sans-Serif" font-size="10.00">/Simopticon/src/optimizer</text>
<text text-anchor="middle" x="409" y="-287.5" font-family="Helvetica,sans-Serif" font-size="10.00">/direct/DirectOptimizer.h</text>
</a>
</g>
</g>
<!-- Node2 -->
<g id="node2" class="node">
<title>Node2</title>
<g id="a_node2"><a xlink:href="DirectTypes_8h.xhtml" target="_top" xlink:title="In this file, types are defined which are used in the direct module.">
<polygon fill="white" stroke="black" points="319.5,-56.5 319.5,-75.5 402.5,-75.5 402.5,-56.5 319.5,-56.5"/>
<text text-anchor="middle" x="361" y="-63.5" font-family="Helvetica,sans-Serif" font-size="10.00">DirectTypes.h</text>
</a>
</g>
</g>
<!-- Node1&#45;&gt;Node2 -->
<g id="edge1" class="edge">
<title>Node1&#45;&gt;Node2</title>
<path fill="none" stroke="midnightblue" d="M325.4,-298.39C250.72,-291.65 149.44,-267.54 125,-188 100.15,-107.13 232.56,-80.01 309.28,-71.15"/>
<polygon fill="midnightblue" stroke="midnightblue" points="309.69,-74.62 319.26,-70.06 308.94,-67.66 309.69,-74.62"/>
</g>
<!-- Node3 -->
<g id="node3" class="node">
<title>Node3</title>
<g id="a_node3"><a xlink:href="DirectComparisonFunctions_8h.xhtml" target="_top" xlink:title="In this file, comparison functions are defined which are used in the direct module.">
<polygon fill="white" stroke="black" points="142,-168.5 142,-187.5 302,-187.5 302,-168.5 142,-168.5"/>
<text text-anchor="middle" x="222" y="-175.5" font-family="Helvetica,sans-Serif" font-size="10.00">DirectComparisonFunctions.h</text>
</a>
</g>
</g>
<!-- Node1&#45;&gt;Node3 -->
<g id="edge2" class="edge">
<title>Node1&#45;&gt;Node3</title>
<path fill="none" stroke="midnightblue" d="M378.54,-280.29C340.7,-255.81 277.08,-214.64 243.79,-193.1"/>
<polygon fill="midnightblue" stroke="midnightblue" points="245.55,-190.07 235.25,-187.57 241.75,-195.95 245.55,-190.07"/>
</g>
<!-- Node4 -->
<g id="node4" class="node">
<title>Node4</title>
<g id="a_node4"><a xlink:href="HyRect_8h.xhtml" target="_top" xlink:title="In this file, the header of the HyRect class is defined.">
<polygon fill="white" stroke="black" points="185.5,-112.5 185.5,-131.5 280.5,-131.5 280.5,-112.5 185.5,-112.5"/>
<text text-anchor="middle" x="233" y="-119.5" font-family="Helvetica,sans-Serif" font-size="10.00">hyrect/HyRect.h</text>
</a>
</g>
</g>
<!-- Node1&#45;&gt;Node4 -->
<g id="edge32" class="edge">
<title>Node1&#45;&gt;Node4</title>
<path fill="none" stroke="midnightblue" d="M325.25,-290.79C260.74,-278.81 175.6,-251.27 133,-188 115.89,-162.6 151.93,-144.85 185.42,-134.39"/>
<polygon fill="midnightblue" stroke="midnightblue" points="186.6,-137.69 195.2,-131.51 184.62,-130.98 186.6,-137.69"/>
</g>
<!-- Node8 -->
<g id="node8" class="node">
<title>Node8</title>
<g id="a_node8"><a xlink:title=" ">
<polygon fill="white" stroke="#bfbfbf" points="371,-0.5 371,-19.5 429,-19.5 429,-0.5 371,-0.5"/>
<text text-anchor="middle" x="400" y="-7.5" font-family="Helvetica,sans-Serif" font-size="10.00">memory</text>
</a>
</g>
</g>
<!-- Node1&#45;&gt;Node8 -->
<g id="edge48" class="edge">
<title>Node1&#45;&gt;Node8</title>
<path fill="none" stroke="midnightblue" d="M325.25,-292.3C205.59,-278.93 0,-246.2 0,-179 0,-179 0,-179 0,-121 0,-74.15 39.89,-74.36 83,-56 176.79,-16.05 298.88,-10.24 360.6,-10.17"/>
<polygon fill="midnightblue" stroke="midnightblue" points="360.67,-13.67 370.68,-10.2 360.7,-6.67 360.67,-13.67"/>
</g>
<!-- Node13 -->
<g id="node13" class="node">
<title>Node13</title>
<g id="a_node13"><a xlink:href="Optimizer_8h.xhtml" target="_top" xlink:title="In this file, the header of the Optimizer class is defined.">
<polygon fill="white" stroke="black" points="605,-168.5 605,-187.5 687,-187.5 687,-168.5 605,-168.5"/>
<text text-anchor="middle" x="646" y="-175.5" font-family="Helvetica,sans-Serif" font-size="10.00">../Optimizer.h</text>
</a>
</g>
</g>
<!-- Node1&#45;&gt;Node13 -->
<g id="edge15" class="edge">
<title>Node1&#45;&gt;Node13</title>
<path fill="none" stroke="midnightblue" d="M452.28,-280.44C475,-269.97 503.19,-256.66 528,-244 561.14,-227.09 598.66,-206.1 622.32,-192.63"/>
<polygon fill="midnightblue" stroke="midnightblue" points="624.32,-195.52 631.26,-187.52 620.84,-189.44 624.32,-195.52"/>
</g>
<!-- Node18 -->
<g id="node18" class="node">
<title>Node18</title>
<g id="a_node18"><a xlink:href="StoppingCondition_8h.xhtml" target="_top" xlink:title="In this file, the header of the StoppingCondition class is defined.">
<polygon fill="white" stroke="black" points="1181.5,-112.5 1181.5,-131.5 1296.5,-131.5 1296.5,-112.5 1181.5,-112.5"/>
<text text-anchor="middle" x="1239" y="-119.5" font-family="Helvetica,sans-Serif" font-size="10.00">StoppingCondition.h</text>
</a>
</g>
</g>
<!-- Node1&#45;&gt;Node18 -->
<g id="edge27" class="edge">
<title>Node1&#45;&gt;Node18</title>
<path fill="none" stroke="midnightblue" d="M489.31,-280.46C554.98,-264.66 650.33,-242.15 734,-224 896.97,-188.66 1090.52,-151.2 1183.59,-133.47"/>
<polygon fill="midnightblue" stroke="midnightblue" points="1184.46,-136.87 1193.63,-131.56 1183.15,-130 1184.46,-136.87"/>
</g>
<!-- Node21 -->
<g id="node21" class="node">
<title>Node21</title>
<g id="a_node21"><a xlink:href="ParameterNormalizer_8h.xhtml" target="_top" xlink:title="In this file, the header of the ParameterNormalizer class is defined.">
<polygon fill="white" stroke="black" points="469.5,-112.5 469.5,-131.5 598.5,-131.5 598.5,-112.5 469.5,-112.5"/>
<text text-anchor="middle" x="534" y="-119.5" font-family="Helvetica,sans-Serif" font-size="10.00">ParameterNormalizer.h</text>
</a>
</g>
</g>
<!-- Node1&#45;&gt;Node21 -->
<g id="edge33" class="edge">
<title>Node1&#45;&gt;Node21</title>
<path fill="none" stroke="midnightblue" d="M422.85,-280.38C447.5,-245.48 498.56,-173.19 521.89,-140.15"/>
<polygon fill="midnightblue" stroke="midnightblue" points="525.03,-141.77 527.94,-131.58 519.31,-137.73 525.03,-141.77"/>
</g>
<!-- Node22 -->
<g id="node22" class="node">
<title>Node22</title>
<g id="a_node22"><a xlink:href="Levels_8h.xhtml" target="_top" xlink:title="In this file, the header of the Levels class is defined.">
<polygon fill="white" stroke="black" points="339.5,-224.5 339.5,-243.5 396.5,-243.5 396.5,-224.5 339.5,-224.5"/>
<text text-anchor="middle" x="368" y="-231.5" font-family="Helvetica,sans-Serif" font-size="10.00">Levels.h</text>
</a>
</g>
</g>
<!-- Node1&#45;&gt;Node22 -->
<g id="edge39" class="edge">
<title>Node1&#45;&gt;Node22</title>
<path fill="none" stroke="midnightblue" d="M396.7,-280.5C391.02,-271.49 384.33,-260.89 378.84,-252.19"/>
<polygon fill="midnightblue" stroke="midnightblue" points="381.75,-250.24 373.46,-243.65 375.83,-253.98 381.75,-250.24"/>
</g>
<!-- Node23 -->
<g id="node23" class="node">
<title>Node23</title>
<g id="a_node23"><a xlink:title=" ">
<polygon fill="white" stroke="#bfbfbf" points="434,-168.5 434,-187.5 466,-187.5 466,-168.5 434,-168.5"/>
<text text-anchor="middle" x="450" y="-175.5" font-family="Helvetica,sans-Serif" font-size="10.00">set</text>
</a>
</g>
</g>
<!-- Node1&#45;&gt;Node23 -->
<g id="edge46" class="edge">
<title>Node1&#45;&gt;Node23</title>
<path fill="none" stroke="midnightblue" d="M415.68,-280.29C423.48,-257.27 436.28,-219.5 443.84,-197.17"/>
<polygon fill="midnightblue" stroke="midnightblue" points="447.2,-198.17 447.09,-187.57 440.57,-195.92 447.2,-198.17"/>
</g>
<!-- Node24 -->
<g id="node24" class="node">
<title>Node24</title>
<g id="a_node24"><a xlink:title=" ">
<polygon fill="white" stroke="#bfbfbf" points="743,-224.5 743,-243.5 829,-243.5 829,-224.5 743,-224.5"/>
<text text-anchor="middle" x="786" y="-231.5" font-family="Helvetica,sans-Serif" font-size="10.00">unordered_set</text>
</a>
</g>
</g>
<!-- Node1&#45;&gt;Node24 -->
<g id="edge47" class="edge">
<title>Node1&#45;&gt;Node24</title>
<path fill="none" stroke="midnightblue" d="M492.67,-285.57C566.03,-272.93 670.45,-254.92 732.89,-244.16"/>
<polygon fill="midnightblue" stroke="midnightblue" points="733.66,-247.58 742.92,-242.43 732.47,-240.68 733.66,-247.58"/>
</g>
<!-- Node3&#45;&gt;Node4 -->
<g id="edge3" class="edge">
<title>Node3&#45;&gt;Node4</title>
<path fill="none" stroke="midnightblue" d="M223.82,-168.08C225.27,-160.93 227.37,-150.64 229.19,-141.69"/>
<polygon fill="midnightblue" stroke="midnightblue" points="232.65,-142.25 231.22,-131.75 225.79,-140.85 232.65,-142.25"/>
</g>
<!-- Node4&#45;&gt;Node2 -->
<g id="edge8" class="edge">
<title>Node4&#45;&gt;Node2</title>
<path fill="none" stroke="midnightblue" d="M253.28,-112.44C274.35,-103.56 307.52,-89.56 331.49,-79.45"/>
<polygon fill="midnightblue" stroke="midnightblue" points="332.96,-82.63 340.81,-75.52 330.24,-76.18 332.96,-82.63"/>
</g>
<!-- Node5 -->
<g id="node5" class="node">
<title>Node5</title>
<g id="a_node5"><a xlink:href="Types_8h.xhtml" target="_top" xlink:title="In this file, types are defined which should be used across the whole framework.">
<polygon fill="white" stroke="black" points="655,-56.5 655,-75.5 735,-75.5 735,-56.5 655,-56.5"/>
<text text-anchor="middle" x="695" y="-63.5" font-family="Helvetica,sans-Serif" font-size="10.00">../../../Types.h</text>
</a>
</g>
</g>
<!-- Node4&#45;&gt;Node5 -->
<g id="edge4" class="edge">
<title>Node4&#45;&gt;Node5</title>
<path fill="none" stroke="midnightblue" d="M280.7,-115.42C368.52,-105.16 554.99,-83.37 644.71,-72.88"/>
<polygon fill="midnightblue" stroke="midnightblue" points="645.37,-76.32 654.9,-71.69 644.56,-69.37 645.37,-76.32"/>
</g>
<!-- Node7 -->
<g id="node7" class="node">
<title>Node7</title>
<g id="a_node7"><a xlink:title=" ">
<polygon fill="white" stroke="#bfbfbf" points="583.5,-0.5 583.5,-19.5 630.5,-19.5 630.5,-0.5 583.5,-0.5"/>
<text text-anchor="middle" x="607" y="-7.5" font-family="Helvetica,sans-Serif" font-size="10.00">vector</text>
</a>
</g>
</g>
<!-- Node4&#45;&gt;Node7 -->
<g id="edge11" class="edge">
<title>Node4&#45;&gt;Node7</title>
<path fill="none" stroke="midnightblue" d="M240.6,-112.1C253.47,-97.67 281.1,-69.45 311,-56 399.4,-16.23 516.08,-10.52 572.93,-10.35"/>
<polygon fill="midnightblue" stroke="midnightblue" points="573.14,-13.85 583.15,-10.38 573.16,-6.85 573.14,-13.85"/>
</g>
<!-- Node4&#45;&gt;Node8 -->
<g id="edge14" class="edge">
<title>Node4&#45;&gt;Node8</title>
<path fill="none" stroke="midnightblue" d="M222.26,-112.41C207.25,-99.37 183.41,-74.2 198,-56 218.02,-31.03 307.97,-19.02 360.85,-14.03"/>
<polygon fill="midnightblue" stroke="midnightblue" points="361.26,-17.51 370.9,-13.12 360.63,-10.53 361.26,-17.51"/>
</g>
<!-- Node9 -->
<g id="node9" class="node">
<title>Node9</title>
<g id="a_node9"><a xlink:title=" ">
<polygon fill="white" stroke="#bfbfbf" points="207,-56.5 207,-75.5 263,-75.5 263,-56.5 207,-56.5"/>
<text text-anchor="middle" x="235" y="-63.5" font-family="Helvetica,sans-Serif" font-size="10.00">optional</text>
</a>
</g>
</g>
<!-- Node4&#45;&gt;Node9 -->
<g id="edge9" class="edge">
<title>Node4&#45;&gt;Node9</title>
<path fill="none" stroke="midnightblue" d="M233.33,-112.08C233.59,-105.01 233.97,-94.86 234.3,-85.99"/>
<polygon fill="midnightblue" stroke="midnightblue" points="237.8,-85.87 234.68,-75.75 230.81,-85.61 237.8,-85.87"/>
</g>
<!-- Node10 -->
<g id="node10" class="node">
<title>Node10</title>
<g id="a_node10"><a xlink:title=" ">
<polygon fill="white" stroke="#bfbfbf" points="109,-56.5 109,-75.5 151,-75.5 151,-56.5 109,-56.5"/>
<text text-anchor="middle" x="130" y="-63.5" font-family="Helvetica,sans-Serif" font-size="10.00">array</text>
</a>
</g>
</g>
<!-- Node4&#45;&gt;Node10 -->
<g id="edge10" class="edge">
<title>Node4&#45;&gt;Node10</title>
<path fill="none" stroke="midnightblue" d="M216.45,-112.32C200.01,-103.7 174.57,-90.36 155.53,-80.39"/>
<polygon fill="midnightblue" stroke="midnightblue" points="156.99,-77.2 146.51,-75.65 153.74,-83.4 156.99,-77.2"/>
</g>
<!-- Node11 -->
<g id="node11" class="node">
<title>Node11</title>
<g id="a_node11"><a xlink:title=" ">
<polygon fill="white" stroke="#bfbfbf" points="551.5,-56.5 551.5,-75.5 598.5,-75.5 598.5,-56.5 551.5,-56.5"/>
<text text-anchor="middle" x="575" y="-63.5" font-family="Helvetica,sans-Serif" font-size="10.00">cmath</text>
</a>
</g>
</g>
<!-- Node4&#45;&gt;Node11 -->
<g id="edge12" class="edge">
<title>Node4&#45;&gt;Node11</title>
<path fill="none" stroke="midnightblue" d="M280.55,-113.49C350.65,-102.42 480,-82 541.21,-72.34"/>
<polygon fill="midnightblue" stroke="midnightblue" points="541.79,-75.79 551.12,-70.77 540.7,-68.87 541.79,-75.79"/>
</g>
<!-- Node12 -->
<g id="node12" class="node">
<title>Node12</title>
<g id="a_node12"><a xlink:title=" ">
<polygon fill="white" stroke="#bfbfbf" points="424,-56.5 424,-75.5 456,-75.5 456,-56.5 424,-56.5"/>
<text text-anchor="middle" x="440" y="-63.5" font-family="Helvetica,sans-Serif" font-size="10.00">list</text>
</a>
</g>
</g>
<!-- Node4&#45;&gt;Node12 -->
<g id="edge13" class="edge">
<title>Node4&#45;&gt;Node12</title>
<path fill="none" stroke="midnightblue" d="M269.87,-112.47C306.19,-103.89 363.17,-89.97 412,-76 412.72,-75.79 413.45,-75.58 414.18,-75.37"/>
<polygon fill="midnightblue" stroke="midnightblue" points="415.24,-78.7 423.77,-72.41 413.18,-72.01 415.24,-78.7"/>
</g>
<!-- Node6 -->
<g id="node6" class="node">
<title>Node6</title>
<g id="a_node6"><a xlink:title=" ">
<polygon fill="white" stroke="#bfbfbf" points="767,-0.5 767,-19.5 811,-19.5 811,-0.5 767,-0.5"/>
<text text-anchor="middle" x="789" y="-7.5" font-family="Helvetica,sans-Serif" font-size="10.00">string</text>
</a>
</g>
</g>
<!-- Node5&#45;&gt;Node6 -->
<g id="edge5" class="edge">
<title>Node5&#45;&gt;Node6</title>
<path fill="none" stroke="midnightblue" d="M710.1,-56.32C724.9,-47.82 747.69,-34.73 764.98,-24.8"/>
<polygon fill="midnightblue" stroke="midnightblue" points="767.01,-27.67 773.93,-19.65 763.52,-21.6 767.01,-27.67"/>
</g>
<!-- Node5&#45;&gt;Node7 -->
<g id="edge6" class="edge">
<title>Node5&#45;&gt;Node7</title>
<path fill="none" stroke="midnightblue" d="M680.86,-56.32C667.13,-47.9 646.06,-34.97 629.94,-25.07"/>
<polygon fill="midnightblue" stroke="midnightblue" points="631.46,-21.9 621.1,-19.65 627.8,-27.87 631.46,-21.9"/>
</g>
<!-- Node5&#45;&gt;Node8 -->
<g id="edge7" class="edge">
<title>Node5&#45;&gt;Node8</title>
<path fill="none" stroke="midnightblue" d="M654.91,-57.66C598.26,-47.29 495.43,-28.47 439.24,-18.18"/>
<polygon fill="midnightblue" stroke="midnightblue" points="439.78,-14.72 429.32,-16.37 438.52,-21.61 439.78,-14.72"/>
</g>
<!-- Node13&#45;&gt;Node5 -->
<g id="edge16" class="edge">
<title>Node13&#45;&gt;Node5</title>
<path fill="none" stroke="midnightblue" d="M649.84,-168.37C657.82,-150.46 676.33,-108.92 687,-84.95"/>
<polygon fill="midnightblue" stroke="midnightblue" points="690.3,-86.15 691.17,-75.59 683.91,-83.3 690.3,-86.15"/>
</g>
<!-- Node13&#45;&gt;Node7 -->
<g id="edge24" class="edge">
<title>Node13&#45;&gt;Node7</title>
<path fill="none" stroke="midnightblue" d="M687.11,-170.23C756.74,-158.66 890.68,-135.97 894,-132 899.7,-125.18 899.07,-119.3 894,-112 836.06,-28.52 703.14,-13.47 640.64,-11.15"/>
<polygon fill="midnightblue" stroke="midnightblue" points="640.62,-7.64 630.53,-10.86 640.42,-14.64 640.62,-7.64"/>
</g>
<!-- Node13&#45;&gt;Node8 -->
<g id="edge26" class="edge">
<title>Node13&#45;&gt;Node8</title>
<path fill="none" stroke="midnightblue" d="M646.05,-168.45C645.69,-146.29 641.5,-86.58 608,-56 583.7,-33.82 492.51,-20.72 439.29,-14.8"/>
<polygon fill="midnightblue" stroke="midnightblue" points="439.49,-11.3 429.18,-13.71 438.75,-18.26 439.49,-11.3"/>
</g>
<!-- Node13&#45;&gt;Node12 -->
<g id="edge23" class="edge">
<title>Node13&#45;&gt;Node12</title>
<path fill="none" stroke="midnightblue" d="M604.79,-171.71C556.85,-164.77 481.65,-151.18 461,-132 448.25,-120.16 443.21,-100.53 441.24,-85.93"/>
<polygon fill="midnightblue" stroke="midnightblue" points="444.68,-85.17 440.23,-75.56 437.72,-85.85 444.68,-85.17"/>
</g>
<!-- Node14 -->
<g id="node14" class="node">
<title>Node14</title>
<g id="a_node14"><a xlink:href="ParameterDefinition_8h.xhtml" target="_top" xlink:title="In this file, the header of the ParameterDefinition class is defined.">
<polygon fill="white" stroke="black" points="693.5,-112.5 693.5,-131.5 884.5,-131.5 884.5,-112.5 693.5,-112.5"/>
<text text-anchor="middle" x="789" y="-119.5" font-family="Helvetica,sans-Serif" font-size="10.00">../parameters/ParameterDefinition.h</text>
</a>
</g>
</g>
<!-- Node13&#45;&gt;Node14 -->
<g id="edge17" class="edge">
<title>Node13&#45;&gt;Node14</title>
<path fill="none" stroke="midnightblue" d="M668.66,-168.44C692.4,-159.48 729.91,-145.31 756.74,-135.18"/>
<polygon fill="midnightblue" stroke="midnightblue" points="758.33,-138.32 766.45,-131.52 755.86,-131.77 758.33,-138.32"/>
</g>
<!-- Node15 -->
<g id="node15" class="node">
<title>Node15</title>
<g id="a_node15"><a xlink:href="Status_8h.xhtml" target="_top" xlink:title="In this file, the header of the Status class is defined.">
<polygon fill="white" stroke="black" points="1065,-112.5 1065,-131.5 1163,-131.5 1163,-112.5 1065,-112.5"/>
<text text-anchor="middle" x="1114" y="-119.5" font-family="Helvetica,sans-Serif" font-size="10.00">../status/Status.h</text>
</a>
</g>
</g>
<!-- Node13&#45;&gt;Node15 -->
<g id="edge20" class="edge">
<title>Node13&#45;&gt;Node15</title>
<path fill="none" stroke="midnightblue" d="M687.1,-169.99C691.79,-169.28 696.49,-168.6 701,-168 854.99,-147.61 896.99,-151.97 1054.9,-132.08"/>
<polygon fill="midnightblue" stroke="midnightblue" points="1055.5,-135.53 1064.98,-130.79 1054.62,-128.58 1055.5,-135.53"/>
</g>
<!-- Node16 -->
<g id="node16" class="node">
<title>Node16</title>
<g id="a_node16"><a xlink:href="Abortable_8h.xhtml" target="_top" xlink:title="In this file, the header of the Abortable class is defined.">
<polygon fill="white" stroke="black" points="941,-112.5 941,-131.5 1047,-131.5 1047,-112.5 941,-112.5"/>
<text text-anchor="middle" x="994" y="-119.5" font-family="Helvetica,sans-Serif" font-size="10.00">../utils/Abortable.h</text>
</a>
</g>
</g>
<!-- Node13&#45;&gt;Node16 -->
<g id="edge22" class="edge">
<title>Node13&#45;&gt;Node16</title>
<path fill="none" stroke="midnightblue" d="M687.14,-170.22C691.81,-169.47 696.51,-168.71 701,-168 780.16,-155.44 871.45,-141.51 930.8,-132.52"/>
<polygon fill="midnightblue" stroke="midnightblue" points="931.41,-135.97 940.78,-131.01 930.37,-129.05 931.41,-135.97"/>
</g>
<!-- Node17 -->
<g id="node17" class="node">
<title>Node17</title>
<g id="a_node17"><a xlink:title=" ">
<polygon fill="white" stroke="#bfbfbf" points="375,-112.5 375,-131.5 413,-131.5 413,-112.5 375,-112.5"/>
<text text-anchor="middle" x="394" y="-119.5" font-family="Helvetica,sans-Serif" font-size="10.00">map</text>
</a>
</g>
</g>
<!-- Node13&#45;&gt;Node17 -->
<g id="edge25" class="edge">
<title>Node13&#45;&gt;Node17</title>
<path fill="none" stroke="midnightblue" d="M604.66,-169.32C560.5,-160.92 488.54,-146.7 427,-132 425.73,-131.7 424.44,-131.38 423.14,-131.05"/>
<polygon fill="midnightblue" stroke="midnightblue" points="423.7,-127.58 413.14,-128.44 421.93,-134.36 423.7,-127.58"/>
</g>
<!-- Node14&#45;&gt;Node5 -->
<g id="edge18" class="edge">
<title>Node14&#45;&gt;Node5</title>
<path fill="none" stroke="midnightblue" d="M773.9,-112.32C759.1,-103.82 736.31,-90.73 719.02,-80.8"/>
<polygon fill="midnightblue" stroke="midnightblue" points="720.48,-77.6 710.07,-75.65 716.99,-83.67 720.48,-77.6"/>
</g>
<!-- Node14&#45;&gt;Node6 -->
<g id="edge19" class="edge">
<title>Node14&#45;&gt;Node6</title>
<path fill="none" stroke="midnightblue" d="M789,-112.37C789,-94.62 789,-53.67 789,-29.6"/>
<polygon fill="midnightblue" stroke="midnightblue" points="792.5,-29.59 789,-19.59 785.5,-29.59 792.5,-29.59"/>
</g>
<!-- Node15&#45;&gt;Node6 -->
<g id="edge21" class="edge">
<title>Node15&#45;&gt;Node6</title>
<path fill="none" stroke="midnightblue" d="M1089.84,-112.44C1054.26,-99.86 985.63,-75.75 927,-56 890.63,-43.75 848.69,-30.15 820.68,-21.14"/>
<polygon fill="midnightblue" stroke="midnightblue" points="821.62,-17.77 811.03,-18.04 819.48,-24.43 821.62,-17.77"/>
</g>
<!-- Node18&#45;&gt;Node5 -->
<g id="edge28" class="edge">
<title>Node18&#45;&gt;Node5</title>
<path fill="none" stroke="midnightblue" d="M1181.27,-113.1C1178.14,-112.72 1175.03,-112.35 1172,-112 1016.75,-94.26 832.48,-78.32 745.39,-71.1"/>
<polygon fill="midnightblue" stroke="midnightblue" points="745.51,-67.59 735.26,-70.26 744.94,-74.57 745.51,-67.59"/>
</g>
<!-- Node18&#45;&gt;Node11 -->
<g id="edge31" class="edge">
<title>Node18&#45;&gt;Node11</title>
<path fill="none" stroke="midnightblue" d="M1181.28,-113C1178.15,-112.65 1175.04,-112.31 1172,-112 938.87,-88.39 879.22,-98.74 646,-76 633.76,-74.81 620.37,-73.19 608.54,-71.66"/>
<polygon fill="midnightblue" stroke="midnightblue" points="609,-68.19 598.63,-70.34 608.08,-75.13 609,-68.19"/>
</g>
<!-- Node19 -->
<g id="node19" class="node">
<title>Node19</title>
<g id="a_node19"><a xlink:title=" ">
<polygon fill="white" stroke="#bfbfbf" points="1135,-56.5 1135,-75.5 1245,-75.5 1245,-56.5 1135,-56.5"/>
<text text-anchor="middle" x="1190" y="-63.5" font-family="Helvetica,sans-Serif" font-size="10.00">nlohmann/json.hpp</text>
</a>
</g>
</g>
<!-- Node18&#45;&gt;Node19 -->
<g id="edge29" class="edge">
<title>Node18&#45;&gt;Node19</title>
<path fill="none" stroke="midnightblue" d="M1230.91,-112.08C1223.84,-104.3 1213.41,-92.8 1204.85,-83.37"/>
<polygon fill="midnightblue" stroke="midnightblue" points="1207.25,-80.8 1197.94,-75.75 1202.07,-85.51 1207.25,-80.8"/>
</g>
<!-- Node20 -->
<g id="node20" class="node">
<title>Node20</title>
<g id="a_node20"><a xlink:title=" ">
<polygon fill="white" stroke="#bfbfbf" points="1263,-56.5 1263,-75.5 1313,-75.5 1313,-56.5 1263,-56.5"/>
<text text-anchor="middle" x="1288" y="-63.5" font-family="Helvetica,sans-Serif" font-size="10.00">chrono</text>
</a>
</g>
</g>
<!-- Node18&#45;&gt;Node20 -->
<g id="edge30" class="edge">
<title>Node18&#45;&gt;Node20</title>
<path fill="none" stroke="midnightblue" d="M1247.09,-112.08C1254.16,-104.3 1264.59,-92.8 1273.15,-83.37"/>
<polygon fill="midnightblue" stroke="midnightblue" points="1275.93,-85.51 1280.06,-75.75 1270.75,-80.8 1275.93,-85.51"/>
</g>
<!-- Node21&#45;&gt;Node2 -->
<g id="edge34" class="edge">
<title>Node21&#45;&gt;Node2</title>
<path fill="none" stroke="midnightblue" d="M506.59,-112.44C477.23,-103.28 430.48,-88.69 397.9,-78.52"/>
<polygon fill="midnightblue" stroke="midnightblue" points="398.87,-75.16 388.28,-75.52 396.79,-81.84 398.87,-75.16"/>
</g>
<!-- Node21&#45;&gt;Node5 -->
<g id="edge35" class="edge">
<title>Node21&#45;&gt;Node5</title>
<path fill="none" stroke="midnightblue" d="M559.51,-112.44C586.6,-103.36 629.59,-88.94 659.87,-78.78"/>
<polygon fill="midnightblue" stroke="midnightblue" points="661.24,-82.01 669.61,-75.52 659.01,-75.38 661.24,-82.01"/>
</g>
<!-- Node21&#45;&gt;Node7 -->
<g id="edge37" class="edge">
<title>Node21&#45;&gt;Node7</title>
<path fill="none" stroke="midnightblue" d="M533.11,-112.28C532.21,-99.09 532.2,-73.7 543,-56 551.25,-42.47 565.28,-31.93 578.1,-24.46"/>
<polygon fill="midnightblue" stroke="midnightblue" points="580,-27.41 587.12,-19.56 576.66,-21.25 580,-27.41"/>
</g>
<!-- Node21&#45;&gt;Node8 -->
<g id="edge38" class="edge">
<title>Node21&#45;&gt;Node8</title>
<path fill="none" stroke="midnightblue" d="M525.45,-112.14C512.78,-99.2 488.02,-74.64 465,-56 451.35,-44.95 435.11,-33.71 422.28,-25.22"/>
<polygon fill="midnightblue" stroke="midnightblue" points="423.91,-22.11 413.62,-19.57 420.08,-27.97 423.91,-22.11"/>
</g>
<!-- Node21&#45;&gt;Node12 -->
<g id="edge36" class="edge">
<title>Node21&#45;&gt;Node12</title>
<path fill="none" stroke="midnightblue" d="M518.9,-112.32C504.1,-103.82 481.31,-90.73 464.02,-80.8"/>
<polygon fill="midnightblue" stroke="midnightblue" points="465.48,-77.6 455.07,-75.65 461.99,-83.67 465.48,-77.6"/>
</g>
<!-- Node22&#45;&gt;Node2 -->
<g id="edge41" class="edge">
<title>Node22&#45;&gt;Node2</title>
<path fill="none" stroke="midnightblue" d="M362.18,-224.5C349.39,-204.75 320.92,-154.26 333,-112 335.9,-101.84 341.83,-91.75 347.49,-83.7"/>
<polygon fill="midnightblue" stroke="midnightblue" points="350.38,-85.69 353.59,-75.59 344.78,-81.48 350.38,-85.69"/>
</g>
<!-- Node22&#45;&gt;Node3 -->
<g id="edge40" class="edge">
<title>Node22&#45;&gt;Node3</title>
<path fill="none" stroke="midnightblue" d="M344.87,-224.44C320.52,-215.44 281.99,-201.19 254.58,-191.05"/>
<polygon fill="midnightblue" stroke="midnightblue" points="255.62,-187.7 245.03,-187.52 253.19,-194.27 255.62,-187.7"/>
</g>
<!-- Node22&#45;&gt;Node8 -->
<g id="edge42" class="edge">
<title>Node22&#45;&gt;Node8</title>
<path fill="none" stroke="midnightblue" d="M339.44,-231.19C283.65,-227.08 163,-215.21 133,-188 88.21,-147.37 60.54,-101.82 100,-56 133.21,-17.44 287.23,-11.45 360.74,-10.84"/>
<polygon fill="midnightblue" stroke="midnightblue" points="361,-14.33 370.98,-10.78 360.96,-7.33 361,-14.33"/>
</g>
<!-- Node22&#45;&gt;Node12 -->
<g id="edge44" class="edge">
<title>Node22&#45;&gt;Node12</title>
<path fill="none" stroke="midnightblue" d="M365.09,-224.37C358.6,-203.48 345.1,-149.18 366,-112 376.29,-93.7 397.36,-81.98 414.4,-75.1"/>
<polygon fill="midnightblue" stroke="midnightblue" points="415.69,-78.36 423.85,-71.6 413.26,-71.79 415.69,-78.36"/>
</g>
<!-- Node22&#45;&gt;Node17 -->
<g id="edge43" class="edge">
<title>Node22&#45;&gt;Node17</title>
<path fill="none" stroke="midnightblue" d="M370.99,-224.46C374.06,-215.47 378.82,-200.87 382,-188 385.79,-172.66 388.97,-155.02 391.11,-141.99"/>
<polygon fill="midnightblue" stroke="midnightblue" points="394.6,-142.33 392.7,-131.9 387.68,-141.23 394.6,-142.33"/>
</g>
<!-- Node22&#45;&gt;Node23 -->
<g id="edge45" class="edge">
<title>Node22&#45;&gt;Node23</title>
<path fill="none" stroke="midnightblue" d="M381.17,-224.32C393.85,-215.98 413.23,-203.21 428.21,-193.35"/>
<polygon fill="midnightblue" stroke="midnightblue" points="430.43,-196.08 436.86,-187.65 426.58,-190.23 430.43,-196.08"/>
</g>
</g>
</svg>
        <g id="navigator" transform="translate(0 0)" fill="#404254">
                <rect fill="#f2f5e9" fill-opacity="0.5" stroke="#606060" stroke-width=".5" x="0" y="0" width="60" height="60"/>
                <use id="zoomplus" xlink:href="#zoomPlus" x="17" y="9" onmousedown="handleZoom(evt,'in')"/>
                <use id="zoomminus" xlink:href="#zoomMin" x="42" y="9" onmousedown="handleZoom(evt,'out')"/>
                <use id="reset" xlink:href="#resetDef" x="30" y="36" onmousedown="handleReset()"/>
                <g id="arrowUp" xlink:href="#dirArrow" transform="translate(30 24)" onmousedown="handlePan(0,-1)">
                  <use xlink:href="#rim" fill="#404040">
                        <set attributeName="fill" to="#808080" begin="arrowUp.mouseover" end="arrowUp.mouseout"/>
                  </use>
                  <path fill="none" stroke="white" stroke-width="1.5" d="M0,-3.0v7 M-2.5,-0.5L0,-3.0L2.5,-0.5"/>
                </g>
                <g id="arrowRight" xlink:href="#dirArrow" transform="rotate(90) translate(36 -43)" onmousedown="handlePan(1,0)">
                  <use xlink:href="#rim" fill="#404040">
                        <set attributeName="fill" to="#808080" begin="arrowRight.mouseover" end="arrowRight.mouseout"/>
                  </use>
                  <path fill="none" stroke="white" stroke-width="1.5" d="M0,-3.0v7 M-2.5,-0.5L0,-3.0L2.5,-0.5"/>
                </g>
                <g id="arrowDown" xlink:href="#dirArrow" transform="rotate(180) translate(-30 -48)" onmousedown="handlePan(0,1)">
                  <use xlink:href="#rim" fill="#404040">
                        <set attributeName="fill" to="#808080" begin="arrowDown.mouseover" end="arrowDown.mouseout"/>
                  </use>
                  <path fill="none" stroke="white" stroke-width="1.5" d="M0,-3.0v7 M-2.5,-0.5L0,-3.0L2.5,-0.5"/>
                </g>
                <g id="arrowLeft" xlink:href="#dirArrow" transform="rotate(270) translate(-36 17)" onmousedown="handlePan(-1,0)">
                  <use xlink:href="#rim" fill="#404040">
                        <set attributeName="fill" to="#808080" begin="arrowLeft.mouseover" end="arrowLeft.mouseout"/>
                  </use>
                  <path fill="none" stroke="white" stroke-width="1.5" d="M0,-3.0v7 M-2.5,-0.5L0,-3.0L2.5,-0.5"/>
                </g>
        </g>
        <svg viewBox="0 0 15 15" width="100%" height="30px" preserveAspectRatio="xMaxYMin meet">
         <g id="arrow_out" transform="scale(0.3 0.3)">
          <a xlink:href="DirectOptimizer_8h__incl_org.svg" target="_base">
           <rect id="button" ry="5" rx="5" y="6" x="6" height="38" width="38"
                fill="#f2f5e9" fill-opacity="0.5" stroke="#606060" stroke-width="1.0"/>
           <path id="arrow"
             d="M 11.500037,31.436501 C 11.940474,20.09759 22.043105,11.32322 32.158766,21.979434 L 37.068811,17.246167 C 37.068811,17.246167 37.088388,32 37.088388,32 L 22.160133,31.978069 C 22.160133,31.978069 26.997745,27.140456 26.997745,27.140456 C 18.528582,18.264221 13.291696,25.230495 11.500037,31.436501 z"
             style="fill:#404040;"/>
          </a>
         </g>
        </svg>
</svg>
