<?xml version="1.0" encoding="UTF-8" standalone="no"?>
<!DOCTYPE svg PUBLIC "-//W3C//DTD SVG 1.1//EN"
 "http://www.w3.org/Graphics/SVG/1.1/DTD/svg11.dtd">
<!-- Generated by graphviz version 2.43.0 (0)
 -->
<!-- Title: src/optimizer/direct/DirectComparisonFunctions.h Pages: 1 -->
<svg width="344pt" height="240pt"
 viewBox="0.00 0.00 344.00 240.00" xmlns="http://www.w3.org/2000/svg" xmlns:xlink="http://www.w3.org/1999/xlink">
<g id="graph0" class="graph" transform="scale(1 1) rotate(0) translate(4 236)">
<title>src/optimizer/direct/DirectComparisonFunctions.h</title>
<polygon fill="white" stroke="transparent" points="-4,4 -4,-236 340,-236 340,4 -4,4"/>
<!-- Node1 -->
<g id="node1" class="node">
<title>Node1</title>
<g id="a_node1"><a xlink:title="In this file, comparison functions are defined which are used in the direct module.">
<polygon fill="#bfbfbf" stroke="black" points="112,-201.5 112,-231.5 275,-231.5 275,-201.5 112,-201.5"/>
<text text-anchor="start" x="120" y="-219.5" font-family="Helvetica,sans-Serif" font-size="10.00">src/optimizer/direct</text>
<text text-anchor="middle" x="193.5" y="-208.5" font-family="Helvetica,sans-Serif" font-size="10.00">/DirectComparisonFunctions.h</text>
</a>
</g>
</g>
<!-- Node2 -->
<g id="node2" class="node">
<title>Node2</title>
<g id="a_node2"><a xlink:href="DirectOptimizer_8h.xhtml" target="_top" xlink:title="In this file, the header of the DirectOptimizer class is defined.">
<polygon fill="white" stroke="black" points="96,-67.5 96,-97.5 207,-97.5 207,-67.5 96,-67.5"/>
<text text-anchor="start" x="104" y="-85.5" font-family="Helvetica,sans-Serif" font-size="10.00">src/optimizer/direct</text>
<text text-anchor="middle" x="151.5" y="-74.5" font-family="Helvetica,sans-Serif" font-size="10.00">/DirectOptimizer.h</text>
</a>
</g>
</g>
<!-- Node1&#45;&gt;Node2 -->
<g id="edge1" class="edge">
<title>Node1&#45;&gt;Node2</title>
<path fill="none" stroke="midnightblue" d="M182.27,-191.98C178.52,-183.59 174.54,-173.99 171.5,-165 163.67,-141.81 157.5,-113.96 154.19,-97.55"/>
<polygon fill="midnightblue" stroke="midnightblue" points="179.13,-193.54 186.48,-201.17 185.49,-190.62 179.13,-193.54"/>
</g>
<!-- Node5 -->
<g id="node5" class="node">
<title>Node5</title>
<g id="a_node5"><a xlink:href="Levels_8h.xhtml" target="_top" xlink:title="In this file, the header of the Levels class is defined.">
<polygon fill="white" stroke="black" points="180,-134.5 180,-164.5 291,-164.5 291,-134.5 180,-134.5"/>
<text text-anchor="start" x="188" y="-152.5" font-family="Helvetica,sans-Serif" font-size="10.00">src/optimizer/direct</text>
<text text-anchor="middle" x="235.5" y="-141.5" font-family="Helvetica,sans-Serif" font-size="10.00">/Levels.h</text>
</a>
</g>
</g>
<!-- Node1&#45;&gt;Node5 -->
<g id="edge4" class="edge">
<title>Node1&#45;&gt;Node5</title>
<path fill="none" stroke="midnightblue" d="M208.12,-192.87C214.2,-183.46 221.07,-172.83 226.4,-164.58"/>
<polygon fill="midnightblue" stroke="midnightblue" points="205.1,-191.1 202.61,-201.4 210.98,-194.9 205.1,-191.1"/>
</g>
<!-- Node3 -->
<g id="node3" class="node">
<title>Node3</title>
<g id="a_node3"><a xlink:href="Controller_8cpp.xhtml" target="_top" xlink:title="In this file, the implementation of the Controller class is defined.">
<polygon fill="white" stroke="black" points="0,-6 0,-25 151,-25 151,-6 0,-6"/>
<text text-anchor="middle" x="75.5" y="-13" font-family="Helvetica,sans-Serif" font-size="10.00">src/controller/Controller.cpp</text>
</a>
</g>
</g>
<!-- Node2&#45;&gt;Node3 -->
<g id="edge2" class="edge">
<title>Node2&#45;&gt;Node3</title>
<path fill="none" stroke="midnightblue" d="M127.15,-60.67C113.11,-48.67 96.22,-34.22 85.67,-25.19"/>
<polygon fill="midnightblue" stroke="midnightblue" points="125.13,-63.56 135.01,-67.4 129.68,-58.24 125.13,-63.56"/>
</g>
<!-- Node4 -->
<g id="node4" class="node">
<title>Node4</title>
<g id="a_node4"><a xlink:href="DirectOptimizer_8cpp.xhtml" target="_top" xlink:title="In this file, the implementation of the DirectOptimizer class is defined.">
<polygon fill="white" stroke="black" points="169.5,-0.5 169.5,-30.5 285.5,-30.5 285.5,-0.5 169.5,-0.5"/>
<text text-anchor="start" x="177.5" y="-18.5" font-family="Helvetica,sans-Serif" font-size="10.00">src/optimizer/direct</text>
<text text-anchor="middle" x="227.5" y="-7.5" font-family="Helvetica,sans-Serif" font-size="10.00">/DirectOptimizer.cpp</text>
</a>
</g>
</g>
<!-- Node2&#45;&gt;Node4 -->
<g id="edge3" class="edge">
<title>Node2&#45;&gt;Node4</title>
<path fill="none" stroke="midnightblue" d="M175.61,-60.88C187.16,-51.01 200.69,-39.43 211.04,-30.58"/>
<polygon fill="midnightblue" stroke="midnightblue" points="173.32,-58.24 167.99,-67.4 177.87,-63.56 173.32,-58.24"/>
</g>
<!-- Node5&#45;&gt;Node2 -->
<g id="edge5" class="edge">
<title>Node5&#45;&gt;Node2</title>
<path fill="none" stroke="midnightblue" d="M209.22,-128.17C196.38,-118.23 181.24,-106.51 169.69,-97.58"/>
<polygon fill="midnightblue" stroke="midnightblue" points="207.22,-131.04 217.27,-134.4 211.51,-125.51 207.22,-131.04"/>
</g>
<!-- Node6 -->
<g id="node6" class="node">
<title>Node6</title>
<g id="a_node6"><a xlink:href="Levels_8cpp.xhtml" target="_top" xlink:title="In this file, the implementation of the Levels class is defined.">
<polygon fill="white" stroke="black" points="225,-67.5 225,-97.5 336,-97.5 336,-67.5 225,-67.5"/>
<text text-anchor="start" x="233" y="-85.5" font-family="Helvetica,sans-Serif" font-size="10.00">src/optimizer/direct</text>
<text text-anchor="middle" x="280.5" y="-74.5" font-family="Helvetica,sans-Serif" font-size="10.00">/Levels.cpp</text>
</a>
</g>
</g>
<!-- Node5&#45;&gt;Node6 -->
<g id="edge6" class="edge">
<title>Node5&#45;&gt;Node6</title>
<path fill="none" stroke="midnightblue" d="M250.97,-126.16C257.53,-116.68 264.98,-105.92 270.75,-97.58"/>
<polygon fill="midnightblue" stroke="midnightblue" points="248.08,-124.18 245.26,-134.4 253.83,-128.17 248.08,-124.18"/>
</g>
</g>
</svg>
