<?xml version="1.0" encoding="UTF-8" standalone="no"?>
<!DOCTYPE svg PUBLIC "-//W3C//DTD SVG 1.1//EN"
 "http://www.w3.org/Graphics/SVG/1.1/DTD/svg11.dtd">
<!-- Generated by graphviz version 2.43.0 (0)
 -->
<!-- Title: /home/runner/work/Simopticon/Simopticon/src/optimizer/direct/DirectComparisonFunctions.h Pages: 1 -->
<svg width="452pt" height="284pt"
 viewBox="0.00 0.00 452.00 284.00" xmlns="http://www.w3.org/2000/svg" xmlns:xlink="http://www.w3.org/1999/xlink">
<g id="graph0" class="graph" transform="scale(1 1) rotate(0) translate(4 280)">
<title>/home/runner/work/Simopticon/Simopticon/src/optimizer/direct/DirectComparisonFunctions.h</title>
<polygon fill="white" stroke="transparent" points="-4,4 -4,-280 448,-280 448,4 -4,4"/>
<!-- Node1 -->
<g id="node1" class="node">
<title>Node1</title>
<g id="a_node1"><a xlink:title="In this file, comparison functions are defined which are used in the direct module.">
<polygon fill="#bfbfbf" stroke="black" points="133.5,-234.5 133.5,-275.5 327.5,-275.5 327.5,-234.5 133.5,-234.5"/>
<text text-anchor="start" x="141.5" y="-263.5" font-family="Helvetica,sans-Serif" font-size="10.00">/home/runner/work/Simopticon</text>
<text text-anchor="start" x="141.5" y="-252.5" font-family="Helvetica,sans-Serif" font-size="10.00">/Simopticon/src/optimizer</text>
<text text-anchor="middle" x="230.5" y="-241.5" font-family="Helvetica,sans-Serif" font-size="10.00">/direct/DirectComparisonFunctions.h</text>
</a>
</g>
</g>
<!-- Node2 -->
<g id="node2" class="node">
<title>Node2</title>
<g id="a_node2"><a xlink:href="DirectOptimizer_8h.xhtml" target="_top" xlink:title="In this file, the header of the DirectOptimizer class is defined.">
<polygon fill="white" stroke="black" points="92,-78.5 92,-119.5 259,-119.5 259,-78.5 92,-78.5"/>
<text text-anchor="start" x="100" y="-107.5" font-family="Helvetica,sans-Serif" font-size="10.00">/home/runner/work/Simopticon</text>
<text text-anchor="start" x="100" y="-96.5" font-family="Helvetica,sans-Serif" font-size="10.00">/Simopticon/src/optimizer</text>
<text text-anchor="middle" x="175.5" y="-85.5" font-family="Helvetica,sans-Serif" font-size="10.00">/direct/DirectOptimizer.h</text>
</a>
</g>
</g>
<!-- Node1&#45;&gt;Node2 -->
<g id="edge1" class="edge">
<title>Node1&#45;&gt;Node2</title>
<path fill="none" stroke="midnightblue" d="M209.43,-225.81C203.85,-217.24 198.33,-207.55 194.5,-198 184.11,-172.1 179.28,-140.02 177.12,-119.77"/>
<polygon fill="midnightblue" stroke="midnightblue" points="206.67,-227.97 215.19,-234.28 212.46,-224.04 206.67,-227.97"/>
</g>
<!-- Node5 -->
<g id="node5" class="node">
<title>Node5</title>
<g id="a_node5"><a xlink:href="Levels_8h.xhtml" target="_top" xlink:title="In this file, the header of the Levels class is defined.">
<polygon fill="white" stroke="black" points="203,-156.5 203,-197.5 370,-197.5 370,-156.5 203,-156.5"/>
<text text-anchor="start" x="211" y="-185.5" font-family="Helvetica,sans-Serif" font-size="10.00">/home/runner/work/Simopticon</text>
<text text-anchor="start" x="211" y="-174.5" font-family="Helvetica,sans-Serif" font-size="10.00">/Simopticon/src/optimizer</text>
<text text-anchor="middle" x="286.5" y="-163.5" font-family="Helvetica,sans-Serif" font-size="10.00">/direct/Levels.h</text>
</a>
</g>
</g>
<!-- Node1&#45;&gt;Node5 -->
<g id="edge4" class="edge">
<title>Node1&#45;&gt;Node5</title>
<path fill="none" stroke="midnightblue" d="M250.88,-226.34C257.93,-216.78 265.67,-206.27 272.13,-197.51"/>
<polygon fill="midnightblue" stroke="midnightblue" points="248.04,-224.3 244.92,-234.43 253.67,-228.45 248.04,-224.3"/>
</g>
<!-- Node3 -->
<g id="node3" class="node">
<title>Node3</title>
<g id="a_node3"><a xlink:href="Controller_8cpp.xhtml" target="_top" xlink:title="In this file, the implementation of the Controller class is defined.">
<polygon fill="white" stroke="black" points="0,-0.5 0,-41.5 167,-41.5 167,-0.5 0,-0.5"/>
<text text-anchor="start" x="8" y="-29.5" font-family="Helvetica,sans-Serif" font-size="10.00">/home/runner/work/Simopticon</text>
<text text-anchor="start" x="8" y="-18.5" font-family="Helvetica,sans-Serif" font-size="10.00">/Simopticon/src/controller</text>
<text text-anchor="middle" x="83.5" y="-7.5" font-family="Helvetica,sans-Serif" font-size="10.00">/Controller.cpp</text>
</a>
</g>
</g>
<!-- Node2&#45;&gt;Node3 -->
<g id="edge2" class="edge">
<title>Node2&#45;&gt;Node3</title>
<path fill="none" stroke="midnightblue" d="M143.76,-71.78C131.73,-61.84 118.26,-50.72 107.11,-41.51"/>
<polygon fill="midnightblue" stroke="midnightblue" points="141.87,-74.76 151.81,-78.43 146.33,-69.36 141.87,-74.76"/>
</g>
<!-- Node4 -->
<g id="node4" class="node">
<title>Node4</title>
<g id="a_node4"><a xlink:href="DirectOptimizer_8cpp.xhtml" target="_top" xlink:title="In this file, the implementation of the DirectOptimizer class is defined.">
<polygon fill="white" stroke="black" points="185,-0.5 185,-41.5 352,-41.5 352,-0.5 185,-0.5"/>
<text text-anchor="start" x="193" y="-29.5" font-family="Helvetica,sans-Serif" font-size="10.00">/home/runner/work/Simopticon</text>
<text text-anchor="start" x="193" y="-18.5" font-family="Helvetica,sans-Serif" font-size="10.00">/Simopticon/src/optimizer</text>
<text text-anchor="middle" x="268.5" y="-7.5" font-family="Helvetica,sans-Serif" font-size="10.00">/direct/DirectOptimizer.cpp</text>
</a>
</g>
</g>
<!-- Node2&#45;&gt;Node4 -->
<g id="edge3" class="edge">
<title>Node2&#45;&gt;Node4</title>
<path fill="none" stroke="midnightblue" d="M207.24,-72.06C219.48,-62.06 233.25,-50.8 244.63,-41.51"/>
<polygon fill="midnightblue" stroke="midnightblue" points="204.98,-69.39 199.45,-78.43 209.41,-74.81 204.98,-69.39"/>
</g>
<!-- Node5&#45;&gt;Node2 -->
<g id="edge5" class="edge">
<title>Node5&#45;&gt;Node2</title>
<path fill="none" stroke="midnightblue" d="M249.45,-150.64C234.63,-140.49 217.83,-128.98 203.99,-119.51"/>
<polygon fill="midnightblue" stroke="midnightblue" points="247.69,-153.67 257.91,-156.43 251.64,-147.89 247.69,-153.67"/>
</g>
<!-- Node6 -->
<g id="node6" class="node">
<title>Node6</title>
<g id="a_node6"><a xlink:href="Levels_8cpp.xhtml" target="_top" xlink:title="In this file, the implementation of the Levels class is defined.">
<polygon fill="white" stroke="black" points="277,-78.5 277,-119.5 444,-119.5 444,-78.5 277,-78.5"/>
<text text-anchor="start" x="285" y="-107.5" font-family="Helvetica,sans-Serif" font-size="10.00">/home/runner/work/Simopticon</text>
<text text-anchor="start" x="285" y="-96.5" font-family="Helvetica,sans-Serif" font-size="10.00">/Simopticon/src/optimizer</text>
<text text-anchor="middle" x="360.5" y="-85.5" font-family="Helvetica,sans-Serif" font-size="10.00">/direct/Levels.cpp</text>
</a>
</g>
</g>
<!-- Node5&#45;&gt;Node6 -->
<g id="edge6" class="edge">
<title>Node5&#45;&gt;Node6</title>
<path fill="none" stroke="midnightblue" d="M312.59,-149.2C322.12,-139.42 332.71,-128.54 341.51,-119.51"/>
<polygon fill="midnightblue" stroke="midnightblue" points="310.03,-146.82 305.56,-156.43 315.04,-151.71 310.03,-146.82"/>
</g>
</g>
</svg>
