<?xml version="1.0" encoding="UTF-8" standalone="no"?>
<!DOCTYPE svg PUBLIC "-//W3C//DTD SVG 1.1//EN"
 "http://www.w3.org/Graphics/SVG/1.1/DTD/svg11.dtd">
<!-- Generated by graphviz version 2.43.0 (0)
 -->
<!-- Title: src/optimizer/direct/DirectTypes.h Pages: 1 -->
<svg width="1246pt" height="374pt"
 viewBox="0.00 0.00 1245.68 374.00" xmlns="http://www.w3.org/2000/svg" xmlns:xlink="http://www.w3.org/1999/xlink">
<g id="graph0" class="graph" transform="scale(1 1) rotate(0) translate(4 370)">
<title>src/optimizer/direct/DirectTypes.h</title>
<polygon fill="white" stroke="transparent" points="-4,4 -4,-370 1241.68,-370 1241.68,4 -4,4"/>
<!-- Node1 -->
<g id="node1" class="node">
<title>Node1</title>
<g id="a_node1"><a xlink:title="In this file, types are defined which are used in the direct module.">
<polygon fill="#bfbfbf" stroke="black" points="600.14,-335.5 600.14,-365.5 711.14,-365.5 711.14,-335.5 600.14,-335.5"/>
<text text-anchor="start" x="608.14" y="-353.5" font-family="Helvetica,sans-Serif" font-size="10.00">src/optimizer/direct</text>
<text text-anchor="middle" x="655.64" y="-342.5" font-family="Helvetica,sans-Serif" font-size="10.00">/DirectTypes.h</text>
</a>
</g>
</g>
<!-- Node2 -->
<g id="node2" class="node">
<title>Node2</title>
<g id="a_node2"><a xlink:href="StubController_8h.xhtml" target="_top" xlink:title="In this file, the header of the StubController class is defined.">
<polygon fill="white" stroke="black" points="46.14,-274 46.14,-293 207.14,-293 207.14,-274 46.14,-274"/>
<text text-anchor="middle" x="126.64" y="-281" font-family="Helvetica,sans-Serif" font-size="10.00">src/controller/StubController.h</text>
</a>
</g>
</g>
<!-- Node1&#45;&gt;Node2 -->
<g id="edge1" class="edge">
<title>Node1&#45;&gt;Node2</title>
<path fill="none" stroke="midnightblue" d="M590.01,-341.44C489.59,-329.1 298.69,-305.64 196.05,-293.03"/>
<polygon fill="midnightblue" stroke="midnightblue" points="589.68,-344.92 600.03,-342.67 590.53,-337.97 589.68,-344.92"/>
</g>
<!-- Node6 -->
<g id="node6" class="node">
<title>Node6</title>
<g id="a_node6"><a xlink:href="DirectOptimizer_8h.xhtml" target="_top" xlink:title="In this file, the header of the DirectOptimizer class is defined.">
<polygon fill="white" stroke="black" points="510.14,-67.5 510.14,-97.5 621.14,-97.5 621.14,-67.5 510.14,-67.5"/>
<text text-anchor="start" x="518.14" y="-85.5" font-family="Helvetica,sans-Serif" font-size="10.00">src/optimizer/direct</text>
<text text-anchor="middle" x="565.64" y="-74.5" font-family="Helvetica,sans-Serif" font-size="10.00">/DirectOptimizer.h</text>
</a>
</g>
</g>
<!-- Node1&#45;&gt;Node6 -->
<g id="edge5" class="edge">
<title>Node1&#45;&gt;Node6</title>
<path fill="none" stroke="midnightblue" d="M721.3,-346.05C831.66,-339.65 1049.37,-324.22 1121.64,-299 1182.22,-277.86 1265.53,-252.78 1227.64,-201 1156.3,-103.5 767.5,-86.85 621.28,-84.05"/>
<polygon fill="midnightblue" stroke="midnightblue" points="721.07,-342.56 711.29,-346.63 721.47,-349.55 721.07,-342.56"/>
</g>
<!-- Node8 -->
<g id="node8" class="node">
<title>Node8</title>
<g id="a_node8"><a xlink:href="HyRect_8h.xhtml" target="_top" xlink:title="In this file, the header of the HyRect class is defined.">
<polygon fill="white" stroke="black" points="600.14,-268.5 600.14,-298.5 711.14,-298.5 711.14,-268.5 600.14,-268.5"/>
<text text-anchor="start" x="608.14" y="-286.5" font-family="Helvetica,sans-Serif" font-size="10.00">src/optimizer/direct</text>
<text text-anchor="middle" x="655.64" y="-275.5" font-family="Helvetica,sans-Serif" font-size="10.00">/hyrect/HyRect.h</text>
</a>
</g>
</g>
<!-- Node1&#45;&gt;Node8 -->
<g id="edge8" class="edge">
<title>Node1&#45;&gt;Node8</title>
<path fill="none" stroke="midnightblue" d="M655.64,-325.11C655.64,-316.15 655.64,-306.32 655.64,-298.58"/>
<polygon fill="midnightblue" stroke="midnightblue" points="652.14,-325.4 655.64,-335.4 659.14,-325.4 652.14,-325.4"/>
</g>
<!-- Node10 -->
<g id="node10" class="node">
<title>Node10</title>
<g id="a_node10"><a xlink:href="Levels_8h.xhtml" target="_top" xlink:title="In this file, the header of the Levels class is defined.">
<polygon fill="white" stroke="black" points="385.14,-134.5 385.14,-164.5 496.14,-164.5 496.14,-134.5 385.14,-134.5"/>
<text text-anchor="start" x="393.14" y="-152.5" font-family="Helvetica,sans-Serif" font-size="10.00">src/optimizer/direct</text>
<text text-anchor="middle" x="440.64" y="-141.5" font-family="Helvetica,sans-Serif" font-size="10.00">/Levels.h</text>
</a>
</g>
</g>
<!-- Node1&#45;&gt;Node10 -->
<g id="edge27" class="edge">
<title>Node1&#45;&gt;Node10</title>
<path fill="none" stroke="midnightblue" d="M589.8,-343.02C521.9,-332.43 419.28,-304.66 370.64,-232 362.98,-220.55 364.37,-213.27 370.64,-201 378.83,-184.99 394.73,-172.89 409.3,-164.56"/>
<polygon fill="midnightblue" stroke="midnightblue" points="589.57,-346.52 599.97,-344.52 590.59,-339.6 589.57,-346.52"/>
</g>
<!-- Node18 -->
<g id="node18" class="node">
<title>Node18</title>
<g id="a_node18"><a xlink:href="ParameterNormalizer_8h.xhtml" target="_top" xlink:title="In this file, the header of the ParameterNormalizer class is defined.">
<polygon fill="white" stroke="black" points="980.64,-268.5 980.64,-298.5 1112.64,-298.5 1112.64,-268.5 980.64,-268.5"/>
<text text-anchor="start" x="988.64" y="-286.5" font-family="Helvetica,sans-Serif" font-size="10.00">src/optimizer/direct</text>
<text text-anchor="middle" x="1046.64" y="-275.5" font-family="Helvetica,sans-Serif" font-size="10.00">/ParameterNormalizer.h</text>
</a>
</g>
</g>
<!-- Node1&#45;&gt;Node18 -->
<g id="edge24" class="edge">
<title>Node1&#45;&gt;Node18</title>
<path fill="none" stroke="midnightblue" d="M721.11,-338.62C793.11,-326.65 908.16,-307.52 980.45,-295.5"/>
<polygon fill="midnightblue" stroke="midnightblue" points="720.54,-335.16 711.25,-340.26 721.69,-342.07 720.54,-335.16"/>
</g>
<!-- Node3 -->
<g id="node3" class="node">
<title>Node3</title>
<g id="a_node3"><a xlink:href="StubController_8cpp.xhtml" target="_top" xlink:title="In this file, the implementation of the StubController class is defined.">
<polygon fill="white" stroke="black" points="112.14,-207 112.14,-226 285.14,-226 285.14,-207 112.14,-207"/>
<text text-anchor="middle" x="198.64" y="-214" font-family="Helvetica,sans-Serif" font-size="10.00">src/controller/StubController.cpp</text>
</a>
</g>
</g>
<!-- Node2&#45;&gt;Node3 -->
<g id="edge2" class="edge">
<title>Node2&#45;&gt;Node3</title>
<path fill="none" stroke="midnightblue" d="M143.97,-266.86C158.13,-254.08 177.61,-236.49 189.09,-226.13"/>
<polygon fill="midnightblue" stroke="midnightblue" points="141.43,-264.43 136.35,-273.73 146.12,-269.63 141.43,-264.43"/>
</g>
<!-- Node4 -->
<g id="node4" class="node">
<title>Node4</title>
<g id="a_node4"><a xlink:href="Controller_8cpp.xhtml" target="_top" xlink:title="In this file, the implementation of the Controller class is defined.">
<polygon fill="white" stroke="black" points="307.14,-6 307.14,-25 458.14,-25 458.14,-6 307.14,-6"/>
<text text-anchor="middle" x="382.64" y="-13" font-family="Helvetica,sans-Serif" font-size="10.00">src/controller/Controller.cpp</text>
</a>
</g>
</g>
<!-- Node2&#45;&gt;Node4 -->
<g id="edge3" class="edge">
<title>Node2&#45;&gt;Node4</title>
<path fill="none" stroke="midnightblue" d="M62.99,-271C41.05,-263.65 18.73,-251.64 5.64,-232 -2,-220.53 -1.65,-212.69 5.64,-201 76.71,-87.09 240.77,-41.58 327.15,-25.01"/>
<polygon fill="midnightblue" stroke="midnightblue" points="62.09,-274.38 72.68,-273.96 64.14,-267.69 62.09,-274.38"/>
</g>
<!-- Node5 -->
<g id="node5" class="node">
<title>Node5</title>
<g id="a_node5"><a xlink:href="main_8cpp.xhtml" target="_top" xlink:title="In this file, the main function running the Simopticon framework is defined.">
<polygon fill="white" stroke="black" points="15.14,-207 15.14,-226 94.14,-226 94.14,-207 15.14,-207"/>
<text text-anchor="middle" x="54.64" y="-214" font-family="Helvetica,sans-Serif" font-size="10.00">src/main.cpp</text>
</a>
</g>
</g>
<!-- Node2&#45;&gt;Node5 -->
<g id="edge4" class="edge">
<title>Node2&#45;&gt;Node5</title>
<path fill="none" stroke="midnightblue" d="M109.31,-266.86C95.16,-254.08 75.68,-236.49 64.2,-226.13"/>
<polygon fill="midnightblue" stroke="midnightblue" points="107.16,-269.63 116.93,-273.73 111.86,-264.43 107.16,-269.63"/>
</g>
<!-- Node6&#45;&gt;Node4 -->
<g id="edge6" class="edge">
<title>Node6&#45;&gt;Node4</title>
<path fill="none" stroke="midnightblue" d="M516.22,-63.95C480.68,-51.32 434.31,-34.85 406.59,-25.01"/>
<polygon fill="midnightblue" stroke="midnightblue" points="515.34,-67.35 525.93,-67.4 517.68,-60.75 515.34,-67.35"/>
</g>
<!-- Node7 -->
<g id="node7" class="node">
<title>Node7</title>
<g id="a_node7"><a xlink:href="DirectOptimizer_8cpp.xhtml" target="_top" xlink:title="In this file, the implementation of the DirectOptimizer class is defined.">
<polygon fill="white" stroke="black" points="689.64,-0.5 689.64,-30.5 805.64,-30.5 805.64,-0.5 689.64,-0.5"/>
<text text-anchor="start" x="697.64" y="-18.5" font-family="Helvetica,sans-Serif" font-size="10.00">src/optimizer/direct</text>
<text text-anchor="middle" x="747.64" y="-7.5" font-family="Helvetica,sans-Serif" font-size="10.00">/DirectOptimizer.cpp</text>
</a>
</g>
</g>
<!-- Node6&#45;&gt;Node7 -->
<g id="edge7" class="edge">
<title>Node6&#45;&gt;Node7</title>
<path fill="none" stroke="midnightblue" d="M614.77,-63.96C644.09,-53.48 680.82,-40.37 708.23,-30.58"/>
<polygon fill="midnightblue" stroke="midnightblue" points="613.37,-60.74 605.13,-67.4 615.73,-67.33 613.37,-60.74"/>
</g>
<!-- Node8&#45;&gt;Node6 -->
<g id="edge9" class="edge">
<title>Node8&#45;&gt;Node6</title>
<path fill="none" stroke="midnightblue" d="M620.68,-262.67C609.4,-254.58 597.94,-244.22 590.64,-232 564.63,-188.46 563.69,-125.63 564.75,-97.75"/>
<polygon fill="midnightblue" stroke="midnightblue" points="618.95,-265.72 629.2,-268.41 622.86,-259.92 618.95,-265.72"/>
</g>
<!-- Node9 -->
<g id="node9" class="node">
<title>Node9</title>
<g id="a_node9"><a xlink:href="DirectComparisonFunctions_8h.xhtml" target="_top" xlink:title="In this file, comparison functions are defined which are used in the direct module.">
<polygon fill="white" stroke="black" points="380.14,-201.5 380.14,-231.5 543.14,-231.5 543.14,-201.5 380.14,-201.5"/>
<text text-anchor="start" x="388.14" y="-219.5" font-family="Helvetica,sans-Serif" font-size="10.00">src/optimizer/direct</text>
<text text-anchor="middle" x="461.64" y="-208.5" font-family="Helvetica,sans-Serif" font-size="10.00">/DirectComparisonFunctions.h</text>
</a>
</g>
</g>
<!-- Node8&#45;&gt;Node9 -->
<g id="edge10" class="edge">
<title>Node8&#45;&gt;Node9</title>
<path fill="none" stroke="midnightblue" d="M603.69,-265.09C572.37,-254.6 533,-241.41 503.66,-231.58"/>
<polygon fill="midnightblue" stroke="midnightblue" points="602.95,-268.54 613.55,-268.4 605.18,-261.9 602.95,-268.54"/>
</g>
<!-- Node11 -->
<g id="node11" class="node">
<title>Node11</title>
<g id="a_node11"><a xlink:href="Levels_8cpp.xhtml" target="_top" xlink:title="In this file, the implementation of the Levels class is defined.">
<polygon fill="white" stroke="black" points="339.14,-67.5 339.14,-97.5 450.14,-97.5 450.14,-67.5 339.14,-67.5"/>
<text text-anchor="start" x="347.14" y="-85.5" font-family="Helvetica,sans-Serif" font-size="10.00">src/optimizer/direct</text>
<text text-anchor="middle" x="394.64" y="-74.5" font-family="Helvetica,sans-Serif" font-size="10.00">/Levels.cpp</text>
</a>
</g>
</g>
<!-- Node8&#45;&gt;Node11 -->
<g id="edge23" class="edge">
<title>Node8&#45;&gt;Node11</title>
<path fill="none" stroke="midnightblue" d="M589.74,-280.3C514.44,-276.23 398.05,-264.69 370.64,-232 337.76,-192.77 369.3,-126.57 385.89,-97.68"/>
<polygon fill="midnightblue" stroke="midnightblue" points="589.92,-283.81 600.08,-280.82 590.27,-276.82 589.92,-283.81"/>
</g>
<!-- Node12 -->
<g id="node12" class="node">
<title>Node12</title>
<g id="a_node12"><a xlink:href="BaseRect_8h.xhtml" target="_top" xlink:title="In this file, the header of the BaseRect class is defined.">
<polygon fill="white" stroke="black" points="897.14,-201.5 897.14,-231.5 1008.14,-231.5 1008.14,-201.5 897.14,-201.5"/>
<text text-anchor="start" x="905.14" y="-219.5" font-family="Helvetica,sans-Serif" font-size="10.00">src/optimizer/direct</text>
<text text-anchor="middle" x="952.64" y="-208.5" font-family="Helvetica,sans-Serif" font-size="10.00">/hyrect/BaseRect.h</text>
</a>
</g>
</g>
<!-- Node8&#45;&gt;Node12 -->
<g id="edge15" class="edge">
<title>Node8&#45;&gt;Node12</title>
<path fill="none" stroke="midnightblue" d="M721.07,-268.18C773.75,-256.65 846.98,-240.62 896.9,-229.7"/>
<polygon fill="midnightblue" stroke="midnightblue" points="720.18,-264.79 711.16,-270.35 721.68,-271.63 720.18,-264.79"/>
</g>
<!-- Node14 -->
<g id="node14" class="node">
<title>Node14</title>
<g id="a_node14"><a xlink:href="GrahamScan_8cpp.xhtml" target="_top" xlink:title="In this file, the implementation of the GrahamScan class is defined.">
<polygon fill="white" stroke="black" points="729.14,-201.5 729.14,-231.5 840.14,-231.5 840.14,-201.5 729.14,-201.5"/>
<text text-anchor="start" x="737.14" y="-219.5" font-family="Helvetica,sans-Serif" font-size="10.00">src/optimizer/direct</text>
<text text-anchor="middle" x="784.64" y="-208.5" font-family="Helvetica,sans-Serif" font-size="10.00">/GrahamScan.cpp</text>
</a>
</g>
</g>
<!-- Node8&#45;&gt;Node14 -->
<g id="edge18" class="edge">
<title>Node8&#45;&gt;Node14</title>
<path fill="none" stroke="midnightblue" d="M692.65,-263.85C713.05,-253.58 737.95,-241.03 756.71,-231.58"/>
<polygon fill="midnightblue" stroke="midnightblue" points="690.99,-260.77 683.63,-268.4 694.14,-267.02 690.99,-260.77"/>
</g>
<!-- Node15 -->
<g id="node15" class="node">
<title>Node15</title>
<g id="a_node15"><a xlink:href="HyRect_8cpp.xhtml" target="_top" xlink:title="In this file, the implementation of the HyRect class is defined.">
<polygon fill="white" stroke="black" points="732.14,-134.5 732.14,-164.5 843.14,-164.5 843.14,-134.5 732.14,-134.5"/>
<text text-anchor="start" x="740.14" y="-152.5" font-family="Helvetica,sans-Serif" font-size="10.00">src/optimizer/direct</text>
<text text-anchor="middle" x="787.64" y="-141.5" font-family="Helvetica,sans-Serif" font-size="10.00">/hyrect/HyRect.cpp</text>
</a>
</g>
</g>
<!-- Node8&#45;&gt;Node15 -->
<g id="edge19" class="edge">
<title>Node8&#45;&gt;Node15</title>
<path fill="none" stroke="midnightblue" d="M721.53,-273.92C771.08,-265.96 833,-252.26 848.64,-232 866.68,-208.64 835.23,-181.07 811.17,-164.73"/>
<polygon fill="midnightblue" stroke="midnightblue" points="720.83,-270.49 711.49,-275.49 721.91,-277.41 720.83,-270.49"/>
</g>
<!-- Node16 -->
<g id="node16" class="node">
<title>Node16</title>
<g id="a_node16"><a xlink:href="ChildRect_8h.xhtml" target="_top" xlink:title="In this file, the header of the ChildRect class is defined.">
<polygon fill="white" stroke="black" points="600.14,-201.5 600.14,-231.5 711.14,-231.5 711.14,-201.5 600.14,-201.5"/>
<text text-anchor="start" x="608.14" y="-219.5" font-family="Helvetica,sans-Serif" font-size="10.00">src/optimizer/direct</text>
<text text-anchor="middle" x="655.64" y="-208.5" font-family="Helvetica,sans-Serif" font-size="10.00">/hyrect/ChildRect.h</text>
</a>
</g>
</g>
<!-- Node8&#45;&gt;Node16 -->
<g id="edge20" class="edge">
<title>Node8&#45;&gt;Node16</title>
<path fill="none" stroke="midnightblue" d="M655.64,-258.11C655.64,-249.15 655.64,-239.32 655.64,-231.58"/>
<polygon fill="midnightblue" stroke="midnightblue" points="652.14,-258.4 655.64,-268.4 659.14,-258.4 652.14,-258.4"/>
</g>
<!-- Node9&#45;&gt;Node6 -->
<g id="edge11" class="edge">
<title>Node9&#45;&gt;Node6</title>
<path fill="none" stroke="midnightblue" d="M480.86,-193.54C488.4,-184.77 497.05,-174.51 504.64,-165 523.17,-141.8 543.65,-113.95 555.54,-97.55"/>
<polygon fill="midnightblue" stroke="midnightblue" points="478.2,-191.26 474.31,-201.12 483.5,-195.84 478.2,-191.26"/>
</g>
<!-- Node9&#45;&gt;Node10 -->
<g id="edge12" class="edge">
<title>Node9&#45;&gt;Node10</title>
<path fill="none" stroke="midnightblue" d="M453.95,-191.7C451.01,-182.59 447.75,-172.49 445.19,-164.58"/>
<polygon fill="midnightblue" stroke="midnightblue" points="450.68,-192.96 457.09,-201.4 457.34,-190.8 450.68,-192.96"/>
</g>
<!-- Node10&#45;&gt;Node6 -->
<g id="edge13" class="edge">
<title>Node10&#45;&gt;Node6</title>
<path fill="none" stroke="midnightblue" d="M476.77,-129.71C496.48,-119.46 520.48,-106.98 538.57,-97.58"/>
<polygon fill="midnightblue" stroke="midnightblue" points="475.02,-126.68 467.77,-134.4 478.25,-132.89 475.02,-126.68"/>
</g>
<!-- Node10&#45;&gt;Node11 -->
<g id="edge14" class="edge">
<title>Node10&#45;&gt;Node11</title>
<path fill="none" stroke="midnightblue" d="M424.83,-126.16C418.12,-116.68 410.51,-105.92 404.6,-97.58"/>
<polygon fill="midnightblue" stroke="midnightblue" points="422.03,-128.26 430.66,-134.4 427.74,-124.21 422.03,-128.26"/>
</g>
<!-- Node12&#45;&gt;Node7 -->
<g id="edge16" class="edge">
<title>Node12&#45;&gt;Node7</title>
<path fill="none" stroke="midnightblue" d="M973.72,-193.63C987.36,-176.72 1000.55,-153.05 988.64,-134 948.86,-70.35 863.58,-40.27 805.9,-26.72"/>
<polygon fill="midnightblue" stroke="midnightblue" points="970.95,-191.47 967.09,-201.34 976.26,-196.04 970.95,-191.47"/>
</g>
<!-- Node13 -->
<g id="node13" class="node">
<title>Node13</title>
<g id="a_node13"><a xlink:href="BaseRect_8cpp.xhtml" target="_top" xlink:title="In this file, the implementation of the BaseRect class is defined.">
<polygon fill="white" stroke="black" points="861.14,-134.5 861.14,-164.5 980.14,-164.5 980.14,-134.5 861.14,-134.5"/>
<text text-anchor="start" x="869.14" y="-152.5" font-family="Helvetica,sans-Serif" font-size="10.00">src/optimizer/direct</text>
<text text-anchor="middle" x="920.64" y="-141.5" font-family="Helvetica,sans-Serif" font-size="10.00">/hyrect/BaseRect.cpp</text>
</a>
</g>
</g>
<!-- Node12&#45;&gt;Node13 -->
<g id="edge17" class="edge">
<title>Node12&#45;&gt;Node13</title>
<path fill="none" stroke="midnightblue" d="M941.21,-192.28C936.65,-183.02 931.55,-172.66 927.57,-164.58"/>
<polygon fill="midnightblue" stroke="midnightblue" points="938.14,-193.97 945.7,-201.4 944.42,-190.88 938.14,-193.97"/>
</g>
<!-- Node16&#45;&gt;Node15 -->
<g id="edge22" class="edge">
<title>Node16&#45;&gt;Node15</title>
<path fill="none" stroke="midnightblue" d="M693.51,-196.85C714.38,-186.58 739.87,-174.03 759.06,-164.58"/>
<polygon fill="midnightblue" stroke="midnightblue" points="691.71,-193.84 684.28,-201.4 694.8,-200.12 691.71,-193.84"/>
</g>
<!-- Node17 -->
<g id="node17" class="node">
<title>Node17</title>
<g id="a_node17"><a xlink:href="ChildRect_8cpp.xhtml" target="_top" xlink:title="In this file, the implementation of the ChildRect class is defined.">
<polygon fill="white" stroke="black" points="593.64,-134.5 593.64,-164.5 713.64,-164.5 713.64,-134.5 593.64,-134.5"/>
<text text-anchor="start" x="601.64" y="-152.5" font-family="Helvetica,sans-Serif" font-size="10.00">src/optimizer/direct</text>
<text text-anchor="middle" x="653.64" y="-141.5" font-family="Helvetica,sans-Serif" font-size="10.00">/hyrect/ChildRect.cpp</text>
</a>
</g>
</g>
<!-- Node16&#45;&gt;Node17 -->
<g id="edge21" class="edge">
<title>Node16&#45;&gt;Node17</title>
<path fill="none" stroke="midnightblue" d="M654.89,-191.11C654.62,-182.15 654.31,-172.32 654.08,-164.58"/>
<polygon fill="midnightblue" stroke="midnightblue" points="651.4,-191.51 655.21,-201.4 658.4,-191.29 651.4,-191.51"/>
</g>
<!-- Node18&#45;&gt;Node6 -->
<g id="edge25" class="edge">
<title>Node18&#45;&gt;Node6</title>
<path fill="none" stroke="midnightblue" d="M1044.76,-258.19C1040.73,-224.34 1028.1,-163.8 988.64,-134 932.06,-91.26 722.92,-84.22 621.51,-83.37"/>
<polygon fill="midnightblue" stroke="midnightblue" points="1041.29,-258.58 1045.79,-268.17 1048.25,-257.87 1041.29,-258.58"/>
</g>
<!-- Node19 -->
<g id="node19" class="node">
<title>Node19</title>
<g id="a_node19"><a xlink:href="ParameterNormalizer_8cpp.xhtml" target="_top" xlink:title="In this file, the implementation of the ParameterNormalizer class is defined.">
<polygon fill="white" stroke="black" points="1075.14,-201.5 1075.14,-231.5 1218.14,-231.5 1218.14,-201.5 1075.14,-201.5"/>
<text text-anchor="start" x="1083.14" y="-219.5" font-family="Helvetica,sans-Serif" font-size="10.00">src/optimizer/direct</text>
<text text-anchor="middle" x="1146.64" y="-208.5" font-family="Helvetica,sans-Serif" font-size="10.00">/ParameterNormalizer.cpp</text>
</a>
</g>
</g>
<!-- Node18&#45;&gt;Node19 -->
<g id="edge26" class="edge">
<title>Node18&#45;&gt;Node19</title>
<path fill="none" stroke="midnightblue" d="M1077.05,-262.73C1092.53,-252.68 1110.97,-240.68 1124.99,-231.58"/>
<polygon fill="midnightblue" stroke="midnightblue" points="1074.82,-260.01 1068.34,-268.4 1078.63,-265.88 1074.82,-260.01"/>
</g>
</g>
</svg>
