<?xml version="1.0" encoding="UTF-8" standalone="no"?>
<!DOCTYPE svg PUBLIC "-//W3C//DTD SVG 1.1//EN"
 "http://www.w3.org/Graphics/SVG/1.1/DTD/svg11.dtd">
<!-- Generated by graphviz version 2.43.0 (0)
 -->
<!-- Title: /home/runner/work/Simopticon/Simopticon/src/optimizer/direct/DirectOptimizer.cpp Pages: 1 -->
<!--zoomable 386 -->
<svg id="main" version="1.1" xmlns="http://www.w3.org/2000/svg" xmlns:xlink="http://www.w3.org/1999/xlink" xml:space="preserve" onload="init(evt)">
<style type="text/css"><![CDATA[
.edge:hover path { stroke: red; }
.edge:hover polygon { stroke: red; fill: red; }
]]></style>
<script type="text/javascript"><![CDATA[
var edges = document.getElementsByTagName('g');
if (edges && edges.length) {
  for (var i=0;i<edges.length;i++) {
    if (edges[i].id.substr(0,4)=='edge') {
      edges[i].setAttribute('class','edge');
    }
  }
}
]]></script>
        <defs>
                <circle id="rim" cx="0" cy="0" r="7"/>
                <circle id="rim2" cx="0" cy="0" r="3.5"/>
                <g id="zoomPlus">
                        <use xlink:href="#rim" fill="#404040">
                                <set attributeName="fill" to="#808080" begin="zoomplus.mouseover" end="zoomplus.mouseout"/>
                        </use>
                        <path d="M-4,0h8M0,-4v8" fill="none" stroke="white" stroke-width="1.5" pointer-events="none"/>
                </g>
                <g id="zoomMin">
                        <use xlink:href="#rim" fill="#404040">
                                <set attributeName="fill" to="#808080" begin="zoomminus.mouseover" end="zoomminus.mouseout"/>
                        </use>
                        <path d="M-4,0h8" fill="none" stroke="white" stroke-width="1.5" pointer-events="none"/>
                </g>
                <g id="dirArrow">
                        <path fill="none" stroke="white" stroke-width="1.5" d="M0,-3.0v7 M-2.5,-0.5L0,-3.0L2.5,-0.5"/>
                </g>
               <g id="resetDef">
                       <use xlink:href="#rim2" fill="#404040">
                               <set attributeName="fill" to="#808080" begin="reset.mouseover" end="reset.mouseout"/>
                       </use>
               </g>
        </defs>

<script type="text/javascript">
var viewWidth = 1889;
var viewHeight = 386;
var sectionId = 'dynsection-0';
</script>
<script xlink:href="svgpan.js"/>
<svg id="graph" class="graph">
<g id="viewport">
<title>/home/runner/work/Simopticon/Simopticon/src/optimizer/direct/DirectOptimizer.cpp</title>
<polygon fill="white" stroke="transparent" points="-4,4 -4,-382 1885.17,-382 1885.17,4 -4,4"/>
<!-- Node1 -->
<g id="node1" class="node">
<title>Node1</title>
<g id="a_node1"><a xlink:title="In this file, the implementation of the DirectOptimizer class is defined.">
<polygon fill="#bfbfbf" stroke="black" points="1613.17,-336.5 1613.17,-377.5 1780.17,-377.5 1780.17,-336.5 1613.17,-336.5"/>
<text text-anchor="start" x="1621.17" y="-365.5" font-family="Helvetica,sans-Serif" font-size="10.00">/home/runner/work/Simopticon</text>
<text text-anchor="start" x="1621.17" y="-354.5" font-family="Helvetica,sans-Serif" font-size="10.00">/Simopticon/src/optimizer</text>
<text text-anchor="middle" x="1696.67" y="-343.5" font-family="Helvetica,sans-Serif" font-size="10.00">/direct/DirectOptimizer.cpp</text>
</a>
</g>
</g>
<!-- Node2 -->
<g id="node2" class="node">
<title>Node2</title>
<g id="a_node2"><a xlink:href="DirectOptimizer_8h.xhtml" target="_top" xlink:title="In this file, the header of the DirectOptimizer class is defined.">
<polygon fill="white" stroke="black" points="1200.67,-280.5 1200.67,-299.5 1302.67,-299.5 1302.67,-280.5 1200.67,-280.5"/>
<text text-anchor="middle" x="1251.67" y="-287.5" font-family="Helvetica,sans-Serif" font-size="10.00">DirectOptimizer.h</text>
</a>
</g>
</g>
<!-- Node1&#45;&gt;Node2 -->
<g id="edge1" class="edge">
<title>Node1&#45;&gt;Node2</title>
<path fill="none" stroke="midnightblue" d="M1612.97,-343.77C1525.62,-331.02 1390.77,-311.32 1312.88,-299.94"/>
<polygon fill="midnightblue" stroke="midnightblue" points="1313.15,-296.44 1302.75,-298.46 1312.14,-303.37 1313.15,-296.44"/>
</g>
<!-- Node9 -->
<g id="node9" class="node">
<title>Node9</title>
<g id="a_node9"><a xlink:title=" ">
<polygon fill="white" stroke="#bfbfbf" points="1209.67,-0.5 1209.67,-19.5 1267.67,-19.5 1267.67,-0.5 1209.67,-0.5"/>
<text text-anchor="middle" x="1238.67" y="-7.5" font-family="Helvetica,sans-Serif" font-size="10.00">memory</text>
</a>
</g>
</g>
<!-- Node1&#45;&gt;Node9 -->
<g id="edge71" class="edge">
<title>Node1&#45;&gt;Node9</title>
<path fill="none" stroke="midnightblue" d="M1706.85,-336.47C1718.11,-313.02 1734.67,-272.21 1734.67,-235 1734.67,-235 1734.67,-235 1734.67,-121 1734.67,-27.66 1395.66,-13.47 1278.18,-11.36"/>
<polygon fill="midnightblue" stroke="midnightblue" points="1277.9,-7.85 1267.84,-11.19 1277.79,-14.85 1277.9,-7.85"/>
</g>
<!-- Node26 -->
<g id="node26" class="node">
<title>Node26</title>
<g id="a_node26"><a xlink:href="GrahamScan_8h.xhtml" target="_top" xlink:title="In this file, the header of the GrahamScan class is defined.">
<polygon fill="white" stroke="black" points="1562.67,-112.5 1562.67,-131.5 1650.67,-131.5 1650.67,-112.5 1562.67,-112.5"/>
<text text-anchor="middle" x="1606.67" y="-119.5" font-family="Helvetica,sans-Serif" font-size="10.00">GrahamScan.h</text>
</a>
</g>
</g>
<!-- Node1&#45;&gt;Node26 -->
<g id="edge50" class="edge">
<title>Node1&#45;&gt;Node26</title>
<path fill="none" stroke="midnightblue" d="M1696.44,-336.49C1695.54,-310.08 1691.73,-261.91 1676.67,-224 1663.55,-190.99 1637.89,-158.19 1621.54,-139.3"/>
<polygon fill="midnightblue" stroke="midnightblue" points="1624.02,-136.81 1614.77,-131.64 1618.78,-141.45 1624.02,-136.81"/>
</g>
<!-- Node27 -->
<g id="node27" class="node">
<title>Node27</title>
<g id="a_node27"><a xlink:href="BaseRect_8h.xhtml" target="_top" xlink:title="In this file, the header of the BaseRect class is defined.">
<polygon fill="white" stroke="black" points="1563.17,-224.5 1563.17,-243.5 1668.17,-243.5 1668.17,-224.5 1563.17,-224.5"/>
<text text-anchor="middle" x="1615.67" y="-231.5" font-family="Helvetica,sans-Serif" font-size="10.00">hyrect/BaseRect.h</text>
</a>
</g>
</g>
<!-- Node1&#45;&gt;Node27 -->
<g id="edge53" class="edge">
<title>Node1&#45;&gt;Node27</title>
<path fill="none" stroke="midnightblue" d="M1683.47,-336.29C1667.78,-312.85 1641.86,-274.13 1627.03,-251.96"/>
<polygon fill="midnightblue" stroke="midnightblue" points="1629.88,-249.94 1621.41,-243.57 1624.06,-253.83 1629.88,-249.94"/>
</g>
<!-- Node28 -->
<g id="node28" class="node">
<title>Node28</title>
<g id="a_node28"><a xlink:href="ValueMap_8h.xhtml" target="_top" xlink:title="In this file, the header of the ValueMap class is defined.">
<polygon fill="white" stroke="black" points="723.17,-224.5 723.17,-243.5 864.17,-243.5 864.17,-224.5 723.17,-224.5"/>
<text text-anchor="middle" x="793.67" y="-231.5" font-family="Helvetica,sans-Serif" font-size="10.00">../../controller/ValueMap.h</text>
</a>
</g>
</g>
<!-- Node1&#45;&gt;Node28 -->
<g id="edge55" class="edge">
<title>Node1&#45;&gt;Node28</title>
<path fill="none" stroke="midnightblue" d="M1612.96,-348.05C1512.65,-338.21 1339.58,-320.27 1191.67,-300 1070.02,-283.33 928.26,-259 851.03,-245.32"/>
<polygon fill="midnightblue" stroke="midnightblue" points="851.49,-241.85 841.03,-243.54 850.26,-248.74 851.49,-241.85"/>
</g>
<!-- Node32 -->
<g id="node32" class="node">
<title>Node32</title>
<g id="a_node32"><a xlink:title=" ">
<polygon fill="white" stroke="#bfbfbf" points="1763.17,-280.5 1763.17,-299.5 1808.17,-299.5 1808.17,-280.5 1763.17,-280.5"/>
<text text-anchor="middle" x="1785.67" y="-287.5" font-family="Helvetica,sans-Serif" font-size="10.00">utility</text>
</a>
</g>
</g>
<!-- Node1&#45;&gt;Node32 -->
<g id="edge70" class="edge">
<title>Node1&#45;&gt;Node32</title>
<path fill="none" stroke="midnightblue" d="M1723.37,-336.5C1736.89,-326.63 1753.02,-314.84 1765.49,-305.74"/>
<polygon fill="midnightblue" stroke="midnightblue" points="1767.81,-308.38 1773.82,-299.65 1763.68,-302.72 1767.81,-308.38"/>
</g>
<!-- Node33 -->
<g id="node33" class="node">
<title>Node33</title>
<g id="a_node33"><a xlink:title=" ">
<polygon fill="white" stroke="#bfbfbf" points="1826.17,-280.5 1826.17,-299.5 1881.17,-299.5 1881.17,-280.5 1826.17,-280.5"/>
<text text-anchor="middle" x="1853.67" y="-287.5" font-family="Helvetica,sans-Serif" font-size="10.00">fstream</text>
</a>
</g>
</g>
<!-- Node1&#45;&gt;Node33 -->
<g id="edge72" class="edge">
<title>Node1&#45;&gt;Node33</title>
<path fill="none" stroke="midnightblue" d="M1743.77,-336.5C1769.58,-325.81 1800.81,-312.89 1823.37,-303.54"/>
<polygon fill="midnightblue" stroke="midnightblue" points="1824.87,-306.71 1832.77,-299.65 1822.19,-300.24 1824.87,-306.71"/>
</g>
<!-- Node3 -->
<g id="node3" class="node">
<title>Node3</title>
<g id="a_node3"><a xlink:href="DirectTypes_8h.xhtml" target="_top" xlink:title="In this file, types are defined which are used in the direct module.">
<polygon fill="white" stroke="black" points="1136.17,-56.5 1136.17,-75.5 1219.17,-75.5 1219.17,-56.5 1136.17,-56.5"/>
<text text-anchor="middle" x="1177.67" y="-63.5" font-family="Helvetica,sans-Serif" font-size="10.00">DirectTypes.h</text>
</a>
</g>
</g>
<!-- Node2&#45;&gt;Node3 -->
<g id="edge2" class="edge">
<title>Node2&#45;&gt;Node3</title>
<path fill="none" stroke="midnightblue" d="M1288.38,-280.38C1344.75,-265.07 1443.52,-228.89 1417.67,-168 1403.67,-135.02 1391.03,-129.34 1359.67,-112 1319.18,-89.61 1267.55,-78.21 1229.63,-72.5"/>
<polygon fill="midnightblue" stroke="midnightblue" points="1229.71,-68.98 1219.32,-71.04 1228.72,-75.91 1229.71,-68.98"/>
</g>
<!-- Node4 -->
<g id="node4" class="node">
<title>Node4</title>
<g id="a_node4"><a xlink:href="DirectComparisonFunctions_8h.xhtml" target="_top" xlink:title="In this file, comparison functions are defined which are used in the direct module.">
<polygon fill="white" stroke="black" points="1232.67,-168.5 1232.67,-187.5 1392.67,-187.5 1392.67,-168.5 1232.67,-168.5"/>
<text text-anchor="middle" x="1312.67" y="-175.5" font-family="Helvetica,sans-Serif" font-size="10.00">DirectComparisonFunctions.h</text>
</a>
</g>
</g>
<!-- Node2&#45;&gt;Node4 -->
<g id="edge3" class="edge">
<title>Node2&#45;&gt;Node4</title>
<path fill="none" stroke="midnightblue" d="M1260.29,-280.36C1268.49,-271.75 1280.72,-257.86 1288.67,-244 1297.09,-229.33 1303.5,-211.16 1307.57,-197.77"/>
<polygon fill="midnightblue" stroke="midnightblue" points="1311.03,-198.4 1310.43,-187.82 1304.3,-196.46 1311.03,-198.4"/>
</g>
<!-- Node5 -->
<g id="node5" class="node">
<title>Node5</title>
<g id="a_node5"><a xlink:href="HyRect_8h.xhtml" target="_top" xlink:title="In this file, the header of the HyRect class is defined.">
<polygon fill="white" stroke="black" points="1256.17,-112.5 1256.17,-131.5 1351.17,-131.5 1351.17,-112.5 1256.17,-112.5"/>
<text text-anchor="middle" x="1303.67" y="-119.5" font-family="Helvetica,sans-Serif" font-size="10.00">hyrect/HyRect.h</text>
</a>
</g>
</g>
<!-- Node2&#45;&gt;Node5 -->
<g id="edge33" class="edge">
<title>Node2&#45;&gt;Node5</title>
<path fill="none" stroke="midnightblue" d="M1277.35,-280.44C1312.8,-267.06 1375.34,-237.47 1401.67,-188 1415.49,-162.03 1382.7,-144.7 1351.4,-134.52"/>
<polygon fill="midnightblue" stroke="midnightblue" points="1352.37,-131.15 1341.78,-131.58 1350.33,-137.85 1352.37,-131.15"/>
</g>
<!-- Node2&#45;&gt;Node9 -->
<g id="edge49" class="edge">
<title>Node2&#45;&gt;Node9</title>
<path fill="none" stroke="midnightblue" d="M1300.32,-280.45C1381.23,-264.84 1534.67,-228.68 1534.67,-179 1534.67,-179 1534.67,-179 1534.67,-121 1534.67,-66.89 1358.69,-30.83 1278.11,-17.15"/>
<polygon fill="midnightblue" stroke="midnightblue" points="1278.3,-13.63 1267.86,-15.44 1277.15,-20.54 1278.3,-13.63"/>
</g>
<!-- Node14 -->
<g id="node14" class="node">
<title>Node14</title>
<g id="a_node14"><a xlink:href="Optimizer_8h.xhtml" target="_top" xlink:title="In this file, the header of the Optimizer class is defined.">
<polygon fill="white" stroke="black" points="751.67,-168.5 751.67,-187.5 833.67,-187.5 833.67,-168.5 751.67,-168.5"/>
<text text-anchor="middle" x="792.67" y="-175.5" font-family="Helvetica,sans-Serif" font-size="10.00">../Optimizer.h</text>
</a>
</g>
</g>
<!-- Node2&#45;&gt;Node14 -->
<g id="edge16" class="edge">
<title>Node2&#45;&gt;Node14</title>
<path fill="none" stroke="midnightblue" d="M1214.08,-280.43C1174.98,-271.48 1111.98,-256.96 1057.67,-244 979.91,-225.45 889.52,-203.11 836.94,-190.04"/>
<polygon fill="midnightblue" stroke="midnightblue" points="837.49,-186.57 826.94,-187.55 835.8,-193.36 837.49,-186.57"/>
</g>
<!-- Node19 -->
<g id="node19" class="node">
<title>Node19</title>
<g id="a_node19"><a xlink:href="StoppingCondition_8h.xhtml" target="_top" xlink:title="In this file, the header of the StoppingCondition class is defined.">
<polygon fill="white" stroke="black" points="451.17,-112.5 451.17,-131.5 566.17,-131.5 566.17,-112.5 451.17,-112.5"/>
<text text-anchor="middle" x="508.67" y="-119.5" font-family="Helvetica,sans-Serif" font-size="10.00">StoppingCondition.h</text>
</a>
</g>
</g>
<!-- Node2&#45;&gt;Node19 -->
<g id="edge28" class="edge">
<title>Node2&#45;&gt;Node19</title>
<path fill="none" stroke="midnightblue" d="M1200.27,-287.62C1083.9,-284.02 803.42,-272.59 713.67,-244 638.84,-220.17 562.15,-165.05 527.59,-138.22"/>
<polygon fill="midnightblue" stroke="midnightblue" points="529.39,-135.18 519.37,-131.75 525.06,-140.68 529.39,-135.18"/>
</g>
<!-- Node22 -->
<g id="node22" class="node">
<title>Node22</title>
<g id="a_node22"><a xlink:href="ParameterNormalizer_8h.xhtml" target="_top" xlink:title="In this file, the header of the ParameterNormalizer class is defined.">
<polygon fill="white" stroke="black" points="993.17,-112.5 993.17,-131.5 1122.17,-131.5 1122.17,-112.5 993.17,-112.5"/>
<text text-anchor="middle" x="1057.67" y="-119.5" font-family="Helvetica,sans-Serif" font-size="10.00">ParameterNormalizer.h</text>
</a>
</g>
</g>
<!-- Node2&#45;&gt;Node22 -->
<g id="edge34" class="edge">
<title>Node2&#45;&gt;Node22</title>
<path fill="none" stroke="midnightblue" d="M1200.44,-283.43C1170.82,-277.82 1134.59,-266.57 1109.67,-244 1093.82,-229.65 1073.37,-171.68 1063.51,-141.49"/>
<polygon fill="midnightblue" stroke="midnightblue" points="1066.77,-140.21 1060.38,-131.76 1060.11,-142.35 1066.77,-140.21"/>
</g>
<!-- Node23 -->
<g id="node23" class="node">
<title>Node23</title>
<g id="a_node23"><a xlink:href="Levels_8h.xhtml" target="_top" xlink:title="In this file, the header of the Levels class is defined.">
<polygon fill="white" stroke="black" points="1223.17,-224.5 1223.17,-243.5 1280.17,-243.5 1280.17,-224.5 1223.17,-224.5"/>
<text text-anchor="middle" x="1251.67" y="-231.5" font-family="Helvetica,sans-Serif" font-size="10.00">Levels.h</text>
</a>
</g>
</g>
<!-- Node2&#45;&gt;Node23 -->
<g id="edge40" class="edge">
<title>Node2&#45;&gt;Node23</title>
<path fill="none" stroke="midnightblue" d="M1251.67,-280.08C1251.67,-273.01 1251.67,-262.86 1251.67,-253.99"/>
<polygon fill="midnightblue" stroke="midnightblue" points="1255.17,-253.75 1251.67,-243.75 1248.17,-253.75 1255.17,-253.75"/>
</g>
<!-- Node24 -->
<g id="node24" class="node">
<title>Node24</title>
<g id="a_node24"><a xlink:title=" ">
<polygon fill="white" stroke="#bfbfbf" points="1030.67,-168.5 1030.67,-187.5 1062.67,-187.5 1062.67,-168.5 1030.67,-168.5"/>
<text text-anchor="middle" x="1046.67" y="-175.5" font-family="Helvetica,sans-Serif" font-size="10.00">set</text>
</a>
</g>
</g>
<!-- Node2&#45;&gt;Node24 -->
<g id="edge47" class="edge">
<title>Node2&#45;&gt;Node24</title>
<path fill="none" stroke="midnightblue" d="M1200.41,-287.31C1162.4,-283.55 1111.36,-272.93 1076.67,-244 1062.52,-232.2 1054.7,-212.28 1050.62,-197.59"/>
<polygon fill="midnightblue" stroke="midnightblue" points="1053.95,-196.49 1048.19,-187.6 1047.15,-198.15 1053.95,-196.49"/>
</g>
<!-- Node25 -->
<g id="node25" class="node">
<title>Node25</title>
<g id="a_node25"><a xlink:title=" ">
<polygon fill="white" stroke="#bfbfbf" points="1118.67,-224.5 1118.67,-243.5 1204.67,-243.5 1204.67,-224.5 1118.67,-224.5"/>
<text text-anchor="middle" x="1161.67" y="-231.5" font-family="Helvetica,sans-Serif" font-size="10.00">unordered_set</text>
</a>
</g>
</g>
<!-- Node2&#45;&gt;Node25 -->
<g id="edge48" class="edge">
<title>Node2&#45;&gt;Node25</title>
<path fill="none" stroke="midnightblue" d="M1237.21,-280.32C1223.17,-271.9 1201.62,-258.97 1185.13,-249.07"/>
<polygon fill="midnightblue" stroke="midnightblue" points="1186.47,-245.8 1176.09,-243.65 1182.87,-251.8 1186.47,-245.8"/>
</g>
<!-- Node4&#45;&gt;Node5 -->
<g id="edge4" class="edge">
<title>Node4&#45;&gt;Node5</title>
<path fill="none" stroke="midnightblue" d="M1311.18,-168.08C1309.99,-160.93 1308.27,-150.64 1306.78,-141.69"/>
<polygon fill="midnightblue" stroke="midnightblue" points="1310.22,-141.04 1305.13,-131.75 1303.32,-142.19 1310.22,-141.04"/>
</g>
<!-- Node5&#45;&gt;Node3 -->
<g id="edge9" class="edge">
<title>Node5&#45;&gt;Node3</title>
<path fill="none" stroke="midnightblue" d="M1283.7,-112.44C1263.06,-103.6 1230.61,-89.69 1207.04,-79.59"/>
<polygon fill="midnightblue" stroke="midnightblue" points="1208.11,-76.24 1197.54,-75.52 1205.35,-82.67 1208.11,-76.24"/>
</g>
<!-- Node6 -->
<g id="node6" class="node">
<title>Node6</title>
<g id="a_node6"><a xlink:href="Types_8h.xhtml" target="_top" xlink:title="In this file, types are defined which should be used across the whole framework.">
<polygon fill="white" stroke="black" points="562.67,-56.5 562.67,-75.5 642.67,-75.5 642.67,-56.5 562.67,-56.5"/>
<text text-anchor="middle" x="602.67" y="-63.5" font-family="Helvetica,sans-Serif" font-size="10.00">../../../Types.h</text>
</a>
</g>
</g>
<!-- Node5&#45;&gt;Node6 -->
<g id="edge5" class="edge">
<title>Node5&#45;&gt;Node6</title>
<path fill="none" stroke="midnightblue" d="M1256.04,-117.33C1128.97,-107.54 782.81,-80.88 652.86,-70.87"/>
<polygon fill="midnightblue" stroke="midnightblue" points="653.03,-67.37 642.79,-70.09 652.49,-74.35 653.03,-67.37"/>
</g>
<!-- Node8 -->
<g id="node8" class="node">
<title>Node8</title>
<g id="a_node8"><a xlink:title=" ">
<polygon fill="white" stroke="#bfbfbf" points="613.17,-0.5 613.17,-19.5 660.17,-19.5 660.17,-0.5 613.17,-0.5"/>
<text text-anchor="middle" x="636.67" y="-7.5" font-family="Helvetica,sans-Serif" font-size="10.00">vector</text>
</a>
</g>
</g>
<!-- Node5&#45;&gt;Node8 -->
<g id="edge12" class="edge">
<title>Node5&#45;&gt;Node8</title>
<path fill="none" stroke="midnightblue" d="M1296.82,-112.32C1284.68,-97.68 1257.84,-68.46 1227.67,-56 1125.73,-13.89 780.13,-10.75 670.4,-10.84"/>
<polygon fill="midnightblue" stroke="midnightblue" points="670.23,-7.34 660.24,-10.86 670.24,-14.34 670.23,-7.34"/>
</g>
<!-- Node5&#45;&gt;Node9 -->
<g id="edge15" class="edge">
<title>Node5&#45;&gt;Node9</title>
<path fill="none" stroke="midnightblue" d="M1338.76,-112.48C1374.2,-102.17 1421.03,-82.79 1400.67,-56 1385.86,-36.52 1320.95,-23.25 1277.93,-16.42"/>
<polygon fill="midnightblue" stroke="midnightblue" points="1278.19,-12.92 1267.77,-14.86 1277.12,-19.83 1278.19,-12.92"/>
</g>
<!-- Node10 -->
<g id="node10" class="node">
<title>Node10</title>
<g id="a_node10"><a xlink:title=" ">
<polygon fill="white" stroke="#bfbfbf" points="1275.67,-56.5 1275.67,-75.5 1331.67,-75.5 1331.67,-56.5 1275.67,-56.5"/>
<text text-anchor="middle" x="1303.67" y="-63.5" font-family="Helvetica,sans-Serif" font-size="10.00">optional</text>
</a>
</g>
</g>
<!-- Node5&#45;&gt;Node10 -->
<g id="edge10" class="edge">
<title>Node5&#45;&gt;Node10</title>
<path fill="none" stroke="midnightblue" d="M1303.67,-112.08C1303.67,-105.01 1303.67,-94.86 1303.67,-85.99"/>
<polygon fill="midnightblue" stroke="midnightblue" points="1307.17,-85.75 1303.67,-75.75 1300.17,-85.75 1307.17,-85.75"/>
</g>
<!-- Node11 -->
<g id="node11" class="node">
<title>Node11</title>
<g id="a_node11"><a xlink:title=" ">
<polygon fill="white" stroke="#bfbfbf" points="1349.67,-56.5 1349.67,-75.5 1391.67,-75.5 1391.67,-56.5 1349.67,-56.5"/>
<text text-anchor="middle" x="1370.67" y="-63.5" font-family="Helvetica,sans-Serif" font-size="10.00">array</text>
</a>
</g>
</g>
<!-- Node5&#45;&gt;Node11 -->
<g id="edge11" class="edge">
<title>Node5&#45;&gt;Node11</title>
<path fill="none" stroke="midnightblue" d="M1314.43,-112.32C1324.43,-104.26 1339.56,-92.08 1351.6,-82.37"/>
<polygon fill="midnightblue" stroke="midnightblue" points="1354.12,-84.83 1359.71,-75.83 1349.73,-79.38 1354.12,-84.83"/>
</g>
<!-- Node12 -->
<g id="node12" class="node">
<title>Node12</title>
<g id="a_node12"><a xlink:title=" ">
<polygon fill="white" stroke="#bfbfbf" points="861.17,-56.5 861.17,-75.5 908.17,-75.5 908.17,-56.5 861.17,-56.5"/>
<text text-anchor="middle" x="884.67" y="-63.5" font-family="Helvetica,sans-Serif" font-size="10.00">cmath</text>
</a>
</g>
</g>
<!-- Node5&#45;&gt;Node12 -->
<g id="edge13" class="edge">
<title>Node5&#45;&gt;Node12</title>
<path fill="none" stroke="midnightblue" d="M1256.01,-114.86C1170.56,-103.84 993.25,-80.99 918.78,-71.4"/>
<polygon fill="midnightblue" stroke="midnightblue" points="918.92,-67.89 908.56,-70.08 918.03,-74.83 918.92,-67.89"/>
</g>
<!-- Node13 -->
<g id="node13" class="node">
<title>Node13</title>
<g id="a_node13"><a xlink:title=" ">
<polygon fill="white" stroke="#bfbfbf" points="1085.67,-56.5 1085.67,-75.5 1117.67,-75.5 1117.67,-56.5 1085.67,-56.5"/>
<text text-anchor="middle" x="1101.67" y="-63.5" font-family="Helvetica,sans-Serif" font-size="10.00">list</text>
</a>
</g>
</g>
<!-- Node5&#45;&gt;Node13 -->
<g id="edge14" class="edge">
<title>Node5&#45;&gt;Node13</title>
<path fill="none" stroke="midnightblue" d="M1265.74,-112.48C1231.74,-104.59 1180.35,-92.06 1127.3,-75.97"/>
<polygon fill="midnightblue" stroke="midnightblue" points="1128.32,-72.63 1117.73,-73.04 1126.26,-79.32 1128.32,-72.63"/>
</g>
<!-- Node7 -->
<g id="node7" class="node">
<title>Node7</title>
<g id="a_node7"><a xlink:title=" ">
<polygon fill="white" stroke="#bfbfbf" points="266.67,-0.5 266.67,-19.5 310.67,-19.5 310.67,-0.5 266.67,-0.5"/>
<text text-anchor="middle" x="288.67" y="-7.5" font-family="Helvetica,sans-Serif" font-size="10.00">string</text>
</a>
</g>
</g>
<!-- Node6&#45;&gt;Node7 -->
<g id="edge6" class="edge">
<title>Node6&#45;&gt;Node7</title>
<path fill="none" stroke="midnightblue" d="M562.57,-57.59C559.56,-57.05 556.56,-56.51 553.67,-56 469.76,-41.17 370.73,-24.6 320.84,-16.32"/>
<polygon fill="midnightblue" stroke="midnightblue" points="321.11,-12.82 310.67,-14.63 319.97,-19.72 321.11,-12.82"/>
</g>
<!-- Node6&#45;&gt;Node8 -->
<g id="edge7" class="edge">
<title>Node6&#45;&gt;Node8</title>
<path fill="none" stroke="midnightblue" d="M608.28,-56.08C613.04,-48.53 619.99,-37.49 625.82,-28.23"/>
<polygon fill="midnightblue" stroke="midnightblue" points="628.79,-30.08 631.16,-19.75 622.87,-26.35 628.79,-30.08"/>
</g>
<!-- Node6&#45;&gt;Node9 -->
<g id="edge8" class="edge">
<title>Node6&#45;&gt;Node9</title>
<path fill="none" stroke="midnightblue" d="M642.94,-61.58C757.86,-51.82 1086.37,-23.93 1199.68,-14.31"/>
<polygon fill="midnightblue" stroke="midnightblue" points="1199.99,-17.8 1209.65,-13.46 1199.39,-10.82 1199.99,-17.8"/>
</g>
<!-- Node14&#45;&gt;Node6 -->
<g id="edge17" class="edge">
<title>Node14&#45;&gt;Node6</title>
<path fill="none" stroke="midnightblue" d="M751.62,-169.67C723.14,-163.15 685.33,-151.55 656.67,-132 638.37,-119.52 622.88,-99.16 613.25,-84.55"/>
<polygon fill="midnightblue" stroke="midnightblue" points="616.09,-82.5 607.79,-75.92 610.17,-86.25 616.09,-82.5"/>
</g>
<!-- Node14&#45;&gt;Node8 -->
<g id="edge25" class="edge">
<title>Node14&#45;&gt;Node8</title>
<path fill="none" stroke="midnightblue" d="M756.41,-168.37C734.71,-161.6 707.89,-150.21 689.67,-132 674.5,-116.84 653.2,-59.25 642.83,-29.31"/>
<polygon fill="midnightblue" stroke="midnightblue" points="646.08,-28 639.54,-19.67 639.46,-30.26 646.08,-28"/>
</g>
<!-- Node14&#45;&gt;Node9 -->
<g id="edge27" class="edge">
<title>Node14&#45;&gt;Node9</title>
<path fill="none" stroke="midnightblue" d="M796.71,-168.44C809.6,-141.15 849.12,-57.81 851.67,-56 906.9,-16.87 1112.33,-11.42 1199.34,-10.9"/>
<polygon fill="midnightblue" stroke="midnightblue" points="1199.6,-14.4 1209.59,-10.86 1199.57,-7.4 1199.6,-14.4"/>
</g>
<!-- Node14&#45;&gt;Node13 -->
<g id="edge24" class="edge">
<title>Node14&#45;&gt;Node13</title>
<path fill="none" stroke="midnightblue" d="M802.67,-168.37C819.47,-154.34 854.94,-126.68 889.67,-112 953.3,-85.11 1034.7,-73.65 1075.66,-69.31"/>
<polygon fill="midnightblue" stroke="midnightblue" points="1076.02,-72.79 1085.62,-68.31 1075.33,-65.83 1076.02,-72.79"/>
</g>
<!-- Node15 -->
<g id="node15" class="node">
<title>Node15</title>
<g id="a_node15"><a xlink:href="ParameterDefinition_8h.xhtml" target="_top" xlink:title="In this file, the header of the ParameterDefinition class is defined.">
<polygon fill="white" stroke="black" points="242.17,-112.5 242.17,-131.5 433.17,-131.5 433.17,-112.5 242.17,-112.5"/>
<text text-anchor="middle" x="337.67" y="-119.5" font-family="Helvetica,sans-Serif" font-size="10.00">../parameters/ParameterDefinition.h</text>
</a>
</g>
</g>
<!-- Node14&#45;&gt;Node15 -->
<g id="edge18" class="edge">
<title>Node14&#45;&gt;Node15</title>
<path fill="none" stroke="midnightblue" d="M751.5,-169.36C748.52,-168.88 745.55,-168.42 742.67,-168 640.18,-153.1 522.47,-140.53 440.46,-132.49"/>
<polygon fill="midnightblue" stroke="midnightblue" points="440.68,-128.99 430.39,-131.51 440,-135.96 440.68,-128.99"/>
</g>
<!-- Node16 -->
<g id="node16" class="node">
<title>Node16</title>
<g id="a_node16"><a xlink:href="Status_8h.xhtml" target="_top" xlink:title="In this file, the header of the Status class is defined.">
<polygon fill="white" stroke="black" points="12.67,-56.5 12.67,-75.5 110.67,-75.5 110.67,-56.5 12.67,-56.5"/>
<text text-anchor="middle" x="61.67" y="-63.5" font-family="Helvetica,sans-Serif" font-size="10.00">../status/Status.h</text>
</a>
</g>
</g>
<!-- Node14&#45;&gt;Node16 -->
<g id="edge21" class="edge">
<title>Node14&#45;&gt;Node16</title>
<path fill="none" stroke="midnightblue" d="M751.53,-169.18C748.54,-168.74 745.56,-168.34 742.67,-168 669.5,-159.46 138.39,-177.77 80.67,-132 67.01,-121.17 62.8,-101.09 61.68,-86.11"/>
<polygon fill="midnightblue" stroke="midnightblue" points="65.16,-85.74 61.31,-75.87 58.17,-85.99 65.16,-85.74"/>
</g>
<!-- Node17 -->
<g id="node17" class="node">
<title>Node17</title>
<g id="a_node17"><a xlink:href="Abortable_8h.xhtml" target="_top" xlink:title="In this file, the header of the Abortable class is defined.">
<polygon fill="white" stroke="black" points="698.67,-112.5 698.67,-131.5 804.67,-131.5 804.67,-112.5 698.67,-112.5"/>
<text text-anchor="middle" x="751.67" y="-119.5" font-family="Helvetica,sans-Serif" font-size="10.00">../utils/Abortable.h</text>
</a>
</g>
</g>
<!-- Node14&#45;&gt;Node17 -->
<g id="edge23" class="edge">
<title>Node14&#45;&gt;Node17</title>
<path fill="none" stroke="midnightblue" d="M785.9,-168.08C780.11,-160.46 771.61,-149.26 764.53,-139.94"/>
<polygon fill="midnightblue" stroke="midnightblue" points="767.15,-137.6 758.31,-131.75 761.57,-141.83 767.15,-137.6"/>
</g>
<!-- Node18 -->
<g id="node18" class="node">
<title>Node18</title>
<g id="a_node18"><a xlink:title=" ">
<polygon fill="white" stroke="#bfbfbf" points="898.67,-112.5 898.67,-131.5 936.67,-131.5 936.67,-112.5 898.67,-112.5"/>
<text text-anchor="middle" x="917.67" y="-119.5" font-family="Helvetica,sans-Serif" font-size="10.00">map</text>
</a>
</g>
</g>
<!-- Node14&#45;&gt;Node18 -->
<g id="edge26" class="edge">
<title>Node14&#45;&gt;Node18</title>
<path fill="none" stroke="midnightblue" d="M812.48,-168.44C833.08,-159.54 865.53,-145.52 888.95,-135.41"/>
<polygon fill="midnightblue" stroke="midnightblue" points="890.57,-138.52 898.37,-131.34 887.8,-132.09 890.57,-138.52"/>
</g>
<!-- Node15&#45;&gt;Node6 -->
<g id="edge19" class="edge">
<title>Node15&#45;&gt;Node6</title>
<path fill="none" stroke="midnightblue" d="M379.66,-112.44C426.63,-102.87 502.66,-87.38 552.66,-77.19"/>
<polygon fill="midnightblue" stroke="midnightblue" points="553.51,-80.59 562.61,-75.16 552.11,-73.73 553.51,-80.59"/>
</g>
<!-- Node15&#45;&gt;Node7 -->
<g id="edge20" class="edge">
<title>Node15&#45;&gt;Node7</title>
<path fill="none" stroke="midnightblue" d="M333.82,-112.37C325.84,-94.46 307.34,-52.92 296.66,-28.95"/>
<polygon fill="midnightblue" stroke="midnightblue" points="299.76,-27.3 292.5,-19.59 293.37,-30.15 299.76,-27.3"/>
</g>
<!-- Node16&#45;&gt;Node7 -->
<g id="edge22" class="edge">
<title>Node16&#45;&gt;Node7</title>
<path fill="none" stroke="midnightblue" d="M97.64,-56.44C141.43,-46.03 214.73,-28.59 256.65,-18.62"/>
<polygon fill="midnightblue" stroke="midnightblue" points="257.68,-21.97 266.6,-16.25 256.06,-15.16 257.68,-21.97"/>
</g>
<!-- Node19&#45;&gt;Node6 -->
<g id="edge29" class="edge">
<title>Node19&#45;&gt;Node6</title>
<path fill="none" stroke="midnightblue" d="M523.77,-112.32C538.57,-103.82 561.36,-90.73 578.65,-80.8"/>
<polygon fill="midnightblue" stroke="midnightblue" points="580.68,-83.67 587.6,-75.65 577.19,-77.6 580.68,-83.67"/>
</g>
<!-- Node19&#45;&gt;Node12 -->
<g id="edge32" class="edge">
<title>Node19&#45;&gt;Node12</title>
<path fill="none" stroke="midnightblue" d="M566.18,-112.74C645.69,-101.32 786.64,-81.08 850.97,-71.84"/>
<polygon fill="midnightblue" stroke="midnightblue" points="851.57,-75.29 860.97,-70.4 850.58,-68.36 851.57,-75.29"/>
</g>
<!-- Node20 -->
<g id="node20" class="node">
<title>Node20</title>
<g id="a_node20"><a xlink:title=" ">
<polygon fill="white" stroke="#bfbfbf" points="434.67,-56.5 434.67,-75.5 544.67,-75.5 544.67,-56.5 434.67,-56.5"/>
<text text-anchor="middle" x="489.67" y="-63.5" font-family="Helvetica,sans-Serif" font-size="10.00">nlohmann/json.hpp</text>
</a>
</g>
</g>
<!-- Node19&#45;&gt;Node20 -->
<g id="edge30" class="edge">
<title>Node19&#45;&gt;Node20</title>
<path fill="none" stroke="midnightblue" d="M505.53,-112.08C502.99,-104.85 499.31,-94.41 496.14,-85.4"/>
<polygon fill="midnightblue" stroke="midnightblue" points="499.37,-84.02 492.75,-75.75 492.77,-86.35 499.37,-84.02"/>
</g>
<!-- Node21 -->
<g id="node21" class="node">
<title>Node21</title>
<g id="a_node21"><a xlink:title=" ">
<polygon fill="white" stroke="#bfbfbf" points="366.67,-56.5 366.67,-75.5 416.67,-75.5 416.67,-56.5 366.67,-56.5"/>
<text text-anchor="middle" x="391.67" y="-63.5" font-family="Helvetica,sans-Serif" font-size="10.00">chrono</text>
</a>
</g>
</g>
<!-- Node19&#45;&gt;Node21 -->
<g id="edge31" class="edge">
<title>Node19&#45;&gt;Node21</title>
<path fill="none" stroke="midnightblue" d="M490.13,-112.44C471.05,-103.64 441.09,-89.81 419.23,-79.72"/>
<polygon fill="midnightblue" stroke="midnightblue" points="420.67,-76.53 410.12,-75.52 417.73,-82.88 420.67,-76.53"/>
</g>
<!-- Node22&#45;&gt;Node3 -->
<g id="edge35" class="edge">
<title>Node22&#45;&gt;Node3</title>
<path fill="none" stroke="midnightblue" d="M1076.68,-112.44C1096.26,-103.64 1126.98,-89.81 1149.4,-79.72"/>
<polygon fill="midnightblue" stroke="midnightblue" points="1151.06,-82.81 1158.74,-75.52 1148.19,-76.43 1151.06,-82.81"/>
</g>
<!-- Node22&#45;&gt;Node6 -->
<g id="edge36" class="edge">
<title>Node22&#45;&gt;Node6</title>
<path fill="none" stroke="midnightblue" d="M992.96,-113.32C901.34,-102.45 735.75,-82.79 652.83,-72.95"/>
<polygon fill="midnightblue" stroke="midnightblue" points="653.24,-69.48 642.9,-71.77 652.41,-76.43 653.24,-69.48"/>
</g>
<!-- Node22&#45;&gt;Node8 -->
<g id="edge38" class="edge">
<title>Node22&#45;&gt;Node8</title>
<path fill="none" stroke="midnightblue" d="M1042.57,-112.35C1017.33,-98.3 964.63,-70.61 916.67,-56 830.31,-29.7 724.01,-17.99 670.64,-13.46"/>
<polygon fill="midnightblue" stroke="midnightblue" points="670.64,-9.95 660.39,-12.62 670.07,-16.92 670.64,-9.95"/>
</g>
<!-- Node22&#45;&gt;Node9 -->
<g id="edge39" class="edge">
<title>Node22&#45;&gt;Node9</title>
<path fill="none" stroke="midnightblue" d="M1057.68,-112.07C1058.19,-98.13 1061.27,-71.19 1076.67,-56 1109.29,-23.81 1162.83,-14.18 1199.36,-11.54"/>
<polygon fill="midnightblue" stroke="midnightblue" points="1199.86,-15.02 1209.65,-10.95 1199.46,-8.03 1199.86,-15.02"/>
</g>
<!-- Node22&#45;&gt;Node13 -->
<g id="edge37" class="edge">
<title>Node22&#45;&gt;Node13</title>
<path fill="none" stroke="midnightblue" d="M1064.93,-112.08C1071.21,-104.38 1080.46,-93.03 1088.1,-83.65"/>
<polygon fill="midnightblue" stroke="midnightblue" points="1090.93,-85.71 1094.54,-75.75 1085.51,-81.29 1090.93,-85.71"/>
</g>
<!-- Node23&#45;&gt;Node3 -->
<g id="edge42" class="edge">
<title>Node23&#45;&gt;Node3</title>
<path fill="none" stroke="midnightblue" d="M1245.3,-224.45C1239.04,-215.69 1229.58,-201.48 1223.67,-188 1209.6,-155.9 1215.94,-144.43 1202.67,-112 1198.78,-102.49 1193.34,-92.44 1188.52,-84.26"/>
<polygon fill="midnightblue" stroke="midnightblue" points="1191.48,-82.38 1183.29,-75.65 1185.5,-86.02 1191.48,-82.38"/>
</g>
<!-- Node23&#45;&gt;Node4 -->
<g id="edge41" class="edge">
<title>Node23&#45;&gt;Node4</title>
<path fill="none" stroke="midnightblue" d="M1261.47,-224.32C1270.49,-216.34 1284.07,-204.31 1294.99,-194.65"/>
<polygon fill="midnightblue" stroke="midnightblue" points="1297.52,-197.08 1302.69,-187.83 1292.88,-191.84 1297.52,-197.08"/>
</g>
<!-- Node23&#45;&gt;Node9 -->
<g id="edge43" class="edge">
<title>Node23&#45;&gt;Node9</title>
<path fill="none" stroke="midnightblue" d="M1280.27,-233.07C1314.6,-231.48 1371.34,-223.24 1401.67,-188 1440.22,-143.21 1454.01,-102.6 1417.67,-56 1400.64,-34.16 1325.03,-21.3 1277.69,-15.25"/>
<polygon fill="midnightblue" stroke="midnightblue" points="1278.11,-11.78 1267.76,-14.03 1277.26,-18.72 1278.11,-11.78"/>
</g>
<!-- Node23&#45;&gt;Node13 -->
<g id="edge45" class="edge">
<title>Node23&#45;&gt;Node13</title>
<path fill="none" stroke="midnightblue" d="M1243.75,-224.31C1235.81,-215.44 1223.4,-201.15 1213.67,-188 1189.77,-155.69 1192.4,-141.09 1164.67,-112 1153.17,-99.95 1138.05,-89.02 1125.49,-80.95"/>
<polygon fill="midnightblue" stroke="midnightblue" points="1127.24,-77.91 1116.9,-75.6 1123.54,-83.86 1127.24,-77.91"/>
</g>
<!-- Node23&#45;&gt;Node18 -->
<g id="edge44" class="edge">
<title>Node23&#45;&gt;Node18</title>
<path fill="none" stroke="midnightblue" d="M1229.37,-224.44C1195.51,-211.56 1129,-186.71 1071.67,-168 1028.37,-153.87 977.55,-139.43 946.49,-130.84"/>
<polygon fill="midnightblue" stroke="midnightblue" points="947.32,-127.44 936.75,-128.16 945.47,-134.19 947.32,-127.44"/>
</g>
<!-- Node23&#45;&gt;Node24 -->
<g id="edge46" class="edge">
<title>Node23&#45;&gt;Node24</title>
<path fill="none" stroke="midnightblue" d="M1223.16,-225.49C1183.24,-214.98 1111.25,-196.01 1072.7,-185.86"/>
<polygon fill="midnightblue" stroke="midnightblue" points="1073.33,-182.4 1062.77,-183.24 1071.55,-189.17 1073.33,-182.4"/>
</g>
<!-- Node26&#45;&gt;Node9 -->
<g id="edge52" class="edge">
<title>Node26&#45;&gt;Node9</title>
<path fill="none" stroke="midnightblue" d="M1601.59,-112.07C1592.84,-97.6 1573.45,-69.32 1548.67,-56 1502.56,-31.21 1350.46,-18.26 1277.88,-13.36"/>
<polygon fill="midnightblue" stroke="midnightblue" points="1277.98,-9.85 1267.77,-12.69 1277.52,-16.84 1277.98,-9.85"/>
</g>
<!-- Node26&#45;&gt;Node13 -->
<g id="edge51" class="edge">
<title>Node26&#45;&gt;Node13</title>
<path fill="none" stroke="midnightblue" d="M1562.41,-120.56C1478.75,-118.92 1291.82,-111.48 1127.68,-75.68"/>
<polygon fill="midnightblue" stroke="midnightblue" points="1128.42,-72.26 1117.9,-73.51 1126.9,-79.09 1128.42,-72.26"/>
</g>
<!-- Node27&#45;&gt;Node5 -->
<g id="edge54" class="edge">
<title>Node27&#45;&gt;Node5</title>
<path fill="none" stroke="midnightblue" d="M1599.31,-224.48C1573.12,-211.08 1519.92,-184.9 1472.67,-168 1433.29,-153.92 1387.35,-141.96 1353.32,-133.92"/>
<polygon fill="midnightblue" stroke="midnightblue" points="1353.7,-130.41 1343.17,-131.55 1352.11,-137.23 1353.7,-130.41"/>
</g>
<!-- Node28&#45;&gt;Node6 -->
<g id="edge56" class="edge">
<title>Node28&#45;&gt;Node6</title>
<path fill="none" stroke="midnightblue" d="M758.06,-224.49C733.58,-217.45 701.2,-205.7 676.67,-188 640.52,-161.91 618.49,-112.2 608.69,-85.33"/>
<polygon fill="midnightblue" stroke="midnightblue" points="611.91,-83.95 605.33,-75.65 605.3,-86.24 611.91,-83.95"/>
</g>
<!-- Node28&#45;&gt;Node8 -->
<g id="edge65" class="edge">
<title>Node28&#45;&gt;Node8</title>
<path fill="none" stroke="midnightblue" d="M722.91,-232.11C553.12,-229.47 132.54,-219.77 77.67,-188 26.04,-158.1 20.84,-133.14 3.67,-76 1.11,-67.49 -2.39,-62.5 3.67,-56 24.28,-33.87 475.22,-16.6 603.13,-12.13"/>
<polygon fill="midnightblue" stroke="midnightblue" points="603.26,-15.63 613.13,-11.78 603.01,-8.63 603.26,-15.63"/>
</g>
<!-- Node28&#45;&gt;Node9 -->
<g id="edge67" class="edge">
<title>Node28&#45;&gt;Node9</title>
<path fill="none" stroke="midnightblue" d="M809,-224.34C824.49,-215.5 849.01,-201.23 869.67,-188 913.12,-160.17 1013.69,-77.33 1060.67,-56 1106.17,-35.34 1162.69,-23.11 1199.67,-16.73"/>
<polygon fill="midnightblue" stroke="midnightblue" points="1200.27,-20.18 1209.56,-15.09 1199.12,-13.28 1200.27,-20.18"/>
</g>
<!-- Node28&#45;&gt;Node13 -->
<g id="edge66" class="edge">
<title>Node28&#45;&gt;Node13</title>
<path fill="none" stroke="midnightblue" d="M839.63,-224.44C877.51,-216.77 932.34,-204.23 978.67,-188 998.56,-181.03 1002.07,-175.76 1021.67,-168 1069.1,-149.21 1100.78,-173.35 1130.67,-132 1141.58,-116.91 1129.59,-97.05 1117.88,-83.28"/>
<polygon fill="midnightblue" stroke="midnightblue" points="1120.17,-80.6 1110.84,-75.58 1115.01,-85.32 1120.17,-80.6"/>
</g>
<!-- Node28&#45;&gt;Node18 -->
<g id="edge64" class="edge">
<title>Node28&#45;&gt;Node18</title>
<path fill="none" stroke="midnightblue" d="M803.4,-224.37C824.32,-205.81 873.8,-161.91 900.27,-138.44"/>
<polygon fill="midnightblue" stroke="midnightblue" points="902.83,-140.85 907.98,-131.59 898.18,-135.61 902.83,-140.85"/>
</g>
<!-- Node28&#45;&gt;Node24 -->
<g id="edge68" class="edge">
<title>Node28&#45;&gt;Node24</title>
<path fill="none" stroke="midnightblue" d="M842.68,-224.46C888.06,-216.23 957.28,-202.87 1016.67,-188 1017.94,-187.68 1019.25,-187.34 1020.56,-186.99"/>
<polygon fill="midnightblue" stroke="midnightblue" points="1021.9,-190.25 1030.55,-184.13 1019.98,-183.52 1021.9,-190.25"/>
</g>
<!-- Node29 -->
<g id="node29" class="node">
<title>Node29</title>
<g id="a_node29"><a xlink:href="ComparisonFunctions_8h.xhtml" target="_top" xlink:title="In this file, comparison functions are defined which should be used across the whole framework.">
<polygon fill="white" stroke="black" points="86.67,-168.5 86.67,-187.5 226.67,-187.5 226.67,-168.5 86.67,-168.5"/>
<text text-anchor="middle" x="156.67" y="-175.5" font-family="Helvetica,sans-Serif" font-size="10.00">../ComparisonFunctions.h</text>
</a>
</g>
</g>
<!-- Node28&#45;&gt;Node29 -->
<g id="edge57" class="edge">
<title>Node28&#45;&gt;Node29</title>
<path fill="none" stroke="midnightblue" d="M723.06,-227.01C603.81,-216.91 363.21,-196.51 237.43,-185.85"/>
<polygon fill="midnightblue" stroke="midnightblue" points="237.36,-182.33 227.1,-184.97 236.77,-189.3 237.36,-182.33"/>
</g>
<!-- Node30 -->
<g id="node30" class="node">
<title>Node30</title>
<g id="a_node30"><a xlink:href="Parameter_8h.xhtml" target="_top" xlink:title="In this file, the header of the Parameter class is defined.">
<polygon fill="white" stroke="black" points="89.67,-112.5 89.67,-131.5 223.67,-131.5 223.67,-112.5 89.67,-112.5"/>
<text text-anchor="middle" x="156.67" y="-119.5" font-family="Helvetica,sans-Serif" font-size="10.00">parameters/Parameter.h</text>
</a>
</g>
</g>
<!-- Node28&#45;&gt;Node30 -->
<g id="edge63" class="edge">
<title>Node28&#45;&gt;Node30</title>
<path fill="none" stroke="midnightblue" d="M744.21,-224.46C628.64,-204.5 341.18,-154.86 216.24,-133.29"/>
<polygon fill="midnightblue" stroke="midnightblue" points="216.54,-129.79 206.09,-131.53 215.35,-136.69 216.54,-129.79"/>
</g>
<!-- Node31 -->
<g id="node31" class="node">
<title>Node31</title>
<g id="a_node31"><a xlink:title=" ">
<polygon fill="white" stroke="#bfbfbf" points="685.67,-168.5 685.67,-187.5 733.67,-187.5 733.67,-168.5 685.67,-168.5"/>
<text text-anchor="middle" x="709.67" y="-175.5" font-family="Helvetica,sans-Serif" font-size="10.00">mutex</text>
</a>
</g>
</g>
<!-- Node28&#45;&gt;Node31 -->
<g id="edge69" class="edge">
<title>Node28&#45;&gt;Node31</title>
<path fill="none" stroke="midnightblue" d="M780.17,-224.32C767.07,-215.9 746.96,-202.97 731.56,-193.07"/>
<polygon fill="midnightblue" stroke="midnightblue" points="733.44,-190.12 723.13,-187.65 729.65,-196.01 733.44,-190.12"/>
</g>
<!-- Node29&#45;&gt;Node8 -->
<g id="edge62" class="edge">
<title>Node29&#45;&gt;Node8</title>
<path fill="none" stroke="midnightblue" d="M132.18,-168.5C103.66,-157.24 62.6,-135.99 80.67,-112 144.01,-27.91 491.88,-13.83 602.72,-11.47"/>
<polygon fill="midnightblue" stroke="midnightblue" points="603.06,-14.97 612.99,-11.27 602.92,-7.97 603.06,-14.97"/>
</g>
<!-- Node29&#45;&gt;Node30 -->
<g id="edge58" class="edge">
<title>Node29&#45;&gt;Node30</title>
<path fill="none" stroke="midnightblue" d="M156.67,-168.08C156.67,-161.01 156.67,-150.86 156.67,-141.99"/>
<polygon fill="midnightblue" stroke="midnightblue" points="160.17,-141.75 156.67,-131.75 153.17,-141.75 160.17,-141.75"/>
</g>
<!-- Node30&#45;&gt;Node6 -->
<g id="edge59" class="edge">
<title>Node30&#45;&gt;Node6</title>
<path fill="none" stroke="midnightblue" d="M223.8,-113.03C226.8,-112.68 229.76,-112.33 232.67,-112 372.08,-95.93 409.96,-96.93 552.6,-76.07"/>
<polygon fill="midnightblue" stroke="midnightblue" points="553.21,-79.52 562.6,-74.6 552.19,-72.59 553.21,-79.52"/>
</g>
<!-- Node30&#45;&gt;Node7 -->
<g id="edge60" class="edge">
<title>Node30&#45;&gt;Node7</title>
<path fill="none" stroke="midnightblue" d="M167.03,-112.37C189.39,-93.73 242.43,-49.53 270.51,-26.13"/>
<polygon fill="midnightblue" stroke="midnightblue" points="272.92,-28.68 278.36,-19.59 268.44,-23.3 272.92,-28.68"/>
</g>
<!-- Node30&#45;&gt;Node9 -->
<g id="edge61" class="edge">
<title>Node30&#45;&gt;Node9</title>
<path fill="none" stroke="midnightblue" d="M177.04,-112.43C212.84,-97.84 289.68,-68.51 357.67,-56 522.78,-25.63 1051.23,-14.27 1199.6,-11.64"/>
<polygon fill="midnightblue" stroke="midnightblue" points="1199.68,-15.14 1209.61,-11.46 1199.56,-8.14 1199.68,-15.14"/>
</g>
</g>
</svg>
        <g id="navigator" transform="translate(0 0)" fill="#404254">
                <rect fill="#f2f5e9" fill-opacity="0.5" stroke="#606060" stroke-width=".5" x="0" y="0" width="60" height="60"/>
                <use id="zoomplus" xlink:href="#zoomPlus" x="17" y="9" onmousedown="handleZoom(evt,'in')"/>
                <use id="zoomminus" xlink:href="#zoomMin" x="42" y="9" onmousedown="handleZoom(evt,'out')"/>
                <use id="reset" xlink:href="#resetDef" x="30" y="36" onmousedown="handleReset()"/>
                <g id="arrowUp" xlink:href="#dirArrow" transform="translate(30 24)" onmousedown="handlePan(0,-1)">
                  <use xlink:href="#rim" fill="#404040">
                        <set attributeName="fill" to="#808080" begin="arrowUp.mouseover" end="arrowUp.mouseout"/>
                  </use>
                  <path fill="none" stroke="white" stroke-width="1.5" d="M0,-3.0v7 M-2.5,-0.5L0,-3.0L2.5,-0.5"/>
                </g>
                <g id="arrowRight" xlink:href="#dirArrow" transform="rotate(90) translate(36 -43)" onmousedown="handlePan(1,0)">
                  <use xlink:href="#rim" fill="#404040">
                        <set attributeName="fill" to="#808080" begin="arrowRight.mouseover" end="arrowRight.mouseout"/>
                  </use>
                  <path fill="none" stroke="white" stroke-width="1.5" d="M0,-3.0v7 M-2.5,-0.5L0,-3.0L2.5,-0.5"/>
                </g>
                <g id="arrowDown" xlink:href="#dirArrow" transform="rotate(180) translate(-30 -48)" onmousedown="handlePan(0,1)">
                  <use xlink:href="#rim" fill="#404040">
                        <set attributeName="fill" to="#808080" begin="arrowDown.mouseover" end="arrowDown.mouseout"/>
                  </use>
                  <path fill="none" stroke="white" stroke-width="1.5" d="M0,-3.0v7 M-2.5,-0.5L0,-3.0L2.5,-0.5"/>
                </g>
                <g id="arrowLeft" xlink:href="#dirArrow" transform="rotate(270) translate(-36 17)" onmousedown="handlePan(-1,0)">
                  <use xlink:href="#rim" fill="#404040">
                        <set attributeName="fill" to="#808080" begin="arrowLeft.mouseover" end="arrowLeft.mouseout"/>
                  </use>
                  <path fill="none" stroke="white" stroke-width="1.5" d="M0,-3.0v7 M-2.5,-0.5L0,-3.0L2.5,-0.5"/>
                </g>
        </g>
        <svg viewBox="0 0 15 15" width="100%" height="30px" preserveAspectRatio="xMaxYMin meet">
         <g id="arrow_out" transform="scale(0.3 0.3)">
          <a xlink:href="DirectOptimizer_8cpp__incl_org.svg" target="_base">
           <rect id="button" ry="5" rx="5" y="6" x="6" height="38" width="38"
                fill="#f2f5e9" fill-opacity="0.5" stroke="#606060" stroke-width="1.0"/>
           <path id="arrow"
             d="M 11.500037,31.436501 C 11.940474,20.09759 22.043105,11.32322 32.158766,21.979434 L 37.068811,17.246167 C 37.068811,17.246167 37.088388,32 37.088388,32 L 22.160133,31.978069 C 22.160133,31.978069 26.997745,27.140456 26.997745,27.140456 C 18.528582,18.264221 13.291696,25.230495 11.500037,31.436501 z"
             style="fill:#404040;"/>
          </a>
         </g>
        </svg>
</svg>
