<?xml version="1.0" encoding="UTF-8" standalone="no"?>
<!DOCTYPE svg PUBLIC "-//W3C//DTD SVG 1.1//EN"
 "http://www.w3.org/Graphics/SVG/1.1/DTD/svg11.dtd">
<!-- Generated by graphviz version 2.43.0 (0)
 -->
<!-- Title: /home/runner/work/Simopticon/Simopticon/src/optimizer/direct/DirectTypes.h Pages: 1 -->
<!--zoomable 440 -->
<svg id="main" version="1.1" xmlns="http://www.w3.org/2000/svg" xmlns:xlink="http://www.w3.org/1999/xlink" xml:space="preserve" onload="init(evt)">
<style type="text/css"><![CDATA[
.edge:hover path { stroke: red; }
.edge:hover polygon { stroke: red; fill: red; }
]]></style>
<script type="text/javascript"><![CDATA[
var edges = document.getElementsByTagName('g');
if (edges && edges.length) {
  for (var i=0;i<edges.length;i++) {
    if (edges[i].id.substr(0,4)=='edge') {
      edges[i].setAttribute('class','edge');
    }
  }
}
]]></script>
        <defs>
                <circle id="rim" cx="0" cy="0" r="7"/>
                <circle id="rim2" cx="0" cy="0" r="3.5"/>
                <g id="zoomPlus">
                        <use xlink:href="#rim" fill="#404040">
                                <set attributeName="fill" to="#808080" begin="zoomplus.mouseover" end="zoomplus.mouseout"/>
                        </use>
                        <path d="M-4,0h8M0,-4v8" fill="none" stroke="white" stroke-width="1.5" pointer-events="none"/>
                </g>
                <g id="zoomMin">
                        <use xlink:href="#rim" fill="#404040">
                                <set attributeName="fill" to="#808080" begin="zoomminus.mouseover" end="zoomminus.mouseout"/>
                        </use>
                        <path d="M-4,0h8" fill="none" stroke="white" stroke-width="1.5" pointer-events="none"/>
                </g>
                <g id="dirArrow">
                        <path fill="none" stroke="white" stroke-width="1.5" d="M0,-3.0v7 M-2.5,-0.5L0,-3.0L2.5,-0.5"/>
                </g>
               <g id="resetDef">
                       <use xlink:href="#rim2" fill="#404040">
                               <set attributeName="fill" to="#808080" begin="reset.mouseover" end="reset.mouseout"/>
                       </use>
               </g>
        </defs>

<script type="text/javascript">
var viewWidth = 1546;
var viewHeight = 440;
var sectionId = 'dynsection-0';
</script>
<script xlink:href="svgpan.js"/>
<svg id="graph" class="graph">
<g id="viewport">
<title>/home/runner/work/Simopticon/Simopticon/src/optimizer/direct/DirectTypes.h</title>
<polygon fill="white" stroke="transparent" points="-4,4 -4,-436 1542.01,-436 1542.01,4 -4,4"/>
<!-- Node1 -->
<g id="node1" class="node">
<title>Node1</title>
<g id="a_node1"><a xlink:title="In this file, types are defined which are used in the direct module.">
<polygon fill="#bfbfbf" stroke="black" points="712.51,-390.5 712.51,-431.5 879.51,-431.5 879.51,-390.5 712.51,-390.5"/>
<text text-anchor="start" x="720.51" y="-419.5" font-family="Helvetica,sans-Serif" font-size="10.00">/home/runner/work/Simopticon</text>
<text text-anchor="start" x="720.51" y="-408.5" font-family="Helvetica,sans-Serif" font-size="10.00">/Simopticon/src/optimizer</text>
<text text-anchor="middle" x="796.01" y="-397.5" font-family="Helvetica,sans-Serif" font-size="10.00">/direct/DirectTypes.h</text>
</a>
</g>
</g>
<!-- Node2 -->
<g id="node2" class="node">
<title>Node2</title>
<g id="a_node2"><a xlink:href="StubController_8h.xhtml" target="_top" xlink:title="In this file, the header of the StubController class is defined.">
<polygon fill="white" stroke="black" points="110.51,-312.5 110.51,-353.5 277.51,-353.5 277.51,-312.5 110.51,-312.5"/>
<text text-anchor="start" x="118.51" y="-341.5" font-family="Helvetica,sans-Serif" font-size="10.00">/home/runner/work/Simopticon</text>
<text text-anchor="start" x="118.51" y="-330.5" font-family="Helvetica,sans-Serif" font-size="10.00">/Simopticon/src/controller</text>
<text text-anchor="middle" x="194.01" y="-319.5" font-family="Helvetica,sans-Serif" font-size="10.00">/StubController.h</text>
</a>
</g>
</g>
<!-- Node1&#45;&gt;Node2 -->
<g id="edge1" class="edge">
<title>Node1&#45;&gt;Node2</title>
<path fill="none" stroke="midnightblue" d="M702.35,-398.18C586.09,-383.5 389.55,-358.69 277.97,-344.6"/>
<polygon fill="midnightblue" stroke="midnightblue" points="701.95,-401.65 712.31,-399.43 702.82,-394.71 701.95,-401.65"/>
</g>
<!-- Node6 -->
<g id="node6" class="node">
<title>Node6</title>
<g id="a_node6"><a xlink:href="DirectOptimizer_8h.xhtml" target="_top" xlink:title="In this file, the header of the DirectOptimizer class is defined.">
<polygon fill="white" stroke="black" points="601.51,-78.5 601.51,-119.5 768.51,-119.5 768.51,-78.5 601.51,-78.5"/>
<text text-anchor="start" x="609.51" y="-107.5" font-family="Helvetica,sans-Serif" font-size="10.00">/home/runner/work/Simopticon</text>
<text text-anchor="start" x="609.51" y="-96.5" font-family="Helvetica,sans-Serif" font-size="10.00">/Simopticon/src/optimizer</text>
<text text-anchor="middle" x="685.01" y="-85.5" font-family="Helvetica,sans-Serif" font-size="10.00">/direct/DirectOptimizer.h</text>
</a>
</g>
</g>
<!-- Node1&#45;&gt;Node6 -->
<g id="edge5" class="edge">
<title>Node1&#45;&gt;Node6</title>
<path fill="none" stroke="midnightblue" d="M889.91,-406.94C1036.88,-401.23 1314.08,-386.44 1407.01,-354 1477.93,-329.25 1570.04,-294.85 1526.01,-234 1438.31,-112.8 963.7,-99.48 768.71,-99.22"/>
<polygon fill="midnightblue" stroke="midnightblue" points="889.42,-403.46 879.56,-407.34 889.68,-410.45 889.42,-403.46"/>
</g>
<!-- Node8 -->
<g id="node8" class="node">
<title>Node8</title>
<g id="a_node8"><a xlink:href="HyRect_8h.xhtml" target="_top" xlink:title="In this file, the header of the HyRect class is defined.">
<polygon fill="white" stroke="black" points="712.51,-312.5 712.51,-353.5 879.51,-353.5 879.51,-312.5 712.51,-312.5"/>
<text text-anchor="start" x="720.51" y="-341.5" font-family="Helvetica,sans-Serif" font-size="10.00">/home/runner/work/Simopticon</text>
<text text-anchor="start" x="720.51" y="-330.5" font-family="Helvetica,sans-Serif" font-size="10.00">/Simopticon/src/optimizer</text>
<text text-anchor="middle" x="796.01" y="-319.5" font-family="Helvetica,sans-Serif" font-size="10.00">/direct/hyrect/HyRect.h</text>
</a>
</g>
</g>
<!-- Node1&#45;&gt;Node8 -->
<g id="edge8" class="edge">
<title>Node1&#45;&gt;Node8</title>
<path fill="none" stroke="midnightblue" d="M796.01,-380.3C796.01,-371.3 796.01,-361.65 796.01,-353.51"/>
<polygon fill="midnightblue" stroke="midnightblue" points="792.51,-380.43 796.01,-390.43 799.51,-380.43 792.51,-380.43"/>
</g>
<!-- Node10 -->
<g id="node10" class="node">
<title>Node10</title>
<g id="a_node10"><a xlink:href="Levels_8h.xhtml" target="_top" xlink:title="In this file, the header of the Levels class is defined.">
<polygon fill="white" stroke="black" points="452.51,-156.5 452.51,-197.5 619.51,-197.5 619.51,-156.5 452.51,-156.5"/>
<text text-anchor="start" x="460.51" y="-185.5" font-family="Helvetica,sans-Serif" font-size="10.00">/home/runner/work/Simopticon</text>
<text text-anchor="start" x="460.51" y="-174.5" font-family="Helvetica,sans-Serif" font-size="10.00">/Simopticon/src/optimizer</text>
<text text-anchor="middle" x="536.01" y="-163.5" font-family="Helvetica,sans-Serif" font-size="10.00">/direct/Levels.h</text>
</a>
</g>
</g>
<!-- Node1&#45;&gt;Node10 -->
<g id="edge27" class="edge">
<title>Node1&#45;&gt;Node10</title>
<path fill="none" stroke="midnightblue" d="M702.25,-401.69C621.4,-389 509.24,-356.96 454.01,-276 443.49,-260.58 445.29,-250.51 454.01,-234 462.22,-218.45 476.91,-206.4 491.6,-197.53"/>
<polygon fill="midnightblue" stroke="midnightblue" points="702.03,-405.2 712.44,-403.21 703.07,-398.27 702.03,-405.2"/>
</g>
<!-- Node18 -->
<g id="node18" class="node">
<title>Node18</title>
<g id="a_node18"><a xlink:href="ParameterNormalizer_8h.xhtml" target="_top" xlink:title="In this file, the header of the ParameterNormalizer class is defined.">
<polygon fill="white" stroke="black" points="1231.51,-312.5 1231.51,-353.5 1398.51,-353.5 1398.51,-312.5 1231.51,-312.5"/>
<text text-anchor="start" x="1239.51" y="-341.5" font-family="Helvetica,sans-Serif" font-size="10.00">/home/runner/work/Simopticon</text>
<text text-anchor="start" x="1239.51" y="-330.5" font-family="Helvetica,sans-Serif" font-size="10.00">/Simopticon/src/optimizer</text>
<text text-anchor="middle" x="1315.01" y="-319.5" font-family="Helvetica,sans-Serif" font-size="10.00">/direct/ParameterNormalizer.h</text>
</a>
</g>
</g>
<!-- Node1&#45;&gt;Node18 -->
<g id="edge24" class="edge">
<title>Node1&#45;&gt;Node18</title>
<path fill="none" stroke="midnightblue" d="M889.82,-396.26C987.21,-382 1138.11,-359.9 1231.5,-346.23"/>
<polygon fill="midnightblue" stroke="midnightblue" points="889.07,-392.84 879.69,-397.75 890.09,-399.76 889.07,-392.84"/>
</g>
<!-- Node3 -->
<g id="node3" class="node">
<title>Node3</title>
<g id="a_node3"><a xlink:href="StubController_8cpp.xhtml" target="_top" xlink:title="In this file, the implementation of the StubController class is defined.">
<polygon fill="white" stroke="black" points="202.51,-234.5 202.51,-275.5 369.51,-275.5 369.51,-234.5 202.51,-234.5"/>
<text text-anchor="start" x="210.51" y="-263.5" font-family="Helvetica,sans-Serif" font-size="10.00">/home/runner/work/Simopticon</text>
<text text-anchor="start" x="210.51" y="-252.5" font-family="Helvetica,sans-Serif" font-size="10.00">/Simopticon/src/controller</text>
<text text-anchor="middle" x="286.01" y="-241.5" font-family="Helvetica,sans-Serif" font-size="10.00">/StubController.cpp</text>
</a>
</g>
</g>
<!-- Node2&#45;&gt;Node3 -->
<g id="edge2" class="edge">
<title>Node2&#45;&gt;Node3</title>
<path fill="none" stroke="midnightblue" d="M225.75,-305.78C237.78,-295.84 251.25,-284.72 262.4,-275.51"/>
<polygon fill="midnightblue" stroke="midnightblue" points="223.18,-303.36 217.7,-312.43 227.64,-308.76 223.18,-303.36"/>
</g>
<!-- Node4 -->
<g id="node4" class="node">
<title>Node4</title>
<g id="a_node4"><a xlink:href="Controller_8cpp.xhtml" target="_top" xlink:title="In this file, the implementation of the Controller class is defined.">
<polygon fill="white" stroke="black" points="381.51,-0.5 381.51,-41.5 548.51,-41.5 548.51,-0.5 381.51,-0.5"/>
<text text-anchor="start" x="389.51" y="-29.5" font-family="Helvetica,sans-Serif" font-size="10.00">/home/runner/work/Simopticon</text>
<text text-anchor="start" x="389.51" y="-18.5" font-family="Helvetica,sans-Serif" font-size="10.00">/Simopticon/src/controller</text>
<text text-anchor="middle" x="465.01" y="-7.5" font-family="Helvetica,sans-Serif" font-size="10.00">/Controller.cpp</text>
</a>
</g>
</g>
<!-- Node2&#45;&gt;Node4 -->
<g id="edge3" class="edge">
<title>Node2&#45;&gt;Node4</title>
<path fill="none" stroke="midnightblue" d="M100.5,-314.65C60.34,-305.12 19.88,-291.97 8.01,-276 -3.12,-261.02 -2.03,-249.73 8.01,-234 90.38,-104.99 273.69,-53.3 381.45,-33.5"/>
<polygon fill="midnightblue" stroke="midnightblue" points="99.88,-318.1 110.41,-316.93 101.45,-311.28 99.88,-318.1"/>
</g>
<!-- Node5 -->
<g id="node5" class="node">
<title>Node5</title>
<g id="a_node5"><a xlink:href="main_8cpp.xhtml" target="_top" xlink:title="In this file, the main function running the Simopticon framework is defined.">
<polygon fill="white" stroke="black" points="17.51,-240 17.51,-270 184.51,-270 184.51,-240 17.51,-240"/>
<text text-anchor="start" x="25.51" y="-258" font-family="Helvetica,sans-Serif" font-size="10.00">/home/runner/work/Simopticon</text>
<text text-anchor="middle" x="101.01" y="-247" font-family="Helvetica,sans-Serif" font-size="10.00">/Simopticon/src/main.cpp</text>
</a>
</g>
</g>
<!-- Node2&#45;&gt;Node5 -->
<g id="edge4" class="edge">
<title>Node2&#45;&gt;Node5</title>
<path fill="none" stroke="midnightblue" d="M162.18,-305.99C147.53,-294.02 130.71,-280.27 118.42,-270.23"/>
<polygon fill="midnightblue" stroke="midnightblue" points="160.1,-308.81 170.06,-312.43 164.53,-303.39 160.1,-308.81"/>
</g>
<!-- Node6&#45;&gt;Node4 -->
<g id="edge6" class="edge">
<title>Node6&#45;&gt;Node4</title>
<path fill="none" stroke="midnightblue" d="M618.51,-75.03C587.54,-64.33 551.08,-51.73 521.47,-41.51"/>
<polygon fill="midnightblue" stroke="midnightblue" points="617.76,-78.47 628.36,-78.43 620.05,-71.85 617.76,-78.47"/>
</g>
<!-- Node7 -->
<g id="node7" class="node">
<title>Node7</title>
<g id="a_node7"><a xlink:href="DirectOptimizer_8cpp.xhtml" target="_top" xlink:title="In this file, the implementation of the DirectOptimizer class is defined.">
<polygon fill="white" stroke="black" points="821.51,-0.5 821.51,-41.5 988.51,-41.5 988.51,-0.5 821.51,-0.5"/>
<text text-anchor="start" x="829.51" y="-29.5" font-family="Helvetica,sans-Serif" font-size="10.00">/home/runner/work/Simopticon</text>
<text text-anchor="start" x="829.51" y="-18.5" font-family="Helvetica,sans-Serif" font-size="10.00">/Simopticon/src/optimizer</text>
<text text-anchor="middle" x="905.01" y="-7.5" font-family="Helvetica,sans-Serif" font-size="10.00">/direct/DirectOptimizer.cpp</text>
</a>
</g>
</g>
<!-- Node6&#45;&gt;Node7 -->
<g id="edge7" class="edge">
<title>Node6&#45;&gt;Node7</title>
<path fill="none" stroke="midnightblue" d="M751.51,-75.03C782.48,-64.33 818.94,-51.73 848.55,-41.51"/>
<polygon fill="midnightblue" stroke="midnightblue" points="749.98,-71.85 741.67,-78.43 752.26,-78.47 749.98,-71.85"/>
</g>
<!-- Node8&#45;&gt;Node6 -->
<g id="edge9" class="edge">
<title>Node8&#45;&gt;Node6</title>
<path fill="none" stroke="midnightblue" d="M736.24,-307.17C723.33,-299.09 711.13,-288.8 703.01,-276 671.83,-226.85 676.95,-154.03 681.71,-119.51"/>
<polygon fill="midnightblue" stroke="midnightblue" points="734.85,-310.41 745.26,-312.42 738.38,-304.37 734.85,-310.41"/>
</g>
<!-- Node9 -->
<g id="node9" class="node">
<title>Node9</title>
<g id="a_node9"><a xlink:href="DirectComparisonFunctions_8h.xhtml" target="_top" xlink:title="In this file, comparison functions are defined which are used in the direct module.">
<polygon fill="white" stroke="black" points="463.01,-234.5 463.01,-275.5 657.01,-275.5 657.01,-234.5 463.01,-234.5"/>
<text text-anchor="start" x="471.01" y="-263.5" font-family="Helvetica,sans-Serif" font-size="10.00">/home/runner/work/Simopticon</text>
<text text-anchor="start" x="471.01" y="-252.5" font-family="Helvetica,sans-Serif" font-size="10.00">/Simopticon/src/optimizer</text>
<text text-anchor="middle" x="560.01" y="-241.5" font-family="Helvetica,sans-Serif" font-size="10.00">/direct/DirectComparisonFunctions.h</text>
</a>
</g>
</g>
<!-- Node8&#45;&gt;Node9 -->
<g id="edge10" class="edge">
<title>Node8&#45;&gt;Node9</title>
<path fill="none" stroke="midnightblue" d="M725.53,-309.3C692.13,-298.55 652.62,-285.82 620.58,-275.51"/>
<polygon fill="midnightblue" stroke="midnightblue" points="724.64,-312.69 735.23,-312.43 726.79,-306.03 724.64,-312.69"/>
</g>
<!-- Node11 -->
<g id="node11" class="node">
<title>Node11</title>
<g id="a_node11"><a xlink:href="Levels_8cpp.xhtml" target="_top" xlink:title="In this file, the implementation of the Levels class is defined.">
<polygon fill="white" stroke="black" points="379.51,-78.5 379.51,-119.5 546.51,-119.5 546.51,-78.5 379.51,-78.5"/>
<text text-anchor="start" x="387.51" y="-107.5" font-family="Helvetica,sans-Serif" font-size="10.00">/home/runner/work/Simopticon</text>
<text text-anchor="start" x="387.51" y="-96.5" font-family="Helvetica,sans-Serif" font-size="10.00">/Simopticon/src/optimizer</text>
<text text-anchor="middle" x="463.01" y="-85.5" font-family="Helvetica,sans-Serif" font-size="10.00">/direct/Levels.cpp</text>
</a>
</g>
</g>
<!-- Node8&#45;&gt;Node11 -->
<g id="edge20" class="edge">
<title>Node8&#45;&gt;Node11</title>
<path fill="none" stroke="midnightblue" d="M702.13,-328.81C612.97,-323.7 487.68,-310.43 454.01,-276 412.94,-234 438.54,-156 453.9,-119.63"/>
<polygon fill="midnightblue" stroke="midnightblue" points="702.1,-332.31 712.27,-329.36 702.48,-325.32 702.1,-332.31"/>
</g>
<!-- Node12 -->
<g id="node12" class="node">
<title>Node12</title>
<g id="a_node12"><a xlink:href="BaseRect_8h.xhtml" target="_top" xlink:title="In this file, the header of the BaseRect class is defined.">
<polygon fill="white" stroke="black" points="1119.51,-234.5 1119.51,-275.5 1286.51,-275.5 1286.51,-234.5 1119.51,-234.5"/>
<text text-anchor="start" x="1127.51" y="-263.5" font-family="Helvetica,sans-Serif" font-size="10.00">/home/runner/work/Simopticon</text>
<text text-anchor="start" x="1127.51" y="-252.5" font-family="Helvetica,sans-Serif" font-size="10.00">/Simopticon/src/optimizer</text>
<text text-anchor="middle" x="1203.01" y="-241.5" font-family="Helvetica,sans-Serif" font-size="10.00">/direct/hyrect/BaseRect.h</text>
</a>
</g>
</g>
<!-- Node8&#45;&gt;Node12 -->
<g id="edge15" class="edge">
<title>Node8&#45;&gt;Node12</title>
<path fill="none" stroke="midnightblue" d="M889.75,-315.69C951.3,-304.82 1033.53,-290.02 1106.01,-276 1110.4,-275.15 1114.9,-274.27 1119.44,-273.37"/>
<polygon fill="midnightblue" stroke="midnightblue" points="888.9,-312.28 879.66,-317.46 890.12,-319.17 888.9,-312.28"/>
</g>
<!-- Node14 -->
<g id="node14" class="node">
<title>Node14</title>
<g id="a_node14"><a xlink:href="GrahamScan_8cpp.xhtml" target="_top" xlink:title="In this file, the implementation of the GrahamScan class is defined.">
<polygon fill="white" stroke="black" points="897.51,-234.5 897.51,-275.5 1064.51,-275.5 1064.51,-234.5 897.51,-234.5"/>
<text text-anchor="start" x="905.51" y="-263.5" font-family="Helvetica,sans-Serif" font-size="10.00">/home/runner/work/Simopticon</text>
<text text-anchor="start" x="905.51" y="-252.5" font-family="Helvetica,sans-Serif" font-size="10.00">/Simopticon/src/optimizer</text>
<text text-anchor="middle" x="981.01" y="-241.5" font-family="Helvetica,sans-Serif" font-size="10.00">/direct/GrahamScan.cpp</text>
</a>
</g>
</g>
<!-- Node8&#45;&gt;Node14 -->
<g id="edge18" class="edge">
<title>Node8&#45;&gt;Node14</title>
<path fill="none" stroke="midnightblue" d="M852.95,-308.61C878.77,-298 908.95,-285.6 933.53,-275.51"/>
<polygon fill="midnightblue" stroke="midnightblue" points="851.57,-305.39 843.65,-312.43 854.23,-311.87 851.57,-305.39"/>
</g>
<!-- Node15 -->
<g id="node15" class="node">
<title>Node15</title>
<g id="a_node15"><a xlink:href="HyRect_8cpp.xhtml" target="_top" xlink:title="In this file, the implementation of the HyRect class is defined.">
<polygon fill="white" stroke="black" points="897.51,-156.5 897.51,-197.5 1064.51,-197.5 1064.51,-156.5 897.51,-156.5"/>
<text text-anchor="start" x="905.51" y="-185.5" font-family="Helvetica,sans-Serif" font-size="10.00">/home/runner/work/Simopticon</text>
<text text-anchor="start" x="905.51" y="-174.5" font-family="Helvetica,sans-Serif" font-size="10.00">/Simopticon/src/optimizer</text>
<text text-anchor="middle" x="981.01" y="-163.5" font-family="Helvetica,sans-Serif" font-size="10.00">/direct/hyrect/HyRect.cpp</text>
</a>
</g>
</g>
<!-- Node8&#45;&gt;Node15 -->
<g id="edge19" class="edge">
<title>Node8&#45;&gt;Node15</title>
<path fill="none" stroke="midnightblue" d="M890.08,-325.51C961.07,-318.42 1050.03,-304.1 1073.01,-276 1084.83,-261.55 1082.16,-250.27 1073.01,-234 1064.12,-218.19 1048.76,-206.32 1033.11,-197.67"/>
<polygon fill="midnightblue" stroke="midnightblue" points="889.36,-322.06 879.75,-326.5 890.04,-329.03 889.36,-322.06"/>
</g>
<!-- Node16 -->
<g id="node16" class="node">
<title>Node16</title>
<g id="a_node16"><a xlink:href="ChildRect_8h.xhtml" target="_top" xlink:title="In this file, the header of the ChildRect class is defined.">
<polygon fill="white" stroke="black" points="712.51,-234.5 712.51,-275.5 879.51,-275.5 879.51,-234.5 712.51,-234.5"/>
<text text-anchor="start" x="720.51" y="-263.5" font-family="Helvetica,sans-Serif" font-size="10.00">/home/runner/work/Simopticon</text>
<text text-anchor="start" x="720.51" y="-252.5" font-family="Helvetica,sans-Serif" font-size="10.00">/Simopticon/src/optimizer</text>
<text text-anchor="middle" x="796.01" y="-241.5" font-family="Helvetica,sans-Serif" font-size="10.00">/direct/hyrect/ChildRect.h</text>
</a>
</g>
</g>
<!-- Node8&#45;&gt;Node16 -->
<g id="edge21" class="edge">
<title>Node8&#45;&gt;Node16</title>
<path fill="none" stroke="midnightblue" d="M796.01,-302.3C796.01,-293.3 796.01,-283.65 796.01,-275.51"/>
<polygon fill="midnightblue" stroke="midnightblue" points="792.51,-302.43 796.01,-312.43 799.51,-302.43 792.51,-302.43"/>
</g>
<!-- Node9&#45;&gt;Node6 -->
<g id="edge11" class="edge">
<title>Node9&#45;&gt;Node6</title>
<path fill="none" stroke="midnightblue" d="M596.32,-228.05C607.25,-219.24 618.78,-208.87 628.01,-198 648.79,-173.55 666.21,-140.51 676.13,-119.72"/>
<polygon fill="midnightblue" stroke="midnightblue" points="593.85,-225.54 588.14,-234.46 598.17,-231.05 593.85,-225.54"/>
</g>
<!-- Node9&#45;&gt;Node10 -->
<g id="edge12" class="edge">
<title>Node9&#45;&gt;Node10</title>
<path fill="none" stroke="midnightblue" d="M550.82,-224.88C547.92,-215.72 544.8,-205.83 542.17,-197.51"/>
<polygon fill="midnightblue" stroke="midnightblue" points="547.48,-225.95 553.83,-234.43 554.16,-223.84 547.48,-225.95"/>
</g>
<!-- Node10&#45;&gt;Node6 -->
<g id="edge13" class="edge">
<title>Node10&#45;&gt;Node6</title>
<path fill="none" stroke="midnightblue" d="M583.52,-151.77C603.94,-141.35 627.5,-129.34 646.77,-119.51"/>
<polygon fill="midnightblue" stroke="midnightblue" points="581.7,-148.77 574.38,-156.43 584.88,-155 581.7,-148.77"/>
</g>
<!-- Node10&#45;&gt;Node11 -->
<g id="edge14" class="edge">
<title>Node10&#45;&gt;Node11</title>
<path fill="none" stroke="midnightblue" d="M510.27,-149.2C500.87,-139.42 490.42,-128.54 481.75,-119.51"/>
<polygon fill="midnightblue" stroke="midnightblue" points="507.76,-151.64 517.21,-156.43 512.81,-146.79 507.76,-151.64"/>
</g>
<!-- Node12&#45;&gt;Node7 -->
<g id="edge16" class="edge">
<title>Node12&#45;&gt;Node7</title>
<path fill="none" stroke="midnightblue" d="M1237.29,-227.47C1245.66,-219.05 1253.5,-209.02 1258.01,-198 1265.08,-180.72 1268.61,-171.36 1258.01,-156 1197.79,-68.73 1072.75,-38.25 988.83,-27.63"/>
<polygon fill="midnightblue" stroke="midnightblue" points="1234.76,-225.04 1229.87,-234.44 1239.55,-230.15 1234.76,-225.04"/>
</g>
<!-- Node13 -->
<g id="node13" class="node">
<title>Node13</title>
<g id="a_node13"><a xlink:href="BaseRect_8cpp.xhtml" target="_top" xlink:title="In this file, the implementation of the BaseRect class is defined.">
<polygon fill="white" stroke="black" points="1082.51,-156.5 1082.51,-197.5 1249.51,-197.5 1249.51,-156.5 1082.51,-156.5"/>
<text text-anchor="start" x="1090.51" y="-185.5" font-family="Helvetica,sans-Serif" font-size="10.00">/home/runner/work/Simopticon</text>
<text text-anchor="start" x="1090.51" y="-174.5" font-family="Helvetica,sans-Serif" font-size="10.00">/Simopticon/src/optimizer</text>
<text text-anchor="middle" x="1166.01" y="-163.5" font-family="Helvetica,sans-Serif" font-size="10.00">/direct/hyrect/BaseRect.cpp</text>
</a>
</g>
</g>
<!-- Node12&#45;&gt;Node13 -->
<g id="edge17" class="edge">
<title>Node12&#45;&gt;Node13</title>
<path fill="none" stroke="midnightblue" d="M1188.98,-225.17C1184.48,-215.93 1179.6,-205.92 1175.51,-197.51"/>
<polygon fill="midnightblue" stroke="midnightblue" points="1185.96,-226.97 1193.48,-234.43 1192.25,-223.9 1185.96,-226.97"/>
</g>
<!-- Node16&#45;&gt;Node15 -->
<g id="edge23" class="edge">
<title>Node16&#45;&gt;Node15</title>
<path fill="none" stroke="midnightblue" d="M852.95,-230.61C878.77,-220 908.95,-207.6 933.53,-197.51"/>
<polygon fill="midnightblue" stroke="midnightblue" points="851.57,-227.39 843.65,-234.43 854.23,-233.87 851.57,-227.39"/>
</g>
<!-- Node17 -->
<g id="node17" class="node">
<title>Node17</title>
<g id="a_node17"><a xlink:href="ChildRect_8cpp.xhtml" target="_top" xlink:title="In this file, the implementation of the ChildRect class is defined.">
<polygon fill="white" stroke="black" points="712.51,-156.5 712.51,-197.5 879.51,-197.5 879.51,-156.5 712.51,-156.5"/>
<text text-anchor="start" x="720.51" y="-185.5" font-family="Helvetica,sans-Serif" font-size="10.00">/home/runner/work/Simopticon</text>
<text text-anchor="start" x="720.51" y="-174.5" font-family="Helvetica,sans-Serif" font-size="10.00">/Simopticon/src/optimizer</text>
<text text-anchor="middle" x="796.01" y="-163.5" font-family="Helvetica,sans-Serif" font-size="10.00">/direct/hyrect/ChildRect.cpp</text>
</a>
</g>
</g>
<!-- Node16&#45;&gt;Node17 -->
<g id="edge22" class="edge">
<title>Node16&#45;&gt;Node17</title>
<path fill="none" stroke="midnightblue" d="M796.01,-224.3C796.01,-215.3 796.01,-205.65 796.01,-197.51"/>
<polygon fill="midnightblue" stroke="midnightblue" points="792.51,-224.43 796.01,-234.43 799.51,-224.43 792.51,-224.43"/>
</g>
<!-- Node18&#45;&gt;Node6 -->
<g id="edge25" class="edge">
<title>Node18&#45;&gt;Node6</title>
<path fill="none" stroke="midnightblue" d="M1315.39,-302.15C1314.08,-261.19 1304.81,-188.89 1258.01,-156 1218.89,-128.5 918.04,-110.82 768.64,-103.65"/>
<polygon fill="midnightblue" stroke="midnightblue" points="1311.89,-302.4 1315.57,-312.34 1318.89,-302.27 1311.89,-302.4"/>
</g>
<!-- Node19 -->
<g id="node19" class="node">
<title>Node19</title>
<g id="a_node19"><a xlink:href="ParameterNormalizer_8cpp.xhtml" target="_top" xlink:title="In this file, the implementation of the ParameterNormalizer class is defined.">
<polygon fill="white" stroke="black" points="1343.01,-234.5 1343.01,-275.5 1517.01,-275.5 1517.01,-234.5 1343.01,-234.5"/>
<text text-anchor="start" x="1351.01" y="-263.5" font-family="Helvetica,sans-Serif" font-size="10.00">/home/runner/work/Simopticon</text>
<text text-anchor="start" x="1351.01" y="-252.5" font-family="Helvetica,sans-Serif" font-size="10.00">/Simopticon/src/optimizer</text>
<text text-anchor="middle" x="1430.01" y="-241.5" font-family="Helvetica,sans-Serif" font-size="10.00">/direct/ParameterNormalizer.cpp</text>
</a>
</g>
</g>
<!-- Node18&#45;&gt;Node19 -->
<g id="edge26" class="edge">
<title>Node18&#45;&gt;Node19</title>
<path fill="none" stroke="midnightblue" d="M1353.39,-306.64C1368.75,-296.49 1386.16,-284.98 1400.5,-275.51"/>
<polygon fill="midnightblue" stroke="midnightblue" points="1351.04,-303.99 1344.63,-312.43 1354.9,-309.83 1351.04,-303.99"/>
</g>
</g>
</svg>
        <g id="navigator" transform="translate(0 0)" fill="#404254">
                <rect fill="#f2f5e9" fill-opacity="0.5" stroke="#606060" stroke-width=".5" x="0" y="0" width="60" height="60"/>
                <use id="zoomplus" xlink:href="#zoomPlus" x="17" y="9" onmousedown="handleZoom(evt,'in')"/>
                <use id="zoomminus" xlink:href="#zoomMin" x="42" y="9" onmousedown="handleZoom(evt,'out')"/>
                <use id="reset" xlink:href="#resetDef" x="30" y="36" onmousedown="handleReset()"/>
                <g id="arrowUp" xlink:href="#dirArrow" transform="translate(30 24)" onmousedown="handlePan(0,-1)">
                  <use xlink:href="#rim" fill="#404040">
                        <set attributeName="fill" to="#808080" begin="arrowUp.mouseover" end="arrowUp.mouseout"/>
                  </use>
                  <path fill="none" stroke="white" stroke-width="1.5" d="M0,-3.0v7 M-2.5,-0.5L0,-3.0L2.5,-0.5"/>
                </g>
                <g id="arrowRight" xlink:href="#dirArrow" transform="rotate(90) translate(36 -43)" onmousedown="handlePan(1,0)">
                  <use xlink:href="#rim" fill="#404040">
                        <set attributeName="fill" to="#808080" begin="arrowRight.mouseover" end="arrowRight.mouseout"/>
                  </use>
                  <path fill="none" stroke="white" stroke-width="1.5" d="M0,-3.0v7 M-2.5,-0.5L0,-3.0L2.5,-0.5"/>
                </g>
                <g id="arrowDown" xlink:href="#dirArrow" transform="rotate(180) translate(-30 -48)" onmousedown="handlePan(0,1)">
                  <use xlink:href="#rim" fill="#404040">
                        <set attributeName="fill" to="#808080" begin="arrowDown.mouseover" end="arrowDown.mouseout"/>
                  </use>
                  <path fill="none" stroke="white" stroke-width="1.5" d="M0,-3.0v7 M-2.5,-0.5L0,-3.0L2.5,-0.5"/>
                </g>
                <g id="arrowLeft" xlink:href="#dirArrow" transform="rotate(270) translate(-36 17)" onmousedown="handlePan(-1,0)">
                  <use xlink:href="#rim" fill="#404040">
                        <set attributeName="fill" to="#808080" begin="arrowLeft.mouseover" end="arrowLeft.mouseout"/>
                  </use>
                  <path fill="none" stroke="white" stroke-width="1.5" d="M0,-3.0v7 M-2.5,-0.5L0,-3.0L2.5,-0.5"/>
                </g>
        </g>
        <svg viewBox="0 0 15 15" width="100%" height="30px" preserveAspectRatio="xMaxYMin meet">
         <g id="arrow_out" transform="scale(0.3 0.3)">
          <a xlink:href="DirectTypes_8h__dep__incl_org.svg" target="_base">
           <rect id="button" ry="5" rx="5" y="6" x="6" height="38" width="38"
                fill="#f2f5e9" fill-opacity="0.5" stroke="#606060" stroke-width="1.0"/>
           <path id="arrow"
             d="M 11.500037,31.436501 C 11.940474,20.09759 22.043105,11.32322 32.158766,21.979434 L 37.068811,17.246167 C 37.068811,17.246167 37.088388,32 37.088388,32 L 22.160133,31.978069 C 22.160133,31.978069 26.997745,27.140456 26.997745,27.140456 C 18.528582,18.264221 13.291696,25.230495 11.500037,31.436501 z"
             style="fill:#404040;"/>
          </a>
         </g>
        </svg>
</svg>
