<?xml version="1.0" encoding="UTF-8" standalone="no"?>
<!DOCTYPE svg PUBLIC "-//W3C//DTD SVG 1.1//EN"
 "http://www.w3.org/Graphics/SVG/1.1/DTD/svg11.dtd">
<!-- Generated by graphviz version 2.43.0 (0)
 -->
<!-- Title: /home/runner/work/Simopticon/Simopticon/src/optimizer/direct/DirectStoppingCondition.h Pages: 1 -->
<svg width="392pt" height="218pt"
 viewBox="0.00 0.00 391.50 218.00" xmlns="http://www.w3.org/2000/svg" xmlns:xlink="http://www.w3.org/1999/xlink">
<g id="graph0" class="graph" transform="scale(1 1) rotate(0) translate(4 214)">
<title>/home/runner/work/Simopticon/Simopticon/src/optimizer/direct/DirectStoppingCondition.h</title>
<polygon fill="white" stroke="transparent" points="-4,4 -4,-214 387.5,-214 387.5,4 -4,4"/>
<!-- Node1 -->
<g id="node1" class="node">
<title>Node1</title>
<g id="a_node1"><a xlink:title="In this file, the header of the StoppingCondition class is defined.">
<polygon fill="#bfbfbf" stroke="black" points="138,-168.5 138,-209.5 316,-209.5 316,-168.5 138,-168.5"/>
<text text-anchor="start" x="146" y="-197.5" font-family="Helvetica,sans-Serif" font-size="10.00">/home/runner/work/Simopticon</text>
<text text-anchor="start" x="146" y="-186.5" font-family="Helvetica,sans-Serif" font-size="10.00">/Simopticon/src/optimizer</text>
<text text-anchor="middle" x="227" y="-175.5" font-family="Helvetica,sans-Serif" font-size="10.00">/direct/DirectStoppingCondition.h</text>
</a>
</g>
</g>
<!-- Node2 -->
<g id="node2" class="node">
<title>Node2</title>
<g id="a_node2"><a xlink:href="Types_8h.xhtml" target="_top" xlink:title="In this file, types are defined which should be used across the whole framework.">
<polygon fill="white" stroke="black" points="50.5,-56.5 50.5,-75.5 121.5,-75.5 121.5,-56.5 50.5,-56.5"/>
<text text-anchor="middle" x="86" y="-63.5" font-family="Helvetica,sans-Serif" font-size="10.00">../../Types.h</text>
</a>
</g>
</g>
<!-- Node1&#45;&gt;Node2 -->
<g id="edge1" class="edge">
<title>Node1&#45;&gt;Node2</title>
<path fill="none" stroke="midnightblue" d="M197.62,-168.34C182.89,-158.06 165.03,-144.94 150,-132 132.11,-116.59 113.36,-97.09 100.81,-83.49"/>
<polygon fill="midnightblue" stroke="midnightblue" points="103.19,-80.9 93.86,-75.87 98.01,-85.61 103.19,-80.9"/>
</g>
<!-- Node6 -->
<g id="node6" class="node">
<title>Node6</title>
<g id="a_node6"><a xlink:title=" ">
<polygon fill="white" stroke="#bfbfbf" points="140,-56.5 140,-75.5 250,-75.5 250,-56.5 140,-56.5"/>
<text text-anchor="middle" x="195" y="-63.5" font-family="Helvetica,sans-Serif" font-size="10.00">nlohmann/json.hpp</text>
</a>
</g>
</g>
<!-- Node1&#45;&gt;Node6 -->
<g id="edge5" class="edge">
<title>Node1&#45;&gt;Node6</title>
<path fill="none" stroke="midnightblue" d="M189.92,-168.27C176.68,-159.15 163.26,-146.97 156,-132 147.46,-114.38 162.02,-95.28 175.72,-82.38"/>
<polygon fill="midnightblue" stroke="midnightblue" points="178.29,-84.78 183.5,-75.56 173.67,-79.52 178.29,-84.78"/>
</g>
<!-- Node7 -->
<g id="node7" class="node">
<title>Node7</title>
<g id="a_node7"><a xlink:href="StoppingCondition_8h.xhtml" target="_top" xlink:title="In this file, the header of the StoppingCondition class is defined.">
<polygon fill="white" stroke="black" points="165,-112.5 165,-131.5 289,-131.5 289,-112.5 165,-112.5"/>
<text text-anchor="middle" x="227" y="-119.5" font-family="Helvetica,sans-Serif" font-size="10.00">../StoppingCondition.h</text>
</a>
</g>
</g>
<!-- Node1&#45;&gt;Node7 -->
<g id="edge6" class="edge">
<title>Node1&#45;&gt;Node7</title>
<path fill="none" stroke="midnightblue" d="M227,-168.5C227,-160.07 227,-150.24 227,-141.87"/>
<polygon fill="midnightblue" stroke="midnightblue" points="230.5,-141.65 227,-131.65 223.5,-141.65 230.5,-141.65"/>
</g>
<!-- Node8 -->
<g id="node8" class="node">
<title>Node8</title>
<g id="a_node8"><a xlink:title=" ">
<polygon fill="white" stroke="#bfbfbf" points="268,-56.5 268,-75.5 318,-75.5 318,-56.5 268,-56.5"/>
<text text-anchor="middle" x="293" y="-63.5" font-family="Helvetica,sans-Serif" font-size="10.00">chrono</text>
</a>
</g>
</g>
<!-- Node1&#45;&gt;Node8 -->
<g id="edge11" class="edge">
<title>Node1&#45;&gt;Node8</title>
<path fill="none" stroke="midnightblue" d="M264.08,-168.27C277.32,-159.15 290.74,-146.97 298,-132 305.09,-117.37 302.65,-98.7 299.15,-85.13"/>
<polygon fill="midnightblue" stroke="midnightblue" points="302.49,-84.08 296.26,-75.51 295.78,-86.09 302.49,-84.08"/>
</g>
<!-- Node9 -->
<g id="node9" class="node">
<title>Node9</title>
<g id="a_node9"><a xlink:title=" ">
<polygon fill="white" stroke="#bfbfbf" points="336.5,-56.5 336.5,-75.5 383.5,-75.5 383.5,-56.5 336.5,-56.5"/>
<text text-anchor="middle" x="360" y="-63.5" font-family="Helvetica,sans-Serif" font-size="10.00">cmath</text>
</a>
</g>
</g>
<!-- Node1&#45;&gt;Node9 -->
<g id="edge12" class="edge">
<title>Node1&#45;&gt;Node9</title>
<path fill="none" stroke="midnightblue" d="M264.89,-168.38C281.38,-158.76 300.25,-146.19 315,-132 329.49,-118.07 342.13,-98.8 350.29,-84.87"/>
<polygon fill="midnightblue" stroke="midnightblue" points="353.53,-86.24 355.41,-75.81 347.44,-82.8 353.53,-86.24"/>
</g>
<!-- Node3 -->
<g id="node3" class="node">
<title>Node3</title>
<g id="a_node3"><a xlink:title=" ">
<polygon fill="white" stroke="#bfbfbf" points="0,-0.5 0,-19.5 44,-19.5 44,-0.5 0,-0.5"/>
<text text-anchor="middle" x="22" y="-7.5" font-family="Helvetica,sans-Serif" font-size="10.00">string</text>
</a>
</g>
</g>
<!-- Node2&#45;&gt;Node3 -->
<g id="edge2" class="edge">
<title>Node2&#45;&gt;Node3</title>
<path fill="none" stroke="midnightblue" d="M75.72,-56.32C66.16,-48.26 51.72,-36.08 40.22,-26.37"/>
<polygon fill="midnightblue" stroke="midnightblue" points="42.37,-23.61 32.47,-19.83 37.86,-28.96 42.37,-23.61"/>
</g>
<!-- Node4 -->
<g id="node4" class="node">
<title>Node4</title>
<g id="a_node4"><a xlink:title=" ">
<polygon fill="white" stroke="#bfbfbf" points="62.5,-0.5 62.5,-19.5 109.5,-19.5 109.5,-0.5 62.5,-0.5"/>
<text text-anchor="middle" x="86" y="-7.5" font-family="Helvetica,sans-Serif" font-size="10.00">vector</text>
</a>
</g>
</g>
<!-- Node2&#45;&gt;Node4 -->
<g id="edge3" class="edge">
<title>Node2&#45;&gt;Node4</title>
<path fill="none" stroke="midnightblue" d="M86,-56.08C86,-49.01 86,-38.86 86,-29.99"/>
<polygon fill="midnightblue" stroke="midnightblue" points="89.5,-29.75 86,-19.75 82.5,-29.75 89.5,-29.75"/>
</g>
<!-- Node5 -->
<g id="node5" class="node">
<title>Node5</title>
<g id="a_node5"><a xlink:title=" ">
<polygon fill="white" stroke="#bfbfbf" points="128,-0.5 128,-19.5 186,-19.5 186,-0.5 128,-0.5"/>
<text text-anchor="middle" x="157" y="-7.5" font-family="Helvetica,sans-Serif" font-size="10.00">memory</text>
</a>
</g>
</g>
<!-- Node2&#45;&gt;Node5 -->
<g id="edge4" class="edge">
<title>Node2&#45;&gt;Node5</title>
<path fill="none" stroke="midnightblue" d="M97.41,-56.32C108.11,-48.18 124.34,-35.84 137.16,-26.09"/>
<polygon fill="midnightblue" stroke="midnightblue" points="139.54,-28.67 145.39,-19.83 135.31,-23.1 139.54,-28.67"/>
</g>
<!-- Node7&#45;&gt;Node2 -->
<g id="edge7" class="edge">
<title>Node7&#45;&gt;Node2</title>
<path fill="none" stroke="midnightblue" d="M204.66,-112.44C181.25,-103.48 144.26,-89.31 117.81,-79.18"/>
<polygon fill="midnightblue" stroke="midnightblue" points="118.83,-75.82 108.24,-75.52 116.32,-82.36 118.83,-75.82"/>
</g>
<!-- Node7&#45;&gt;Node6 -->
<g id="edge8" class="edge">
<title>Node7&#45;&gt;Node6</title>
<path fill="none" stroke="midnightblue" d="M221.72,-112.08C217.29,-104.61 210.84,-93.72 205.38,-84.52"/>
<polygon fill="midnightblue" stroke="midnightblue" points="208.29,-82.57 200.19,-75.75 202.27,-86.14 208.29,-82.57"/>
</g>
<!-- Node7&#45;&gt;Node8 -->
<g id="edge9" class="edge">
<title>Node7&#45;&gt;Node8</title>
<path fill="none" stroke="midnightblue" d="M237.6,-112.32C247.46,-104.26 262.35,-92.08 274.22,-82.37"/>
<polygon fill="midnightblue" stroke="midnightblue" points="276.68,-84.88 282.2,-75.83 272.25,-79.46 276.68,-84.88"/>
</g>
<!-- Node7&#45;&gt;Node9 -->
<g id="edge10" class="edge">
<title>Node7&#45;&gt;Node9</title>
<path fill="none" stroke="midnightblue" d="M248.07,-112.44C270.06,-103.52 304.73,-89.44 329.66,-79.32"/>
<polygon fill="midnightblue" stroke="midnightblue" points="331.08,-82.52 339.02,-75.52 328.44,-76.04 331.08,-82.52"/>
</g>
</g>
</svg>
