<?xml version="1.0" encoding="UTF-8" standalone="no"?>
<!DOCTYPE svg PUBLIC "-//W3C//DTD SVG 1.1//EN"
 "http://www.w3.org/Graphics/SVG/1.1/DTD/svg11.dtd">
<!-- Generated by graphviz version 2.43.0 (0)
 -->
<!-- Title: src/parameters/DiscreteParameter.cpp Pages: 1 -->
<svg width="364pt" height="252pt"
 viewBox="0.00 0.00 363.50 252.00" xmlns="http://www.w3.org/2000/svg" xmlns:xlink="http://www.w3.org/1999/xlink">
<g id="graph0" class="graph" transform="scale(1 1) rotate(0) translate(4 248)">
<title>src/parameters/DiscreteParameter.cpp</title>
<polygon fill="white" stroke="transparent" points="-4,4 -4,-248 359.5,-248 359.5,4 -4,4"/>
<!-- Node1 -->
<g id="node1" class="node">
<title>Node1</title>
<g id="a_node1"><a xlink:title="In this file, the implementation of the DiscreteParameter class is defined.">
<polygon fill="#bfbfbf" stroke="black" points="121.5,-224.5 121.5,-243.5 324.5,-243.5 324.5,-224.5 121.5,-224.5"/>
<text text-anchor="middle" x="223" y="-231.5" font-family="Helvetica,sans-Serif" font-size="10.00">src/parameters/DiscreteParameter.cpp</text>
</a>
</g>
</g>
<!-- Node2 -->
<g id="node2" class="node">
<title>Node2</title>
<g id="a_node2"><a xlink:href="DiscreteParameter_8h.xhtml" target="_top" xlink:title="In this file, the header of the DiscreteParameter class is defined.">
<polygon fill="white" stroke="black" points="28,-168.5 28,-187.5 144,-187.5 144,-168.5 28,-168.5"/>
<text text-anchor="middle" x="86" y="-175.5" font-family="Helvetica,sans-Serif" font-size="10.00">DiscreteParameter.h</text>
</a>
</g>
</g>
<!-- Node1&#45;&gt;Node2 -->
<g id="edge1" class="edge">
<title>Node1&#45;&gt;Node2</title>
<path fill="none" stroke="midnightblue" d="M201.29,-224.44C178.65,-215.52 142.93,-201.44 117.25,-191.32"/>
<polygon fill="midnightblue" stroke="midnightblue" points="118.19,-187.93 107.61,-187.52 115.63,-194.44 118.19,-187.93"/>
</g>
<!-- Node8 -->
<g id="node8" class="node">
<title>Node8</title>
<g id="a_node8"><a xlink:title=" ">
<polygon fill="white" stroke="#bfbfbf" points="162.5,-168.5 162.5,-187.5 209.5,-187.5 209.5,-168.5 162.5,-168.5"/>
<text text-anchor="middle" x="186" y="-175.5" font-family="Helvetica,sans-Serif" font-size="10.00">cmath</text>
</a>
</g>
</g>
<!-- Node1&#45;&gt;Node8 -->
<g id="edge9" class="edge">
<title>Node1&#45;&gt;Node8</title>
<path fill="none" stroke="midnightblue" d="M216.89,-224.08C211.72,-216.53 204.15,-205.49 197.81,-196.23"/>
<polygon fill="midnightblue" stroke="midnightblue" points="200.54,-194.02 192,-187.75 194.76,-197.98 200.54,-194.02"/>
</g>
<!-- Node9 -->
<g id="node9" class="node">
<title>Node9</title>
<g id="a_node9"><a xlink:title=" ">
<polygon fill="white" stroke="#bfbfbf" points="227.5,-168.5 227.5,-187.5 292.5,-187.5 292.5,-168.5 227.5,-168.5"/>
<text text-anchor="middle" x="260" y="-175.5" font-family="Helvetica,sans-Serif" font-size="10.00">stdexcept</text>
</a>
</g>
</g>
<!-- Node1&#45;&gt;Node9 -->
<g id="edge10" class="edge">
<title>Node1&#45;&gt;Node9</title>
<path fill="none" stroke="midnightblue" d="M229.11,-224.08C234.28,-216.53 241.85,-205.49 248.19,-196.23"/>
<polygon fill="midnightblue" stroke="midnightblue" points="251.24,-197.98 254,-187.75 245.46,-194.02 251.24,-197.98"/>
</g>
<!-- Node10 -->
<g id="node10" class="node">
<title>Node10</title>
<g id="a_node10"><a xlink:title=" ">
<polygon fill="white" stroke="#bfbfbf" points="310.5,-168.5 310.5,-187.5 355.5,-187.5 355.5,-168.5 310.5,-168.5"/>
<text text-anchor="middle" x="333" y="-175.5" font-family="Helvetica,sans-Serif" font-size="10.00">utility</text>
</a>
</g>
</g>
<!-- Node1&#45;&gt;Node10 -->
<g id="edge11" class="edge">
<title>Node1&#45;&gt;Node10</title>
<path fill="none" stroke="midnightblue" d="M240.67,-224.32C258.39,-215.62 285.9,-202.12 306.29,-192.11"/>
<polygon fill="midnightblue" stroke="midnightblue" points="307.94,-195.2 315.37,-187.65 304.85,-188.92 307.94,-195.2"/>
</g>
<!-- Node3 -->
<g id="node3" class="node">
<title>Node3</title>
<g id="a_node3"><a xlink:href="Parameter_8h.xhtml" target="_top" xlink:title="In this file, the header of the Parameter class is defined.">
<polygon fill="white" stroke="black" points="48.5,-112.5 48.5,-131.5 123.5,-131.5 123.5,-112.5 48.5,-112.5"/>
<text text-anchor="middle" x="86" y="-119.5" font-family="Helvetica,sans-Serif" font-size="10.00">Parameter.h</text>
</a>
</g>
</g>
<!-- Node2&#45;&gt;Node3 -->
<g id="edge2" class="edge">
<title>Node2&#45;&gt;Node3</title>
<path fill="none" stroke="midnightblue" d="M86,-168.08C86,-161.01 86,-150.86 86,-141.99"/>
<polygon fill="midnightblue" stroke="midnightblue" points="89.5,-141.75 86,-131.75 82.5,-141.75 89.5,-141.75"/>
</g>
<!-- Node4 -->
<g id="node4" class="node">
<title>Node4</title>
<g id="a_node4"><a xlink:href="Types_8h.xhtml" target="_top" xlink:title="In this file, types are defined which should be used across the whole framework.">
<polygon fill="white" stroke="black" points="55,-56.5 55,-75.5 117,-75.5 117,-56.5 55,-56.5"/>
<text text-anchor="middle" x="86" y="-63.5" font-family="Helvetica,sans-Serif" font-size="10.00">../Types.h</text>
</a>
</g>
</g>
<!-- Node3&#45;&gt;Node4 -->
<g id="edge3" class="edge">
<title>Node3&#45;&gt;Node4</title>
<path fill="none" stroke="midnightblue" d="M86,-112.08C86,-105.01 86,-94.86 86,-85.99"/>
<polygon fill="midnightblue" stroke="midnightblue" points="89.5,-85.75 86,-75.75 82.5,-85.75 89.5,-85.75"/>
</g>
<!-- Node5 -->
<g id="node5" class="node">
<title>Node5</title>
<g id="a_node5"><a xlink:title=" ">
<polygon fill="white" stroke="#bfbfbf" points="0,-0.5 0,-19.5 44,-19.5 44,-0.5 0,-0.5"/>
<text text-anchor="middle" x="22" y="-7.5" font-family="Helvetica,sans-Serif" font-size="10.00">string</text>
</a>
</g>
</g>
<!-- Node3&#45;&gt;Node5 -->
<g id="edge7" class="edge">
<title>Node3&#45;&gt;Node5</title>
<path fill="none" stroke="midnightblue" d="M76.64,-112.49C67.74,-103.99 54.49,-90.16 46,-76 37.3,-61.49 30.92,-43.31 26.93,-29.87"/>
<polygon fill="midnightblue" stroke="midnightblue" points="30.2,-28.57 24.15,-19.87 23.46,-30.45 30.2,-28.57"/>
</g>
<!-- Node7 -->
<g id="node7" class="node">
<title>Node7</title>
<g id="a_node7"><a xlink:title=" ">
<polygon fill="white" stroke="#bfbfbf" points="128,-0.5 128,-19.5 186,-19.5 186,-0.5 128,-0.5"/>
<text text-anchor="middle" x="157" y="-7.5" font-family="Helvetica,sans-Serif" font-size="10.00">memory</text>
</a>
</g>
</g>
<!-- Node3&#45;&gt;Node7 -->
<g id="edge8" class="edge">
<title>Node3&#45;&gt;Node7</title>
<path fill="none" stroke="midnightblue" d="M95.08,-112.32C103.77,-103.68 116.87,-89.76 126,-76 135.82,-61.2 144.28,-42.82 149.88,-29.38"/>
<polygon fill="midnightblue" stroke="midnightblue" points="153.23,-30.41 153.72,-19.83 146.74,-27.8 153.23,-30.41"/>
</g>
<!-- Node4&#45;&gt;Node5 -->
<g id="edge4" class="edge">
<title>Node4&#45;&gt;Node5</title>
<path fill="none" stroke="midnightblue" d="M75.72,-56.32C66.16,-48.26 51.72,-36.08 40.22,-26.37"/>
<polygon fill="midnightblue" stroke="midnightblue" points="42.37,-23.61 32.47,-19.83 37.86,-28.96 42.37,-23.61"/>
</g>
<!-- Node6 -->
<g id="node6" class="node">
<title>Node6</title>
<g id="a_node6"><a xlink:title=" ">
<polygon fill="white" stroke="#bfbfbf" points="62.5,-0.5 62.5,-19.5 109.5,-19.5 109.5,-0.5 62.5,-0.5"/>
<text text-anchor="middle" x="86" y="-7.5" font-family="Helvetica,sans-Serif" font-size="10.00">vector</text>
</a>
</g>
</g>
<!-- Node4&#45;&gt;Node6 -->
<g id="edge5" class="edge">
<title>Node4&#45;&gt;Node6</title>
<path fill="none" stroke="midnightblue" d="M86,-56.08C86,-49.01 86,-38.86 86,-29.99"/>
<polygon fill="midnightblue" stroke="midnightblue" points="89.5,-29.75 86,-19.75 82.5,-29.75 89.5,-29.75"/>
</g>
<!-- Node4&#45;&gt;Node7 -->
<g id="edge6" class="edge">
<title>Node4&#45;&gt;Node7</title>
<path fill="none" stroke="midnightblue" d="M97.41,-56.32C108.11,-48.18 124.34,-35.84 137.16,-26.09"/>
<polygon fill="midnightblue" stroke="midnightblue" points="139.54,-28.67 145.39,-19.83 135.31,-23.1 139.54,-28.67"/>
</g>
</g>
</svg>
