<?xml version="1.0" encoding="UTF-8" standalone="no"?>
<!DOCTYPE svg PUBLIC "-//W3C//DTD SVG 1.1//EN"
 "http://www.w3.org/Graphics/SVG/1.1/DTD/svg11.dtd">
<!-- Generated by graphviz version 2.43.0 (0)
 -->
<!-- Title: src/parameters/DiscreteParameter.h Pages: 1 -->
<svg width="204pt" height="196pt"
 viewBox="0.00 0.00 204.00 196.00" xmlns="http://www.w3.org/2000/svg" xmlns:xlink="http://www.w3.org/1999/xlink">
<g id="graph0" class="graph" transform="scale(1 1) rotate(0) translate(4 192)">
<title>src/parameters/DiscreteParameter.h</title>
<polygon fill="white" stroke="transparent" points="-4,4 -4,-192 200,-192 200,4 -4,4"/>
<!-- Node1 -->
<g id="node1" class="node">
<title>Node1</title>
<g id="a_node1"><a xlink:title="In this file, the header of the DiscreteParameter class is defined.">
<polygon fill="#bfbfbf" stroke="black" points="0,-168.5 0,-187.5 192,-187.5 192,-168.5 0,-168.5"/>
<text text-anchor="middle" x="96" y="-175.5" font-family="Helvetica,sans-Serif" font-size="10.00">src/parameters/DiscreteParameter.h</text>
</a>
</g>
</g>
<!-- Node2 -->
<g id="node2" class="node">
<title>Node2</title>
<g id="a_node2"><a xlink:href="Parameter_8h.xhtml" target="_top" xlink:title="In this file, the header of the Parameter class is defined.">
<polygon fill="white" stroke="black" points="58.5,-112.5 58.5,-131.5 133.5,-131.5 133.5,-112.5 58.5,-112.5"/>
<text text-anchor="middle" x="96" y="-119.5" font-family="Helvetica,sans-Serif" font-size="10.00">Parameter.h</text>
</a>
</g>
</g>
<!-- Node1&#45;&gt;Node2 -->
<g id="edge1" class="edge">
<title>Node1&#45;&gt;Node2</title>
<path fill="none" stroke="midnightblue" d="M96,-168.08C96,-161.01 96,-150.86 96,-141.99"/>
<polygon fill="midnightblue" stroke="midnightblue" points="99.5,-141.75 96,-131.75 92.5,-141.75 99.5,-141.75"/>
</g>
<!-- Node3 -->
<g id="node3" class="node">
<title>Node3</title>
<g id="a_node3"><a xlink:href="Types_8h.xhtml" target="_top" xlink:title="In this file, types are defined which should be used across the whole framework.">
<polygon fill="white" stroke="black" points="65,-56.5 65,-75.5 127,-75.5 127,-56.5 65,-56.5"/>
<text text-anchor="middle" x="96" y="-63.5" font-family="Helvetica,sans-Serif" font-size="10.00">../Types.h</text>
</a>
</g>
</g>
<!-- Node2&#45;&gt;Node3 -->
<g id="edge2" class="edge">
<title>Node2&#45;&gt;Node3</title>
<path fill="none" stroke="midnightblue" d="M96,-112.08C96,-105.01 96,-94.86 96,-85.99"/>
<polygon fill="midnightblue" stroke="midnightblue" points="99.5,-85.75 96,-75.75 92.5,-85.75 99.5,-85.75"/>
</g>
<!-- Node4 -->
<g id="node4" class="node">
<title>Node4</title>
<g id="a_node4"><a xlink:title=" ">
<polygon fill="white" stroke="#bfbfbf" points="10,-0.5 10,-19.5 54,-19.5 54,-0.5 10,-0.5"/>
<text text-anchor="middle" x="32" y="-7.5" font-family="Helvetica,sans-Serif" font-size="10.00">string</text>
</a>
</g>
</g>
<!-- Node2&#45;&gt;Node4 -->
<g id="edge6" class="edge">
<title>Node2&#45;&gt;Node4</title>
<path fill="none" stroke="midnightblue" d="M86.64,-112.49C77.74,-103.99 64.49,-90.16 56,-76 47.3,-61.49 40.92,-43.31 36.93,-29.87"/>
<polygon fill="midnightblue" stroke="midnightblue" points="40.2,-28.57 34.15,-19.87 33.46,-30.45 40.2,-28.57"/>
</g>
<!-- Node6 -->
<g id="node6" class="node">
<title>Node6</title>
<g id="a_node6"><a xlink:title=" ">
<polygon fill="white" stroke="#bfbfbf" points="138,-0.5 138,-19.5 196,-19.5 196,-0.5 138,-0.5"/>
<text text-anchor="middle" x="167" y="-7.5" font-family="Helvetica,sans-Serif" font-size="10.00">memory</text>
</a>
</g>
</g>
<!-- Node2&#45;&gt;Node6 -->
<g id="edge7" class="edge">
<title>Node2&#45;&gt;Node6</title>
<path fill="none" stroke="midnightblue" d="M105.08,-112.32C113.77,-103.68 126.87,-89.76 136,-76 145.82,-61.2 154.28,-42.82 159.88,-29.38"/>
<polygon fill="midnightblue" stroke="midnightblue" points="163.23,-30.41 163.72,-19.83 156.74,-27.8 163.23,-30.41"/>
</g>
<!-- Node3&#45;&gt;Node4 -->
<g id="edge3" class="edge">
<title>Node3&#45;&gt;Node4</title>
<path fill="none" stroke="midnightblue" d="M85.72,-56.32C76.16,-48.26 61.72,-36.08 50.22,-26.37"/>
<polygon fill="midnightblue" stroke="midnightblue" points="52.37,-23.61 42.47,-19.83 47.86,-28.96 52.37,-23.61"/>
</g>
<!-- Node5 -->
<g id="node5" class="node">
<title>Node5</title>
<g id="a_node5"><a xlink:title=" ">
<polygon fill="white" stroke="#bfbfbf" points="72.5,-0.5 72.5,-19.5 119.5,-19.5 119.5,-0.5 72.5,-0.5"/>
<text text-anchor="middle" x="96" y="-7.5" font-family="Helvetica,sans-Serif" font-size="10.00">vector</text>
</a>
</g>
</g>
<!-- Node3&#45;&gt;Node5 -->
<g id="edge4" class="edge">
<title>Node3&#45;&gt;Node5</title>
<path fill="none" stroke="midnightblue" d="M96,-56.08C96,-49.01 96,-38.86 96,-29.99"/>
<polygon fill="midnightblue" stroke="midnightblue" points="99.5,-29.75 96,-19.75 92.5,-29.75 99.5,-29.75"/>
</g>
<!-- Node3&#45;&gt;Node6 -->
<g id="edge5" class="edge">
<title>Node3&#45;&gt;Node6</title>
<path fill="none" stroke="midnightblue" d="M107.41,-56.32C118.11,-48.18 134.34,-35.84 147.16,-26.09"/>
<polygon fill="midnightblue" stroke="midnightblue" points="149.54,-28.67 155.39,-19.83 145.31,-23.1 149.54,-28.67"/>
</g>
</g>
</svg>
