<?xml version="1.0" encoding="UTF-8" standalone="no"?>
<!DOCTYPE svg PUBLIC "-//W3C//DTD SVG 1.1//EN"
 "http://www.w3.org/Graphics/SVG/1.1/DTD/svg11.dtd">
<!-- Generated by graphviz version 2.43.0 (0)
 -->
<!-- Title: /home/runner/work/Simopticon/Simopticon/src/optimizer/direct/GrahamScan.h Pages: 1 -->
<svg width="360pt" height="128pt"
 viewBox="0.00 0.00 360.00 128.00" xmlns="http://www.w3.org/2000/svg" xmlns:xlink="http://www.w3.org/1999/xlink">
<g id="graph0" class="graph" transform="scale(1 1) rotate(0) translate(4 124)">
<title>/home/runner/work/Simopticon/Simopticon/src/optimizer/direct/GrahamScan.h</title>
<polygon fill="white" stroke="transparent" points="-4,4 -4,-124 356,-124 356,4 -4,4"/>
<!-- Node1 -->
<g id="node1" class="node">
<title>Node1</title>
<g id="a_node1"><a xlink:title="In this file, the header of the GrahamScan class is defined.">
<polygon fill="#bfbfbf" stroke="black" points="92,-78.5 92,-119.5 259,-119.5 259,-78.5 92,-78.5"/>
<text text-anchor="start" x="100" y="-107.5" font-family="Helvetica,sans-Serif" font-size="10.00">/home/runner/work/Simopticon</text>
<text text-anchor="start" x="100" y="-96.5" font-family="Helvetica,sans-Serif" font-size="10.00">/Simopticon/src/optimizer</text>
<text text-anchor="middle" x="175.5" y="-85.5" font-family="Helvetica,sans-Serif" font-size="10.00">/direct/GrahamScan.h</text>
</a>
</g>
</g>
<!-- Node2 -->
<g id="node2" class="node">
<title>Node2</title>
<g id="a_node2"><a xlink:href="DirectOptimizer_8cpp.xhtml" target="_top" xlink:title="In this file, the implementation of the DirectOptimizer class is defined.">
<polygon fill="white" stroke="black" points="0,-0.5 0,-41.5 167,-41.5 167,-0.5 0,-0.5"/>
<text text-anchor="start" x="8" y="-29.5" font-family="Helvetica,sans-Serif" font-size="10.00">/home/runner/work/Simopticon</text>
<text text-anchor="start" x="8" y="-18.5" font-family="Helvetica,sans-Serif" font-size="10.00">/Simopticon/src/optimizer</text>
<text text-anchor="middle" x="83.5" y="-7.5" font-family="Helvetica,sans-Serif" font-size="10.00">/direct/DirectOptimizer.cpp</text>
</a>
</g>
</g>
<!-- Node1&#45;&gt;Node2 -->
<g id="edge1" class="edge">
<title>Node1&#45;&gt;Node2</title>
<path fill="none" stroke="midnightblue" d="M143.76,-71.78C131.73,-61.84 118.26,-50.72 107.11,-41.51"/>
<polygon fill="midnightblue" stroke="midnightblue" points="141.87,-74.76 151.81,-78.43 146.33,-69.36 141.87,-74.76"/>
</g>
<!-- Node3 -->
<g id="node3" class="node">
<title>Node3</title>
<g id="a_node3"><a xlink:href="GrahamScan_8cpp.xhtml" target="_top" xlink:title="In this file, the implementation of the GrahamScan class is defined.">
<polygon fill="white" stroke="black" points="185,-0.5 185,-41.5 352,-41.5 352,-0.5 185,-0.5"/>
<text text-anchor="start" x="193" y="-29.5" font-family="Helvetica,sans-Serif" font-size="10.00">/home/runner/work/Simopticon</text>
<text text-anchor="start" x="193" y="-18.5" font-family="Helvetica,sans-Serif" font-size="10.00">/Simopticon/src/optimizer</text>
<text text-anchor="middle" x="268.5" y="-7.5" font-family="Helvetica,sans-Serif" font-size="10.00">/direct/GrahamScan.cpp</text>
</a>
</g>
</g>
<!-- Node1&#45;&gt;Node3 -->
<g id="edge2" class="edge">
<title>Node1&#45;&gt;Node3</title>
<path fill="none" stroke="midnightblue" d="M207.24,-72.06C219.48,-62.06 233.25,-50.8 244.63,-41.51"/>
<polygon fill="midnightblue" stroke="midnightblue" points="204.98,-69.39 199.45,-78.43 209.41,-74.81 204.98,-69.39"/>
</g>
</g>
</svg>
