<?xml version="1.0" encoding="UTF-8" standalone="no"?>
<!DOCTYPE svg PUBLIC "-//W3C//DTD SVG 1.1//EN"
 "http://www.w3.org/Graphics/SVG/1.1/DTD/svg11.dtd">
<!-- Generated by graphviz version 2.43.0 (0)
 -->
<!-- Title: src/optimizer/direct/GrahamScan.cpp Pages: 1 -->
<svg width="552pt" height="207pt"
 viewBox="0.00 0.00 551.50 207.00" xmlns="http://www.w3.org/2000/svg" xmlns:xlink="http://www.w3.org/1999/xlink">
<g id="graph0" class="graph" transform="scale(1 1) rotate(0) translate(4 203)">
<title>src/optimizer/direct/GrahamScan.cpp</title>
<polygon fill="white" stroke="transparent" points="-4,4 -4,-203 547.5,-203 547.5,4 -4,4"/>
<!-- Node1 -->
<g id="node1" class="node">
<title>Node1</title>
<g id="a_node1"><a xlink:title="In this file, the implementation of the GrahamScan class is defined.">
<polygon fill="#bfbfbf" stroke="black" points="168.5,-168.5 168.5,-198.5 279.5,-198.5 279.5,-168.5 168.5,-168.5"/>
<text text-anchor="start" x="176.5" y="-186.5" font-family="Helvetica,sans-Serif" font-size="10.00">src/optimizer/direct</text>
<text text-anchor="middle" x="224" y="-175.5" font-family="Helvetica,sans-Serif" font-size="10.00">/GrahamScan.cpp</text>
</a>
</g>
</g>
<!-- Node2 -->
<g id="node2" class="node">
<title>Node2</title>
<g id="a_node2"><a xlink:href="GrahamScan_8h.xhtml" target="_top" xlink:title="In this file, the header of the GrahamScan class is defined.">
<polygon fill="white" stroke="black" points="0,-112.5 0,-131.5 88,-131.5 88,-112.5 0,-112.5"/>
<text text-anchor="middle" x="44" y="-119.5" font-family="Helvetica,sans-Serif" font-size="10.00">GrahamScan.h</text>
</a>
</g>
</g>
<!-- Node1&#45;&gt;Node2 -->
<g id="edge1" class="edge">
<title>Node1&#45;&gt;Node2</title>
<path fill="none" stroke="midnightblue" d="M181.34,-168.4C150.37,-158.16 108.95,-144.47 79.72,-134.81"/>
<polygon fill="midnightblue" stroke="midnightblue" points="80.52,-131.39 69.93,-131.57 78.33,-138.03 80.52,-131.39"/>
</g>
<!-- Node5 -->
<g id="node5" class="node">
<title>Node5</title>
<g id="a_node5"><a xlink:href="HyRect_8h.xhtml" target="_top" xlink:title="In this file, the header of the HyRect class is defined.">
<polygon fill="white" stroke="black" points="176.5,-112.5 176.5,-131.5 271.5,-131.5 271.5,-112.5 176.5,-112.5"/>
<text text-anchor="middle" x="224" y="-119.5" font-family="Helvetica,sans-Serif" font-size="10.00">hyrect/HyRect.h</text>
</a>
</g>
</g>
<!-- Node1&#45;&gt;Node5 -->
<g id="edge4" class="edge">
<title>Node1&#45;&gt;Node5</title>
<path fill="none" stroke="midnightblue" d="M224,-168.4C224,-160.47 224,-150.46 224,-141.86"/>
<polygon fill="midnightblue" stroke="midnightblue" points="227.5,-141.66 224,-131.66 220.5,-141.66 227.5,-141.66"/>
</g>
<!-- Node13 -->
<g id="node13" class="node">
<title>Node13</title>
<g id="a_node13"><a xlink:title=" ">
<polygon fill="white" stroke="#bfbfbf" points="290,-112.5 290,-131.5 328,-131.5 328,-112.5 290,-112.5"/>
<text text-anchor="middle" x="309" y="-119.5" font-family="Helvetica,sans-Serif" font-size="10.00">map</text>
</a>
</g>
</g>
<!-- Node1&#45;&gt;Node13 -->
<g id="edge16" class="edge">
<title>Node1&#45;&gt;Node13</title>
<path fill="none" stroke="midnightblue" d="M244.14,-168.4C257.39,-159.13 274.68,-147.03 288.08,-137.65"/>
<polygon fill="midnightblue" stroke="midnightblue" points="290.45,-140.26 296.63,-131.66 286.43,-134.53 290.45,-140.26"/>
</g>
<!-- Node3 -->
<g id="node3" class="node">
<title>Node3</title>
<g id="a_node3"><a xlink:title=" ">
<polygon fill="white" stroke="#bfbfbf" points="28,-56.5 28,-75.5 60,-75.5 60,-56.5 28,-56.5"/>
<text text-anchor="middle" x="44" y="-63.5" font-family="Helvetica,sans-Serif" font-size="10.00">list</text>
</a>
</g>
</g>
<!-- Node2&#45;&gt;Node3 -->
<g id="edge2" class="edge">
<title>Node2&#45;&gt;Node3</title>
<path fill="none" stroke="midnightblue" d="M44,-112.08C44,-105.01 44,-94.86 44,-85.99"/>
<polygon fill="midnightblue" stroke="midnightblue" points="47.5,-85.75 44,-75.75 40.5,-85.75 47.5,-85.75"/>
</g>
<!-- Node4 -->
<g id="node4" class="node">
<title>Node4</title>
<g id="a_node4"><a xlink:title=" ">
<polygon fill="white" stroke="#bfbfbf" points="58,-0.5 58,-19.5 116,-19.5 116,-0.5 58,-0.5"/>
<text text-anchor="middle" x="87" y="-7.5" font-family="Helvetica,sans-Serif" font-size="10.00">memory</text>
</a>
</g>
</g>
<!-- Node2&#45;&gt;Node4 -->
<g id="edge3" class="edge">
<title>Node2&#45;&gt;Node4</title>
<path fill="none" stroke="midnightblue" d="M35.97,-112.28C25.24,-99.52 8.7,-75.17 19,-56 26.62,-41.82 40.9,-31.35 54.41,-24.1"/>
<polygon fill="midnightblue" stroke="midnightblue" points="56.13,-27.16 63.55,-19.59 53.03,-20.88 56.13,-27.16"/>
</g>
<!-- Node5&#45;&gt;Node3 -->
<g id="edge14" class="edge">
<title>Node5&#45;&gt;Node3</title>
<path fill="none" stroke="midnightblue" d="M195.48,-112.44C160.95,-102.09 103.3,-84.79 69.96,-74.79"/>
<polygon fill="midnightblue" stroke="midnightblue" points="70.64,-71.34 60.05,-71.82 68.63,-78.04 70.64,-71.34"/>
</g>
<!-- Node5&#45;&gt;Node4 -->
<g id="edge15" class="edge">
<title>Node5&#45;&gt;Node4</title>
<path fill="none" stroke="midnightblue" d="M176.28,-112.87C152.54,-106.54 125.12,-95.41 107,-76 95.3,-63.47 90.44,-44.25 88.42,-29.95"/>
<polygon fill="midnightblue" stroke="midnightblue" points="91.88,-29.34 87.34,-19.76 84.92,-30.08 91.88,-29.34"/>
</g>
<!-- Node6 -->
<g id="node6" class="node">
<title>Node6</title>
<g id="a_node6"><a xlink:href="Types_8h.xhtml" target="_top" xlink:title="In this file, types are defined which should be used across the whole framework.">
<polygon fill="white" stroke="black" points="116,-56.5 116,-75.5 196,-75.5 196,-56.5 116,-56.5"/>
<text text-anchor="middle" x="156" y="-63.5" font-family="Helvetica,sans-Serif" font-size="10.00">../../../Types.h</text>
</a>
</g>
</g>
<!-- Node5&#45;&gt;Node6 -->
<g id="edge5" class="edge">
<title>Node5&#45;&gt;Node6</title>
<path fill="none" stroke="midnightblue" d="M213.07,-112.32C202.83,-104.18 187.28,-91.84 175,-82.09"/>
<polygon fill="midnightblue" stroke="midnightblue" points="177.13,-79.31 167.12,-75.83 172.78,-84.79 177.13,-79.31"/>
</g>
<!-- Node8 -->
<g id="node8" class="node">
<title>Node8</title>
<g id="a_node8"><a xlink:title=" ">
<polygon fill="white" stroke="#bfbfbf" points="198.5,-0.5 198.5,-19.5 245.5,-19.5 245.5,-0.5 198.5,-0.5"/>
<text text-anchor="middle" x="222" y="-7.5" font-family="Helvetica,sans-Serif" font-size="10.00">vector</text>
</a>
</g>
</g>
<!-- Node5&#45;&gt;Node8 -->
<g id="edge12" class="edge">
<title>Node5&#45;&gt;Node8</title>
<path fill="none" stroke="midnightblue" d="M223.84,-112.37C223.52,-94.62 222.78,-53.67 222.34,-29.6"/>
<polygon fill="midnightblue" stroke="midnightblue" points="225.84,-29.53 222.16,-19.59 218.84,-29.65 225.84,-29.53"/>
</g>
<!-- Node9 -->
<g id="node9" class="node">
<title>Node9</title>
<g id="a_node9"><a xlink:href="DirectTypes_8h.xhtml" target="_top" xlink:title="In this file, types are defined which are used in the direct module.">
<polygon fill="white" stroke="black" points="252,-56.5 252,-75.5 344,-75.5 344,-56.5 252,-56.5"/>
<text text-anchor="middle" x="298" y="-63.5" font-family="Helvetica,sans-Serif" font-size="10.00">../DirectTypes.h</text>
</a>
</g>
</g>
<!-- Node5&#45;&gt;Node9 -->
<g id="edge9" class="edge">
<title>Node5&#45;&gt;Node9</title>
<path fill="none" stroke="midnightblue" d="M235.89,-112.32C247.15,-104.11 264.29,-91.6 277.71,-81.81"/>
<polygon fill="midnightblue" stroke="midnightblue" points="279.88,-84.56 285.89,-75.83 275.75,-78.9 279.88,-84.56"/>
</g>
<!-- Node10 -->
<g id="node10" class="node">
<title>Node10</title>
<g id="a_node10"><a xlink:title=" ">
<polygon fill="white" stroke="#bfbfbf" points="362,-56.5 362,-75.5 418,-75.5 418,-56.5 362,-56.5"/>
<text text-anchor="middle" x="390" y="-63.5" font-family="Helvetica,sans-Serif" font-size="10.00">optional</text>
</a>
</g>
</g>
<!-- Node5&#45;&gt;Node10 -->
<g id="edge10" class="edge">
<title>Node5&#45;&gt;Node10</title>
<path fill="none" stroke="midnightblue" d="M250.3,-112.44C278.35,-103.32 322.94,-88.81 354.18,-78.65"/>
<polygon fill="midnightblue" stroke="midnightblue" points="355.39,-81.94 363.82,-75.52 353.23,-75.28 355.39,-81.94"/>
</g>
<!-- Node11 -->
<g id="node11" class="node">
<title>Node11</title>
<g id="a_node11"><a xlink:title=" ">
<polygon fill="white" stroke="#bfbfbf" points="436,-56.5 436,-75.5 478,-75.5 478,-56.5 436,-56.5"/>
<text text-anchor="middle" x="457" y="-63.5" font-family="Helvetica,sans-Serif" font-size="10.00">array</text>
</a>
</g>
</g>
<!-- Node5&#45;&gt;Node11 -->
<g id="edge11" class="edge">
<title>Node5&#45;&gt;Node11</title>
<path fill="none" stroke="midnightblue" d="M266.99,-112.42C306.14,-104.4 365.72,-91.66 426.06,-76.11"/>
<polygon fill="midnightblue" stroke="midnightblue" points="426.95,-79.49 435.75,-73.59 425.19,-72.72 426.95,-79.49"/>
</g>
<!-- Node12 -->
<g id="node12" class="node">
<title>Node12</title>
<g id="a_node12"><a xlink:title=" ">
<polygon fill="white" stroke="#bfbfbf" points="496.5,-56.5 496.5,-75.5 543.5,-75.5 543.5,-56.5 496.5,-56.5"/>
<text text-anchor="middle" x="520" y="-63.5" font-family="Helvetica,sans-Serif" font-size="10.00">cmath</text>
</a>
</g>
</g>
<!-- Node5&#45;&gt;Node12 -->
<g id="edge13" class="edge">
<title>Node5&#45;&gt;Node12</title>
<path fill="none" stroke="midnightblue" d="M271.7,-113.41C331.93,-103.73 433.18,-87.13 486.32,-75.93"/>
<polygon fill="midnightblue" stroke="midnightblue" points="487.25,-79.31 496.28,-73.77 485.76,-72.47 487.25,-79.31"/>
</g>
<!-- Node6&#45;&gt;Node4 -->
<g id="edge8" class="edge">
<title>Node6&#45;&gt;Node4</title>
<path fill="none" stroke="midnightblue" d="M144.91,-56.32C134.51,-48.18 118.74,-35.84 106.28,-26.09"/>
<polygon fill="midnightblue" stroke="midnightblue" points="108.32,-23.24 98.29,-19.83 104.01,-28.75 108.32,-23.24"/>
</g>
<!-- Node7 -->
<g id="node7" class="node">
<title>Node7</title>
<g id="a_node7"><a xlink:title=" ">
<polygon fill="white" stroke="#bfbfbf" points="134,-0.5 134,-19.5 178,-19.5 178,-0.5 134,-0.5"/>
<text text-anchor="middle" x="156" y="-7.5" font-family="Helvetica,sans-Serif" font-size="10.00">string</text>
</a>
</g>
</g>
<!-- Node6&#45;&gt;Node7 -->
<g id="edge6" class="edge">
<title>Node6&#45;&gt;Node7</title>
<path fill="none" stroke="midnightblue" d="M156,-56.08C156,-49.01 156,-38.86 156,-29.99"/>
<polygon fill="midnightblue" stroke="midnightblue" points="159.5,-29.75 156,-19.75 152.5,-29.75 159.5,-29.75"/>
</g>
<!-- Node6&#45;&gt;Node8 -->
<g id="edge7" class="edge">
<title>Node6&#45;&gt;Node8</title>
<path fill="none" stroke="midnightblue" d="M166.6,-56.32C176.46,-48.26 191.35,-36.08 203.22,-26.37"/>
<polygon fill="midnightblue" stroke="midnightblue" points="205.68,-28.88 211.2,-19.83 201.25,-23.46 205.68,-28.88"/>
</g>
</g>
</svg>
