<?xml version="1.0" encoding="UTF-8" standalone="no"?>
<!DOCTYPE svg PUBLIC "-//W3C//DTD SVG 1.1//EN"
 "http://www.w3.org/Graphics/SVG/1.1/DTD/svg11.dtd">
<!-- Generated by graphviz version 2.43.0 (0)
 -->
<!-- Title: optimizer Pages: 1 -->
<svg width="209pt" height="101pt"
 viewBox="0.00 0.00 209.00 101.00" xmlns="http://www.w3.org/2000/svg" xmlns:xlink="http://www.w3.org/1999/xlink">
<g id="graph0" class="graph" transform="scale(1 1) rotate(0) translate(4 97)">
<title>optimizer</title>
<polygon fill="white" stroke="transparent" points="-4,4 -4,-97 205,-97 205,4 -4,4"/>
<!-- Node3 -->
<g id="node1" class="node">
<title>Node3</title>
<g id="a_node1"><a xlink:href="group__montecarlo.xhtml" target="_top" xlink:title="This is a simple implementation of Monte Carlo optimization.">
<polygon fill="white" stroke="black" points="186,-93 114,-93 114,-74 186,-74 186,-93"/>
<text text-anchor="middle" x="150" y="-81" font-family="Helvetica,sans-Serif" font-size="10.00">montecarlo</text>
</a>
</g>
</g>
<!-- Node1 -->
<g id="node2" class="node">
<title>Node1</title>
<g id="a_node2"><a xlink:title="This module contains components capable of finding the minimum of a function only defined through arg...">
<polygon fill="#bfbfbf" stroke="black" points="63,-56 0,-56 0,-37 63,-37 63,-56"/>
<text text-anchor="middle" x="31.5" y="-44" font-family="Helvetica,sans-Serif" font-size="10.00">optimizer</text>
</a>
</g>
</g>
<!-- Node1&#45;&gt;Node3 -->
<g id="edge2" class="edge">
<title>Node1&#45;&gt;Node3</title>
<path fill="none" stroke="black" d="M72.18,-59.1C87.39,-63.93 104.5,-69.37 118.7,-73.88"/>
<polygon fill="black" stroke="black" points="73.09,-55.72 62.5,-56.03 70.97,-62.39 73.09,-55.72"/>
</g>
<!-- Node2 -->
<g id="node3" class="node">
<title>Node2</title>
<g id="a_node3"><a xlink:href="group__direct.xhtml" target="_top" xlink:title="This module extends Optimizer to use a variant of the DIRECT algorithm by Jones et al.">
<polygon fill="white" stroke="black" points="172,-56 128,-56 128,-37 172,-37 172,-56"/>
<text text-anchor="middle" x="150" y="-44" font-family="Helvetica,sans-Serif" font-size="10.00">direct</text>
</a>
</g>
</g>
<!-- Node1&#45;&gt;Node2 -->
<g id="edge1" class="edge">
<title>Node1&#45;&gt;Node2</title>
<path fill="none" stroke="black" d="M73.28,-46.5C91.66,-46.5 112.59,-46.5 127.78,-46.5"/>
<polygon fill="black" stroke="black" points="73.11,-43 63.11,-46.5 73.11,-50 73.11,-43"/>
</g>
<!-- Node4 -->
<g id="node4" class="node">
<title>Node4</title>
<g id="a_node4"><a xlink:href="group__randomneighbors.xhtml" target="_top" xlink:title="This is a simple implementation of Random Neighbors optimization.">
<polygon fill="white" stroke="black" points="201,-19 99,-19 99,0 201,0 201,-19"/>
<text text-anchor="middle" x="150" y="-7" font-family="Helvetica,sans-Serif" font-size="10.00">randomneighbors</text>
</a>
</g>
</g>
<!-- Node1&#45;&gt;Node4 -->
<g id="edge3" class="edge">
<title>Node1&#45;&gt;Node4</title>
<path fill="none" stroke="black" d="M72.18,-33.9C87.39,-29.07 104.5,-23.63 118.7,-19.12"/>
<polygon fill="black" stroke="black" points="70.97,-30.61 62.5,-36.97 73.09,-37.28 70.97,-30.61"/>
</g>
</g>
</svg>
