<?xml version="1.0" encoding="UTF-8" standalone="no"?>
<!DOCTYPE svg PUBLIC "-//W3C//DTD SVG 1.1//EN"
 "http://www.w3.org/Graphics/SVG/1.1/DTD/svg11.dtd">
<!-- Generated by graphviz version 2.43.0 (0)
 -->
<!-- Title: direct Pages: 1 -->
<svg width="234pt" height="27pt"
 viewBox="0.00 0.00 234.00 27.00" xmlns="http://www.w3.org/2000/svg" xmlns:xlink="http://www.w3.org/1999/xlink">
<g id="graph0" class="graph" transform="scale(1 1) rotate(0) translate(4 23)">
<title>direct</title>
<polygon fill="white" stroke="transparent" points="-4,4 -4,-23 230,-23 230,4 -4,4"/>
<!-- Node2 -->
<g id="node1" class="node">
<title>Node2</title>
<g id="a_node1"><a xlink:href="group__optimizer.xhtml" target="_top" xlink:title="This module contains components capable of finding the minimum of a function only defined through arg...">
<polygon fill="white" stroke="black" points="63,-19 0,-19 0,0 63,0 63,-19"/>
<text text-anchor="middle" x="31.5" y="-7" font-family="Helvetica,sans-Serif" font-size="10.00">optimizer</text>
</a>
</g>
</g>
<!-- Node1 -->
<g id="node2" class="node">
<title>Node1</title>
<g id="a_node2"><a xlink:title="This module extends Optimizer to use a variant of the DIRECT algorithm by Jones et al.">
<polygon fill="#bfbfbf" stroke="black" points="143,-19 99,-19 99,0 143,0 143,-19"/>
<text text-anchor="middle" x="121" y="-7" font-family="Helvetica,sans-Serif" font-size="10.00">direct</text>
</a>
</g>
</g>
<!-- Node2&#45;&gt;Node1 -->
<g id="edge1" class="edge">
<title>Node2&#45;&gt;Node1</title>
<path fill="none" stroke="black" d="M73.33,-9.5C82.18,-9.5 91.19,-9.5 98.9,-9.5"/>
<polygon fill="black" stroke="black" points="73.1,-6 63.1,-9.5 73.1,-13 73.1,-6"/>
</g>
<!-- Node3 -->
<g id="node3" class="node">
<title>Node3</title>
<g id="a_node3"><a xlink:href="group__hyrect.xhtml" target="_top" xlink:title="This module contains the definition of a tree&#45;like data structure representing the partition of a sea...">
<polygon fill="white" stroke="black" points="226,-19 179,-19 179,0 226,0 226,-19"/>
<text text-anchor="middle" x="202.5" y="-7" font-family="Helvetica,sans-Serif" font-size="10.00">hyrect</text>
</a>
</g>
</g>
<!-- Node1&#45;&gt;Node3 -->
<g id="edge2" class="edge">
<title>Node1&#45;&gt;Node3</title>
<path fill="none" stroke="black" d="M153.57,-9.5C161.98,-9.5 170.91,-9.5 178.74,-9.5"/>
<polygon fill="black" stroke="black" points="153.3,-6 143.3,-9.5 153.3,-13 153.3,-6"/>
</g>
</g>
</svg>
