<?xml version="1.0" encoding="UTF-8" standalone="no"?>
<!DOCTYPE svg PUBLIC "-//W3C//DTD SVG 1.1//EN"
 "http://www.w3.org/Graphics/SVG/1.1/DTD/svg11.dtd">
<!-- Generated by graphviz version 2.43.0 (0)
 -->
<!-- Title: src/optimizer/direct/hyrect/HyRect.h Pages: 1 -->
<svg width="536pt" height="151pt"
 viewBox="0.00 0.00 535.50 151.00" xmlns="http://www.w3.org/2000/svg" xmlns:xlink="http://www.w3.org/1999/xlink">
<g id="graph0" class="graph" transform="scale(1 1) rotate(0) translate(4 147)">
<title>src/optimizer/direct/hyrect/HyRect.h</title>
<polygon fill="white" stroke="transparent" points="-4,4 -4,-147 531.5,-147 531.5,4 -4,4"/>
<!-- Node1 -->
<g id="node1" class="node">
<title>Node1</title>
<g id="a_node1"><a xlink:title="In this file, the header of the HyRect class is defined.">
<polygon fill="#bfbfbf" stroke="black" points="222,-112.5 222,-142.5 333,-142.5 333,-112.5 222,-112.5"/>
<text text-anchor="start" x="230" y="-130.5" font-family="Helvetica,sans-Serif" font-size="10.00">src/optimizer/direct</text>
<text text-anchor="middle" x="277.5" y="-119.5" font-family="Helvetica,sans-Serif" font-size="10.00">/hyrect/HyRect.h</text>
</a>
</g>
</g>
<!-- Node2 -->
<g id="node2" class="node">
<title>Node2</title>
<g id="a_node2"><a xlink:href="Types_8h.xhtml" target="_top" xlink:title="In this file, types are defined which should be used across the whole framework.">
<polygon fill="white" stroke="black" points="49.5,-56.5 49.5,-75.5 129.5,-75.5 129.5,-56.5 49.5,-56.5"/>
<text text-anchor="middle" x="89.5" y="-63.5" font-family="Helvetica,sans-Serif" font-size="10.00">../../../Types.h</text>
</a>
</g>
</g>
<!-- Node1&#45;&gt;Node2 -->
<g id="edge1" class="edge">
<title>Node1&#45;&gt;Node2</title>
<path fill="none" stroke="midnightblue" d="M232.95,-112.4C200.46,-102.12 156.96,-88.35 126.41,-78.68"/>
<polygon fill="midnightblue" stroke="midnightblue" points="127.17,-75.25 116.58,-75.57 125.06,-81.93 127.17,-75.25"/>
</g>
<!-- Node4 -->
<g id="node4" class="node">
<title>Node4</title>
<g id="a_node4"><a xlink:title=" ">
<polygon fill="white" stroke="#bfbfbf" points="0,-0.5 0,-19.5 47,-19.5 47,-0.5 0,-0.5"/>
<text text-anchor="middle" x="23.5" y="-7.5" font-family="Helvetica,sans-Serif" font-size="10.00">vector</text>
</a>
</g>
</g>
<!-- Node1&#45;&gt;Node4 -->
<g id="edge8" class="edge">
<title>Node1&#45;&gt;Node4</title>
<path fill="none" stroke="midnightblue" d="M221.8,-121.35C160.14,-114.53 66.05,-100.41 40.5,-76 28.12,-64.18 24.35,-44.55 23.38,-29.95"/>
<polygon fill="midnightblue" stroke="midnightblue" points="26.87,-29.46 23.1,-19.56 19.87,-29.65 26.87,-29.46"/>
</g>
<!-- Node5 -->
<g id="node5" class="node">
<title>Node5</title>
<g id="a_node5"><a xlink:title=" ">
<polygon fill="white" stroke="#bfbfbf" points="128.5,-0.5 128.5,-19.5 186.5,-19.5 186.5,-0.5 128.5,-0.5"/>
<text text-anchor="middle" x="157.5" y="-7.5" font-family="Helvetica,sans-Serif" font-size="10.00">memory</text>
</a>
</g>
</g>
<!-- Node1&#45;&gt;Node5 -->
<g id="edge11" class="edge">
<title>Node1&#45;&gt;Node5</title>
<path fill="none" stroke="midnightblue" d="M230.68,-112.43C211.48,-104.52 190.51,-92.78 176.5,-76 165.56,-62.9 160.92,-43.75 158.95,-29.63"/>
<polygon fill="midnightblue" stroke="midnightblue" points="162.42,-29.16 157.87,-19.59 155.46,-29.91 162.42,-29.16"/>
</g>
<!-- Node6 -->
<g id="node6" class="node">
<title>Node6</title>
<g id="a_node6"><a xlink:href="DirectTypes_8h.xhtml" target="_top" xlink:title="In this file, types are defined which are used in the direct module.">
<polygon fill="white" stroke="black" points="185.5,-56.5 185.5,-75.5 277.5,-75.5 277.5,-56.5 185.5,-56.5"/>
<text text-anchor="middle" x="231.5" y="-63.5" font-family="Helvetica,sans-Serif" font-size="10.00">../DirectTypes.h</text>
</a>
</g>
</g>
<!-- Node1&#45;&gt;Node6 -->
<g id="edge5" class="edge">
<title>Node1&#45;&gt;Node6</title>
<path fill="none" stroke="midnightblue" d="M266.6,-112.4C259.91,-103.75 251.32,-92.64 244.32,-83.58"/>
<polygon fill="midnightblue" stroke="midnightblue" points="247.08,-81.43 238.19,-75.66 241.54,-85.71 247.08,-81.43"/>
</g>
<!-- Node7 -->
<g id="node7" class="node">
<title>Node7</title>
<g id="a_node7"><a xlink:title=" ">
<polygon fill="white" stroke="#bfbfbf" points="295.5,-56.5 295.5,-75.5 351.5,-75.5 351.5,-56.5 295.5,-56.5"/>
<text text-anchor="middle" x="323.5" y="-63.5" font-family="Helvetica,sans-Serif" font-size="10.00">optional</text>
</a>
</g>
</g>
<!-- Node1&#45;&gt;Node7 -->
<g id="edge6" class="edge">
<title>Node1&#45;&gt;Node7</title>
<path fill="none" stroke="midnightblue" d="M288.4,-112.4C295.09,-103.75 303.68,-92.64 310.68,-83.58"/>
<polygon fill="midnightblue" stroke="midnightblue" points="313.46,-85.71 316.81,-75.66 307.92,-81.43 313.46,-85.71"/>
</g>
<!-- Node8 -->
<g id="node8" class="node">
<title>Node8</title>
<g id="a_node8"><a xlink:title=" ">
<polygon fill="white" stroke="#bfbfbf" points="369.5,-56.5 369.5,-75.5 411.5,-75.5 411.5,-56.5 369.5,-56.5"/>
<text text-anchor="middle" x="390.5" y="-63.5" font-family="Helvetica,sans-Serif" font-size="10.00">array</text>
</a>
</g>
</g>
<!-- Node1&#45;&gt;Node8 -->
<g id="edge7" class="edge">
<title>Node1&#45;&gt;Node8</title>
<path fill="none" stroke="midnightblue" d="M304.28,-112.4C322.56,-102.77 346.65,-90.09 364.71,-80.58"/>
<polygon fill="midnightblue" stroke="midnightblue" points="366.84,-83.41 374.06,-75.66 363.58,-77.22 366.84,-83.41"/>
</g>
<!-- Node9 -->
<g id="node9" class="node">
<title>Node9</title>
<g id="a_node9"><a xlink:title=" ">
<polygon fill="white" stroke="#bfbfbf" points="430,-56.5 430,-75.5 477,-75.5 477,-56.5 430,-56.5"/>
<text text-anchor="middle" x="453.5" y="-63.5" font-family="Helvetica,sans-Serif" font-size="10.00">cmath</text>
</a>
</g>
</g>
<!-- Node1&#45;&gt;Node9 -->
<g id="edge9" class="edge">
<title>Node1&#45;&gt;Node9</title>
<path fill="none" stroke="midnightblue" d="M319.21,-112.4C350.13,-101.95 391.7,-87.89 420.36,-78.2"/>
<polygon fill="midnightblue" stroke="midnightblue" points="421.57,-81.49 429.92,-74.97 419.32,-74.86 421.57,-81.49"/>
</g>
<!-- Node10 -->
<g id="node10" class="node">
<title>Node10</title>
<g id="a_node10"><a xlink:title=" ">
<polygon fill="white" stroke="#bfbfbf" points="495.5,-56.5 495.5,-75.5 527.5,-75.5 527.5,-56.5 495.5,-56.5"/>
<text text-anchor="middle" x="511.5" y="-63.5" font-family="Helvetica,sans-Serif" font-size="10.00">list</text>
</a>
</g>
</g>
<!-- Node1&#45;&gt;Node10 -->
<g id="edge10" class="edge">
<title>Node1&#45;&gt;Node10</title>
<path fill="none" stroke="midnightblue" d="M333.38,-114.73C373.42,-105.9 428.74,-92.9 485.57,-76.04"/>
<polygon fill="midnightblue" stroke="midnightblue" points="486.88,-79.3 495.45,-73.07 484.86,-72.59 486.88,-79.3"/>
</g>
<!-- Node3 -->
<g id="node3" class="node">
<title>Node3</title>
<g id="a_node3"><a xlink:title=" ">
<polygon fill="white" stroke="#bfbfbf" points="66.5,-0.5 66.5,-19.5 110.5,-19.5 110.5,-0.5 66.5,-0.5"/>
<text text-anchor="middle" x="88.5" y="-7.5" font-family="Helvetica,sans-Serif" font-size="10.00">string</text>
</a>
</g>
</g>
<!-- Node2&#45;&gt;Node3 -->
<g id="edge2" class="edge">
<title>Node2&#45;&gt;Node3</title>
<path fill="none" stroke="midnightblue" d="M89.33,-56.08C89.2,-49.01 89.02,-38.86 88.85,-29.99"/>
<polygon fill="midnightblue" stroke="midnightblue" points="92.35,-29.68 88.66,-19.75 85.35,-29.81 92.35,-29.68"/>
</g>
<!-- Node2&#45;&gt;Node4 -->
<g id="edge3" class="edge">
<title>Node2&#45;&gt;Node4</title>
<path fill="none" stroke="midnightblue" d="M78.9,-56.32C69.04,-48.26 54.15,-36.08 42.28,-26.37"/>
<polygon fill="midnightblue" stroke="midnightblue" points="44.25,-23.46 34.3,-19.83 39.82,-28.88 44.25,-23.46"/>
</g>
<!-- Node2&#45;&gt;Node5 -->
<g id="edge4" class="edge">
<title>Node2&#45;&gt;Node5</title>
<path fill="none" stroke="midnightblue" d="M100.43,-56.32C110.67,-48.18 126.22,-35.84 138.5,-26.09"/>
<polygon fill="midnightblue" stroke="midnightblue" points="140.72,-28.79 146.38,-19.83 136.37,-23.31 140.72,-28.79"/>
</g>
</g>
</svg>
