<?xml version="1.0" encoding="UTF-8" standalone="no"?>
<!DOCTYPE svg PUBLIC "-//W3C//DTD SVG 1.1//EN"
 "http://www.w3.org/Graphics/SVG/1.1/DTD/svg11.dtd">
<!-- Generated by graphviz version 2.43.0 (0)
 -->
<!-- Title: /home/runner/work/Simopticon/Simopticon/src/optimizer/direct/hyrect/HyRect.h Pages: 1 -->
<!--zoomable 362 -->
<svg id="main" version="1.1" xmlns="http://www.w3.org/2000/svg" xmlns:xlink="http://www.w3.org/1999/xlink" xml:space="preserve" onload="init(evt)">
<style type="text/css"><![CDATA[
.edge:hover path { stroke: red; }
.edge:hover polygon { stroke: red; fill: red; }
]]></style>
<script type="text/javascript"><![CDATA[
var edges = document.getElementsByTagName('g');
if (edges && edges.length) {
  for (var i=0;i<edges.length;i++) {
    if (edges[i].id.substr(0,4)=='edge') {
      edges[i].setAttribute('class','edge');
    }
  }
}
]]></script>
        <defs>
                <circle id="rim" cx="0" cy="0" r="7"/>
                <circle id="rim2" cx="0" cy="0" r="3.5"/>
                <g id="zoomPlus">
                        <use xlink:href="#rim" fill="#404040">
                                <set attributeName="fill" to="#808080" begin="zoomplus.mouseover" end="zoomplus.mouseout"/>
                        </use>
                        <path d="M-4,0h8M0,-4v8" fill="none" stroke="white" stroke-width="1.5" pointer-events="none"/>
                </g>
                <g id="zoomMin">
                        <use xlink:href="#rim" fill="#404040">
                                <set attributeName="fill" to="#808080" begin="zoomminus.mouseover" end="zoomminus.mouseout"/>
                        </use>
                        <path d="M-4,0h8" fill="none" stroke="white" stroke-width="1.5" pointer-events="none"/>
                </g>
                <g id="dirArrow">
                        <path fill="none" stroke="white" stroke-width="1.5" d="M0,-3.0v7 M-2.5,-0.5L0,-3.0L2.5,-0.5"/>
                </g>
               <g id="resetDef">
                       <use xlink:href="#rim2" fill="#404040">
                               <set attributeName="fill" to="#808080" begin="reset.mouseover" end="reset.mouseout"/>
                       </use>
               </g>
        </defs>

<script type="text/javascript">
var viewWidth = 1040;
var viewHeight = 362;
var sectionId = 'dynsection-1';
</script>
<script xlink:href="svgpan.js"/>
<svg id="graph" class="graph">
<g id="viewport">
<title>/home/runner/work/Simopticon/Simopticon/src/optimizer/direct/hyrect/HyRect.h</title>
<polygon fill="white" stroke="transparent" points="-4,4 -4,-358 1036.19,-358 1036.19,4 -4,4"/>
<!-- Node1 -->
<g id="node1" class="node">
<title>Node1</title>
<g id="a_node1"><a xlink:title="In this file, the header of the HyRect class is defined.">
<polygon fill="#bfbfbf" stroke="black" points="346.19,-312.5 346.19,-353.5 513.19,-353.5 513.19,-312.5 346.19,-312.5"/>
<text text-anchor="start" x="354.19" y="-341.5" font-family="Helvetica,sans-Serif" font-size="10.00">/home/runner/work/Simopticon</text>
<text text-anchor="start" x="354.19" y="-330.5" font-family="Helvetica,sans-Serif" font-size="10.00">/Simopticon/src/optimizer</text>
<text text-anchor="middle" x="429.69" y="-319.5" font-family="Helvetica,sans-Serif" font-size="10.00">/direct/hyrect/HyRect.h</text>
</a>
</g>
</g>
<!-- Node2 -->
<g id="node2" class="node">
<title>Node2</title>
<g id="a_node2"><a xlink:href="DirectOptimizer_8h.xhtml" target="_top" xlink:title="In this file, the header of the DirectOptimizer class is defined.">
<polygon fill="white" stroke="black" points="88.19,-78.5 88.19,-119.5 255.19,-119.5 255.19,-78.5 88.19,-78.5"/>
<text text-anchor="start" x="96.19" y="-107.5" font-family="Helvetica,sans-Serif" font-size="10.00">/home/runner/work/Simopticon</text>
<text text-anchor="start" x="96.19" y="-96.5" font-family="Helvetica,sans-Serif" font-size="10.00">/Simopticon/src/optimizer</text>
<text text-anchor="middle" x="171.69" y="-85.5" font-family="Helvetica,sans-Serif" font-size="10.00">/direct/DirectOptimizer.h</text>
</a>
</g>
</g>
<!-- Node1&#45;&gt;Node2 -->
<g id="edge1" class="edge">
<title>Node1&#45;&gt;Node2</title>
<path fill="none" stroke="midnightblue" d="M335.76,-325.82C219.61,-317.19 34.58,-299.89 13.69,-276 -36.51,-218.58 69.32,-151.83 131.19,-119.52"/>
<polygon fill="midnightblue" stroke="midnightblue" points="335.51,-329.31 345.74,-326.55 336.02,-322.32 335.51,-329.31"/>
</g>
<!-- Node5 -->
<g id="node5" class="node">
<title>Node5</title>
<g id="a_node5"><a xlink:href="GrahamScan_8cpp.xhtml" target="_top" xlink:title="In this file, the implementation of the GrahamScan class is defined.">
<polygon fill="white" stroke="black" points="23.19,-234.5 23.19,-275.5 190.19,-275.5 190.19,-234.5 23.19,-234.5"/>
<text text-anchor="start" x="31.19" y="-263.5" font-family="Helvetica,sans-Serif" font-size="10.00">/home/runner/work/Simopticon</text>
<text text-anchor="start" x="31.19" y="-252.5" font-family="Helvetica,sans-Serif" font-size="10.00">/Simopticon/src/optimizer</text>
<text text-anchor="middle" x="106.69" y="-241.5" font-family="Helvetica,sans-Serif" font-size="10.00">/direct/GrahamScan.cpp</text>
</a>
</g>
</g>
<!-- Node1&#45;&gt;Node5 -->
<g id="edge4" class="edge">
<title>Node1&#45;&gt;Node5</title>
<path fill="none" stroke="midnightblue" d="M336.75,-310.13C290.3,-299.2 234.57,-286.09 189.59,-275.51"/>
<polygon fill="midnightblue" stroke="midnightblue" points="335.98,-313.54 346.51,-312.43 337.58,-306.73 335.98,-313.54"/>
</g>
<!-- Node6 -->
<g id="node6" class="node">
<title>Node6</title>
<g id="a_node6"><a xlink:href="DirectComparisonFunctions_8h.xhtml" target="_top" xlink:title="In this file, comparison functions are defined which are used in the direct module.">
<polygon fill="white" stroke="black" points="207.69,-234.5 207.69,-275.5 401.69,-275.5 401.69,-234.5 207.69,-234.5"/>
<text text-anchor="start" x="215.69" y="-263.5" font-family="Helvetica,sans-Serif" font-size="10.00">/home/runner/work/Simopticon</text>
<text text-anchor="start" x="215.69" y="-252.5" font-family="Helvetica,sans-Serif" font-size="10.00">/Simopticon/src/optimizer</text>
<text text-anchor="middle" x="304.69" y="-241.5" font-family="Helvetica,sans-Serif" font-size="10.00">/direct/DirectComparisonFunctions.h</text>
</a>
</g>
</g>
<!-- Node1&#45;&gt;Node6 -->
<g id="edge5" class="edge">
<title>Node1&#45;&gt;Node6</title>
<path fill="none" stroke="midnightblue" d="M388.91,-307.2C371.99,-296.92 352.65,-285.16 336.78,-275.51"/>
<polygon fill="midnightblue" stroke="midnightblue" points="387.14,-310.22 397.5,-312.43 390.78,-304.24 387.14,-310.22"/>
</g>
<!-- Node8 -->
<g id="node8" class="node">
<title>Node8</title>
<g id="a_node8"><a xlink:href="Levels_8cpp.xhtml" target="_top" xlink:title="In this file, the implementation of the Levels class is defined.">
<polygon fill="white" stroke="black" points="273.19,-78.5 273.19,-119.5 440.19,-119.5 440.19,-78.5 273.19,-78.5"/>
<text text-anchor="start" x="281.19" y="-107.5" font-family="Helvetica,sans-Serif" font-size="10.00">/home/runner/work/Simopticon</text>
<text text-anchor="start" x="281.19" y="-96.5" font-family="Helvetica,sans-Serif" font-size="10.00">/Simopticon/src/optimizer</text>
<text text-anchor="middle" x="356.69" y="-85.5" font-family="Helvetica,sans-Serif" font-size="10.00">/direct/Levels.cpp</text>
</a>
</g>
</g>
<!-- Node1&#45;&gt;Node8 -->
<g id="edge14" class="edge">
<title>Node1&#45;&gt;Node8</title>
<path fill="none" stroke="midnightblue" d="M428.03,-302.17C425.16,-266.22 417.4,-204.6 396.69,-156 391.12,-142.92 382.09,-129.9 374.01,-119.71"/>
<polygon fill="midnightblue" stroke="midnightblue" points="424.57,-302.74 428.78,-312.46 431.55,-302.23 424.57,-302.74"/>
</g>
<!-- Node9 -->
<g id="node9" class="node">
<title>Node9</title>
<g id="a_node9"><a xlink:href="BaseRect_8h.xhtml" target="_top" xlink:title="In this file, the header of the BaseRect class is defined.">
<polygon fill="white" stroke="black" points="457.19,-234.5 457.19,-275.5 624.19,-275.5 624.19,-234.5 457.19,-234.5"/>
<text text-anchor="start" x="465.19" y="-263.5" font-family="Helvetica,sans-Serif" font-size="10.00">/home/runner/work/Simopticon</text>
<text text-anchor="start" x="465.19" y="-252.5" font-family="Helvetica,sans-Serif" font-size="10.00">/Simopticon/src/optimizer</text>
<text text-anchor="middle" x="540.69" y="-241.5" font-family="Helvetica,sans-Serif" font-size="10.00">/direct/hyrect/BaseRect.h</text>
</a>
</g>
</g>
<!-- Node1&#45;&gt;Node9 -->
<g id="edge10" class="edge">
<title>Node1&#45;&gt;Node9</title>
<path fill="none" stroke="midnightblue" d="M466.74,-306.64C481.56,-296.49 498.37,-284.98 512.21,-275.51"/>
<polygon fill="midnightblue" stroke="midnightblue" points="464.55,-303.89 458.28,-312.43 468.51,-309.67 464.55,-303.89"/>
</g>
<!-- Node11 -->
<g id="node11" class="node">
<title>Node11</title>
<g id="a_node11"><a xlink:href="HyRect_8cpp.xhtml" target="_top" xlink:title="In this file, the implementation of the HyRect class is defined.">
<polygon fill="white" stroke="black" points="680.19,-156.5 680.19,-197.5 847.19,-197.5 847.19,-156.5 680.19,-156.5"/>
<text text-anchor="start" x="688.19" y="-185.5" font-family="Helvetica,sans-Serif" font-size="10.00">/home/runner/work/Simopticon</text>
<text text-anchor="start" x="688.19" y="-174.5" font-family="Helvetica,sans-Serif" font-size="10.00">/Simopticon/src/optimizer</text>
<text text-anchor="middle" x="763.69" y="-163.5" font-family="Helvetica,sans-Serif" font-size="10.00">/direct/hyrect/HyRect.cpp</text>
</a>
</g>
</g>
<!-- Node1&#45;&gt;Node11 -->
<g id="edge13" class="edge">
<title>Node1&#45;&gt;Node11</title>
<path fill="none" stroke="midnightblue" d="M523.42,-317.47C559.4,-309.07 599.7,-296.04 632.69,-276 654.47,-262.78 651.96,-250.11 671.69,-234 688.5,-220.28 708.96,-207.5 726.32,-197.62"/>
<polygon fill="midnightblue" stroke="midnightblue" points="522.39,-314.11 513.4,-319.72 523.92,-320.94 522.39,-314.11"/>
</g>
<!-- Node12 -->
<g id="node12" class="node">
<title>Node12</title>
<g id="a_node12"><a xlink:href="ChildRect_8h.xhtml" target="_top" xlink:title="In this file, the header of the ChildRect class is defined.">
<polygon fill="white" stroke="black" points="680.19,-234.5 680.19,-275.5 847.19,-275.5 847.19,-234.5 680.19,-234.5"/>
<text text-anchor="start" x="688.19" y="-263.5" font-family="Helvetica,sans-Serif" font-size="10.00">/home/runner/work/Simopticon</text>
<text text-anchor="start" x="688.19" y="-252.5" font-family="Helvetica,sans-Serif" font-size="10.00">/Simopticon/src/optimizer</text>
<text text-anchor="middle" x="763.69" y="-241.5" font-family="Helvetica,sans-Serif" font-size="10.00">/direct/hyrect/ChildRect.h</text>
</a>
</g>
</g>
<!-- Node1&#45;&gt;Node12 -->
<g id="edge15" class="edge">
<title>Node1&#45;&gt;Node12</title>
<path fill="none" stroke="midnightblue" d="M523.56,-310.64C572.75,-299.45 632.51,-285.85 680.1,-275.02"/>
<polygon fill="midnightblue" stroke="midnightblue" points="522.52,-307.29 513.54,-312.92 524.07,-314.11 522.52,-307.29"/>
</g>
<!-- Node3 -->
<g id="node3" class="node">
<title>Node3</title>
<g id="a_node3"><a xlink:href="Controller_8cpp.xhtml" target="_top" xlink:title="In this file, the implementation of the Controller class is defined.">
<polygon fill="white" stroke="black" points="88.19,-0.5 88.19,-41.5 255.19,-41.5 255.19,-0.5 88.19,-0.5"/>
<text text-anchor="start" x="96.19" y="-29.5" font-family="Helvetica,sans-Serif" font-size="10.00">/home/runner/work/Simopticon</text>
<text text-anchor="start" x="96.19" y="-18.5" font-family="Helvetica,sans-Serif" font-size="10.00">/Simopticon/src/controller</text>
<text text-anchor="middle" x="171.69" y="-7.5" font-family="Helvetica,sans-Serif" font-size="10.00">/Controller.cpp</text>
</a>
</g>
</g>
<!-- Node2&#45;&gt;Node3 -->
<g id="edge2" class="edge">
<title>Node2&#45;&gt;Node3</title>
<path fill="none" stroke="midnightblue" d="M171.69,-68.3C171.69,-59.3 171.69,-49.65 171.69,-41.51"/>
<polygon fill="midnightblue" stroke="midnightblue" points="168.19,-68.43 171.69,-78.43 175.19,-68.43 168.19,-68.43"/>
</g>
<!-- Node4 -->
<g id="node4" class="node">
<title>Node4</title>
<g id="a_node4"><a xlink:href="DirectOptimizer_8cpp.xhtml" target="_top" xlink:title="In this file, the implementation of the DirectOptimizer class is defined.">
<polygon fill="white" stroke="black" points="328.19,-0.5 328.19,-41.5 495.19,-41.5 495.19,-0.5 328.19,-0.5"/>
<text text-anchor="start" x="336.19" y="-29.5" font-family="Helvetica,sans-Serif" font-size="10.00">/home/runner/work/Simopticon</text>
<text text-anchor="start" x="336.19" y="-18.5" font-family="Helvetica,sans-Serif" font-size="10.00">/Simopticon/src/optimizer</text>
<text text-anchor="middle" x="411.69" y="-7.5" font-family="Helvetica,sans-Serif" font-size="10.00">/direct/DirectOptimizer.cpp</text>
</a>
</g>
</g>
<!-- Node2&#45;&gt;Node4 -->
<g id="edge3" class="edge">
<title>Node2&#45;&gt;Node4</title>
<path fill="none" stroke="midnightblue" d="M243.37,-75.3C277.34,-64.55 317.52,-51.82 350.1,-41.51"/>
<polygon fill="midnightblue" stroke="midnightblue" points="241.98,-72.07 233.5,-78.43 244.09,-78.75 241.98,-72.07"/>
</g>
<!-- Node6&#45;&gt;Node2 -->
<g id="edge6" class="edge">
<title>Node6&#45;&gt;Node2</title>
<path fill="none" stroke="midnightblue" d="M250.94,-229.52C236.77,-221.1 222.45,-210.57 211.69,-198 191.97,-174.97 181.06,-140.92 175.79,-119.62"/>
<polygon fill="midnightblue" stroke="midnightblue" points="249.28,-232.6 259.71,-234.48 252.73,-226.51 249.28,-232.6"/>
</g>
<!-- Node7 -->
<g id="node7" class="node">
<title>Node7</title>
<g id="a_node7"><a xlink:href="Levels_8h.xhtml" target="_top" xlink:title="In this file, the header of the Levels class is defined.">
<polygon fill="white" stroke="black" points="221.19,-156.5 221.19,-197.5 388.19,-197.5 388.19,-156.5 221.19,-156.5"/>
<text text-anchor="start" x="229.19" y="-185.5" font-family="Helvetica,sans-Serif" font-size="10.00">/home/runner/work/Simopticon</text>
<text text-anchor="start" x="229.19" y="-174.5" font-family="Helvetica,sans-Serif" font-size="10.00">/Simopticon/src/optimizer</text>
<text text-anchor="middle" x="304.69" y="-163.5" font-family="Helvetica,sans-Serif" font-size="10.00">/direct/Levels.h</text>
</a>
</g>
</g>
<!-- Node6&#45;&gt;Node7 -->
<g id="edge7" class="edge">
<title>Node6&#45;&gt;Node7</title>
<path fill="none" stroke="midnightblue" d="M304.69,-224.3C304.69,-215.3 304.69,-205.65 304.69,-197.51"/>
<polygon fill="midnightblue" stroke="midnightblue" points="301.19,-224.43 304.69,-234.43 308.19,-224.43 301.19,-224.43"/>
</g>
<!-- Node7&#45;&gt;Node2 -->
<g id="edge8" class="edge">
<title>Node7&#45;&gt;Node2</title>
<path fill="none" stroke="midnightblue" d="M261.3,-151.2C243.3,-140.92 222.72,-129.16 205.83,-119.51"/>
<polygon fill="midnightblue" stroke="midnightblue" points="260.02,-154.51 270.44,-156.43 263.5,-148.43 260.02,-154.51"/>
</g>
<!-- Node7&#45;&gt;Node8 -->
<g id="edge9" class="edge">
<title>Node7&#45;&gt;Node8</title>
<path fill="none" stroke="midnightblue" d="M323.82,-148.05C330.31,-138.57 337.41,-128.18 343.35,-119.51"/>
<polygon fill="midnightblue" stroke="midnightblue" points="320.84,-146.2 318.09,-156.43 326.62,-150.15 320.84,-146.2"/>
</g>
<!-- Node9&#45;&gt;Node4 -->
<g id="edge11" class="edge">
<title>Node9&#45;&gt;Node4</title>
<path fill="none" stroke="midnightblue" d="M510,-227.21C501.52,-218.58 492.95,-208.5 486.69,-198 458.08,-149.93 472.79,-128.49 448.69,-78 442.62,-65.28 434.02,-52.07 426.64,-41.68"/>
<polygon fill="midnightblue" stroke="midnightblue" points="507.77,-229.92 517.37,-234.41 512.66,-224.92 507.77,-229.92"/>
</g>
<!-- Node10 -->
<g id="node10" class="node">
<title>Node10</title>
<g id="a_node10"><a xlink:href="BaseRect_8cpp.xhtml" target="_top" xlink:title="In this file, the implementation of the BaseRect class is defined.">
<polygon fill="white" stroke="black" points="495.19,-156.5 495.19,-197.5 662.19,-197.5 662.19,-156.5 495.19,-156.5"/>
<text text-anchor="start" x="503.19" y="-185.5" font-family="Helvetica,sans-Serif" font-size="10.00">/home/runner/work/Simopticon</text>
<text text-anchor="start" x="503.19" y="-174.5" font-family="Helvetica,sans-Serif" font-size="10.00">/Simopticon/src/optimizer</text>
<text text-anchor="middle" x="578.69" y="-163.5" font-family="Helvetica,sans-Serif" font-size="10.00">/direct/hyrect/BaseRect.cpp</text>
</a>
</g>
</g>
<!-- Node9&#45;&gt;Node10 -->
<g id="edge12" class="edge">
<title>Node9&#45;&gt;Node10</title>
<path fill="none" stroke="midnightblue" d="M554.96,-225.47C559.62,-216.14 564.69,-206.01 568.94,-197.51"/>
<polygon fill="midnightblue" stroke="midnightblue" points="551.82,-223.92 550.48,-234.43 558.08,-227.05 551.82,-223.92"/>
</g>
<!-- Node12&#45;&gt;Node11 -->
<g id="edge17" class="edge">
<title>Node12&#45;&gt;Node11</title>
<path fill="none" stroke="midnightblue" d="M763.69,-224.3C763.69,-215.3 763.69,-205.65 763.69,-197.51"/>
<polygon fill="midnightblue" stroke="midnightblue" points="760.19,-224.43 763.69,-234.43 767.19,-224.43 760.19,-224.43"/>
</g>
<!-- Node13 -->
<g id="node13" class="node">
<title>Node13</title>
<g id="a_node13"><a xlink:href="ChildRect_8cpp.xhtml" target="_top" xlink:title="In this file, the implementation of the ChildRect class is defined.">
<polygon fill="white" stroke="black" points="865.19,-156.5 865.19,-197.5 1032.19,-197.5 1032.19,-156.5 865.19,-156.5"/>
<text text-anchor="start" x="873.19" y="-185.5" font-family="Helvetica,sans-Serif" font-size="10.00">/home/runner/work/Simopticon</text>
<text text-anchor="start" x="873.19" y="-174.5" font-family="Helvetica,sans-Serif" font-size="10.00">/Simopticon/src/optimizer</text>
<text text-anchor="middle" x="948.69" y="-163.5" font-family="Helvetica,sans-Serif" font-size="10.00">/direct/hyrect/ChildRect.cpp</text>
</a>
</g>
</g>
<!-- Node12&#45;&gt;Node13 -->
<g id="edge16" class="edge">
<title>Node12&#45;&gt;Node13</title>
<path fill="none" stroke="midnightblue" d="M820.63,-230.61C846.45,-220 876.64,-207.6 901.21,-197.51"/>
<polygon fill="midnightblue" stroke="midnightblue" points="819.26,-227.39 811.34,-234.43 821.92,-233.87 819.26,-227.39"/>
</g>
</g>
</svg>
        <g id="navigator" transform="translate(0 0)" fill="#404254">
                <rect fill="#f2f5e9" fill-opacity="0.5" stroke="#606060" stroke-width=".5" x="0" y="0" width="60" height="60"/>
                <use id="zoomplus" xlink:href="#zoomPlus" x="17" y="9" onmousedown="handleZoom(evt,'in')"/>
                <use id="zoomminus" xlink:href="#zoomMin" x="42" y="9" onmousedown="handleZoom(evt,'out')"/>
                <use id="reset" xlink:href="#resetDef" x="30" y="36" onmousedown="handleReset()"/>
                <g id="arrowUp" xlink:href="#dirArrow" transform="translate(30 24)" onmousedown="handlePan(0,-1)">
                  <use xlink:href="#rim" fill="#404040">
                        <set attributeName="fill" to="#808080" begin="arrowUp.mouseover" end="arrowUp.mouseout"/>
                  </use>
                  <path fill="none" stroke="white" stroke-width="1.5" d="M0,-3.0v7 M-2.5,-0.5L0,-3.0L2.5,-0.5"/>
                </g>
                <g id="arrowRight" xlink:href="#dirArrow" transform="rotate(90) translate(36 -43)" onmousedown="handlePan(1,0)">
                  <use xlink:href="#rim" fill="#404040">
                        <set attributeName="fill" to="#808080" begin="arrowRight.mouseover" end="arrowRight.mouseout"/>
                  </use>
                  <path fill="none" stroke="white" stroke-width="1.5" d="M0,-3.0v7 M-2.5,-0.5L0,-3.0L2.5,-0.5"/>
                </g>
                <g id="arrowDown" xlink:href="#dirArrow" transform="rotate(180) translate(-30 -48)" onmousedown="handlePan(0,1)">
                  <use xlink:href="#rim" fill="#404040">
                        <set attributeName="fill" to="#808080" begin="arrowDown.mouseover" end="arrowDown.mouseout"/>
                  </use>
                  <path fill="none" stroke="white" stroke-width="1.5" d="M0,-3.0v7 M-2.5,-0.5L0,-3.0L2.5,-0.5"/>
                </g>
                <g id="arrowLeft" xlink:href="#dirArrow" transform="rotate(270) translate(-36 17)" onmousedown="handlePan(-1,0)">
                  <use xlink:href="#rim" fill="#404040">
                        <set attributeName="fill" to="#808080" begin="arrowLeft.mouseover" end="arrowLeft.mouseout"/>
                  </use>
                  <path fill="none" stroke="white" stroke-width="1.5" d="M0,-3.0v7 M-2.5,-0.5L0,-3.0L2.5,-0.5"/>
                </g>
        </g>
        <svg viewBox="0 0 15 15" width="100%" height="30px" preserveAspectRatio="xMaxYMin meet">
         <g id="arrow_out" transform="scale(0.3 0.3)">
          <a xlink:href="HyRect_8h__dep__incl_org.svg" target="_base">
           <rect id="button" ry="5" rx="5" y="6" x="6" height="38" width="38"
                fill="#f2f5e9" fill-opacity="0.5" stroke="#606060" stroke-width="1.0"/>
           <path id="arrow"
             d="M 11.500037,31.436501 C 11.940474,20.09759 22.043105,11.32322 32.158766,21.979434 L 37.068811,17.246167 C 37.068811,17.246167 37.088388,32 37.088388,32 L 22.160133,31.978069 C 22.160133,31.978069 26.997745,27.140456 26.997745,27.140456 C 18.528582,18.264221 13.291696,25.230495 11.500037,31.436501 z"
             style="fill:#404040;"/>
          </a>
         </g>
        </svg>
</svg>
