<?xml version="1.0" encoding="UTF-8" standalone="no"?>
<!DOCTYPE svg PUBLIC "-//W3C//DTD SVG 1.1//EN"
 "http://www.w3.org/Graphics/SVG/1.1/DTD/svg11.dtd">
<!-- Generated by graphviz version 2.43.0 (0)
 -->
<!-- Title: src/optimizer/direct/hyrect/HyRect.h Pages: 1 -->
<svg width="746pt" height="307pt"
 viewBox="0.00 0.00 745.50 307.00" xmlns="http://www.w3.org/2000/svg" xmlns:xlink="http://www.w3.org/1999/xlink">
<g id="graph0" class="graph" transform="scale(1 1) rotate(0) translate(4 303)">
<title>src/optimizer/direct/hyrect/HyRect.h</title>
<polygon fill="white" stroke="transparent" points="-4,4 -4,-303 741.5,-303 741.5,4 -4,4"/>
<!-- Node1 -->
<g id="node1" class="node">
<title>Node1</title>
<g id="a_node1"><a xlink:title="In this file, the header of the HyRect class is defined.">
<polygon fill="#bfbfbf" stroke="black" points="275,-268.5 275,-298.5 386,-298.5 386,-268.5 275,-268.5"/>
<text text-anchor="start" x="283" y="-286.5" font-family="Helvetica,sans-Serif" font-size="10.00">src/optimizer/direct</text>
<text text-anchor="middle" x="330.5" y="-275.5" font-family="Helvetica,sans-Serif" font-size="10.00">/hyrect/HyRect.h</text>
</a>
</g>
</g>
<!-- Node2 -->
<g id="node2" class="node">
<title>Node2</title>
<g id="a_node2"><a xlink:href="DirectOptimizer_8h.xhtml" target="_top" xlink:title="In this file, the header of the DirectOptimizer class is defined.">
<polygon fill="white" stroke="black" points="20,-67.5 20,-97.5 131,-97.5 131,-67.5 20,-67.5"/>
<text text-anchor="start" x="28" y="-85.5" font-family="Helvetica,sans-Serif" font-size="10.00">src/optimizer/direct</text>
<text text-anchor="middle" x="75.5" y="-74.5" font-family="Helvetica,sans-Serif" font-size="10.00">/DirectOptimizer.h</text>
</a>
</g>
</g>
<!-- Node1&#45;&gt;Node2 -->
<g id="edge1" class="edge">
<title>Node1&#45;&gt;Node2</title>
<path fill="none" stroke="midnightblue" d="M264.6,-280.3C189.29,-276.23 72.9,-264.69 45.5,-232 12.38,-192.49 47.56,-126.43 65.87,-97.64"/>
<polygon fill="midnightblue" stroke="midnightblue" points="264.77,-283.81 274.94,-280.82 265.13,-276.82 264.77,-283.81"/>
</g>
<!-- Node5 -->
<g id="node5" class="node">
<title>Node5</title>
<g id="a_node5"><a xlink:href="DirectComparisonFunctions_8h.xhtml" target="_top" xlink:title="In this file, comparison functions are defined which are used in the direct module.">
<polygon fill="white" stroke="black" points="55,-201.5 55,-231.5 218,-231.5 218,-201.5 55,-201.5"/>
<text text-anchor="start" x="63" y="-219.5" font-family="Helvetica,sans-Serif" font-size="10.00">src/optimizer/direct</text>
<text text-anchor="middle" x="136.5" y="-208.5" font-family="Helvetica,sans-Serif" font-size="10.00">/DirectComparisonFunctions.h</text>
</a>
</g>
</g>
<!-- Node1&#45;&gt;Node5 -->
<g id="edge4" class="edge">
<title>Node1&#45;&gt;Node5</title>
<path fill="none" stroke="midnightblue" d="M278.54,-265.09C247.23,-254.6 207.86,-241.41 178.51,-231.58"/>
<polygon fill="midnightblue" stroke="midnightblue" points="277.81,-268.54 288.4,-268.4 280.03,-261.9 277.81,-268.54"/>
</g>
<!-- Node7 -->
<g id="node7" class="node">
<title>Node7</title>
<g id="a_node7"><a xlink:href="Levels_8cpp.xhtml" target="_top" xlink:title="In this file, the implementation of the Levels class is defined.">
<polygon fill="white" stroke="black" points="149,-67.5 149,-97.5 260,-97.5 260,-67.5 149,-67.5"/>
<text text-anchor="start" x="157" y="-85.5" font-family="Helvetica,sans-Serif" font-size="10.00">src/optimizer/direct</text>
<text text-anchor="middle" x="204.5" y="-74.5" font-family="Helvetica,sans-Serif" font-size="10.00">/Levels.cpp</text>
</a>
</g>
</g>
<!-- Node1&#45;&gt;Node7 -->
<g id="edge17" class="edge">
<title>Node1&#45;&gt;Node7</title>
<path fill="none" stroke="midnightblue" d="M298.08,-262.45C286.62,-254.14 274.39,-243.69 265.5,-232 256.88,-220.66 223.1,-132.67 209.87,-97.73"/>
<polygon fill="midnightblue" stroke="midnightblue" points="296.41,-265.55 306.62,-268.38 300.4,-259.8 296.41,-265.55"/>
</g>
<!-- Node8 -->
<g id="node8" class="node">
<title>Node8</title>
<g id="a_node8"><a xlink:href="BaseRect_8h.xhtml" target="_top" xlink:title="In this file, the header of the BaseRect class is defined.">
<polygon fill="white" stroke="black" points="275,-201.5 275,-231.5 386,-231.5 386,-201.5 275,-201.5"/>
<text text-anchor="start" x="283" y="-219.5" font-family="Helvetica,sans-Serif" font-size="10.00">src/optimizer/direct</text>
<text text-anchor="middle" x="330.5" y="-208.5" font-family="Helvetica,sans-Serif" font-size="10.00">/hyrect/BaseRect.h</text>
</a>
</g>
</g>
<!-- Node1&#45;&gt;Node8 -->
<g id="edge9" class="edge">
<title>Node1&#45;&gt;Node8</title>
<path fill="none" stroke="midnightblue" d="M330.5,-258.11C330.5,-249.15 330.5,-239.32 330.5,-231.58"/>
<polygon fill="midnightblue" stroke="midnightblue" points="327,-258.4 330.5,-268.4 334,-258.4 327,-258.4"/>
</g>
<!-- Node10 -->
<g id="node10" class="node">
<title>Node10</title>
<g id="a_node10"><a xlink:href="GrahamScan_8cpp.xhtml" target="_top" xlink:title="In this file, the implementation of the GrahamScan class is defined.">
<polygon fill="white" stroke="black" points="404,-201.5 404,-231.5 515,-231.5 515,-201.5 404,-201.5"/>
<text text-anchor="start" x="412" y="-219.5" font-family="Helvetica,sans-Serif" font-size="10.00">src/optimizer/direct</text>
<text text-anchor="middle" x="459.5" y="-208.5" font-family="Helvetica,sans-Serif" font-size="10.00">/GrahamScan.cpp</text>
</a>
</g>
</g>
<!-- Node1&#45;&gt;Node10 -->
<g id="edge12" class="edge">
<title>Node1&#45;&gt;Node10</title>
<path fill="none" stroke="midnightblue" d="M367.51,-263.85C387.9,-253.58 412.81,-241.03 431.56,-231.58"/>
<polygon fill="midnightblue" stroke="midnightblue" points="365.85,-260.77 358.49,-268.4 369,-267.02 365.85,-260.77"/>
</g>
<!-- Node11 -->
<g id="node11" class="node">
<title>Node11</title>
<g id="a_node11"><a xlink:href="HyRect_8cpp.xhtml" target="_top" xlink:title="In this file, the implementation of the HyRect class is defined.">
<polygon fill="white" stroke="black" points="488,-134.5 488,-164.5 599,-164.5 599,-134.5 488,-134.5"/>
<text text-anchor="start" x="496" y="-152.5" font-family="Helvetica,sans-Serif" font-size="10.00">src/optimizer/direct</text>
<text text-anchor="middle" x="543.5" y="-141.5" font-family="Helvetica,sans-Serif" font-size="10.00">/hyrect/HyRect.cpp</text>
</a>
</g>
</g>
<!-- Node1&#45;&gt;Node11 -->
<g id="edge13" class="edge">
<title>Node1&#45;&gt;Node11</title>
<path fill="none" stroke="midnightblue" d="M396.07,-272.67C444.75,-264.07 505.65,-250.12 523.5,-232 541.29,-213.94 544.13,-182.78 544.13,-164.67"/>
<polygon fill="midnightblue" stroke="midnightblue" points="395.47,-269.23 386.21,-274.38 396.66,-276.13 395.47,-269.23"/>
</g>
<!-- Node12 -->
<g id="node12" class="node">
<title>Node12</title>
<g id="a_node12"><a xlink:href="ChildRect_8h.xhtml" target="_top" xlink:title="In this file, the header of the ChildRect class is defined.">
<polygon fill="white" stroke="black" points="572,-201.5 572,-231.5 683,-231.5 683,-201.5 572,-201.5"/>
<text text-anchor="start" x="580" y="-219.5" font-family="Helvetica,sans-Serif" font-size="10.00">src/optimizer/direct</text>
<text text-anchor="middle" x="627.5" y="-208.5" font-family="Helvetica,sans-Serif" font-size="10.00">/hyrect/ChildRect.h</text>
</a>
</g>
</g>
<!-- Node1&#45;&gt;Node12 -->
<g id="edge14" class="edge">
<title>Node1&#45;&gt;Node12</title>
<path fill="none" stroke="midnightblue" d="M395.93,-268.18C448.61,-256.65 521.84,-240.62 571.75,-229.7"/>
<polygon fill="midnightblue" stroke="midnightblue" points="395.04,-264.79 386.02,-270.35 396.53,-271.63 395.04,-264.79"/>
</g>
<!-- Node3 -->
<g id="node3" class="node">
<title>Node3</title>
<g id="a_node3"><a xlink:href="Controller_8cpp.xhtml" target="_top" xlink:title="In this file, the implementation of the Controller class is defined.">
<polygon fill="white" stroke="black" points="0,-6 0,-25 151,-25 151,-6 0,-6"/>
<text text-anchor="middle" x="75.5" y="-13" font-family="Helvetica,sans-Serif" font-size="10.00">src/controller/Controller.cpp</text>
</a>
</g>
</g>
<!-- Node2&#45;&gt;Node3 -->
<g id="edge2" class="edge">
<title>Node2&#45;&gt;Node3</title>
<path fill="none" stroke="midnightblue" d="M75.5,-57.25C75.5,-46.02 75.5,-33.38 75.5,-25.19"/>
<polygon fill="midnightblue" stroke="midnightblue" points="72,-57.4 75.5,-67.4 79,-57.4 72,-57.4"/>
</g>
<!-- Node4 -->
<g id="node4" class="node">
<title>Node4</title>
<g id="a_node4"><a xlink:href="DirectOptimizer_8cpp.xhtml" target="_top" xlink:title="In this file, the implementation of the DirectOptimizer class is defined.">
<polygon fill="white" stroke="black" points="199.5,-0.5 199.5,-30.5 315.5,-30.5 315.5,-0.5 199.5,-0.5"/>
<text text-anchor="start" x="207.5" y="-18.5" font-family="Helvetica,sans-Serif" font-size="10.00">src/optimizer/direct</text>
<text text-anchor="middle" x="257.5" y="-7.5" font-family="Helvetica,sans-Serif" font-size="10.00">/DirectOptimizer.cpp</text>
</a>
</g>
</g>
<!-- Node2&#45;&gt;Node4 -->
<g id="edge3" class="edge">
<title>Node2&#45;&gt;Node4</title>
<path fill="none" stroke="midnightblue" d="M124.63,-63.96C153.94,-53.48 190.68,-40.37 218.09,-30.58"/>
<polygon fill="midnightblue" stroke="midnightblue" points="123.23,-60.74 114.99,-67.4 125.59,-67.33 123.23,-60.74"/>
</g>
<!-- Node5&#45;&gt;Node2 -->
<g id="edge5" class="edge">
<title>Node5&#45;&gt;Node2</title>
<path fill="none" stroke="midnightblue" d="M114.71,-193.86C107.33,-185.46 99.66,-175.37 94.5,-165 83.57,-143.01 78.79,-114.54 76.8,-97.72"/>
<polygon fill="midnightblue" stroke="midnightblue" points="112.26,-196.36 121.61,-201.35 117.41,-191.62 112.26,-196.36"/>
</g>
<!-- Node6 -->
<g id="node6" class="node">
<title>Node6</title>
<g id="a_node6"><a xlink:href="Levels_8h.xhtml" target="_top" xlink:title="In this file, the header of the Levels class is defined.">
<polygon fill="white" stroke="black" points="104,-134.5 104,-164.5 215,-164.5 215,-134.5 104,-134.5"/>
<text text-anchor="start" x="112" y="-152.5" font-family="Helvetica,sans-Serif" font-size="10.00">src/optimizer/direct</text>
<text text-anchor="middle" x="159.5" y="-141.5" font-family="Helvetica,sans-Serif" font-size="10.00">/Levels.h</text>
</a>
</g>
</g>
<!-- Node5&#45;&gt;Node6 -->
<g id="edge6" class="edge">
<title>Node5&#45;&gt;Node6</title>
<path fill="none" stroke="midnightblue" d="M144.92,-191.7C148.15,-182.59 151.72,-172.49 154.52,-164.58"/>
<polygon fill="midnightblue" stroke="midnightblue" points="141.53,-190.8 141.49,-201.4 148.13,-193.14 141.53,-190.8"/>
</g>
<!-- Node6&#45;&gt;Node2 -->
<g id="edge7" class="edge">
<title>Node6&#45;&gt;Node2</title>
<path fill="none" stroke="midnightblue" d="M133.22,-128.17C120.38,-118.23 105.24,-106.51 93.69,-97.58"/>
<polygon fill="midnightblue" stroke="midnightblue" points="131.22,-131.04 141.27,-134.4 135.51,-125.51 131.22,-131.04"/>
</g>
<!-- Node6&#45;&gt;Node7 -->
<g id="edge8" class="edge">
<title>Node6&#45;&gt;Node7</title>
<path fill="none" stroke="midnightblue" d="M174.97,-126.16C181.53,-116.68 188.98,-105.92 194.75,-97.58"/>
<polygon fill="midnightblue" stroke="midnightblue" points="172.08,-124.18 169.26,-134.4 177.83,-128.17 172.08,-124.18"/>
</g>
<!-- Node8&#45;&gt;Node4 -->
<g id="edge10" class="edge">
<title>Node8&#45;&gt;Node4</title>
<path fill="none" stroke="midnightblue" d="M319.13,-191.87C315.25,-183.47 311.01,-173.89 307.5,-165 288.32,-116.42 269.78,-57.18 261.72,-30.59"/>
<polygon fill="midnightblue" stroke="midnightblue" points="316.04,-193.52 323.46,-201.08 322.38,-190.55 316.04,-193.52"/>
</g>
<!-- Node9 -->
<g id="node9" class="node">
<title>Node9</title>
<g id="a_node9"><a xlink:href="BaseRect_8cpp.xhtml" target="_top" xlink:title="In this file, the implementation of the BaseRect class is defined.">
<polygon fill="white" stroke="black" points="317,-134.5 317,-164.5 436,-164.5 436,-134.5 317,-134.5"/>
<text text-anchor="start" x="325" y="-152.5" font-family="Helvetica,sans-Serif" font-size="10.00">src/optimizer/direct</text>
<text text-anchor="middle" x="376.5" y="-141.5" font-family="Helvetica,sans-Serif" font-size="10.00">/hyrect/BaseRect.cpp</text>
</a>
</g>
</g>
<!-- Node8&#45;&gt;Node9 -->
<g id="edge11" class="edge">
<title>Node8&#45;&gt;Node9</title>
<path fill="none" stroke="midnightblue" d="M346.31,-193.16C353.02,-183.68 360.63,-172.92 366.54,-164.58"/>
<polygon fill="midnightblue" stroke="midnightblue" points="343.4,-191.21 340.48,-201.4 349.12,-195.26 343.4,-191.21"/>
</g>
<!-- Node12&#45;&gt;Node11 -->
<g id="edge16" class="edge">
<title>Node12&#45;&gt;Node11</title>
<path fill="none" stroke="midnightblue" d="M601.22,-195.17C588.38,-185.23 573.24,-173.51 561.69,-164.58"/>
<polygon fill="midnightblue" stroke="midnightblue" points="599.22,-198.04 609.27,-201.4 603.51,-192.51 599.22,-198.04"/>
</g>
<!-- Node13 -->
<g id="node13" class="node">
<title>Node13</title>
<g id="a_node13"><a xlink:href="ChildRect_8cpp.xhtml" target="_top" xlink:title="In this file, the implementation of the ChildRect class is defined.">
<polygon fill="white" stroke="black" points="617.5,-134.5 617.5,-164.5 737.5,-164.5 737.5,-134.5 617.5,-134.5"/>
<text text-anchor="start" x="625.5" y="-152.5" font-family="Helvetica,sans-Serif" font-size="10.00">src/optimizer/direct</text>
<text text-anchor="middle" x="677.5" y="-141.5" font-family="Helvetica,sans-Serif" font-size="10.00">/hyrect/ChildRect.cpp</text>
</a>
</g>
</g>
<!-- Node12&#45;&gt;Node13 -->
<g id="edge15" class="edge">
<title>Node12&#45;&gt;Node13</title>
<path fill="none" stroke="midnightblue" d="M644.46,-193.45C651.81,-183.9 660.19,-173 666.67,-164.58"/>
<polygon fill="midnightblue" stroke="midnightblue" points="641.67,-191.34 638.35,-201.4 647.22,-195.6 641.67,-191.34"/>
</g>
</g>
</svg>
