<?xml version="1.0" encoding="UTF-8" standalone="no"?>
<!DOCTYPE svg PUBLIC "-//W3C//DTD SVG 1.1//EN"
 "http://www.w3.org/Graphics/SVG/1.1/DTD/svg11.dtd">
<!-- Generated by graphviz version 2.43.0 (0)
 -->
<!-- Title: Graphical Class Hierarchy Pages: 1 -->
<svg width="511pt" height="284pt"
 viewBox="0.00 0.00 511.00 284.00" xmlns="http://www.w3.org/2000/svg" xmlns:xlink="http://www.w3.org/1999/xlink">
<g id="graph0" class="graph" transform="scale(1 1) rotate(0) translate(4 280)">
<title>Graphical Class Hierarchy</title>
<polygon fill="white" stroke="transparent" points="-4,4 -4,-280 507,-280 507,4 -4,4"/>
<!-- Node0 -->
<g id="node1" class="node">
<title>Node0</title>
<g id="a_node1"><a xlink:href="classAbortable.xhtml" target="_top" xlink:title="A simple interface for classes that encapsulate abortable processes.">
<polygon fill="white" stroke="black" points="54.5,-237.5 54.5,-256.5 118.5,-256.5 118.5,-237.5 54.5,-237.5"/>
<text text-anchor="middle" x="86.5" y="-244.5" font-family="Helvetica,sans-Serif" font-size="10.00">Abortable</text>
</a>
</g>
</g>
<!-- Node1 -->
<g id="node2" class="node">
<title>Node1</title>
<g id="a_node2"><a xlink:href="classController.xhtml" target="_top" xlink:title="A class responsible for communication between Optimizer, SimulationRunner and Evaluation and also use...">
<polygon fill="white" stroke="black" points="240.5,-256.5 240.5,-275.5 305.5,-275.5 305.5,-256.5 240.5,-256.5"/>
<text text-anchor="middle" x="273" y="-263.5" font-family="Helvetica,sans-Serif" font-size="10.00">Controller</text>
</a>
</g>
</g>
<!-- Node0&#45;&gt;Node1 -->
<g id="edge1" class="edge">
<title>Node0&#45;&gt;Node1</title>
<path fill="none" stroke="midnightblue" d="M128.8,-251.25C162.5,-254.72 209.42,-259.56 240.24,-262.73"/>
<polygon fill="midnightblue" stroke="midnightblue" points="129.1,-247.77 118.8,-250.22 128.39,-254.73 129.1,-247.77"/>
</g>
<!-- Node3 -->
<g id="node4" class="node">
<title>Node3</title>
<g id="a_node4"><a xlink:href="classOptimizer.xhtml" target="_top" xlink:title="A class containing an optimization strategy which searches the minimum of a blackbox function given t...">
<polygon fill="white" stroke="black" points="240.5,-218.5 240.5,-237.5 305.5,-237.5 305.5,-218.5 240.5,-218.5"/>
<text text-anchor="middle" x="273" y="-225.5" font-family="Helvetica,sans-Serif" font-size="10.00">Optimizer</text>
</a>
</g>
</g>
<!-- Node0&#45;&gt;Node3 -->
<g id="edge3" class="edge">
<title>Node0&#45;&gt;Node3</title>
<path fill="none" stroke="midnightblue" d="M128.8,-242.75C162.5,-239.28 209.42,-234.44 240.24,-231.27"/>
<polygon fill="midnightblue" stroke="midnightblue" points="128.39,-239.27 118.8,-243.78 129.1,-246.23 128.39,-239.27"/>
</g>
<!-- Node2 -->
<g id="node3" class="node">
<title>Node2</title>
<g id="a_node3"><a xlink:href="classStubController.xhtml" target="_top" xlink:title="A class that mocks behaviour of Controller.">
<polygon fill="white" stroke="black" points="395,-256.5 395,-275.5 481,-275.5 481,-256.5 395,-256.5"/>
<text text-anchor="middle" x="438" y="-263.5" font-family="Helvetica,sans-Serif" font-size="10.00">StubController</text>
</a>
</g>
</g>
<!-- Node1&#45;&gt;Node2 -->
<g id="edge2" class="edge">
<title>Node1&#45;&gt;Node2</title>
<path fill="none" stroke="midnightblue" d="M316.11,-266C340.29,-266 370.57,-266 394.77,-266"/>
<polygon fill="midnightblue" stroke="midnightblue" points="315.82,-262.5 305.81,-266 315.81,-269.5 315.82,-262.5"/>
</g>
<!-- Node4 -->
<g id="node5" class="node">
<title>Node4</title>
<g id="a_node5"><a xlink:href="classDirectOptimizer.xhtml" target="_top" xlink:title="A class capable of finding the minimum of a blackbox function using the DIRECT algorithm.">
<polygon fill="white" stroke="black" points="391,-218.5 391,-237.5 485,-237.5 485,-218.5 391,-218.5"/>
<text text-anchor="middle" x="438" y="-225.5" font-family="Helvetica,sans-Serif" font-size="10.00">DirectOptimizer</text>
</a>
</g>
</g>
<!-- Node3&#45;&gt;Node4 -->
<g id="edge4" class="edge">
<title>Node3&#45;&gt;Node4</title>
<path fill="none" stroke="midnightblue" d="M315.91,-228C338.81,-228 367.22,-228 390.76,-228"/>
<polygon fill="midnightblue" stroke="midnightblue" points="315.82,-224.5 305.81,-228 315.81,-231.5 315.82,-224.5"/>
</g>
<!-- Node18 -->
<g id="node6" class="node">
<title>Node18</title>
<g id="a_node6"><a xlink:href="classMultithreaded.xhtml" target="_top" xlink:title=" ">
<polygon fill="white" stroke="black" points="0,-0.5 0,-63.5 173,-63.5 173,-0.5 0,-0.5"/>
<text text-anchor="start" x="8" y="-51.5" font-family="Helvetica,sans-Serif" font-size="10.00">Multithreaded&lt; parameter</text>
<text text-anchor="start" x="8" y="-40.5" font-family="Helvetica,sans-Serif" font-size="10.00">Combination, std::pair</text>
<text text-anchor="start" x="8" y="-29.5" font-family="Helvetica,sans-Serif" font-size="10.00">&lt; std::filesystem::path,</text>
<text text-anchor="start" x="8" y="-18.5" font-family="Helvetica,sans-Serif" font-size="10.00"> std::set&lt; runId &gt; &gt;, CmpVector</text>
<text text-anchor="middle" x="86.5" y="-7.5" font-family="Helvetica,sans-Serif" font-size="10.00">SharedParameter &gt;</text>
</a>
</g>
</g>
<!-- Node19 -->
<g id="node7" class="node">
<title>Node19</title>
<g id="a_node7"><a xlink:href="classSimulationRunner.xhtml" target="_top" xlink:title="A class capable of running simulations with certain parameterCombinations.">
<polygon fill="white" stroke="black" points="221,-22.5 221,-41.5 325,-41.5 325,-22.5 221,-22.5"/>
<text text-anchor="middle" x="273" y="-29.5" font-family="Helvetica,sans-Serif" font-size="10.00">SimulationRunner</text>
</a>
</g>
</g>
<!-- Node18&#45;&gt;Node19 -->
<g id="edge5" class="edge">
<title>Node18&#45;&gt;Node19</title>
<path fill="none" stroke="midnightblue" d="M183.59,-32C196.45,-32 209.22,-32 220.88,-32"/>
<polygon fill="midnightblue" stroke="midnightblue" points="183.27,-28.5 173.27,-32 183.27,-35.5 183.27,-28.5"/>
</g>
<!-- Node20 -->
<g id="node8" class="node">
<title>Node20</title>
<g id="a_node8"><a xlink:href="classPlexeSimulationRunner.xhtml" target="_top" xlink:title="A class capable of starting platooning simulations in the Plexe framework with given parameterCombina...">
<polygon fill="white" stroke="black" points="373,-52.5 373,-71.5 503,-71.5 503,-52.5 373,-52.5"/>
<text text-anchor="middle" x="438" y="-59.5" font-family="Helvetica,sans-Serif" font-size="10.00">PlexeSimulationRunner</text>
</a>
</g>
</g>
<!-- Node19&#45;&gt;Node20 -->
<g id="edge6" class="edge">
<title>Node19&#45;&gt;Node20</title>
<path fill="none" stroke="midnightblue" d="M335.2,-43.26C351.67,-46.29 369.31,-49.54 385.21,-52.47"/>
<polygon fill="midnightblue" stroke="midnightblue" points="335.6,-39.78 325.13,-41.41 334.33,-46.66 335.6,-39.78"/>
</g>
<!-- Node21 -->
<g id="node9" class="node">
<title>Node21</title>
<g id="a_node9"><a xlink:href="classMultithreaded.xhtml" target="_top" xlink:title=" ">
<polygon fill="white" stroke="black" points="209,-60.5 209,-123.5 337,-123.5 337,-60.5 209,-60.5"/>
<text text-anchor="start" x="217" y="-111.5" font-family="Helvetica,sans-Serif" font-size="10.00">Multithreaded&lt; std</text>
<text text-anchor="start" x="217" y="-100.5" font-family="Helvetica,sans-Serif" font-size="10.00">::pair&lt; std::filesystem</text>
<text text-anchor="start" x="217" y="-89.5" font-family="Helvetica,sans-Serif" font-size="10.00">::path, std::pair&lt; std</text>
<text text-anchor="start" x="217" y="-78.5" font-family="Helvetica,sans-Serif" font-size="10.00">::string, unsigned int &gt;</text>
<text text-anchor="middle" x="273" y="-67.5" font-family="Helvetica,sans-Serif" font-size="10.00"> &gt;, bool &gt;</text>
</a>
</g>
</g>
<!-- Node21&#45;&gt;Node20 -->
<g id="edge7" class="edge">
<title>Node21&#45;&gt;Node20</title>
<path fill="none" stroke="midnightblue" d="M347.22,-78.52C360.04,-76.16 373.14,-73.75 385.23,-71.53"/>
<polygon fill="midnightblue" stroke="midnightblue" points="346.22,-75.15 337.02,-80.4 347.49,-82.03 346.22,-75.15"/>
</g>
<!-- Node27 -->
<g id="node10" class="node">
<title>Node27</title>
<g id="a_node10"><a xlink:href="classPythonScript.xhtml" target="_top" xlink:title="A class containing functionality for interfacing with the function of a Python module on creation.">
<polygon fill="white" stroke="black" points="234,-142.5 234,-161.5 312,-161.5 312,-142.5 234,-142.5"/>
<text text-anchor="middle" x="273" y="-149.5" font-family="Helvetica,sans-Serif" font-size="10.00">PythonScript</text>
</a>
</g>
</g>
<!-- Node28 -->
<g id="node11" class="node">
<title>Node28</title>
<g id="a_node11"><a xlink:href="classConstantHeadway.xhtml" target="_top" xlink:title="A wrapper for the constant_headway.py script.">
<polygon fill="white" stroke="black" points="385,-161.5 385,-180.5 491,-180.5 491,-161.5 385,-161.5"/>
<text text-anchor="middle" x="438" y="-168.5" font-family="Helvetica,sans-Serif" font-size="10.00">ConstantHeadway</text>
</a>
</g>
</g>
<!-- Node27&#45;&gt;Node28 -->
<g id="edge8" class="edge">
<title>Node27&#45;&gt;Node28</title>
<path fill="none" stroke="midnightblue" d="M322.2,-157.62C341.9,-159.92 364.74,-162.58 384.83,-164.92"/>
<polygon fill="midnightblue" stroke="midnightblue" points="322.55,-154.14 312.22,-156.45 321.74,-161.09 322.55,-154.14"/>
</g>
<!-- Node29 -->
<g id="node12" class="node">
<title>Node29</title>
<g id="a_node12"><a xlink:href="classStatus.xhtml" target="_top" xlink:title="An interface defining functions for status updates on configuration and progress of a class.">
<polygon fill="white" stroke="black" points="63,-180.5 63,-199.5 110,-199.5 110,-180.5 63,-180.5"/>
<text text-anchor="middle" x="86.5" y="-187.5" font-family="Helvetica,sans-Serif" font-size="10.00">Status</text>
</a>
</g>
</g>
<!-- Node29&#45;&gt;Node3 -->
<g id="edge11" class="edge">
<title>Node29&#45;&gt;Node3</title>
<path fill="none" stroke="midnightblue" d="M119.99,-196.69C153.86,-203.67 206.61,-214.53 240.22,-221.45"/>
<polygon fill="midnightblue" stroke="midnightblue" points="120.62,-193.25 110.12,-194.66 119.21,-200.1 120.62,-193.25"/>
</g>
<!-- Node29&#45;&gt;Node19 -->
<g id="edge12" class="edge">
<title>Node29&#45;&gt;Node19</title>
<path fill="none" stroke="midnightblue" d="M98.58,-171.7C117.51,-141.97 158.93,-83.29 209,-51 214.95,-47.16 221.72,-44.07 228.55,-41.58"/>
<polygon fill="midnightblue" stroke="midnightblue" points="95.56,-169.92 93.24,-180.26 101.5,-173.62 95.56,-169.92"/>
</g>
<!-- Node30 -->
<g id="node13" class="node">
<title>Node30</title>
<g id="a_node13"><a xlink:href="classEvaluation.xhtml" target="_top" xlink:title="A class capable of evaluating simulation results and scoring them with a value which is treated as th...">
<polygon fill="white" stroke="black" points="239,-180.5 239,-199.5 307,-199.5 307,-180.5 239,-180.5"/>
<text text-anchor="middle" x="273" y="-187.5" font-family="Helvetica,sans-Serif" font-size="10.00">Evaluation</text>
</a>
</g>
</g>
<!-- Node29&#45;&gt;Node30 -->
<g id="edge9" class="edge">
<title>Node29&#45;&gt;Node30</title>
<path fill="none" stroke="midnightblue" d="M120.3,-190C153.74,-190 205.34,-190 238.9,-190"/>
<polygon fill="midnightblue" stroke="midnightblue" points="120.12,-186.5 110.12,-190 120.12,-193.5 120.12,-186.5"/>
</g>
<!-- Node30&#45;&gt;Node28 -->
<g id="edge10" class="edge">
<title>Node30&#45;&gt;Node28</title>
<path fill="none" stroke="midnightblue" d="M317.46,-184.93C338.14,-182.52 363.03,-179.62 384.73,-177.09"/>
<polygon fill="midnightblue" stroke="midnightblue" points="316.91,-181.47 307.38,-186.11 317.72,-188.43 316.91,-181.47"/>
</g>
</g>
</svg>
