<?xml version="1.0" encoding="UTF-8" standalone="no"?>
<!DOCTYPE svg PUBLIC "-//W3C//DTD SVG 1.1//EN"
 "http://www.w3.org/Graphics/SVG/1.1/DTD/svg11.dtd">
<!-- Generated by graphviz version 2.43.0 (0)
 -->
<!-- Title: Graphical Class Hierarchy Pages: 1 -->
<svg width="159pt" height="66pt"
 viewBox="0.00 0.00 159.00 66.00" xmlns="http://www.w3.org/2000/svg" xmlns:xlink="http://www.w3.org/1999/xlink">
<g id="graph0" class="graph" transform="scale(1 1) rotate(0) translate(4 62)">
<title>Graphical Class Hierarchy</title>
<polygon fill="white" stroke="transparent" points="-4,4 -4,-62 155,-62 155,4 -4,4"/>
<!-- Node0 -->
<g id="node1" class="node">
<title>Node0</title>
<g id="a_node1"><a xlink:href="classHyRect.xhtml" target="_top" xlink:title="An abstract class representing a rectangular part of the search space.">
<polygon fill="white" stroke="black" points="0,-19.5 0,-38.5 52,-38.5 52,-19.5 0,-19.5"/>
<text text-anchor="middle" x="26" y="-26.5" font-family="Helvetica,sans-Serif" font-size="10.00">HyRect</text>
</a>
</g>
</g>
<!-- Node1 -->
<g id="node2" class="node">
<title>Node1</title>
<g id="a_node2"><a xlink:href="classBaseRect.xhtml" target="_top" xlink:title="A class representing a HyRect without a parent rectangle.">
<polygon fill="white" stroke="black" points="88.5,-38.5 88.5,-57.5 150.5,-57.5 150.5,-38.5 88.5,-38.5"/>
<text text-anchor="middle" x="119.5" y="-45.5" font-family="Helvetica,sans-Serif" font-size="10.00">BaseRect</text>
</a>
</g>
</g>
<!-- Node0&#45;&gt;Node1 -->
<g id="edge1" class="edge">
<title>Node0&#45;&gt;Node1</title>
<path fill="none" stroke="midnightblue" d="M61.89,-36.24C70.59,-38.05 79.86,-39.98 88.32,-41.73"/>
<polygon fill="midnightblue" stroke="midnightblue" points="62.51,-32.8 52,-34.19 61.08,-39.65 62.51,-32.8"/>
</g>
<!-- Node2 -->
<g id="node3" class="node">
<title>Node2</title>
<g id="a_node3"><a xlink:href="classChildRect.xhtml" target="_top" xlink:title="A class representing a HyRect that has a parent HyRect.">
<polygon fill="white" stroke="black" points="88,-0.5 88,-19.5 151,-19.5 151,-0.5 88,-0.5"/>
<text text-anchor="middle" x="119.5" y="-7.5" font-family="Helvetica,sans-Serif" font-size="10.00">ChildRect</text>
</a>
</g>
</g>
<!-- Node0&#45;&gt;Node2 -->
<g id="edge2" class="edge">
<title>Node0&#45;&gt;Node2</title>
<path fill="none" stroke="midnightblue" d="M62.07,-21.72C70.61,-19.94 79.68,-18.06 87.98,-16.34"/>
<polygon fill="midnightblue" stroke="midnightblue" points="61.08,-18.35 52,-23.81 62.51,-25.2 61.08,-18.35"/>
</g>
</g>
</svg>
