<?xml version="1.0" encoding="UTF-8" standalone="no"?>
<!DOCTYPE svg PUBLIC "-//W3C//DTD SVG 1.1//EN"
 "http://www.w3.org/Graphics/SVG/1.1/DTD/svg11.dtd">
<!-- Generated by graphviz version 2.43.0 (0)
 -->
<!-- Title: Graphical Class Hierarchy Pages: 1 -->
<svg width="233pt" height="66pt"
 viewBox="0.00 0.00 233.00 66.00" xmlns="http://www.w3.org/2000/svg" xmlns:xlink="http://www.w3.org/1999/xlink">
<g id="graph0" class="graph" transform="scale(1 1) rotate(0) translate(4 62)">
<title>Graphical Class Hierarchy</title>
<polygon fill="white" stroke="transparent" points="-4,4 -4,-62 229,-62 229,4 -4,4"/>
<!-- Node0 -->
<g id="node1" class="node">
<title>Node0</title>
<g id="a_node1"><a xlink:href="classParameter.xhtml" target="_top" xlink:title="A class acting as the container of the value of a parameter defined by a ParameterDefinition.">
<polygon fill="white" stroke="black" points="0,-19.5 0,-38.5 67,-38.5 67,-19.5 0,-19.5"/>
<text text-anchor="middle" x="33.5" y="-26.5" font-family="Helvetica,sans-Serif" font-size="10.00">Parameter</text>
</a>
</g>
</g>
<!-- Node1 -->
<g id="node2" class="node">
<title>Node1</title>
<g id="a_node2"><a xlink:href="classContinuousParameter.xhtml" target="_top" xlink:title="Implements a Parameter using continuos values in the form of floating point numbers.">
<polygon fill="white" stroke="black" points="103,-38.5 103,-57.5 225,-57.5 225,-38.5 103,-38.5"/>
<text text-anchor="middle" x="164" y="-45.5" font-family="Helvetica,sans-Serif" font-size="10.00">ContinuousParameter</text>
</a>
</g>
</g>
<!-- Node0&#45;&gt;Node1 -->
<g id="edge1" class="edge">
<title>Node0&#45;&gt;Node1</title>
<path fill="none" stroke="midnightblue" d="M77.3,-35.33C85.49,-36.54 94.2,-37.83 102.82,-39.1"/>
<polygon fill="midnightblue" stroke="midnightblue" points="77.66,-31.84 67.26,-33.84 76.64,-38.77 77.66,-31.84"/>
</g>
<!-- Node2 -->
<g id="node3" class="node">
<title>Node2</title>
<g id="a_node3"><a xlink:href="classDiscreteParameter.xhtml" target="_top" xlink:title="Implements a Parameter using discrete values.">
<polygon fill="white" stroke="black" points="110.5,-0.5 110.5,-19.5 217.5,-19.5 217.5,-0.5 110.5,-0.5"/>
<text text-anchor="middle" x="164" y="-7.5" font-family="Helvetica,sans-Serif" font-size="10.00">DiscreteParameter</text>
</a>
</g>
</g>
<!-- Node0&#45;&gt;Node2 -->
<g id="edge2" class="edge">
<title>Node0&#45;&gt;Node2</title>
<path fill="none" stroke="midnightblue" d="M77.46,-22.65C88,-21.09 99.39,-19.4 110.33,-17.79"/>
<polygon fill="midnightblue" stroke="midnightblue" points="76.64,-19.23 67.26,-24.16 77.66,-26.16 76.64,-19.23"/>
</g>
</g>
</svg>
