<?xml version="1.0" encoding="UTF-8" standalone="no"?>
<!DOCTYPE svg PUBLIC "-//W3C//DTD SVG 1.1//EN"
 "http://www.w3.org/Graphics/SVG/1.1/DTD/svg11.dtd">
<!-- Generated by graphviz version 2.43.0 (0)
 -->
<!-- Title: src/optimizer/direct/Levels.cpp Pages: 1 -->
<svg width="549pt" height="319pt"
 viewBox="0.00 0.00 548.69 319.00" xmlns="http://www.w3.org/2000/svg" xmlns:xlink="http://www.w3.org/1999/xlink">
<g id="graph0" class="graph" transform="scale(1 1) rotate(0) translate(4 315)">
<title>src/optimizer/direct/Levels.cpp</title>
<polygon fill="white" stroke="transparent" points="-4,4 -4,-315 544.69,-315 544.69,4 -4,4"/>
<!-- Node1 -->
<g id="node1" class="node">
<title>Node1</title>
<g id="a_node1"><a xlink:title="In this file, the implementation of the Levels class is defined.">
<polygon fill="#bfbfbf" stroke="black" points="357.69,-280.5 357.69,-310.5 468.69,-310.5 468.69,-280.5 357.69,-280.5"/>
<text text-anchor="start" x="365.69" y="-298.5" font-family="Helvetica,sans-Serif" font-size="10.00">src/optimizer/direct</text>
<text text-anchor="middle" x="413.19" y="-287.5" font-family="Helvetica,sans-Serif" font-size="10.00">/Levels.cpp</text>
</a>
</g>
</g>
<!-- Node2 -->
<g id="node2" class="node">
<title>Node2</title>
<g id="a_node2"><a xlink:href="Levels_8h.xhtml" target="_top" xlink:title="In this file, the header of the Levels class is defined.">
<polygon fill="white" stroke="black" points="124.69,-224.5 124.69,-243.5 181.69,-243.5 181.69,-224.5 124.69,-224.5"/>
<text text-anchor="middle" x="153.19" y="-231.5" font-family="Helvetica,sans-Serif" font-size="10.00">Levels.h</text>
</a>
</g>
</g>
<!-- Node1&#45;&gt;Node2 -->
<g id="edge1" class="edge">
<title>Node1&#45;&gt;Node2</title>
<path fill="none" stroke="midnightblue" d="M357.41,-281.74C307.54,-270.32 235.76,-253.9 191.92,-243.86"/>
<polygon fill="midnightblue" stroke="midnightblue" points="192.47,-240.4 181.94,-241.58 190.91,-247.22 192.47,-240.4"/>
</g>
<!-- Node4 -->
<g id="node4" class="node">
<title>Node4</title>
<g id="a_node4"><a xlink:href="HyRect_8h.xhtml" target="_top" xlink:title="In this file, the header of the HyRect class is defined.">
<polygon fill="white" stroke="black" points="266.69,-112.5 266.69,-131.5 361.69,-131.5 361.69,-112.5 266.69,-112.5"/>
<text text-anchor="middle" x="314.19" y="-119.5" font-family="Helvetica,sans-Serif" font-size="10.00">hyrect/HyRect.h</text>
</a>
</g>
</g>
<!-- Node1&#45;&gt;Node4 -->
<g id="edge20" class="edge">
<title>Node1&#45;&gt;Node4</title>
<path fill="none" stroke="midnightblue" d="M414.86,-280.14C417.01,-255.04 418.01,-202.55 394.19,-168 384,-153.23 367.29,-142.74 351.77,-135.63"/>
<polygon fill="midnightblue" stroke="midnightblue" points="352.9,-132.31 342.33,-131.63 350.17,-138.76 352.9,-132.31"/>
</g>
<!-- Node12 -->
<g id="node12" class="node">
<title>Node12</title>
<g id="a_node12"><a xlink:title=" ">
<polygon fill="white" stroke="#bfbfbf" points="493.69,-56.5 493.69,-75.5 540.69,-75.5 540.69,-56.5 493.69,-56.5"/>
<text text-anchor="middle" x="517.19" y="-63.5" font-family="Helvetica,sans-Serif" font-size="10.00">cmath</text>
</a>
</g>
</g>
<!-- Node1&#45;&gt;Node12 -->
<g id="edge21" class="edge">
<title>Node1&#45;&gt;Node12</title>
<path fill="none" stroke="midnightblue" d="M419.69,-280.27C437.8,-240.64 488.81,-129.08 508.9,-85.12"/>
<polygon fill="midnightblue" stroke="midnightblue" points="512.13,-86.48 513.1,-75.93 505.76,-83.57 512.13,-86.48"/>
</g>
<!-- Node3 -->
<g id="node3" class="node">
<title>Node3</title>
<g id="a_node3"><a xlink:href="DirectComparisonFunctions_8h.xhtml" target="_top" xlink:title="In this file, comparison functions are defined which are used in the direct module.">
<polygon fill="white" stroke="black" points="225.19,-168.5 225.19,-187.5 385.19,-187.5 385.19,-168.5 225.19,-168.5"/>
<text text-anchor="middle" x="305.19" y="-175.5" font-family="Helvetica,sans-Serif" font-size="10.00">DirectComparisonFunctions.h</text>
</a>
</g>
</g>
<!-- Node2&#45;&gt;Node3 -->
<g id="edge2" class="edge">
<title>Node2&#45;&gt;Node3</title>
<path fill="none" stroke="midnightblue" d="M177.27,-224.44C202.73,-215.4 243.08,-201.06 271.64,-190.92"/>
<polygon fill="midnightblue" stroke="midnightblue" points="272.96,-194.16 281.21,-187.52 270.62,-187.57 272.96,-194.16"/>
</g>
<!-- Node8 -->
<g id="node8" class="node">
<title>Node8</title>
<g id="a_node8"><a xlink:title=" ">
<polygon fill="white" stroke="#bfbfbf" points="225.19,-0.5 225.19,-19.5 283.19,-19.5 283.19,-0.5 225.19,-0.5"/>
<text text-anchor="middle" x="254.19" y="-7.5" font-family="Helvetica,sans-Serif" font-size="10.00">memory</text>
</a>
</g>
</g>
<!-- Node2&#45;&gt;Node8 -->
<g id="edge16" class="edge">
<title>Node2&#45;&gt;Node8</title>
<path fill="none" stroke="midnightblue" d="M124.58,-225.29C104.22,-218.49 77.49,-206.68 60.19,-188 18.16,-142.64 -23.27,-103.62 16.19,-56 40.98,-26.08 154.01,-15.91 214.96,-12.56"/>
<polygon fill="midnightblue" stroke="midnightblue" points="215.18,-16.06 224.98,-12.05 214.82,-9.07 215.18,-16.06"/>
</g>
<!-- Node9 -->
<g id="node9" class="node">
<title>Node9</title>
<g id="a_node9"><a xlink:href="DirectTypes_8h.xhtml" target="_top" xlink:title="In this file, types are defined which are used in the direct module.">
<polygon fill="white" stroke="black" points="25.19,-56.5 25.19,-75.5 117.19,-75.5 117.19,-56.5 25.19,-56.5"/>
<text text-anchor="middle" x="71.19" y="-63.5" font-family="Helvetica,sans-Serif" font-size="10.00">../DirectTypes.h</text>
</a>
</g>
</g>
<!-- Node2&#45;&gt;Node9 -->
<g id="edge15" class="edge">
<title>Node2&#45;&gt;Node9</title>
<path fill="none" stroke="midnightblue" d="M124.65,-225.3C106.17,-218.67 83.52,-207.09 72.19,-188 53.21,-156.06 59.97,-110.51 65.97,-85.39"/>
<polygon fill="midnightblue" stroke="midnightblue" points="69.36,-86.26 68.5,-75.7 62.59,-84.49 69.36,-86.26"/>
</g>
<!-- Node13 -->
<g id="node13" class="node">
<title>Node13</title>
<g id="a_node13"><a xlink:title=" ">
<polygon fill="white" stroke="#bfbfbf" points="135.19,-56.5 135.19,-75.5 167.19,-75.5 167.19,-56.5 135.19,-56.5"/>
<text text-anchor="middle" x="151.19" y="-63.5" font-family="Helvetica,sans-Serif" font-size="10.00">list</text>
</a>
</g>
</g>
<!-- Node2&#45;&gt;Node13 -->
<g id="edge18" class="edge">
<title>Node2&#45;&gt;Node13</title>
<path fill="none" stroke="midnightblue" d="M159.81,-224.27C165.95,-215.61 174.64,-201.67 178.19,-188 187.64,-151.52 171.53,-108.34 160.4,-84.69"/>
<polygon fill="midnightblue" stroke="midnightblue" points="163.46,-82.97 155.89,-75.56 157.18,-86.07 163.46,-82.97"/>
</g>
<!-- Node14 -->
<g id="node14" class="node">
<title>Node14</title>
<g id="a_node14"><a xlink:title=" ">
<polygon fill="white" stroke="#bfbfbf" points="81.19,-168.5 81.19,-187.5 119.19,-187.5 119.19,-168.5 81.19,-168.5"/>
<text text-anchor="middle" x="100.19" y="-175.5" font-family="Helvetica,sans-Serif" font-size="10.00">map</text>
</a>
</g>
</g>
<!-- Node2&#45;&gt;Node14 -->
<g id="edge17" class="edge">
<title>Node2&#45;&gt;Node14</title>
<path fill="none" stroke="midnightblue" d="M144.43,-224.08C136.72,-216.22 125.28,-204.57 115.97,-195.08"/>
<polygon fill="midnightblue" stroke="midnightblue" points="118.28,-192.44 108.77,-187.75 113.28,-197.34 118.28,-192.44"/>
</g>
<!-- Node15 -->
<g id="node15" class="node">
<title>Node15</title>
<g id="a_node15"><a xlink:title=" ">
<polygon fill="white" stroke="#bfbfbf" points="137.19,-168.5 137.19,-187.5 169.19,-187.5 169.19,-168.5 137.19,-168.5"/>
<text text-anchor="middle" x="153.19" y="-175.5" font-family="Helvetica,sans-Serif" font-size="10.00">set</text>
</a>
</g>
</g>
<!-- Node2&#45;&gt;Node15 -->
<g id="edge19" class="edge">
<title>Node2&#45;&gt;Node15</title>
<path fill="none" stroke="midnightblue" d="M153.19,-224.08C153.19,-217.01 153.19,-206.86 153.19,-197.99"/>
<polygon fill="midnightblue" stroke="midnightblue" points="156.69,-197.75 153.19,-187.75 149.69,-197.75 156.69,-197.75"/>
</g>
<!-- Node3&#45;&gt;Node4 -->
<g id="edge3" class="edge">
<title>Node3&#45;&gt;Node4</title>
<path fill="none" stroke="midnightblue" d="M306.67,-168.08C307.86,-160.93 309.58,-150.64 311.07,-141.69"/>
<polygon fill="midnightblue" stroke="midnightblue" points="314.53,-142.19 312.73,-131.75 307.63,-141.04 314.53,-142.19"/>
</g>
<!-- Node5 -->
<g id="node5" class="node">
<title>Node5</title>
<g id="a_node5"><a xlink:href="Types_8h.xhtml" target="_top" xlink:title="In this file, types are defined which should be used across the whole framework.">
<polygon fill="white" stroke="black" points="283.19,-56.5 283.19,-75.5 363.19,-75.5 363.19,-56.5 283.19,-56.5"/>
<text text-anchor="middle" x="323.19" y="-63.5" font-family="Helvetica,sans-Serif" font-size="10.00">../../../Types.h</text>
</a>
</g>
</g>
<!-- Node4&#45;&gt;Node5 -->
<g id="edge4" class="edge">
<title>Node4&#45;&gt;Node5</title>
<path fill="none" stroke="midnightblue" d="M315.67,-112.08C316.86,-104.93 318.58,-94.64 320.07,-85.69"/>
<polygon fill="midnightblue" stroke="midnightblue" points="323.53,-86.19 321.73,-75.75 316.63,-85.04 323.53,-86.19"/>
</g>
<!-- Node7 -->
<g id="node7" class="node">
<title>Node7</title>
<g id="a_node7"><a xlink:title=" ">
<polygon fill="white" stroke="#bfbfbf" points="365.69,-0.5 365.69,-19.5 412.69,-19.5 412.69,-0.5 365.69,-0.5"/>
<text text-anchor="middle" x="389.19" y="-7.5" font-family="Helvetica,sans-Serif" font-size="10.00">vector</text>
</a>
</g>
</g>
<!-- Node4&#45;&gt;Node7 -->
<g id="edge11" class="edge">
<title>Node4&#45;&gt;Node7</title>
<path fill="none" stroke="midnightblue" d="M330.37,-112.45C343.55,-104.66 361.65,-91.96 372.19,-76 381.32,-62.16 385.55,-43.64 387.51,-29.91"/>
<polygon fill="midnightblue" stroke="midnightblue" points="391.02,-30.05 388.68,-19.71 384.06,-29.25 391.02,-30.05"/>
</g>
<!-- Node4&#45;&gt;Node8 -->
<g id="edge14" class="edge">
<title>Node4&#45;&gt;Node8</title>
<path fill="none" stroke="midnightblue" d="M304.3,-112.27C295.29,-103.81 282.18,-90.21 274.19,-76 266.04,-61.53 260.81,-43.34 257.75,-29.89"/>
<polygon fill="midnightblue" stroke="midnightblue" points="261.13,-28.97 255.67,-19.89 254.28,-30.39 261.13,-28.97"/>
</g>
<!-- Node4&#45;&gt;Node9 -->
<g id="edge8" class="edge">
<title>Node4&#45;&gt;Node9</title>
<path fill="none" stroke="midnightblue" d="M275.68,-112.44C233.38,-103.04 165.37,-87.93 119.51,-77.74"/>
<polygon fill="midnightblue" stroke="midnightblue" points="120.03,-74.27 109.51,-75.52 118.51,-81.1 120.03,-74.27"/>
</g>
<!-- Node10 -->
<g id="node10" class="node">
<title>Node10</title>
<g id="a_node10"><a xlink:title=" ">
<polygon fill="white" stroke="#bfbfbf" points="419.19,-56.5 419.19,-75.5 475.19,-75.5 475.19,-56.5 419.19,-56.5"/>
<text text-anchor="middle" x="447.19" y="-63.5" font-family="Helvetica,sans-Serif" font-size="10.00">optional</text>
</a>
</g>
</g>
<!-- Node4&#45;&gt;Node10 -->
<g id="edge9" class="edge">
<title>Node4&#45;&gt;Node10</title>
<path fill="none" stroke="midnightblue" d="M335.26,-112.44C357.24,-103.52 391.92,-89.44 416.85,-79.32"/>
<polygon fill="midnightblue" stroke="midnightblue" points="418.26,-82.52 426.21,-75.52 415.63,-76.04 418.26,-82.52"/>
</g>
<!-- Node11 -->
<g id="node11" class="node">
<title>Node11</title>
<g id="a_node11"><a xlink:title=" ">
<polygon fill="white" stroke="#bfbfbf" points="185.19,-56.5 185.19,-75.5 227.19,-75.5 227.19,-56.5 185.19,-56.5"/>
<text text-anchor="middle" x="206.19" y="-63.5" font-family="Helvetica,sans-Serif" font-size="10.00">array</text>
</a>
</g>
</g>
<!-- Node4&#45;&gt;Node11 -->
<g id="edge10" class="edge">
<title>Node4&#45;&gt;Node11</title>
<path fill="none" stroke="midnightblue" d="M296.83,-112.32C279.51,-103.66 252.67,-90.24 232.68,-80.25"/>
<polygon fill="midnightblue" stroke="midnightblue" points="234,-77 223.49,-75.65 230.87,-83.26 234,-77"/>
</g>
<!-- Node4&#45;&gt;Node12 -->
<g id="edge12" class="edge">
<title>Node4&#45;&gt;Node12</title>
<path fill="none" stroke="midnightblue" d="M346.79,-112.45C379.09,-103.96 430.21,-90.47 483.73,-76.11"/>
<polygon fill="midnightblue" stroke="midnightblue" points="484.65,-79.49 493.4,-73.51 482.83,-72.72 484.65,-79.49"/>
</g>
<!-- Node4&#45;&gt;Node13 -->
<g id="edge13" class="edge">
<title>Node4&#45;&gt;Node13</title>
<path fill="none" stroke="midnightblue" d="M287.13,-112.45C261.16,-104.17 220.59,-91.11 176.95,-76.19"/>
<polygon fill="midnightblue" stroke="midnightblue" points="177.89,-72.82 167.3,-72.88 175.62,-79.44 177.89,-72.82"/>
</g>
<!-- Node6 -->
<g id="node6" class="node">
<title>Node6</title>
<g id="a_node6"><a xlink:title=" ">
<polygon fill="white" stroke="#bfbfbf" points="301.19,-0.5 301.19,-19.5 345.19,-19.5 345.19,-0.5 301.19,-0.5"/>
<text text-anchor="middle" x="323.19" y="-7.5" font-family="Helvetica,sans-Serif" font-size="10.00">string</text>
</a>
</g>
</g>
<!-- Node5&#45;&gt;Node6 -->
<g id="edge5" class="edge">
<title>Node5&#45;&gt;Node6</title>
<path fill="none" stroke="midnightblue" d="M323.19,-56.08C323.19,-49.01 323.19,-38.86 323.19,-29.99"/>
<polygon fill="midnightblue" stroke="midnightblue" points="326.69,-29.75 323.19,-19.75 319.69,-29.75 326.69,-29.75"/>
</g>
<!-- Node5&#45;&gt;Node7 -->
<g id="edge6" class="edge">
<title>Node5&#45;&gt;Node7</title>
<path fill="none" stroke="midnightblue" d="M333.79,-56.32C343.64,-48.26 358.54,-36.08 370.4,-26.37"/>
<polygon fill="midnightblue" stroke="midnightblue" points="372.86,-28.88 378.39,-19.83 368.43,-23.46 372.86,-28.88"/>
</g>
<!-- Node5&#45;&gt;Node8 -->
<g id="edge7" class="edge">
<title>Node5&#45;&gt;Node8</title>
<path fill="none" stroke="midnightblue" d="M312.1,-56.32C301.7,-48.18 285.92,-35.84 273.46,-26.09"/>
<polygon fill="midnightblue" stroke="midnightblue" points="275.5,-23.24 265.47,-19.83 271.19,-28.75 275.5,-23.24"/>
</g>
</g>
</svg>
