<?xml version="1.0" encoding="UTF-8" standalone="no"?>
<!DOCTYPE svg PUBLIC "-//W3C//DTD SVG 1.1//EN"
 "http://www.w3.org/Graphics/SVG/1.1/DTD/svg11.dtd">
<!-- Generated by graphviz version 2.43.0 (0)
 -->
<!-- Title: src/optimizer/direct/Levels.h Pages: 1 -->
<svg width="592pt" height="263pt"
 viewBox="0.00 0.00 592.00 263.00" xmlns="http://www.w3.org/2000/svg" xmlns:xlink="http://www.w3.org/1999/xlink">
<g id="graph0" class="graph" transform="scale(1 1) rotate(0) translate(4 259)">
<title>src/optimizer/direct/Levels.h</title>
<polygon fill="white" stroke="transparent" points="-4,4 -4,-259 588,-259 588,4 -4,4"/>
<!-- Node1 -->
<g id="node1" class="node">
<title>Node1</title>
<g id="a_node1"><a xlink:title="In this file, the header of the Levels class is defined.">
<polygon fill="#bfbfbf" stroke="black" points="393.5,-224.5 393.5,-254.5 504.5,-254.5 504.5,-224.5 393.5,-224.5"/>
<text text-anchor="start" x="401.5" y="-242.5" font-family="Helvetica,sans-Serif" font-size="10.00">src/optimizer/direct</text>
<text text-anchor="middle" x="449" y="-231.5" font-family="Helvetica,sans-Serif" font-size="10.00">/Levels.h</text>
</a>
</g>
</g>
<!-- Node2 -->
<g id="node2" class="node">
<title>Node2</title>
<g id="a_node2"><a xlink:href="DirectComparisonFunctions_8h.xhtml" target="_top" xlink:title="In this file, comparison functions are defined which are used in the direct module.">
<polygon fill="white" stroke="black" points="225,-168.5 225,-187.5 385,-187.5 385,-168.5 225,-168.5"/>
<text text-anchor="middle" x="305" y="-175.5" font-family="Helvetica,sans-Serif" font-size="10.00">DirectComparisonFunctions.h</text>
</a>
</g>
</g>
<!-- Node1&#45;&gt;Node2 -->
<g id="edge1" class="edge">
<title>Node1&#45;&gt;Node2</title>
<path fill="none" stroke="midnightblue" d="M414.87,-224.4C390.71,-214.42 358.6,-201.15 335.33,-191.53"/>
<polygon fill="midnightblue" stroke="midnightblue" points="336.53,-188.24 325.95,-187.66 333.86,-194.71 336.53,-188.24"/>
</g>
<!-- Node7 -->
<g id="node7" class="node">
<title>Node7</title>
<g id="a_node7"><a xlink:title=" ">
<polygon fill="white" stroke="#bfbfbf" points="0,-0.5 0,-19.5 58,-19.5 58,-0.5 0,-0.5"/>
<text text-anchor="middle" x="29" y="-7.5" font-family="Helvetica,sans-Serif" font-size="10.00">memory</text>
</a>
</g>
</g>
<!-- Node1&#45;&gt;Node7 -->
<g id="edge15" class="edge">
<title>Node1&#45;&gt;Node7</title>
<path fill="none" stroke="midnightblue" d="M393.33,-231.76C345.14,-224.68 274.23,-211.27 216,-188 127.1,-152.48 80.82,-158.36 32,-76 23.81,-62.18 23.79,-43.66 25.4,-29.93"/>
<polygon fill="midnightblue" stroke="midnightblue" points="28.9,-30.14 26.98,-19.72 21.99,-29.07 28.9,-30.14"/>
</g>
<!-- Node8 -->
<g id="node8" class="node">
<title>Node8</title>
<g id="a_node8"><a xlink:href="DirectTypes_8h.xhtml" target="_top" xlink:title="In this file, types are defined which are used in the direct module.">
<polygon fill="white" stroke="black" points="393,-56.5 393,-75.5 485,-75.5 485,-56.5 393,-56.5"/>
<text text-anchor="middle" x="439" y="-63.5" font-family="Helvetica,sans-Serif" font-size="10.00">../DirectTypes.h</text>
</a>
</g>
</g>
<!-- Node1&#45;&gt;Node8 -->
<g id="edge14" class="edge">
<title>Node1&#45;&gt;Node8</title>
<path fill="none" stroke="midnightblue" d="M448.18,-224.47C446.39,-193.7 442.11,-120.33 440.09,-85.7"/>
<polygon fill="midnightblue" stroke="midnightblue" points="443.58,-85.34 439.5,-75.56 436.59,-85.75 443.58,-85.34"/>
</g>
<!-- Node12 -->
<g id="node12" class="node">
<title>Node12</title>
<g id="a_node12"><a xlink:title=" ">
<polygon fill="white" stroke="#bfbfbf" points="503,-56.5 503,-75.5 535,-75.5 535,-56.5 503,-56.5"/>
<text text-anchor="middle" x="519" y="-63.5" font-family="Helvetica,sans-Serif" font-size="10.00">list</text>
</a>
</g>
</g>
<!-- Node1&#45;&gt;Node12 -->
<g id="edge17" class="edge">
<title>Node1&#45;&gt;Node12</title>
<path fill="none" stroke="midnightblue" d="M454.73,-224.47C467.34,-193.57 497.49,-119.69 511.55,-85.25"/>
<polygon fill="midnightblue" stroke="midnightblue" points="514.97,-86.14 515.51,-75.56 508.49,-83.5 514.97,-86.14"/>
</g>
<!-- Node13 -->
<g id="node13" class="node">
<title>Node13</title>
<g id="a_node13"><a xlink:title=" ">
<polygon fill="white" stroke="#bfbfbf" points="496,-168.5 496,-187.5 534,-187.5 534,-168.5 496,-168.5"/>
<text text-anchor="middle" x="515" y="-175.5" font-family="Helvetica,sans-Serif" font-size="10.00">map</text>
</a>
</g>
</g>
<!-- Node1&#45;&gt;Node13 -->
<g id="edge16" class="edge">
<title>Node1&#45;&gt;Node13</title>
<path fill="none" stroke="midnightblue" d="M464.64,-224.4C474.63,-215.4 487.58,-203.72 497.85,-194.47"/>
<polygon fill="midnightblue" stroke="midnightblue" points="500.31,-196.95 505.4,-187.66 495.63,-191.75 500.31,-196.95"/>
</g>
<!-- Node14 -->
<g id="node14" class="node">
<title>Node14</title>
<g id="a_node14"><a xlink:title=" ">
<polygon fill="white" stroke="#bfbfbf" points="552,-168.5 552,-187.5 584,-187.5 584,-168.5 552,-168.5"/>
<text text-anchor="middle" x="568" y="-175.5" font-family="Helvetica,sans-Serif" font-size="10.00">set</text>
</a>
</g>
</g>
<!-- Node1&#45;&gt;Node14 -->
<g id="edge18" class="edge">
<title>Node1&#45;&gt;Node14</title>
<path fill="none" stroke="midnightblue" d="M477.2,-224.4C497.07,-214.46 523.46,-201.27 542.66,-191.67"/>
<polygon fill="midnightblue" stroke="midnightblue" points="544.34,-194.74 551.72,-187.14 541.21,-188.48 544.34,-194.74"/>
</g>
<!-- Node3 -->
<g id="node3" class="node">
<title>Node3</title>
<g id="a_node3"><a xlink:href="HyRect_8h.xhtml" target="_top" xlink:title="In this file, the header of the HyRect class is defined.">
<polygon fill="white" stroke="black" points="249.5,-112.5 249.5,-131.5 344.5,-131.5 344.5,-112.5 249.5,-112.5"/>
<text text-anchor="middle" x="297" y="-119.5" font-family="Helvetica,sans-Serif" font-size="10.00">hyrect/HyRect.h</text>
</a>
</g>
</g>
<!-- Node2&#45;&gt;Node3 -->
<g id="edge2" class="edge">
<title>Node2&#45;&gt;Node3</title>
<path fill="none" stroke="midnightblue" d="M303.68,-168.08C302.62,-160.93 301.09,-150.64 299.77,-141.69"/>
<polygon fill="midnightblue" stroke="midnightblue" points="303.22,-141.13 298.3,-131.75 296.3,-142.16 303.22,-141.13"/>
</g>
<!-- Node4 -->
<g id="node4" class="node">
<title>Node4</title>
<g id="a_node4"><a xlink:href="Types_8h.xhtml" target="_top" xlink:title="In this file, types are defined which should be used across the whole framework.">
<polygon fill="white" stroke="black" points="257,-56.5 257,-75.5 337,-75.5 337,-56.5 257,-56.5"/>
<text text-anchor="middle" x="297" y="-63.5" font-family="Helvetica,sans-Serif" font-size="10.00">../../../Types.h</text>
</a>
</g>
</g>
<!-- Node3&#45;&gt;Node4 -->
<g id="edge3" class="edge">
<title>Node3&#45;&gt;Node4</title>
<path fill="none" stroke="midnightblue" d="M297,-112.08C297,-105.01 297,-94.86 297,-85.99"/>
<polygon fill="midnightblue" stroke="midnightblue" points="300.5,-85.75 297,-75.75 293.5,-85.75 300.5,-85.75"/>
</g>
<!-- Node6 -->
<g id="node6" class="node">
<title>Node6</title>
<g id="a_node6"><a xlink:title=" ">
<polygon fill="white" stroke="#bfbfbf" points="339.5,-0.5 339.5,-19.5 386.5,-19.5 386.5,-0.5 339.5,-0.5"/>
<text text-anchor="middle" x="363" y="-7.5" font-family="Helvetica,sans-Serif" font-size="10.00">vector</text>
</a>
</g>
</g>
<!-- Node3&#45;&gt;Node6 -->
<g id="edge10" class="edge">
<title>Node3&#45;&gt;Node6</title>
<path fill="none" stroke="midnightblue" d="M310.21,-112.2C321.37,-104.09 336.95,-91.04 346,-76 354.55,-61.79 358.85,-43.31 360.98,-29.69"/>
<polygon fill="midnightblue" stroke="midnightblue" points="364.47,-29.96 362.3,-19.59 357.53,-29.05 364.47,-29.96"/>
</g>
<!-- Node3&#45;&gt;Node7 -->
<g id="edge13" class="edge">
<title>Node3&#45;&gt;Node7</title>
<path fill="none" stroke="midnightblue" d="M249.3,-118.26C185.48,-113.62 76.98,-102.08 48,-76 35.04,-64.35 30.72,-44.4 29.38,-29.67"/>
<polygon fill="midnightblue" stroke="midnightblue" points="32.87,-29.44 28.84,-19.64 25.88,-29.82 32.87,-29.44"/>
</g>
<!-- Node3&#45;&gt;Node8 -->
<g id="edge7" class="edge">
<title>Node3&#45;&gt;Node8</title>
<path fill="none" stroke="midnightblue" d="M319.5,-112.44C343.08,-103.48 380.32,-89.31 406.96,-79.18"/>
<polygon fill="midnightblue" stroke="midnightblue" points="408.5,-82.34 416.6,-75.52 406.01,-75.8 408.5,-82.34"/>
</g>
<!-- Node9 -->
<g id="node9" class="node">
<title>Node9</title>
<g id="a_node9"><a xlink:title=" ">
<polygon fill="white" stroke="#bfbfbf" points="57,-56.5 57,-75.5 113,-75.5 113,-56.5 57,-56.5"/>
<text text-anchor="middle" x="85" y="-63.5" font-family="Helvetica,sans-Serif" font-size="10.00">optional</text>
</a>
</g>
</g>
<!-- Node3&#45;&gt;Node9 -->
<g id="edge8" class="edge">
<title>Node3&#45;&gt;Node9</title>
<path fill="none" stroke="midnightblue" d="M263.41,-112.44C225.17,-102.7 162.86,-86.83 122.91,-76.66"/>
<polygon fill="midnightblue" stroke="midnightblue" points="123.57,-73.21 113.02,-74.14 121.85,-80 123.57,-73.21"/>
</g>
<!-- Node10 -->
<g id="node10" class="node">
<title>Node10</title>
<g id="a_node10"><a xlink:title=" ">
<polygon fill="white" stroke="#bfbfbf" points="131,-56.5 131,-75.5 173,-75.5 173,-56.5 131,-56.5"/>
<text text-anchor="middle" x="152" y="-63.5" font-family="Helvetica,sans-Serif" font-size="10.00">array</text>
</a>
</g>
</g>
<!-- Node3&#45;&gt;Node10 -->
<g id="edge9" class="edge">
<title>Node3&#45;&gt;Node10</title>
<path fill="none" stroke="midnightblue" d="M274.02,-112.44C249.42,-103.28 210.23,-88.68 182.92,-78.52"/>
<polygon fill="midnightblue" stroke="midnightblue" points="184.04,-75.2 173.45,-74.99 181.6,-81.76 184.04,-75.2"/>
</g>
<!-- Node11 -->
<g id="node11" class="node">
<title>Node11</title>
<g id="a_node11"><a xlink:title=" ">
<polygon fill="white" stroke="#bfbfbf" points="191.5,-56.5 191.5,-75.5 238.5,-75.5 238.5,-56.5 191.5,-56.5"/>
<text text-anchor="middle" x="215" y="-63.5" font-family="Helvetica,sans-Serif" font-size="10.00">cmath</text>
</a>
</g>
</g>
<!-- Node3&#45;&gt;Node11 -->
<g id="edge11" class="edge">
<title>Node3&#45;&gt;Node11</title>
<path fill="none" stroke="midnightblue" d="M283.83,-112.32C271.15,-103.98 251.77,-91.21 236.79,-81.35"/>
<polygon fill="midnightblue" stroke="midnightblue" points="238.42,-78.23 228.14,-75.65 234.57,-84.08 238.42,-78.23"/>
</g>
<!-- Node3&#45;&gt;Node12 -->
<g id="edge12" class="edge">
<title>Node3&#45;&gt;Node12</title>
<path fill="none" stroke="midnightblue" d="M341.21,-112.5C379.28,-104.82 435.8,-92.57 493.34,-75.92"/>
<polygon fill="midnightblue" stroke="midnightblue" points="494.35,-79.27 502.96,-73.1 492.38,-72.56 494.35,-79.27"/>
</g>
<!-- Node5 -->
<g id="node5" class="node">
<title>Node5</title>
<g id="a_node5"><a xlink:title=" ">
<polygon fill="white" stroke="#bfbfbf" points="275,-0.5 275,-19.5 319,-19.5 319,-0.5 275,-0.5"/>
<text text-anchor="middle" x="297" y="-7.5" font-family="Helvetica,sans-Serif" font-size="10.00">string</text>
</a>
</g>
</g>
<!-- Node4&#45;&gt;Node5 -->
<g id="edge4" class="edge">
<title>Node4&#45;&gt;Node5</title>
<path fill="none" stroke="midnightblue" d="M297,-56.08C297,-49.01 297,-38.86 297,-29.99"/>
<polygon fill="midnightblue" stroke="midnightblue" points="300.5,-29.75 297,-19.75 293.5,-29.75 300.5,-29.75"/>
</g>
<!-- Node4&#45;&gt;Node6 -->
<g id="edge5" class="edge">
<title>Node4&#45;&gt;Node6</title>
<path fill="none" stroke="midnightblue" d="M307.6,-56.32C317.46,-48.26 332.35,-36.08 344.22,-26.37"/>
<polygon fill="midnightblue" stroke="midnightblue" points="346.68,-28.88 352.2,-19.83 342.25,-23.46 346.68,-28.88"/>
</g>
<!-- Node4&#45;&gt;Node7 -->
<g id="edge6" class="edge">
<title>Node4&#45;&gt;Node7</title>
<path fill="none" stroke="midnightblue" d="M256.88,-56.92C205.92,-46.65 118.57,-29.05 68.1,-18.88"/>
<polygon fill="midnightblue" stroke="midnightblue" points="68.72,-15.43 58.22,-16.89 67.34,-22.29 68.72,-15.43"/>
</g>
</g>
</svg>
