<?xml version="1.0" encoding="UTF-8" standalone="no"?>
<!DOCTYPE svg PUBLIC "-//W3C//DTD SVG 1.1//EN"
 "http://www.w3.org/Graphics/SVG/1.1/DTD/svg11.dtd">
<!-- Generated by graphviz version 2.43.0 (0)
 -->
<!-- Title: /home/runner/work/Simopticon/Simopticon/src/main.cpp Pages: 1 -->
<!--zoomable 498 -->
<svg id="main" version="1.1" xmlns="http://www.w3.org/2000/svg" xmlns:xlink="http://www.w3.org/1999/xlink" xml:space="preserve" onload="init(evt)">
<style type="text/css"><![CDATA[
.edge:hover path { stroke: red; }
.edge:hover polygon { stroke: red; fill: red; }
]]></style>
<script type="text/javascript"><![CDATA[
var edges = document.getElementsByTagName('g');
if (edges && edges.length) {
  for (var i=0;i<edges.length;i++) {
    if (edges[i].id.substr(0,4)=='edge') {
      edges[i].setAttribute('class','edge');
    }
  }
}
]]></script>
        <defs>
                <circle id="rim" cx="0" cy="0" r="7"/>
                <circle id="rim2" cx="0" cy="0" r="3.5"/>
                <g id="zoomPlus">
                        <use xlink:href="#rim" fill="#404040">
                                <set attributeName="fill" to="#808080" begin="zoomplus.mouseover" end="zoomplus.mouseout"/>
                        </use>
                        <path d="M-4,0h8M0,-4v8" fill="none" stroke="white" stroke-width="1.5" pointer-events="none"/>
                </g>
                <g id="zoomMin">
                        <use xlink:href="#rim" fill="#404040">
                                <set attributeName="fill" to="#808080" begin="zoomminus.mouseover" end="zoomminus.mouseout"/>
                        </use>
                        <path d="M-4,0h8" fill="none" stroke="white" stroke-width="1.5" pointer-events="none"/>
                </g>
                <g id="dirArrow">
                        <path fill="none" stroke="white" stroke-width="1.5" d="M0,-3.0v7 M-2.5,-0.5L0,-3.0L2.5,-0.5"/>
                </g>
               <g id="resetDef">
                       <use xlink:href="#rim2" fill="#404040">
                               <set attributeName="fill" to="#808080" begin="reset.mouseover" end="reset.mouseout"/>
                       </use>
               </g>
        </defs>

<script type="text/javascript">
var viewWidth = 2054;
var viewHeight = 498;
var sectionId = 'dynsection-0';
</script>
<script xlink:href="svgpan.js"/>
<svg id="graph" class="graph">
<g id="viewport">
<title>/home/runner/work/Simopticon/Simopticon/src/main.cpp</title>
<polygon fill="white" stroke="transparent" points="-4,4 -4,-494 2049.5,-494 2049.5,4 -4,4"/>
<!-- Node1 -->
<g id="node1" class="node">
<title>Node1</title>
<g id="a_node1"><a xlink:title="In this file, the main function running the Simopticon framework is defined.">
<polygon fill="#bfbfbf" stroke="black" points="1644.5,-459.5 1644.5,-489.5 1811.5,-489.5 1811.5,-459.5 1644.5,-459.5"/>
<text text-anchor="start" x="1652.5" y="-477.5" font-family="Helvetica,sans-Serif" font-size="10.00">/home/runner/work/Simopticon</text>
<text text-anchor="middle" x="1728" y="-466.5" font-family="Helvetica,sans-Serif" font-size="10.00">/Simopticon/src/main.cpp</text>
</a>
</g>
</g>
<!-- Node2 -->
<g id="node2" class="node">
<title>Node2</title>
<g id="a_node2"><a xlink:href="Controller_8h.xhtml" target="_top" xlink:title="In this file, the header of the Controller class is defined.">
<polygon fill="white" stroke="black" points="767,-342 767,-361 889,-361 889,-342 767,-342"/>
<text text-anchor="middle" x="828" y="-349" font-family="Helvetica,sans-Serif" font-size="10.00">controller/Controller.h</text>
</a>
</g>
</g>
<!-- Node1&#45;&gt;Node2 -->
<g id="edge1" class="edge">
<title>Node1&#45;&gt;Node2</title>
<path fill="none" stroke="midnightblue" d="M1644.14,-462.23C1468.25,-438.58 1063.51,-384.16 899.23,-362.08"/>
<polygon fill="midnightblue" stroke="midnightblue" points="899.61,-358.6 889.24,-360.73 898.68,-365.53 899.61,-358.6"/>
</g>
<!-- Node29 -->
<g id="node29" class="node">
<title>Node29</title>
<g id="a_node29"><a xlink:href="StubController_8h.xhtml" target="_top" xlink:title="In this file, the header of the StubController class is defined.">
<polygon fill="white" stroke="black" points="1596,-403.5 1596,-422.5 1740,-422.5 1740,-403.5 1596,-403.5"/>
<text text-anchor="middle" x="1668" y="-410.5" font-family="Helvetica,sans-Serif" font-size="10.00">controller/StubController.h</text>
</a>
</g>
</g>
<!-- Node1&#45;&gt;Node29 -->
<g id="edge77" class="edge">
<title>Node1&#45;&gt;Node29</title>
<path fill="none" stroke="midnightblue" d="M1713.78,-459.4C1704.79,-450.49 1693.16,-438.95 1683.87,-429.74"/>
<polygon fill="midnightblue" stroke="midnightblue" points="1686.3,-427.21 1676.73,-422.66 1681.37,-432.18 1686.3,-427.21"/>
</g>
<!-- Node31 -->
<g id="node31" class="node">
<title>Node31</title>
<g id="a_node31"><a xlink:title=" ">
<polygon fill="white" stroke="#bfbfbf" points="1758,-403.5 1758,-422.5 1818,-422.5 1818,-403.5 1758,-403.5"/>
<text text-anchor="middle" x="1788" y="-410.5" font-family="Helvetica,sans-Serif" font-size="10.00">iostream</text>
</a>
</g>
</g>
<!-- Node1&#45;&gt;Node31 -->
<g id="edge81" class="edge">
<title>Node1&#45;&gt;Node31</title>
<path fill="none" stroke="midnightblue" d="M1742.22,-459.4C1751.21,-450.49 1762.84,-438.95 1772.13,-429.74"/>
<polygon fill="midnightblue" stroke="midnightblue" points="1774.63,-432.18 1779.27,-422.66 1769.7,-427.21 1774.63,-432.18"/>
</g>
<!-- Node32 -->
<g id="node32" class="node">
<title>Node32</title>
<g id="a_node32"><a xlink:title=" ">
<polygon fill="white" stroke="#bfbfbf" points="1836.5,-403.5 1836.5,-422.5 1887.5,-422.5 1887.5,-403.5 1836.5,-403.5"/>
<text text-anchor="middle" x="1862" y="-410.5" font-family="Helvetica,sans-Serif" font-size="10.00">csignal</text>
</a>
</g>
</g>
<!-- Node1&#45;&gt;Node32 -->
<g id="edge82" class="edge">
<title>Node1&#45;&gt;Node32</title>
<path fill="none" stroke="midnightblue" d="M1759.76,-459.4C1782.04,-449.51 1811.59,-436.38 1833.19,-426.79"/>
<polygon fill="midnightblue" stroke="midnightblue" points="1834.78,-429.91 1842.5,-422.66 1831.94,-423.52 1834.78,-429.91"/>
</g>
<!-- Node3 -->
<g id="node3" class="node">
<title>Node3</title>
<g id="a_node3"><a xlink:href="Types_8h.xhtml" target="_top" xlink:title="In this file, types are defined which should be used across the whole framework.">
<polygon fill="white" stroke="black" points="490,-56.5 490,-75.5 552,-75.5 552,-56.5 490,-56.5"/>
<text text-anchor="middle" x="521" y="-63.5" font-family="Helvetica,sans-Serif" font-size="10.00">../Types.h</text>
</a>
</g>
</g>
<!-- Node2&#45;&gt;Node3 -->
<g id="edge2" class="edge">
<title>Node2&#45;&gt;Node3</title>
<path fill="none" stroke="midnightblue" d="M766.77,-348.62C633.53,-344.01 321.17,-330.24 220,-300 145.96,-277.87 105.81,-262.95 87,-188 84.84,-179.38 81.12,-174.67 87,-168 129.06,-120.27 309.65,-148.81 371,-132 416.99,-119.4 467.22,-95.34 496.32,-80.29"/>
<polygon fill="midnightblue" stroke="midnightblue" points="498.11,-83.31 505.34,-75.56 494.86,-77.11 498.11,-83.31"/>
</g>
<!-- Node5 -->
<g id="node5" class="node">
<title>Node5</title>
<g id="a_node5"><a xlink:title=" ">
<polygon fill="white" stroke="#bfbfbf" points="118.5,-0.5 118.5,-19.5 165.5,-19.5 165.5,-0.5 118.5,-0.5"/>
<text text-anchor="middle" x="142" y="-7.5" font-family="Helvetica,sans-Serif" font-size="10.00">vector</text>
</a>
</g>
</g>
<!-- Node2&#45;&gt;Node5 -->
<g id="edge73" class="edge">
<title>Node2&#45;&gt;Node5</title>
<path fill="none" stroke="midnightblue" d="M766.97,-348.35C624.39,-342.95 272.78,-327.21 158,-300 84.12,-282.49 0,-310.93 0,-235 0,-235 0,-235 0,-121 0,-66.29 66.69,-34.91 108.66,-20.57"/>
<polygon fill="midnightblue" stroke="midnightblue" points="109.81,-23.88 118.23,-17.45 107.64,-17.22 109.81,-23.88"/>
</g>
<!-- Node6 -->
<g id="node6" class="node">
<title>Node6</title>
<g id="a_node6"><a xlink:title=" ">
<polygon fill="white" stroke="#bfbfbf" points="873,-0.5 873,-19.5 931,-19.5 931,-0.5 873,-0.5"/>
<text text-anchor="middle" x="902" y="-7.5" font-family="Helvetica,sans-Serif" font-size="10.00">memory</text>
</a>
</g>
</g>
<!-- Node2&#45;&gt;Node6 -->
<g id="edge75" class="edge">
<title>Node2&#45;&gt;Node6</title>
<path fill="none" stroke="midnightblue" d="M889.26,-350.22C1113.42,-348.42 1876,-334.93 1876,-235 1876,-235 1876,-235 1876,-121 1876,-51.19 1800.81,-72.62 1733,-56 1580.01,-18.5 1084.79,-12.24 941.3,-11.2"/>
<polygon fill="midnightblue" stroke="midnightblue" points="941.22,-7.7 931.2,-11.13 941.17,-14.7 941.22,-7.7"/>
</g>
<!-- Node7 -->
<g id="node7" class="node">
<title>Node7</title>
<g id="a_node7"><a xlink:href="ComparisonFunctions_8h.xhtml" target="_top" xlink:title="In this file, comparison functions are defined which should be used across the whole framework.">
<polygon fill="white" stroke="black" points="570,-168.5 570,-187.5 710,-187.5 710,-168.5 570,-168.5"/>
<text text-anchor="middle" x="640" y="-175.5" font-family="Helvetica,sans-Serif" font-size="10.00">../ComparisonFunctions.h</text>
</a>
</g>
</g>
<!-- Node2&#45;&gt;Node7 -->
<g id="edge6" class="edge">
<title>Node2&#45;&gt;Node7</title>
<path fill="none" stroke="midnightblue" d="M775.24,-341.96C744.16,-334.84 705.47,-322.15 677,-300 653.65,-281.83 649.56,-272.32 641,-244 636.46,-228.96 636.56,-211.05 637.6,-197.85"/>
<polygon fill="midnightblue" stroke="midnightblue" points="641.11,-197.95 638.66,-187.64 634.14,-197.23 641.11,-197.95"/>
</g>
<!-- Node8 -->
<g id="node8" class="node">
<title>Node8</title>
<g id="a_node8"><a xlink:href="Parameter_8h.xhtml" target="_top" xlink:title="In this file, the header of the Parameter class is defined.">
<polygon fill="white" stroke="black" points="608,-112.5 608,-131.5 742,-131.5 742,-112.5 608,-112.5"/>
<text text-anchor="middle" x="675" y="-119.5" font-family="Helvetica,sans-Serif" font-size="10.00">parameters/Parameter.h</text>
</a>
</g>
</g>
<!-- Node2&#45;&gt;Node8 -->
<g id="edge54" class="edge">
<title>Node2&#45;&gt;Node8</title>
<path fill="none" stroke="midnightblue" d="M766.59,-347.43C647.5,-341.02 389.38,-324.7 304,-300 202.77,-270.71 147.9,-279.15 95,-188 90.54,-180.31 88.96,-174.52 95,-168 111.82,-149.83 443.26,-133.09 597.4,-126.25"/>
<polygon fill="midnightblue" stroke="midnightblue" points="597.91,-129.73 607.74,-125.8 597.6,-122.74 597.91,-129.73"/>
</g>
<!-- Node9 -->
<g id="node9" class="node">
<title>Node9</title>
<g id="a_node9"><a xlink:href="Optimizer_8h.xhtml" target="_top" xlink:title="In this file, the header of the Optimizer class is defined.">
<polygon fill="white" stroke="black" points="305.5,-224.5 305.5,-243.5 436.5,-243.5 436.5,-224.5 305.5,-224.5"/>
<text text-anchor="middle" x="371" y="-231.5" font-family="Helvetica,sans-Serif" font-size="10.00">../optimizer/Optimizer.h</text>
</a>
</g>
</g>
<!-- Node2&#45;&gt;Node9 -->
<g id="edge12" class="edge">
<title>Node2&#45;&gt;Node9</title>
<path fill="none" stroke="midnightblue" d="M766.67,-346.34C674.82,-339.43 506.39,-323.93 451,-300 425.22,-288.86 400.98,-266.95 386.08,-251.66"/>
<polygon fill="midnightblue" stroke="midnightblue" points="388.23,-248.83 378.82,-243.96 383.13,-253.64 388.23,-248.83"/>
</g>
<!-- Node12 -->
<g id="node12" class="node">
<title>Node12</title>
<g id="a_node12"><a xlink:href="Abortable_8h.xhtml" target="_top" xlink:title="In this file, the header of the Abortable class is defined.">
<polygon fill="white" stroke="black" points="104,-168.5 104,-187.5 210,-187.5 210,-168.5 104,-168.5"/>
<text text-anchor="middle" x="157" y="-175.5" font-family="Helvetica,sans-Serif" font-size="10.00">../utils/Abortable.h</text>
</a>
</g>
</g>
<!-- Node2&#45;&gt;Node12 -->
<g id="edge71" class="edge">
<title>Node2&#45;&gt;Node12</title>
<path fill="none" stroke="midnightblue" d="M766.96,-346.18C685.92,-339.72 538.63,-325.5 415,-300 328.36,-282.13 300.43,-288.55 224,-244 202.23,-231.31 182.19,-210.06 169.81,-195.32"/>
<polygon fill="midnightblue" stroke="midnightblue" points="172.48,-193.06 163.45,-187.52 167.05,-197.48 172.48,-193.06"/>
</g>
<!-- Node13 -->
<g id="node13" class="node">
<title>Node13</title>
<g id="a_node13"><a xlink:title=" ">
<polygon fill="white" stroke="#bfbfbf" points="804,-112.5 804,-131.5 836,-131.5 836,-112.5 804,-112.5"/>
<text text-anchor="middle" x="820" y="-119.5" font-family="Helvetica,sans-Serif" font-size="10.00">list</text>
</a>
</g>
</g>
<!-- Node2&#45;&gt;Node13 -->
<g id="edge74" class="edge">
<title>Node2&#45;&gt;Node13</title>
<path fill="none" stroke="midnightblue" d="M827.7,-341.86C826.53,-308.64 822.31,-188.66 820.66,-141.87"/>
<polygon fill="midnightblue" stroke="midnightblue" points="824.15,-141.52 820.3,-131.65 817.16,-141.77 824.15,-141.52"/>
</g>
<!-- Node14 -->
<g id="node14" class="node">
<title>Node14</title>
<g id="a_node14"><a xlink:title=" ">
<polygon fill="white" stroke="#bfbfbf" points="1196,-168.5 1196,-187.5 1234,-187.5 1234,-168.5 1196,-168.5"/>
<text text-anchor="middle" x="1215" y="-175.5" font-family="Helvetica,sans-Serif" font-size="10.00">map</text>
</a>
</g>
</g>
<!-- Node2&#45;&gt;Node14 -->
<g id="edge72" class="edge">
<title>Node2&#45;&gt;Node14</title>
<path fill="none" stroke="midnightblue" d="M889.06,-350.26C970.6,-346.53 1114.35,-327.55 1197,-244 1208.96,-231.91 1213.14,-212.63 1214.52,-198.2"/>
<polygon fill="midnightblue" stroke="midnightblue" points="1218.03,-198.09 1215.13,-187.9 1211.05,-197.68 1218.03,-198.09"/>
</g>
<!-- Node15 -->
<g id="node15" class="node">
<title>Node15</title>
<g id="a_node15"><a xlink:href="SimulationRunner_8h.xhtml" target="_top" xlink:title="In this file, the header of the SimulationRunner class is defined.">
<polygon fill="white" stroke="black" points="1225.5,-280.5 1225.5,-299.5 1380.5,-299.5 1380.5,-280.5 1225.5,-280.5"/>
<text text-anchor="middle" x="1303" y="-287.5" font-family="Helvetica,sans-Serif" font-size="10.00">../runner/SimulationRunner.h</text>
</a>
</g>
</g>
<!-- Node2&#45;&gt;Node15 -->
<g id="edge24" class="edge">
<title>Node2&#45;&gt;Node15</title>
<path fill="none" stroke="midnightblue" d="M889.13,-342.84C974.83,-332.11 1130.73,-312.58 1224.79,-300.8"/>
<polygon fill="midnightblue" stroke="midnightblue" points="1225.33,-304.26 1234.82,-299.54 1224.46,-297.31 1225.33,-304.26"/>
</g>
<!-- Node20 -->
<g id="node20" class="node">
<title>Node20</title>
<g id="a_node20"><a xlink:title=" ">
<polygon fill="white" stroke="#bfbfbf" points="1328,-168.5 1328,-187.5 1360,-187.5 1360,-168.5 1328,-168.5"/>
<text text-anchor="middle" x="1344" y="-175.5" font-family="Helvetica,sans-Serif" font-size="10.00">set</text>
</a>
</g>
</g>
<!-- Node2&#45;&gt;Node20 -->
<g id="edge76" class="edge">
<title>Node2&#45;&gt;Node20</title>
<path fill="none" stroke="midnightblue" d="M889.04,-349.56C1027.64,-346.79 1356.7,-336.42 1390,-300 1417.79,-269.6 1382.21,-220.71 1359.75,-195.38"/>
<polygon fill="midnightblue" stroke="midnightblue" points="1362.09,-192.76 1352.75,-187.76 1356.94,-197.49 1362.09,-192.76"/>
</g>
<!-- Node26 -->
<g id="node26" class="node">
<title>Node26</title>
<g id="a_node26"><a xlink:href="Evaluation_8h.xhtml" target="_top" xlink:title="In this file, the header of the Evaluation class is defined.">
<polygon fill="white" stroke="black" points="1046.5,-224.5 1046.5,-243.5 1187.5,-243.5 1187.5,-224.5 1046.5,-224.5"/>
<text text-anchor="middle" x="1117" y="-231.5" font-family="Helvetica,sans-Serif" font-size="10.00">../evaluation/Evaluation.h</text>
</a>
</g>
</g>
<!-- Node2&#45;&gt;Node26 -->
<g id="edge48" class="edge">
<title>Node2&#45;&gt;Node26</title>
<path fill="none" stroke="midnightblue" d="M849.72,-341.82C900.48,-321.53 1026.99,-270.97 1085.9,-247.43"/>
<polygon fill="midnightblue" stroke="midnightblue" points="1087.43,-250.59 1095.42,-243.62 1084.84,-244.09 1087.43,-250.59"/>
</g>
<!-- Node27 -->
<g id="node27" class="node">
<title>Node27</title>
<g id="a_node27"><a xlink:href="StatusBar_8h.xhtml" target="_top" xlink:title="In this file, the header of the StatusBar class is defined.">
<polygon fill="white" stroke="black" points="686,-280.5 686,-299.5 800,-299.5 800,-280.5 686,-280.5"/>
<text text-anchor="middle" x="743" y="-287.5" font-family="Helvetica,sans-Serif" font-size="10.00">../status/StatusBar.h</text>
</a>
</g>
</g>
<!-- Node2&#45;&gt;Node27 -->
<g id="edge55" class="edge">
<title>Node2&#45;&gt;Node27</title>
<path fill="none" stroke="midnightblue" d="M815.82,-341.98C802.19,-332.43 779.87,-316.81 763.53,-305.37"/>
<polygon fill="midnightblue" stroke="midnightblue" points="765.36,-302.38 755.16,-299.51 761.34,-308.11 765.36,-302.38"/>
</g>
<!-- Node4 -->
<g id="node4" class="node">
<title>Node4</title>
<g id="a_node4"><a xlink:title=" ">
<polygon fill="white" stroke="#bfbfbf" points="576,-0.5 576,-19.5 620,-19.5 620,-0.5 576,-0.5"/>
<text text-anchor="middle" x="598" y="-7.5" font-family="Helvetica,sans-Serif" font-size="10.00">string</text>
</a>
</g>
</g>
<!-- Node3&#45;&gt;Node4 -->
<g id="edge3" class="edge">
<title>Node3&#45;&gt;Node4</title>
<path fill="none" stroke="midnightblue" d="M533.37,-56.32C545.16,-48.06 563.13,-35.45 577.14,-25.63"/>
<polygon fill="midnightblue" stroke="midnightblue" points="579.48,-28.26 585.66,-19.65 575.46,-22.53 579.48,-28.26"/>
</g>
<!-- Node3&#45;&gt;Node5 -->
<g id="edge4" class="edge">
<title>Node3&#45;&gt;Node5</title>
<path fill="none" stroke="midnightblue" d="M489.98,-60.58C419.72,-50.57 248.85,-26.22 175.91,-15.83"/>
<polygon fill="midnightblue" stroke="midnightblue" points="176.27,-12.35 165.88,-14.4 175.29,-19.28 176.27,-12.35"/>
</g>
<!-- Node3&#45;&gt;Node6 -->
<g id="edge5" class="edge">
<title>Node3&#45;&gt;Node6</title>
<path fill="none" stroke="midnightblue" d="M552.18,-60.58C621.18,-50.8 786.68,-27.34 862.66,-16.58"/>
<polygon fill="midnightblue" stroke="midnightblue" points="863.35,-20.01 872.76,-15.14 862.37,-13.08 863.35,-20.01"/>
</g>
<!-- Node7&#45;&gt;Node5 -->
<g id="edge11" class="edge">
<title>Node7&#45;&gt;Node5</title>
<path fill="none" stroke="midnightblue" d="M630.73,-168.32C621.85,-159.68 608.45,-145.77 599,-132 577.64,-100.86 592.02,-77.54 561,-56 498.92,-12.88 264.08,-10.05 175.81,-10.56"/>
<polygon fill="midnightblue" stroke="midnightblue" points="175.53,-7.07 165.55,-10.64 175.58,-14.07 175.53,-7.07"/>
</g>
<!-- Node7&#45;&gt;Node8 -->
<g id="edge7" class="edge">
<title>Node7&#45;&gt;Node8</title>
<path fill="none" stroke="midnightblue" d="M645.78,-168.08C650.67,-160.53 657.83,-149.49 663.83,-140.23"/>
<polygon fill="midnightblue" stroke="midnightblue" points="666.83,-142.05 669.33,-131.75 660.95,-138.24 666.83,-142.05"/>
</g>
<!-- Node8&#45;&gt;Node3 -->
<g id="edge8" class="edge">
<title>Node8&#45;&gt;Node3</title>
<path fill="none" stroke="midnightblue" d="M650.6,-112.44C624.8,-103.4 583.92,-89.06 554.98,-78.92"/>
<polygon fill="midnightblue" stroke="midnightblue" points="555.88,-75.52 545.29,-75.52 553.57,-82.13 555.88,-75.52"/>
</g>
<!-- Node8&#45;&gt;Node4 -->
<g id="edge9" class="edge">
<title>Node8&#45;&gt;Node4</title>
<path fill="none" stroke="midnightblue" d="M668.96,-112.37C656.25,-94.22 626.56,-51.8 609.89,-27.99"/>
<polygon fill="midnightblue" stroke="midnightblue" points="612.62,-25.78 604.01,-19.59 606.88,-29.79 612.62,-25.78"/>
</g>
<!-- Node8&#45;&gt;Node6 -->
<g id="edge10" class="edge">
<title>Node8&#45;&gt;Node6</title>
<path fill="none" stroke="midnightblue" d="M692.81,-112.37C732.43,-93.17 828.04,-46.84 875.02,-24.07"/>
<polygon fill="midnightblue" stroke="midnightblue" points="876.8,-27.1 884.27,-19.59 873.75,-20.8 876.8,-27.1"/>
</g>
<!-- Node9&#45;&gt;Node3 -->
<g id="edge13" class="edge">
<title>Node9&#45;&gt;Node3</title>
<path fill="none" stroke="midnightblue" d="M375.97,-224.14C383.43,-211.2 398.32,-186.64 414,-168 442,-134.72 480.08,-101.03 502.45,-82.2"/>
<polygon fill="midnightblue" stroke="midnightblue" points="504.76,-84.83 510.2,-75.74 500.28,-79.46 504.76,-84.83"/>
</g>
<!-- Node9&#45;&gt;Node5 -->
<g id="edge21" class="edge">
<title>Node9&#45;&gt;Node5</title>
<path fill="none" stroke="midnightblue" d="M351.4,-224.41C322.51,-211.81 266.77,-187.66 219,-168 178.78,-151.45 152.45,-167.97 128,-132 106.68,-100.64 122.09,-53.86 133.24,-28.63"/>
<polygon fill="midnightblue" stroke="midnightblue" points="136.43,-30.07 137.5,-19.53 130.09,-27.11 136.43,-30.07"/>
</g>
<!-- Node9&#45;&gt;Node6 -->
<g id="edge23" class="edge">
<title>Node9&#45;&gt;Node6</title>
<path fill="none" stroke="midnightblue" d="M373.23,-224.19C381.39,-193.96 412.84,-94.23 481,-56 545.83,-19.63 770.98,-12.64 862.68,-11.31"/>
<polygon fill="midnightblue" stroke="midnightblue" points="862.97,-14.81 872.93,-11.18 862.88,-7.81 862.97,-14.81"/>
</g>
<!-- Node10 -->
<g id="node10" class="node">
<title>Node10</title>
<g id="a_node10"><a xlink:href="ParameterDefinition_8h.xhtml" target="_top" xlink:title="In this file, the header of the ParameterDefinition class is defined.">
<polygon fill="white" stroke="black" points="170.5,-112.5 170.5,-131.5 361.5,-131.5 361.5,-112.5 170.5,-112.5"/>
<text text-anchor="middle" x="266" y="-119.5" font-family="Helvetica,sans-Serif" font-size="10.00">../parameters/ParameterDefinition.h</text>
</a>
</g>
</g>
<!-- Node9&#45;&gt;Node10 -->
<g id="edge14" class="edge">
<title>Node9&#45;&gt;Node10</title>
<path fill="none" stroke="midnightblue" d="M362.76,-224.37C345.2,-205.97 303.87,-162.67 281.32,-139.05"/>
<polygon fill="midnightblue" stroke="midnightblue" points="283.64,-136.41 274.2,-131.59 278.57,-141.24 283.64,-136.41"/>
</g>
<!-- Node11 -->
<g id="node11" class="node">
<title>Node11</title>
<g id="a_node11"><a xlink:href="Status_8h.xhtml" target="_top" xlink:title="In this file, the header of the Status class is defined.">
<polygon fill="white" stroke="black" points="918,-168.5 918,-187.5 1016,-187.5 1016,-168.5 918,-168.5"/>
<text text-anchor="middle" x="967" y="-175.5" font-family="Helvetica,sans-Serif" font-size="10.00">../status/Status.h</text>
</a>
</g>
</g>
<!-- Node9&#45;&gt;Node11 -->
<g id="edge17" class="edge">
<title>Node9&#45;&gt;Node11</title>
<path fill="none" stroke="midnightblue" d="M436.77,-227.04C553.61,-216.45 795.59,-194.53 907.66,-184.38"/>
<polygon fill="midnightblue" stroke="midnightblue" points="908.12,-187.85 917.77,-183.46 907.49,-180.88 908.12,-187.85"/>
</g>
<!-- Node9&#45;&gt;Node12 -->
<g id="edge19" class="edge">
<title>Node9&#45;&gt;Node12</title>
<path fill="none" stroke="midnightblue" d="M337.09,-224.44C300.15,-215.12 240.95,-200.18 200.58,-190"/>
<polygon fill="midnightblue" stroke="midnightblue" points="201.3,-186.57 190.75,-187.52 199.59,-193.36 201.3,-186.57"/>
</g>
<!-- Node9&#45;&gt;Node13 -->
<g id="edge20" class="edge">
<title>Node9&#45;&gt;Node13</title>
<path fill="none" stroke="midnightblue" d="M392.32,-224.47C427.12,-210.82 498.52,-184.01 561,-168 605.03,-156.72 737.31,-135.75 793.88,-127"/>
<polygon fill="midnightblue" stroke="midnightblue" points="794.48,-130.45 803.83,-125.47 793.41,-123.53 794.48,-130.45"/>
</g>
<!-- Node9&#45;&gt;Node14 -->
<g id="edge22" class="edge">
<title>Node9&#45;&gt;Node14</title>
<path fill="none" stroke="midnightblue" d="M436.71,-230.92C570.84,-226.31 885.73,-213.52 1149,-188 1161.16,-186.82 1174.53,-185.08 1186.03,-183.45"/>
<polygon fill="midnightblue" stroke="midnightblue" points="1186.59,-186.9 1195.98,-181.99 1185.58,-179.97 1186.59,-186.9"/>
</g>
<!-- Node10&#45;&gt;Node3 -->
<g id="edge15" class="edge">
<title>Node10&#45;&gt;Node3</title>
<path fill="none" stroke="midnightblue" d="M306.41,-112.44C353.77,-102.41 431.84,-85.88 479.62,-75.76"/>
<polygon fill="midnightblue" stroke="midnightblue" points="480.57,-79.14 489.63,-73.64 479.12,-72.29 480.57,-79.14"/>
</g>
<!-- Node10&#45;&gt;Node4 -->
<g id="edge16" class="edge">
<title>Node10&#45;&gt;Node4</title>
<path fill="none" stroke="midnightblue" d="M277.54,-112.4C296.87,-98.41 337.49,-70.8 376,-56 440.77,-31.11 521.72,-19.15 565.78,-14.13"/>
<polygon fill="midnightblue" stroke="midnightblue" points="566.33,-17.59 575.89,-13.02 565.57,-10.63 566.33,-17.59"/>
</g>
<!-- Node11&#45;&gt;Node4 -->
<g id="edge18" class="edge">
<title>Node11&#45;&gt;Node4</title>
<path fill="none" stroke="midnightblue" d="M952.22,-168.5C929.52,-155.58 884.54,-130.56 845,-112 769.04,-76.35 676.93,-40.59 629.54,-22.72"/>
<polygon fill="midnightblue" stroke="midnightblue" points="630.72,-19.42 620.13,-19.18 628.26,-25.98 630.72,-19.42"/>
</g>
<!-- Node15&#45;&gt;Node3 -->
<g id="edge25" class="edge">
<title>Node15&#45;&gt;Node3</title>
<path fill="none" stroke="midnightblue" d="M1301.16,-280.22C1296.06,-258 1279.61,-199.15 1243,-168 1184.66,-118.36 1154.99,-127.64 1080,-112 889.57,-72.28 655.88,-67.15 562.46,-66.81"/>
<polygon fill="midnightblue" stroke="midnightblue" points="562.3,-63.31 552.29,-66.79 562.29,-70.31 562.3,-63.31"/>
</g>
<!-- Node15&#45;&gt;Node5 -->
<g id="edge42" class="edge">
<title>Node15&#45;&gt;Node5</title>
<path fill="none" stroke="midnightblue" d="M1303.96,-280.35C1305.08,-267.66 1306.05,-243.41 1300,-224 1291.26,-195.98 1286.98,-187.45 1265,-168 1220.92,-129 1201.75,-127.61 1145,-112 775.71,-10.4 304.81,-8.7 175.91,-10.34"/>
<polygon fill="midnightblue" stroke="midnightblue" points="175.81,-6.85 165.86,-10.49 175.91,-13.84 175.81,-6.85"/>
</g>
<!-- Node15&#45;&gt;Node6 -->
<g id="edge45" class="edge">
<title>Node15&#45;&gt;Node6</title>
<path fill="none" stroke="midnightblue" d="M1380.51,-288.98C1528.78,-286.82 1838,-271.28 1838,-179 1838,-179 1838,-179 1838,-121 1838,-29.2 1118.71,-13.82 941.23,-11.42"/>
<polygon fill="midnightblue" stroke="midnightblue" points="941.08,-7.92 931.04,-11.29 940.99,-14.92 941.08,-7.92"/>
</g>
<!-- Node15&#45;&gt;Node7 -->
<g id="edge26" class="edge">
<title>Node15&#45;&gt;Node7</title>
<path fill="none" stroke="midnightblue" d="M1225.46,-288.48C1063.82,-286.69 702.21,-278.8 659,-244 645.43,-233.07 641.2,-213.01 640.05,-198.05"/>
<polygon fill="midnightblue" stroke="midnightblue" points="643.54,-197.71 639.66,-187.85 636.55,-197.97 643.54,-197.71"/>
</g>
<!-- Node15&#45;&gt;Node11 -->
<g id="edge41" class="edge">
<title>Node15&#45;&gt;Node11</title>
<path fill="none" stroke="midnightblue" d="M1225.46,-281.8C1156.72,-274.43 1062.25,-261.56 1029,-244 1007.76,-232.78 989.63,-211.53 978.56,-196.38"/>
<polygon fill="midnightblue" stroke="midnightblue" points="981.22,-194.07 972.62,-187.88 975.48,-198.08 981.22,-194.07"/>
</g>
<!-- Node15&#45;&gt;Node14 -->
<g id="edge44" class="edge">
<title>Node15&#45;&gt;Node14</title>
<path fill="none" stroke="midnightblue" d="M1296.09,-280.37C1281.51,-262.14 1247.34,-219.43 1228.34,-195.68"/>
<polygon fill="midnightblue" stroke="midnightblue" points="1230.85,-193.21 1221.87,-187.59 1225.39,-197.59 1230.85,-193.21"/>
</g>
<!-- Node16 -->
<g id="node16" class="node">
<title>Node16</title>
<g id="a_node16"><a xlink:href="Multithreaded_8h.xhtml" target="_top" xlink:title="In this file, the header of the Multithreaded class is defined.">
<polygon fill="white" stroke="black" points="1440.5,-224.5 1440.5,-243.5 1567.5,-243.5 1567.5,-224.5 1440.5,-224.5"/>
<text text-anchor="middle" x="1504" y="-231.5" font-family="Helvetica,sans-Serif" font-size="10.00">../utils/Multithreaded.h</text>
</a>
</g>
</g>
<!-- Node15&#45;&gt;Node16 -->
<g id="edge27" class="edge">
<title>Node15&#45;&gt;Node16</title>
<path fill="none" stroke="midnightblue" d="M1334.85,-280.44C1369.4,-271.16 1424.68,-256.31 1462.58,-246.13"/>
<polygon fill="midnightblue" stroke="midnightblue" points="1463.55,-249.49 1472.3,-243.52 1461.73,-242.73 1463.55,-249.49"/>
</g>
<!-- Node18 -->
<g id="node18" class="node">
<title>Node18</title>
<g id="a_node18"><a xlink:title=" ">
<polygon fill="white" stroke="#bfbfbf" points="1673.5,-112.5 1673.5,-131.5 1720.5,-131.5 1720.5,-112.5 1673.5,-112.5"/>
<text text-anchor="middle" x="1697" y="-119.5" font-family="Helvetica,sans-Serif" font-size="10.00">queue</text>
</a>
</g>
</g>
<!-- Node15&#45;&gt;Node18 -->
<g id="edge47" class="edge">
<title>Node15&#45;&gt;Node18</title>
<path fill="none" stroke="midnightblue" d="M1380.94,-284.47C1503.75,-275.49 1733.3,-250.56 1781,-188 1799.06,-164.32 1760.89,-144.64 1730.26,-133.35"/>
<polygon fill="midnightblue" stroke="midnightblue" points="1731.25,-129.99 1720.66,-129.98 1728.94,-136.59 1731.25,-129.99"/>
</g>
<!-- Node15&#45;&gt;Node20 -->
<g id="edge43" class="edge">
<title>Node15&#45;&gt;Node20</title>
<path fill="none" stroke="midnightblue" d="M1314.54,-280.49C1324.48,-272.38 1338.12,-259.18 1344,-244 1349.73,-229.2 1349.17,-211.05 1347.49,-197.69"/>
<polygon fill="midnightblue" stroke="midnightblue" points="1350.94,-197.11 1345.94,-187.78 1344.03,-198.2 1350.94,-197.11"/>
</g>
<!-- Node25 -->
<g id="node25" class="node">
<title>Node25</title>
<g id="a_node25"><a xlink:title=" ">
<polygon fill="white" stroke="#bfbfbf" points="1072,-168.5 1072,-187.5 1140,-187.5 1140,-168.5 1072,-168.5"/>
<text text-anchor="middle" x="1106" y="-175.5" font-family="Helvetica,sans-Serif" font-size="10.00">filesystem</text>
</a>
</g>
</g>
<!-- Node15&#45;&gt;Node25 -->
<g id="edge46" class="edge">
<title>Node15&#45;&gt;Node25</title>
<path fill="none" stroke="midnightblue" d="M1225.36,-286.57C1155.95,-282.57 1061.64,-271.99 1038,-244 1021.56,-224.53 1050.43,-204.64 1075.48,-192.08"/>
<polygon fill="midnightblue" stroke="midnightblue" points="1077.27,-195.1 1084.8,-187.64 1074.26,-188.79 1077.27,-195.1"/>
</g>
<!-- Node16&#45;&gt;Node14 -->
<g id="edge30" class="edge">
<title>Node16&#45;&gt;Node14</title>
<path fill="none" stroke="midnightblue" d="M1458.21,-224.44C1398.18,-213.23 1294.61,-193.87 1244.23,-184.46"/>
<polygon fill="midnightblue" stroke="midnightblue" points="1244.79,-181.01 1234.32,-182.61 1243.5,-187.89 1244.79,-181.01"/>
</g>
<!-- Node17 -->
<g id="node17" class="node">
<title>Node17</title>
<g id="a_node17"><a xlink:title=" ">
<polygon fill="white" stroke="#bfbfbf" points="1467,-112.5 1467,-131.5 1515,-131.5 1515,-112.5 1467,-112.5"/>
<text text-anchor="middle" x="1491" y="-119.5" font-family="Helvetica,sans-Serif" font-size="10.00">mutex</text>
</a>
</g>
</g>
<!-- Node16&#45;&gt;Node17 -->
<g id="edge28" class="edge">
<title>Node16&#45;&gt;Node17</title>
<path fill="none" stroke="midnightblue" d="M1502.98,-224.37C1500.88,-206.62 1496.04,-165.67 1493.2,-141.6"/>
<polygon fill="midnightblue" stroke="midnightblue" points="1496.66,-141.11 1492.02,-131.59 1489.71,-141.93 1496.66,-141.11"/>
</g>
<!-- Node16&#45;&gt;Node18 -->
<g id="edge29" class="edge">
<title>Node16&#45;&gt;Node18</title>
<path fill="none" stroke="midnightblue" d="M1567.83,-225.59C1597.95,-219.48 1632.92,-208.33 1659,-188 1674.43,-175.97 1684.81,-155.79 1690.76,-141.1"/>
<polygon fill="midnightblue" stroke="midnightblue" points="1694.1,-142.16 1694.33,-131.57 1687.55,-139.71 1694.1,-142.16"/>
</g>
<!-- Node19 -->
<g id="node19" class="node">
<title>Node19</title>
<g id="a_node19"><a xlink:title=" ">
<polygon fill="white" stroke="#bfbfbf" points="1706.5,-168.5 1706.5,-187.5 1771.5,-187.5 1771.5,-168.5 1706.5,-168.5"/>
<text text-anchor="middle" x="1739" y="-175.5" font-family="Helvetica,sans-Serif" font-size="10.00">functional</text>
</a>
</g>
</g>
<!-- Node16&#45;&gt;Node19 -->
<g id="edge31" class="edge">
<title>Node16&#45;&gt;Node19</title>
<path fill="none" stroke="midnightblue" d="M1541.24,-224.44C1583.5,-214.73 1652.3,-198.92 1696.6,-188.74"/>
<polygon fill="midnightblue" stroke="midnightblue" points="1697.52,-192.12 1706.48,-186.47 1695.95,-185.3 1697.52,-192.12"/>
</g>
<!-- Node16&#45;&gt;Node20 -->
<g id="edge32" class="edge">
<title>Node16&#45;&gt;Node20</title>
<path fill="none" stroke="midnightblue" d="M1477.81,-224.47C1452.42,-216.17 1412.62,-203.02 1369.63,-188.16"/>
<polygon fill="midnightblue" stroke="midnightblue" points="1370.71,-184.84 1360.12,-184.87 1368.42,-191.45 1370.71,-184.84"/>
</g>
<!-- Node21 -->
<g id="node21" class="node">
<title>Node21</title>
<g id="a_node21"><a xlink:href="ThreadsafeQueue_8h.xhtml" target="_top" xlink:title="In this file, the header of the ThreadSafeQueue class is defined.">
<polygon fill="white" stroke="black" points="1538,-168.5 1538,-187.5 1650,-187.5 1650,-168.5 1538,-168.5"/>
<text text-anchor="middle" x="1594" y="-175.5" font-family="Helvetica,sans-Serif" font-size="10.00">ThreadsafeQueue.h</text>
</a>
</g>
</g>
<!-- Node16&#45;&gt;Node21 -->
<g id="edge33" class="edge">
<title>Node16&#45;&gt;Node21</title>
<path fill="none" stroke="midnightblue" d="M1518.46,-224.32C1532.5,-215.9 1554.05,-202.97 1570.54,-193.07"/>
<polygon fill="midnightblue" stroke="midnightblue" points="1572.8,-195.8 1579.58,-187.65 1569.2,-189.8 1572.8,-195.8"/>
</g>
<!-- Node23 -->
<g id="node23" class="node">
<title>Node23</title>
<g id="a_node23"><a xlink:href="Multithreaded_8tpp.xhtml" target="_top" xlink:title="In this file, the implementation of the Multithreaded class is defined.">
<polygon fill="white" stroke="black" points="1378,-168.5 1378,-187.5 1482,-187.5 1482,-168.5 1378,-168.5"/>
<text text-anchor="middle" x="1430" y="-175.5" font-family="Helvetica,sans-Serif" font-size="10.00">Multithreaded.tpp</text>
</a>
</g>
</g>
<!-- Node16&#45;&gt;Node23 -->
<g id="edge38" class="edge">
<title>Node16&#45;&gt;Node23</title>
<path fill="none" stroke="midnightblue" d="M1492.11,-224.32C1480.85,-216.11 1463.71,-203.6 1450.29,-193.81"/>
<polygon fill="midnightblue" stroke="midnightblue" points="1452.25,-190.9 1442.11,-187.83 1448.12,-196.56 1452.25,-190.9"/>
</g>
<!-- Node21&#45;&gt;Node17 -->
<g id="edge35" class="edge">
<title>Node21&#45;&gt;Node17</title>
<path fill="none" stroke="midnightblue" d="M1577.45,-168.32C1561.01,-159.7 1535.57,-146.36 1516.53,-136.39"/>
<polygon fill="midnightblue" stroke="midnightblue" points="1517.99,-133.2 1507.51,-131.65 1514.74,-139.4 1517.99,-133.2"/>
</g>
<!-- Node21&#45;&gt;Node18 -->
<g id="edge34" class="edge">
<title>Node21&#45;&gt;Node18</title>
<path fill="none" stroke="midnightblue" d="M1610.55,-168.32C1626.99,-159.7 1652.43,-146.36 1671.47,-136.39"/>
<polygon fill="midnightblue" stroke="midnightblue" points="1673.26,-139.4 1680.49,-131.65 1670.01,-133.2 1673.26,-139.4"/>
</g>
<!-- Node22 -->
<g id="node22" class="node">
<title>Node22</title>
<g id="a_node22"><a xlink:href="ThreadsafeQueue_8tpp.xhtml" target="_top" xlink:title="In this file, the implementation of the ThreadSafeQueue class is defined.">
<polygon fill="white" stroke="black" points="1533,-112.5 1533,-131.5 1655,-131.5 1655,-112.5 1533,-112.5"/>
<text text-anchor="middle" x="1594" y="-119.5" font-family="Helvetica,sans-Serif" font-size="10.00">ThreadsafeQueue.tpp</text>
</a>
</g>
</g>
<!-- Node21&#45;&gt;Node22 -->
<g id="edge36" class="edge">
<title>Node21&#45;&gt;Node22</title>
<path fill="none" stroke="midnightblue" d="M1588.83,-168.08C1587.32,-160.93 1586.89,-150.64 1587.54,-141.69"/>
<polygon fill="midnightblue" stroke="midnightblue" points="1591.02,-142.13 1588.87,-131.75 1584.08,-141.2 1591.02,-142.13"/>
</g>
<!-- Node22&#45;&gt;Node21 -->
<g id="edge37" class="edge">
<title>Node22&#45;&gt;Node21</title>
<path fill="none" stroke="midnightblue" d="M1599.13,-131.75C1600.66,-138.86 1601.1,-149.14 1600.47,-158.1"/>
<polygon fill="midnightblue" stroke="midnightblue" points="1596.99,-157.71 1599.17,-168.08 1603.93,-158.62 1596.99,-157.71"/>
</g>
<!-- Node23&#45;&gt;Node13 -->
<g id="edge40" class="edge">
<title>Node23&#45;&gt;Node13</title>
<path fill="none" stroke="midnightblue" d="M1377.79,-169.07C1374.82,-168.69 1371.87,-168.33 1369,-168 1168.46,-145.01 925.4,-129.34 846.26,-124.55"/>
<polygon fill="midnightblue" stroke="midnightblue" points="846.4,-121.05 836.21,-123.94 845.98,-128.04 846.4,-121.05"/>
</g>
<!-- Node24 -->
<g id="node24" class="node">
<title>Node24</title>
<g id="a_node24"><a xlink:title=" ">
<polygon fill="white" stroke="#bfbfbf" points="1403,-112.5 1403,-131.5 1449,-131.5 1449,-112.5 1403,-112.5"/>
<text text-anchor="middle" x="1426" y="-119.5" font-family="Helvetica,sans-Serif" font-size="10.00">future</text>
</a>
</g>
</g>
<!-- Node23&#45;&gt;Node24 -->
<g id="edge39" class="edge">
<title>Node23&#45;&gt;Node24</title>
<path fill="none" stroke="midnightblue" d="M1429.34,-168.08C1428.82,-161.01 1428.06,-150.86 1427.41,-141.99"/>
<polygon fill="midnightblue" stroke="midnightblue" points="1430.88,-141.47 1426.65,-131.75 1423.9,-141.98 1430.88,-141.47"/>
</g>
<!-- Node26&#45;&gt;Node3 -->
<g id="edge49" class="edge">
<title>Node26&#45;&gt;Node3</title>
<path fill="none" stroke="midnightblue" d="M1127.15,-224.26C1141.29,-211.02 1163.65,-185.59 1149,-168 1073.83,-77.72 689.81,-67.74 562.25,-66.94"/>
<polygon fill="midnightblue" stroke="midnightblue" points="562.13,-63.44 552.11,-66.9 562.09,-70.44 562.13,-63.44"/>
</g>
<!-- Node26&#45;&gt;Node11 -->
<g id="edge50" class="edge">
<title>Node26&#45;&gt;Node11</title>
<path fill="none" stroke="midnightblue" d="M1093.23,-224.44C1068.11,-215.4 1028.29,-201.06 1000.1,-190.92"/>
<polygon fill="midnightblue" stroke="midnightblue" points="1001.25,-187.61 990.66,-187.52 998.88,-194.2 1001.25,-187.61"/>
</g>
<!-- Node26&#45;&gt;Node14 -->
<g id="edge53" class="edge">
<title>Node26&#45;&gt;Node14</title>
<path fill="none" stroke="midnightblue" d="M1132.75,-224.32C1148.32,-215.74 1172.38,-202.49 1190.46,-192.52"/>
<polygon fill="midnightblue" stroke="midnightblue" points="1192.22,-195.55 1199.29,-187.65 1188.85,-189.42 1192.22,-195.55"/>
</g>
<!-- Node26&#45;&gt;Node20 -->
<g id="edge51" class="edge">
<title>Node26&#45;&gt;Node20</title>
<path fill="none" stroke="midnightblue" d="M1152.97,-224.44C1198.87,-213.52 1277.19,-194.89 1317.82,-185.23"/>
<polygon fill="midnightblue" stroke="midnightblue" points="1318.84,-188.58 1327.75,-182.86 1317.22,-181.77 1318.84,-188.58"/>
</g>
<!-- Node26&#45;&gt;Node25 -->
<g id="edge52" class="edge">
<title>Node26&#45;&gt;Node25</title>
<path fill="none" stroke="midnightblue" d="M1115.18,-224.08C1113.73,-216.93 1111.63,-206.64 1109.81,-197.69"/>
<polygon fill="midnightblue" stroke="midnightblue" points="1113.21,-196.85 1107.78,-187.75 1106.35,-198.25 1113.21,-196.85"/>
</g>
<!-- Node27&#45;&gt;Node3 -->
<g id="edge56" class="edge">
<title>Node27&#45;&gt;Node3</title>
<path fill="none" stroke="midnightblue" d="M707.27,-280.48C662.09,-267.88 584.91,-239.96 541,-188 516.46,-158.96 516.42,-111.56 518.65,-85.54"/>
<polygon fill="midnightblue" stroke="midnightblue" points="522.13,-85.84 519.71,-75.52 515.17,-85.1 522.13,-85.84"/>
</g>
<!-- Node27&#45;&gt;Node5 -->
<g id="edge69" class="edge">
<title>Node27&#45;&gt;Node5</title>
<path fill="none" stroke="midnightblue" d="M685.6,-287.88C581.16,-285.08 364.62,-275.54 297,-244 253.14,-223.54 258.67,-195.73 219,-168 188.69,-146.82 166.63,-161.24 144,-132 121.05,-102.34 129.13,-55.22 136.13,-29.4"/>
<polygon fill="midnightblue" stroke="midnightblue" points="139.5,-30.33 138.97,-19.75 132.79,-28.36 139.5,-30.33"/>
</g>
<!-- Node27&#45;&gt;Node6 -->
<g id="edge68" class="edge">
<title>Node27&#45;&gt;Node6</title>
<path fill="none" stroke="midnightblue" d="M768.22,-280.36C793.75,-271.53 834.29,-257.28 869,-244 890.97,-235.6 895.95,-232.2 918,-224 965.03,-206.51 995.72,-228.75 1025,-188 1068.2,-127.89 971.2,-54.99 924.87,-24.96"/>
<polygon fill="midnightblue" stroke="midnightblue" points="926.65,-21.95 916.34,-19.54 922.9,-27.86 926.65,-21.95"/>
</g>
<!-- Node27&#45;&gt;Node11 -->
<g id="edge67" class="edge">
<title>Node27&#45;&gt;Node11</title>
<path fill="none" stroke="midnightblue" d="M760.58,-280.37C799.67,-261.17 894.01,-214.84 940.38,-192.07"/>
<polygon fill="midnightblue" stroke="midnightblue" points="942.07,-195.14 949.5,-187.59 938.99,-188.86 942.07,-195.14"/>
</g>
<!-- Node27&#45;&gt;Node25 -->
<g id="edge70" class="edge">
<title>Node27&#45;&gt;Node25</title>
<path fill="none" stroke="midnightblue" d="M779.77,-280.46C815.35,-271.99 870.69,-258.24 918,-244 973.17,-227.4 1036.26,-204.83 1073.53,-191.13"/>
<polygon fill="midnightblue" stroke="midnightblue" points="1075.16,-194.25 1083.33,-187.51 1072.74,-187.69 1075.16,-194.25"/>
</g>
<!-- Node28 -->
<g id="node28" class="node">
<title>Node28</title>
<g id="a_node28"><a xlink:href="ValueMap_8h.xhtml" target="_top" xlink:title="In this file, the header of the ValueMap class is defined.">
<polygon fill="white" stroke="black" points="668,-224.5 668,-243.5 800,-243.5 800,-224.5 668,-224.5"/>
<text text-anchor="middle" x="734" y="-231.5" font-family="Helvetica,sans-Serif" font-size="10.00">../controller/ValueMap.h</text>
</a>
</g>
</g>
<!-- Node27&#45;&gt;Node28 -->
<g id="edge57" class="edge">
<title>Node27&#45;&gt;Node28</title>
<path fill="none" stroke="midnightblue" d="M741.51,-280.08C740.32,-272.93 738.61,-262.64 737.12,-253.69"/>
<polygon fill="midnightblue" stroke="midnightblue" points="740.55,-253.04 735.46,-243.75 733.65,-254.19 740.55,-253.04"/>
</g>
<!-- Node28&#45;&gt;Node3 -->
<g id="edge58" class="edge">
<title>Node28&#45;&gt;Node3</title>
<path fill="none" stroke="midnightblue" d="M667.97,-230.71C632.22,-226.15 589.64,-214.85 561,-188 532.17,-160.98 524.1,-112.78 521.85,-86.1"/>
<polygon fill="midnightblue" stroke="midnightblue" points="525.33,-85.55 521.19,-75.8 518.34,-86 525.33,-85.55"/>
</g>
<!-- Node28&#45;&gt;Node5 -->
<g id="edge62" class="edge">
<title>Node28&#45;&gt;Node5</title>
<path fill="none" stroke="midnightblue" d="M667.88,-225.64C524.99,-209.12 197.37,-167.76 162,-132 135.14,-104.85 136.1,-56.34 139.08,-29.73"/>
<polygon fill="midnightblue" stroke="midnightblue" points="142.56,-30.17 140.41,-19.8 135.62,-29.25 142.56,-30.17"/>
</g>
<!-- Node28&#45;&gt;Node6 -->
<g id="edge64" class="edge">
<title>Node28&#45;&gt;Node6</title>
<path fill="none" stroke="midnightblue" d="M737.21,-224.21C745.04,-203.41 766.6,-150.1 795,-112 820.86,-77.31 859.33,-44.32 882.41,-25.96"/>
<polygon fill="midnightblue" stroke="midnightblue" points="884.73,-28.58 890.45,-19.66 880.42,-23.07 884.73,-28.58"/>
</g>
<!-- Node28&#45;&gt;Node7 -->
<g id="edge59" class="edge">
<title>Node28&#45;&gt;Node7</title>
<path fill="none" stroke="midnightblue" d="M718.9,-224.32C704.1,-215.82 681.31,-202.73 664.02,-192.8"/>
<polygon fill="midnightblue" stroke="midnightblue" points="665.48,-189.6 655.07,-187.65 661.99,-195.67 665.48,-189.6"/>
</g>
<!-- Node28&#45;&gt;Node8 -->
<g id="edge60" class="edge">
<title>Node28&#45;&gt;Node8</title>
<path fill="none" stroke="midnightblue" d="M733.5,-224.48C732.43,-211.54 729.11,-186.49 719,-168 712.82,-156.7 703,-146.26 694.2,-138.29"/>
<polygon fill="midnightblue" stroke="midnightblue" points="696.41,-135.57 686.54,-131.71 691.85,-140.88 696.41,-135.57"/>
</g>
<!-- Node28&#45;&gt;Node13 -->
<g id="edge63" class="edge">
<title>Node28&#45;&gt;Node13</title>
<path fill="none" stroke="midnightblue" d="M747.95,-224.47C760.31,-216.35 778.18,-203.14 790,-188 800.99,-173.93 809.09,-155.19 814.08,-141.45"/>
<polygon fill="midnightblue" stroke="midnightblue" points="817.5,-142.28 817.42,-131.69 810.87,-140.02 817.5,-142.28"/>
</g>
<!-- Node28&#45;&gt;Node14 -->
<g id="edge61" class="edge">
<title>Node28&#45;&gt;Node14</title>
<path fill="none" stroke="midnightblue" d="M800.19,-226.39C882.15,-218.07 1025.99,-203.05 1149,-188 1161.13,-186.52 1174.49,-184.72 1186,-183.13"/>
<polygon fill="midnightblue" stroke="midnightblue" points="1186.54,-186.59 1195.96,-181.74 1185.57,-179.66 1186.54,-186.59"/>
</g>
<!-- Node28&#45;&gt;Node17 -->
<g id="edge66" class="edge">
<title>Node28&#45;&gt;Node17</title>
<path fill="none" stroke="midnightblue" d="M751.87,-224.37C782.97,-209.82 849.41,-180.73 909,-168 1144.85,-117.59 1214.92,-170.88 1456.81,-131.83"/>
<polygon fill="midnightblue" stroke="midnightblue" points="1457.68,-135.23 1466.97,-130.15 1456.54,-128.33 1457.68,-135.23"/>
</g>
<!-- Node28&#45;&gt;Node20 -->
<g id="edge65" class="edge">
<title>Node28&#45;&gt;Node20</title>
<path fill="none" stroke="midnightblue" d="M800.3,-227.15C897.44,-218.58 1084.16,-202.1 1243,-188 1268.42,-185.74 1297.43,-183.16 1317.82,-181.34"/>
<polygon fill="midnightblue" stroke="midnightblue" points="1318.26,-184.81 1327.91,-180.44 1317.64,-177.84 1318.26,-184.81"/>
</g>
<!-- Node29&#45;&gt;Node2 -->
<g id="edge79" class="edge">
<title>Node29&#45;&gt;Node2</title>
<path fill="none" stroke="midnightblue" d="M1595.66,-406.88C1436.49,-395.6 1057.53,-368.76 899.32,-357.55"/>
<polygon fill="midnightblue" stroke="midnightblue" points="899.44,-354.05 889.22,-356.84 898.95,-361.03 899.44,-354.05"/>
</g>
<!-- Node29&#45;&gt;Node19 -->
<g id="edge78" class="edge">
<title>Node29&#45;&gt;Node19</title>
<path fill="none" stroke="midnightblue" d="M1670.61,-403.43C1680.92,-369.61 1718.9,-244.95 1733.36,-197.5"/>
<polygon fill="midnightblue" stroke="midnightblue" points="1736.72,-198.48 1736.29,-187.9 1730.03,-196.44 1736.72,-198.48"/>
</g>
<!-- Node30 -->
<g id="node30" class="node">
<title>Node30</title>
<g id="a_node30"><a xlink:href="DirectTypes_8h.xhtml" target="_top" xlink:title="In this file, types are defined which are used in the direct module.">
<polygon fill="white" stroke="black" points="1942.5,-336.5 1942.5,-366.5 2045.5,-366.5 2045.5,-336.5 1942.5,-336.5"/>
<text text-anchor="start" x="1950.5" y="-354.5" font-family="Helvetica,sans-Serif" font-size="10.00">../optimizer/direct</text>
<text text-anchor="middle" x="1994" y="-343.5" font-family="Helvetica,sans-Serif" font-size="10.00">/DirectTypes.h</text>
</a>
</g>
</g>
<!-- Node29&#45;&gt;Node30 -->
<g id="edge80" class="edge">
<title>Node29&#45;&gt;Node30</title>
<path fill="none" stroke="midnightblue" d="M1721.41,-403.48C1774.06,-394.9 1856.75,-380.99 1928,-367 1929.44,-366.72 1930.89,-366.43 1932.36,-366.13"/>
<polygon fill="midnightblue" stroke="midnightblue" points="1933.07,-369.56 1942.17,-364.12 1931.67,-362.7 1933.07,-369.56"/>
</g>
</g>
</svg>
        <g id="navigator" transform="translate(0 0)" fill="#404254">
                <rect fill="#f2f5e9" fill-opacity="0.5" stroke="#606060" stroke-width=".5" x="0" y="0" width="60" height="60"/>
                <use id="zoomplus" xlink:href="#zoomPlus" x="17" y="9" onmousedown="handleZoom(evt,'in')"/>
                <use id="zoomminus" xlink:href="#zoomMin" x="42" y="9" onmousedown="handleZoom(evt,'out')"/>
                <use id="reset" xlink:href="#resetDef" x="30" y="36" onmousedown="handleReset()"/>
                <g id="arrowUp" xlink:href="#dirArrow" transform="translate(30 24)" onmousedown="handlePan(0,-1)">
                  <use xlink:href="#rim" fill="#404040">
                        <set attributeName="fill" to="#808080" begin="arrowUp.mouseover" end="arrowUp.mouseout"/>
                  </use>
                  <path fill="none" stroke="white" stroke-width="1.5" d="M0,-3.0v7 M-2.5,-0.5L0,-3.0L2.5,-0.5"/>
                </g>
                <g id="arrowRight" xlink:href="#dirArrow" transform="rotate(90) translate(36 -43)" onmousedown="handlePan(1,0)">
                  <use xlink:href="#rim" fill="#404040">
                        <set attributeName="fill" to="#808080" begin="arrowRight.mouseover" end="arrowRight.mouseout"/>
                  </use>
                  <path fill="none" stroke="white" stroke-width="1.5" d="M0,-3.0v7 M-2.5,-0.5L0,-3.0L2.5,-0.5"/>
                </g>
                <g id="arrowDown" xlink:href="#dirArrow" transform="rotate(180) translate(-30 -48)" onmousedown="handlePan(0,1)">
                  <use xlink:href="#rim" fill="#404040">
                        <set attributeName="fill" to="#808080" begin="arrowDown.mouseover" end="arrowDown.mouseout"/>
                  </use>
                  <path fill="none" stroke="white" stroke-width="1.5" d="M0,-3.0v7 M-2.5,-0.5L0,-3.0L2.5,-0.5"/>
                </g>
                <g id="arrowLeft" xlink:href="#dirArrow" transform="rotate(270) translate(-36 17)" onmousedown="handlePan(-1,0)">
                  <use xlink:href="#rim" fill="#404040">
                        <set attributeName="fill" to="#808080" begin="arrowLeft.mouseover" end="arrowLeft.mouseout"/>
                  </use>
                  <path fill="none" stroke="white" stroke-width="1.5" d="M0,-3.0v7 M-2.5,-0.5L0,-3.0L2.5,-0.5"/>
                </g>
        </g>
        <svg viewBox="0 0 15 15" width="100%" height="30px" preserveAspectRatio="xMaxYMin meet">
         <g id="arrow_out" transform="scale(0.3 0.3)">
          <a xlink:href="main_8cpp__incl_org.svg" target="_base">
           <rect id="button" ry="5" rx="5" y="6" x="6" height="38" width="38"
                fill="#f2f5e9" fill-opacity="0.5" stroke="#606060" stroke-width="1.0"/>
           <path id="arrow"
             d="M 11.500037,31.436501 C 11.940474,20.09759 22.043105,11.32322 32.158766,21.979434 L 37.068811,17.246167 C 37.068811,17.246167 37.088388,32 37.088388,32 L 22.160133,31.978069 C 22.160133,31.978069 26.997745,27.140456 26.997745,27.140456 C 18.528582,18.264221 13.291696,25.230495 11.500037,31.436501 z"
             style="fill:#404040;"/>
          </a>
         </g>
        </svg>
</svg>
