<?xml version="1.0" encoding="UTF-8" standalone="no"?>
<!DOCTYPE svg PUBLIC "-//W3C//DTD SVG 1.1//EN"
 "http://www.w3.org/Graphics/SVG/1.1/DTD/svg11.dtd">
<!-- Generated by graphviz version 2.43.0 (0)
 -->
<!-- Title: /home/runner/work/Simopticon/Simopticon/src/optimizer/montecarlo/MonteCarlo.cpp Pages: 1 -->
<svg width="1324pt" height="341pt"
 viewBox="0.00 0.00 1323.50 341.00" xmlns="http://www.w3.org/2000/svg" xmlns:xlink="http://www.w3.org/1999/xlink">
<g id="graph0" class="graph" transform="scale(1 1) rotate(0) translate(4 337)">
<title>/home/runner/work/Simopticon/Simopticon/src/optimizer/montecarlo/MonteCarlo.cpp</title>
<polygon fill="white" stroke="transparent" points="-4,4 -4,-337 1319.5,-337 1319.5,4 -4,4"/>
<!-- Node1 -->
<g id="node1" class="node">
<title>Node1</title>
<g id="a_node1"><a xlink:title="In this file, the implementation of the MonteCarlo optimizer class is defined.">
<polygon fill="#bfbfbf" stroke="black" points="292.5,-291.5 292.5,-332.5 459.5,-332.5 459.5,-291.5 292.5,-291.5"/>
<text text-anchor="start" x="300.5" y="-320.5" font-family="Helvetica,sans-Serif" font-size="10.00">/home/runner/work/Simopticon</text>
<text text-anchor="start" x="300.5" y="-309.5" font-family="Helvetica,sans-Serif" font-size="10.00">/Simopticon/src/optimizer</text>
<text text-anchor="middle" x="376" y="-298.5" font-family="Helvetica,sans-Serif" font-size="10.00">/montecarlo/MonteCarlo.cpp</text>
</a>
</g>
</g>
<!-- Node2 -->
<g id="node2" class="node">
<title>Node2</title>
<g id="a_node2"><a xlink:href="MonteCarlo_8h.xhtml" target="_top" xlink:title="In this file, the header of the MonteCarlo class is defined.">
<polygon fill="white" stroke="black" points="571,-230 571,-249 653,-249 653,-230 571,-230"/>
<text text-anchor="middle" x="612" y="-237" font-family="Helvetica,sans-Serif" font-size="10.00">MonteCarlo.h</text>
</a>
</g>
</g>
<!-- Node1&#45;&gt;Node2 -->
<g id="edge1" class="edge">
<title>Node1&#45;&gt;Node2</title>
<path fill="none" stroke="midnightblue" d="M441.43,-291.46C483.89,-278.77 537.77,-262.68 573.48,-252.01"/>
<polygon fill="midnightblue" stroke="midnightblue" points="574.92,-255.23 583.5,-249.01 572.92,-248.52 574.92,-255.23"/>
</g>
<!-- Node7 -->
<g id="node7" class="node">
<title>Node7</title>
<g id="a_node7"><a xlink:title=" ">
<polygon fill="white" stroke="#bfbfbf" points="226,-0.5 226,-19.5 284,-19.5 284,-0.5 226,-0.5"/>
<text text-anchor="middle" x="255" y="-7.5" font-family="Helvetica,sans-Serif" font-size="10.00">memory</text>
</a>
</g>
</g>
<!-- Node1&#45;&gt;Node7 -->
<g id="edge43" class="edge">
<title>Node1&#45;&gt;Node7</title>
<path fill="none" stroke="midnightblue" d="M292.36,-309.25C228.82,-304.78 141.05,-291.66 73,-255 31.77,-232.79 0,-225.84 0,-179 0,-179 0,-179 0,-121 0,-28.17 144.23,-12.75 215.75,-10.81"/>
<polygon fill="midnightblue" stroke="midnightblue" points="215.82,-14.31 225.75,-10.62 215.68,-7.31 215.82,-14.31"/>
</g>
<!-- Node19 -->
<g id="node19" class="node">
<title>Node19</title>
<g id="a_node19"><a xlink:href="ValueMap_8h.xhtml" target="_top" xlink:title="In this file, the header of the ValueMap class is defined.">
<polygon fill="white" stroke="black" points="305.5,-230 305.5,-249 446.5,-249 446.5,-230 305.5,-230"/>
<text text-anchor="middle" x="376" y="-237" font-family="Helvetica,sans-Serif" font-size="10.00">../../controller/ValueMap.h</text>
</a>
</g>
</g>
<!-- Node1&#45;&gt;Node19 -->
<g id="edge26" class="edge">
<title>Node1&#45;&gt;Node19</title>
<path fill="none" stroke="midnightblue" d="M376,-291.36C376,-281.3 376,-269.1 376,-259.18"/>
<polygon fill="midnightblue" stroke="midnightblue" points="379.5,-259.17 376,-249.17 372.5,-259.17 379.5,-259.17"/>
</g>
<!-- Node23 -->
<g id="node23" class="node">
<title>Node23</title>
<g id="a_node23"><a xlink:href="ContinuousParameter_8h.xhtml" target="_top" xlink:title="In this file, the header of the ContinuousParameter class is defined.">
<polygon fill="white" stroke="black" points="82.5,-224.5 82.5,-254.5 231.5,-254.5 231.5,-224.5 82.5,-224.5"/>
<text text-anchor="start" x="90.5" y="-242.5" font-family="Helvetica,sans-Serif" font-size="10.00">../../parameters/Continuous</text>
<text text-anchor="middle" x="157" y="-231.5" font-family="Helvetica,sans-Serif" font-size="10.00">Parameter.h</text>
</a>
</g>
</g>
<!-- Node1&#45;&gt;Node23 -->
<g id="edge41" class="edge">
<title>Node1&#45;&gt;Node23</title>
<path fill="none" stroke="midnightblue" d="M315.29,-291.46C282.36,-280.86 242.04,-267.88 210.34,-257.67"/>
<polygon fill="midnightblue" stroke="midnightblue" points="211.38,-254.33 200.79,-254.6 209.24,-260.99 211.38,-254.33"/>
</g>
<!-- Node24 -->
<g id="node24" class="node">
<title>Node24</title>
<g id="a_node24"><a xlink:title=" ">
<polygon fill="white" stroke="#bfbfbf" points="671.5,-230 671.5,-249 726.5,-249 726.5,-230 671.5,-230"/>
<text text-anchor="middle" x="699" y="-237" font-family="Helvetica,sans-Serif" font-size="10.00">fstream</text>
</a>
</g>
</g>
<!-- Node1&#45;&gt;Node24 -->
<g id="edge44" class="edge">
<title>Node1&#45;&gt;Node24</title>
<path fill="none" stroke="midnightblue" d="M459.55,-298.72C517.09,-289.27 594.96,-274.53 662,-255 664.43,-254.29 666.93,-253.49 669.43,-252.63"/>
<polygon fill="midnightblue" stroke="midnightblue" points="670.7,-255.89 678.87,-249.15 668.28,-249.32 670.7,-255.89"/>
</g>
<!-- Node3 -->
<g id="node3" class="node">
<title>Node3</title>
<g id="a_node3"><a xlink:href="Optimizer_8h.xhtml" target="_top" xlink:title="In this file, the header of the Optimizer class is defined.">
<polygon fill="white" stroke="black" points="606,-168.5 606,-187.5 688,-187.5 688,-168.5 606,-168.5"/>
<text text-anchor="middle" x="647" y="-175.5" font-family="Helvetica,sans-Serif" font-size="10.00">../Optimizer.h</text>
</a>
</g>
</g>
<!-- Node2&#45;&gt;Node3 -->
<g id="edge2" class="edge">
<title>Node2&#45;&gt;Node3</title>
<path fill="none" stroke="midnightblue" d="M617.01,-229.98C622.16,-221.23 630.31,-207.37 636.82,-196.31"/>
<polygon fill="midnightblue" stroke="midnightblue" points="639.94,-197.9 641.99,-187.51 633.91,-194.35 639.94,-197.9"/>
</g>
<!-- Node2&#45;&gt;Node7 -->
<g id="edge25" class="edge">
<title>Node2&#45;&gt;Node7</title>
<path fill="none" stroke="midnightblue" d="M607.79,-229.67C600.19,-214.68 582.72,-184.31 559,-168 511.01,-135.01 485.75,-156.68 433,-132 369.58,-102.32 303.64,-51.26 272.84,-26.02"/>
<polygon fill="midnightblue" stroke="midnightblue" points="275.05,-23.31 265.12,-19.63 270.59,-28.7 275.05,-23.31"/>
</g>
<!-- Node13 -->
<g id="node13" class="node">
<title>Node13</title>
<g id="a_node13"><a xlink:href="StoppingCondition_8h.xhtml" target="_top" xlink:title="In this file, the header of the StoppingCondition class is defined.">
<polygon fill="white" stroke="black" points="1110,-168.5 1110,-187.5 1234,-187.5 1234,-168.5 1110,-168.5"/>
<text text-anchor="middle" x="1172" y="-175.5" font-family="Helvetica,sans-Serif" font-size="10.00">../StoppingCondition.h</text>
</a>
</g>
</g>
<!-- Node2&#45;&gt;Node13 -->
<g id="edge17" class="edge">
<title>Node2&#45;&gt;Node13</title>
<path fill="none" stroke="midnightblue" d="M637.98,-229.93C645.64,-227.68 654.09,-225.48 662,-224 816.21,-195.12 1000.21,-184.67 1099.62,-180.97"/>
<polygon fill="midnightblue" stroke="midnightblue" points="1099.98,-184.46 1109.85,-180.6 1099.73,-177.46 1099.98,-184.46"/>
</g>
<!-- Node14 -->
<g id="node14" class="node">
<title>Node14</title>
<g id="a_node14"><a xlink:title=" ">
<polygon fill="white" stroke="#bfbfbf" points="1034,-112.5 1034,-131.5 1144,-131.5 1144,-112.5 1034,-112.5"/>
<text text-anchor="middle" x="1089" y="-119.5" font-family="Helvetica,sans-Serif" font-size="10.00">nlohmann/json.hpp</text>
</a>
</g>
</g>
<!-- Node2&#45;&gt;Node14 -->
<g id="edge22" class="edge">
<title>Node2&#45;&gt;Node14</title>
<path fill="none" stroke="midnightblue" d="M640.49,-229.97C647.5,-227.95 655.01,-225.84 662,-224 798.07,-188.2 960.08,-151.48 1039.76,-133.81"/>
<polygon fill="midnightblue" stroke="midnightblue" points="1040.97,-137.12 1049.98,-131.54 1039.46,-130.29 1040.97,-137.12"/>
</g>
<!-- Node17 -->
<g id="node17" class="node">
<title>Node17</title>
<g id="a_node17"><a xlink:title=" ">
<polygon fill="white" stroke="#bfbfbf" points="518,-168.5 518,-187.5 550,-187.5 550,-168.5 518,-168.5"/>
<text text-anchor="middle" x="534" y="-175.5" font-family="Helvetica,sans-Serif" font-size="10.00">set</text>
</a>
</g>
</g>
<!-- Node2&#45;&gt;Node17 -->
<g id="edge23" class="edge">
<title>Node2&#45;&gt;Node17</title>
<path fill="none" stroke="midnightblue" d="M600.82,-229.98C588.43,-220.52 568.21,-205.1 553.25,-193.69"/>
<polygon fill="midnightblue" stroke="midnightblue" points="555.23,-190.79 545.15,-187.51 550.98,-196.36 555.23,-190.79"/>
</g>
<!-- Node18 -->
<g id="node18" class="node">
<title>Node18</title>
<g id="a_node18"><a xlink:title=" ">
<polygon fill="white" stroke="#bfbfbf" points="706,-168.5 706,-187.5 792,-187.5 792,-168.5 706,-168.5"/>
<text text-anchor="middle" x="749" y="-175.5" font-family="Helvetica,sans-Serif" font-size="10.00">unordered_set</text>
</a>
</g>
</g>
<!-- Node2&#45;&gt;Node18 -->
<g id="edge24" class="edge">
<title>Node2&#45;&gt;Node18</title>
<path fill="none" stroke="midnightblue" d="M631.63,-229.98C654.82,-219.9 693.62,-203.05 720.21,-191.5"/>
<polygon fill="midnightblue" stroke="midnightblue" points="721.63,-194.7 729.41,-187.51 718.84,-188.28 721.63,-194.7"/>
</g>
<!-- Node4 -->
<g id="node4" class="node">
<title>Node4</title>
<g id="a_node4"><a xlink:href="Types_8h.xhtml" target="_top" xlink:title="In this file, types are defined which should be used across the whole framework.">
<polygon fill="white" stroke="black" points="506,-56.5 506,-75.5 568,-75.5 568,-56.5 506,-56.5"/>
<text text-anchor="middle" x="537" y="-63.5" font-family="Helvetica,sans-Serif" font-size="10.00">../Types.h</text>
</a>
</g>
</g>
<!-- Node3&#45;&gt;Node4 -->
<g id="edge3" class="edge">
<title>Node3&#45;&gt;Node4</title>
<path fill="none" stroke="midnightblue" d="M638.37,-168.37C619.89,-149.89 576.29,-106.29 552.74,-82.74"/>
<polygon fill="midnightblue" stroke="midnightblue" points="555.14,-80.19 545.59,-75.59 550.19,-85.14 555.14,-80.19"/>
</g>
<!-- Node6 -->
<g id="node6" class="node">
<title>Node6</title>
<g id="a_node6"><a xlink:title=" ">
<polygon fill="white" stroke="#bfbfbf" points="437.5,-0.5 437.5,-19.5 484.5,-19.5 484.5,-0.5 437.5,-0.5"/>
<text text-anchor="middle" x="461" y="-7.5" font-family="Helvetica,sans-Serif" font-size="10.00">vector</text>
</a>
</g>
</g>
<!-- Node3&#45;&gt;Node6 -->
<g id="edge14" class="edge">
<title>Node3&#45;&gt;Node6</title>
<path fill="none" stroke="midnightblue" d="M679.72,-168.5C713.15,-158.14 757.68,-138.67 739,-112 710.12,-70.78 562.49,-33.47 494.88,-18.25"/>
<polygon fill="midnightblue" stroke="midnightblue" points="495.27,-14.75 484.75,-16 493.75,-21.58 495.27,-14.75"/>
</g>
<!-- Node3&#45;&gt;Node7 -->
<g id="edge16" class="edge">
<title>Node3&#45;&gt;Node7</title>
<path fill="none" stroke="midnightblue" d="M634.49,-168.33C614.84,-154.98 575.2,-129.12 539,-112 454.6,-72.09 349.92,-38.76 294.2,-22.21"/>
<polygon fill="midnightblue" stroke="midnightblue" points="294.97,-18.79 284.39,-19.32 292.99,-25.51 294.97,-18.79"/>
</g>
<!-- Node8 -->
<g id="node8" class="node">
<title>Node8</title>
<g id="a_node8"><a xlink:href="ParameterDefinition_8h.xhtml" target="_top" xlink:title="In this file, the header of the ParameterDefinition class is defined.">
<polygon fill="white" stroke="black" points="786.5,-112.5 786.5,-131.5 977.5,-131.5 977.5,-112.5 786.5,-112.5"/>
<text text-anchor="middle" x="882" y="-119.5" font-family="Helvetica,sans-Serif" font-size="10.00">../parameters/ParameterDefinition.h</text>
</a>
</g>
</g>
<!-- Node3&#45;&gt;Node8 -->
<g id="edge7" class="edge">
<title>Node3&#45;&gt;Node8</title>
<path fill="none" stroke="midnightblue" d="M684.24,-168.44C725.06,-159.06 790.64,-143.99 834.98,-133.8"/>
<polygon fill="midnightblue" stroke="midnightblue" points="835.98,-137.17 844.94,-131.52 834.41,-130.34 835.98,-137.17"/>
</g>
<!-- Node9 -->
<g id="node9" class="node">
<title>Node9</title>
<g id="a_node9"><a xlink:href="Status_8h.xhtml" target="_top" xlink:title="In this file, the header of the Status class is defined.">
<polygon fill="white" stroke="black" points="912,-56.5 912,-75.5 1010,-75.5 1010,-56.5 912,-56.5"/>
<text text-anchor="middle" x="961" y="-63.5" font-family="Helvetica,sans-Serif" font-size="10.00">../status/Status.h</text>
</a>
</g>
</g>
<!-- Node3&#45;&gt;Node9 -->
<g id="edge10" class="edge">
<title>Node3&#45;&gt;Node9</title>
<path fill="none" stroke="midnightblue" d="M688.17,-169.41C691.16,-168.91 694.12,-168.44 697,-168 760.98,-158.26 943.16,-180.51 986,-132 998.2,-118.19 987.02,-97.79 975.97,-83.54"/>
<polygon fill="midnightblue" stroke="midnightblue" points="978.41,-81.01 969.31,-75.58 973.04,-85.49 978.41,-81.01"/>
</g>
<!-- Node10 -->
<g id="node10" class="node">
<title>Node10</title>
<g id="a_node10"><a xlink:href="Abortable_8h.xhtml" target="_top" xlink:title="In this file, the header of the Abortable class is defined.">
<polygon fill="white" stroke="black" points="624,-112.5 624,-131.5 730,-131.5 730,-112.5 624,-112.5"/>
<text text-anchor="middle" x="677" y="-119.5" font-family="Helvetica,sans-Serif" font-size="10.00">../utils/Abortable.h</text>
</a>
</g>
</g>
<!-- Node3&#45;&gt;Node10 -->
<g id="edge12" class="edge">
<title>Node3&#45;&gt;Node10</title>
<path fill="none" stroke="midnightblue" d="M651.95,-168.08C656.1,-160.61 662.15,-149.72 667.27,-140.52"/>
<polygon fill="midnightblue" stroke="midnightblue" points="670.34,-142.19 672.14,-131.75 664.22,-138.79 670.34,-142.19"/>
</g>
<!-- Node11 -->
<g id="node11" class="node">
<title>Node11</title>
<g id="a_node11"><a xlink:title=" ">
<polygon fill="white" stroke="#bfbfbf" points="498,-112.5 498,-131.5 530,-131.5 530,-112.5 498,-112.5"/>
<text text-anchor="middle" x="514" y="-119.5" font-family="Helvetica,sans-Serif" font-size="10.00">list</text>
</a>
</g>
</g>
<!-- Node3&#45;&gt;Node11 -->
<g id="edge13" class="edge">
<title>Node3&#45;&gt;Node11</title>
<path fill="none" stroke="midnightblue" d="M625.93,-168.44C602.62,-158.98 565.06,-143.73 539.96,-133.54"/>
<polygon fill="midnightblue" stroke="midnightblue" points="540.95,-130.16 530.36,-129.64 538.31,-136.65 540.95,-130.16"/>
</g>
<!-- Node12 -->
<g id="node12" class="node">
<title>Node12</title>
<g id="a_node12"><a xlink:title=" ">
<polygon fill="white" stroke="#bfbfbf" points="442,-112.5 442,-131.5 480,-131.5 480,-112.5 442,-112.5"/>
<text text-anchor="middle" x="461" y="-119.5" font-family="Helvetica,sans-Serif" font-size="10.00">map</text>
</a>
</g>
</g>
<!-- Node3&#45;&gt;Node12 -->
<g id="edge15" class="edge">
<title>Node3&#45;&gt;Node12</title>
<path fill="none" stroke="midnightblue" d="M615.73,-168.43C585.79,-160.15 539.11,-147.04 490.08,-132.26"/>
<polygon fill="midnightblue" stroke="midnightblue" points="490.84,-128.83 480.25,-129.28 488.81,-135.53 490.84,-128.83"/>
</g>
<!-- Node5 -->
<g id="node5" class="node">
<title>Node5</title>
<g id="a_node5"><a xlink:title=" ">
<polygon fill="white" stroke="#bfbfbf" points="532,-0.5 532,-19.5 576,-19.5 576,-0.5 532,-0.5"/>
<text text-anchor="middle" x="554" y="-7.5" font-family="Helvetica,sans-Serif" font-size="10.00">string</text>
</a>
</g>
</g>
<!-- Node4&#45;&gt;Node5 -->
<g id="edge4" class="edge">
<title>Node4&#45;&gt;Node5</title>
<path fill="none" stroke="midnightblue" d="M539.81,-56.08C542.08,-48.85 545.37,-38.41 548.21,-29.4"/>
<polygon fill="midnightblue" stroke="midnightblue" points="551.58,-30.34 551.25,-19.75 544.9,-28.24 551.58,-30.34"/>
</g>
<!-- Node4&#45;&gt;Node6 -->
<g id="edge5" class="edge">
<title>Node4&#45;&gt;Node6</title>
<path fill="none" stroke="midnightblue" d="M524.79,-56.32C513.22,-48.11 495.62,-35.6 481.84,-25.81"/>
<polygon fill="midnightblue" stroke="midnightblue" points="483.61,-22.77 473.43,-19.83 479.56,-28.48 483.61,-22.77"/>
</g>
<!-- Node4&#45;&gt;Node7 -->
<g id="edge6" class="edge">
<title>Node4&#45;&gt;Node7</title>
<path fill="none" stroke="midnightblue" d="M505.74,-59.01C454.04,-49.11 350.81,-29.35 294.26,-18.52"/>
<polygon fill="midnightblue" stroke="midnightblue" points="294.75,-15.05 284.27,-16.61 293.43,-21.92 294.75,-15.05"/>
</g>
<!-- Node8&#45;&gt;Node4 -->
<g id="edge8" class="edge">
<title>Node8&#45;&gt;Node4</title>
<path fill="none" stroke="midnightblue" d="M827.33,-112.44C758.18,-101.62 640.64,-83.22 578.44,-73.49"/>
<polygon fill="midnightblue" stroke="midnightblue" points="578.65,-69.98 568.23,-71.89 577.56,-76.89 578.65,-69.98"/>
</g>
<!-- Node8&#45;&gt;Node5 -->
<g id="edge9" class="edge">
<title>Node8&#45;&gt;Node5</title>
<path fill="none" stroke="midnightblue" d="M870.46,-112.41C851.12,-98.44 810.49,-70.87 772,-56 708.56,-31.49 629.32,-19.41 585.98,-14.26"/>
<polygon fill="midnightblue" stroke="midnightblue" points="586.36,-10.78 576.02,-13.12 585.56,-17.73 586.36,-10.78"/>
</g>
<!-- Node9&#45;&gt;Node5 -->
<g id="edge11" class="edge">
<title>Node9&#45;&gt;Node5</title>
<path fill="none" stroke="midnightblue" d="M911.91,-58.49C827.64,-47.31 657.7,-24.76 586.52,-15.32"/>
<polygon fill="midnightblue" stroke="midnightblue" points="586.74,-11.81 576.37,-13.97 585.82,-18.75 586.74,-11.81"/>
</g>
<!-- Node13&#45;&gt;Node4 -->
<g id="edge18" class="edge">
<title>Node13&#45;&gt;Node4</title>
<path fill="none" stroke="midnightblue" d="M1172.33,-168.16C1172.33,-153.83 1170.01,-125.74 1153,-112 1108.44,-75.99 708.98,-68.74 578.22,-67.33"/>
<polygon fill="midnightblue" stroke="midnightblue" points="578.24,-63.83 568.21,-67.23 578.17,-70.83 578.24,-63.83"/>
</g>
<!-- Node13&#45;&gt;Node14 -->
<g id="edge19" class="edge">
<title>Node13&#45;&gt;Node14</title>
<path fill="none" stroke="midnightblue" d="M1158.66,-168.32C1145.84,-159.98 1126.22,-147.21 1111.06,-137.35"/>
<polygon fill="midnightblue" stroke="midnightblue" points="1112.59,-134.17 1102.3,-131.65 1108.78,-140.04 1112.59,-134.17"/>
</g>
<!-- Node15 -->
<g id="node15" class="node">
<title>Node15</title>
<g id="a_node15"><a xlink:title=" ">
<polygon fill="white" stroke="#bfbfbf" points="1200,-112.5 1200,-131.5 1250,-131.5 1250,-112.5 1200,-112.5"/>
<text text-anchor="middle" x="1225" y="-119.5" font-family="Helvetica,sans-Serif" font-size="10.00">chrono</text>
</a>
</g>
</g>
<!-- Node13&#45;&gt;Node15 -->
<g id="edge20" class="edge">
<title>Node13&#45;&gt;Node15</title>
<path fill="none" stroke="midnightblue" d="M1180.75,-168.08C1188.47,-160.22 1199.9,-148.57 1209.22,-139.08"/>
<polygon fill="midnightblue" stroke="midnightblue" points="1211.9,-141.34 1216.41,-131.75 1206.91,-136.44 1211.9,-141.34"/>
</g>
<!-- Node16 -->
<g id="node16" class="node">
<title>Node16</title>
<g id="a_node16"><a xlink:title=" ">
<polygon fill="white" stroke="#bfbfbf" points="1268.5,-112.5 1268.5,-131.5 1315.5,-131.5 1315.5,-112.5 1268.5,-112.5"/>
<text text-anchor="middle" x="1292" y="-119.5" font-family="Helvetica,sans-Serif" font-size="10.00">cmath</text>
</a>
</g>
</g>
<!-- Node13&#45;&gt;Node16 -->
<g id="edge21" class="edge">
<title>Node13&#45;&gt;Node16</title>
<path fill="none" stroke="midnightblue" d="M1191.01,-168.44C1210.59,-159.64 1241.31,-145.81 1263.73,-135.72"/>
<polygon fill="midnightblue" stroke="midnightblue" points="1265.39,-138.81 1273.07,-131.52 1262.52,-132.43 1265.39,-138.81"/>
</g>
<!-- Node19&#45;&gt;Node4 -->
<g id="edge27" class="edge">
<title>Node19&#45;&gt;Node4</title>
<path fill="none" stroke="midnightblue" d="M378.99,-229.8C387.91,-204.21 414.9,-129.83 433,-112 450.3,-94.96 475.1,-83.89 496.14,-76.99"/>
<polygon fill="midnightblue" stroke="midnightblue" points="497.28,-80.3 505.81,-74.02 495.23,-73.61 497.28,-80.3"/>
</g>
<!-- Node19&#45;&gt;Node6 -->
<g id="edge36" class="edge">
<title>Node19&#45;&gt;Node6</title>
<path fill="none" stroke="midnightblue" d="M377.47,-229.68C379.83,-216.19 384.94,-189.73 392,-168 408.96,-115.79 437.27,-57.36 451.8,-28.74"/>
<polygon fill="midnightblue" stroke="midnightblue" points="455.03,-30.11 456.48,-19.61 448.8,-26.91 455.03,-30.11"/>
</g>
<!-- Node19&#45;&gt;Node7 -->
<g id="edge38" class="edge">
<title>Node19&#45;&gt;Node7</title>
<path fill="none" stroke="midnightblue" d="M305.35,-230.53C226.59,-220.93 108.43,-204.06 95,-188 42.14,-124.79 168.04,-52.94 226.81,-24.04"/>
<polygon fill="midnightblue" stroke="midnightblue" points="228.47,-27.13 235.95,-19.63 225.43,-20.82 228.47,-27.13"/>
</g>
<!-- Node19&#45;&gt;Node11 -->
<g id="edge37" class="edge">
<title>Node19&#45;&gt;Node11</title>
<path fill="none" stroke="midnightblue" d="M389.76,-229.83C404.62,-220.25 428.76,-204.03 448,-188 466.42,-172.65 485.76,-153.14 498.71,-139.52"/>
<polygon fill="midnightblue" stroke="midnightblue" points="501.59,-141.57 505.88,-131.89 496.49,-136.78 501.59,-141.57"/>
</g>
<!-- Node19&#45;&gt;Node12 -->
<g id="edge35" class="edge">
<title>Node19&#45;&gt;Node12</title>
<path fill="none" stroke="midnightblue" d="M386.99,-229.71C398.3,-220.28 415.91,-204.41 428,-188 438.78,-173.37 447.85,-154.7 453.74,-141.12"/>
<polygon fill="midnightblue" stroke="midnightblue" points="457.13,-142.08 457.75,-131.51 450.67,-139.39 457.13,-142.08"/>
</g>
<!-- Node19&#45;&gt;Node17 -->
<g id="edge39" class="edge">
<title>Node19&#45;&gt;Node17</title>
<path fill="none" stroke="midnightblue" d="M398.64,-229.98C427.62,-219.06 477.71,-200.2 508.15,-188.73"/>
<polygon fill="midnightblue" stroke="midnightblue" points="509.54,-191.95 517.67,-185.15 507.07,-185.4 509.54,-191.95"/>
</g>
<!-- Node20 -->
<g id="node20" class="node">
<title>Node20</title>
<g id="a_node20"><a xlink:href="ComparisonFunctions_8h.xhtml" target="_top" xlink:title="In this file, comparison functions are defined which should be used across the whole framework.">
<polygon fill="white" stroke="black" points="208,-168.5 208,-187.5 348,-187.5 348,-168.5 208,-168.5"/>
<text text-anchor="middle" x="278" y="-175.5" font-family="Helvetica,sans-Serif" font-size="10.00">../ComparisonFunctions.h</text>
</a>
</g>
</g>
<!-- Node19&#45;&gt;Node20 -->
<g id="edge28" class="edge">
<title>Node19&#45;&gt;Node20</title>
<path fill="none" stroke="midnightblue" d="M361.96,-229.98C345.95,-220.25 319.55,-204.23 300.63,-192.74"/>
<polygon fill="midnightblue" stroke="midnightblue" points="302.38,-189.71 292.01,-187.51 298.75,-195.69 302.38,-189.71"/>
</g>
<!-- Node21 -->
<g id="node21" class="node">
<title>Node21</title>
<g id="a_node21"><a xlink:href="Parameter_8h.xhtml" target="_top" xlink:title="In this file, the header of the Parameter class is defined.">
<polygon fill="white" stroke="black" points="138,-112.5 138,-131.5 272,-131.5 272,-112.5 138,-112.5"/>
<text text-anchor="middle" x="205" y="-119.5" font-family="Helvetica,sans-Serif" font-size="10.00">parameters/Parameter.h</text>
</a>
</g>
</g>
<!-- Node19&#45;&gt;Node21 -->
<g id="edge34" class="edge">
<title>Node19&#45;&gt;Node21</title>
<path fill="none" stroke="midnightblue" d="M319.8,-229.95C273.68,-221.65 213.68,-207.45 199,-188 188.99,-174.74 192.42,-155.34 197.17,-141.19"/>
<polygon fill="midnightblue" stroke="midnightblue" points="200.54,-142.17 200.86,-131.58 194.01,-139.66 200.54,-142.17"/>
</g>
<!-- Node22 -->
<g id="node22" class="node">
<title>Node22</title>
<g id="a_node22"><a xlink:title=" ">
<polygon fill="white" stroke="#bfbfbf" points="104,-168.5 104,-187.5 152,-187.5 152,-168.5 104,-168.5"/>
<text text-anchor="middle" x="128" y="-175.5" font-family="Helvetica,sans-Serif" font-size="10.00">mutex</text>
</a>
</g>
</g>
<!-- Node19&#45;&gt;Node22 -->
<g id="edge40" class="edge">
<title>Node19&#45;&gt;Node22</title>
<path fill="none" stroke="midnightblue" d="M340.47,-229.98C292.9,-218.56 209.1,-198.46 162.21,-187.21"/>
<polygon fill="midnightblue" stroke="midnightblue" points="162.78,-183.75 152.24,-184.82 161.15,-190.55 162.78,-183.75"/>
</g>
<!-- Node20&#45;&gt;Node6 -->
<g id="edge33" class="edge">
<title>Node20&#45;&gt;Node6</title>
<path fill="none" stroke="midnightblue" d="M287.58,-168.31C316.98,-141.64 406.19,-60.72 443.89,-26.52"/>
<polygon fill="midnightblue" stroke="midnightblue" points="446.46,-28.92 451.51,-19.61 441.76,-23.73 446.46,-28.92"/>
</g>
<!-- Node20&#45;&gt;Node21 -->
<g id="edge29" class="edge">
<title>Node20&#45;&gt;Node21</title>
<path fill="none" stroke="midnightblue" d="M266.27,-168.32C255.16,-160.11 238.26,-147.6 225.02,-137.81"/>
<polygon fill="midnightblue" stroke="midnightblue" points="227.06,-134.97 216.94,-131.83 222.9,-140.59 227.06,-134.97"/>
</g>
<!-- Node21&#45;&gt;Node4 -->
<g id="edge30" class="edge">
<title>Node21&#45;&gt;Node4</title>
<path fill="none" stroke="midnightblue" d="M257.61,-112.44C323.63,-101.7 435.5,-83.51 495.71,-73.72"/>
<polygon fill="midnightblue" stroke="midnightblue" points="496.31,-77.16 505.62,-72.1 495.19,-70.26 496.31,-77.16"/>
</g>
<!-- Node21&#45;&gt;Node5 -->
<g id="edge31" class="edge">
<title>Node21&#45;&gt;Node5</title>
<path fill="none" stroke="midnightblue" d="M232.1,-112.46C295.62,-92.44 453.91,-42.55 522.01,-21.08"/>
<polygon fill="midnightblue" stroke="midnightblue" points="523.28,-24.35 531.76,-18.01 521.17,-17.68 523.28,-24.35"/>
</g>
<!-- Node21&#45;&gt;Node7 -->
<g id="edge32" class="edge">
<title>Node21&#45;&gt;Node7</title>
<path fill="none" stroke="midnightblue" d="M208.92,-112.37C217.07,-94.46 235.94,-52.92 246.84,-28.95"/>
<polygon fill="midnightblue" stroke="midnightblue" points="250.14,-30.14 251.09,-19.59 243.77,-27.25 250.14,-30.14"/>
</g>
<!-- Node23&#45;&gt;Node21 -->
<g id="edge42" class="edge">
<title>Node23&#45;&gt;Node21</title>
<path fill="none" stroke="midnightblue" d="M129.52,-224.3C106.95,-210.67 80.83,-189.11 95,-168 105.92,-151.73 123.87,-141.34 142.14,-134.71"/>
<polygon fill="midnightblue" stroke="midnightblue" points="143.28,-138.02 151.68,-131.57 141.09,-131.37 143.28,-138.02"/>
</g>
</g>
</svg>
