<?xml version="1.0" encoding="UTF-8" standalone="no"?>
<!DOCTYPE svg PUBLIC "-//W3C//DTD SVG 1.1//EN"
 "http://www.w3.org/Graphics/SVG/1.1/DTD/svg11.dtd">
<!-- Generated by graphviz version 2.43.0 (0)
 -->
<!-- Title: /home/runner/work/Simopticon/Simopticon/src/utils/Multithreaded.tpp Pages: 1 -->
<svg width="214pt" height="95pt"
 viewBox="0.00 0.00 214.00 95.00" xmlns="http://www.w3.org/2000/svg" xmlns:xlink="http://www.w3.org/1999/xlink">
<g id="graph0" class="graph" transform="scale(1 1) rotate(0) translate(4 91)">
<title>/home/runner/work/Simopticon/Simopticon/src/utils/Multithreaded.tpp</title>
<polygon fill="white" stroke="transparent" points="-4,4 -4,-91 210,-91 210,4 -4,4"/>
<!-- Node1 -->
<g id="node1" class="node">
<title>Node1</title>
<g id="a_node1"><a xlink:title="In this file, the implementation of the Multithreaded class is defined.">
<polygon fill="#bfbfbf" stroke="black" points="0,-56.5 0,-86.5 206,-86.5 206,-56.5 0,-56.5"/>
<text text-anchor="start" x="8" y="-74.5" font-family="Helvetica,sans-Serif" font-size="10.00">/home/runner/work/Simopticon</text>
<text text-anchor="middle" x="103" y="-63.5" font-family="Helvetica,sans-Serif" font-size="10.00">/Simopticon/src/utils/Multithreaded.tpp</text>
</a>
</g>
</g>
<!-- Node2 -->
<g id="node2" class="node">
<title>Node2</title>
<g id="a_node2"><a xlink:title=" ">
<polygon fill="white" stroke="#bfbfbf" points="52,-0.5 52,-19.5 98,-19.5 98,-0.5 52,-0.5"/>
<text text-anchor="middle" x="75" y="-7.5" font-family="Helvetica,sans-Serif" font-size="10.00">future</text>
</a>
</g>
</g>
<!-- Node1&#45;&gt;Node2 -->
<g id="edge1" class="edge">
<title>Node1&#45;&gt;Node2</title>
<path fill="none" stroke="midnightblue" d="M96.36,-56.4C92.46,-48.11 87.5,-37.55 83.33,-28.71"/>
<polygon fill="midnightblue" stroke="midnightblue" points="86.5,-27.22 79.07,-19.66 80.17,-30.2 86.5,-27.22"/>
</g>
<!-- Node3 -->
<g id="node3" class="node">
<title>Node3</title>
<g id="a_node3"><a xlink:title=" ">
<polygon fill="white" stroke="#bfbfbf" points="116,-0.5 116,-19.5 148,-19.5 148,-0.5 116,-0.5"/>
<text text-anchor="middle" x="132" y="-7.5" font-family="Helvetica,sans-Serif" font-size="10.00">list</text>
</a>
</g>
</g>
<!-- Node1&#45;&gt;Node3 -->
<g id="edge2" class="edge">
<title>Node1&#45;&gt;Node3</title>
<path fill="none" stroke="midnightblue" d="M109.87,-56.4C113.91,-48.11 119.06,-37.55 123.37,-28.71"/>
<polygon fill="midnightblue" stroke="midnightblue" points="126.55,-30.18 127.78,-19.66 120.25,-27.11 126.55,-30.18"/>
</g>
</g>
</svg>
