<?xml version="1.0" encoding="UTF-8" standalone="no"?>
<!DOCTYPE svg PUBLIC "-//W3C//DTD SVG 1.1//EN"
 "http://www.w3.org/Graphics/SVG/1.1/DTD/svg11.dtd">
<!-- Generated by graphviz version 2.43.0 (0)
 -->
<!-- Title: src/utils/Multithreaded.h Pages: 1 -->
<!--zoomable 140 -->
<svg id="main" version="1.1" xmlns="http://www.w3.org/2000/svg" xmlns:xlink="http://www.w3.org/1999/xlink" xml:space="preserve" onload="init(evt)">
<style type="text/css"><![CDATA[
.edge:hover path { stroke: red; }
.edge:hover polygon { stroke: red; fill: red; }
]]></style>
<script type="text/javascript"><![CDATA[
var edges = document.getElementsByTagName('g');
if (edges && edges.length) {
  for (var i=0;i<edges.length;i++) {
    if (edges[i].id.substr(0,4)=='edge') {
      edges[i].setAttribute('class','edge');
    }
  }
}
]]></script>
        <defs>
                <circle id="rim" cx="0" cy="0" r="7"/>
                <circle id="rim2" cx="0" cy="0" r="3.5"/>
                <g id="zoomPlus">
                        <use xlink:href="#rim" fill="#404040">
                                <set attributeName="fill" to="#808080" begin="zoomplus.mouseover" end="zoomplus.mouseout"/>
                        </use>
                        <path d="M-4,0h8M0,-4v8" fill="none" stroke="white" stroke-width="1.5" pointer-events="none"/>
                </g>
                <g id="zoomMin">
                        <use xlink:href="#rim" fill="#404040">
                                <set attributeName="fill" to="#808080" begin="zoomminus.mouseover" end="zoomminus.mouseout"/>
                        </use>
                        <path d="M-4,0h8" fill="none" stroke="white" stroke-width="1.5" pointer-events="none"/>
                </g>
                <g id="dirArrow">
                        <path fill="none" stroke="white" stroke-width="1.5" d="M0,-3.0v7 M-2.5,-0.5L0,-3.0L2.5,-0.5"/>
                </g>
               <g id="resetDef">
                       <use xlink:href="#rim2" fill="#404040">
                               <set attributeName="fill" to="#808080" begin="reset.mouseover" end="reset.mouseout"/>
                       </use>
               </g>
        </defs>

<script type="text/javascript">
var viewWidth = 536;
var viewHeight = 140;
var sectionId = 'dynsection-0';
</script>
<script xlink:href="svgpan.js"/>
<svg id="graph" class="graph">
<g id="viewport">
<title>src/utils/Multithreaded.h</title>
<polygon fill="white" stroke="transparent" points="-4,4 -4,-136 532,-136 532,4 -4,4"/>
<!-- Node1 -->
<g id="node1" class="node">
<title>Node1</title>
<g id="a_node1"><a xlink:title="In this file, the header of the Multithreaded class is defined.">
<polygon fill="#bfbfbf" stroke="black" points="217.5,-112.5 217.5,-131.5 352.5,-131.5 352.5,-112.5 217.5,-112.5"/>
<text text-anchor="middle" x="285" y="-119.5" font-family="Helvetica,sans-Serif" font-size="10.00">src/utils/Multithreaded.h</text>
</a>
</g>
</g>
<!-- Node2 -->
<g id="node2" class="node">
<title>Node2</title>
<g id="a_node2"><a xlink:title=" ">
<polygon fill="white" stroke="#bfbfbf" points="0,-0.5 0,-19.5 48,-19.5 48,-0.5 0,-0.5"/>
<text text-anchor="middle" x="24" y="-7.5" font-family="Helvetica,sans-Serif" font-size="10.00">mutex</text>
</a>
</g>
</g>
<!-- Node1&#45;&gt;Node2 -->
<g id="edge1" class="edge">
<title>Node1&#45;&gt;Node2</title>
<path fill="none" stroke="midnightblue" d="M217.34,-114.23C159.5,-107.27 81.81,-94.78 57,-76 41.9,-64.57 33.17,-44.28 28.53,-29.41"/>
<polygon fill="midnightblue" stroke="midnightblue" points="31.89,-28.43 25.84,-19.74 25.15,-30.31 31.89,-28.43"/>
</g>
<!-- Node3 -->
<g id="node3" class="node">
<title>Node3</title>
<g id="a_node3"><a xlink:title=" ">
<polygon fill="white" stroke="#bfbfbf" points="300.5,-0.5 300.5,-19.5 347.5,-19.5 347.5,-0.5 300.5,-0.5"/>
<text text-anchor="middle" x="324" y="-7.5" font-family="Helvetica,sans-Serif" font-size="10.00">queue</text>
</a>
</g>
</g>
<!-- Node1&#45;&gt;Node3 -->
<g id="edge2" class="edge">
<title>Node1&#45;&gt;Node3</title>
<path fill="none" stroke="midnightblue" d="M323.85,-112.36C343.38,-105.85 365.33,-94.7 377,-76 388.78,-57.13 367.62,-37.63 348.64,-24.97"/>
<polygon fill="midnightblue" stroke="midnightblue" points="350.26,-21.85 339.92,-19.5 346.53,-27.78 350.26,-21.85"/>
</g>
<!-- Node4 -->
<g id="node4" class="node">
<title>Node4</title>
<g id="a_node4"><a xlink:title=" ">
<polygon fill="white" stroke="#bfbfbf" points="196,-56.5 196,-75.5 234,-75.5 234,-56.5 196,-56.5"/>
<text text-anchor="middle" x="215" y="-63.5" font-family="Helvetica,sans-Serif" font-size="10.00">map</text>
</a>
</g>
</g>
<!-- Node1&#45;&gt;Node4 -->
<g id="edge3" class="edge">
<title>Node1&#45;&gt;Node4</title>
<path fill="none" stroke="midnightblue" d="M273.75,-112.32C263.2,-104.18 247.2,-91.84 234.56,-82.09"/>
<polygon fill="midnightblue" stroke="midnightblue" points="236.51,-79.17 226.45,-75.83 232.23,-84.71 236.51,-79.17"/>
</g>
<!-- Node5 -->
<g id="node5" class="node">
<title>Node5</title>
<g id="a_node5"><a xlink:title=" ">
<polygon fill="white" stroke="#bfbfbf" points="252.5,-56.5 252.5,-75.5 317.5,-75.5 317.5,-56.5 252.5,-56.5"/>
<text text-anchor="middle" x="285" y="-63.5" font-family="Helvetica,sans-Serif" font-size="10.00">functional</text>
</a>
</g>
</g>
<!-- Node1&#45;&gt;Node5 -->
<g id="edge4" class="edge">
<title>Node1&#45;&gt;Node5</title>
<path fill="none" stroke="midnightblue" d="M285,-112.08C285,-105.01 285,-94.86 285,-85.99"/>
<polygon fill="midnightblue" stroke="midnightblue" points="288.5,-85.75 285,-75.75 281.5,-85.75 288.5,-85.75"/>
</g>
<!-- Node6 -->
<g id="node6" class="node">
<title>Node6</title>
<g id="a_node6"><a xlink:title=" ">
<polygon fill="white" stroke="#bfbfbf" points="336,-56.5 336,-75.5 368,-75.5 368,-56.5 336,-56.5"/>
<text text-anchor="middle" x="352" y="-63.5" font-family="Helvetica,sans-Serif" font-size="10.00">set</text>
</a>
</g>
</g>
<!-- Node1&#45;&gt;Node6 -->
<g id="edge5" class="edge">
<title>Node1&#45;&gt;Node6</title>
<path fill="none" stroke="midnightblue" d="M295.76,-112.32C305.77,-104.26 320.89,-92.08 332.93,-82.37"/>
<polygon fill="midnightblue" stroke="midnightblue" points="335.45,-84.83 341.04,-75.83 331.06,-79.38 335.45,-84.83"/>
</g>
<!-- Node7 -->
<g id="node7" class="node">
<title>Node7</title>
<g id="a_node7"><a xlink:href="ThreadsafeQueue_8h.xhtml" target="_top" xlink:title="In this file, the header of the ThreadSafeQueue class is defined.">
<polygon fill="white" stroke="black" points="66,-56.5 66,-75.5 178,-75.5 178,-56.5 66,-56.5"/>
<text text-anchor="middle" x="122" y="-63.5" font-family="Helvetica,sans-Serif" font-size="10.00">ThreadsafeQueue.h</text>
</a>
</g>
</g>
<!-- Node1&#45;&gt;Node7 -->
<g id="edge6" class="edge">
<title>Node1&#45;&gt;Node7</title>
<path fill="none" stroke="midnightblue" d="M259.17,-112.44C231.75,-103.36 188.22,-88.94 157.57,-78.78"/>
<polygon fill="midnightblue" stroke="midnightblue" points="158.3,-75.34 147.71,-75.52 156.1,-81.98 158.3,-75.34"/>
</g>
<!-- Node9 -->
<g id="node9" class="node">
<title>Node9</title>
<g id="a_node9"><a xlink:href="Multithreaded_8tpp.xhtml" target="_top" xlink:title="In this file, the implementation of the Multithreaded class is defined.">
<polygon fill="white" stroke="black" points="424,-56.5 424,-75.5 528,-75.5 528,-56.5 424,-56.5"/>
<text text-anchor="middle" x="476" y="-63.5" font-family="Helvetica,sans-Serif" font-size="10.00">Multithreaded.tpp</text>
</a>
</g>
</g>
<!-- Node1&#45;&gt;Node9 -->
<g id="edge11" class="edge">
<title>Node1&#45;&gt;Node9</title>
<path fill="none" stroke="midnightblue" d="M315.26,-112.44C347.96,-103.2 400.18,-88.44 436.18,-78.26"/>
<polygon fill="midnightblue" stroke="midnightblue" points="437.21,-81.61 445.88,-75.52 435.3,-74.87 437.21,-81.61"/>
</g>
<!-- Node7&#45;&gt;Node2 -->
<g id="edge8" class="edge">
<title>Node7&#45;&gt;Node2</title>
<path fill="none" stroke="midnightblue" d="M106.25,-56.32C90.68,-47.74 66.62,-34.49 48.54,-24.52"/>
<polygon fill="midnightblue" stroke="midnightblue" points="50.15,-21.42 39.71,-19.65 46.78,-27.55 50.15,-21.42"/>
</g>
<!-- Node7&#45;&gt;Node3 -->
<g id="edge7" class="edge">
<title>Node7&#45;&gt;Node3</title>
<path fill="none" stroke="midnightblue" d="M154.01,-56.44C191.22,-46.49 252.38,-30.15 290.31,-20.01"/>
<polygon fill="midnightblue" stroke="midnightblue" points="291.59,-23.29 300.35,-17.32 289.78,-16.52 291.59,-23.29"/>
</g>
<!-- Node8 -->
<g id="node8" class="node">
<title>Node8</title>
<g id="a_node8"><a xlink:href="ThreadsafeQueue_8tpp.xhtml" target="_top" xlink:title="In this file, the implementation of the ThreadSafeQueue class is defined.">
<polygon fill="white" stroke="black" points="66,-0.5 66,-19.5 188,-19.5 188,-0.5 66,-0.5"/>
<text text-anchor="middle" x="127" y="-7.5" font-family="Helvetica,sans-Serif" font-size="10.00">ThreadsafeQueue.tpp</text>
</a>
</g>
</g>
<!-- Node7&#45;&gt;Node8 -->
<g id="edge9" class="edge">
<title>Node7&#45;&gt;Node8</title>
<path fill="none" stroke="midnightblue" d="M117.66,-56.08C116.81,-48.93 117.33,-38.64 118.81,-29.69"/>
<polygon fill="midnightblue" stroke="midnightblue" points="122.27,-30.28 121.06,-19.75 115.44,-28.73 122.27,-30.28"/>
</g>
<!-- Node8&#45;&gt;Node7 -->
<g id="edge10" class="edge">
<title>Node8&#45;&gt;Node7</title>
<path fill="none" stroke="midnightblue" d="M131.32,-19.75C132.19,-26.86 131.68,-37.14 130.22,-46.1"/>
<polygon fill="midnightblue" stroke="midnightblue" points="126.76,-45.56 127.99,-56.08 133.59,-47.09 126.76,-45.56"/>
</g>
<!-- Node10 -->
<g id="node10" class="node">
<title>Node10</title>
<g id="a_node10"><a xlink:title=" ">
<polygon fill="white" stroke="#bfbfbf" points="481,-0.5 481,-19.5 527,-19.5 527,-0.5 481,-0.5"/>
<text text-anchor="middle" x="504" y="-7.5" font-family="Helvetica,sans-Serif" font-size="10.00">future</text>
</a>
</g>
</g>
<!-- Node9&#45;&gt;Node10 -->
<g id="edge12" class="edge">
<title>Node9&#45;&gt;Node10</title>
<path fill="none" stroke="midnightblue" d="M480.62,-56.08C484.46,-48.69 490.02,-37.95 494.76,-28.81"/>
<polygon fill="midnightblue" stroke="midnightblue" points="497.97,-30.24 499.46,-19.75 491.75,-27.02 497.97,-30.24"/>
</g>
<!-- Node11 -->
<g id="node11" class="node">
<title>Node11</title>
<g id="a_node11"><a xlink:title=" ">
<polygon fill="white" stroke="#bfbfbf" points="431,-0.5 431,-19.5 463,-19.5 463,-0.5 431,-0.5"/>
<text text-anchor="middle" x="447" y="-7.5" font-family="Helvetica,sans-Serif" font-size="10.00">list</text>
</a>
</g>
</g>
<!-- Node9&#45;&gt;Node11 -->
<g id="edge13" class="edge">
<title>Node9&#45;&gt;Node11</title>
<path fill="none" stroke="midnightblue" d="M471.21,-56.08C467.24,-48.69 461.47,-37.95 456.57,-28.81"/>
<polygon fill="midnightblue" stroke="midnightblue" points="459.51,-26.91 451.7,-19.75 453.35,-30.22 459.51,-26.91"/>
</g>
</g>
</svg>
        <g id="navigator" transform="translate(0 0)" fill="#404254">
                <rect fill="#f2f5e9" fill-opacity="0.5" stroke="#606060" stroke-width=".5" x="0" y="0" width="60" height="60"/>
                <use id="zoomplus" xlink:href="#zoomPlus" x="17" y="9" onmousedown="handleZoom(evt,'in')"/>
                <use id="zoomminus" xlink:href="#zoomMin" x="42" y="9" onmousedown="handleZoom(evt,'out')"/>
                <use id="reset" xlink:href="#resetDef" x="30" y="36" onmousedown="handleReset()"/>
                <g id="arrowUp" xlink:href="#dirArrow" transform="translate(30 24)" onmousedown="handlePan(0,-1)">
                  <use xlink:href="#rim" fill="#404040">
                        <set attributeName="fill" to="#808080" begin="arrowUp.mouseover" end="arrowUp.mouseout"/>
                  </use>
                  <path fill="none" stroke="white" stroke-width="1.5" d="M0,-3.0v7 M-2.5,-0.5L0,-3.0L2.5,-0.5"/>
                </g>
                <g id="arrowRight" xlink:href="#dirArrow" transform="rotate(90) translate(36 -43)" onmousedown="handlePan(1,0)">
                  <use xlink:href="#rim" fill="#404040">
                        <set attributeName="fill" to="#808080" begin="arrowRight.mouseover" end="arrowRight.mouseout"/>
                  </use>
                  <path fill="none" stroke="white" stroke-width="1.5" d="M0,-3.0v7 M-2.5,-0.5L0,-3.0L2.5,-0.5"/>
                </g>
                <g id="arrowDown" xlink:href="#dirArrow" transform="rotate(180) translate(-30 -48)" onmousedown="handlePan(0,1)">
                  <use xlink:href="#rim" fill="#404040">
                        <set attributeName="fill" to="#808080" begin="arrowDown.mouseover" end="arrowDown.mouseout"/>
                  </use>
                  <path fill="none" stroke="white" stroke-width="1.5" d="M0,-3.0v7 M-2.5,-0.5L0,-3.0L2.5,-0.5"/>
                </g>
                <g id="arrowLeft" xlink:href="#dirArrow" transform="rotate(270) translate(-36 17)" onmousedown="handlePan(-1,0)">
                  <use xlink:href="#rim" fill="#404040">
                        <set attributeName="fill" to="#808080" begin="arrowLeft.mouseover" end="arrowLeft.mouseout"/>
                  </use>
                  <path fill="none" stroke="white" stroke-width="1.5" d="M0,-3.0v7 M-2.5,-0.5L0,-3.0L2.5,-0.5"/>
                </g>
        </g>
        <svg viewBox="0 0 15 15" width="100%" height="30px" preserveAspectRatio="xMaxYMin meet">
         <g id="arrow_out" transform="scale(0.3 0.3)">
          <a xlink:href="Multithreaded_8h__incl_org.svg" target="_base">
           <rect id="button" ry="5" rx="5" y="6" x="6" height="38" width="38"
                fill="#f2f5e9" fill-opacity="0.5" stroke="#606060" stroke-width="1.0"/>
           <path id="arrow"
             d="M 11.500037,31.436501 C 11.940474,20.09759 22.043105,11.32322 32.158766,21.979434 L 37.068811,17.246167 C 37.068811,17.246167 37.088388,32 37.088388,32 L 22.160133,31.978069 C 22.160133,31.978069 26.997745,27.140456 26.997745,27.140456 C 18.528582,18.264221 13.291696,25.230495 11.500037,31.436501 z"
             style="fill:#404040;"/>
          </a>
         </g>
        </svg>
</svg>
