<?xml version="1.0" encoding="UTF-8" standalone="no"?>
<!DOCTYPE svg PUBLIC "-//W3C//DTD SVG 1.1//EN"
 "http://www.w3.org/Graphics/SVG/1.1/DTD/svg11.dtd">
<!-- Generated by graphviz version 2.43.0 (0)
 -->
<!-- Title: /home/runner/work/Simopticon/Simopticon/src/utils/Multithreaded.h Pages: 1 -->
<svg width="536pt" height="151pt"
 viewBox="0.00 0.00 536.00 151.00" xmlns="http://www.w3.org/2000/svg" xmlns:xlink="http://www.w3.org/1999/xlink">
<g id="graph0" class="graph" transform="scale(1 1) rotate(0) translate(4 147)">
<title>/home/runner/work/Simopticon/Simopticon/src/utils/Multithreaded.h</title>
<polygon fill="white" stroke="transparent" points="-4,4 -4,-147 532,-147 532,4 -4,4"/>
<!-- Node1 -->
<g id="node1" class="node">
<title>Node1</title>
<g id="a_node1"><a xlink:title="In this file, the header of the Multithreaded class is defined.">
<polygon fill="#bfbfbf" stroke="black" points="187,-112.5 187,-142.5 383,-142.5 383,-112.5 187,-112.5"/>
<text text-anchor="start" x="195" y="-130.5" font-family="Helvetica,sans-Serif" font-size="10.00">/home/runner/work/Simopticon</text>
<text text-anchor="middle" x="285" y="-119.5" font-family="Helvetica,sans-Serif" font-size="10.00">/Simopticon/src/utils/Multithreaded.h</text>
</a>
</g>
</g>
<!-- Node2 -->
<g id="node2" class="node">
<title>Node2</title>
<g id="a_node2"><a xlink:title=" ">
<polygon fill="white" stroke="#bfbfbf" points="0,-0.5 0,-19.5 48,-19.5 48,-0.5 0,-0.5"/>
<text text-anchor="middle" x="24" y="-7.5" font-family="Helvetica,sans-Serif" font-size="10.00">mutex</text>
</a>
</g>
</g>
<!-- Node1&#45;&gt;Node2 -->
<g id="edge1" class="edge">
<title>Node1&#45;&gt;Node2</title>
<path fill="none" stroke="midnightblue" d="M186.99,-113.27C134.95,-104.62 77.59,-91.96 57,-76 42.03,-64.39 33.28,-44.14 28.6,-29.32"/>
<polygon fill="midnightblue" stroke="midnightblue" points="31.97,-28.36 25.88,-19.69 25.23,-30.26 31.97,-28.36"/>
</g>
<!-- Node3 -->
<g id="node3" class="node">
<title>Node3</title>
<g id="a_node3"><a xlink:title=" ">
<polygon fill="white" stroke="#bfbfbf" points="300.5,-0.5 300.5,-19.5 347.5,-19.5 347.5,-0.5 300.5,-0.5"/>
<text text-anchor="middle" x="324" y="-7.5" font-family="Helvetica,sans-Serif" font-size="10.00">queue</text>
</a>
</g>
</g>
<!-- Node1&#45;&gt;Node3 -->
<g id="edge2" class="edge">
<title>Node1&#45;&gt;Node3</title>
<path fill="none" stroke="midnightblue" d="M331.64,-112.36C349.04,-104.57 366.98,-92.93 377,-76 388.27,-56.96 367.49,-37.63 348.74,-25.05"/>
<polygon fill="midnightblue" stroke="midnightblue" points="350.44,-21.99 340.12,-19.61 346.71,-27.91 350.44,-21.99"/>
</g>
<!-- Node4 -->
<g id="node4" class="node">
<title>Node4</title>
<g id="a_node4"><a xlink:title=" ">
<polygon fill="white" stroke="#bfbfbf" points="196,-56.5 196,-75.5 234,-75.5 234,-56.5 196,-56.5"/>
<text text-anchor="middle" x="215" y="-63.5" font-family="Helvetica,sans-Serif" font-size="10.00">map</text>
</a>
</g>
</g>
<!-- Node1&#45;&gt;Node4 -->
<g id="edge3" class="edge">
<title>Node1&#45;&gt;Node4</title>
<path fill="none" stroke="midnightblue" d="M268.41,-112.4C257.71,-103.31 243.81,-91.49 232.87,-82.19"/>
<polygon fill="midnightblue" stroke="midnightblue" points="235.07,-79.47 225.19,-75.66 230.54,-84.8 235.07,-79.47"/>
</g>
<!-- Node5 -->
<g id="node5" class="node">
<title>Node5</title>
<g id="a_node5"><a xlink:title=" ">
<polygon fill="white" stroke="#bfbfbf" points="252.5,-56.5 252.5,-75.5 317.5,-75.5 317.5,-56.5 252.5,-56.5"/>
<text text-anchor="middle" x="285" y="-63.5" font-family="Helvetica,sans-Serif" font-size="10.00">functional</text>
</a>
</g>
</g>
<!-- Node1&#45;&gt;Node5 -->
<g id="edge4" class="edge">
<title>Node1&#45;&gt;Node5</title>
<path fill="none" stroke="midnightblue" d="M285,-112.4C285,-104.47 285,-94.46 285,-85.86"/>
<polygon fill="midnightblue" stroke="midnightblue" points="288.5,-85.66 285,-75.66 281.5,-85.66 288.5,-85.66"/>
</g>
<!-- Node6 -->
<g id="node6" class="node">
<title>Node6</title>
<g id="a_node6"><a xlink:title=" ">
<polygon fill="white" stroke="#bfbfbf" points="336,-56.5 336,-75.5 368,-75.5 368,-56.5 336,-56.5"/>
<text text-anchor="middle" x="352" y="-63.5" font-family="Helvetica,sans-Serif" font-size="10.00">set</text>
</a>
</g>
</g>
<!-- Node1&#45;&gt;Node6 -->
<g id="edge5" class="edge">
<title>Node1&#45;&gt;Node6</title>
<path fill="none" stroke="midnightblue" d="M300.88,-112.4C311.02,-103.4 324.16,-91.72 334.59,-82.47"/>
<polygon fill="midnightblue" stroke="midnightblue" points="337.1,-84.92 342.25,-75.66 332.45,-79.68 337.1,-84.92"/>
</g>
<!-- Node7 -->
<g id="node7" class="node">
<title>Node7</title>
<g id="a_node7"><a xlink:href="ThreadsafeQueue_8h.xhtml" target="_top" xlink:title="In this file, the header of the ThreadSafeQueue class is defined.">
<polygon fill="white" stroke="black" points="66,-56.5 66,-75.5 178,-75.5 178,-56.5 66,-56.5"/>
<text text-anchor="middle" x="122" y="-63.5" font-family="Helvetica,sans-Serif" font-size="10.00">ThreadsafeQueue.h</text>
</a>
</g>
</g>
<!-- Node1&#45;&gt;Node7 -->
<g id="edge6" class="edge">
<title>Node1&#45;&gt;Node7</title>
<path fill="none" stroke="midnightblue" d="M246.37,-112.4C218.66,-102.28 181.69,-88.79 155.28,-79.15"/>
<polygon fill="midnightblue" stroke="midnightblue" points="156.31,-75.8 145.72,-75.66 153.91,-82.37 156.31,-75.8"/>
</g>
<!-- Node9 -->
<g id="node9" class="node">
<title>Node9</title>
<g id="a_node9"><a xlink:href="Multithreaded_8tpp.xhtml" target="_top" xlink:title="In this file, the implementation of the Multithreaded class is defined.">
<polygon fill="white" stroke="black" points="424,-56.5 424,-75.5 528,-75.5 528,-56.5 424,-56.5"/>
<text text-anchor="middle" x="476" y="-63.5" font-family="Helvetica,sans-Serif" font-size="10.00">Multithreaded.tpp</text>
</a>
</g>
</g>
<!-- Node1&#45;&gt;Node9 -->
<g id="edge11" class="edge">
<title>Node1&#45;&gt;Node9</title>
<path fill="none" stroke="midnightblue" d="M330.26,-112.4C363.41,-102.07 407.85,-88.23 438.9,-78.56"/>
<polygon fill="midnightblue" stroke="midnightblue" points="439.98,-81.89 448.49,-75.57 437.9,-75.2 439.98,-81.89"/>
</g>
<!-- Node7&#45;&gt;Node2 -->
<g id="edge8" class="edge">
<title>Node7&#45;&gt;Node2</title>
<path fill="none" stroke="midnightblue" d="M106.25,-56.32C90.68,-47.74 66.62,-34.49 48.54,-24.52"/>
<polygon fill="midnightblue" stroke="midnightblue" points="50.15,-21.42 39.71,-19.65 46.78,-27.55 50.15,-21.42"/>
</g>
<!-- Node7&#45;&gt;Node3 -->
<g id="edge7" class="edge">
<title>Node7&#45;&gt;Node3</title>
<path fill="none" stroke="midnightblue" d="M154.01,-56.44C191.22,-46.49 252.38,-30.15 290.31,-20.01"/>
<polygon fill="midnightblue" stroke="midnightblue" points="291.59,-23.29 300.35,-17.32 289.78,-16.52 291.59,-23.29"/>
</g>
<!-- Node8 -->
<g id="node8" class="node">
<title>Node8</title>
<g id="a_node8"><a xlink:href="ThreadsafeQueue_8tpp.xhtml" target="_top" xlink:title="In this file, the implementation of the ThreadSafeQueue class is defined.">
<polygon fill="white" stroke="black" points="66,-0.5 66,-19.5 188,-19.5 188,-0.5 66,-0.5"/>
<text text-anchor="middle" x="127" y="-7.5" font-family="Helvetica,sans-Serif" font-size="10.00">ThreadsafeQueue.tpp</text>
</a>
</g>
</g>
<!-- Node7&#45;&gt;Node8 -->
<g id="edge9" class="edge">
<title>Node7&#45;&gt;Node8</title>
<path fill="none" stroke="midnightblue" d="M117.66,-56.08C116.81,-48.93 117.33,-38.64 118.81,-29.69"/>
<polygon fill="midnightblue" stroke="midnightblue" points="122.27,-30.28 121.06,-19.75 115.44,-28.73 122.27,-30.28"/>
</g>
<!-- Node8&#45;&gt;Node7 -->
<g id="edge10" class="edge">
<title>Node8&#45;&gt;Node7</title>
<path fill="none" stroke="midnightblue" d="M131.32,-19.75C132.19,-26.86 131.68,-37.14 130.22,-46.1"/>
<polygon fill="midnightblue" stroke="midnightblue" points="126.76,-45.56 127.99,-56.08 133.59,-47.09 126.76,-45.56"/>
</g>
<!-- Node10 -->
<g id="node10" class="node">
<title>Node10</title>
<g id="a_node10"><a xlink:title=" ">
<polygon fill="white" stroke="#bfbfbf" points="481,-0.5 481,-19.5 527,-19.5 527,-0.5 481,-0.5"/>
<text text-anchor="middle" x="504" y="-7.5" font-family="Helvetica,sans-Serif" font-size="10.00">future</text>
</a>
</g>
</g>
<!-- Node9&#45;&gt;Node10 -->
<g id="edge12" class="edge">
<title>Node9&#45;&gt;Node10</title>
<path fill="none" stroke="midnightblue" d="M480.62,-56.08C484.46,-48.69 490.02,-37.95 494.76,-28.81"/>
<polygon fill="midnightblue" stroke="midnightblue" points="497.97,-30.24 499.46,-19.75 491.75,-27.02 497.97,-30.24"/>
</g>
<!-- Node11 -->
<g id="node11" class="node">
<title>Node11</title>
<g id="a_node11"><a xlink:title=" ">
<polygon fill="white" stroke="#bfbfbf" points="431,-0.5 431,-19.5 463,-19.5 463,-0.5 431,-0.5"/>
<text text-anchor="middle" x="447" y="-7.5" font-family="Helvetica,sans-Serif" font-size="10.00">list</text>
</a>
</g>
</g>
<!-- Node9&#45;&gt;Node11 -->
<g id="edge13" class="edge">
<title>Node9&#45;&gt;Node11</title>
<path fill="none" stroke="midnightblue" d="M471.21,-56.08C467.24,-48.69 461.47,-37.95 456.57,-28.81"/>
<polygon fill="midnightblue" stroke="midnightblue" points="459.51,-26.91 451.7,-19.75 453.35,-30.22 459.51,-26.91"/>
</g>
</g>
</svg>
