<?xml version="1.0" encoding="UTF-8" standalone="no"?>
<!DOCTYPE svg PUBLIC "-//W3C//DTD SVG 1.1//EN"
 "http://www.w3.org/Graphics/SVG/1.1/DTD/svg11.dtd">
<!-- Generated by graphviz version 2.43.0 (0)
 -->
<!-- Title: /home/runner/work/Simopticon/Simopticon/src/optimizer/Optimizer.h Pages: 1 -->
<svg width="589pt" height="218pt"
 viewBox="0.00 0.00 588.50 218.00" xmlns="http://www.w3.org/2000/svg" xmlns:xlink="http://www.w3.org/1999/xlink">
<g id="graph0" class="graph" transform="scale(1 1) rotate(0) translate(4 214)">
<title>/home/runner/work/Simopticon/Simopticon/src/optimizer/Optimizer.h</title>
<polygon fill="white" stroke="transparent" points="-4,4 -4,-214 584.5,-214 584.5,4 -4,4"/>
<!-- Node1 -->
<g id="node1" class="node">
<title>Node1</title>
<g id="a_node1"><a xlink:title="In this file, the header of the Optimizer class is defined.">
<polygon fill="#bfbfbf" stroke="black" points="195,-168.5 195,-209.5 362,-209.5 362,-168.5 195,-168.5"/>
<text text-anchor="start" x="203" y="-197.5" font-family="Helvetica,sans-Serif" font-size="10.00">/home/runner/work/Simopticon</text>
<text text-anchor="start" x="203" y="-186.5" font-family="Helvetica,sans-Serif" font-size="10.00">/Simopticon/src/optimizer</text>
<text text-anchor="middle" x="278.5" y="-175.5" font-family="Helvetica,sans-Serif" font-size="10.00">/Optimizer.h</text>
</a>
</g>
</g>
<!-- Node2 -->
<g id="node2" class="node">
<title>Node2</title>
<g id="a_node2"><a xlink:href="Types_8h.xhtml" target="_top" xlink:title="In this file, types are defined which should be used across the whole framework.">
<polygon fill="white" stroke="black" points="82.5,-56.5 82.5,-75.5 144.5,-75.5 144.5,-56.5 82.5,-56.5"/>
<text text-anchor="middle" x="113.5" y="-63.5" font-family="Helvetica,sans-Serif" font-size="10.00">../Types.h</text>
</a>
</g>
</g>
<!-- Node1&#45;&gt;Node2 -->
<g id="edge1" class="edge">
<title>Node1&#45;&gt;Node2</title>
<path fill="none" stroke="midnightblue" d="M194.98,-180.14C163.9,-172.69 131.57,-158.56 112.5,-132 102.94,-118.69 104.55,-99.57 107.73,-85.51"/>
<polygon fill="midnightblue" stroke="midnightblue" points="111.2,-86.1 110.43,-75.53 104.44,-84.27 111.2,-86.1"/>
</g>
<!-- Node4 -->
<g id="node4" class="node">
<title>Node4</title>
<g id="a_node4"><a xlink:title=" ">
<polygon fill="white" stroke="#bfbfbf" points="0,-0.5 0,-19.5 47,-19.5 47,-0.5 0,-0.5"/>
<text text-anchor="middle" x="23.5" y="-7.5" font-family="Helvetica,sans-Serif" font-size="10.00">vector</text>
</a>
</g>
</g>
<!-- Node1&#45;&gt;Node4 -->
<g id="edge12" class="edge">
<title>Node1&#45;&gt;Node4</title>
<path fill="none" stroke="midnightblue" d="M194.97,-181.14C155.5,-174.1 110.02,-160.03 77.5,-132 46.09,-104.93 32.14,-55.99 26.64,-29.4"/>
<polygon fill="midnightblue" stroke="midnightblue" points="30.06,-28.68 24.77,-19.5 23.18,-29.98 30.06,-28.68"/>
</g>
<!-- Node5 -->
<g id="node5" class="node">
<title>Node5</title>
<g id="a_node5"><a xlink:title=" ">
<polygon fill="white" stroke="#bfbfbf" points="78.5,-0.5 78.5,-19.5 136.5,-19.5 136.5,-0.5 78.5,-0.5"/>
<text text-anchor="middle" x="107.5" y="-7.5" font-family="Helvetica,sans-Serif" font-size="10.00">memory</text>
</a>
</g>
</g>
<!-- Node1&#45;&gt;Node5 -->
<g id="edge14" class="edge">
<title>Node1&#45;&gt;Node5</title>
<path fill="none" stroke="midnightblue" d="M194.62,-175.82C162.62,-167.73 127.6,-154.29 101.5,-132 74.13,-108.62 62.06,-90.13 73.5,-56 77.1,-45.25 84.4,-35.02 91.32,-27.04"/>
<polygon fill="midnightblue" stroke="midnightblue" points="93.98,-29.32 98.21,-19.61 88.85,-24.56 93.98,-29.32"/>
</g>
<!-- Node6 -->
<g id="node6" class="node">
<title>Node6</title>
<g id="a_node6"><a xlink:href="ParameterDefinition_8h.xhtml" target="_top" xlink:title="In this file, the header of the ParameterDefinition class is defined.">
<polygon fill="white" stroke="black" points="121,-112.5 121,-131.5 312,-131.5 312,-112.5 121,-112.5"/>
<text text-anchor="middle" x="216.5" y="-119.5" font-family="Helvetica,sans-Serif" font-size="10.00">../parameters/ParameterDefinition.h</text>
</a>
</g>
</g>
<!-- Node1&#45;&gt;Node6 -->
<g id="edge5" class="edge">
<title>Node1&#45;&gt;Node6</title>
<path fill="none" stroke="midnightblue" d="M259.9,-168.5C250.94,-159.11 240.33,-147.98 231.84,-139.08"/>
<polygon fill="midnightblue" stroke="midnightblue" points="234.19,-136.47 224.75,-131.65 229.12,-141.3 234.19,-136.47"/>
</g>
<!-- Node7 -->
<g id="node7" class="node">
<title>Node7</title>
<g id="a_node7"><a xlink:href="Status_8h.xhtml" target="_top" xlink:title="In this file, the header of the Status class is defined.">
<polygon fill="white" stroke="black" points="267.5,-56.5 267.5,-75.5 365.5,-75.5 365.5,-56.5 267.5,-56.5"/>
<text text-anchor="middle" x="316.5" y="-63.5" font-family="Helvetica,sans-Serif" font-size="10.00">../status/Status.h</text>
</a>
</g>
</g>
<!-- Node1&#45;&gt;Node7 -->
<g id="edge8" class="edge">
<title>Node1&#45;&gt;Node7</title>
<path fill="none" stroke="midnightblue" d="M298.69,-168.41C307.51,-158.44 316.89,-145.58 321.5,-132 326.62,-116.93 324.6,-98.8 321.75,-85.52"/>
<polygon fill="midnightblue" stroke="midnightblue" points="325.11,-84.54 319.29,-75.68 318.32,-86.23 325.11,-84.54"/>
</g>
<!-- Node8 -->
<g id="node8" class="node">
<title>Node8</title>
<g id="a_node8"><a xlink:href="Abortable_8h.xhtml" target="_top" xlink:title="In this file, the header of the Abortable class is defined.">
<polygon fill="white" stroke="black" points="368.5,-112.5 368.5,-131.5 474.5,-131.5 474.5,-112.5 368.5,-112.5"/>
<text text-anchor="middle" x="421.5" y="-119.5" font-family="Helvetica,sans-Serif" font-size="10.00">../utils/Abortable.h</text>
</a>
</g>
</g>
<!-- Node1&#45;&gt;Node8 -->
<g id="edge10" class="edge">
<title>Node1&#45;&gt;Node8</title>
<path fill="none" stroke="midnightblue" d="M321.4,-168.5C344.7,-157.91 372.84,-145.12 393.35,-135.8"/>
<polygon fill="midnightblue" stroke="midnightblue" points="394.81,-138.98 402.46,-131.65 391.91,-132.6 394.81,-138.98"/>
</g>
<!-- Node9 -->
<g id="node9" class="node">
<title>Node9</title>
<g id="a_node9"><a xlink:title=" ">
<polygon fill="white" stroke="#bfbfbf" points="492.5,-112.5 492.5,-131.5 524.5,-131.5 524.5,-112.5 492.5,-112.5"/>
<text text-anchor="middle" x="508.5" y="-119.5" font-family="Helvetica,sans-Serif" font-size="10.00">list</text>
</a>
</g>
</g>
<!-- Node1&#45;&gt;Node9 -->
<g id="edge11" class="edge">
<title>Node1&#45;&gt;Node9</title>
<path fill="none" stroke="midnightblue" d="M355.82,-168.42C391.91,-158.92 435.58,-146.9 482.65,-132.1"/>
<polygon fill="midnightblue" stroke="midnightblue" points="483.95,-135.36 492.43,-129 481.84,-128.68 483.95,-135.36"/>
</g>
<!-- Node10 -->
<g id="node10" class="node">
<title>Node10</title>
<g id="a_node10"><a xlink:title=" ">
<polygon fill="white" stroke="#bfbfbf" points="542.5,-112.5 542.5,-131.5 580.5,-131.5 580.5,-112.5 542.5,-112.5"/>
<text text-anchor="middle" x="561.5" y="-119.5" font-family="Helvetica,sans-Serif" font-size="10.00">map</text>
</a>
</g>
</g>
<!-- Node1&#45;&gt;Node10 -->
<g id="edge13" class="edge">
<title>Node1&#45;&gt;Node10</title>
<path fill="none" stroke="midnightblue" d="M362.25,-171.69C409.7,-161.96 470.31,-148.72 532.33,-132.13"/>
<polygon fill="midnightblue" stroke="midnightblue" points="533.55,-135.43 542.29,-129.44 531.73,-128.67 533.55,-135.43"/>
</g>
<!-- Node3 -->
<g id="node3" class="node">
<title>Node3</title>
<g id="a_node3"><a xlink:title=" ">
<polygon fill="white" stroke="#bfbfbf" points="194.5,-0.5 194.5,-19.5 238.5,-19.5 238.5,-0.5 194.5,-0.5"/>
<text text-anchor="middle" x="216.5" y="-7.5" font-family="Helvetica,sans-Serif" font-size="10.00">string</text>
</a>
</g>
</g>
<!-- Node2&#45;&gt;Node3 -->
<g id="edge2" class="edge">
<title>Node2&#45;&gt;Node3</title>
<path fill="none" stroke="midnightblue" d="M130.05,-56.32C146.49,-47.7 171.93,-34.36 190.97,-24.39"/>
<polygon fill="midnightblue" stroke="midnightblue" points="192.76,-27.4 199.99,-19.65 189.51,-21.2 192.76,-27.4"/>
</g>
<!-- Node2&#45;&gt;Node4 -->
<g id="edge3" class="edge">
<title>Node2&#45;&gt;Node4</title>
<path fill="none" stroke="midnightblue" d="M99.04,-56.32C85,-47.9 63.45,-34.97 46.96,-25.07"/>
<polygon fill="midnightblue" stroke="midnightblue" points="48.3,-21.8 37.92,-19.65 44.7,-27.8 48.3,-21.8"/>
</g>
<!-- Node2&#45;&gt;Node5 -->
<g id="edge4" class="edge">
<title>Node2&#45;&gt;Node5</title>
<path fill="none" stroke="midnightblue" d="M112.51,-56.08C111.71,-48.93 110.57,-38.64 109.58,-29.69"/>
<polygon fill="midnightblue" stroke="midnightblue" points="113.06,-29.3 108.47,-19.75 106.1,-30.08 113.06,-29.3"/>
</g>
<!-- Node6&#45;&gt;Node2 -->
<g id="edge6" class="edge">
<title>Node6&#45;&gt;Node2</title>
<path fill="none" stroke="midnightblue" d="M199.95,-112.32C183.51,-103.7 158.07,-90.36 139.03,-80.39"/>
<polygon fill="midnightblue" stroke="midnightblue" points="140.49,-77.2 130.01,-75.65 137.24,-83.4 140.49,-77.2"/>
</g>
<!-- Node6&#45;&gt;Node3 -->
<g id="edge7" class="edge">
<title>Node6&#45;&gt;Node3</title>
<path fill="none" stroke="midnightblue" d="M216.5,-112.37C216.5,-94.62 216.5,-53.67 216.5,-29.6"/>
<polygon fill="midnightblue" stroke="midnightblue" points="220,-29.59 216.5,-19.59 213,-29.59 220,-29.59"/>
</g>
<!-- Node7&#45;&gt;Node3 -->
<g id="edge9" class="edge">
<title>Node7&#45;&gt;Node3</title>
<path fill="none" stroke="midnightblue" d="M300.43,-56.32C284.54,-47.74 259.99,-34.49 241.54,-24.52"/>
<polygon fill="midnightblue" stroke="midnightblue" points="242.99,-21.33 232.53,-19.65 239.66,-27.49 242.99,-21.33"/>
</g>
</g>
</svg>
