<?xml version="1.0" encoding="UTF-8" standalone="no"?>
<!DOCTYPE svg PUBLIC "-//W3C//DTD SVG 1.1//EN"
 "http://www.w3.org/Graphics/SVG/1.1/DTD/svg11.dtd">
<!-- Generated by graphviz version 2.43.0 (0)
 -->
<!-- Title: /home/runner/work/Simopticon/Simopticon/src/optimizer/Optimizer.h Pages: 1 -->
<svg width="1291pt" height="284pt"
 viewBox="0.00 0.00 1290.50 284.00" xmlns="http://www.w3.org/2000/svg" xmlns:xlink="http://www.w3.org/1999/xlink">
<g id="graph0" class="graph" transform="scale(1 1) rotate(0) translate(4 280)">
<title>/home/runner/work/Simopticon/Simopticon/src/optimizer/Optimizer.h</title>
<polygon fill="white" stroke="transparent" points="-4,4 -4,-280 1286.5,-280 1286.5,4 -4,4"/>
<!-- Node1 -->
<g id="node1" class="node">
<title>Node1</title>
<g id="a_node1"><a xlink:title="In this file, the header of the Optimizer class is defined.">
<polygon fill="#bfbfbf" stroke="black" points="577,-234.5 577,-275.5 744,-275.5 744,-234.5 577,-234.5"/>
<text text-anchor="start" x="585" y="-263.5" font-family="Helvetica,sans-Serif" font-size="10.00">/home/runner/work/Simopticon</text>
<text text-anchor="start" x="585" y="-252.5" font-family="Helvetica,sans-Serif" font-size="10.00">/Simopticon/src/optimizer</text>
<text text-anchor="middle" x="660.5" y="-241.5" font-family="Helvetica,sans-Serif" font-size="10.00">/Optimizer.h</text>
</a>
</g>
</g>
<!-- Node2 -->
<g id="node2" class="node">
<title>Node2</title>
<g id="a_node2"><a xlink:href="Controller_8h.xhtml" target="_top" xlink:title="In this file, the header of the Controller class is defined.">
<polygon fill="white" stroke="black" points="222,-156.5 222,-197.5 389,-197.5 389,-156.5 222,-156.5"/>
<text text-anchor="start" x="230" y="-185.5" font-family="Helvetica,sans-Serif" font-size="10.00">/home/runner/work/Simopticon</text>
<text text-anchor="start" x="230" y="-174.5" font-family="Helvetica,sans-Serif" font-size="10.00">/Simopticon/src/controller</text>
<text text-anchor="middle" x="305.5" y="-163.5" font-family="Helvetica,sans-Serif" font-size="10.00">/Controller.h</text>
</a>
</g>
</g>
<!-- Node1&#45;&gt;Node2 -->
<g id="edge1" class="edge">
<title>Node1&#45;&gt;Node2</title>
<path fill="none" stroke="midnightblue" d="M567.04,-233.99C511.87,-222.18 442.62,-207.35 389.23,-195.93"/>
<polygon fill="midnightblue" stroke="midnightblue" points="566.31,-237.41 576.82,-236.09 567.77,-230.57 566.31,-237.41"/>
</g>
<!-- Node7 -->
<g id="node7" class="node">
<title>Node7</title>
<g id="a_node7"><a xlink:href="Optimizer_8cpp.xhtml" target="_top" xlink:title="In this file, the implementation of the Optimizer class is defined.">
<polygon fill="white" stroke="black" points="333,-78.5 333,-119.5 500,-119.5 500,-78.5 333,-78.5"/>
<text text-anchor="start" x="341" y="-107.5" font-family="Helvetica,sans-Serif" font-size="10.00">/home/runner/work/Simopticon</text>
<text text-anchor="start" x="341" y="-96.5" font-family="Helvetica,sans-Serif" font-size="10.00">/Simopticon/src/optimizer</text>
<text text-anchor="middle" x="416.5" y="-85.5" font-family="Helvetica,sans-Serif" font-size="10.00">/Optimizer.cpp</text>
</a>
</g>
</g>
<!-- Node1&#45;&gt;Node7 -->
<g id="edge18" class="edge">
<title>Node1&#45;&gt;Node7</title>
<path fill="none" stroke="midnightblue" d="M566.5,-239.62C535.19,-231.35 501.67,-218.37 475.5,-198 449.17,-177.51 431.99,-141.71 423.29,-119.51"/>
<polygon fill="midnightblue" stroke="midnightblue" points="566.02,-243.11 576.57,-242.15 567.72,-236.32 566.02,-243.11"/>
</g>
<!-- Node8 -->
<g id="node8" class="node">
<title>Node8</title>
<g id="a_node8"><a xlink:href="DirectOptimizer_8h.xhtml" target="_top" xlink:title="In this file, the header of the DirectOptimizer class is defined.">
<polygon fill="white" stroke="black" points="485,-156.5 485,-197.5 652,-197.5 652,-156.5 485,-156.5"/>
<text text-anchor="start" x="493" y="-185.5" font-family="Helvetica,sans-Serif" font-size="10.00">/home/runner/work/Simopticon</text>
<text text-anchor="start" x="493" y="-174.5" font-family="Helvetica,sans-Serif" font-size="10.00">/Simopticon/src/optimizer</text>
<text text-anchor="middle" x="568.5" y="-163.5" font-family="Helvetica,sans-Serif" font-size="10.00">/direct/DirectOptimizer.h</text>
</a>
</g>
</g>
<!-- Node1&#45;&gt;Node8 -->
<g id="edge9" class="edge">
<title>Node1&#45;&gt;Node8</title>
<path fill="none" stroke="midnightblue" d="M628.76,-227.78C616.73,-217.84 603.26,-206.72 592.11,-197.51"/>
<polygon fill="midnightblue" stroke="midnightblue" points="626.87,-230.76 636.81,-234.43 631.33,-225.36 626.87,-230.76"/>
</g>
<!-- Node10 -->
<g id="node10" class="node">
<title>Node10</title>
<g id="a_node10"><a xlink:href="MonteCarlo_8h.xhtml" target="_top" xlink:title="In this file, the header of the MonteCarlo class is defined.">
<polygon fill="white" stroke="black" points="670,-156.5 670,-197.5 837,-197.5 837,-156.5 670,-156.5"/>
<text text-anchor="start" x="678" y="-185.5" font-family="Helvetica,sans-Serif" font-size="10.00">/home/runner/work/Simopticon</text>
<text text-anchor="start" x="678" y="-174.5" font-family="Helvetica,sans-Serif" font-size="10.00">/Simopticon/src/optimizer</text>
<text text-anchor="middle" x="753.5" y="-163.5" font-family="Helvetica,sans-Serif" font-size="10.00">/montecarlo/MonteCarlo.h</text>
</a>
</g>
</g>
<!-- Node1&#45;&gt;Node10 -->
<g id="edge12" class="edge">
<title>Node1&#45;&gt;Node10</title>
<path fill="none" stroke="midnightblue" d="M692.24,-228.06C704.48,-218.06 718.25,-206.8 729.63,-197.51"/>
<polygon fill="midnightblue" stroke="midnightblue" points="689.98,-225.39 684.45,-234.43 694.41,-230.81 689.98,-225.39"/>
</g>
<!-- Node12 -->
<g id="node12" class="node">
<title>Node12</title>
<g id="a_node12"><a xlink:href="RandomNeighbors_8h.xhtml" target="_top" xlink:title="In this file, the header of the RandomNeighbors optimizer class is defined.">
<polygon fill="white" stroke="black" points="863,-156.5 863,-197.5 1070,-197.5 1070,-156.5 863,-156.5"/>
<text text-anchor="start" x="871" y="-185.5" font-family="Helvetica,sans-Serif" font-size="10.00">/home/runner/work/Simopticon</text>
<text text-anchor="start" x="871" y="-174.5" font-family="Helvetica,sans-Serif" font-size="10.00">/Simopticon/src/optimizer</text>
<text text-anchor="middle" x="966.5" y="-163.5" font-family="Helvetica,sans-Serif" font-size="10.00">/randomneighbors/RandomNeighbors.h</text>
</a>
</g>
</g>
<!-- Node1&#45;&gt;Node12 -->
<g id="edge15" class="edge">
<title>Node1&#45;&gt;Node12</title>
<path fill="none" stroke="midnightblue" d="M749.1,-231.99C792.99,-221.09 845.53,-208.04 887.96,-197.51"/>
<polygon fill="midnightblue" stroke="midnightblue" points="748.16,-228.62 739.3,-234.43 749.85,-235.41 748.16,-228.62"/>
</g>
<!-- Node14 -->
<g id="node14" class="node">
<title>Node14</title>
<g id="a_node14"><a xlink:href="StatusBar_8cpp.xhtml" target="_top" xlink:title="In this file, the implementation of the StatusBar class is defined.">
<polygon fill="white" stroke="black" points="1088.5,-162 1088.5,-192 1282.5,-192 1282.5,-162 1088.5,-162"/>
<text text-anchor="start" x="1096.5" y="-180" font-family="Helvetica,sans-Serif" font-size="10.00">/home/runner/work/Simopticon</text>
<text text-anchor="middle" x="1185.5" y="-169" font-family="Helvetica,sans-Serif" font-size="10.00">/Simopticon/src/status/StatusBar.cpp</text>
</a>
</g>
</g>
<!-- Node1&#45;&gt;Node14 -->
<g id="edge19" class="edge">
<title>Node1&#45;&gt;Node14</title>
<path fill="none" stroke="midnightblue" d="M754.32,-242.92C839.37,-232.53 968.1,-215.94 1079.5,-198 1090.69,-196.2 1102.51,-194.13 1114.03,-192.03"/>
<polygon fill="midnightblue" stroke="midnightblue" points="753.67,-239.47 744.17,-244.16 754.52,-246.42 753.67,-239.47"/>
</g>
<!-- Node3 -->
<g id="node3" class="node">
<title>Node3</title>
<g id="a_node3"><a xlink:href="Controller_8cpp.xhtml" target="_top" xlink:title="In this file, the implementation of the Controller class is defined.">
<polygon fill="white" stroke="black" points="444,-0.5 444,-41.5 611,-41.5 611,-0.5 444,-0.5"/>
<text text-anchor="start" x="452" y="-29.5" font-family="Helvetica,sans-Serif" font-size="10.00">/home/runner/work/Simopticon</text>
<text text-anchor="start" x="452" y="-18.5" font-family="Helvetica,sans-Serif" font-size="10.00">/Simopticon/src/controller</text>
<text text-anchor="middle" x="527.5" y="-7.5" font-family="Helvetica,sans-Serif" font-size="10.00">/Controller.cpp</text>
</a>
</g>
</g>
<!-- Node2&#45;&gt;Node3 -->
<g id="edge2" class="edge">
<title>Node2&#45;&gt;Node3</title>
<path fill="none" stroke="midnightblue" d="M303.15,-146.17C303.13,-124.62 306.79,-96.21 323.5,-78 340.13,-59.87 395.25,-45.37 444,-35.68"/>
<polygon fill="midnightblue" stroke="midnightblue" points="299.66,-146.52 303.43,-156.42 306.66,-146.33 299.66,-146.52"/>
</g>
<!-- Node4 -->
<g id="node4" class="node">
<title>Node4</title>
<g id="a_node4"><a xlink:href="main_8cpp.xhtml" target="_top" xlink:title="In this file, the main function running the Simopticon framework is defined.">
<polygon fill="white" stroke="black" points="0,-6 0,-36 167,-36 167,-6 0,-6"/>
<text text-anchor="start" x="8" y="-24" font-family="Helvetica,sans-Serif" font-size="10.00">/home/runner/work/Simopticon</text>
<text text-anchor="middle" x="83.5" y="-13" font-family="Helvetica,sans-Serif" font-size="10.00">/Simopticon/src/main.cpp</text>
</a>
</g>
</g>
<!-- Node2&#45;&gt;Node4 -->
<g id="edge3" class="edge">
<title>Node2&#45;&gt;Node4</title>
<path fill="none" stroke="midnightblue" d="M211.93,-160.27C165.89,-150.63 117,-136.89 101.5,-120 80.22,-96.8 80.1,-57.05 81.81,-36.02"/>
<polygon fill="midnightblue" stroke="midnightblue" points="211.5,-163.75 222,-162.32 212.9,-156.89 211.5,-163.75"/>
</g>
<!-- Node5 -->
<g id="node5" class="node">
<title>Node5</title>
<g id="a_node5"><a xlink:href="StubController_8h.xhtml" target="_top" xlink:title="In this file, the header of the StubController class is defined.">
<polygon fill="white" stroke="black" points="111,-78.5 111,-119.5 278,-119.5 278,-78.5 111,-78.5"/>
<text text-anchor="start" x="119" y="-107.5" font-family="Helvetica,sans-Serif" font-size="10.00">/home/runner/work/Simopticon</text>
<text text-anchor="start" x="119" y="-96.5" font-family="Helvetica,sans-Serif" font-size="10.00">/Simopticon/src/controller</text>
<text text-anchor="middle" x="194.5" y="-85.5" font-family="Helvetica,sans-Serif" font-size="10.00">/StubController.h</text>
</a>
</g>
</g>
<!-- Node2&#45;&gt;Node5 -->
<g id="edge4" class="edge">
<title>Node2&#45;&gt;Node5</title>
<path fill="none" stroke="midnightblue" d="M268.45,-150.64C253.63,-140.49 236.83,-128.98 222.99,-119.51"/>
<polygon fill="midnightblue" stroke="midnightblue" points="266.69,-153.67 276.91,-156.43 270.64,-147.89 266.69,-153.67"/>
</g>
<!-- Node2&#45;&gt;Node7 -->
<g id="edge8" class="edge">
<title>Node2&#45;&gt;Node7</title>
<path fill="none" stroke="midnightblue" d="M342.55,-150.64C357.37,-140.49 374.17,-128.98 388.01,-119.51"/>
<polygon fill="midnightblue" stroke="midnightblue" points="340.36,-147.89 334.09,-156.43 344.31,-153.67 340.36,-147.89"/>
</g>
<!-- Node5&#45;&gt;Node3 -->
<g id="edge6" class="edge">
<title>Node5&#45;&gt;Node3</title>
<path fill="none" stroke="midnightblue" d="M288.06,-76.65C337.02,-65.47 396.46,-51.91 443.87,-41.09"/>
<polygon fill="midnightblue" stroke="midnightblue" points="287.07,-73.28 278.1,-78.92 288.63,-80.11 287.07,-73.28"/>
</g>
<!-- Node5&#45;&gt;Node4 -->
<g id="edge7" class="edge">
<title>Node5&#45;&gt;Node4</title>
<path fill="none" stroke="midnightblue" d="M157.48,-72.66C139.77,-60.53 119.22,-46.45 104.28,-36.23"/>
<polygon fill="midnightblue" stroke="midnightblue" points="155.69,-75.67 165.91,-78.43 159.64,-69.89 155.69,-75.67"/>
</g>
<!-- Node6 -->
<g id="node6" class="node">
<title>Node6</title>
<g id="a_node6"><a xlink:href="StubController_8cpp.xhtml" target="_top" xlink:title="In this file, the implementation of the StubController class is defined.">
<polygon fill="white" stroke="black" points="185,-0.5 185,-41.5 352,-41.5 352,-0.5 185,-0.5"/>
<text text-anchor="start" x="193" y="-29.5" font-family="Helvetica,sans-Serif" font-size="10.00">/home/runner/work/Simopticon</text>
<text text-anchor="start" x="193" y="-18.5" font-family="Helvetica,sans-Serif" font-size="10.00">/Simopticon/src/controller</text>
<text text-anchor="middle" x="268.5" y="-7.5" font-family="Helvetica,sans-Serif" font-size="10.00">/StubController.cpp</text>
</a>
</g>
</g>
<!-- Node5&#45;&gt;Node6 -->
<g id="edge5" class="edge">
<title>Node5&#45;&gt;Node6</title>
<path fill="none" stroke="midnightblue" d="M220.59,-71.2C230.12,-61.42 240.71,-50.54 249.51,-41.51"/>
<polygon fill="midnightblue" stroke="midnightblue" points="218.03,-68.82 213.56,-78.43 223.04,-73.71 218.03,-68.82"/>
</g>
<!-- Node8&#45;&gt;Node3 -->
<g id="edge10" class="edge">
<title>Node8&#45;&gt;Node3</title>
<path fill="none" stroke="midnightblue" d="M555.32,-147.16C551.75,-138.56 548.15,-129.01 545.5,-120 537.7,-93.44 532.62,-61.8 529.9,-41.8"/>
<polygon fill="midnightblue" stroke="midnightblue" points="552.12,-148.59 559.28,-156.4 558.55,-145.83 552.12,-148.59"/>
</g>
<!-- Node9 -->
<g id="node9" class="node">
<title>Node9</title>
<g id="a_node9"><a xlink:href="DirectOptimizer_8cpp.xhtml" target="_top" xlink:title="In this file, the implementation of the DirectOptimizer class is defined.">
<polygon fill="white" stroke="black" points="555,-78.5 555,-119.5 722,-119.5 722,-78.5 555,-78.5"/>
<text text-anchor="start" x="563" y="-107.5" font-family="Helvetica,sans-Serif" font-size="10.00">/home/runner/work/Simopticon</text>
<text text-anchor="start" x="563" y="-96.5" font-family="Helvetica,sans-Serif" font-size="10.00">/Simopticon/src/optimizer</text>
<text text-anchor="middle" x="638.5" y="-85.5" font-family="Helvetica,sans-Serif" font-size="10.00">/direct/DirectOptimizer.cpp</text>
</a>
</g>
</g>
<!-- Node8&#45;&gt;Node9 -->
<g id="edge11" class="edge">
<title>Node8&#45;&gt;Node9</title>
<path fill="none" stroke="midnightblue" d="M593.45,-148.92C602.39,-139.2 612.3,-128.45 620.53,-119.51"/>
<polygon fill="midnightblue" stroke="midnightblue" points="590.73,-146.7 586.53,-156.43 595.88,-151.44 590.73,-146.7"/>
</g>
<!-- Node10&#45;&gt;Node3 -->
<g id="edge13" class="edge">
<title>Node10&#45;&gt;Node3</title>
<path fill="none" stroke="midnightblue" d="M754.14,-146.04C752.96,-124.42 747.81,-95.99 730.5,-78 699.7,-45.99 652.41,-31.75 611.22,-25.62"/>
<polygon fill="midnightblue" stroke="midnightblue" points="750.65,-146.43 754.43,-156.33 757.64,-146.23 750.65,-146.43"/>
</g>
<!-- Node11 -->
<g id="node11" class="node">
<title>Node11</title>
<g id="a_node11"><a xlink:href="MonteCarlo_8cpp.xhtml" target="_top" xlink:title="In this file, the implementation of the MonteCarlo optimizer class is defined.">
<polygon fill="white" stroke="black" points="777,-78.5 777,-119.5 944,-119.5 944,-78.5 777,-78.5"/>
<text text-anchor="start" x="785" y="-107.5" font-family="Helvetica,sans-Serif" font-size="10.00">/home/runner/work/Simopticon</text>
<text text-anchor="start" x="785" y="-96.5" font-family="Helvetica,sans-Serif" font-size="10.00">/Simopticon/src/optimizer</text>
<text text-anchor="middle" x="860.5" y="-85.5" font-family="Helvetica,sans-Serif" font-size="10.00">/montecarlo/MonteCarlo.cpp</text>
</a>
</g>
</g>
<!-- Node10&#45;&gt;Node11 -->
<g id="edge14" class="edge">
<title>Node10&#45;&gt;Node11</title>
<path fill="none" stroke="midnightblue" d="M789.21,-150.64C803.5,-140.49 819.7,-128.98 833.04,-119.51"/>
<polygon fill="midnightblue" stroke="midnightblue" points="787.18,-147.78 781.06,-156.43 791.23,-153.49 787.18,-147.78"/>
</g>
<!-- Node12&#45;&gt;Node3 -->
<g id="edge16" class="edge">
<title>Node12&#45;&gt;Node3</title>
<path fill="none" stroke="midnightblue" d="M970.9,-146.3C972.34,-124.39 970.14,-95.45 952.5,-78 905.74,-31.75 720.95,-22.67 611.03,-21.48"/>
<polygon fill="midnightblue" stroke="midnightblue" points="967.4,-146.14 969.95,-156.42 974.37,-146.79 967.4,-146.14"/>
</g>
<!-- Node13 -->
<g id="node13" class="node">
<title>Node13</title>
<g id="a_node13"><a xlink:href="RandomNeighbors_8cpp.xhtml" target="_top" xlink:title="In this file, the implementation of the RandomNeighbors optimizer class is defined.">
<polygon fill="white" stroke="black" points="999.5,-78.5 999.5,-119.5 1217.5,-119.5 1217.5,-78.5 999.5,-78.5"/>
<text text-anchor="start" x="1007.5" y="-107.5" font-family="Helvetica,sans-Serif" font-size="10.00">/home/runner/work/Simopticon</text>
<text text-anchor="start" x="1007.5" y="-96.5" font-family="Helvetica,sans-Serif" font-size="10.00">/Simopticon/src/optimizer</text>
<text text-anchor="middle" x="1108.5" y="-85.5" font-family="Helvetica,sans-Serif" font-size="10.00">/randomneighbors/RandomNeighbors.cpp</text>
</a>
</g>
</g>
<!-- Node12&#45;&gt;Node13 -->
<g id="edge17" class="edge">
<title>Node12&#45;&gt;Node13</title>
<path fill="none" stroke="midnightblue" d="M1012.04,-151.63C1031.44,-141.24 1053.77,-129.29 1072.06,-119.51"/>
<polygon fill="midnightblue" stroke="midnightblue" points="1010.23,-148.62 1003.07,-156.43 1013.54,-154.8 1010.23,-148.62"/>
</g>
</g>
</svg>
