<?xml version="1.0" encoding="UTF-8" standalone="no"?>
<!DOCTYPE svg PUBLIC "-//W3C//DTD SVG 1.1//EN"
 "http://www.w3.org/Graphics/SVG/1.1/DTD/svg11.dtd">
<!-- Generated by graphviz version 2.43.0 (0)
 -->
<!-- Title: /home/runner/work/Simopticon/Simopticon/src/optimizer/Optimizer.cpp Pages: 1 -->
<!--zoomable 442 -->
<svg id="main" version="1.1" xmlns="http://www.w3.org/2000/svg" xmlns:xlink="http://www.w3.org/1999/xlink" xml:space="preserve" onload="init(evt)">
<style type="text/css"><![CDATA[
.edge:hover path { stroke: red; }
.edge:hover polygon { stroke: red; fill: red; }
]]></style>
<script type="text/javascript"><![CDATA[
var edges = document.getElementsByTagName('g');
if (edges && edges.length) {
  for (var i=0;i<edges.length;i++) {
    if (edges[i].id.substr(0,4)=='edge') {
      edges[i].setAttribute('class','edge');
    }
  }
}
]]></script>
        <defs>
                <circle id="rim" cx="0" cy="0" r="7"/>
                <circle id="rim2" cx="0" cy="0" r="3.5"/>
                <g id="zoomPlus">
                        <use xlink:href="#rim" fill="#404040">
                                <set attributeName="fill" to="#808080" begin="zoomplus.mouseover" end="zoomplus.mouseout"/>
                        </use>
                        <path d="M-4,0h8M0,-4v8" fill="none" stroke="white" stroke-width="1.5" pointer-events="none"/>
                </g>
                <g id="zoomMin">
                        <use xlink:href="#rim" fill="#404040">
                                <set attributeName="fill" to="#808080" begin="zoomminus.mouseover" end="zoomminus.mouseout"/>
                        </use>
                        <path d="M-4,0h8" fill="none" stroke="white" stroke-width="1.5" pointer-events="none"/>
                </g>
                <g id="dirArrow">
                        <path fill="none" stroke="white" stroke-width="1.5" d="M0,-3.0v7 M-2.5,-0.5L0,-3.0L2.5,-0.5"/>
                </g>
               <g id="resetDef">
                       <use xlink:href="#rim2" fill="#404040">
                               <set attributeName="fill" to="#808080" begin="reset.mouseover" end="reset.mouseout"/>
                       </use>
               </g>
        </defs>

<script type="text/javascript">
var viewWidth = 1884;
var viewHeight = 442;
var sectionId = 'dynsection-0';
</script>
<script xlink:href="svgpan.js"/>
<svg id="graph" class="graph">
<g id="viewport">
<title>/home/runner/work/Simopticon/Simopticon/src/optimizer/Optimizer.cpp</title>
<polygon fill="white" stroke="transparent" points="-4,4 -4,-438 1880,-438 1880,4 -4,4"/>
<!-- Node1 -->
<g id="node1" class="node">
<title>Node1</title>
<g id="a_node1"><a xlink:title="In this file, the implementation of the Optimizer class is defined.">
<polygon fill="#bfbfbf" stroke="black" points="465.5,-392.5 465.5,-433.5 632.5,-433.5 632.5,-392.5 465.5,-392.5"/>
<text text-anchor="start" x="473.5" y="-421.5" font-family="Helvetica,sans-Serif" font-size="10.00">/home/runner/work/Simopticon</text>
<text text-anchor="start" x="473.5" y="-410.5" font-family="Helvetica,sans-Serif" font-size="10.00">/Simopticon/src/optimizer</text>
<text text-anchor="middle" x="549" y="-399.5" font-family="Helvetica,sans-Serif" font-size="10.00">/Optimizer.cpp</text>
</a>
</g>
</g>
<!-- Node2 -->
<g id="node2" class="node">
<title>Node2</title>
<g id="a_node2"><a xlink:href="Optimizer_8h.xhtml" target="_top" xlink:title="In this file, the header of the Optimizer class is defined.">
<polygon fill="white" stroke="black" points="245.5,-224.5 245.5,-243.5 318.5,-243.5 318.5,-224.5 245.5,-224.5"/>
<text text-anchor="middle" x="282" y="-231.5" font-family="Helvetica,sans-Serif" font-size="10.00">Optimizer.h</text>
</a>
</g>
</g>
<!-- Node1&#45;&gt;Node2 -->
<g id="edge1" class="edge">
<title>Node1&#45;&gt;Node2</title>
<path fill="none" stroke="midnightblue" d="M474.31,-392.41C422.42,-375.46 354.8,-346.24 310,-300 297.59,-287.19 290.25,-268 286.22,-253.79"/>
<polygon fill="midnightblue" stroke="midnightblue" points="289.51,-252.52 283.67,-243.68 282.72,-254.23 289.51,-252.52"/>
</g>
<!-- Node12 -->
<g id="node12" class="node">
<title>Node12</title>
<g id="a_node12"><a xlink:href="Controller_8h.xhtml" target="_top" xlink:title="In this file, the header of the Controller class is defined.">
<polygon fill="white" stroke="black" points="483.5,-336.5 483.5,-355.5 614.5,-355.5 614.5,-336.5 483.5,-336.5"/>
<text text-anchor="middle" x="549" y="-343.5" font-family="Helvetica,sans-Serif" font-size="10.00">../controller/Controller.h</text>
</a>
</g>
</g>
<!-- Node1&#45;&gt;Node12 -->
<g id="edge16" class="edge">
<title>Node1&#45;&gt;Node12</title>
<path fill="none" stroke="midnightblue" d="M549,-392.5C549,-384.07 549,-374.24 549,-365.87"/>
<polygon fill="midnightblue" stroke="midnightblue" points="552.5,-365.65 549,-355.65 545.5,-365.65 552.5,-365.65"/>
</g>
<!-- Node29 -->
<g id="node29" class="node">
<title>Node29</title>
<g id="a_node29"><a xlink:title=" ">
<polygon fill="white" stroke="#bfbfbf" points="632.5,-336.5 632.5,-355.5 677.5,-355.5 677.5,-336.5 632.5,-336.5"/>
<text text-anchor="middle" x="655" y="-343.5" font-family="Helvetica,sans-Serif" font-size="10.00">utility</text>
</a>
</g>
</g>
<!-- Node1&#45;&gt;Node29 -->
<g id="edge78" class="edge">
<title>Node1&#45;&gt;Node29</title>
<path fill="none" stroke="midnightblue" d="M580.8,-392.5C597.37,-382.34 617.24,-370.16 632.25,-360.95"/>
<polygon fill="midnightblue" stroke="midnightblue" points="634.19,-363.86 640.89,-355.65 630.54,-357.9 634.19,-363.86"/>
</g>
<!-- Node3 -->
<g id="node3" class="node">
<title>Node3</title>
<g id="a_node3"><a xlink:href="Types_8h.xhtml" target="_top" xlink:title="In this file, types are defined which should be used across the whole framework.">
<polygon fill="white" stroke="black" points="560,-56.5 560,-75.5 622,-75.5 622,-56.5 560,-56.5"/>
<text text-anchor="middle" x="591" y="-63.5" font-family="Helvetica,sans-Serif" font-size="10.00">../Types.h</text>
</a>
</g>
</g>
<!-- Node2&#45;&gt;Node3 -->
<g id="edge2" class="edge">
<title>Node2&#45;&gt;Node3</title>
<path fill="none" stroke="midnightblue" d="M288.22,-224.32C297.9,-211.17 317.59,-185.84 338,-168 372.34,-137.98 382.36,-130.61 424,-112 464.99,-93.68 515.08,-81.41 549.64,-74.37"/>
<polygon fill="midnightblue" stroke="midnightblue" points="550.71,-77.73 559.84,-72.35 549.35,-70.86 550.71,-77.73"/>
</g>
<!-- Node5 -->
<g id="node5" class="node">
<title>Node5</title>
<g id="a_node5"><a xlink:title=" ">
<polygon fill="white" stroke="#bfbfbf" points="90.5,-0.5 90.5,-19.5 137.5,-19.5 137.5,-0.5 90.5,-0.5"/>
<text text-anchor="middle" x="114" y="-7.5" font-family="Helvetica,sans-Serif" font-size="10.00">vector</text>
</a>
</g>
</g>
<!-- Node2&#45;&gt;Node5 -->
<g id="edge13" class="edge">
<title>Node2&#45;&gt;Node5</title>
<path fill="none" stroke="midnightblue" d="M269.93,-224.37C251.36,-211.28 214.4,-186.03 181,-168 146.33,-149.28 121.47,-165.03 100,-132 79.44,-100.36 94.34,-54.05 105.26,-28.89"/>
<polygon fill="midnightblue" stroke="midnightblue" points="108.45,-30.33 109.44,-19.78 102.08,-27.41 108.45,-30.33"/>
</g>
<!-- Node6 -->
<g id="node6" class="node">
<title>Node6</title>
<g id="a_node6"><a xlink:title=" ">
<polygon fill="white" stroke="#bfbfbf" points="1033,-0.5 1033,-19.5 1091,-19.5 1091,-0.5 1033,-0.5"/>
<text text-anchor="middle" x="1062" y="-7.5" font-family="Helvetica,sans-Serif" font-size="10.00">memory</text>
</a>
</g>
</g>
<!-- Node2&#45;&gt;Node6 -->
<g id="edge15" class="edge">
<title>Node2&#45;&gt;Node6</title>
<path fill="none" stroke="midnightblue" d="M284.95,-224.37C289.69,-211.29 299.92,-186.05 314,-168 337.66,-137.66 346.43,-130.78 380,-112 449.79,-72.96 472.66,-72.06 551,-56 724.37,-20.47 936.48,-12.98 1022.73,-11.41"/>
<polygon fill="midnightblue" stroke="midnightblue" points="1022.91,-14.91 1032.85,-11.25 1022.8,-7.91 1022.91,-14.91"/>
</g>
<!-- Node7 -->
<g id="node7" class="node">
<title>Node7</title>
<g id="a_node7"><a xlink:href="ParameterDefinition_8h.xhtml" target="_top" xlink:title="In this file, the header of the ParameterDefinition class is defined.">
<polygon fill="white" stroke="black" points="142.5,-112.5 142.5,-131.5 333.5,-131.5 333.5,-112.5 142.5,-112.5"/>
<text text-anchor="middle" x="238" y="-119.5" font-family="Helvetica,sans-Serif" font-size="10.00">../parameters/ParameterDefinition.h</text>
</a>
</g>
</g>
<!-- Node2&#45;&gt;Node7 -->
<g id="edge6" class="edge">
<title>Node2&#45;&gt;Node7</title>
<path fill="none" stroke="midnightblue" d="M278,-224.44C273.84,-215.44 267.21,-200.83 262,-188 255.7,-172.5 249.16,-154.66 244.51,-141.6"/>
<polygon fill="midnightblue" stroke="midnightblue" points="247.71,-140.16 241.08,-131.9 241.11,-142.5 247.71,-140.16"/>
</g>
<!-- Node8 -->
<g id="node8" class="node">
<title>Node8</title>
<g id="a_node8"><a xlink:href="Status_8h.xhtml" target="_top" xlink:title="In this file, the header of the Status class is defined.">
<polygon fill="white" stroke="black" points="956,-168.5 956,-187.5 1054,-187.5 1054,-168.5 956,-168.5"/>
<text text-anchor="middle" x="1005" y="-175.5" font-family="Helvetica,sans-Serif" font-size="10.00">../status/Status.h</text>
</a>
</g>
</g>
<!-- Node2&#45;&gt;Node8 -->
<g id="edge9" class="edge">
<title>Node2&#45;&gt;Node8</title>
<path fill="none" stroke="midnightblue" d="M318.85,-230.25C436.17,-221.49 801.75,-194.18 945.8,-183.42"/>
<polygon fill="midnightblue" stroke="midnightblue" points="946.07,-186.91 955.78,-182.68 945.55,-179.93 946.07,-186.91"/>
</g>
<!-- Node9 -->
<g id="node9" class="node">
<title>Node9</title>
<g id="a_node9"><a xlink:href="Abortable_8h.xhtml" target="_top" xlink:title="In this file, the header of the Abortable class is defined.">
<polygon fill="white" stroke="black" points="66,-168.5 66,-187.5 172,-187.5 172,-168.5 66,-168.5"/>
<text text-anchor="middle" x="119" y="-175.5" font-family="Helvetica,sans-Serif" font-size="10.00">../utils/Abortable.h</text>
</a>
</g>
</g>
<!-- Node2&#45;&gt;Node9 -->
<g id="edge11" class="edge">
<title>Node2&#45;&gt;Node9</title>
<path fill="none" stroke="midnightblue" d="M256.17,-224.44C228.75,-215.36 185.22,-200.94 154.57,-190.78"/>
<polygon fill="midnightblue" stroke="midnightblue" points="155.3,-187.34 144.71,-187.52 153.1,-193.98 155.3,-187.34"/>
</g>
<!-- Node10 -->
<g id="node10" class="node">
<title>Node10</title>
<g id="a_node10"><a xlink:title=" ">
<polygon fill="white" stroke="#bfbfbf" points="518,-112.5 518,-131.5 550,-131.5 550,-112.5 518,-112.5"/>
<text text-anchor="middle" x="534" y="-119.5" font-family="Helvetica,sans-Serif" font-size="10.00">list</text>
</a>
</g>
</g>
<!-- Node2&#45;&gt;Node10 -->
<g id="edge12" class="edge">
<title>Node2&#45;&gt;Node10</title>
<path fill="none" stroke="midnightblue" d="M301.77,-224.37C347.13,-204.57 458.61,-155.91 508.8,-134"/>
<polygon fill="midnightblue" stroke="midnightblue" points="510.21,-137.2 517.98,-129.99 507.41,-130.79 510.21,-137.2"/>
</g>
<!-- Node11 -->
<g id="node11" class="node">
<title>Node11</title>
<g id="a_node11"><a xlink:title=" ">
<polygon fill="white" stroke="#bfbfbf" points="1072,-168.5 1072,-187.5 1110,-187.5 1110,-168.5 1072,-168.5"/>
<text text-anchor="middle" x="1091" y="-175.5" font-family="Helvetica,sans-Serif" font-size="10.00">map</text>
</a>
</g>
</g>
<!-- Node2&#45;&gt;Node11 -->
<g id="edge14" class="edge">
<title>Node2&#45;&gt;Node11</title>
<path fill="none" stroke="midnightblue" d="M318.9,-232.11C450.69,-228.76 898.57,-215.68 1062,-187.63"/>
<polygon fill="midnightblue" stroke="midnightblue" points="1062.66,-191.07 1071.89,-185.85 1061.42,-184.18 1062.66,-191.07"/>
</g>
<!-- Node4 -->
<g id="node4" class="node">
<title>Node4</title>
<g id="a_node4"><a xlink:title=" ">
<polygon fill="white" stroke="#bfbfbf" points="683,-0.5 683,-19.5 727,-19.5 727,-0.5 683,-0.5"/>
<text text-anchor="middle" x="705" y="-7.5" font-family="Helvetica,sans-Serif" font-size="10.00">string</text>
</a>
</g>
</g>
<!-- Node3&#45;&gt;Node4 -->
<g id="edge3" class="edge">
<title>Node3&#45;&gt;Node4</title>
<path fill="none" stroke="midnightblue" d="M609.06,-56.44C627.57,-47.68 656.58,-33.94 677.86,-23.86"/>
<polygon fill="midnightblue" stroke="midnightblue" points="679.48,-26.96 687.02,-19.52 676.49,-20.63 679.48,-26.96"/>
</g>
<!-- Node3&#45;&gt;Node5 -->
<g id="edge4" class="edge">
<title>Node3&#45;&gt;Node5</title>
<path fill="none" stroke="midnightblue" d="M559.7,-61.46C473.96,-51.75 235.81,-24.79 147.51,-14.79"/>
<polygon fill="midnightblue" stroke="midnightblue" points="147.83,-11.31 137.5,-13.66 147.04,-18.26 147.83,-11.31"/>
</g>
<!-- Node3&#45;&gt;Node6 -->
<g id="edge5" class="edge">
<title>Node3&#45;&gt;Node6</title>
<path fill="none" stroke="midnightblue" d="M622.27,-61.42C705.36,-51.89 931.54,-25.96 1022.92,-15.48"/>
<polygon fill="midnightblue" stroke="midnightblue" points="1023.33,-18.96 1032.87,-14.34 1022.53,-12 1023.33,-18.96"/>
</g>
<!-- Node7&#45;&gt;Node3 -->
<g id="edge7" class="edge">
<title>Node7&#45;&gt;Node3</title>
<path fill="none" stroke="midnightblue" d="M293.93,-112.44C365.2,-101.54 486.71,-82.95 549.97,-73.28"/>
<polygon fill="midnightblue" stroke="midnightblue" points="550.62,-76.72 559.98,-71.75 549.57,-69.8 550.62,-76.72"/>
</g>
<!-- Node7&#45;&gt;Node4 -->
<g id="edge8" class="edge">
<title>Node7&#45;&gt;Node4</title>
<path fill="none" stroke="midnightblue" d="M249.11,-112.3C268.15,-97.92 308.75,-69.42 348,-56 462.82,-16.73 608.95,-11.15 672.76,-10.74"/>
<polygon fill="midnightblue" stroke="midnightblue" points="672.99,-14.24 682.98,-10.71 672.98,-7.24 672.99,-14.24"/>
</g>
<!-- Node8&#45;&gt;Node4 -->
<g id="edge10" class="edge">
<title>Node8&#45;&gt;Node4</title>
<path fill="none" stroke="midnightblue" d="M989.29,-168.31C940.19,-141.14 789.28,-57.64 729.63,-24.63"/>
<polygon fill="midnightblue" stroke="midnightblue" points="731,-21.38 720.55,-19.61 727.61,-27.51 731,-21.38"/>
</g>
<!-- Node12&#45;&gt;Node2 -->
<g id="edge24" class="edge">
<title>Node12&#45;&gt;Node2</title>
<path fill="none" stroke="midnightblue" d="M483.23,-341.83C439.47,-337.21 382.15,-326.16 338,-300 318.45,-288.42 302.31,-267.55 292.46,-252.58"/>
<polygon fill="midnightblue" stroke="midnightblue" points="295.2,-250.37 286.92,-243.75 289.27,-254.09 295.2,-250.37"/>
</g>
<!-- Node12&#45;&gt;Node3 -->
<g id="edge17" class="edge">
<title>Node12&#45;&gt;Node3</title>
<path fill="none" stroke="midnightblue" d="M525.86,-336.49C509.59,-329.29 488.72,-317.34 477,-300 457.92,-271.78 461.86,-257.68 467,-224 474.87,-172.45 468.29,-151.79 502,-112 514.84,-96.84 534.05,-86.23 551.34,-79.14"/>
<polygon fill="midnightblue" stroke="midnightblue" points="552.61,-82.4 560.7,-75.55 550.11,-75.86 552.61,-82.4"/>
</g>
<!-- Node12&#45;&gt;Node5 -->
<g id="edge74" class="edge">
<title>Node12&#45;&gt;Node5</title>
<path fill="none" stroke="midnightblue" d="M483.32,-345.47C337.6,-344.76 0,-332.57 0,-235 0,-235 0,-235 0,-121 0,-74.11 50.55,-40.89 84.33,-23.93"/>
<polygon fill="midnightblue" stroke="midnightblue" points="85.87,-27.07 93.36,-19.58 82.83,-20.77 85.87,-27.07"/>
</g>
<!-- Node12&#45;&gt;Node6 -->
<g id="edge76" class="edge">
<title>Node12&#45;&gt;Node6</title>
<path fill="none" stroke="midnightblue" d="M614.82,-336.83C617.92,-336.53 620.99,-336.25 624,-336 955.22,-308.18 1039.9,-329.24 1371,-300 1483.71,-290.05 1876,-348.15 1876,-235 1876,-235 1876,-235 1876,-121 1876,-41.9 1264.53,-17.28 1101.53,-12.13"/>
<polygon fill="midnightblue" stroke="midnightblue" points="1101.56,-8.63 1091.45,-11.81 1101.34,-15.62 1101.56,-8.63"/>
</g>
<!-- Node12&#45;&gt;Node9 -->
<g id="edge72" class="edge">
<title>Node12&#45;&gt;Node9</title>
<path fill="none" stroke="midnightblue" d="M483.24,-339.38C434.16,-333.58 366.17,-322.14 310,-300 241.23,-272.9 170.29,-220.2 137.58,-194.23"/>
<polygon fill="midnightblue" stroke="midnightblue" points="139.39,-191.19 129.4,-187.65 135,-196.64 139.39,-191.19"/>
</g>
<!-- Node12&#45;&gt;Node10 -->
<g id="edge75" class="edge">
<title>Node12&#45;&gt;Node10</title>
<path fill="none" stroke="midnightblue" d="M530.02,-336.4C516.11,-328.95 498.29,-316.74 490,-300 463.98,-247.42 467.85,-222.33 490,-168 494.8,-156.23 504.33,-145.86 513.29,-138.05"/>
<polygon fill="midnightblue" stroke="midnightblue" points="515.65,-140.64 521.22,-131.63 511.25,-135.2 515.65,-140.64"/>
</g>
<!-- Node12&#45;&gt;Node11 -->
<g id="edge73" class="edge">
<title>Node12&#45;&gt;Node11</title>
<path fill="none" stroke="midnightblue" d="M603.17,-336.46C648.27,-328.75 713.94,-316.16 770,-300 880.67,-268.1 1007.32,-215.34 1062.65,-191.45"/>
<polygon fill="midnightblue" stroke="midnightblue" points="1064.04,-194.66 1071.82,-187.47 1061.26,-188.24 1064.04,-194.66"/>
</g>
<!-- Node13 -->
<g id="node13" class="node">
<title>Node13</title>
<g id="a_node13"><a xlink:href="ComparisonFunctions_8h.xhtml" target="_top" xlink:title="In this file, comparison functions are defined which should be used across the whole framework.">
<polygon fill="white" stroke="black" points="684,-168.5 684,-187.5 824,-187.5 824,-168.5 684,-168.5"/>
<text text-anchor="middle" x="754" y="-175.5" font-family="Helvetica,sans-Serif" font-size="10.00">../ComparisonFunctions.h</text>
</a>
</g>
</g>
<!-- Node12&#45;&gt;Node13 -->
<g id="edge18" class="edge">
<title>Node12&#45;&gt;Node13</title>
<path fill="none" stroke="midnightblue" d="M552.43,-336.3C561.53,-314.3 588.41,-255.9 629,-224 649.63,-207.79 676.6,-197.1 700.21,-190.23"/>
<polygon fill="midnightblue" stroke="midnightblue" points="701.38,-193.53 710.1,-187.51 699.53,-186.78 701.38,-193.53"/>
</g>
<!-- Node14 -->
<g id="node14" class="node">
<title>Node14</title>
<g id="a_node14"><a xlink:href="Parameter_8h.xhtml" target="_top" xlink:title="In this file, the header of the Parameter class is defined.">
<polygon fill="white" stroke="black" points="619,-112.5 619,-131.5 753,-131.5 753,-112.5 619,-112.5"/>
<text text-anchor="middle" x="686" y="-119.5" font-family="Helvetica,sans-Serif" font-size="10.00">parameters/Parameter.h</text>
</a>
</g>
</g>
<!-- Node12&#45;&gt;Node14 -->
<g id="edge55" class="edge">
<title>Node12&#45;&gt;Node14</title>
<path fill="none" stroke="midnightblue" d="M550.11,-336.25C551.97,-323.45 556.38,-299.06 565,-280 591.35,-221.75 643.18,-165.36 669.63,-138.81"/>
<polygon fill="midnightblue" stroke="midnightblue" points="672.32,-141.08 676.97,-131.56 667.4,-136.1 672.32,-141.08"/>
</g>
<!-- Node15 -->
<g id="node15" class="node">
<title>Node15</title>
<g id="a_node15"><a xlink:href="SimulationRunner_8h.xhtml" target="_top" xlink:title="In this file, the header of the SimulationRunner class is defined.">
<polygon fill="white" stroke="black" points="1184.5,-280.5 1184.5,-299.5 1339.5,-299.5 1339.5,-280.5 1184.5,-280.5"/>
<text text-anchor="middle" x="1262" y="-287.5" font-family="Helvetica,sans-Serif" font-size="10.00">../runner/SimulationRunner.h</text>
</a>
</g>
</g>
<!-- Node12&#45;&gt;Node15 -->
<g id="edge25" class="edge">
<title>Node12&#45;&gt;Node15</title>
<path fill="none" stroke="midnightblue" d="M614.83,-336.92C617.93,-336.59 621,-336.29 624,-336 820.22,-317.32 1051.07,-302.91 1174.19,-295.83"/>
<polygon fill="midnightblue" stroke="midnightblue" points="1174.53,-299.31 1184.31,-295.25 1174.13,-292.33 1174.53,-299.31"/>
</g>
<!-- Node20 -->
<g id="node20" class="node">
<title>Node20</title>
<g id="a_node20"><a xlink:title=" ">
<polygon fill="white" stroke="#bfbfbf" points="1366,-168.5 1366,-187.5 1398,-187.5 1398,-168.5 1366,-168.5"/>
<text text-anchor="middle" x="1382" y="-175.5" font-family="Helvetica,sans-Serif" font-size="10.00">set</text>
</a>
</g>
</g>
<!-- Node12&#45;&gt;Node20 -->
<g id="edge77" class="edge">
<title>Node12&#45;&gt;Node20</title>
<path fill="none" stroke="midnightblue" d="M614.82,-336.84C617.92,-336.54 620.99,-336.25 624,-336 704.37,-329.19 1283.14,-346.56 1349,-300 1381.35,-277.13 1384.39,-225.66 1383.43,-197.78"/>
<polygon fill="midnightblue" stroke="midnightblue" points="1386.93,-197.53 1382.88,-187.74 1379.94,-197.92 1386.93,-197.53"/>
</g>
<!-- Node26 -->
<g id="node26" class="node">
<title>Node26</title>
<g id="a_node26"><a xlink:href="Evaluation_8h.xhtml" target="_top" xlink:title="In this file, the header of the Evaluation class is defined.">
<polygon fill="white" stroke="black" points="1016.5,-224.5 1016.5,-243.5 1157.5,-243.5 1157.5,-224.5 1016.5,-224.5"/>
<text text-anchor="middle" x="1087" y="-231.5" font-family="Helvetica,sans-Serif" font-size="10.00">../evaluation/Evaluation.h</text>
</a>
</g>
</g>
<!-- Node12&#45;&gt;Node26 -->
<g id="edge49" class="edge">
<title>Node12&#45;&gt;Node26</title>
<path fill="none" stroke="midnightblue" d="M614.76,-336.93C705.81,-325.66 862.02,-305.91 888,-300 948.51,-286.23 1016.83,-261.91 1055.62,-247.24"/>
<polygon fill="midnightblue" stroke="midnightblue" points="1057.19,-250.39 1065.29,-243.56 1054.69,-243.85 1057.19,-250.39"/>
</g>
<!-- Node27 -->
<g id="node27" class="node">
<title>Node27</title>
<g id="a_node27"><a xlink:href="StatusBar_8h.xhtml" target="_top" xlink:title="In this file, the header of the StatusBar class is defined.">
<polygon fill="white" stroke="black" points="647,-280.5 647,-299.5 761,-299.5 761,-280.5 647,-280.5"/>
<text text-anchor="middle" x="704" y="-287.5" font-family="Helvetica,sans-Serif" font-size="10.00">../status/StatusBar.h</text>
</a>
</g>
</g>
<!-- Node12&#45;&gt;Node27 -->
<g id="edge56" class="edge">
<title>Node12&#45;&gt;Node27</title>
<path fill="none" stroke="midnightblue" d="M573.56,-336.44C599.52,-327.4 640.67,-313.06 669.8,-302.92"/>
<polygon fill="midnightblue" stroke="midnightblue" points="671.26,-306.11 679.55,-299.52 668.96,-299.5 671.26,-306.11"/>
</g>
<!-- Node13&#45;&gt;Node5 -->
<g id="edge23" class="edge">
<title>Node13&#45;&gt;Node5</title>
<path fill="none" stroke="midnightblue" d="M758.48,-168.18C764.55,-154.84 773.4,-129.27 762,-112 727.12,-59.15 692.42,-71.38 631,-56 453.08,-11.44 231.19,-9.29 147.78,-10.28"/>
<polygon fill="midnightblue" stroke="midnightblue" points="147.57,-6.79 137.62,-10.43 147.67,-13.78 147.57,-6.79"/>
</g>
<!-- Node13&#45;&gt;Node14 -->
<g id="edge19" class="edge">
<title>Node13&#45;&gt;Node14</title>
<path fill="none" stroke="midnightblue" d="M743.07,-168.32C732.83,-160.18 717.28,-147.84 705,-138.09"/>
<polygon fill="midnightblue" stroke="midnightblue" points="707.13,-135.31 697.12,-131.83 702.78,-140.79 707.13,-135.31"/>
</g>
<!-- Node14&#45;&gt;Node3 -->
<g id="edge20" class="edge">
<title>Node14&#45;&gt;Node3</title>
<path fill="none" stroke="midnightblue" d="M670.74,-112.32C655.78,-103.82 632.75,-90.73 615.27,-80.8"/>
<polygon fill="midnightblue" stroke="midnightblue" points="616.65,-77.55 606.23,-75.65 613.19,-83.64 616.65,-77.55"/>
</g>
<!-- Node14&#45;&gt;Node4 -->
<g id="edge21" class="edge">
<title>Node14&#45;&gt;Node4</title>
<path fill="none" stroke="midnightblue" d="M687.49,-112.37C690.56,-94.62 697.63,-53.67 701.79,-29.6"/>
<polygon fill="midnightblue" stroke="midnightblue" points="705.26,-30.04 703.52,-19.59 698.36,-28.85 705.26,-30.04"/>
</g>
<!-- Node14&#45;&gt;Node6 -->
<g id="edge22" class="edge">
<title>Node14&#45;&gt;Node6</title>
<path fill="none" stroke="midnightblue" d="M715.19,-112.46C782.32,-92.82 947.66,-44.45 1023.21,-22.35"/>
<polygon fill="midnightblue" stroke="midnightblue" points="1024.21,-25.7 1032.83,-19.53 1022.25,-18.98 1024.21,-25.7"/>
</g>
<!-- Node15&#45;&gt;Node3 -->
<g id="edge26" class="edge">
<title>Node15&#45;&gt;Node3</title>
<path fill="none" stroke="midnightblue" d="M1263.67,-280.22C1267.33,-258.01 1273.48,-199.17 1243,-168 1239.93,-164.86 936.34,-112.68 932,-112 824.13,-95.18 696.42,-79.43 632.22,-71.81"/>
<polygon fill="midnightblue" stroke="midnightblue" points="632.44,-68.31 622.1,-70.61 631.62,-75.26 632.44,-68.31"/>
</g>
<!-- Node15&#45;&gt;Node5 -->
<g id="edge43" class="edge">
<title>Node15&#45;&gt;Node5</title>
<path fill="none" stroke="midnightblue" d="M1266.62,-280.34C1271.06,-271.49 1277.45,-257.22 1280,-244 1286.55,-210.01 1288.46,-191.44 1263,-168 1094.79,-13.14 320.61,-9.49 148.13,-10.63"/>
<polygon fill="midnightblue" stroke="midnightblue" points="147.84,-7.13 137.87,-10.71 147.9,-14.13 147.84,-7.13"/>
</g>
<!-- Node15&#45;&gt;Node6 -->
<g id="edge46" class="edge">
<title>Node15&#45;&gt;Node6</title>
<path fill="none" stroke="midnightblue" d="M1275.2,-280.46C1286.84,-272.33 1303.53,-259.12 1314,-244 1331.53,-218.68 1338,-209.8 1338,-179 1338,-179 1338,-179 1338,-121 1338,-70.63 1177.35,-33.09 1101.18,-18.12"/>
<polygon fill="midnightblue" stroke="midnightblue" points="1101.5,-14.62 1091.02,-16.16 1100.17,-21.49 1101.5,-14.62"/>
</g>
<!-- Node15&#45;&gt;Node8 -->
<g id="edge42" class="edge">
<title>Node15&#45;&gt;Node8</title>
<path fill="none" stroke="midnightblue" d="M1184.25,-286.38C1115.71,-282.25 1023.24,-271.57 1000,-244 989.3,-231.31 992.5,-211.83 997.18,-197.51"/>
<polygon fill="midnightblue" stroke="midnightblue" points="1000.61,-198.35 1000.85,-187.75 994.06,-195.88 1000.61,-198.35"/>
</g>
<!-- Node15&#45;&gt;Node11 -->
<g id="edge45" class="edge">
<title>Node15&#45;&gt;Node11</title>
<path fill="none" stroke="midnightblue" d="M1184.36,-285.89C1118.14,-281.41 1030.23,-270.51 1008,-244 1002.29,-237.19 1003.45,-231.64 1008,-224 1014.22,-213.56 1041.08,-200.11 1062.59,-190.65"/>
<polygon fill="midnightblue" stroke="midnightblue" points="1064.19,-193.77 1072,-186.61 1061.43,-187.34 1064.19,-193.77"/>
</g>
<!-- Node15&#45;&gt;Node13 -->
<g id="edge27" class="edge">
<title>Node15&#45;&gt;Node13</title>
<path fill="none" stroke="midnightblue" d="M1197.96,-280.48C1142.19,-272.59 1059.32,-259.71 988,-244 917.56,-228.48 836.78,-204.68 790.92,-190.59"/>
<polygon fill="midnightblue" stroke="midnightblue" points="791.73,-187.18 781.14,-187.57 789.66,-193.87 791.73,-187.18"/>
</g>
<!-- Node16 -->
<g id="node16" class="node">
<title>Node16</title>
<g id="a_node16"><a xlink:href="Multithreaded_8h.xhtml" target="_top" xlink:title="In this file, the header of the Multithreaded class is defined.">
<polygon fill="white" stroke="black" points="1474.5,-224.5 1474.5,-243.5 1601.5,-243.5 1601.5,-224.5 1474.5,-224.5"/>
<text text-anchor="middle" x="1538" y="-231.5" font-family="Helvetica,sans-Serif" font-size="10.00">../utils/Multithreaded.h</text>
</a>
</g>
</g>
<!-- Node15&#45;&gt;Node16 -->
<g id="edge28" class="edge">
<title>Node15&#45;&gt;Node16</title>
<path fill="none" stroke="midnightblue" d="M1305.73,-280.44C1354.18,-270.96 1432.33,-255.67 1484.42,-245.48"/>
<polygon fill="midnightblue" stroke="midnightblue" points="1485.33,-248.87 1494.47,-243.52 1483.99,-242 1485.33,-248.87"/>
</g>
<!-- Node18 -->
<g id="node18" class="node">
<title>Node18</title>
<g id="a_node18"><a xlink:title=" ">
<polygon fill="white" stroke="#bfbfbf" points="1795.5,-112.5 1795.5,-131.5 1842.5,-131.5 1842.5,-112.5 1795.5,-112.5"/>
<text text-anchor="middle" x="1819" y="-119.5" font-family="Helvetica,sans-Serif" font-size="10.00">queue</text>
</a>
</g>
</g>
<!-- Node15&#45;&gt;Node18 -->
<g id="edge48" class="edge">
<title>Node15&#45;&gt;Node18</title>
<path fill="none" stroke="midnightblue" d="M1339.57,-285.46C1473.93,-277.64 1741.6,-253.97 1804,-188 1815.55,-175.78 1818.83,-156.52 1819.5,-142.13"/>
<polygon fill="midnightblue" stroke="midnightblue" points="1823,-141.89 1819.58,-131.86 1816,-141.83 1823,-141.89"/>
</g>
<!-- Node15&#45;&gt;Node20 -->
<g id="edge44" class="edge">
<title>Node15&#45;&gt;Node20</title>
<path fill="none" stroke="midnightblue" d="M1290.21,-280.47C1309.66,-273.37 1334.98,-261.56 1352,-244 1364.68,-230.91 1372.68,-211.5 1377.2,-197.29"/>
<polygon fill="midnightblue" stroke="midnightblue" points="1380.57,-198.21 1379.99,-187.64 1373.85,-196.27 1380.57,-198.21"/>
</g>
<!-- Node25 -->
<g id="node25" class="node">
<title>Node25</title>
<g id="a_node25"><a xlink:title=" ">
<polygon fill="white" stroke="#bfbfbf" points="1166,-168.5 1166,-187.5 1234,-187.5 1234,-168.5 1166,-168.5"/>
<text text-anchor="middle" x="1200" y="-175.5" font-family="Helvetica,sans-Serif" font-size="10.00">filesystem</text>
</a>
</g>
</g>
<!-- Node15&#45;&gt;Node25 -->
<g id="edge47" class="edge">
<title>Node15&#45;&gt;Node25</title>
<path fill="none" stroke="midnightblue" d="M1257.13,-280.37C1246.95,-262.3 1223.21,-220.18 1209.76,-196.31"/>
<polygon fill="midnightblue" stroke="midnightblue" points="1212.8,-194.58 1204.84,-187.59 1206.7,-198.02 1212.8,-194.58"/>
</g>
<!-- Node16&#45;&gt;Node11 -->
<g id="edge31" class="edge">
<title>Node16&#45;&gt;Node11</title>
<path fill="none" stroke="midnightblue" d="M1474.25,-225.82C1398.55,-217.22 1268.5,-202.19 1157,-188 1144.88,-186.46 1131.52,-184.66 1120.01,-183.07"/>
<polygon fill="midnightblue" stroke="midnightblue" points="1120.44,-179.6 1110.05,-181.69 1119.47,-186.53 1120.44,-179.6"/>
</g>
<!-- Node17 -->
<g id="node17" class="node">
<title>Node17</title>
<g id="a_node17"><a xlink:title=" ">
<polygon fill="white" stroke="#bfbfbf" points="1589,-112.5 1589,-131.5 1637,-131.5 1637,-112.5 1589,-112.5"/>
<text text-anchor="middle" x="1613" y="-119.5" font-family="Helvetica,sans-Serif" font-size="10.00">mutex</text>
</a>
</g>
</g>
<!-- Node16&#45;&gt;Node17 -->
<g id="edge29" class="edge">
<title>Node16&#45;&gt;Node17</title>
<path fill="none" stroke="midnightblue" d="M1565.28,-224.45C1582.29,-217.55 1602.83,-205.97 1613,-188 1620.91,-174.04 1620.03,-155.53 1617.69,-141.84"/>
<polygon fill="midnightblue" stroke="midnightblue" points="1621.03,-140.73 1615.54,-131.67 1614.18,-142.18 1621.03,-140.73"/>
</g>
<!-- Node16&#45;&gt;Node18 -->
<g id="edge30" class="edge">
<title>Node16&#45;&gt;Node18</title>
<path fill="none" stroke="midnightblue" d="M1601.59,-227.24C1663.64,-220.57 1752.7,-207.89 1781,-188 1797.01,-176.75 1807.29,-156.44 1813.06,-141.5"/>
<polygon fill="midnightblue" stroke="midnightblue" points="1816.47,-142.38 1816.49,-131.79 1809.86,-140.05 1816.47,-142.38"/>
</g>
<!-- Node19 -->
<g id="node19" class="node">
<title>Node19</title>
<g id="a_node19"><a xlink:title=" ">
<polygon fill="white" stroke="#bfbfbf" points="1538.5,-168.5 1538.5,-187.5 1603.5,-187.5 1603.5,-168.5 1538.5,-168.5"/>
<text text-anchor="middle" x="1571" y="-175.5" font-family="Helvetica,sans-Serif" font-size="10.00">functional</text>
</a>
</g>
</g>
<!-- Node16&#45;&gt;Node19 -->
<g id="edge32" class="edge">
<title>Node16&#45;&gt;Node19</title>
<path fill="none" stroke="midnightblue" d="M1543.45,-224.08C1548.01,-216.61 1554.67,-205.72 1560.29,-196.52"/>
<polygon fill="midnightblue" stroke="midnightblue" points="1563.42,-198.11 1565.65,-187.75 1557.45,-194.46 1563.42,-198.11"/>
</g>
<!-- Node16&#45;&gt;Node20 -->
<g id="edge33" class="edge">
<title>Node16&#45;&gt;Node20</title>
<path fill="none" stroke="midnightblue" d="M1512.85,-224.48C1488.3,-216.14 1449.67,-202.95 1407.7,-188.21"/>
<polygon fill="midnightblue" stroke="midnightblue" points="1408.72,-184.86 1398.13,-184.84 1406.4,-191.46 1408.72,-184.86"/>
</g>
<!-- Node21 -->
<g id="node21" class="node">
<title>Node21</title>
<g id="a_node21"><a xlink:href="ThreadsafeQueue_8h.xhtml" target="_top" xlink:title="In this file, the header of the ThreadSafeQueue class is defined.">
<polygon fill="white" stroke="black" points="1660,-168.5 1660,-187.5 1772,-187.5 1772,-168.5 1660,-168.5"/>
<text text-anchor="middle" x="1716" y="-175.5" font-family="Helvetica,sans-Serif" font-size="10.00">ThreadsafeQueue.h</text>
</a>
</g>
</g>
<!-- Node16&#45;&gt;Node21 -->
<g id="edge34" class="edge">
<title>Node16&#45;&gt;Node21</title>
<path fill="none" stroke="midnightblue" d="M1566.2,-224.44C1596.41,-215.28 1644.51,-200.69 1678.03,-190.52"/>
<polygon fill="midnightblue" stroke="midnightblue" points="1679.37,-193.77 1687.93,-187.52 1677.34,-187.07 1679.37,-193.77"/>
</g>
<!-- Node23 -->
<g id="node23" class="node">
<title>Node23</title>
<g id="a_node23"><a xlink:href="Multithreaded_8tpp.xhtml" target="_top" xlink:title="In this file, the implementation of the Multithreaded class is defined.">
<polygon fill="white" stroke="black" points="1416,-168.5 1416,-187.5 1520,-187.5 1520,-168.5 1416,-168.5"/>
<text text-anchor="middle" x="1468" y="-175.5" font-family="Helvetica,sans-Serif" font-size="10.00">Multithreaded.tpp</text>
</a>
</g>
</g>
<!-- Node16&#45;&gt;Node23 -->
<g id="edge39" class="edge">
<title>Node16&#45;&gt;Node23</title>
<path fill="none" stroke="midnightblue" d="M1526.75,-224.32C1516.2,-216.18 1500.2,-203.84 1487.56,-194.09"/>
<polygon fill="midnightblue" stroke="midnightblue" points="1489.51,-191.17 1479.45,-187.83 1485.23,-196.71 1489.51,-191.17"/>
</g>
<!-- Node21&#45;&gt;Node17 -->
<g id="edge36" class="edge">
<title>Node21&#45;&gt;Node17</title>
<path fill="none" stroke="midnightblue" d="M1699.45,-168.32C1683.01,-159.7 1657.57,-146.36 1638.53,-136.39"/>
<polygon fill="midnightblue" stroke="midnightblue" points="1639.99,-133.2 1629.51,-131.65 1636.74,-139.4 1639.99,-133.2"/>
</g>
<!-- Node21&#45;&gt;Node18 -->
<g id="edge35" class="edge">
<title>Node21&#45;&gt;Node18</title>
<path fill="none" stroke="midnightblue" d="M1732.55,-168.32C1748.99,-159.7 1774.43,-146.36 1793.47,-136.39"/>
<polygon fill="midnightblue" stroke="midnightblue" points="1795.26,-139.4 1802.49,-131.65 1792.01,-133.2 1795.26,-139.4"/>
</g>
<!-- Node22 -->
<g id="node22" class="node">
<title>Node22</title>
<g id="a_node22"><a xlink:href="ThreadsafeQueue_8tpp.xhtml" target="_top" xlink:title="In this file, the implementation of the ThreadSafeQueue class is defined.">
<polygon fill="white" stroke="black" points="1655,-112.5 1655,-131.5 1777,-131.5 1777,-112.5 1655,-112.5"/>
<text text-anchor="middle" x="1716" y="-119.5" font-family="Helvetica,sans-Serif" font-size="10.00">ThreadsafeQueue.tpp</text>
</a>
</g>
</g>
<!-- Node21&#45;&gt;Node22 -->
<g id="edge37" class="edge">
<title>Node21&#45;&gt;Node22</title>
<path fill="none" stroke="midnightblue" d="M1710.83,-168.08C1709.32,-160.93 1708.89,-150.64 1709.54,-141.69"/>
<polygon fill="midnightblue" stroke="midnightblue" points="1713.02,-142.13 1710.87,-131.75 1706.08,-141.2 1713.02,-142.13"/>
</g>
<!-- Node22&#45;&gt;Node21 -->
<g id="edge38" class="edge">
<title>Node22&#45;&gt;Node21</title>
<path fill="none" stroke="midnightblue" d="M1721.13,-131.75C1722.66,-138.86 1723.1,-149.14 1722.47,-158.1"/>
<polygon fill="midnightblue" stroke="midnightblue" points="1718.99,-157.71 1721.17,-168.08 1725.93,-158.62 1718.99,-157.71"/>
</g>
<!-- Node23&#45;&gt;Node10 -->
<g id="edge41" class="edge">
<title>Node23&#45;&gt;Node10</title>
<path fill="none" stroke="midnightblue" d="M1415.8,-168.94C1412.83,-168.59 1409.88,-168.28 1407,-168 1054.04,-134.08 963.41,-160.87 610,-132 593.54,-130.66 575.14,-128.49 560.57,-126.63"/>
<polygon fill="midnightblue" stroke="midnightblue" points="560.64,-123.11 550.27,-125.27 559.73,-130.05 560.64,-123.11"/>
</g>
<!-- Node24 -->
<g id="node24" class="node">
<title>Node24</title>
<g id="a_node24"><a xlink:title=" ">
<polygon fill="white" stroke="#bfbfbf" points="1445,-112.5 1445,-131.5 1491,-131.5 1491,-112.5 1445,-112.5"/>
<text text-anchor="middle" x="1468" y="-119.5" font-family="Helvetica,sans-Serif" font-size="10.00">future</text>
</a>
</g>
</g>
<!-- Node23&#45;&gt;Node24 -->
<g id="edge40" class="edge">
<title>Node23&#45;&gt;Node24</title>
<path fill="none" stroke="midnightblue" d="M1468,-168.08C1468,-161.01 1468,-150.86 1468,-141.99"/>
<polygon fill="midnightblue" stroke="midnightblue" points="1471.5,-141.75 1468,-131.75 1464.5,-141.75 1471.5,-141.75"/>
</g>
<!-- Node26&#45;&gt;Node3 -->
<g id="edge50" class="edge">
<title>Node26&#45;&gt;Node3</title>
<path fill="none" stroke="midnightblue" d="M1097.13,-224.27C1111.26,-211.05 1133.59,-185.64 1119,-168 1103.29,-149 753.67,-92.54 632.17,-73.41"/>
<polygon fill="midnightblue" stroke="midnightblue" points="632.56,-69.93 622.14,-71.84 631.47,-76.85 632.56,-69.93"/>
</g>
<!-- Node26&#45;&gt;Node8 -->
<g id="edge51" class="edge">
<title>Node26&#45;&gt;Node8</title>
<path fill="none" stroke="midnightblue" d="M1073.83,-224.32C1061.15,-215.98 1041.77,-203.21 1026.79,-193.35"/>
<polygon fill="midnightblue" stroke="midnightblue" points="1028.42,-190.23 1018.14,-187.65 1024.57,-196.08 1028.42,-190.23"/>
</g>
<!-- Node26&#45;&gt;Node11 -->
<g id="edge54" class="edge">
<title>Node26&#45;&gt;Node11</title>
<path fill="none" stroke="midnightblue" d="M1087.66,-224.08C1088.18,-217.01 1088.94,-206.86 1089.59,-197.99"/>
<polygon fill="midnightblue" stroke="midnightblue" points="1093.1,-197.98 1090.35,-187.75 1086.12,-197.47 1093.1,-197.98"/>
</g>
<!-- Node26&#45;&gt;Node20 -->
<g id="edge52" class="edge">
<title>Node26&#45;&gt;Node20</title>
<path fill="none" stroke="midnightblue" d="M1133.74,-224.44C1196.56,-212.95 1306.07,-192.9 1355.93,-183.77"/>
<polygon fill="midnightblue" stroke="midnightblue" points="1356.7,-187.19 1365.9,-181.95 1355.44,-180.3 1356.7,-187.19"/>
</g>
<!-- Node26&#45;&gt;Node25 -->
<g id="edge53" class="edge">
<title>Node26&#45;&gt;Node25</title>
<path fill="none" stroke="midnightblue" d="M1104.91,-224.44C1123.25,-215.68 1152.01,-201.94 1173.09,-191.86"/>
<polygon fill="midnightblue" stroke="midnightblue" points="1174.67,-194.99 1182.18,-187.52 1171.65,-188.67 1174.67,-194.99"/>
</g>
<!-- Node27&#45;&gt;Node3 -->
<g id="edge57" class="edge">
<title>Node27&#45;&gt;Node3</title>
<path fill="none" stroke="midnightblue" d="M683.46,-280.48C640.7,-261.43 543.21,-210.73 509,-132 498.42,-107.66 526.61,-89.94 552.77,-79.2"/>
<polygon fill="midnightblue" stroke="midnightblue" points="554.16,-82.42 562.24,-75.56 551.65,-75.88 554.16,-82.42"/>
</g>
<!-- Node27&#45;&gt;Node5 -->
<g id="edge70" class="edge">
<title>Node27&#45;&gt;Node5</title>
<path fill="none" stroke="midnightblue" d="M646.75,-289.74C501.69,-290.21 126.29,-282.13 57,-188 19.58,-137.17 72.57,-60.73 99.7,-27.45"/>
<polygon fill="midnightblue" stroke="midnightblue" points="102.52,-29.53 106.27,-19.62 97.16,-25.03 102.52,-29.53"/>
</g>
<!-- Node27&#45;&gt;Node6 -->
<g id="edge69" class="edge">
<title>Node27&#45;&gt;Node6</title>
<path fill="none" stroke="midnightblue" d="M718.8,-280.43C734.03,-271.54 758.38,-257.13 779,-244 885.78,-176.01 919.39,-165.41 1009,-76 1024.07,-60.96 1039.22,-41.89 1049.44,-28.3"/>
<polygon fill="midnightblue" stroke="midnightblue" points="1052.53,-30.01 1055.67,-19.89 1046.9,-25.85 1052.53,-30.01"/>
</g>
<!-- Node27&#45;&gt;Node8 -->
<g id="edge68" class="edge">
<title>Node27&#45;&gt;Node8</title>
<path fill="none" stroke="midnightblue" d="M724.65,-280.39C766.96,-262.76 859.57,-224.15 860,-224 894.91,-211.34 935.31,-198.99 964.59,-190.43"/>
<polygon fill="midnightblue" stroke="midnightblue" points="965.82,-193.72 974.45,-187.57 963.87,-187 965.82,-193.72"/>
</g>
<!-- Node27&#45;&gt;Node25 -->
<g id="edge71" class="edge">
<title>Node27&#45;&gt;Node25</title>
<path fill="none" stroke="midnightblue" d="M761.21,-286.5C877.68,-280.98 1134.15,-266.42 1167,-244 1182.64,-233.32 1191.28,-212.91 1195.75,-197.8"/>
<polygon fill="midnightblue" stroke="midnightblue" points="1199.18,-198.5 1198.31,-187.95 1192.4,-196.74 1199.18,-198.5"/>
</g>
<!-- Node28 -->
<g id="node28" class="node">
<title>Node28</title>
<g id="a_node28"><a xlink:href="ValueMap_8h.xhtml" target="_top" xlink:title="In this file, the header of the ValueMap class is defined.">
<polygon fill="white" stroke="black" points="638,-224.5 638,-243.5 770,-243.5 770,-224.5 638,-224.5"/>
<text text-anchor="middle" x="704" y="-231.5" font-family="Helvetica,sans-Serif" font-size="10.00">../controller/ValueMap.h</text>
</a>
</g>
</g>
<!-- Node27&#45;&gt;Node28 -->
<g id="edge58" class="edge">
<title>Node27&#45;&gt;Node28</title>
<path fill="none" stroke="midnightblue" d="M704,-280.08C704,-273.01 704,-262.86 704,-253.99"/>
<polygon fill="midnightblue" stroke="midnightblue" points="707.5,-253.75 704,-243.75 700.5,-253.75 707.5,-253.75"/>
</g>
<!-- Node28&#45;&gt;Node3 -->
<g id="edge59" class="edge">
<title>Node28&#45;&gt;Node3</title>
<path fill="none" stroke="midnightblue" d="M693.27,-224.47C673.81,-208.42 632.61,-171.77 610,-132 601.83,-117.63 596.9,-99.43 594.12,-85.95"/>
<polygon fill="midnightblue" stroke="midnightblue" points="597.53,-85.12 592.26,-75.92 590.64,-86.39 597.53,-85.12"/>
</g>
<!-- Node28&#45;&gt;Node5 -->
<g id="edge63" class="edge">
<title>Node28&#45;&gt;Node5</title>
<path fill="none" stroke="midnightblue" d="M637.84,-225.59C495.31,-209.02 169.22,-167.63 134,-132 107.15,-104.84 108.11,-56.33 111.09,-29.73"/>
<polygon fill="midnightblue" stroke="midnightblue" points="114.56,-30.17 112.41,-19.8 107.62,-29.25 114.56,-30.17"/>
</g>
<!-- Node28&#45;&gt;Node6 -->
<g id="edge65" class="edge">
<title>Node28&#45;&gt;Node6</title>
<path fill="none" stroke="midnightblue" d="M737.85,-224.43C764.62,-216.91 802.45,-204.56 833,-188 878.34,-163.42 998.2,-64.46 1043.93,-26.2"/>
<polygon fill="midnightblue" stroke="midnightblue" points="1046.39,-28.7 1051.8,-19.6 1041.89,-23.34 1046.39,-28.7"/>
</g>
<!-- Node28&#45;&gt;Node10 -->
<g id="edge64" class="edge">
<title>Node28&#45;&gt;Node10</title>
<path fill="none" stroke="midnightblue" d="M679,-224.36C658.04,-216.52 627.8,-203.78 604,-188 582.74,-173.9 561.76,-153.28 548.39,-139.06"/>
<polygon fill="midnightblue" stroke="midnightblue" points="550.81,-136.52 541.46,-131.53 545.66,-141.26 550.81,-136.52"/>
</g>
<!-- Node28&#45;&gt;Node11 -->
<g id="edge62" class="edge">
<title>Node28&#45;&gt;Node11</title>
<path fill="none" stroke="midnightblue" d="M770.14,-228.42C840.45,-222.72 954.92,-211.07 1061.86,-187.88"/>
<polygon fill="midnightblue" stroke="midnightblue" points="1062.84,-191.25 1071.85,-185.67 1061.33,-184.41 1062.84,-191.25"/>
</g>
<!-- Node28&#45;&gt;Node13 -->
<g id="edge60" class="edge">
<title>Node28&#45;&gt;Node13</title>
<path fill="none" stroke="midnightblue" d="M712.26,-224.08C719.46,-216.3 730.11,-204.8 738.85,-195.37"/>
<polygon fill="midnightblue" stroke="midnightblue" points="741.67,-197.47 745.9,-187.75 736.53,-192.71 741.67,-197.47"/>
</g>
<!-- Node28&#45;&gt;Node14 -->
<g id="edge61" class="edge">
<title>Node28&#45;&gt;Node14</title>
<path fill="none" stroke="midnightblue" d="M696.33,-224.46C689.22,-215.93 679.15,-202.09 675,-188 670.46,-172.56 674.22,-154.47 678.54,-141.3"/>
<polygon fill="midnightblue" stroke="midnightblue" points="681.96,-142.15 682.13,-131.56 675.39,-139.73 681.96,-142.15"/>
</g>
<!-- Node28&#45;&gt;Node17 -->
<g id="edge67" class="edge">
<title>Node28&#45;&gt;Node17</title>
<path fill="none" stroke="midnightblue" d="M734.77,-224.41C795.33,-207.55 925.94,-171.47 947,-168 1190.03,-127.98 1254.34,-149.78 1500,-132 1526.43,-130.09 1556.33,-127.7 1578.73,-125.86"/>
<polygon fill="midnightblue" stroke="midnightblue" points="1579.08,-129.34 1588.76,-125.03 1578.51,-122.37 1579.08,-129.34"/>
</g>
<!-- Node28&#45;&gt;Node20 -->
<g id="edge66" class="edge">
<title>Node28&#45;&gt;Node20</title>
<path fill="none" stroke="midnightblue" d="M770.24,-227.72C915.75,-216.14 1258.05,-188.87 1355.62,-181.1"/>
<polygon fill="midnightblue" stroke="midnightblue" points="1356.09,-184.57 1365.78,-180.29 1355.54,-177.6 1356.09,-184.57"/>
</g>
</g>
</svg>
        <g id="navigator" transform="translate(0 0)" fill="#404254">
                <rect fill="#f2f5e9" fill-opacity="0.5" stroke="#606060" stroke-width=".5" x="0" y="0" width="60" height="60"/>
                <use id="zoomplus" xlink:href="#zoomPlus" x="17" y="9" onmousedown="handleZoom(evt,'in')"/>
                <use id="zoomminus" xlink:href="#zoomMin" x="42" y="9" onmousedown="handleZoom(evt,'out')"/>
                <use id="reset" xlink:href="#resetDef" x="30" y="36" onmousedown="handleReset()"/>
                <g id="arrowUp" xlink:href="#dirArrow" transform="translate(30 24)" onmousedown="handlePan(0,-1)">
                  <use xlink:href="#rim" fill="#404040">
                        <set attributeName="fill" to="#808080" begin="arrowUp.mouseover" end="arrowUp.mouseout"/>
                  </use>
                  <path fill="none" stroke="white" stroke-width="1.5" d="M0,-3.0v7 M-2.5,-0.5L0,-3.0L2.5,-0.5"/>
                </g>
                <g id="arrowRight" xlink:href="#dirArrow" transform="rotate(90) translate(36 -43)" onmousedown="handlePan(1,0)">
                  <use xlink:href="#rim" fill="#404040">
                        <set attributeName="fill" to="#808080" begin="arrowRight.mouseover" end="arrowRight.mouseout"/>
                  </use>
                  <path fill="none" stroke="white" stroke-width="1.5" d="M0,-3.0v7 M-2.5,-0.5L0,-3.0L2.5,-0.5"/>
                </g>
                <g id="arrowDown" xlink:href="#dirArrow" transform="rotate(180) translate(-30 -48)" onmousedown="handlePan(0,1)">
                  <use xlink:href="#rim" fill="#404040">
                        <set attributeName="fill" to="#808080" begin="arrowDown.mouseover" end="arrowDown.mouseout"/>
                  </use>
                  <path fill="none" stroke="white" stroke-width="1.5" d="M0,-3.0v7 M-2.5,-0.5L0,-3.0L2.5,-0.5"/>
                </g>
                <g id="arrowLeft" xlink:href="#dirArrow" transform="rotate(270) translate(-36 17)" onmousedown="handlePan(-1,0)">
                  <use xlink:href="#rim" fill="#404040">
                        <set attributeName="fill" to="#808080" begin="arrowLeft.mouseover" end="arrowLeft.mouseout"/>
                  </use>
                  <path fill="none" stroke="white" stroke-width="1.5" d="M0,-3.0v7 M-2.5,-0.5L0,-3.0L2.5,-0.5"/>
                </g>
        </g>
        <svg viewBox="0 0 15 15" width="100%" height="30px" preserveAspectRatio="xMaxYMin meet">
         <g id="arrow_out" transform="scale(0.3 0.3)">
          <a xlink:href="Optimizer_8cpp__incl_org.svg" target="_base">
           <rect id="button" ry="5" rx="5" y="6" x="6" height="38" width="38"
                fill="#f2f5e9" fill-opacity="0.5" stroke="#606060" stroke-width="1.0"/>
           <path id="arrow"
             d="M 11.500037,31.436501 C 11.940474,20.09759 22.043105,11.32322 32.158766,21.979434 L 37.068811,17.246167 C 37.068811,17.246167 37.088388,32 37.088388,32 L 22.160133,31.978069 C 22.160133,31.978069 26.997745,27.140456 26.997745,27.140456 C 18.528582,18.264221 13.291696,25.230495 11.500037,31.436501 z"
             style="fill:#404040;"/>
          </a>
         </g>
        </svg>
</svg>
