<?xml version="1.0" encoding="UTF-8" standalone="no"?>
<!DOCTYPE svg PUBLIC "-//W3C//DTD SVG 1.1//EN"
 "http://www.w3.org/Graphics/SVG/1.1/DTD/svg11.dtd">
<!-- Generated by graphviz version 2.43.0 (0)
 -->
<!-- Title: src/parameters/ParameterDefinition.h Pages: 1 -->
<svg width="213pt" height="151pt"
 viewBox="0.00 0.00 212.50 151.00" xmlns="http://www.w3.org/2000/svg" xmlns:xlink="http://www.w3.org/1999/xlink">
<g id="graph0" class="graph" transform="scale(1 1) rotate(0) translate(4 147)">
<title>src/parameters/ParameterDefinition.h</title>
<polygon fill="white" stroke="transparent" points="-4,4 -4,-147 208.5,-147 208.5,4 -4,4"/>
<!-- Node1 -->
<g id="node1" class="node">
<title>Node1</title>
<g id="a_node1"><a xlink:title="In this file, the header of the ParameterDefinition class is defined.">
<polygon fill="#bfbfbf" stroke="black" points="0,-112.5 0,-142.5 143,-142.5 143,-112.5 0,-112.5"/>
<text text-anchor="start" x="8" y="-130.5" font-family="Helvetica,sans-Serif" font-size="10.00">src/parameters/Parameter</text>
<text text-anchor="middle" x="71.5" y="-119.5" font-family="Helvetica,sans-Serif" font-size="10.00">Definition.h</text>
</a>
</g>
</g>
<!-- Node2 -->
<g id="node2" class="node">
<title>Node2</title>
<g id="a_node2"><a xlink:href="Types_8h.xhtml" target="_top" xlink:title="In this file, types are defined which should be used across the whole framework.">
<polygon fill="white" stroke="black" points="71.5,-56.5 71.5,-75.5 133.5,-75.5 133.5,-56.5 71.5,-56.5"/>
<text text-anchor="middle" x="102.5" y="-63.5" font-family="Helvetica,sans-Serif" font-size="10.00">../Types.h</text>
</a>
</g>
</g>
<!-- Node1&#45;&gt;Node2 -->
<g id="edge1" class="edge">
<title>Node1&#45;&gt;Node2</title>
<path fill="none" stroke="midnightblue" d="M78.85,-112.4C83.17,-104.11 88.67,-93.55 93.27,-84.71"/>
<polygon fill="midnightblue" stroke="midnightblue" points="96.47,-86.14 97.99,-75.66 90.26,-82.91 96.47,-86.14"/>
</g>
<!-- Node3 -->
<g id="node3" class="node">
<title>Node3</title>
<g id="a_node3"><a xlink:title=" ">
<polygon fill="white" stroke="#bfbfbf" points="18.5,-0.5 18.5,-19.5 62.5,-19.5 62.5,-0.5 18.5,-0.5"/>
<text text-anchor="middle" x="40.5" y="-7.5" font-family="Helvetica,sans-Serif" font-size="10.00">string</text>
</a>
</g>
</g>
<!-- Node1&#45;&gt;Node3 -->
<g id="edge5" class="edge">
<title>Node1&#45;&gt;Node3</title>
<path fill="none" stroke="midnightblue" d="M67.7,-112.34C62.11,-91.53 51.68,-52.66 45.49,-29.58"/>
<polygon fill="midnightblue" stroke="midnightblue" points="48.8,-28.42 42.83,-19.67 42.04,-30.23 48.8,-28.42"/>
</g>
<!-- Node2&#45;&gt;Node3 -->
<g id="edge2" class="edge">
<title>Node2&#45;&gt;Node3</title>
<path fill="none" stroke="midnightblue" d="M92.54,-56.32C83.37,-48.34 69.56,-36.31 58.47,-26.65"/>
<polygon fill="midnightblue" stroke="midnightblue" points="60.48,-23.76 50.64,-19.83 55.88,-29.04 60.48,-23.76"/>
</g>
<!-- Node4 -->
<g id="node4" class="node">
<title>Node4</title>
<g id="a_node4"><a xlink:title=" ">
<polygon fill="white" stroke="#bfbfbf" points="81,-0.5 81,-19.5 128,-19.5 128,-0.5 81,-0.5"/>
<text text-anchor="middle" x="104.5" y="-7.5" font-family="Helvetica,sans-Serif" font-size="10.00">vector</text>
</a>
</g>
</g>
<!-- Node2&#45;&gt;Node4 -->
<g id="edge3" class="edge">
<title>Node2&#45;&gt;Node4</title>
<path fill="none" stroke="midnightblue" d="M102.83,-56.08C103.09,-49.01 103.47,-38.86 103.8,-29.99"/>
<polygon fill="midnightblue" stroke="midnightblue" points="107.3,-29.87 104.18,-19.75 100.31,-29.61 107.3,-29.87"/>
</g>
<!-- Node5 -->
<g id="node5" class="node">
<title>Node5</title>
<g id="a_node5"><a xlink:title=" ">
<polygon fill="white" stroke="#bfbfbf" points="146.5,-0.5 146.5,-19.5 204.5,-19.5 204.5,-0.5 146.5,-0.5"/>
<text text-anchor="middle" x="175.5" y="-7.5" font-family="Helvetica,sans-Serif" font-size="10.00">memory</text>
</a>
</g>
</g>
<!-- Node2&#45;&gt;Node5 -->
<g id="edge4" class="edge">
<title>Node2&#45;&gt;Node5</title>
<path fill="none" stroke="midnightblue" d="M114.23,-56.32C125.34,-48.11 142.24,-35.6 155.48,-25.81"/>
<polygon fill="midnightblue" stroke="midnightblue" points="157.6,-28.59 163.56,-19.83 153.44,-22.97 157.6,-28.59"/>
</g>
</g>
</svg>
