<?xml version="1.0" encoding="UTF-8" standalone="no"?>
<!DOCTYPE svg PUBLIC "-//W3C//DTD SVG 1.1//EN"
 "http://www.w3.org/Graphics/SVG/1.1/DTD/svg11.dtd">
<!-- Generated by graphviz version 2.43.0 (0)
 -->
<!-- Title: src/optimizer/direct/ParameterNormalizer.h Pages: 1 -->
<svg width="308pt" height="151pt"
 viewBox="0.00 0.00 307.50 151.00" xmlns="http://www.w3.org/2000/svg" xmlns:xlink="http://www.w3.org/1999/xlink">
<g id="graph0" class="graph" transform="scale(1 1) rotate(0) translate(4 147)">
<title>src/optimizer/direct/ParameterNormalizer.h</title>
<polygon fill="white" stroke="transparent" points="-4,4 -4,-147 303.5,-147 303.5,4 -4,4"/>
<!-- Node1 -->
<g id="node1" class="node">
<title>Node1</title>
<g id="a_node1"><a xlink:title="In this file, the header of the ParameterNormalizer class is defined.">
<polygon fill="#bfbfbf" stroke="black" points="109.5,-112.5 109.5,-142.5 241.5,-142.5 241.5,-112.5 109.5,-112.5"/>
<text text-anchor="start" x="117.5" y="-130.5" font-family="Helvetica,sans-Serif" font-size="10.00">src/optimizer/direct</text>
<text text-anchor="middle" x="175.5" y="-119.5" font-family="Helvetica,sans-Serif" font-size="10.00">/ParameterNormalizer.h</text>
</a>
</g>
</g>
<!-- Node2 -->
<g id="node2" class="node">
<title>Node2</title>
<g id="a_node2"><a xlink:href="DirectTypes_8h.xhtml" target="_top" xlink:title="In this file, types are defined which are used in the direct module.">
<polygon fill="white" stroke="black" points="0,-56.5 0,-75.5 83,-75.5 83,-56.5 0,-56.5"/>
<text text-anchor="middle" x="41.5" y="-63.5" font-family="Helvetica,sans-Serif" font-size="10.00">DirectTypes.h</text>
</a>
</g>
</g>
<!-- Node1&#45;&gt;Node2 -->
<g id="edge1" class="edge">
<title>Node1&#45;&gt;Node2</title>
<path fill="none" stroke="midnightblue" d="M143.74,-112.4C121.46,-102.51 91.91,-89.38 70.31,-79.79"/>
<polygon fill="midnightblue" stroke="midnightblue" points="71.56,-76.52 61,-75.66 68.72,-82.91 71.56,-76.52"/>
</g>
<!-- Node3 -->
<g id="node3" class="node">
<title>Node3</title>
<g id="a_node3"><a xlink:href="Types_8h.xhtml" target="_top" xlink:title="In this file, types are defined which should be used across the whole framework.">
<polygon fill="white" stroke="black" points="140,-56.5 140,-75.5 211,-75.5 211,-56.5 140,-56.5"/>
<text text-anchor="middle" x="175.5" y="-63.5" font-family="Helvetica,sans-Serif" font-size="10.00">../../Types.h</text>
</a>
</g>
</g>
<!-- Node1&#45;&gt;Node3 -->
<g id="edge2" class="edge">
<title>Node1&#45;&gt;Node3</title>
<path fill="none" stroke="midnightblue" d="M175.5,-112.4C175.5,-104.47 175.5,-94.46 175.5,-85.86"/>
<polygon fill="midnightblue" stroke="midnightblue" points="179,-85.66 175.5,-75.66 172,-85.66 179,-85.66"/>
</g>
<!-- Node5 -->
<g id="node5" class="node">
<title>Node5</title>
<g id="a_node5"><a xlink:title=" ">
<polygon fill="white" stroke="#bfbfbf" points="88,-0.5 88,-19.5 135,-19.5 135,-0.5 88,-0.5"/>
<text text-anchor="middle" x="111.5" y="-7.5" font-family="Helvetica,sans-Serif" font-size="10.00">vector</text>
</a>
</g>
</g>
<!-- Node1&#45;&gt;Node5 -->
<g id="edge7" class="edge">
<title>Node1&#45;&gt;Node5</title>
<path fill="none" stroke="midnightblue" d="M160.21,-112.3C150.77,-102.82 139.07,-89.62 131.5,-76 123.43,-61.49 118.19,-43.31 115.11,-29.87"/>
<polygon fill="midnightblue" stroke="midnightblue" points="118.49,-28.94 113.01,-19.87 111.64,-30.38 118.49,-28.94"/>
</g>
<!-- Node6 -->
<g id="node6" class="node">
<title>Node6</title>
<g id="a_node6"><a xlink:title=" ">
<polygon fill="white" stroke="#bfbfbf" points="215.5,-0.5 215.5,-19.5 273.5,-19.5 273.5,-0.5 215.5,-0.5"/>
<text text-anchor="middle" x="244.5" y="-7.5" font-family="Helvetica,sans-Serif" font-size="10.00">memory</text>
</a>
</g>
</g>
<!-- Node1&#45;&gt;Node6 -->
<g id="edge8" class="edge">
<title>Node1&#45;&gt;Node6</title>
<path fill="none" stroke="midnightblue" d="M190.9,-112.22C200.45,-102.69 212.4,-89.49 220.5,-76 229.21,-61.5 235.59,-43.31 239.58,-29.87"/>
<polygon fill="midnightblue" stroke="midnightblue" points="243.05,-30.45 242.36,-19.88 236.3,-28.57 243.05,-30.45"/>
</g>
<!-- Node7 -->
<g id="node7" class="node">
<title>Node7</title>
<g id="a_node7"><a xlink:title=" ">
<polygon fill="white" stroke="#bfbfbf" points="267.5,-56.5 267.5,-75.5 299.5,-75.5 299.5,-56.5 267.5,-56.5"/>
<text text-anchor="middle" x="283.5" y="-63.5" font-family="Helvetica,sans-Serif" font-size="10.00">list</text>
</a>
</g>
</g>
<!-- Node1&#45;&gt;Node7 -->
<g id="edge6" class="edge">
<title>Node1&#45;&gt;Node7</title>
<path fill="none" stroke="midnightblue" d="M201.09,-112.4C218.57,-102.77 241.59,-90.09 258.86,-80.58"/>
<polygon fill="midnightblue" stroke="midnightblue" points="260.72,-83.55 267.79,-75.66 257.34,-77.42 260.72,-83.55"/>
</g>
<!-- Node4 -->
<g id="node4" class="node">
<title>Node4</title>
<g id="a_node4"><a xlink:title=" ">
<polygon fill="white" stroke="#bfbfbf" points="153.5,-0.5 153.5,-19.5 197.5,-19.5 197.5,-0.5 153.5,-0.5"/>
<text text-anchor="middle" x="175.5" y="-7.5" font-family="Helvetica,sans-Serif" font-size="10.00">string</text>
</a>
</g>
</g>
<!-- Node3&#45;&gt;Node4 -->
<g id="edge3" class="edge">
<title>Node3&#45;&gt;Node4</title>
<path fill="none" stroke="midnightblue" d="M175.5,-56.08C175.5,-49.01 175.5,-38.86 175.5,-29.99"/>
<polygon fill="midnightblue" stroke="midnightblue" points="179,-29.75 175.5,-19.75 172,-29.75 179,-29.75"/>
</g>
<!-- Node3&#45;&gt;Node5 -->
<g id="edge4" class="edge">
<title>Node3&#45;&gt;Node5</title>
<path fill="none" stroke="midnightblue" d="M165.22,-56.32C155.66,-48.26 141.22,-36.08 129.72,-26.37"/>
<polygon fill="midnightblue" stroke="midnightblue" points="131.87,-23.61 121.97,-19.83 127.36,-28.96 131.87,-23.61"/>
</g>
<!-- Node3&#45;&gt;Node6 -->
<g id="edge5" class="edge">
<title>Node3&#45;&gt;Node6</title>
<path fill="none" stroke="midnightblue" d="M186.59,-56.32C196.99,-48.18 212.76,-35.84 225.22,-26.09"/>
<polygon fill="midnightblue" stroke="midnightblue" points="227.49,-28.75 233.21,-19.83 223.18,-23.24 227.49,-28.75"/>
</g>
</g>
</svg>
