<?xml version="1.0" encoding="UTF-8" standalone="no"?>
<!DOCTYPE svg PUBLIC "-//W3C//DTD SVG 1.1//EN"
 "http://www.w3.org/Graphics/SVG/1.1/DTD/svg11.dtd">
<!-- Generated by graphviz version 2.43.0 (0)
 -->
<!-- Title: /home/runner/work/Simopticon/Simopticon/src/optimizer/direct/ParameterNormalizer.h Pages: 1 -->
<svg width="308pt" height="162pt"
 viewBox="0.00 0.00 307.50 162.00" xmlns="http://www.w3.org/2000/svg" xmlns:xlink="http://www.w3.org/1999/xlink">
<g id="graph0" class="graph" transform="scale(1 1) rotate(0) translate(4 158)">
<title>/home/runner/work/Simopticon/Simopticon/src/optimizer/direct/ParameterNormalizer.h</title>
<polygon fill="white" stroke="transparent" points="-4,4 -4,-158 303.5,-158 303.5,4 -4,4"/>
<!-- Node1 -->
<g id="node1" class="node">
<title>Node1</title>
<g id="a_node1"><a xlink:title="In this file, the header of the ParameterNormalizer class is defined.">
<polygon fill="#bfbfbf" stroke="black" points="92,-112.5 92,-153.5 259,-153.5 259,-112.5 92,-112.5"/>
<text text-anchor="start" x="100" y="-141.5" font-family="Helvetica,sans-Serif" font-size="10.00">/home/runner/work/Simopticon</text>
<text text-anchor="start" x="100" y="-130.5" font-family="Helvetica,sans-Serif" font-size="10.00">/Simopticon/src/optimizer</text>
<text text-anchor="middle" x="175.5" y="-119.5" font-family="Helvetica,sans-Serif" font-size="10.00">/direct/ParameterNormalizer.h</text>
</a>
</g>
</g>
<!-- Node2 -->
<g id="node2" class="node">
<title>Node2</title>
<g id="a_node2"><a xlink:href="DirectTypes_8h.xhtml" target="_top" xlink:title="In this file, types are defined which are used in the direct module.">
<polygon fill="white" stroke="black" points="0,-56.5 0,-75.5 83,-75.5 83,-56.5 0,-56.5"/>
<text text-anchor="middle" x="41.5" y="-63.5" font-family="Helvetica,sans-Serif" font-size="10.00">DirectTypes.h</text>
</a>
</g>
</g>
<!-- Node1&#45;&gt;Node2 -->
<g id="edge1" class="edge">
<title>Node1&#45;&gt;Node2</title>
<path fill="none" stroke="midnightblue" d="M135.3,-112.5C113.66,-102.01 87.57,-89.35 68.4,-80.05"/>
<polygon fill="midnightblue" stroke="midnightblue" points="69.86,-76.87 59.34,-75.65 66.81,-83.17 69.86,-76.87"/>
</g>
<!-- Node3 -->
<g id="node3" class="node">
<title>Node3</title>
<g id="a_node3"><a xlink:href="Types_8h.xhtml" target="_top" xlink:title="In this file, types are defined which should be used across the whole framework.">
<polygon fill="white" stroke="black" points="140,-56.5 140,-75.5 211,-75.5 211,-56.5 140,-56.5"/>
<text text-anchor="middle" x="175.5" y="-63.5" font-family="Helvetica,sans-Serif" font-size="10.00">../../Types.h</text>
</a>
</g>
</g>
<!-- Node1&#45;&gt;Node3 -->
<g id="edge2" class="edge">
<title>Node1&#45;&gt;Node3</title>
<path fill="none" stroke="midnightblue" d="M175.5,-112.5C175.5,-104.07 175.5,-94.24 175.5,-85.87"/>
<polygon fill="midnightblue" stroke="midnightblue" points="179,-85.65 175.5,-75.65 172,-85.65 179,-85.65"/>
</g>
<!-- Node5 -->
<g id="node5" class="node">
<title>Node5</title>
<g id="a_node5"><a xlink:title=" ">
<polygon fill="white" stroke="#bfbfbf" points="88,-0.5 88,-19.5 135,-19.5 135,-0.5 88,-0.5"/>
<text text-anchor="middle" x="111.5" y="-7.5" font-family="Helvetica,sans-Serif" font-size="10.00">vector</text>
</a>
</g>
</g>
<!-- Node1&#45;&gt;Node5 -->
<g id="edge7" class="edge">
<title>Node1&#45;&gt;Node5</title>
<path fill="none" stroke="midnightblue" d="M157.05,-112.25C148.31,-102.05 138.32,-89.04 131.5,-76 123.8,-61.29 118.52,-43.13 115.33,-29.74"/>
<polygon fill="midnightblue" stroke="midnightblue" points="118.71,-28.81 113.14,-19.81 111.88,-30.33 118.71,-28.81"/>
</g>
<!-- Node6 -->
<g id="node6" class="node">
<title>Node6</title>
<g id="a_node6"><a xlink:title=" ">
<polygon fill="white" stroke="#bfbfbf" points="215.5,-0.5 215.5,-19.5 273.5,-19.5 273.5,-0.5 215.5,-0.5"/>
<text text-anchor="middle" x="244.5" y="-7.5" font-family="Helvetica,sans-Serif" font-size="10.00">memory</text>
</a>
</g>
</g>
<!-- Node1&#45;&gt;Node6 -->
<g id="edge8" class="edge">
<title>Node1&#45;&gt;Node6</title>
<path fill="none" stroke="midnightblue" d="M193.86,-112.4C202.78,-102.14 213.12,-89.02 220.5,-76 228.84,-61.28 235.26,-43.12 239.35,-29.74"/>
<polygon fill="midnightblue" stroke="midnightblue" points="242.81,-30.38 242.23,-19.8 236.08,-28.43 242.81,-30.38"/>
</g>
<!-- Node7 -->
<g id="node7" class="node">
<title>Node7</title>
<g id="a_node7"><a xlink:title=" ">
<polygon fill="white" stroke="#bfbfbf" points="267.5,-56.5 267.5,-75.5 299.5,-75.5 299.5,-56.5 267.5,-56.5"/>
<text text-anchor="middle" x="283.5" y="-63.5" font-family="Helvetica,sans-Serif" font-size="10.00">list</text>
</a>
</g>
</g>
<!-- Node1&#45;&gt;Node7 -->
<g id="edge6" class="edge">
<title>Node1&#45;&gt;Node7</title>
<path fill="none" stroke="midnightblue" d="M207.9,-112.5C224.78,-102.34 245.03,-90.16 260.32,-80.95"/>
<polygon fill="midnightblue" stroke="midnightblue" points="262.36,-83.81 269.12,-75.65 258.75,-77.81 262.36,-83.81"/>
</g>
<!-- Node4 -->
<g id="node4" class="node">
<title>Node4</title>
<g id="a_node4"><a xlink:title=" ">
<polygon fill="white" stroke="#bfbfbf" points="153.5,-0.5 153.5,-19.5 197.5,-19.5 197.5,-0.5 153.5,-0.5"/>
<text text-anchor="middle" x="175.5" y="-7.5" font-family="Helvetica,sans-Serif" font-size="10.00">string</text>
</a>
</g>
</g>
<!-- Node3&#45;&gt;Node4 -->
<g id="edge3" class="edge">
<title>Node3&#45;&gt;Node4</title>
<path fill="none" stroke="midnightblue" d="M175.5,-56.08C175.5,-49.01 175.5,-38.86 175.5,-29.99"/>
<polygon fill="midnightblue" stroke="midnightblue" points="179,-29.75 175.5,-19.75 172,-29.75 179,-29.75"/>
</g>
<!-- Node3&#45;&gt;Node5 -->
<g id="edge4" class="edge">
<title>Node3&#45;&gt;Node5</title>
<path fill="none" stroke="midnightblue" d="M165.22,-56.32C155.66,-48.26 141.22,-36.08 129.72,-26.37"/>
<polygon fill="midnightblue" stroke="midnightblue" points="131.87,-23.61 121.97,-19.83 127.36,-28.96 131.87,-23.61"/>
</g>
<!-- Node3&#45;&gt;Node6 -->
<g id="edge5" class="edge">
<title>Node3&#45;&gt;Node6</title>
<path fill="none" stroke="midnightblue" d="M186.59,-56.32C196.99,-48.18 212.76,-35.84 225.22,-26.09"/>
<polygon fill="midnightblue" stroke="midnightblue" points="227.49,-28.75 233.21,-19.83 223.18,-23.24 227.49,-28.75"/>
</g>
</g>
</svg>
