<?xml version="1.0" encoding="UTF-8" standalone="no"?>
<!DOCTYPE svg PUBLIC "-//W3C//DTD SVG 1.1//EN"
 "http://www.w3.org/Graphics/SVG/1.1/DTD/svg11.dtd">
<!-- Generated by graphviz version 2.43.0 (0)
 -->
<!-- Title: /home/runner/work/Simopticon/Simopticon/src/parameters/Parameter.h Pages: 1 -->
<!--zoomable 518 -->
<svg id="main" version="1.1" xmlns="http://www.w3.org/2000/svg" xmlns:xlink="http://www.w3.org/1999/xlink" xml:space="preserve" onload="init(evt)">
<style type="text/css"><![CDATA[
.edge:hover path { stroke: red; }
.edge:hover polygon { stroke: red; fill: red; }
]]></style>
<script type="text/javascript"><![CDATA[
var edges = document.getElementsByTagName('g');
if (edges && edges.length) {
  for (var i=0;i<edges.length;i++) {
    if (edges[i].id.substr(0,4)=='edge') {
      edges[i].setAttribute('class','edge');
    }
  }
}
]]></script>
        <defs>
                <circle id="rim" cx="0" cy="0" r="7"/>
                <circle id="rim2" cx="0" cy="0" r="3.5"/>
                <g id="zoomPlus">
                        <use xlink:href="#rim" fill="#404040">
                                <set attributeName="fill" to="#808080" begin="zoomplus.mouseover" end="zoomplus.mouseout"/>
                        </use>
                        <path d="M-4,0h8M0,-4v8" fill="none" stroke="white" stroke-width="1.5" pointer-events="none"/>
                </g>
                <g id="zoomMin">
                        <use xlink:href="#rim" fill="#404040">
                                <set attributeName="fill" to="#808080" begin="zoomminus.mouseover" end="zoomminus.mouseout"/>
                        </use>
                        <path d="M-4,0h8" fill="none" stroke="white" stroke-width="1.5" pointer-events="none"/>
                </g>
                <g id="dirArrow">
                        <path fill="none" stroke="white" stroke-width="1.5" d="M0,-3.0v7 M-2.5,-0.5L0,-3.0L2.5,-0.5"/>
                </g>
               <g id="resetDef">
                       <use xlink:href="#rim2" fill="#404040">
                               <set attributeName="fill" to="#808080" begin="reset.mouseover" end="reset.mouseout"/>
                       </use>
               </g>
        </defs>

<script type="text/javascript">
var viewWidth = 1673;
var viewHeight = 518;
var sectionId = 'dynsection-1';
</script>
<script xlink:href="svgpan.js"/>
<svg id="graph" class="graph">
<g id="viewport">
<title>/home/runner/work/Simopticon/Simopticon/src/parameters/Parameter.h</title>
<polygon fill="white" stroke="transparent" points="-4,4 -4,-514 1669.23,-514 1669.23,4 -4,4"/>
<!-- Node1 -->
<g id="node1" class="node">
<title>Node1</title>
<g id="a_node1"><a xlink:title="In this file, the header of the Parameter class is defined.">
<polygon fill="#bfbfbf" stroke="black" points="845.23,-468.5 845.23,-509.5 1012.23,-509.5 1012.23,-468.5 845.23,-468.5"/>
<text text-anchor="start" x="853.23" y="-497.5" font-family="Helvetica,sans-Serif" font-size="10.00">/home/runner/work/Simopticon</text>
<text text-anchor="start" x="853.23" y="-486.5" font-family="Helvetica,sans-Serif" font-size="10.00">/Simopticon/src/parameters</text>
<text text-anchor="middle" x="928.73" y="-475.5" font-family="Helvetica,sans-Serif" font-size="10.00">/Parameter.h</text>
</a>
</g>
</g>
<!-- Node2 -->
<g id="node2" class="node">
<title>Node2</title>
<g id="a_node2"><a xlink:href="ValueMap_8h.xhtml" target="_top" xlink:title="In this file, the header of the ValueMap class is defined.">
<polygon fill="white" stroke="black" points="417.23,-312.5 417.23,-353.5 584.23,-353.5 584.23,-312.5 417.23,-312.5"/>
<text text-anchor="start" x="425.23" y="-341.5" font-family="Helvetica,sans-Serif" font-size="10.00">/home/runner/work/Simopticon</text>
<text text-anchor="start" x="425.23" y="-330.5" font-family="Helvetica,sans-Serif" font-size="10.00">/Simopticon/src/controller</text>
<text text-anchor="middle" x="500.73" y="-319.5" font-family="Helvetica,sans-Serif" font-size="10.00">/ValueMap.h</text>
</a>
</g>
</g>
<!-- Node1&#45;&gt;Node2 -->
<g id="edge1" class="edge">
<title>Node1&#45;&gt;Node2</title>
<path fill="none" stroke="midnightblue" d="M834.98,-480.63C775.9,-473.46 699.09,-459.41 635.73,-432 590.81,-412.56 546.37,-376.08 521.35,-353.53"/>
<polygon fill="midnightblue" stroke="midnightblue" points="834.71,-484.12 845.05,-481.81 835.52,-477.17 834.71,-484.12"/>
</g>
<!-- Node8 -->
<g id="node8" class="node">
<title>Node8</title>
<g id="a_node8"><a xlink:href="Controller_8h.xhtml" target="_top" xlink:title="In this file, the header of the Controller class is defined.">
<polygon fill="white" stroke="black" points="639.23,-156.5 639.23,-197.5 806.23,-197.5 806.23,-156.5 639.23,-156.5"/>
<text text-anchor="start" x="647.23" y="-185.5" font-family="Helvetica,sans-Serif" font-size="10.00">/home/runner/work/Simopticon</text>
<text text-anchor="start" x="647.23" y="-174.5" font-family="Helvetica,sans-Serif" font-size="10.00">/Simopticon/src/controller</text>
<text text-anchor="middle" x="722.73" y="-163.5" font-family="Helvetica,sans-Serif" font-size="10.00">/Controller.h</text>
</a>
</g>
</g>
<!-- Node1&#45;&gt;Node8 -->
<g id="edge16" class="edge">
<title>Node1&#45;&gt;Node8</title>
<path fill="none" stroke="midnightblue" d="M834.86,-474.88C783.83,-465.69 727.89,-451.53 711.73,-432 654.76,-363.13 694.8,-244.29 714.03,-197.62"/>
<polygon fill="midnightblue" stroke="midnightblue" points="834.53,-478.38 844.99,-476.66 835.74,-471.49 834.53,-478.38"/>
</g>
<!-- Node13 -->
<g id="node13" class="node">
<title>Node13</title>
<g id="a_node13"><a xlink:href="ComparisonFunctions_8h.xhtml" target="_top" xlink:title="In this file, comparison functions are defined which should be used across the whole framework.">
<polygon fill="white" stroke="black" points="721.23,-396 721.23,-426 930.23,-426 930.23,-396 721.23,-396"/>
<text text-anchor="start" x="729.23" y="-414" font-family="Helvetica,sans-Serif" font-size="10.00">/home/runner/work/Simopticon</text>
<text text-anchor="middle" x="825.73" y="-403" font-family="Helvetica,sans-Serif" font-size="10.00">/Simopticon/src/ComparisonFunctions.h</text>
</a>
</g>
</g>
<!-- Node1&#45;&gt;Node13 -->
<g id="edge17" class="edge">
<title>Node1&#45;&gt;Node13</title>
<path fill="none" stroke="midnightblue" d="M893.94,-462.32C877.6,-450.27 858.75,-436.36 845.01,-426.23"/>
<polygon fill="midnightblue" stroke="midnightblue" points="892.08,-465.31 902.21,-468.43 896.24,-459.67 892.08,-465.31"/>
</g>
<!-- Node20 -->
<g id="node20" class="node">
<title>Node20</title>
<g id="a_node20"><a xlink:href="ContinuousParameter_8h.xhtml" target="_top" xlink:title="In this file, the header of the ContinuousParameter class is defined.">
<polygon fill="white" stroke="black" points="1036.23,-390.5 1036.23,-431.5 1203.23,-431.5 1203.23,-390.5 1036.23,-390.5"/>
<text text-anchor="start" x="1044.23" y="-419.5" font-family="Helvetica,sans-Serif" font-size="10.00">/home/runner/work/Simopticon</text>
<text text-anchor="start" x="1044.23" y="-408.5" font-family="Helvetica,sans-Serif" font-size="10.00">/Simopticon/src/parameters</text>
<text text-anchor="middle" x="1119.73" y="-397.5" font-family="Helvetica,sans-Serif" font-size="10.00">/ContinuousParameter.h</text>
</a>
</g>
</g>
<!-- Node1&#45;&gt;Node20 -->
<g id="edge30" class="edge">
<title>Node1&#45;&gt;Node20</title>
<path fill="none" stroke="midnightblue" d="M987.52,-464.61C1014.18,-454 1045.34,-441.6 1070.71,-431.51"/>
<polygon fill="midnightblue" stroke="midnightblue" points="985.92,-461.48 977.92,-468.43 988.51,-467.98 985.92,-461.48"/>
</g>
<!-- Node23 -->
<g id="node23" class="node">
<title>Node23</title>
<g id="a_node23"><a xlink:href="Parameter_8cpp.xhtml" target="_top" xlink:title="In this file, the implementation of the Parameter class is defined.">
<polygon fill="white" stroke="black" points="1221.23,-390.5 1221.23,-431.5 1388.23,-431.5 1388.23,-390.5 1221.23,-390.5"/>
<text text-anchor="start" x="1229.23" y="-419.5" font-family="Helvetica,sans-Serif" font-size="10.00">/home/runner/work/Simopticon</text>
<text text-anchor="start" x="1229.23" y="-408.5" font-family="Helvetica,sans-Serif" font-size="10.00">/Simopticon/src/parameters</text>
<text text-anchor="middle" x="1304.73" y="-397.5" font-family="Helvetica,sans-Serif" font-size="10.00">/Parameter.cpp</text>
</a>
</g>
</g>
<!-- Node1&#45;&gt;Node23 -->
<g id="edge33" class="edge">
<title>Node1&#45;&gt;Node23</title>
<path fill="none" stroke="midnightblue" d="M1022.5,-469.85C1077.64,-459.07 1148.7,-445.01 1211.73,-432 1214.81,-431.37 1217.94,-430.72 1221.1,-430.05"/>
<polygon fill="midnightblue" stroke="midnightblue" points="1021.54,-466.47 1012.39,-471.82 1022.88,-473.34 1021.54,-466.47"/>
</g>
<!-- Node24 -->
<g id="node24" class="node">
<title>Node24</title>
<g id="a_node24"><a xlink:href="DiscreteParameter_8h.xhtml" target="_top" xlink:title="In this file, the header of the DiscreteParameter class is defined.">
<polygon fill="white" stroke="black" points="1452.23,-390.5 1452.23,-431.5 1619.23,-431.5 1619.23,-390.5 1452.23,-390.5"/>
<text text-anchor="start" x="1460.23" y="-419.5" font-family="Helvetica,sans-Serif" font-size="10.00">/home/runner/work/Simopticon</text>
<text text-anchor="start" x="1460.23" y="-408.5" font-family="Helvetica,sans-Serif" font-size="10.00">/Simopticon/src/parameters</text>
<text text-anchor="middle" x="1535.73" y="-397.5" font-family="Helvetica,sans-Serif" font-size="10.00">/DiscreteParameter.h</text>
</a>
</g>
</g>
<!-- Node1&#45;&gt;Node24 -->
<g id="edge34" class="edge">
<title>Node1&#45;&gt;Node24</title>
<path fill="none" stroke="midnightblue" d="M1022.39,-477.52C1117.12,-466.75 1267.72,-449.18 1397.73,-432 1415.37,-429.67 1434.26,-427.03 1452.22,-424.45"/>
<polygon fill="midnightblue" stroke="midnightblue" points="1021.8,-474.06 1012.26,-478.67 1022.59,-481.02 1021.8,-474.06"/>
</g>
<!-- Node3 -->
<g id="node3" class="node">
<title>Node3</title>
<g id="a_node3"><a xlink:href="ValueMap_8cpp.xhtml" target="_top" xlink:title="In this file, the implementation of the ValueMap class is defined.">
<polygon fill="white" stroke="black" points="31.23,-234.5 31.23,-275.5 198.23,-275.5 198.23,-234.5 31.23,-234.5"/>
<text text-anchor="start" x="39.23" y="-263.5" font-family="Helvetica,sans-Serif" font-size="10.00">/home/runner/work/Simopticon</text>
<text text-anchor="start" x="39.23" y="-252.5" font-family="Helvetica,sans-Serif" font-size="10.00">/Simopticon/src/controller</text>
<text text-anchor="middle" x="114.73" y="-241.5" font-family="Helvetica,sans-Serif" font-size="10.00">/ValueMap.cpp</text>
</a>
</g>
</g>
<!-- Node2&#45;&gt;Node3 -->
<g id="edge2" class="edge">
<title>Node2&#45;&gt;Node3</title>
<path fill="none" stroke="midnightblue" d="M407.13,-314.81C349.31,-304.03 273.63,-289.64 206.73,-276 204.01,-275.44 201.24,-274.88 198.45,-274.3"/>
<polygon fill="midnightblue" stroke="midnightblue" points="406.51,-318.25 416.98,-316.64 407.79,-311.37 406.51,-318.25"/>
</g>
<!-- Node4 -->
<g id="node4" class="node">
<title>Node4</title>
<g id="a_node4"><a xlink:href="StubController_8cpp.xhtml" target="_top" xlink:title="In this file, the implementation of the StubController class is defined.">
<polygon fill="white" stroke="black" points="21.23,-0.5 21.23,-41.5 188.23,-41.5 188.23,-0.5 21.23,-0.5"/>
<text text-anchor="start" x="29.23" y="-29.5" font-family="Helvetica,sans-Serif" font-size="10.00">/home/runner/work/Simopticon</text>
<text text-anchor="start" x="29.23" y="-18.5" font-family="Helvetica,sans-Serif" font-size="10.00">/Simopticon/src/controller</text>
<text text-anchor="middle" x="104.73" y="-7.5" font-family="Helvetica,sans-Serif" font-size="10.00">/StubController.cpp</text>
</a>
</g>
</g>
<!-- Node2&#45;&gt;Node4 -->
<g id="edge3" class="edge">
<title>Node2&#45;&gt;Node4</title>
<path fill="none" stroke="midnightblue" d="M406.98,-327.63C274.79,-320.5 46.86,-304.23 21.73,-276 -40.56,-205.99 47.13,-88.32 86.9,-41.79"/>
<polygon fill="midnightblue" stroke="midnightblue" points="406.93,-331.13 417.11,-328.17 407.31,-324.14 406.93,-331.13"/>
</g>
<!-- Node5 -->
<g id="node5" class="node">
<title>Node5</title>
<g id="a_node5"><a xlink:href="Controller_8cpp.xhtml" target="_top" xlink:title="In this file, the implementation of the Controller class is defined.">
<polygon fill="white" stroke="black" points="621.23,-0.5 621.23,-41.5 788.23,-41.5 788.23,-0.5 621.23,-0.5"/>
<text text-anchor="start" x="629.23" y="-29.5" font-family="Helvetica,sans-Serif" font-size="10.00">/home/runner/work/Simopticon</text>
<text text-anchor="start" x="629.23" y="-18.5" font-family="Helvetica,sans-Serif" font-size="10.00">/Simopticon/src/controller</text>
<text text-anchor="middle" x="704.73" y="-7.5" font-family="Helvetica,sans-Serif" font-size="10.00">/Controller.cpp</text>
</a>
</g>
</g>
<!-- Node2&#45;&gt;Node5 -->
<g id="edge4" class="edge">
<title>Node2&#45;&gt;Node5</title>
<path fill="none" stroke="midnightblue" d="M557.98,-307.29C571.19,-299.11 583.93,-288.75 592.73,-276 643.6,-202.33 582.4,-153.99 629.73,-78 639.01,-63.1 653.81,-50.81 667.82,-41.57"/>
<polygon fill="midnightblue" stroke="midnightblue" points="556.15,-304.31 549.27,-312.36 559.67,-310.36 556.15,-304.31"/>
</g>
<!-- Node6 -->
<g id="node6" class="node">
<title>Node6</title>
<g id="a_node6"><a xlink:href="DirectOptimizer_8cpp.xhtml" target="_top" xlink:title="In this file, the implementation of the DirectOptimizer class is defined.">
<polygon fill="white" stroke="black" points="417.23,-234.5 417.23,-275.5 584.23,-275.5 584.23,-234.5 417.23,-234.5"/>
<text text-anchor="start" x="425.23" y="-263.5" font-family="Helvetica,sans-Serif" font-size="10.00">/home/runner/work/Simopticon</text>
<text text-anchor="start" x="425.23" y="-252.5" font-family="Helvetica,sans-Serif" font-size="10.00">/Simopticon/src/optimizer</text>
<text text-anchor="middle" x="500.73" y="-241.5" font-family="Helvetica,sans-Serif" font-size="10.00">/direct/DirectOptimizer.cpp</text>
</a>
</g>
</g>
<!-- Node2&#45;&gt;Node6 -->
<g id="edge5" class="edge">
<title>Node2&#45;&gt;Node6</title>
<path fill="none" stroke="midnightblue" d="M500.73,-302.3C500.73,-293.3 500.73,-283.65 500.73,-275.51"/>
<polygon fill="midnightblue" stroke="midnightblue" points="497.23,-302.43 500.73,-312.43 504.23,-302.43 497.23,-302.43"/>
</g>
<!-- Node7 -->
<g id="node7" class="node">
<title>Node7</title>
<g id="a_node7"><a xlink:href="StatusBar_8h.xhtml" target="_top" xlink:title="In this file, the header of the StatusBar class is defined.">
<polygon fill="white" stroke="black" points="216.23,-240 216.23,-270 399.23,-270 399.23,-240 216.23,-240"/>
<text text-anchor="start" x="224.23" y="-258" font-family="Helvetica,sans-Serif" font-size="10.00">/home/runner/work/Simopticon</text>
<text text-anchor="middle" x="307.73" y="-247" font-family="Helvetica,sans-Serif" font-size="10.00">/Simopticon/src/status/StatusBar.h</text>
</a>
</g>
</g>
<!-- Node2&#45;&gt;Node7 -->
<g id="edge6" class="edge">
<title>Node2&#45;&gt;Node7</title>
<path fill="none" stroke="midnightblue" d="M441.33,-308.61C409.35,-296.02 370.96,-280.9 343.56,-270.11"/>
<polygon fill="midnightblue" stroke="midnightblue" points="440.44,-312.02 451.03,-312.43 443.01,-305.51 440.44,-312.02"/>
</g>
<!-- Node7&#45;&gt;Node8 -->
<g id="edge7" class="edge">
<title>Node7&#45;&gt;Node8</title>
<path fill="none" stroke="midnightblue" d="M387.05,-237.97C394.04,-236.61 401.01,-235.27 407.73,-234 486.06,-219.21 575.55,-203.4 639.08,-192.37"/>
<polygon fill="midnightblue" stroke="midnightblue" points="385.96,-234.62 376.82,-239.98 387.31,-241.49 385.96,-234.62"/>
</g>
<!-- Node12 -->
<g id="node12" class="node">
<title>Node12</title>
<g id="a_node12"><a xlink:href="StatusBar_8cpp.xhtml" target="_top" xlink:title="In this file, the implementation of the StatusBar class is defined.">
<polygon fill="white" stroke="black" points="210.73,-162 210.73,-192 404.73,-192 404.73,-162 210.73,-162"/>
<text text-anchor="start" x="218.73" y="-180" font-family="Helvetica,sans-Serif" font-size="10.00">/home/runner/work/Simopticon</text>
<text text-anchor="middle" x="307.73" y="-169" font-family="Helvetica,sans-Serif" font-size="10.00">/Simopticon/src/status/StatusBar.cpp</text>
</a>
</g>
</g>
<!-- Node7&#45;&gt;Node12 -->
<g id="edge15" class="edge">
<title>Node7&#45;&gt;Node12</title>
<path fill="none" stroke="midnightblue" d="M307.73,-229.59C307.73,-217.26 307.73,-202.72 307.73,-192.23"/>
<polygon fill="midnightblue" stroke="midnightblue" points="304.23,-229.7 307.73,-239.7 311.23,-229.71 304.23,-229.7"/>
</g>
<!-- Node8&#45;&gt;Node5 -->
<g id="edge8" class="edge">
<title>Node8&#45;&gt;Node5</title>
<path fill="none" stroke="midnightblue" d="M783.57,-151.12C796.02,-143.09 807.51,-132.85 814.73,-120 823.88,-103.73 824.49,-93.91 814.73,-78 804.71,-61.65 788.25,-49.89 771.08,-41.5"/>
<polygon fill="midnightblue" stroke="midnightblue" points="781.63,-148.2 774.83,-156.33 785.22,-154.21 781.63,-148.2"/>
</g>
<!-- Node9 -->
<g id="node9" class="node">
<title>Node9</title>
<g id="a_node9"><a xlink:href="main_8cpp.xhtml" target="_top" xlink:title="In this file, the main function running the Simopticon framework is defined.">
<polygon fill="white" stroke="black" points="362.23,-6 362.23,-36 529.23,-36 529.23,-6 362.23,-6"/>
<text text-anchor="start" x="370.23" y="-24" font-family="Helvetica,sans-Serif" font-size="10.00">/home/runner/work/Simopticon</text>
<text text-anchor="middle" x="445.73" y="-13" font-family="Helvetica,sans-Serif" font-size="10.00">/Simopticon/src/main.cpp</text>
</a>
</g>
</g>
<!-- Node8&#45;&gt;Node9 -->
<g id="edge9" class="edge">
<title>Node8&#45;&gt;Node9</title>
<path fill="none" stroke="midnightblue" d="M628.82,-172.24C546.43,-166.74 435.56,-153.21 407.73,-120 386.64,-94.82 413.99,-56.6 432.1,-36.13"/>
<polygon fill="midnightblue" stroke="midnightblue" points="628.77,-175.75 638.97,-172.89 629.21,-168.76 628.77,-175.75"/>
</g>
<!-- Node10 -->
<g id="node10" class="node">
<title>Node10</title>
<g id="a_node10"><a xlink:href="StubController_8h.xhtml" target="_top" xlink:title="In this file, the header of the StubController class is defined.">
<polygon fill="white" stroke="black" points="417.23,-78.5 417.23,-119.5 584.23,-119.5 584.23,-78.5 417.23,-78.5"/>
<text text-anchor="start" x="425.23" y="-107.5" font-family="Helvetica,sans-Serif" font-size="10.00">/home/runner/work/Simopticon</text>
<text text-anchor="start" x="425.23" y="-96.5" font-family="Helvetica,sans-Serif" font-size="10.00">/Simopticon/src/controller</text>
<text text-anchor="middle" x="500.73" y="-85.5" font-family="Helvetica,sans-Serif" font-size="10.00">/StubController.h</text>
</a>
</g>
</g>
<!-- Node8&#45;&gt;Node10 -->
<g id="edge10" class="edge">
<title>Node8&#45;&gt;Node10</title>
<path fill="none" stroke="midnightblue" d="M656.03,-153.17C624.69,-142.44 587.72,-129.78 557.71,-119.51"/>
<polygon fill="midnightblue" stroke="midnightblue" points="654.97,-156.5 665.56,-156.43 657.24,-149.88 654.97,-156.5"/>
</g>
<!-- Node11 -->
<g id="node11" class="node">
<title>Node11</title>
<g id="a_node11"><a xlink:href="Optimizer_8cpp.xhtml" target="_top" xlink:title="In this file, the implementation of the Optimizer class is defined.">
<polygon fill="white" stroke="black" points="639.23,-78.5 639.23,-119.5 806.23,-119.5 806.23,-78.5 639.23,-78.5"/>
<text text-anchor="start" x="647.23" y="-107.5" font-family="Helvetica,sans-Serif" font-size="10.00">/home/runner/work/Simopticon</text>
<text text-anchor="start" x="647.23" y="-96.5" font-family="Helvetica,sans-Serif" font-size="10.00">/Simopticon/src/optimizer</text>
<text text-anchor="middle" x="722.73" y="-85.5" font-family="Helvetica,sans-Serif" font-size="10.00">/Optimizer.cpp</text>
</a>
</g>
</g>
<!-- Node8&#45;&gt;Node11 -->
<g id="edge14" class="edge">
<title>Node8&#45;&gt;Node11</title>
<path fill="none" stroke="midnightblue" d="M722.73,-146.3C722.73,-137.3 722.73,-127.65 722.73,-119.51"/>
<polygon fill="midnightblue" stroke="midnightblue" points="719.23,-146.43 722.73,-156.43 726.23,-146.43 719.23,-146.43"/>
</g>
<!-- Node10&#45;&gt;Node4 -->
<g id="edge11" class="edge">
<title>Node10&#45;&gt;Node4</title>
<path fill="none" stroke="midnightblue" d="M406.71,-79.95C340.32,-67.21 252.17,-50.3 188.25,-38.03"/>
<polygon fill="midnightblue" stroke="midnightblue" points="406.27,-83.43 416.75,-81.88 407.59,-76.56 406.27,-83.43"/>
</g>
<!-- Node10&#45;&gt;Node5 -->
<g id="edge12" class="edge">
<title>Node10&#45;&gt;Node5</title>
<path fill="none" stroke="midnightblue" d="M562.77,-74.89C591.41,-64.22 625.04,-51.69 652.38,-41.51"/>
<polygon fill="midnightblue" stroke="midnightblue" points="561.42,-71.66 553.27,-78.43 563.86,-78.22 561.42,-71.66"/>
</g>
<!-- Node10&#45;&gt;Node9 -->
<g id="edge13" class="edge">
<title>Node10&#45;&gt;Node9</title>
<path fill="none" stroke="midnightblue" d="M480.7,-70.32C472.33,-58.75 462.96,-45.8 456.03,-36.23"/>
<polygon fill="midnightblue" stroke="midnightblue" points="477.87,-72.38 486.57,-78.43 483.54,-68.27 477.87,-72.38"/>
</g>
<!-- Node13&#45;&gt;Node2 -->
<g id="edge18" class="edge">
<title>Node13&#45;&gt;Node2</title>
<path fill="none" stroke="midnightblue" d="M755.93,-393.68C705.6,-381.91 637.46,-365.97 584.25,-353.53"/>
<polygon fill="midnightblue" stroke="midnightblue" points="755.21,-397.1 765.74,-395.97 756.8,-390.29 755.21,-397.1"/>
</g>
<!-- Node13&#45;&gt;Node8 -->
<g id="edge19" class="edge">
<title>Node13&#45;&gt;Node8</title>
<path fill="none" stroke="midnightblue" d="M770.07,-391.54C752.84,-382.94 735.77,-370.79 725.73,-354 696.1,-304.42 708.59,-232.12 717.15,-197.67"/>
<polygon fill="midnightblue" stroke="midnightblue" points="769.06,-394.94 779.61,-395.96 772,-388.58 769.06,-394.94"/>
</g>
<!-- Node14 -->
<g id="node14" class="node">
<title>Node14</title>
<g id="a_node14"><a xlink:href="SimulationRunner_8h.xhtml" target="_top" xlink:title="In this file, the header of the SimulationRunner class is defined.">
<polygon fill="white" stroke="black" points="734.73,-312.5 734.73,-353.5 916.73,-353.5 916.73,-312.5 734.73,-312.5"/>
<text text-anchor="start" x="742.73" y="-341.5" font-family="Helvetica,sans-Serif" font-size="10.00">/home/runner/work/Simopticon</text>
<text text-anchor="start" x="742.73" y="-330.5" font-family="Helvetica,sans-Serif" font-size="10.00">/Simopticon/src/runner/Simulation</text>
<text text-anchor="middle" x="825.73" y="-319.5" font-family="Helvetica,sans-Serif" font-size="10.00">Runner.h</text>
</a>
</g>
</g>
<!-- Node13&#45;&gt;Node14 -->
<g id="edge20" class="edge">
<title>Node13&#45;&gt;Node14</title>
<path fill="none" stroke="midnightblue" d="M825.73,-385.66C825.73,-375.33 825.73,-363.44 825.73,-353.68"/>
<polygon fill="midnightblue" stroke="midnightblue" points="822.23,-385.7 825.73,-395.7 829.23,-385.71 822.23,-385.7"/>
</g>
<!-- Node18 -->
<g id="node18" class="node">
<title>Node18</title>
<g id="a_node18"><a xlink:href="ConfigEditor_8h.xhtml" target="_top" xlink:title="In this file, the header of the ConfigEditor class is defined.">
<polygon fill="white" stroke="black" points="935.23,-312.5 935.23,-353.5 1102.23,-353.5 1102.23,-312.5 935.23,-312.5"/>
<text text-anchor="start" x="943.23" y="-341.5" font-family="Helvetica,sans-Serif" font-size="10.00">/home/runner/work/Simopticon</text>
<text text-anchor="start" x="943.23" y="-330.5" font-family="Helvetica,sans-Serif" font-size="10.00">/Simopticon/src/runner/plexe</text>
<text text-anchor="middle" x="1018.73" y="-319.5" font-family="Helvetica,sans-Serif" font-size="10.00">/ConfigEditor.h</text>
</a>
</g>
</g>
<!-- Node13&#45;&gt;Node18 -->
<g id="edge26" class="edge">
<title>Node13&#45;&gt;Node18</title>
<path fill="none" stroke="midnightblue" d="M871.17,-392.11C900.52,-380.55 938.71,-365.51 968.89,-353.63"/>
<polygon fill="midnightblue" stroke="midnightblue" points="869.61,-388.96 861.58,-395.88 872.17,-395.48 869.61,-388.96"/>
</g>
<!-- Node14&#45;&gt;Node8 -->
<g id="edge21" class="edge">
<title>Node14&#45;&gt;Node8</title>
<path fill="none" stroke="midnightblue" d="M776.94,-306.88C764.83,-298.54 752.97,-288.21 744.73,-276 728.74,-252.29 724.21,-218.74 723.02,-197.69"/>
<polygon fill="midnightblue" stroke="midnightblue" points="775.04,-309.81 785.33,-312.33 778.85,-303.94 775.04,-309.81"/>
</g>
<!-- Node15 -->
<g id="node15" class="node">
<title>Node15</title>
<g id="a_node15"><a xlink:href="PlexeSimulationRunner_8h.xhtml" target="_top" xlink:title="In this file, the header of the PlexeSimulationRunner class is defined.">
<polygon fill="white" stroke="black" points="954.23,-234.5 954.23,-275.5 1121.23,-275.5 1121.23,-234.5 954.23,-234.5"/>
<text text-anchor="start" x="962.23" y="-263.5" font-family="Helvetica,sans-Serif" font-size="10.00">/home/runner/work/Simopticon</text>
<text text-anchor="start" x="962.23" y="-252.5" font-family="Helvetica,sans-Serif" font-size="10.00">/Simopticon/src/runner/plexe</text>
<text text-anchor="middle" x="1037.73" y="-241.5" font-family="Helvetica,sans-Serif" font-size="10.00">/PlexeSimulationRunner.h</text>
</a>
</g>
</g>
<!-- Node14&#45;&gt;Node15 -->
<g id="edge22" class="edge">
<title>Node14&#45;&gt;Node15</title>
<path fill="none" stroke="midnightblue" d="M889.82,-309.03C919.66,-298.33 954.79,-285.73 983.32,-275.51"/>
<polygon fill="midnightblue" stroke="midnightblue" points="888.56,-305.76 880.33,-312.43 890.92,-312.35 888.56,-305.76"/>
</g>
<!-- Node17 -->
<g id="node17" class="node">
<title>Node17</title>
<g id="a_node17"><a xlink:href="SimulationRunner_8cpp.xhtml" target="_top" xlink:title="In this file, the implementation of the SimulationRunner class is defined.">
<polygon fill="white" stroke="black" points="753.73,-234.5 753.73,-275.5 935.73,-275.5 935.73,-234.5 753.73,-234.5"/>
<text text-anchor="start" x="761.73" y="-263.5" font-family="Helvetica,sans-Serif" font-size="10.00">/home/runner/work/Simopticon</text>
<text text-anchor="start" x="761.73" y="-252.5" font-family="Helvetica,sans-Serif" font-size="10.00">/Simopticon/src/runner/Simulation</text>
<text text-anchor="middle" x="844.73" y="-241.5" font-family="Helvetica,sans-Serif" font-size="10.00">Runner.cpp</text>
</a>
</g>
</g>
<!-- Node14&#45;&gt;Node17 -->
<g id="edge25" class="edge">
<title>Node14&#45;&gt;Node17</title>
<path fill="none" stroke="midnightblue" d="M833.09,-302.59C835.36,-293.51 837.8,-283.74 839.86,-275.51"/>
<polygon fill="midnightblue" stroke="midnightblue" points="829.66,-301.88 830.63,-312.43 836.45,-303.58 829.66,-301.88"/>
</g>
<!-- Node15&#45;&gt;Node5 -->
<g id="edge23" class="edge">
<title>Node15&#45;&gt;Node5</title>
<path fill="none" stroke="midnightblue" d="M1011.54,-226.92C974.43,-189.69 903.19,-122.26 832.73,-78 809.73,-63.55 782.35,-51.02 758.84,-41.5"/>
<polygon fill="midnightblue" stroke="midnightblue" points="1009.41,-229.74 1018.93,-234.39 1014.39,-224.82 1009.41,-229.74"/>
</g>
<!-- Node16 -->
<g id="node16" class="node">
<title>Node16</title>
<g id="a_node16"><a xlink:href="PlexeSimulationRunner_8cpp.xhtml" target="_top" xlink:title="In this file, the implementation of the PlexeSimulationRunner class is defined.">
<polygon fill="white" stroke="black" points="1023.23,-156.5 1023.23,-197.5 1190.23,-197.5 1190.23,-156.5 1023.23,-156.5"/>
<text text-anchor="start" x="1031.23" y="-185.5" font-family="Helvetica,sans-Serif" font-size="10.00">/home/runner/work/Simopticon</text>
<text text-anchor="start" x="1031.23" y="-174.5" font-family="Helvetica,sans-Serif" font-size="10.00">/Simopticon/src/runner/plexe</text>
<text text-anchor="middle" x="1106.73" y="-163.5" font-family="Helvetica,sans-Serif" font-size="10.00">/PlexeSimulationRunner.cpp</text>
</a>
</g>
</g>
<!-- Node15&#45;&gt;Node16 -->
<g id="edge24" class="edge">
<title>Node15&#45;&gt;Node16</title>
<path fill="none" stroke="midnightblue" d="M1062.32,-226.92C1071.14,-217.2 1080.9,-206.45 1089.02,-197.51"/>
<polygon fill="midnightblue" stroke="midnightblue" points="1059.63,-224.67 1055.5,-234.43 1064.82,-229.38 1059.63,-224.67"/>
</g>
<!-- Node18&#45;&gt;Node15 -->
<g id="edge27" class="edge">
<title>Node18&#45;&gt;Node15</title>
<path fill="none" stroke="midnightblue" d="M1026.09,-302.59C1028.36,-293.51 1030.8,-283.74 1032.86,-275.51"/>
<polygon fill="midnightblue" stroke="midnightblue" points="1022.66,-301.88 1023.63,-312.43 1029.45,-303.58 1022.66,-301.88"/>
</g>
<!-- Node18&#45;&gt;Node16 -->
<g id="edge29" class="edge">
<title>Node18&#45;&gt;Node16</title>
<path fill="none" stroke="midnightblue" d="M1112.31,-312.21C1171.23,-303.94 1287.82,-309.27 1315.73,-276 1356.95,-226.88 1265,-200.88 1190.25,-188.28"/>
<polygon fill="midnightblue" stroke="midnightblue" points="1111.65,-308.78 1102.35,-313.86 1112.79,-315.68 1111.65,-308.78"/>
</g>
<!-- Node19 -->
<g id="node19" class="node">
<title>Node19</title>
<g id="a_node19"><a xlink:href="ConfigEditor_8cpp.xhtml" target="_top" xlink:title="In this file, the implementation of the ConfigEditor class is defined.">
<polygon fill="white" stroke="black" points="1139.23,-234.5 1139.23,-275.5 1306.23,-275.5 1306.23,-234.5 1139.23,-234.5"/>
<text text-anchor="start" x="1147.23" y="-263.5" font-family="Helvetica,sans-Serif" font-size="10.00">/home/runner/work/Simopticon</text>
<text text-anchor="start" x="1147.23" y="-252.5" font-family="Helvetica,sans-Serif" font-size="10.00">/Simopticon/src/runner/plexe</text>
<text text-anchor="middle" x="1222.73" y="-241.5" font-family="Helvetica,sans-Serif" font-size="10.00">/ConfigEditor.cpp</text>
</a>
</g>
</g>
<!-- Node18&#45;&gt;Node19 -->
<g id="edge28" class="edge">
<title>Node18&#45;&gt;Node19</title>
<path fill="none" stroke="midnightblue" d="M1080.77,-308.89C1109.41,-298.22 1143.04,-285.69 1170.38,-275.51"/>
<polygon fill="midnightblue" stroke="midnightblue" points="1079.42,-305.66 1071.27,-312.43 1081.86,-312.22 1079.42,-305.66"/>
</g>
<!-- Node21 -->
<g id="node21" class="node">
<title>Node21</title>
<g id="a_node21"><a xlink:href="ParameterNormalizer_8cpp.xhtml" target="_top" xlink:title="In this file, the implementation of the ParameterNormalizer class is defined.">
<polygon fill="white" stroke="black" points="1120.73,-312.5 1120.73,-353.5 1294.73,-353.5 1294.73,-312.5 1120.73,-312.5"/>
<text text-anchor="start" x="1128.73" y="-341.5" font-family="Helvetica,sans-Serif" font-size="10.00">/home/runner/work/Simopticon</text>
<text text-anchor="start" x="1128.73" y="-330.5" font-family="Helvetica,sans-Serif" font-size="10.00">/Simopticon/src/optimizer</text>
<text text-anchor="middle" x="1207.73" y="-319.5" font-family="Helvetica,sans-Serif" font-size="10.00">/direct/ParameterNormalizer.cpp</text>
</a>
</g>
</g>
<!-- Node20&#45;&gt;Node21 -->
<g id="edge31" class="edge">
<title>Node20&#45;&gt;Node21</title>
<path fill="none" stroke="midnightblue" d="M1150.1,-383.78C1161.6,-373.84 1174.48,-362.72 1185.15,-353.51"/>
<polygon fill="midnightblue" stroke="midnightblue" points="1147.68,-381.24 1142.4,-390.43 1152.25,-386.54 1147.68,-381.24"/>
</g>
<!-- Node22 -->
<g id="node22" class="node">
<title>Node22</title>
<g id="a_node22"><a xlink:href="ContinuousParameter_8cpp.xhtml" target="_top" xlink:title="In this file, the implementation of the ContinuousParameter class is defined.">
<polygon fill="white" stroke="black" points="1313.23,-312.5 1313.23,-353.5 1480.23,-353.5 1480.23,-312.5 1313.23,-312.5"/>
<text text-anchor="start" x="1321.23" y="-341.5" font-family="Helvetica,sans-Serif" font-size="10.00">/home/runner/work/Simopticon</text>
<text text-anchor="start" x="1321.23" y="-330.5" font-family="Helvetica,sans-Serif" font-size="10.00">/Simopticon/src/parameters</text>
<text text-anchor="middle" x="1396.73" y="-319.5" font-family="Helvetica,sans-Serif" font-size="10.00">/ContinuousParameter.cpp</text>
</a>
</g>
</g>
<!-- Node20&#45;&gt;Node22 -->
<g id="edge32" class="edge">
<title>Node20&#45;&gt;Node22</title>
<path fill="none" stroke="midnightblue" d="M1200.94,-387.72C1240.47,-376.87 1287.55,-363.96 1325.64,-353.51"/>
<polygon fill="midnightblue" stroke="midnightblue" points="1199.79,-384.41 1191.07,-390.43 1201.64,-391.16 1199.79,-384.41"/>
</g>
<!-- Node25 -->
<g id="node25" class="node">
<title>Node25</title>
<g id="a_node25"><a xlink:href="DiscreteParameter_8cpp.xhtml" target="_top" xlink:title="In this file, the implementation of the DiscreteParameter class is defined.">
<polygon fill="white" stroke="black" points="1498.23,-312.5 1498.23,-353.5 1665.23,-353.5 1665.23,-312.5 1498.23,-312.5"/>
<text text-anchor="start" x="1506.23" y="-341.5" font-family="Helvetica,sans-Serif" font-size="10.00">/home/runner/work/Simopticon</text>
<text text-anchor="start" x="1506.23" y="-330.5" font-family="Helvetica,sans-Serif" font-size="10.00">/Simopticon/src/parameters</text>
<text text-anchor="middle" x="1581.73" y="-319.5" font-family="Helvetica,sans-Serif" font-size="10.00">/DiscreteParameter.cpp</text>
</a>
</g>
</g>
<!-- Node24&#45;&gt;Node25 -->
<g id="edge35" class="edge">
<title>Node24&#45;&gt;Node25</title>
<path fill="none" stroke="midnightblue" d="M1552.83,-381.76C1558.52,-372.35 1564.73,-362.1 1569.93,-353.51"/>
<polygon fill="midnightblue" stroke="midnightblue" points="1549.76,-380.06 1547.58,-390.43 1555.75,-383.69 1549.76,-380.06"/>
</g>
</g>
</svg>
        <g id="navigator" transform="translate(0 0)" fill="#404254">
                <rect fill="#f2f5e9" fill-opacity="0.5" stroke="#606060" stroke-width=".5" x="0" y="0" width="60" height="60"/>
                <use id="zoomplus" xlink:href="#zoomPlus" x="17" y="9" onmousedown="handleZoom(evt,'in')"/>
                <use id="zoomminus" xlink:href="#zoomMin" x="42" y="9" onmousedown="handleZoom(evt,'out')"/>
                <use id="reset" xlink:href="#resetDef" x="30" y="36" onmousedown="handleReset()"/>
                <g id="arrowUp" xlink:href="#dirArrow" transform="translate(30 24)" onmousedown="handlePan(0,-1)">
                  <use xlink:href="#rim" fill="#404040">
                        <set attributeName="fill" to="#808080" begin="arrowUp.mouseover" end="arrowUp.mouseout"/>
                  </use>
                  <path fill="none" stroke="white" stroke-width="1.5" d="M0,-3.0v7 M-2.5,-0.5L0,-3.0L2.5,-0.5"/>
                </g>
                <g id="arrowRight" xlink:href="#dirArrow" transform="rotate(90) translate(36 -43)" onmousedown="handlePan(1,0)">
                  <use xlink:href="#rim" fill="#404040">
                        <set attributeName="fill" to="#808080" begin="arrowRight.mouseover" end="arrowRight.mouseout"/>
                  </use>
                  <path fill="none" stroke="white" stroke-width="1.5" d="M0,-3.0v7 M-2.5,-0.5L0,-3.0L2.5,-0.5"/>
                </g>
                <g id="arrowDown" xlink:href="#dirArrow" transform="rotate(180) translate(-30 -48)" onmousedown="handlePan(0,1)">
                  <use xlink:href="#rim" fill="#404040">
                        <set attributeName="fill" to="#808080" begin="arrowDown.mouseover" end="arrowDown.mouseout"/>
                  </use>
                  <path fill="none" stroke="white" stroke-width="1.5" d="M0,-3.0v7 M-2.5,-0.5L0,-3.0L2.5,-0.5"/>
                </g>
                <g id="arrowLeft" xlink:href="#dirArrow" transform="rotate(270) translate(-36 17)" onmousedown="handlePan(-1,0)">
                  <use xlink:href="#rim" fill="#404040">
                        <set attributeName="fill" to="#808080" begin="arrowLeft.mouseover" end="arrowLeft.mouseout"/>
                  </use>
                  <path fill="none" stroke="white" stroke-width="1.5" d="M0,-3.0v7 M-2.5,-0.5L0,-3.0L2.5,-0.5"/>
                </g>
        </g>
        <svg viewBox="0 0 15 15" width="100%" height="30px" preserveAspectRatio="xMaxYMin meet">
         <g id="arrow_out" transform="scale(0.3 0.3)">
          <a xlink:href="Parameter_8h__dep__incl_org.svg" target="_base">
           <rect id="button" ry="5" rx="5" y="6" x="6" height="38" width="38"
                fill="#f2f5e9" fill-opacity="0.5" stroke="#606060" stroke-width="1.0"/>
           <path id="arrow"
             d="M 11.500037,31.436501 C 11.940474,20.09759 22.043105,11.32322 32.158766,21.979434 L 37.068811,17.246167 C 37.068811,17.246167 37.088388,32 37.088388,32 L 22.160133,31.978069 C 22.160133,31.978069 26.997745,27.140456 26.997745,27.140456 C 18.528582,18.264221 13.291696,25.230495 11.500037,31.436501 z"
             style="fill:#404040;"/>
          </a>
         </g>
        </svg>
</svg>
