<?xml version="1.0" encoding="UTF-8" standalone="no"?>
<!DOCTYPE svg PUBLIC "-//W3C//DTD SVG 1.1//EN"
 "http://www.w3.org/Graphics/SVG/1.1/DTD/svg11.dtd">
<!-- Generated by graphviz version 2.43.0 (0)
 -->
<!-- Title: src/parameters/Parameter.h Pages: 1 -->
<svg width="1523pt" height="408pt"
 viewBox="0.00 0.00 1522.50 408.00" xmlns="http://www.w3.org/2000/svg" xmlns:xlink="http://www.w3.org/1999/xlink">
<g id="graph0" class="graph" transform="scale(1 1) rotate(0) translate(4 404)">
<title>src/parameters/Parameter.h</title>
<polygon fill="white" stroke="transparent" points="-4,4 -4,-404 1518.5,-404 1518.5,4 -4,4"/>
<!-- Node1 -->
<g id="node1" class="node">
<title>Node1</title>
<g id="a_node1"><a xlink:title="In this file, the header of the Parameter class is defined.">
<polygon fill="#bfbfbf" stroke="black" points="707,-380.5 707,-399.5 859,-399.5 859,-380.5 707,-380.5"/>
<text text-anchor="middle" x="783" y="-387.5" font-family="Helvetica,sans-Serif" font-size="10.00">src/parameters/Parameter.h</text>
</a>
</g>
</g>
<!-- Node2 -->
<g id="node2" class="node">
<title>Node2</title>
<g id="a_node2"><a xlink:href="Controller_8h.xhtml" target="_top" xlink:title="In this file, the header of the Controller class is defined.">
<polygon fill="white" stroke="black" points="522,-118 522,-137 662,-137 662,-118 522,-118"/>
<text text-anchor="middle" x="592" y="-125" font-family="Helvetica,sans-Serif" font-size="10.00">src/controller/Controller.h</text>
</a>
</g>
</g>
<!-- Node1&#45;&gt;Node2 -->
<g id="edge1" class="edge">
<title>Node1&#45;&gt;Node2</title>
<path fill="none" stroke="midnightblue" d="M696.79,-381.43C668.53,-375.12 638.81,-363.88 617,-344 556.04,-288.43 581.08,-170.23 589.6,-137.22"/>
<polygon fill="midnightblue" stroke="midnightblue" points="696.22,-384.88 706.71,-383.46 697.62,-378.02 696.22,-384.88"/>
</g>
<!-- Node8 -->
<g id="node8" class="node">
<title>Node8</title>
<g id="a_node8"><a xlink:href="ValueMap_8h.xhtml" target="_top" xlink:title="In this file, the header of the ValueMap class is defined.">
<polygon fill="white" stroke="black" points="318,-252 318,-271 458,-271 458,-252 318,-252"/>
<text text-anchor="middle" x="388" y="-259" font-family="Helvetica,sans-Serif" font-size="10.00">src/controller/ValueMap.h</text>
</a>
</g>
</g>
<!-- Node1&#45;&gt;Node8 -->
<g id="edge9" class="edge">
<title>Node1&#45;&gt;Node8</title>
<path fill="none" stroke="midnightblue" d="M696.8,-383.25C643.34,-377.57 574.02,-366.3 516,-344 468.05,-325.57 418.88,-287.93 398.17,-271.04"/>
<polygon fill="midnightblue" stroke="midnightblue" points="696.63,-386.75 706.93,-384.28 697.34,-379.79 696.63,-386.75"/>
</g>
<!-- Node13 -->
<g id="node13" class="node">
<title>Node13</title>
<g id="a_node13"><a xlink:href="ComparisonFunctions_8h.xhtml" target="_top" xlink:title="In this file, comparison functions are defined which should be used across the whole framework.">
<polygon fill="white" stroke="black" points="626,-319 626,-338 774,-338 774,-319 626,-319"/>
<text text-anchor="middle" x="700" y="-326" font-family="Helvetica,sans-Serif" font-size="10.00">src/ComparisonFunctions.h</text>
</a>
</g>
</g>
<!-- Node1&#45;&gt;Node13 -->
<g id="edge17" class="edge">
<title>Node1&#45;&gt;Node13</title>
<path fill="none" stroke="midnightblue" d="M762.93,-374.61C746.97,-363.17 725.17,-347.55 711.87,-338.01"/>
<polygon fill="midnightblue" stroke="midnightblue" points="760.94,-377.49 771.11,-380.48 765.02,-371.8 760.94,-377.49"/>
</g>
<!-- Node20 -->
<g id="node20" class="node">
<title>Node20</title>
<g id="a_node20"><a xlink:href="ContinuousParameter_8h.xhtml" target="_top" xlink:title="In this file, the header of the ContinuousParameter class is defined.">
<polygon fill="white" stroke="black" points="886,-313.5 886,-343.5 1034,-343.5 1034,-313.5 886,-313.5"/>
<text text-anchor="start" x="894" y="-331.5" font-family="Helvetica,sans-Serif" font-size="10.00">src/parameters/Continuous</text>
<text text-anchor="middle" x="960" y="-320.5" font-family="Helvetica,sans-Serif" font-size="10.00">Parameter.h</text>
</a>
</g>
</g>
<!-- Node1&#45;&gt;Node20 -->
<g id="edge30" class="edge">
<title>Node1&#45;&gt;Node20</title>
<path fill="none" stroke="midnightblue" d="M818.01,-377.23C846.83,-367.54 887.77,-353.78 918.28,-343.52"/>
<polygon fill="midnightblue" stroke="midnightblue" points="816.72,-373.97 808.36,-380.48 818.95,-380.61 816.72,-373.97"/>
</g>
<!-- Node23 -->
<g id="node23" class="node">
<title>Node23</title>
<g id="a_node23"><a xlink:href="DiscreteParameter_8h.xhtml" target="_top" xlink:title="In this file, the header of the DiscreteParameter class is defined.">
<polygon fill="white" stroke="black" points="1052,-319 1052,-338 1244,-338 1244,-319 1052,-319"/>
<text text-anchor="middle" x="1148" y="-326" font-family="Helvetica,sans-Serif" font-size="10.00">src/parameters/DiscreteParameter.h</text>
</a>
</g>
</g>
<!-- Node1&#45;&gt;Node23 -->
<g id="edge33" class="edge">
<title>Node1&#45;&gt;Node23</title>
<path fill="none" stroke="midnightblue" d="M845.39,-378.83C915.98,-367.32 1029.71,-348.78 1095.8,-338.01"/>
<polygon fill="midnightblue" stroke="midnightblue" points="844.6,-375.41 835.3,-380.48 845.73,-382.32 844.6,-375.41"/>
</g>
<!-- Node25 -->
<g id="node25" class="node">
<title>Node25</title>
<g id="a_node25"><a xlink:href="Parameter_8cpp.xhtml" target="_top" xlink:title="In this file, the implementation of the Parameter class is defined.">
<polygon fill="white" stroke="black" points="1262.5,-319 1262.5,-338 1425.5,-338 1425.5,-319 1262.5,-319"/>
<text text-anchor="middle" x="1344" y="-326" font-family="Helvetica,sans-Serif" font-size="10.00">src/parameters/Parameter.cpp</text>
</a>
</g>
</g>
<!-- Node1&#45;&gt;Node25 -->
<g id="edge35" class="edge">
<title>Node1&#45;&gt;Node25</title>
<path fill="none" stroke="midnightblue" d="M869.35,-382.36C963.76,-374.72 1119.43,-361.02 1253,-344 1266.33,-342.3 1280.71,-340.16 1294.02,-338.04"/>
<polygon fill="midnightblue" stroke="midnightblue" points="868.96,-378.88 859.28,-383.17 869.52,-385.86 868.96,-378.88"/>
</g>
<!-- Node3 -->
<g id="node3" class="node">
<title>Node3</title>
<g id="a_node3"><a xlink:href="Controller_8cpp.xhtml" target="_top" xlink:title="In this file, the implementation of the Controller class is defined.">
<polygon fill="white" stroke="black" points="747.5,-0.5 747.5,-19.5 898.5,-19.5 898.5,-0.5 747.5,-0.5"/>
<text text-anchor="middle" x="823" y="-7.5" font-family="Helvetica,sans-Serif" font-size="10.00">src/controller/Controller.cpp</text>
</a>
</g>
</g>
<!-- Node2&#45;&gt;Node3 -->
<g id="edge2" class="edge">
<title>Node2&#45;&gt;Node3</title>
<path fill="none" stroke="midnightblue" d="M672.21,-122.26C741.72,-116.71 834.71,-104.12 858,-76 872.88,-58.03 848.91,-32.76 833.81,-19.65"/>
<polygon fill="midnightblue" stroke="midnightblue" points="671.84,-118.78 662.14,-123.03 672.37,-125.76 671.84,-118.78"/>
</g>
<!-- Node4 -->
<g id="node4" class="node">
<title>Node4</title>
<g id="a_node4"><a xlink:href="StubController_8h.xhtml" target="_top" xlink:title="In this file, the header of the StubController class is defined.">
<polygon fill="white" stroke="black" points="688.5,-56.5 688.5,-75.5 849.5,-75.5 849.5,-56.5 688.5,-56.5"/>
<text text-anchor="middle" x="769" y="-63.5" font-family="Helvetica,sans-Serif" font-size="10.00">src/controller/StubController.h</text>
</a>
</g>
</g>
<!-- Node2&#45;&gt;Node4 -->
<g id="edge3" class="edge">
<title>Node2&#45;&gt;Node4</title>
<path fill="none" stroke="midnightblue" d="M627.01,-114.73C661.41,-103.17 713.08,-85.8 743.69,-75.51"/>
<polygon fill="midnightblue" stroke="midnightblue" points="625.72,-111.47 617.36,-117.98 627.95,-118.11 625.72,-111.47"/>
</g>
<!-- Node6 -->
<g id="node6" class="node">
<title>Node6</title>
<g id="a_node6"><a xlink:href="main_8cpp.xhtml" target="_top" xlink:title="In this file, the main function running the Simopticon framework is defined.">
<polygon fill="white" stroke="black" points="504.5,-0.5 504.5,-19.5 583.5,-19.5 583.5,-0.5 504.5,-0.5"/>
<text text-anchor="middle" x="544" y="-7.5" font-family="Helvetica,sans-Serif" font-size="10.00">src/main.cpp</text>
</a>
</g>
</g>
<!-- Node2&#45;&gt;Node6 -->
<g id="edge7" class="edge">
<title>Node2&#45;&gt;Node6</title>
<path fill="none" stroke="midnightblue" d="M555.72,-113.85C538.62,-105.84 519.84,-93.61 510,-76 498.95,-56.21 519.7,-32.52 533.38,-19.91"/>
<polygon fill="midnightblue" stroke="midnightblue" points="554.42,-117.1 564.99,-117.87 557.21,-110.68 554.42,-117.1"/>
</g>
<!-- Node7 -->
<g id="node7" class="node">
<title>Node7</title>
<g id="a_node7"><a xlink:href="Optimizer_8cpp.xhtml" target="_top" xlink:title="In this file, the implementation of the Optimizer class is defined.">
<polygon fill="white" stroke="black" points="519.5,-56.5 519.5,-75.5 670.5,-75.5 670.5,-56.5 519.5,-56.5"/>
<text text-anchor="middle" x="595" y="-63.5" font-family="Helvetica,sans-Serif" font-size="10.00">src/optimizer/Optimizer.cpp</text>
</a>
</g>
</g>
<!-- Node2&#45;&gt;Node7 -->
<g id="edge8" class="edge">
<title>Node2&#45;&gt;Node7</title>
<path fill="none" stroke="midnightblue" d="M592.94,-107.82C593.49,-97 594.15,-83.9 594.57,-75.51"/>
<polygon fill="midnightblue" stroke="midnightblue" points="589.44,-107.81 592.43,-117.98 596.43,-108.16 589.44,-107.81"/>
</g>
<!-- Node4&#45;&gt;Node3 -->
<g id="edge5" class="edge">
<title>Node4&#45;&gt;Node3</title>
<path fill="none" stroke="midnightblue" d="M785,-49C794.57,-39.43 806.36,-27.64 814.25,-19.75"/>
<polygon fill="midnightblue" stroke="midnightblue" points="782.51,-46.54 777.92,-56.08 787.46,-51.49 782.51,-46.54"/>
</g>
<!-- Node5 -->
<g id="node5" class="node">
<title>Node5</title>
<g id="a_node5"><a xlink:href="StubController_8cpp.xhtml" target="_top" xlink:title="In this file, the implementation of the StubController class is defined.">
<polygon fill="white" stroke="black" points="231.5,-0.5 231.5,-19.5 404.5,-19.5 404.5,-0.5 231.5,-0.5"/>
<text text-anchor="middle" x="318" y="-7.5" font-family="Helvetica,sans-Serif" font-size="10.00">src/controller/StubController.cpp</text>
</a>
</g>
</g>
<!-- Node4&#45;&gt;Node5 -->
<g id="edge4" class="edge">
<title>Node4&#45;&gt;Node5</title>
<path fill="none" stroke="midnightblue" d="M687.4,-55.23C602.26,-45.04 470.14,-29.22 389.13,-19.52"/>
<polygon fill="midnightblue" stroke="midnightblue" points="687.19,-58.73 697.54,-56.44 688.02,-51.78 687.19,-58.73"/>
</g>
<!-- Node4&#45;&gt;Node6 -->
<g id="edge6" class="edge">
<title>Node4&#45;&gt;Node6</title>
<path fill="none" stroke="midnightblue" d="M723.53,-54.09C681.03,-43.89 618.42,-28.86 579.49,-19.52"/>
<polygon fill="midnightblue" stroke="midnightblue" points="722.81,-57.51 733.35,-56.44 724.44,-50.71 722.81,-57.51"/>
</g>
<!-- Node8&#45;&gt;Node3 -->
<g id="edge11" class="edge">
<title>Node8&#45;&gt;Node3</title>
<path fill="none" stroke="midnightblue" d="M422.4,-247.74C440.02,-239.52 460.37,-227.14 473,-210 514.77,-153.34 457.97,-103.41 510,-56 543.78,-25.22 666.02,-15.44 747.37,-12.37"/>
<polygon fill="midnightblue" stroke="midnightblue" points="420.72,-244.66 412.96,-251.88 423.53,-251.07 420.72,-244.66"/>
</g>
<!-- Node8&#45;&gt;Node5 -->
<g id="edge10" class="edge">
<title>Node8&#45;&gt;Node5</title>
<path fill="none" stroke="midnightblue" d="M307.78,-253C250.73,-245.82 181.11,-232.63 163,-210 135.78,-176 142.25,-150.29 163,-112 190.16,-61.88 254.18,-32.71 290.88,-19.53"/>
<polygon fill="midnightblue" stroke="midnightblue" points="307.56,-256.5 317.91,-254.23 308.4,-249.55 307.56,-256.5"/>
</g>
<!-- Node9 -->
<g id="node9" class="node">
<title>Node9</title>
<g id="a_node9"><a xlink:href="ValueMap_8cpp.xhtml" target="_top" xlink:title="In this file, the implementation of the ValueMap class is defined.">
<polygon fill="white" stroke="black" points="312,-185 312,-204 464,-204 464,-185 312,-185"/>
<text text-anchor="middle" x="388" y="-192" font-family="Helvetica,sans-Serif" font-size="10.00">src/controller/ValueMap.cpp</text>
</a>
</g>
</g>
<!-- Node8&#45;&gt;Node9 -->
<g id="edge12" class="edge">
<title>Node8&#45;&gt;Node9</title>
<path fill="none" stroke="midnightblue" d="M388,-241.54C388,-229.17 388,-213.62 388,-204.13"/>
<polygon fill="midnightblue" stroke="midnightblue" points="384.5,-241.73 388,-251.73 391.5,-241.73 384.5,-241.73"/>
</g>
<!-- Node10 -->
<g id="node10" class="node">
<title>Node10</title>
<g id="a_node10"><a xlink:href="DirectOptimizer_8cpp.xhtml" target="_top" xlink:title="In this file, the implementation of the DirectOptimizer class is defined.">
<polygon fill="white" stroke="black" points="0,-179.5 0,-209.5 116,-209.5 116,-179.5 0,-179.5"/>
<text text-anchor="start" x="8" y="-197.5" font-family="Helvetica,sans-Serif" font-size="10.00">src/optimizer/direct</text>
<text text-anchor="middle" x="58" y="-186.5" font-family="Helvetica,sans-Serif" font-size="10.00">/DirectOptimizer.cpp</text>
</a>
</g>
</g>
<!-- Node8&#45;&gt;Node10 -->
<g id="edge13" class="edge">
<title>Node8&#45;&gt;Node10</title>
<path fill="none" stroke="midnightblue" d="M334.12,-250.04C281.92,-239.89 200.51,-224 130,-210 125.5,-209.11 120.84,-208.18 116.15,-207.24"/>
<polygon fill="midnightblue" stroke="midnightblue" points="333.68,-253.52 344.16,-251.99 335.01,-246.65 333.68,-253.52"/>
</g>
<!-- Node11 -->
<g id="node11" class="node">
<title>Node11</title>
<g id="a_node11"><a xlink:href="StatusBar_8h.xhtml" target="_top" xlink:title="In this file, the header of the StatusBar class is defined.">
<polygon fill="white" stroke="black" points="172,-185 172,-204 294,-204 294,-185 172,-185"/>
<text text-anchor="middle" x="233" y="-192" font-family="Helvetica,sans-Serif" font-size="10.00">src/status/StatusBar.h</text>
</a>
</g>
</g>
<!-- Node8&#45;&gt;Node11 -->
<g id="edge14" class="edge">
<title>Node8&#45;&gt;Node11</title>
<path fill="none" stroke="midnightblue" d="M358.07,-247.95C327.38,-235.08 280.46,-215.4 253.67,-204.17"/>
<polygon fill="midnightblue" stroke="midnightblue" points="356.84,-251.23 367.42,-251.87 359.55,-244.77 356.84,-251.23"/>
</g>
<!-- Node11&#45;&gt;Node2 -->
<g id="edge15" class="edge">
<title>Node11&#45;&gt;Node2</title>
<path fill="none" stroke="midnightblue" d="M283.49,-182.85C290.05,-181.52 296.68,-180.21 303,-179 385.93,-163.17 482.62,-146.67 540.49,-137"/>
<polygon fill="midnightblue" stroke="midnightblue" points="282.4,-179.5 273.3,-184.93 283.8,-186.35 282.4,-179.5"/>
</g>
<!-- Node12 -->
<g id="node12" class="node">
<title>Node12</title>
<g id="a_node12"><a xlink:href="StatusBar_8cpp.xhtml" target="_top" xlink:title="In this file, the implementation of the StatusBar class is defined.">
<polygon fill="white" stroke="black" points="172,-118 172,-137 306,-137 306,-118 172,-118"/>
<text text-anchor="middle" x="239" y="-125" font-family="Helvetica,sans-Serif" font-size="10.00">src/status/StatusBar.cpp</text>
</a>
</g>
</g>
<!-- Node11&#45;&gt;Node12 -->
<g id="edge16" class="edge">
<title>Node11&#45;&gt;Node12</title>
<path fill="none" stroke="midnightblue" d="M234.75,-174.54C235.89,-162.17 237.33,-146.62 238.2,-137.13"/>
<polygon fill="midnightblue" stroke="midnightblue" points="231.24,-174.45 233.81,-184.73 238.21,-175.1 231.24,-174.45"/>
</g>
<!-- Node13&#45;&gt;Node2 -->
<g id="edge18" class="edge">
<title>Node13&#45;&gt;Node2</title>
<path fill="none" stroke="midnightblue" d="M660.47,-315.16C641.82,-307.26 621.05,-295.04 609,-277 578.87,-231.91 586.6,-161.46 590.46,-137.12"/>
<polygon fill="midnightblue" stroke="midnightblue" points="659.39,-318.5 669.98,-318.91 661.96,-311.99 659.39,-318.5"/>
</g>
<!-- Node13&#45;&gt;Node8 -->
<g id="edge19" class="edge">
<title>Node13&#45;&gt;Node8</title>
<path fill="none" stroke="midnightblue" d="M649.03,-316.88C587.68,-304.1 485.83,-282.88 429.2,-271.08"/>
<polygon fill="midnightblue" stroke="midnightblue" points="648.39,-320.32 658.89,-318.94 649.81,-313.47 648.39,-320.32"/>
</g>
<!-- Node14 -->
<g id="node14" class="node">
<title>Node14</title>
<g id="a_node14"><a xlink:href="SimulationRunner_8h.xhtml" target="_top" xlink:title="In this file, the header of the SimulationRunner class is defined.">
<polygon fill="white" stroke="black" points="618,-252 618,-271 782,-271 782,-252 618,-252"/>
<text text-anchor="middle" x="700" y="-259" font-family="Helvetica,sans-Serif" font-size="10.00">src/runner/SimulationRunner.h</text>
</a>
</g>
</g>
<!-- Node13&#45;&gt;Node14 -->
<g id="edge20" class="edge">
<title>Node13&#45;&gt;Node14</title>
<path fill="none" stroke="midnightblue" d="M700,-308.54C700,-296.17 700,-280.62 700,-271.13"/>
<polygon fill="midnightblue" stroke="midnightblue" points="696.5,-308.73 700,-318.73 703.5,-308.73 696.5,-308.73"/>
</g>
<!-- Node18 -->
<g id="node18" class="node">
<title>Node18</title>
<g id="a_node18"><a xlink:href="ConfigEditor_8h.xhtml" target="_top" xlink:title="In this file, the header of the ConfigEditor class is defined.">
<polygon fill="white" stroke="black" points="800.5,-252 800.5,-271 965.5,-271 965.5,-252 800.5,-252"/>
<text text-anchor="middle" x="883" y="-259" font-family="Helvetica,sans-Serif" font-size="10.00">src/runner/plexe/ConfigEditor.h</text>
</a>
</g>
</g>
<!-- Node13&#45;&gt;Node18 -->
<g id="edge26" class="edge">
<title>Node13&#45;&gt;Node18</title>
<path fill="none" stroke="midnightblue" d="M733.96,-315.44C770.27,-302.54 826.91,-282.42 858.89,-271.06"/>
<polygon fill="midnightblue" stroke="midnightblue" points="732.55,-312.22 724.3,-318.87 734.9,-318.82 732.55,-312.22"/>
</g>
<!-- Node14&#45;&gt;Node2 -->
<g id="edge21" class="edge">
<title>Node14&#45;&gt;Node2</title>
<path fill="none" stroke="midnightblue" d="M672.12,-247.03C656.51,-238.3 637.69,-225.65 625,-210 606.63,-187.36 597.3,-153.13 593.75,-137.21"/>
<polygon fill="midnightblue" stroke="midnightblue" points="670.88,-250.33 681.35,-251.94 674.17,-244.15 670.88,-250.33"/>
</g>
<!-- Node15 -->
<g id="node15" class="node">
<title>Node15</title>
<g id="a_node15"><a xlink:href="PlexeSimulationRunner_8h.xhtml" target="_top" xlink:title="In this file, the header of the PlexeSimulationRunner class is defined.">
<polygon fill="white" stroke="black" points="828,-179.5 828,-209.5 1004,-209.5 1004,-179.5 828,-179.5"/>
<text text-anchor="start" x="836" y="-197.5" font-family="Helvetica,sans-Serif" font-size="10.00">src/runner/plexe/PlexeSimulation</text>
<text text-anchor="middle" x="916" y="-186.5" font-family="Helvetica,sans-Serif" font-size="10.00">Runner.h</text>
</a>
</g>
</g>
<!-- Node14&#45;&gt;Node15 -->
<g id="edge22" class="edge">
<title>Node14&#45;&gt;Node15</title>
<path fill="none" stroke="midnightblue" d="M738.49,-248.92C775.12,-237.9 830.29,-221.29 869.38,-209.53"/>
<polygon fill="midnightblue" stroke="midnightblue" points="737.25,-245.64 728.68,-251.87 739.27,-252.34 737.25,-245.64"/>
</g>
<!-- Node17 -->
<g id="node17" class="node">
<title>Node17</title>
<g id="a_node17"><a xlink:href="SimulationRunner_8cpp.xhtml" target="_top" xlink:title="In this file, the implementation of the SimulationRunner class is defined.">
<polygon fill="white" stroke="black" points="634.5,-185 634.5,-204 809.5,-204 809.5,-185 634.5,-185"/>
<text text-anchor="middle" x="722" y="-192" font-family="Helvetica,sans-Serif" font-size="10.00">src/runner/SimulationRunner.cpp</text>
</a>
</g>
</g>
<!-- Node14&#45;&gt;Node17 -->
<g id="edge25" class="edge">
<title>Node14&#45;&gt;Node17</title>
<path fill="none" stroke="midnightblue" d="M706.29,-241.91C710.5,-229.49 715.83,-213.72 719.08,-204.13"/>
<polygon fill="midnightblue" stroke="midnightblue" points="702.86,-241.14 702.97,-251.73 709.49,-243.38 702.86,-241.14"/>
</g>
<!-- Node15&#45;&gt;Node3 -->
<g id="edge23" class="edge">
<title>Node15&#45;&gt;Node3</title>
<path fill="none" stroke="midnightblue" d="M912.96,-169.09C908.44,-140.17 897.89,-91.44 875,-56 865.15,-40.76 848.67,-27.75 836.9,-19.7"/>
<polygon fill="midnightblue" stroke="midnightblue" points="909.51,-169.74 914.41,-179.14 916.44,-168.74 909.51,-169.74"/>
</g>
<!-- Node16 -->
<g id="node16" class="node">
<title>Node16</title>
<g id="a_node16"><a xlink:href="PlexeSimulationRunner_8cpp.xhtml" target="_top" xlink:title="In this file, the implementation of the PlexeSimulationRunner class is defined.">
<polygon fill="white" stroke="black" points="1041,-112.5 1041,-142.5 1217,-142.5 1217,-112.5 1041,-112.5"/>
<text text-anchor="start" x="1049" y="-130.5" font-family="Helvetica,sans-Serif" font-size="10.00">src/runner/plexe/PlexeSimulation</text>
<text text-anchor="middle" x="1129" y="-119.5" font-family="Helvetica,sans-Serif" font-size="10.00">Runner.cpp</text>
</a>
</g>
</g>
<!-- Node15&#45;&gt;Node16 -->
<g id="edge24" class="edge">
<title>Node15&#45;&gt;Node16</title>
<path fill="none" stroke="midnightblue" d="M971.89,-176.44C1006.42,-165.91 1050.19,-152.55 1082.76,-142.61"/>
<polygon fill="midnightblue" stroke="midnightblue" points="970.5,-173.21 961.96,-179.48 972.54,-179.9 970.5,-173.21"/>
</g>
<!-- Node18&#45;&gt;Node15 -->
<g id="edge27" class="edge">
<title>Node18&#45;&gt;Node15</title>
<path fill="none" stroke="midnightblue" d="M892.03,-242.71C897.32,-232.29 903.92,-219.3 908.85,-209.59"/>
<polygon fill="midnightblue" stroke="midnightblue" points="888.86,-241.23 887.45,-251.73 895.1,-244.4 888.86,-241.23"/>
</g>
<!-- Node18&#45;&gt;Node16 -->
<g id="edge29" class="edge">
<title>Node18&#45;&gt;Node16</title>
<path fill="none" stroke="midnightblue" d="M947.07,-250.38C956.44,-248.91 965.97,-247.41 975,-246 1026.55,-237.94 1173.05,-249.62 1207,-210 1228.09,-185.39 1189.31,-158.53 1159.26,-142.63"/>
<polygon fill="midnightblue" stroke="midnightblue" points="946.33,-246.96 937,-251.97 947.42,-253.87 946.33,-246.96"/>
</g>
<!-- Node19 -->
<g id="node19" class="node">
<title>Node19</title>
<g id="a_node19"><a xlink:href="ConfigEditor_8cpp.xhtml" target="_top" xlink:title="In this file, the implementation of the ConfigEditor class is defined.">
<polygon fill="white" stroke="black" points="1022,-185 1022,-204 1198,-204 1198,-185 1022,-185"/>
<text text-anchor="middle" x="1110" y="-192" font-family="Helvetica,sans-Serif" font-size="10.00">src/runner/plexe/ConfigEditor.cpp</text>
</a>
</g>
</g>
<!-- Node18&#45;&gt;Node19 -->
<g id="edge28" class="edge">
<title>Node18&#45;&gt;Node19</title>
<path fill="none" stroke="midnightblue" d="M922.84,-249.09C967.75,-236.23 1039.74,-215.62 1080.09,-204.06"/>
<polygon fill="midnightblue" stroke="midnightblue" points="921.79,-245.75 913.14,-251.87 923.72,-252.48 921.79,-245.75"/>
</g>
<!-- Node21 -->
<g id="node21" class="node">
<title>Node21</title>
<g id="a_node21"><a xlink:href="ParameterNormalizer_8cpp.xhtml" target="_top" xlink:title="In this file, the implementation of the ParameterNormalizer class is defined.">
<polygon fill="white" stroke="black" points="983.5,-246.5 983.5,-276.5 1126.5,-276.5 1126.5,-246.5 983.5,-246.5"/>
<text text-anchor="start" x="991.5" y="-264.5" font-family="Helvetica,sans-Serif" font-size="10.00">src/optimizer/direct</text>
<text text-anchor="middle" x="1055" y="-253.5" font-family="Helvetica,sans-Serif" font-size="10.00">/ParameterNormalizer.cpp</text>
</a>
</g>
</g>
<!-- Node20&#45;&gt;Node21 -->
<g id="edge31" class="edge">
<title>Node20&#45;&gt;Node21</title>
<path fill="none" stroke="midnightblue" d="M988.89,-307.73C1003.59,-297.68 1021.11,-285.68 1034.43,-276.58"/>
<polygon fill="midnightblue" stroke="midnightblue" points="986.89,-304.86 980.61,-313.4 990.84,-310.64 986.89,-304.86"/>
</g>
<!-- Node22 -->
<g id="node22" class="node">
<title>Node22</title>
<g id="a_node22"><a xlink:href="ContinuousParameter_8cpp.xhtml" target="_top" xlink:title="In this file, the implementation of the ContinuousParameter class is defined.">
<polygon fill="white" stroke="black" points="1145,-246.5 1145,-276.5 1293,-276.5 1293,-246.5 1145,-246.5"/>
<text text-anchor="start" x="1153" y="-264.5" font-family="Helvetica,sans-Serif" font-size="10.00">src/parameters/Continuous</text>
<text text-anchor="middle" x="1219" y="-253.5" font-family="Helvetica,sans-Serif" font-size="10.00">Parameter.cpp</text>
</a>
</g>
</g>
<!-- Node20&#45;&gt;Node22 -->
<g id="edge32" class="edge">
<title>Node20&#45;&gt;Node22</title>
<path fill="none" stroke="midnightblue" d="M1025.81,-310.98C1068.11,-300.37 1122.49,-286.72 1162.77,-276.61"/>
<polygon fill="midnightblue" stroke="midnightblue" points="1024.73,-307.65 1015.88,-313.48 1026.43,-314.44 1024.73,-307.65"/>
</g>
<!-- Node24 -->
<g id="node24" class="node">
<title>Node24</title>
<g id="a_node24"><a xlink:href="DiscreteParameter_8cpp.xhtml" target="_top" xlink:title="In this file, the implementation of the DiscreteParameter class is defined.">
<polygon fill="white" stroke="black" points="1311.5,-252 1311.5,-271 1514.5,-271 1514.5,-252 1311.5,-252"/>
<text text-anchor="middle" x="1413" y="-259" font-family="Helvetica,sans-Serif" font-size="10.00">src/parameters/DiscreteParameter.cpp</text>
</a>
</g>
</g>
<!-- Node23&#45;&gt;Node24 -->
<g id="edge34" class="edge">
<title>Node23&#45;&gt;Node24</title>
<path fill="none" stroke="midnightblue" d="M1192.91,-316.48C1245.18,-303.66 1330.4,-282.76 1378.01,-271.08"/>
<polygon fill="midnightblue" stroke="midnightblue" points="1191.79,-313.15 1182.92,-318.94 1193.46,-319.95 1191.79,-313.15"/>
</g>
</g>
</svg>
