<?xml version="1.0" encoding="UTF-8" standalone="no"?>
<!DOCTYPE svg PUBLIC "-//W3C//DTD SVG 1.1//EN"
 "http://www.w3.org/Graphics/SVG/1.1/DTD/svg11.dtd">
<!-- Generated by graphviz version 2.43.0 (0)
 -->
<!-- Title: src/parameters/ParameterDefinition.cpp Pages: 1 -->
<svg width="277pt" height="207pt"
 viewBox="0.00 0.00 277.00 207.00" xmlns="http://www.w3.org/2000/svg" xmlns:xlink="http://www.w3.org/1999/xlink">
<g id="graph0" class="graph" transform="scale(1 1) rotate(0) translate(4 203)">
<title>src/parameters/ParameterDefinition.cpp</title>
<polygon fill="white" stroke="transparent" points="-4,4 -4,-203 273,-203 273,4 -4,4"/>
<!-- Node1 -->
<g id="node1" class="node">
<title>Node1</title>
<g id="a_node1"><a xlink:title="In this file, the implementation of the ParameterDefinition class is defined.">
<polygon fill="#bfbfbf" stroke="black" points="92,-168.5 92,-198.5 235,-198.5 235,-168.5 92,-168.5"/>
<text text-anchor="start" x="100" y="-186.5" font-family="Helvetica,sans-Serif" font-size="10.00">src/parameters/Parameter</text>
<text text-anchor="middle" x="163.5" y="-175.5" font-family="Helvetica,sans-Serif" font-size="10.00">Definition.cpp</text>
</a>
</g>
</g>
<!-- Node2 -->
<g id="node2" class="node">
<title>Node2</title>
<g id="a_node2"><a xlink:href="ParameterDefinition_8h.xhtml" target="_top" xlink:title="In this file, the header of the ParameterDefinition class is defined.">
<polygon fill="white" stroke="black" points="0,-112.5 0,-131.5 123,-131.5 123,-112.5 0,-112.5"/>
<text text-anchor="middle" x="61.5" y="-119.5" font-family="Helvetica,sans-Serif" font-size="10.00">ParameterDefinition.h</text>
</a>
</g>
</g>
<!-- Node1&#45;&gt;Node2 -->
<g id="edge1" class="edge">
<title>Node1&#45;&gt;Node2</title>
<path fill="none" stroke="midnightblue" d="M139.33,-168.4C122.98,-158.86 101.49,-146.32 85.23,-136.84"/>
<polygon fill="midnightblue" stroke="midnightblue" points="86.74,-133.67 76.34,-131.66 83.22,-139.72 86.74,-133.67"/>
</g>
<!-- Node7 -->
<g id="node7" class="node">
<title>Node7</title>
<g id="a_node7"><a xlink:title=" ">
<polygon fill="white" stroke="#bfbfbf" points="141,-112.5 141,-131.5 186,-131.5 186,-112.5 141,-112.5"/>
<text text-anchor="middle" x="163.5" y="-119.5" font-family="Helvetica,sans-Serif" font-size="10.00">utility</text>
</a>
</g>
</g>
<!-- Node1&#45;&gt;Node7 -->
<g id="edge7" class="edge">
<title>Node1&#45;&gt;Node7</title>
<path fill="none" stroke="midnightblue" d="M163.5,-168.4C163.5,-160.47 163.5,-150.46 163.5,-141.86"/>
<polygon fill="midnightblue" stroke="midnightblue" points="167,-141.66 163.5,-131.66 160,-141.66 167,-141.66"/>
</g>
<!-- Node8 -->
<g id="node8" class="node">
<title>Node8</title>
<g id="a_node8"><a xlink:title=" ">
<polygon fill="white" stroke="#bfbfbf" points="204,-112.5 204,-131.5 269,-131.5 269,-112.5 204,-112.5"/>
<text text-anchor="middle" x="236.5" y="-119.5" font-family="Helvetica,sans-Serif" font-size="10.00">stdexcept</text>
</a>
</g>
</g>
<!-- Node1&#45;&gt;Node8 -->
<g id="edge8" class="edge">
<title>Node1&#45;&gt;Node8</title>
<path fill="none" stroke="midnightblue" d="M180.8,-168.4C191.95,-159.31 206.45,-147.49 217.86,-138.19"/>
<polygon fill="midnightblue" stroke="midnightblue" points="220.34,-140.69 225.88,-131.66 215.92,-135.26 220.34,-140.69"/>
</g>
<!-- Node3 -->
<g id="node3" class="node">
<title>Node3</title>
<g id="a_node3"><a xlink:href="Types_8h.xhtml" target="_top" xlink:title="In this file, types are defined which should be used across the whole framework.">
<polygon fill="white" stroke="black" points="61.5,-56.5 61.5,-75.5 123.5,-75.5 123.5,-56.5 61.5,-56.5"/>
<text text-anchor="middle" x="92.5" y="-63.5" font-family="Helvetica,sans-Serif" font-size="10.00">../Types.h</text>
</a>
</g>
</g>
<!-- Node2&#45;&gt;Node3 -->
<g id="edge2" class="edge">
<title>Node2&#45;&gt;Node3</title>
<path fill="none" stroke="midnightblue" d="M66.62,-112.08C70.91,-104.61 77.16,-93.72 82.44,-84.52"/>
<polygon fill="midnightblue" stroke="midnightblue" points="85.53,-86.17 87.48,-75.75 79.46,-82.68 85.53,-86.17"/>
</g>
<!-- Node4 -->
<g id="node4" class="node">
<title>Node4</title>
<g id="a_node4"><a xlink:title=" ">
<polygon fill="white" stroke="#bfbfbf" points="8.5,-0.5 8.5,-19.5 52.5,-19.5 52.5,-0.5 8.5,-0.5"/>
<text text-anchor="middle" x="30.5" y="-7.5" font-family="Helvetica,sans-Serif" font-size="10.00">string</text>
</a>
</g>
</g>
<!-- Node2&#45;&gt;Node4 -->
<g id="edge6" class="edge">
<title>Node2&#45;&gt;Node4</title>
<path fill="none" stroke="midnightblue" d="M59.07,-112.37C54.04,-94.54 42.42,-53.3 35.65,-29.27"/>
<polygon fill="midnightblue" stroke="midnightblue" points="39,-28.27 32.92,-19.59 32.27,-30.17 39,-28.27"/>
</g>
<!-- Node3&#45;&gt;Node4 -->
<g id="edge3" class="edge">
<title>Node3&#45;&gt;Node4</title>
<path fill="none" stroke="midnightblue" d="M82.54,-56.32C73.37,-48.34 59.56,-36.31 48.47,-26.65"/>
<polygon fill="midnightblue" stroke="midnightblue" points="50.48,-23.76 40.64,-19.83 45.88,-29.04 50.48,-23.76"/>
</g>
<!-- Node5 -->
<g id="node5" class="node">
<title>Node5</title>
<g id="a_node5"><a xlink:title=" ">
<polygon fill="white" stroke="#bfbfbf" points="71,-0.5 71,-19.5 118,-19.5 118,-0.5 71,-0.5"/>
<text text-anchor="middle" x="94.5" y="-7.5" font-family="Helvetica,sans-Serif" font-size="10.00">vector</text>
</a>
</g>
</g>
<!-- Node3&#45;&gt;Node5 -->
<g id="edge4" class="edge">
<title>Node3&#45;&gt;Node5</title>
<path fill="none" stroke="midnightblue" d="M92.83,-56.08C93.09,-49.01 93.47,-38.86 93.8,-29.99"/>
<polygon fill="midnightblue" stroke="midnightblue" points="97.3,-29.87 94.18,-19.75 90.31,-29.61 97.3,-29.87"/>
</g>
<!-- Node6 -->
<g id="node6" class="node">
<title>Node6</title>
<g id="a_node6"><a xlink:title=" ">
<polygon fill="white" stroke="#bfbfbf" points="136.5,-0.5 136.5,-19.5 194.5,-19.5 194.5,-0.5 136.5,-0.5"/>
<text text-anchor="middle" x="165.5" y="-7.5" font-family="Helvetica,sans-Serif" font-size="10.00">memory</text>
</a>
</g>
</g>
<!-- Node3&#45;&gt;Node6 -->
<g id="edge5" class="edge">
<title>Node3&#45;&gt;Node6</title>
<path fill="none" stroke="midnightblue" d="M104.23,-56.32C115.34,-48.11 132.24,-35.6 145.48,-25.81"/>
<polygon fill="midnightblue" stroke="midnightblue" points="147.6,-28.59 153.56,-19.83 143.44,-22.97 147.6,-28.59"/>
</g>
</g>
</svg>
