<?xml version="1.0" encoding="UTF-8" standalone="no"?>
<!DOCTYPE svg PUBLIC "-//W3C//DTD SVG 1.1//EN"
 "http://www.w3.org/Graphics/SVG/1.1/DTD/svg11.dtd">
<!-- Generated by graphviz version 2.43.0 (0)
 -->
<!-- Title: /home/runner/work/Simopticon/Simopticon/src/parameters/ParameterDefinition.h Pages: 1 -->
<svg width="1181pt" height="362pt"
 viewBox="0.00 0.00 1181.00 362.00" xmlns="http://www.w3.org/2000/svg" xmlns:xlink="http://www.w3.org/1999/xlink">
<g id="graph0" class="graph" transform="scale(1 1) rotate(0) translate(4 358)">
<title>/home/runner/work/Simopticon/Simopticon/src/parameters/ParameterDefinition.h</title>
<polygon fill="white" stroke="transparent" points="-4,4 -4,-358 1177,-358 1177,4 -4,4"/>
<!-- Node1 -->
<g id="node1" class="node">
<title>Node1</title>
<g id="a_node1"><a xlink:title="In this file, the header of the ParameterDefinition class is defined.">
<polygon fill="#bfbfbf" stroke="black" points="726,-312.5 726,-353.5 893,-353.5 893,-312.5 726,-312.5"/>
<text text-anchor="start" x="734" y="-341.5" font-family="Helvetica,sans-Serif" font-size="10.00">/home/runner/work/Simopticon</text>
<text text-anchor="start" x="734" y="-330.5" font-family="Helvetica,sans-Serif" font-size="10.00">/Simopticon/src/parameters</text>
<text text-anchor="middle" x="809.5" y="-319.5" font-family="Helvetica,sans-Serif" font-size="10.00">/ParameterDefinition.h</text>
</a>
</g>
</g>
<!-- Node2 -->
<g id="node2" class="node">
<title>Node2</title>
<g id="a_node2"><a xlink:href="Optimizer_8h.xhtml" target="_top" xlink:title="In this file, the header of the Optimizer class is defined.">
<polygon fill="white" stroke="black" points="443,-234.5 443,-275.5 610,-275.5 610,-234.5 443,-234.5"/>
<text text-anchor="start" x="451" y="-263.5" font-family="Helvetica,sans-Serif" font-size="10.00">/home/runner/work/Simopticon</text>
<text text-anchor="start" x="451" y="-252.5" font-family="Helvetica,sans-Serif" font-size="10.00">/Simopticon/src/optimizer</text>
<text text-anchor="middle" x="526.5" y="-241.5" font-family="Helvetica,sans-Serif" font-size="10.00">/Optimizer.h</text>
</a>
</g>
</g>
<!-- Node1&#45;&gt;Node2 -->
<g id="edge1" class="edge">
<title>Node1&#45;&gt;Node2</title>
<path fill="none" stroke="midnightblue" d="M726.79,-309.79C686.35,-298.93 638.13,-285.98 599.13,-275.51"/>
<polygon fill="midnightblue" stroke="midnightblue" points="726.05,-313.21 736.62,-312.43 727.87,-306.45 726.05,-313.21"/>
</g>
<!-- Node12 -->
<g id="node12" class="node">
<title>Node12</title>
<g id="a_node12"><a xlink:href="ParameterNormalizer_8cpp.xhtml" target="_top" xlink:title="In this file, the implementation of the ParameterNormalizer class is defined.">
<polygon fill="white" stroke="black" points="628.5,-234.5 628.5,-275.5 802.5,-275.5 802.5,-234.5 628.5,-234.5"/>
<text text-anchor="start" x="636.5" y="-263.5" font-family="Helvetica,sans-Serif" font-size="10.00">/home/runner/work/Simopticon</text>
<text text-anchor="start" x="636.5" y="-252.5" font-family="Helvetica,sans-Serif" font-size="10.00">/Simopticon/src/optimizer</text>
<text text-anchor="middle" x="715.5" y="-241.5" font-family="Helvetica,sans-Serif" font-size="10.00">/direct/ParameterNormalizer.cpp</text>
</a>
</g>
</g>
<!-- Node1&#45;&gt;Node12 -->
<g id="edge15" class="edge">
<title>Node1&#45;&gt;Node12</title>
<path fill="none" stroke="midnightblue" d="M777.42,-306.06C765.04,-296.06 751.13,-284.8 739.63,-275.51"/>
<polygon fill="midnightblue" stroke="midnightblue" points="775.32,-308.86 785.29,-312.43 779.72,-303.42 775.32,-308.86"/>
</g>
<!-- Node13 -->
<g id="node13" class="node">
<title>Node13</title>
<g id="a_node13"><a xlink:href="Parameter_8cpp.xhtml" target="_top" xlink:title="In this file, the implementation of the Parameter class is defined.">
<polygon fill="white" stroke="black" points="821,-234.5 821,-275.5 988,-275.5 988,-234.5 821,-234.5"/>
<text text-anchor="start" x="829" y="-263.5" font-family="Helvetica,sans-Serif" font-size="10.00">/home/runner/work/Simopticon</text>
<text text-anchor="start" x="829" y="-252.5" font-family="Helvetica,sans-Serif" font-size="10.00">/Simopticon/src/parameters</text>
<text text-anchor="middle" x="904.5" y="-241.5" font-family="Helvetica,sans-Serif" font-size="10.00">/Parameter.cpp</text>
</a>
</g>
</g>
<!-- Node1&#45;&gt;Node13 -->
<g id="edge16" class="edge">
<title>Node1&#45;&gt;Node13</title>
<path fill="none" stroke="midnightblue" d="M841.92,-306.06C854.43,-296.06 868.49,-284.8 880.12,-275.51"/>
<polygon fill="midnightblue" stroke="midnightblue" points="839.59,-303.45 833.96,-312.43 843.96,-308.91 839.59,-303.45"/>
</g>
<!-- Node14 -->
<g id="node14" class="node">
<title>Node14</title>
<g id="a_node14"><a xlink:href="ParameterDefinition_8cpp.xhtml" target="_top" xlink:title="In this file, the implementation of the ParameterDefinition class is defined.">
<polygon fill="white" stroke="black" points="1006,-234.5 1006,-275.5 1173,-275.5 1173,-234.5 1006,-234.5"/>
<text text-anchor="start" x="1014" y="-263.5" font-family="Helvetica,sans-Serif" font-size="10.00">/home/runner/work/Simopticon</text>
<text text-anchor="start" x="1014" y="-252.5" font-family="Helvetica,sans-Serif" font-size="10.00">/Simopticon/src/parameters</text>
<text text-anchor="middle" x="1089.5" y="-241.5" font-family="Helvetica,sans-Serif" font-size="10.00">/ParameterDefinition.cpp</text>
</a>
</g>
</g>
<!-- Node1&#45;&gt;Node14 -->
<g id="edge17" class="edge">
<title>Node1&#45;&gt;Node14</title>
<path fill="none" stroke="midnightblue" d="M891.34,-309.79C931.34,-298.93 979.06,-285.98 1017.64,-275.51"/>
<polygon fill="midnightblue" stroke="midnightblue" points="890.34,-306.43 881.61,-312.43 892.17,-313.19 890.34,-306.43"/>
</g>
<!-- Node3 -->
<g id="node3" class="node">
<title>Node3</title>
<g id="a_node3"><a xlink:href="Controller_8h.xhtml" target="_top" xlink:title="In this file, the header of the Controller class is defined.">
<polygon fill="white" stroke="black" points="277,-156.5 277,-197.5 444,-197.5 444,-156.5 277,-156.5"/>
<text text-anchor="start" x="285" y="-185.5" font-family="Helvetica,sans-Serif" font-size="10.00">/home/runner/work/Simopticon</text>
<text text-anchor="start" x="285" y="-174.5" font-family="Helvetica,sans-Serif" font-size="10.00">/Simopticon/src/controller</text>
<text text-anchor="middle" x="360.5" y="-163.5" font-family="Helvetica,sans-Serif" font-size="10.00">/Controller.h</text>
</a>
</g>
</g>
<!-- Node2&#45;&gt;Node3 -->
<g id="edge2" class="edge">
<title>Node2&#45;&gt;Node3</title>
<path fill="none" stroke="midnightblue" d="M474.49,-230.19C451.53,-219.67 424.87,-207.47 403.1,-197.51"/>
<polygon fill="midnightblue" stroke="midnightblue" points="473.2,-233.45 483.75,-234.43 476.12,-227.08 473.2,-233.45"/>
</g>
<!-- Node8 -->
<g id="node8" class="node">
<title>Node8</title>
<g id="a_node8"><a xlink:href="Optimizer_8cpp.xhtml" target="_top" xlink:title="In this file, the implementation of the Optimizer class is defined.">
<polygon fill="white" stroke="black" points="388,-78.5 388,-119.5 555,-119.5 555,-78.5 388,-78.5"/>
<text text-anchor="start" x="396" y="-107.5" font-family="Helvetica,sans-Serif" font-size="10.00">/home/runner/work/Simopticon</text>
<text text-anchor="start" x="396" y="-96.5" font-family="Helvetica,sans-Serif" font-size="10.00">/Simopticon/src/optimizer</text>
<text text-anchor="middle" x="471.5" y="-85.5" font-family="Helvetica,sans-Serif" font-size="10.00">/Optimizer.cpp</text>
</a>
</g>
</g>
<!-- Node2&#45;&gt;Node8 -->
<g id="edge13" class="edge">
<title>Node2&#45;&gt;Node8</title>
<path fill="none" stroke="midnightblue" d="M505.43,-225.81C499.85,-217.24 494.33,-207.55 490.5,-198 480.11,-172.1 475.28,-140.02 473.12,-119.77"/>
<polygon fill="midnightblue" stroke="midnightblue" points="502.67,-227.97 511.19,-234.28 508.46,-224.04 502.67,-227.97"/>
</g>
<!-- Node9 -->
<g id="node9" class="node">
<title>Node9</title>
<g id="a_node9"><a xlink:href="DirectOptimizer_8h.xhtml" target="_top" xlink:title="In this file, the header of the DirectOptimizer class is defined.">
<polygon fill="white" stroke="black" points="499,-156.5 499,-197.5 666,-197.5 666,-156.5 499,-156.5"/>
<text text-anchor="start" x="507" y="-185.5" font-family="Helvetica,sans-Serif" font-size="10.00">/home/runner/work/Simopticon</text>
<text text-anchor="start" x="507" y="-174.5" font-family="Helvetica,sans-Serif" font-size="10.00">/Simopticon/src/optimizer</text>
<text text-anchor="middle" x="582.5" y="-163.5" font-family="Helvetica,sans-Serif" font-size="10.00">/direct/DirectOptimizer.h</text>
</a>
</g>
</g>
<!-- Node2&#45;&gt;Node9 -->
<g id="edge10" class="edge">
<title>Node2&#45;&gt;Node9</title>
<path fill="none" stroke="midnightblue" d="M546.88,-226.34C553.93,-216.78 561.67,-206.27 568.13,-197.51"/>
<polygon fill="midnightblue" stroke="midnightblue" points="544.04,-224.3 540.92,-234.43 549.67,-228.45 544.04,-224.3"/>
</g>
<!-- Node11 -->
<g id="node11" class="node">
<title>Node11</title>
<g id="a_node11"><a xlink:href="StatusBar_8cpp.xhtml" target="_top" xlink:title="In this file, the implementation of the StatusBar class is defined.">
<polygon fill="white" stroke="black" points="683.5,-162 683.5,-192 877.5,-192 877.5,-162 683.5,-162"/>
<text text-anchor="start" x="691.5" y="-180" font-family="Helvetica,sans-Serif" font-size="10.00">/home/runner/work/Simopticon</text>
<text text-anchor="middle" x="780.5" y="-169" font-family="Helvetica,sans-Serif" font-size="10.00">/Simopticon/src/status/StatusBar.cpp</text>
</a>
</g>
</g>
<!-- Node2&#45;&gt;Node11 -->
<g id="edge14" class="edge">
<title>Node2&#45;&gt;Node11</title>
<path fill="none" stroke="midnightblue" d="M601.7,-231.5C644.36,-218.73 696.43,-203.15 733.35,-192.11"/>
<polygon fill="midnightblue" stroke="midnightblue" points="600.49,-228.21 591.91,-234.43 602.49,-234.91 600.49,-228.21"/>
</g>
<!-- Node4 -->
<g id="node4" class="node">
<title>Node4</title>
<g id="a_node4"><a xlink:href="Controller_8cpp.xhtml" target="_top" xlink:title="In this file, the implementation of the Controller class is defined.">
<polygon fill="white" stroke="black" points="370,-0.5 370,-41.5 537,-41.5 537,-0.5 370,-0.5"/>
<text text-anchor="start" x="378" y="-29.5" font-family="Helvetica,sans-Serif" font-size="10.00">/home/runner/work/Simopticon</text>
<text text-anchor="start" x="378" y="-18.5" font-family="Helvetica,sans-Serif" font-size="10.00">/Simopticon/src/controller</text>
<text text-anchor="middle" x="453.5" y="-7.5" font-family="Helvetica,sans-Serif" font-size="10.00">/Controller.cpp</text>
</a>
</g>
</g>
<!-- Node3&#45;&gt;Node4 -->
<g id="edge3" class="edge">
<title>Node3&#45;&gt;Node4</title>
<path fill="none" stroke="midnightblue" d="M360.38,-146.39C361.56,-125.82 365.76,-98.53 378.5,-78 387.76,-63.09 402.55,-50.79 416.56,-41.56"/>
<polygon fill="midnightblue" stroke="midnightblue" points="356.88,-146.34 360.01,-156.47 363.87,-146.6 356.88,-146.34"/>
</g>
<!-- Node5 -->
<g id="node5" class="node">
<title>Node5</title>
<g id="a_node5"><a xlink:href="main_8cpp.xhtml" target="_top" xlink:title="In this file, the main function running the Simopticon framework is defined.">
<polygon fill="white" stroke="black" points="0,-6 0,-36 167,-36 167,-6 0,-6"/>
<text text-anchor="start" x="8" y="-24" font-family="Helvetica,sans-Serif" font-size="10.00">/home/runner/work/Simopticon</text>
<text text-anchor="middle" x="83.5" y="-13" font-family="Helvetica,sans-Serif" font-size="10.00">/Simopticon/src/main.cpp</text>
</a>
</g>
</g>
<!-- Node3&#45;&gt;Node5 -->
<g id="edge4" class="edge">
<title>Node3&#45;&gt;Node5</title>
<path fill="none" stroke="midnightblue" d="M266.55,-163.68C229.87,-155.57 188.93,-142.15 156.5,-120 124.44,-98.1 100.91,-57.43 90.1,-36.02"/>
<polygon fill="midnightblue" stroke="midnightblue" points="266.26,-167.2 276.77,-165.83 267.7,-160.35 266.26,-167.2"/>
</g>
<!-- Node6 -->
<g id="node6" class="node">
<title>Node6</title>
<g id="a_node6"><a xlink:href="StubController_8h.xhtml" target="_top" xlink:title="In this file, the header of the StubController class is defined.">
<polygon fill="white" stroke="black" points="166,-78.5 166,-119.5 333,-119.5 333,-78.5 166,-78.5"/>
<text text-anchor="start" x="174" y="-107.5" font-family="Helvetica,sans-Serif" font-size="10.00">/home/runner/work/Simopticon</text>
<text text-anchor="start" x="174" y="-96.5" font-family="Helvetica,sans-Serif" font-size="10.00">/Simopticon/src/controller</text>
<text text-anchor="middle" x="249.5" y="-85.5" font-family="Helvetica,sans-Serif" font-size="10.00">/StubController.h</text>
</a>
</g>
</g>
<!-- Node3&#45;&gt;Node6 -->
<g id="edge5" class="edge">
<title>Node3&#45;&gt;Node6</title>
<path fill="none" stroke="midnightblue" d="M323.45,-150.64C308.63,-140.49 291.83,-128.98 277.99,-119.51"/>
<polygon fill="midnightblue" stroke="midnightblue" points="321.69,-153.67 331.91,-156.43 325.64,-147.89 321.69,-153.67"/>
</g>
<!-- Node3&#45;&gt;Node8 -->
<g id="edge9" class="edge">
<title>Node3&#45;&gt;Node8</title>
<path fill="none" stroke="midnightblue" d="M397.55,-150.64C412.37,-140.49 429.17,-128.98 443.01,-119.51"/>
<polygon fill="midnightblue" stroke="midnightblue" points="395.36,-147.89 389.09,-156.43 399.31,-153.67 395.36,-147.89"/>
</g>
<!-- Node6&#45;&gt;Node4 -->
<g id="edge7" class="edge">
<title>Node6&#45;&gt;Node4</title>
<path fill="none" stroke="midnightblue" d="M311.54,-74.89C340.18,-64.22 373.81,-51.69 401.14,-41.51"/>
<polygon fill="midnightblue" stroke="midnightblue" points="310.18,-71.66 302.04,-78.43 312.63,-78.22 310.18,-71.66"/>
</g>
<!-- Node6&#45;&gt;Node5 -->
<g id="edge8" class="edge">
<title>Node6&#45;&gt;Node5</title>
<path fill="none" stroke="midnightblue" d="M197.34,-74.12C170.05,-61.63 137.58,-46.76 114.31,-36.11"/>
<polygon fill="midnightblue" stroke="midnightblue" points="196.2,-77.45 206.75,-78.43 199.12,-71.08 196.2,-77.45"/>
</g>
<!-- Node7 -->
<g id="node7" class="node">
<title>Node7</title>
<g id="a_node7"><a xlink:href="StubController_8cpp.xhtml" target="_top" xlink:title="In this file, the implementation of the StubController class is defined.">
<polygon fill="white" stroke="black" points="185,-0.5 185,-41.5 352,-41.5 352,-0.5 185,-0.5"/>
<text text-anchor="start" x="193" y="-29.5" font-family="Helvetica,sans-Serif" font-size="10.00">/home/runner/work/Simopticon</text>
<text text-anchor="start" x="193" y="-18.5" font-family="Helvetica,sans-Serif" font-size="10.00">/Simopticon/src/controller</text>
<text text-anchor="middle" x="268.5" y="-7.5" font-family="Helvetica,sans-Serif" font-size="10.00">/StubController.cpp</text>
</a>
</g>
</g>
<!-- Node6&#45;&gt;Node7 -->
<g id="edge6" class="edge">
<title>Node6&#45;&gt;Node7</title>
<path fill="none" stroke="midnightblue" d="M256.85,-68.59C259.12,-59.51 261.56,-49.74 263.62,-41.51"/>
<polygon fill="midnightblue" stroke="midnightblue" points="253.42,-67.88 254.39,-78.43 260.21,-69.58 253.42,-67.88"/>
</g>
<!-- Node9&#45;&gt;Node4 -->
<g id="edge11" class="edge">
<title>Node9&#45;&gt;Node4</title>
<path fill="none" stroke="midnightblue" d="M583.34,-146.03C582.45,-125.07 578.15,-97.45 563.5,-78 551.38,-61.91 533.33,-50.09 515.34,-41.57"/>
<polygon fill="midnightblue" stroke="midnightblue" points="579.84,-146.38 583.53,-156.31 586.84,-146.25 579.84,-146.38"/>
</g>
<!-- Node10 -->
<g id="node10" class="node">
<title>Node10</title>
<g id="a_node10"><a xlink:href="DirectOptimizer_8cpp.xhtml" target="_top" xlink:title="In this file, the implementation of the DirectOptimizer class is defined.">
<polygon fill="white" stroke="black" points="610,-78.5 610,-119.5 777,-119.5 777,-78.5 610,-78.5"/>
<text text-anchor="start" x="618" y="-107.5" font-family="Helvetica,sans-Serif" font-size="10.00">/home/runner/work/Simopticon</text>
<text text-anchor="start" x="618" y="-96.5" font-family="Helvetica,sans-Serif" font-size="10.00">/Simopticon/src/optimizer</text>
<text text-anchor="middle" x="693.5" y="-85.5" font-family="Helvetica,sans-Serif" font-size="10.00">/direct/DirectOptimizer.cpp</text>
</a>
</g>
</g>
<!-- Node9&#45;&gt;Node10 -->
<g id="edge12" class="edge">
<title>Node9&#45;&gt;Node10</title>
<path fill="none" stroke="midnightblue" d="M619.55,-150.64C634.37,-140.49 651.17,-128.98 665.01,-119.51"/>
<polygon fill="midnightblue" stroke="midnightblue" points="617.36,-147.89 611.09,-156.43 621.31,-153.67 617.36,-147.89"/>
</g>
</g>
</svg>
