<?xml version="1.0" encoding="UTF-8" standalone="no"?>
<!DOCTYPE svg PUBLIC "-//W3C//DTD SVG 1.1//EN"
 "http://www.w3.org/Graphics/SVG/1.1/DTD/svg11.dtd">
<!-- Generated by graphviz version 2.43.0 (0)
 -->
<!-- Title: /home/runner/work/Simopticon/Simopticon/src/optimizer/direct/ParameterNormalizer.cpp Pages: 1 -->
<svg width="478pt" height="296pt"
 viewBox="0.00 0.00 478.00 296.00" xmlns="http://www.w3.org/2000/svg" xmlns:xlink="http://www.w3.org/1999/xlink">
<g id="graph0" class="graph" transform="scale(1 1) rotate(0) translate(4 292)">
<title>/home/runner/work/Simopticon/Simopticon/src/optimizer/direct/ParameterNormalizer.cpp</title>
<polygon fill="white" stroke="transparent" points="-4,4 -4,-292 474,-292 474,4 -4,4"/>
<!-- Node1 -->
<g id="node1" class="node">
<title>Node1</title>
<g id="a_node1"><a xlink:title="In this file, the implementation of the ParameterNormalizer class is defined.">
<polygon fill="#bfbfbf" stroke="black" points="164,-246.5 164,-287.5 338,-287.5 338,-246.5 164,-246.5"/>
<text text-anchor="start" x="172" y="-275.5" font-family="Helvetica,sans-Serif" font-size="10.00">/home/runner/work/Simopticon</text>
<text text-anchor="start" x="172" y="-264.5" font-family="Helvetica,sans-Serif" font-size="10.00">/Simopticon/src/optimizer</text>
<text text-anchor="middle" x="251" y="-253.5" font-family="Helvetica,sans-Serif" font-size="10.00">/direct/ParameterNormalizer.cpp</text>
</a>
</g>
</g>
<!-- Node2 -->
<g id="node2" class="node">
<title>Node2</title>
<g id="a_node2"><a xlink:href="ParameterNormalizer_8h.xhtml" target="_top" xlink:title="In this file, the header of the ParameterNormalizer class is defined.">
<polygon fill="white" stroke="black" points="265.5,-118 265.5,-137 394.5,-137 394.5,-118 265.5,-118"/>
<text text-anchor="middle" x="330" y="-125" font-family="Helvetica,sans-Serif" font-size="10.00">ParameterNormalizer.h</text>
</a>
</g>
</g>
<!-- Node1&#45;&gt;Node2 -->
<g id="edge1" class="edge">
<title>Node1&#45;&gt;Node2</title>
<path fill="none" stroke="midnightblue" d="M262.32,-246.3C277.76,-219.42 305.19,-171.67 319.95,-146"/>
<polygon fill="midnightblue" stroke="midnightblue" points="323.15,-147.45 325.09,-137.04 317.08,-143.97 323.15,-147.45"/>
</g>
<!-- Node9 -->
<g id="node9" class="node">
<title>Node9</title>
<g id="a_node9"><a xlink:title=" ">
<polygon fill="white" stroke="#bfbfbf" points="330.5,-185 330.5,-204 375.5,-204 375.5,-185 330.5,-185"/>
<text text-anchor="middle" x="353" y="-192" font-family="Helvetica,sans-Serif" font-size="10.00">utility</text>
</a>
</g>
</g>
<!-- Node1&#45;&gt;Node9 -->
<g id="edge10" class="edge">
<title>Node1&#45;&gt;Node9</title>
<path fill="none" stroke="midnightblue" d="M279.41,-246.36C296.17,-234.78 317,-220.39 332.21,-209.87"/>
<polygon fill="midnightblue" stroke="midnightblue" points="334.22,-212.74 340.45,-204.17 330.23,-206.98 334.22,-212.74"/>
</g>
<!-- Node10 -->
<g id="node10" class="node">
<title>Node10</title>
<g id="a_node10"><a xlink:href="ContinuousParameter_8h.xhtml" target="_top" xlink:title="In this file, the header of the ContinuousParameter class is defined.">
<polygon fill="white" stroke="black" points="125.5,-179.5 125.5,-209.5 274.5,-209.5 274.5,-179.5 125.5,-179.5"/>
<text text-anchor="start" x="133.5" y="-197.5" font-family="Helvetica,sans-Serif" font-size="10.00">../../parameters/Continuous</text>
<text text-anchor="middle" x="200" y="-186.5" font-family="Helvetica,sans-Serif" font-size="10.00">Parameter.h</text>
</a>
</g>
</g>
<!-- Node1&#45;&gt;Node10 -->
<g id="edge11" class="edge">
<title>Node1&#45;&gt;Node10</title>
<path fill="none" stroke="midnightblue" d="M236.79,-246.36C230.45,-237.59 222.94,-227.21 216.36,-218.12"/>
<polygon fill="midnightblue" stroke="midnightblue" points="219.11,-215.94 210.41,-209.89 213.44,-220.05 219.11,-215.94"/>
</g>
<!-- Node12 -->
<g id="node12" class="node">
<title>Node12</title>
<g id="a_node12"><a xlink:href="ParameterDefinition_8h.xhtml" target="_top" xlink:title="In this file, the header of the ParameterDefinition class is defined.">
<polygon fill="white" stroke="black" points="0,-112.5 0,-142.5 144,-142.5 144,-112.5 0,-112.5"/>
<text text-anchor="start" x="8" y="-130.5" font-family="Helvetica,sans-Serif" font-size="10.00">../../parameters/Parameter</text>
<text text-anchor="middle" x="72" y="-119.5" font-family="Helvetica,sans-Serif" font-size="10.00">Definition.h</text>
</a>
</g>
</g>
<!-- Node1&#45;&gt;Node12 -->
<g id="edge16" class="edge">
<title>Node1&#45;&gt;Node12</title>
<path fill="none" stroke="midnightblue" d="M179.82,-246.39C157.88,-237.83 134.83,-225.99 117,-210 99.52,-194.32 87.38,-170.19 80.16,-152.25"/>
<polygon fill="midnightblue" stroke="midnightblue" points="83.38,-150.87 76.56,-142.76 76.84,-153.35 83.38,-150.87"/>
</g>
<!-- Node3 -->
<g id="node3" class="node">
<title>Node3</title>
<g id="a_node3"><a xlink:href="DirectTypes_8h.xhtml" target="_top" xlink:title="In this file, types are defined which are used in the direct module.">
<polygon fill="white" stroke="black" points="298.5,-56.5 298.5,-75.5 381.5,-75.5 381.5,-56.5 298.5,-56.5"/>
<text text-anchor="middle" x="340" y="-63.5" font-family="Helvetica,sans-Serif" font-size="10.00">DirectTypes.h</text>
</a>
</g>
</g>
<!-- Node2&#45;&gt;Node3 -->
<g id="edge2" class="edge">
<title>Node2&#45;&gt;Node3</title>
<path fill="none" stroke="midnightblue" d="M331.43,-117.98C332.84,-109.58 335.05,-96.48 336.86,-85.66"/>
<polygon fill="midnightblue" stroke="midnightblue" points="340.36,-85.95 338.57,-75.51 333.46,-84.79 340.36,-85.95"/>
</g>
<!-- Node4 -->
<g id="node4" class="node">
<title>Node4</title>
<g id="a_node4"><a xlink:href="Types_8h.xhtml" target="_top" xlink:title="In this file, types are defined which should be used across the whole framework.">
<polygon fill="white" stroke="black" points="170.5,-56.5 170.5,-75.5 241.5,-75.5 241.5,-56.5 170.5,-56.5"/>
<text text-anchor="middle" x="206" y="-63.5" font-family="Helvetica,sans-Serif" font-size="10.00">../../Types.h</text>
</a>
</g>
</g>
<!-- Node2&#45;&gt;Node4 -->
<g id="edge3" class="edge">
<title>Node2&#45;&gt;Node4</title>
<path fill="none" stroke="midnightblue" d="M312.23,-117.98C291.52,-108.03 257.05,-91.49 233.01,-79.96"/>
<polygon fill="midnightblue" stroke="midnightblue" points="234.26,-76.68 223.73,-75.51 231.23,-82.99 234.26,-76.68"/>
</g>
<!-- Node6 -->
<g id="node6" class="node">
<title>Node6</title>
<g id="a_node6"><a xlink:title=" ">
<polygon fill="white" stroke="#bfbfbf" points="319.5,-0.5 319.5,-19.5 366.5,-19.5 366.5,-0.5 319.5,-0.5"/>
<text text-anchor="middle" x="343" y="-7.5" font-family="Helvetica,sans-Serif" font-size="10.00">vector</text>
</a>
</g>
</g>
<!-- Node2&#45;&gt;Node6 -->
<g id="edge8" class="edge">
<title>Node2&#45;&gt;Node6</title>
<path fill="none" stroke="midnightblue" d="M347.04,-117.96C361.74,-109.54 381.99,-95.16 391,-76 399.95,-56.97 381.97,-37.95 365.52,-25.44"/>
<polygon fill="midnightblue" stroke="midnightblue" points="367.39,-22.47 357.21,-19.53 363.33,-28.18 367.39,-22.47"/>
</g>
<!-- Node7 -->
<g id="node7" class="node">
<title>Node7</title>
<g id="a_node7"><a xlink:title=" ">
<polygon fill="white" stroke="#bfbfbf" points="177,-0.5 177,-19.5 235,-19.5 235,-0.5 177,-0.5"/>
<text text-anchor="middle" x="206" y="-7.5" font-family="Helvetica,sans-Serif" font-size="10.00">memory</text>
</a>
</g>
</g>
<!-- Node2&#45;&gt;Node7 -->
<g id="edge9" class="edge">
<title>Node2&#45;&gt;Node7</title>
<path fill="none" stroke="midnightblue" d="M320.68,-117.82C299.85,-98.42 249.3,-51.33 222.82,-26.66"/>
<polygon fill="midnightblue" stroke="midnightblue" points="225.13,-24.04 215.43,-19.78 220.36,-29.16 225.13,-24.04"/>
</g>
<!-- Node8 -->
<g id="node8" class="node">
<title>Node8</title>
<g id="a_node8"><a xlink:title=" ">
<polygon fill="white" stroke="#bfbfbf" points="438,-56.5 438,-75.5 470,-75.5 470,-56.5 438,-56.5"/>
<text text-anchor="middle" x="454" y="-63.5" font-family="Helvetica,sans-Serif" font-size="10.00">list</text>
</a>
</g>
</g>
<!-- Node2&#45;&gt;Node8 -->
<g id="edge7" class="edge">
<title>Node2&#45;&gt;Node8</title>
<path fill="none" stroke="midnightblue" d="M347.77,-117.98C368.95,-107.81 404.53,-90.74 428.61,-79.18"/>
<polygon fill="midnightblue" stroke="midnightblue" points="430.34,-82.23 437.84,-74.75 427.31,-75.92 430.34,-82.23"/>
</g>
<!-- Node5 -->
<g id="node5" class="node">
<title>Node5</title>
<g id="a_node5"><a xlink:title=" ">
<polygon fill="white" stroke="#bfbfbf" points="82,-0.5 82,-19.5 126,-19.5 126,-0.5 82,-0.5"/>
<text text-anchor="middle" x="104" y="-7.5" font-family="Helvetica,sans-Serif" font-size="10.00">string</text>
</a>
</g>
</g>
<!-- Node4&#45;&gt;Node5 -->
<g id="edge4" class="edge">
<title>Node4&#45;&gt;Node5</title>
<path fill="none" stroke="midnightblue" d="M189.61,-56.32C173.33,-47.7 148.13,-34.36 129.28,-24.39"/>
<polygon fill="midnightblue" stroke="midnightblue" points="130.82,-21.24 120.35,-19.65 127.55,-27.43 130.82,-21.24"/>
</g>
<!-- Node4&#45;&gt;Node6 -->
<g id="edge5" class="edge">
<title>Node4&#45;&gt;Node6</title>
<path fill="none" stroke="midnightblue" d="M227.71,-56.44C250.35,-47.52 286.07,-33.44 311.75,-23.32"/>
<polygon fill="midnightblue" stroke="midnightblue" points="313.37,-26.44 321.39,-19.52 310.81,-19.93 313.37,-26.44"/>
</g>
<!-- Node4&#45;&gt;Node7 -->
<g id="edge6" class="edge">
<title>Node4&#45;&gt;Node7</title>
<path fill="none" stroke="midnightblue" d="M206,-56.08C206,-49.01 206,-38.86 206,-29.99"/>
<polygon fill="midnightblue" stroke="midnightblue" points="209.5,-29.75 206,-19.75 202.5,-29.75 209.5,-29.75"/>
</g>
<!-- Node11 -->
<g id="node11" class="node">
<title>Node11</title>
<g id="a_node11"><a xlink:href="Parameter_8h.xhtml" target="_top" xlink:title="In this file, the header of the Parameter class is defined.">
<polygon fill="white" stroke="black" points="162.5,-118 162.5,-137 237.5,-137 237.5,-118 162.5,-118"/>
<text text-anchor="middle" x="200" y="-125" font-family="Helvetica,sans-Serif" font-size="10.00">Parameter.h</text>
</a>
</g>
</g>
<!-- Node10&#45;&gt;Node11 -->
<g id="edge12" class="edge">
<title>Node10&#45;&gt;Node11</title>
<path fill="none" stroke="midnightblue" d="M200,-179.4C200,-170.06 200,-157.71 200,-147.52"/>
<polygon fill="midnightblue" stroke="midnightblue" points="203.5,-147.19 200,-137.19 196.5,-147.19 203.5,-147.19"/>
</g>
<!-- Node11&#45;&gt;Node4 -->
<g id="edge13" class="edge">
<title>Node11&#45;&gt;Node4</title>
<path fill="none" stroke="midnightblue" d="M200.86,-117.98C201.71,-109.58 203.03,-96.48 204.12,-85.66"/>
<polygon fill="midnightblue" stroke="midnightblue" points="207.62,-85.81 205.14,-75.51 200.66,-85.11 207.62,-85.81"/>
</g>
<!-- Node11&#45;&gt;Node5 -->
<g id="edge14" class="edge">
<title>Node11&#45;&gt;Node5</title>
<path fill="none" stroke="midnightblue" d="M191.86,-117.71C182.72,-107.75 167.51,-90.95 155,-76 141.54,-59.91 126.81,-40.99 116.66,-27.72"/>
<polygon fill="midnightblue" stroke="midnightblue" points="119.28,-25.38 110.44,-19.55 113.71,-29.62 119.28,-25.38"/>
</g>
<!-- Node11&#45;&gt;Node7 -->
<g id="edge15" class="edge">
<title>Node11&#45;&gt;Node7</title>
<path fill="none" stroke="midnightblue" d="M189.18,-117.7C174.56,-104.67 151.36,-79.26 161,-56 165.92,-44.12 175.67,-33.74 184.83,-25.96"/>
<polygon fill="midnightblue" stroke="midnightblue" points="187.25,-28.51 192.94,-19.56 182.92,-23.01 187.25,-28.51"/>
</g>
<!-- Node12&#45;&gt;Node4 -->
<g id="edge17" class="edge">
<title>Node12&#45;&gt;Node4</title>
<path fill="none" stroke="midnightblue" d="M103.76,-112.4C126.04,-102.51 155.59,-89.38 177.19,-79.79"/>
<polygon fill="midnightblue" stroke="midnightblue" points="178.78,-82.91 186.5,-75.66 175.94,-76.52 178.78,-82.91"/>
</g>
<!-- Node12&#45;&gt;Node5 -->
<g id="edge18" class="edge">
<title>Node12&#45;&gt;Node5</title>
<path fill="none" stroke="midnightblue" d="M75.37,-112.4C78.84,-98.12 84.5,-75.45 90,-56 92.51,-47.13 95.52,-37.36 98.11,-29.19"/>
<polygon fill="midnightblue" stroke="midnightblue" points="101.46,-30.18 101.18,-19.59 94.8,-28.04 101.46,-30.18"/>
</g>
</g>
</svg>
