<?xml version="1.0" encoding="UTF-8" standalone="no"?>
<!DOCTYPE svg PUBLIC "-//W3C//DTD SVG 1.1//EN"
 "http://www.w3.org/Graphics/SVG/1.1/DTD/svg11.dtd">
<!-- Generated by graphviz version 2.43.0 (0)
 -->
<!-- Title: /home/runner/work/Simopticon/Simopticon/src/parameters/Parameter.cpp Pages: 1 -->
<svg width="287pt" height="218pt"
 viewBox="0.00 0.00 287.00 218.00" xmlns="http://www.w3.org/2000/svg" xmlns:xlink="http://www.w3.org/1999/xlink">
<g id="graph0" class="graph" transform="scale(1 1) rotate(0) translate(4 214)">
<title>/home/runner/work/Simopticon/Simopticon/src/parameters/Parameter.cpp</title>
<polygon fill="white" stroke="transparent" points="-4,4 -4,-214 283,-214 283,4 -4,4"/>
<!-- Node1 -->
<g id="node1" class="node">
<title>Node1</title>
<g id="a_node1"><a xlink:title="In this file, the implementation of the Parameter class is defined.">
<polygon fill="#bfbfbf" stroke="black" points="95,-168.5 95,-209.5 262,-209.5 262,-168.5 95,-168.5"/>
<text text-anchor="start" x="103" y="-197.5" font-family="Helvetica,sans-Serif" font-size="10.00">/home/runner/work/Simopticon</text>
<text text-anchor="start" x="103" y="-186.5" font-family="Helvetica,sans-Serif" font-size="10.00">/Simopticon/src/parameters</text>
<text text-anchor="middle" x="178.5" y="-175.5" font-family="Helvetica,sans-Serif" font-size="10.00">/Parameter.cpp</text>
</a>
</g>
</g>
<!-- Node2 -->
<g id="node2" class="node">
<title>Node2</title>
<g id="a_node2"><a xlink:href="Parameter_8h.xhtml" target="_top" xlink:title="In this file, the header of the Parameter class is defined.">
<polygon fill="white" stroke="black" points="141,-112.5 141,-131.5 216,-131.5 216,-112.5 141,-112.5"/>
<text text-anchor="middle" x="178.5" y="-119.5" font-family="Helvetica,sans-Serif" font-size="10.00">Parameter.h</text>
</a>
</g>
</g>
<!-- Node1&#45;&gt;Node2 -->
<g id="edge1" class="edge">
<title>Node1&#45;&gt;Node2</title>
<path fill="none" stroke="midnightblue" d="M178.5,-168.5C178.5,-160.07 178.5,-150.24 178.5,-141.87"/>
<polygon fill="midnightblue" stroke="midnightblue" points="182,-141.65 178.5,-131.65 175,-141.65 182,-141.65"/>
</g>
<!-- Node7 -->
<g id="node7" class="node">
<title>Node7</title>
<g id="a_node7"><a xlink:href="ParameterDefinition_8h.xhtml" target="_top" xlink:title="In this file, the header of the ParameterDefinition class is defined.">
<polygon fill="white" stroke="black" points="0,-112.5 0,-131.5 123,-131.5 123,-112.5 0,-112.5"/>
<text text-anchor="middle" x="61.5" y="-119.5" font-family="Helvetica,sans-Serif" font-size="10.00">ParameterDefinition.h</text>
</a>
</g>
</g>
<!-- Node1&#45;&gt;Node7 -->
<g id="edge8" class="edge">
<title>Node1&#45;&gt;Node7</title>
<path fill="none" stroke="midnightblue" d="M143.4,-168.5C124.94,-158.24 102.77,-145.93 86.15,-136.69"/>
<polygon fill="midnightblue" stroke="midnightblue" points="87.52,-133.45 77.07,-131.65 84.12,-139.57 87.52,-133.45"/>
</g>
<!-- Node8 -->
<g id="node8" class="node">
<title>Node8</title>
<g id="a_node8"><a xlink:title=" ">
<polygon fill="white" stroke="#bfbfbf" points="234,-112.5 234,-131.5 279,-131.5 279,-112.5 234,-112.5"/>
<text text-anchor="middle" x="256.5" y="-119.5" font-family="Helvetica,sans-Serif" font-size="10.00">utility</text>
</a>
</g>
</g>
<!-- Node1&#45;&gt;Node8 -->
<g id="edge11" class="edge">
<title>Node1&#45;&gt;Node8</title>
<path fill="none" stroke="midnightblue" d="M201.9,-168.5C213.52,-158.82 227.34,-147.3 238.17,-138.27"/>
<polygon fill="midnightblue" stroke="midnightblue" points="240.68,-140.74 246.12,-131.65 236.19,-135.37 240.68,-140.74"/>
</g>
<!-- Node3 -->
<g id="node3" class="node">
<title>Node3</title>
<g id="a_node3"><a xlink:href="Types_8h.xhtml" target="_top" xlink:title="In this file, types are defined which should be used across the whole framework.">
<polygon fill="white" stroke="black" points="127.5,-56.5 127.5,-75.5 189.5,-75.5 189.5,-56.5 127.5,-56.5"/>
<text text-anchor="middle" x="158.5" y="-63.5" font-family="Helvetica,sans-Serif" font-size="10.00">../Types.h</text>
</a>
</g>
</g>
<!-- Node2&#45;&gt;Node3 -->
<g id="edge2" class="edge">
<title>Node2&#45;&gt;Node3</title>
<path fill="none" stroke="midnightblue" d="M175.2,-112.08C172.52,-104.85 168.65,-94.41 165.31,-85.4"/>
<polygon fill="midnightblue" stroke="midnightblue" points="168.5,-83.91 161.74,-75.75 161.93,-86.34 168.5,-83.91"/>
</g>
<!-- Node4 -->
<g id="node4" class="node">
<title>Node4</title>
<g id="a_node4"><a xlink:title=" ">
<polygon fill="white" stroke="#bfbfbf" points="69.5,-0.5 69.5,-19.5 113.5,-19.5 113.5,-0.5 69.5,-0.5"/>
<text text-anchor="middle" x="91.5" y="-7.5" font-family="Helvetica,sans-Serif" font-size="10.00">string</text>
</a>
</g>
</g>
<!-- Node2&#45;&gt;Node4 -->
<g id="edge6" class="edge">
<title>Node2&#45;&gt;Node4</title>
<path fill="none" stroke="midnightblue" d="M162.85,-112.49C149.52,-104.56 130.64,-91.63 118.5,-76 107.73,-62.14 100.55,-43.38 96.32,-29.57"/>
<polygon fill="midnightblue" stroke="midnightblue" points="99.63,-28.42 93.54,-19.75 92.89,-30.33 99.63,-28.42"/>
</g>
<!-- Node6 -->
<g id="node6" class="node">
<title>Node6</title>
<g id="a_node6"><a xlink:title=" ">
<polygon fill="white" stroke="#bfbfbf" points="197.5,-0.5 197.5,-19.5 255.5,-19.5 255.5,-0.5 197.5,-0.5"/>
<text text-anchor="middle" x="226.5" y="-7.5" font-family="Helvetica,sans-Serif" font-size="10.00">memory</text>
</a>
</g>
</g>
<!-- Node2&#45;&gt;Node6 -->
<g id="edge7" class="edge">
<title>Node2&#45;&gt;Node6</title>
<path fill="none" stroke="midnightblue" d="M182.36,-112.39C186.41,-103.34 192.95,-88.69 198.5,-76 205.42,-60.19 213.17,-42.16 218.76,-29.11"/>
<polygon fill="midnightblue" stroke="midnightblue" points="222.01,-30.42 222.73,-19.85 215.58,-27.66 222.01,-30.42"/>
</g>
<!-- Node3&#45;&gt;Node4 -->
<g id="edge3" class="edge">
<title>Node3&#45;&gt;Node4</title>
<path fill="none" stroke="midnightblue" d="M147.74,-56.32C137.73,-48.26 122.61,-36.08 110.57,-26.37"/>
<polygon fill="midnightblue" stroke="midnightblue" points="112.44,-23.38 102.46,-19.83 108.05,-28.83 112.44,-23.38"/>
</g>
<!-- Node5 -->
<g id="node5" class="node">
<title>Node5</title>
<g id="a_node5"><a xlink:title=" ">
<polygon fill="white" stroke="#bfbfbf" points="132,-0.5 132,-19.5 179,-19.5 179,-0.5 132,-0.5"/>
<text text-anchor="middle" x="155.5" y="-7.5" font-family="Helvetica,sans-Serif" font-size="10.00">vector</text>
</a>
</g>
</g>
<!-- Node3&#45;&gt;Node5 -->
<g id="edge4" class="edge">
<title>Node3&#45;&gt;Node5</title>
<path fill="none" stroke="midnightblue" d="M158,-56.08C157.61,-49.01 157.05,-38.86 156.55,-29.99"/>
<polygon fill="midnightblue" stroke="midnightblue" points="160.04,-29.54 155.99,-19.75 153.05,-29.93 160.04,-29.54"/>
</g>
<!-- Node3&#45;&gt;Node6 -->
<g id="edge5" class="edge">
<title>Node3&#45;&gt;Node6</title>
<path fill="none" stroke="midnightblue" d="M169.43,-56.32C179.67,-48.18 195.22,-35.84 207.5,-26.09"/>
<polygon fill="midnightblue" stroke="midnightblue" points="209.72,-28.79 215.38,-19.83 205.37,-23.31 209.72,-28.79"/>
</g>
<!-- Node7&#45;&gt;Node3 -->
<g id="edge9" class="edge">
<title>Node7&#45;&gt;Node3</title>
<path fill="none" stroke="midnightblue" d="M77.08,-112.32C92.5,-103.74 116.31,-90.49 134.21,-80.52"/>
<polygon fill="midnightblue" stroke="midnightblue" points="135.92,-83.58 142.95,-75.65 132.51,-77.46 135.92,-83.58"/>
</g>
<!-- Node7&#45;&gt;Node4 -->
<g id="edge10" class="edge">
<title>Node7&#45;&gt;Node4</title>
<path fill="none" stroke="midnightblue" d="M63.85,-112.37C68.72,-94.54 79.96,-53.3 86.52,-29.27"/>
<polygon fill="midnightblue" stroke="midnightblue" points="89.9,-30.16 89.16,-19.59 83.15,-28.32 89.9,-30.16"/>
</g>
</g>
</svg>
