<?xml version="1.0" encoding="UTF-8" standalone="no"?>
<!DOCTYPE svg PUBLIC "-//W3C//DTD SVG 1.1//EN"
 "http://www.w3.org/Graphics/SVG/1.1/DTD/svg11.dtd">
<!-- Generated by graphviz version 2.43.0 (0)
 -->
<!-- Title: src/parameters/ParameterDefinition.h Pages: 1 -->
<!--zoomable 296 -->
<svg id="main" version="1.1" xmlns="http://www.w3.org/2000/svg" xmlns:xlink="http://www.w3.org/1999/xlink" xml:space="preserve" onload="init(evt)">
<style type="text/css"><![CDATA[
.edge:hover path { stroke: red; }
.edge:hover polygon { stroke: red; fill: red; }
]]></style>
<script type="text/javascript"><![CDATA[
var edges = document.getElementsByTagName('g');
if (edges && edges.length) {
  for (var i=0;i<edges.length;i++) {
    if (edges[i].id.substr(0,4)=='edge') {
      edges[i].setAttribute('class','edge');
    }
  }
}
]]></script>
        <defs>
                <circle id="rim" cx="0" cy="0" r="7"/>
                <circle id="rim2" cx="0" cy="0" r="3.5"/>
                <g id="zoomPlus">
                        <use xlink:href="#rim" fill="#404040">
                                <set attributeName="fill" to="#808080" begin="zoomplus.mouseover" end="zoomplus.mouseout"/>
                        </use>
                        <path d="M-4,0h8M0,-4v8" fill="none" stroke="white" stroke-width="1.5" pointer-events="none"/>
                </g>
                <g id="zoomMin">
                        <use xlink:href="#rim" fill="#404040">
                                <set attributeName="fill" to="#808080" begin="zoomminus.mouseover" end="zoomminus.mouseout"/>
                        </use>
                        <path d="M-4,0h8" fill="none" stroke="white" stroke-width="1.5" pointer-events="none"/>
                </g>
                <g id="dirArrow">
                        <path fill="none" stroke="white" stroke-width="1.5" d="M0,-3.0v7 M-2.5,-0.5L0,-3.0L2.5,-0.5"/>
                </g>
               <g id="resetDef">
                       <use xlink:href="#rim2" fill="#404040">
                               <set attributeName="fill" to="#808080" begin="reset.mouseover" end="reset.mouseout"/>
                       </use>
               </g>
        </defs>

<script type="text/javascript">
var viewWidth = 958;
var viewHeight = 296;
var sectionId = 'dynsection-1';
</script>
<script xlink:href="svgpan.js"/>
<svg id="graph" class="graph">
<g id="viewport">
<title>src/parameters/ParameterDefinition.h</title>
<polygon fill="white" stroke="transparent" points="-4,4 -4,-292 954,-292 954,4 -4,4"/>
<!-- Node1 -->
<g id="node1" class="node">
<title>Node1</title>
<g id="a_node1"><a xlink:title="In this file, the header of the ParameterDefinition class is defined.">
<polygon fill="#bfbfbf" stroke="black" points="550,-257.5 550,-287.5 693,-287.5 693,-257.5 550,-257.5"/>
<text text-anchor="start" x="558" y="-275.5" font-family="Helvetica,sans-Serif" font-size="10.00">src/parameters/Parameter</text>
<text text-anchor="middle" x="621.5" y="-264.5" font-family="Helvetica,sans-Serif" font-size="10.00">Definition.h</text>
</a>
</g>
</g>
<!-- Node2 -->
<g id="node2" class="node">
<title>Node2</title>
<g id="a_node2"><a xlink:href="Optimizer_8h.xhtml" target="_top" xlink:title="In this file, the header of the Optimizer class is defined.">
<polygon fill="white" stroke="black" points="306.5,-196 306.5,-215 446.5,-215 446.5,-196 306.5,-196"/>
<text text-anchor="middle" x="376.5" y="-203" font-family="Helvetica,sans-Serif" font-size="10.00">src/optimizer/Optimizer.h</text>
</a>
</g>
</g>
<!-- Node1&#45;&gt;Node2 -->
<g id="edge1" class="edge">
<title>Node1&#45;&gt;Node2</title>
<path fill="none" stroke="midnightblue" d="M558.97,-254.91C510.99,-242.18 446.71,-225.13 408.65,-215.03"/>
<polygon fill="midnightblue" stroke="midnightblue" points="558.08,-258.29 568.64,-257.48 559.87,-251.53 558.08,-258.29"/>
</g>
<!-- Node12 -->
<g id="node12" class="node">
<title>Node12</title>
<g id="a_node12"><a xlink:href="ParameterNormalizer_8cpp.xhtml" target="_top" xlink:title="In this file, the implementation of the ParameterNormalizer class is defined.">
<polygon fill="white" stroke="black" points="465,-190.5 465,-220.5 608,-220.5 608,-190.5 465,-190.5"/>
<text text-anchor="start" x="473" y="-208.5" font-family="Helvetica,sans-Serif" font-size="10.00">src/optimizer/direct</text>
<text text-anchor="middle" x="536.5" y="-197.5" font-family="Helvetica,sans-Serif" font-size="10.00">/ParameterNormalizer.cpp</text>
</a>
</g>
</g>
<!-- Node1&#45;&gt;Node12 -->
<g id="edge15" class="edge">
<title>Node1&#45;&gt;Node12</title>
<path fill="none" stroke="midnightblue" d="M594.91,-251.17C581.91,-241.23 566.6,-229.51 554.91,-220.58"/>
<polygon fill="midnightblue" stroke="midnightblue" points="592.99,-254.1 603.06,-257.4 597.24,-248.54 592.99,-254.1"/>
</g>
<!-- Node13 -->
<g id="node13" class="node">
<title>Node13</title>
<g id="a_node13"><a xlink:href="Parameter_8cpp.xhtml" target="_top" xlink:title="In this file, the implementation of the Parameter class is defined.">
<polygon fill="white" stroke="black" points="626,-196 626,-215 789,-215 789,-196 626,-196"/>
<text text-anchor="middle" x="707.5" y="-203" font-family="Helvetica,sans-Serif" font-size="10.00">src/parameters/Parameter.cpp</text>
</a>
</g>
</g>
<!-- Node1&#45;&gt;Node13 -->
<g id="edge16" class="edge">
<title>Node1&#45;&gt;Node13</title>
<path fill="none" stroke="midnightblue" d="M648.17,-251.34C664.22,-239.21 683.83,-224.39 696,-215.19"/>
<polygon fill="midnightblue" stroke="midnightblue" points="646.03,-248.57 640.16,-257.4 650.25,-254.16 646.03,-248.57"/>
</g>
<!-- Node14 -->
<g id="node14" class="node">
<title>Node14</title>
<g id="a_node14"><a xlink:href="ParameterDefinition_8cpp.xhtml" target="_top" xlink:title="In this file, the implementation of the ParameterDefinition class is defined.">
<polygon fill="white" stroke="black" points="807,-190.5 807,-220.5 950,-220.5 950,-190.5 807,-190.5"/>
<text text-anchor="start" x="815" y="-208.5" font-family="Helvetica,sans-Serif" font-size="10.00">src/parameters/Parameter</text>
<text text-anchor="middle" x="878.5" y="-197.5" font-family="Helvetica,sans-Serif" font-size="10.00">Definition.cpp</text>
</a>
</g>
</g>
<!-- Node1&#45;&gt;Node14 -->
<g id="edge17" class="edge">
<title>Node1&#45;&gt;Node14</title>
<path fill="none" stroke="midnightblue" d="M686.8,-254.98C728.78,-244.37 782.74,-230.72 822.71,-220.61"/>
<polygon fill="midnightblue" stroke="midnightblue" points="685.79,-251.63 676.95,-257.48 687.5,-258.42 685.79,-251.63"/>
</g>
<!-- Node3 -->
<g id="node3" class="node">
<title>Node3</title>
<g id="a_node3"><a xlink:href="Controller_8h.xhtml" target="_top" xlink:title="In this file, the header of the Controller class is defined.">
<polygon fill="white" stroke="black" points="257.5,-129 257.5,-148 397.5,-148 397.5,-129 257.5,-129"/>
<text text-anchor="middle" x="327.5" y="-136" font-family="Helvetica,sans-Serif" font-size="10.00">src/controller/Controller.h</text>
</a>
</g>
</g>
<!-- Node2&#45;&gt;Node3 -->
<g id="edge2" class="edge">
<title>Node2&#45;&gt;Node3</title>
<path fill="none" stroke="midnightblue" d="M363.61,-187.4C354.09,-174.77 341.52,-158.1 334,-148.13"/>
<polygon fill="midnightblue" stroke="midnightblue" points="361.08,-189.86 369.89,-195.73 366.67,-185.64 361.08,-189.86"/>
</g>
<!-- Node8 -->
<g id="node8" class="node">
<title>Node8</title>
<g id="a_node8"><a xlink:href="Optimizer_8cpp.xhtml" target="_top" xlink:title="In this file, the implementation of the Optimizer class is defined.">
<polygon fill="white" stroke="black" points="411,-62 411,-81 562,-81 562,-62 411,-62"/>
<text text-anchor="middle" x="486.5" y="-69" font-family="Helvetica,sans-Serif" font-size="10.00">src/optimizer/Optimizer.cpp</text>
</a>
</g>
</g>
<!-- Node2&#45;&gt;Node8 -->
<g id="edge13" class="edge">
<title>Node2&#45;&gt;Node8</title>
<path fill="none" stroke="midnightblue" d="M390.22,-188.03C413.85,-159.67 461.42,-102.6 479.4,-81.02"/>
<polygon fill="midnightblue" stroke="midnightblue" points="387.43,-185.92 383.72,-195.84 392.81,-190.4 387.43,-185.92"/>
</g>
<!-- Node9 -->
<g id="node9" class="node">
<title>Node9</title>
<g id="a_node9"><a xlink:href="DirectOptimizer_8h.xhtml" target="_top" xlink:title="In this file, the header of the DirectOptimizer class is defined.">
<polygon fill="white" stroke="black" points="23,-123.5 23,-153.5 134,-153.5 134,-123.5 23,-123.5"/>
<text text-anchor="start" x="31" y="-141.5" font-family="Helvetica,sans-Serif" font-size="10.00">src/optimizer/direct</text>
<text text-anchor="middle" x="78.5" y="-130.5" font-family="Helvetica,sans-Serif" font-size="10.00">/DirectOptimizer.h</text>
</a>
</g>
</g>
<!-- Node2&#45;&gt;Node9 -->
<g id="edge10" class="edge">
<title>Node2&#45;&gt;Node9</title>
<path fill="none" stroke="midnightblue" d="M327.37,-193.78C274.22,-182.19 189.65,-163.74 134.1,-151.63"/>
<polygon fill="midnightblue" stroke="midnightblue" points="326.72,-197.22 337.24,-195.94 328.21,-190.38 326.72,-197.22"/>
</g>
<!-- Node11 -->
<g id="node11" class="node">
<title>Node11</title>
<g id="a_node11"><a xlink:href="StatusBar_8cpp.xhtml" target="_top" xlink:title="In this file, the implementation of the StatusBar class is defined.">
<polygon fill="white" stroke="black" points="453.5,-129 453.5,-148 587.5,-148 587.5,-129 453.5,-129"/>
<text text-anchor="middle" x="520.5" y="-136" font-family="Helvetica,sans-Serif" font-size="10.00">src/status/StatusBar.cpp</text>
</a>
</g>
</g>
<!-- Node2&#45;&gt;Node11 -->
<g id="edge14" class="edge">
<title>Node2&#45;&gt;Node11</title>
<path fill="none" stroke="midnightblue" d="M405.05,-191.61C433.57,-178.74 476.62,-159.31 501.3,-148.17"/>
<polygon fill="midnightblue" stroke="midnightblue" points="403.3,-188.56 395.62,-195.87 406.18,-194.94 403.3,-188.56"/>
</g>
<!-- Node4 -->
<g id="node4" class="node">
<title>Node4</title>
<g id="a_node4"><a xlink:href="Controller_8cpp.xhtml" target="_top" xlink:title="In this file, the implementation of the Controller class is defined.">
<polygon fill="white" stroke="black" points="0,-0.5 0,-19.5 151,-19.5 151,-0.5 0,-0.5"/>
<text text-anchor="middle" x="75.5" y="-7.5" font-family="Helvetica,sans-Serif" font-size="10.00">src/controller/Controller.cpp</text>
</a>
</g>
</g>
<!-- Node3&#45;&gt;Node4 -->
<g id="edge3" class="edge">
<title>Node3&#45;&gt;Node4</title>
<path fill="none" stroke="midnightblue" d="M283.61,-126.12C254.46,-117.59 215.92,-104.39 184.5,-87 165.13,-76.28 163.5,-68.89 145.5,-56 126.71,-42.54 104.06,-28.33 89.72,-19.56"/>
<polygon fill="midnightblue" stroke="midnightblue" points="282.93,-129.57 293.5,-128.95 284.85,-122.84 282.93,-129.57"/>
</g>
<!-- Node5 -->
<g id="node5" class="node">
<title>Node5</title>
<g id="a_node5"><a xlink:href="StubController_8h.xhtml" target="_top" xlink:title="In this file, the header of the StubController class is defined.">
<polygon fill="white" stroke="black" points="193,-62 193,-81 354,-81 354,-62 193,-62"/>
<text text-anchor="middle" x="273.5" y="-69" font-family="Helvetica,sans-Serif" font-size="10.00">src/controller/StubController.h</text>
</a>
</g>
</g>
<!-- Node3&#45;&gt;Node5 -->
<g id="edge4" class="edge">
<title>Node3&#45;&gt;Node5</title>
<path fill="none" stroke="midnightblue" d="M313.6,-120.77C303.07,-108.1 289.04,-91.2 280.67,-81.13"/>
<polygon fill="midnightblue" stroke="midnightblue" points="311.13,-123.28 320.22,-128.73 316.52,-118.81 311.13,-123.28"/>
</g>
<!-- Node7 -->
<g id="node7" class="node">
<title>Node7</title>
<g id="a_node7"><a xlink:href="main_8cpp.xhtml" target="_top" xlink:title="In this file, the main function running the Simopticon framework is defined.">
<polygon fill="white" stroke="black" points="360,-0.5 360,-19.5 439,-19.5 439,-0.5 360,-0.5"/>
<text text-anchor="middle" x="399.5" y="-7.5" font-family="Helvetica,sans-Serif" font-size="10.00">src/main.cpp</text>
</a>
</g>
</g>
<!-- Node3&#45;&gt;Node7 -->
<g id="edge8" class="edge">
<title>Node3&#45;&gt;Node7</title>
<path fill="none" stroke="midnightblue" d="M340.64,-120.66C347.83,-111.08 356.64,-98.68 363.5,-87 377.25,-63.58 390.02,-34.07 395.98,-19.69"/>
<polygon fill="midnightblue" stroke="midnightblue" points="337.66,-118.81 334.36,-128.88 343.22,-123.06 337.66,-118.81"/>
</g>
<!-- Node3&#45;&gt;Node8 -->
<g id="edge9" class="edge">
<title>Node3&#45;&gt;Node8</title>
<path fill="none" stroke="midnightblue" d="M358.23,-124.94C389.81,-112.03 438.12,-92.28 465.55,-81.06"/>
<polygon fill="midnightblue" stroke="midnightblue" points="356.55,-121.84 348.61,-128.87 359.19,-128.32 356.55,-121.84"/>
</g>
<!-- Node5&#45;&gt;Node4 -->
<g id="edge6" class="edge">
<title>Node5&#45;&gt;Node4</title>
<path fill="none" stroke="midnightblue" d="M235.33,-59.03C196.84,-47.46 138.34,-29.88 103.82,-19.51"/>
<polygon fill="midnightblue" stroke="midnightblue" points="234.55,-62.45 245.13,-61.98 236.56,-55.75 234.55,-62.45"/>
</g>
<!-- Node6 -->
<g id="node6" class="node">
<title>Node6</title>
<g id="a_node6"><a xlink:href="StubController_8cpp.xhtml" target="_top" xlink:title="In this file, the implementation of the StubController class is defined.">
<polygon fill="white" stroke="black" points="169,-0.5 169,-19.5 342,-19.5 342,-0.5 169,-0.5"/>
<text text-anchor="middle" x="255.5" y="-7.5" font-family="Helvetica,sans-Serif" font-size="10.00">src/controller/StubController.cpp</text>
</a>
</g>
</g>
<!-- Node5&#45;&gt;Node6 -->
<g id="edge5" class="edge">
<title>Node5&#45;&gt;Node6</title>
<path fill="none" stroke="midnightblue" d="M267.95,-52.16C264.66,-41.27 260.64,-27.99 258.07,-19.51"/>
<polygon fill="midnightblue" stroke="midnightblue" points="264.68,-53.42 270.92,-61.98 271.38,-51.39 264.68,-53.42"/>
</g>
<!-- Node5&#45;&gt;Node7 -->
<g id="edge7" class="edge">
<title>Node5&#45;&gt;Node7</title>
<path fill="none" stroke="midnightblue" d="M300.66,-57.67C325.11,-46.13 360.35,-29.49 381.48,-19.51"/>
<polygon fill="midnightblue" stroke="midnightblue" points="299.1,-54.54 291.55,-61.98 302.09,-60.87 299.1,-54.54"/>
</g>
<!-- Node9&#45;&gt;Node4 -->
<g id="edge11" class="edge">
<title>Node9&#45;&gt;Node4</title>
<path fill="none" stroke="midnightblue" d="M40.16,-117.75C28.82,-109.83 17.77,-99.57 11.5,-87 5.35,-74.67 5.15,-68.23 11.5,-56 20.39,-38.88 39.11,-26.91 54.02,-19.64"/>
<polygon fill="midnightblue" stroke="midnightblue" points="38.52,-120.85 48.81,-123.34 42.31,-114.97 38.52,-120.85"/>
</g>
<!-- Node10 -->
<g id="node10" class="node">
<title>Node10</title>
<g id="a_node10"><a xlink:href="DirectOptimizer_8cpp.xhtml" target="_top" xlink:title="In this file, the implementation of the DirectOptimizer class is defined.">
<polygon fill="white" stroke="black" points="20.5,-56.5 20.5,-86.5 136.5,-86.5 136.5,-56.5 20.5,-56.5"/>
<text text-anchor="start" x="28.5" y="-74.5" font-family="Helvetica,sans-Serif" font-size="10.00">src/optimizer/direct</text>
<text text-anchor="middle" x="78.5" y="-63.5" font-family="Helvetica,sans-Serif" font-size="10.00">/DirectOptimizer.cpp</text>
</a>
</g>
</g>
<!-- Node9&#45;&gt;Node10 -->
<g id="edge12" class="edge">
<title>Node9&#45;&gt;Node10</title>
<path fill="none" stroke="midnightblue" d="M78.5,-113.11C78.5,-104.15 78.5,-94.32 78.5,-86.58"/>
<polygon fill="midnightblue" stroke="midnightblue" points="75,-113.4 78.5,-123.4 82,-113.4 75,-113.4"/>
</g>
</g>
</svg>
        <g id="navigator" transform="translate(0 0)" fill="#404254">
                <rect fill="#f2f5e9" fill-opacity="0.5" stroke="#606060" stroke-width=".5" x="0" y="0" width="60" height="60"/>
                <use id="zoomplus" xlink:href="#zoomPlus" x="17" y="9" onmousedown="handleZoom(evt,'in')"/>
                <use id="zoomminus" xlink:href="#zoomMin" x="42" y="9" onmousedown="handleZoom(evt,'out')"/>
                <use id="reset" xlink:href="#resetDef" x="30" y="36" onmousedown="handleReset()"/>
                <g id="arrowUp" xlink:href="#dirArrow" transform="translate(30 24)" onmousedown="handlePan(0,-1)">
                  <use xlink:href="#rim" fill="#404040">
                        <set attributeName="fill" to="#808080" begin="arrowUp.mouseover" end="arrowUp.mouseout"/>
                  </use>
                  <path fill="none" stroke="white" stroke-width="1.5" d="M0,-3.0v7 M-2.5,-0.5L0,-3.0L2.5,-0.5"/>
                </g>
                <g id="arrowRight" xlink:href="#dirArrow" transform="rotate(90) translate(36 -43)" onmousedown="handlePan(1,0)">
                  <use xlink:href="#rim" fill="#404040">
                        <set attributeName="fill" to="#808080" begin="arrowRight.mouseover" end="arrowRight.mouseout"/>
                  </use>
                  <path fill="none" stroke="white" stroke-width="1.5" d="M0,-3.0v7 M-2.5,-0.5L0,-3.0L2.5,-0.5"/>
                </g>
                <g id="arrowDown" xlink:href="#dirArrow" transform="rotate(180) translate(-30 -48)" onmousedown="handlePan(0,1)">
                  <use xlink:href="#rim" fill="#404040">
                        <set attributeName="fill" to="#808080" begin="arrowDown.mouseover" end="arrowDown.mouseout"/>
                  </use>
                  <path fill="none" stroke="white" stroke-width="1.5" d="M0,-3.0v7 M-2.5,-0.5L0,-3.0L2.5,-0.5"/>
                </g>
                <g id="arrowLeft" xlink:href="#dirArrow" transform="rotate(270) translate(-36 17)" onmousedown="handlePan(-1,0)">
                  <use xlink:href="#rim" fill="#404040">
                        <set attributeName="fill" to="#808080" begin="arrowLeft.mouseover" end="arrowLeft.mouseout"/>
                  </use>
                  <path fill="none" stroke="white" stroke-width="1.5" d="M0,-3.0v7 M-2.5,-0.5L0,-3.0L2.5,-0.5"/>
                </g>
        </g>
        <svg viewBox="0 0 15 15" width="100%" height="30px" preserveAspectRatio="xMaxYMin meet">
         <g id="arrow_out" transform="scale(0.3 0.3)">
          <a xlink:href="ParameterDefinition_8h__dep__incl_org.svg" target="_base">
           <rect id="button" ry="5" rx="5" y="6" x="6" height="38" width="38"
                fill="#f2f5e9" fill-opacity="0.5" stroke="#606060" stroke-width="1.0"/>
           <path id="arrow"
             d="M 11.500037,31.436501 C 11.940474,20.09759 22.043105,11.32322 32.158766,21.979434 L 37.068811,17.246167 C 37.068811,17.246167 37.088388,32 37.088388,32 L 22.160133,31.978069 C 22.160133,31.978069 26.997745,27.140456 26.997745,27.140456 C 18.528582,18.264221 13.291696,25.230495 11.500037,31.436501 z"
             style="fill:#404040;"/>
          </a>
         </g>
        </svg>
</svg>
