<?xml version="1.0" encoding="UTF-8" standalone="no"?>
<!DOCTYPE svg PUBLIC "-//W3C//DTD SVG 1.1//EN"
 "http://www.w3.org/Graphics/SVG/1.1/DTD/svg11.dtd">
<!-- Generated by graphviz version 2.43.0 (0)
 -->
<!-- Title: /home/runner/work/Simopticon/Simopticon/src/parameters/Parameter.h Pages: 1 -->
<svg width="194pt" height="162pt"
 viewBox="0.00 0.00 194.00 162.00" xmlns="http://www.w3.org/2000/svg" xmlns:xlink="http://www.w3.org/1999/xlink">
<g id="graph0" class="graph" transform="scale(1 1) rotate(0) translate(4 158)">
<title>/home/runner/work/Simopticon/Simopticon/src/parameters/Parameter.h</title>
<polygon fill="white" stroke="transparent" points="-4,4 -4,-158 190,-158 190,4 -4,4"/>
<!-- Node1 -->
<g id="node1" class="node">
<title>Node1</title>
<g id="a_node1"><a xlink:title="In this file, the header of the Parameter class is defined.">
<polygon fill="#bfbfbf" stroke="black" points="2.5,-112.5 2.5,-153.5 169.5,-153.5 169.5,-112.5 2.5,-112.5"/>
<text text-anchor="start" x="10.5" y="-141.5" font-family="Helvetica,sans-Serif" font-size="10.00">/home/runner/work/Simopticon</text>
<text text-anchor="start" x="10.5" y="-130.5" font-family="Helvetica,sans-Serif" font-size="10.00">/Simopticon/src/parameters</text>
<text text-anchor="middle" x="86" y="-119.5" font-family="Helvetica,sans-Serif" font-size="10.00">/Parameter.h</text>
</a>
</g>
</g>
<!-- Node2 -->
<g id="node2" class="node">
<title>Node2</title>
<g id="a_node2"><a xlink:href="Types_8h.xhtml" target="_top" xlink:title="In this file, types are defined which should be used across the whole framework.">
<polygon fill="white" stroke="black" points="55,-56.5 55,-75.5 117,-75.5 117,-56.5 55,-56.5"/>
<text text-anchor="middle" x="86" y="-63.5" font-family="Helvetica,sans-Serif" font-size="10.00">../Types.h</text>
</a>
</g>
</g>
<!-- Node1&#45;&gt;Node2 -->
<g id="edge1" class="edge">
<title>Node1&#45;&gt;Node2</title>
<path fill="none" stroke="midnightblue" d="M86,-112.5C86,-104.07 86,-94.24 86,-85.87"/>
<polygon fill="midnightblue" stroke="midnightblue" points="89.5,-85.65 86,-75.65 82.5,-85.65 89.5,-85.65"/>
</g>
<!-- Node3 -->
<g id="node3" class="node">
<title>Node3</title>
<g id="a_node3"><a xlink:title=" ">
<polygon fill="white" stroke="#bfbfbf" points="0,-0.5 0,-19.5 44,-19.5 44,-0.5 0,-0.5"/>
<text text-anchor="middle" x="22" y="-7.5" font-family="Helvetica,sans-Serif" font-size="10.00">string</text>
</a>
</g>
</g>
<!-- Node1&#45;&gt;Node3 -->
<g id="edge5" class="edge">
<title>Node1&#45;&gt;Node3</title>
<path fill="none" stroke="midnightblue" d="M70,-112.36C62.07,-101.99 52.77,-88.78 46,-76 38.08,-61.05 31.62,-42.91 27.41,-29.6"/>
<polygon fill="midnightblue" stroke="midnightblue" points="30.66,-28.28 24.41,-19.73 23.97,-30.31 30.66,-28.28"/>
</g>
<!-- Node5 -->
<g id="node5" class="node">
<title>Node5</title>
<g id="a_node5"><a xlink:title=" ">
<polygon fill="white" stroke="#bfbfbf" points="128,-0.5 128,-19.5 186,-19.5 186,-0.5 128,-0.5"/>
<text text-anchor="middle" x="157" y="-7.5" font-family="Helvetica,sans-Serif" font-size="10.00">memory</text>
</a>
</g>
</g>
<!-- Node1&#45;&gt;Node5 -->
<g id="edge6" class="edge">
<title>Node1&#45;&gt;Node5</title>
<path fill="none" stroke="midnightblue" d="M101.32,-112.35C109.17,-101.86 118.6,-88.56 126,-76 135.02,-60.7 143.57,-42.37 149.4,-29.08"/>
<polygon fill="midnightblue" stroke="midnightblue" points="152.72,-30.23 153.45,-19.66 146.28,-27.47 152.72,-30.23"/>
</g>
<!-- Node2&#45;&gt;Node3 -->
<g id="edge2" class="edge">
<title>Node2&#45;&gt;Node3</title>
<path fill="none" stroke="midnightblue" d="M75.72,-56.32C66.16,-48.26 51.72,-36.08 40.22,-26.37"/>
<polygon fill="midnightblue" stroke="midnightblue" points="42.37,-23.61 32.47,-19.83 37.86,-28.96 42.37,-23.61"/>
</g>
<!-- Node4 -->
<g id="node4" class="node">
<title>Node4</title>
<g id="a_node4"><a xlink:title=" ">
<polygon fill="white" stroke="#bfbfbf" points="62.5,-0.5 62.5,-19.5 109.5,-19.5 109.5,-0.5 62.5,-0.5"/>
<text text-anchor="middle" x="86" y="-7.5" font-family="Helvetica,sans-Serif" font-size="10.00">vector</text>
</a>
</g>
</g>
<!-- Node2&#45;&gt;Node4 -->
<g id="edge3" class="edge">
<title>Node2&#45;&gt;Node4</title>
<path fill="none" stroke="midnightblue" d="M86,-56.08C86,-49.01 86,-38.86 86,-29.99"/>
<polygon fill="midnightblue" stroke="midnightblue" points="89.5,-29.75 86,-19.75 82.5,-29.75 89.5,-29.75"/>
</g>
<!-- Node2&#45;&gt;Node5 -->
<g id="edge4" class="edge">
<title>Node2&#45;&gt;Node5</title>
<path fill="none" stroke="midnightblue" d="M97.41,-56.32C108.11,-48.18 124.34,-35.84 137.16,-26.09"/>
<polygon fill="midnightblue" stroke="midnightblue" points="139.54,-28.67 145.39,-19.83 135.31,-23.1 139.54,-28.67"/>
</g>
</g>
</svg>
