<?xml version="1.0" encoding="UTF-8" standalone="no"?>
<!DOCTYPE svg PUBLIC "-//W3C//DTD SVG 1.1//EN"
 "http://www.w3.org/Graphics/SVG/1.1/DTD/svg11.dtd">
<!-- Generated by graphviz version 2.43.0 (0)
 -->
<!-- Title: /home/runner/work/Simopticon/Simopticon/src/parameters/ParameterDefinition.h Pages: 1 -->
<svg width="225pt" height="162pt"
 viewBox="0.00 0.00 224.50 162.00" xmlns="http://www.w3.org/2000/svg" xmlns:xlink="http://www.w3.org/1999/xlink">
<g id="graph0" class="graph" transform="scale(1 1) rotate(0) translate(4 158)">
<title>/home/runner/work/Simopticon/Simopticon/src/parameters/ParameterDefinition.h</title>
<polygon fill="white" stroke="transparent" points="-4,4 -4,-158 220.5,-158 220.5,4 -4,4"/>
<!-- Node1 -->
<g id="node1" class="node">
<title>Node1</title>
<g id="a_node1"><a xlink:title="In this file, the header of the ParameterDefinition class is defined.">
<polygon fill="#bfbfbf" stroke="black" points="0,-112.5 0,-153.5 167,-153.5 167,-112.5 0,-112.5"/>
<text text-anchor="start" x="8" y="-141.5" font-family="Helvetica,sans-Serif" font-size="10.00">/home/runner/work/Simopticon</text>
<text text-anchor="start" x="8" y="-130.5" font-family="Helvetica,sans-Serif" font-size="10.00">/Simopticon/src/parameters</text>
<text text-anchor="middle" x="83.5" y="-119.5" font-family="Helvetica,sans-Serif" font-size="10.00">/ParameterDefinition.h</text>
</a>
</g>
</g>
<!-- Node2 -->
<g id="node2" class="node">
<title>Node2</title>
<g id="a_node2"><a xlink:href="Types_8h.xhtml" target="_top" xlink:title="In this file, types are defined which should be used across the whole framework.">
<polygon fill="white" stroke="black" points="83.5,-56.5 83.5,-75.5 145.5,-75.5 145.5,-56.5 83.5,-56.5"/>
<text text-anchor="middle" x="114.5" y="-63.5" font-family="Helvetica,sans-Serif" font-size="10.00">../Types.h</text>
</a>
</g>
</g>
<!-- Node1&#45;&gt;Node2 -->
<g id="edge1" class="edge">
<title>Node1&#45;&gt;Node2</title>
<path fill="none" stroke="midnightblue" d="M92.8,-112.5C97.01,-103.68 101.94,-93.34 106.04,-84.74"/>
<polygon fill="midnightblue" stroke="midnightblue" points="109.23,-86.19 110.37,-75.65 102.91,-83.17 109.23,-86.19"/>
</g>
<!-- Node3 -->
<g id="node3" class="node">
<title>Node3</title>
<g id="a_node3"><a xlink:title=" ">
<polygon fill="white" stroke="#bfbfbf" points="30.5,-0.5 30.5,-19.5 74.5,-19.5 74.5,-0.5 30.5,-0.5"/>
<text text-anchor="middle" x="52.5" y="-7.5" font-family="Helvetica,sans-Serif" font-size="10.00">string</text>
</a>
</g>
</g>
<!-- Node1&#45;&gt;Node3 -->
<g id="edge5" class="edge">
<title>Node1&#45;&gt;Node3</title>
<path fill="none" stroke="midnightblue" d="M78.45,-112.29C72.58,-89.37 62.96,-51.85 57.23,-29.47"/>
<polygon fill="midnightblue" stroke="midnightblue" points="60.57,-28.39 54.7,-19.57 53.79,-30.13 60.57,-28.39"/>
</g>
<!-- Node2&#45;&gt;Node3 -->
<g id="edge2" class="edge">
<title>Node2&#45;&gt;Node3</title>
<path fill="none" stroke="midnightblue" d="M104.54,-56.32C95.37,-48.34 81.56,-36.31 70.47,-26.65"/>
<polygon fill="midnightblue" stroke="midnightblue" points="72.48,-23.76 62.64,-19.83 67.88,-29.04 72.48,-23.76"/>
</g>
<!-- Node4 -->
<g id="node4" class="node">
<title>Node4</title>
<g id="a_node4"><a xlink:title=" ">
<polygon fill="white" stroke="#bfbfbf" points="93,-0.5 93,-19.5 140,-19.5 140,-0.5 93,-0.5"/>
<text text-anchor="middle" x="116.5" y="-7.5" font-family="Helvetica,sans-Serif" font-size="10.00">vector</text>
</a>
</g>
</g>
<!-- Node2&#45;&gt;Node4 -->
<g id="edge3" class="edge">
<title>Node2&#45;&gt;Node4</title>
<path fill="none" stroke="midnightblue" d="M114.83,-56.08C115.09,-49.01 115.47,-38.86 115.8,-29.99"/>
<polygon fill="midnightblue" stroke="midnightblue" points="119.3,-29.87 116.18,-19.75 112.31,-29.61 119.3,-29.87"/>
</g>
<!-- Node5 -->
<g id="node5" class="node">
<title>Node5</title>
<g id="a_node5"><a xlink:title=" ">
<polygon fill="white" stroke="#bfbfbf" points="158.5,-0.5 158.5,-19.5 216.5,-19.5 216.5,-0.5 158.5,-0.5"/>
<text text-anchor="middle" x="187.5" y="-7.5" font-family="Helvetica,sans-Serif" font-size="10.00">memory</text>
</a>
</g>
</g>
<!-- Node2&#45;&gt;Node5 -->
<g id="edge4" class="edge">
<title>Node2&#45;&gt;Node5</title>
<path fill="none" stroke="midnightblue" d="M126.23,-56.32C137.34,-48.11 154.24,-35.6 167.48,-25.81"/>
<polygon fill="midnightblue" stroke="midnightblue" points="169.6,-28.59 175.56,-19.83 165.44,-22.97 169.6,-28.59"/>
</g>
</g>
</svg>
