<?xml version="1.0" encoding="UTF-8" standalone="no"?>
<!DOCTYPE svg PUBLIC "-//W3C//DTD SVG 1.1//EN"
 "http://www.w3.org/Graphics/SVG/1.1/DTD/svg11.dtd">
<!-- Generated by graphviz version 2.43.0 (0)
 -->
<!-- Title: /home/runner/work/Simopticon/Simopticon/src/runner/plexe/PlexeSimulationRunner.cpp Pages: 1 -->
<!--zoomable 386 -->
<svg id="main" version="1.1" xmlns="http://www.w3.org/2000/svg" xmlns:xlink="http://www.w3.org/1999/xlink" xml:space="preserve" onload="init(evt)">
<style type="text/css"><![CDATA[
.edge:hover path { stroke: red; }
.edge:hover polygon { stroke: red; fill: red; }
]]></style>
<script type="text/javascript"><![CDATA[
var edges = document.getElementsByTagName('g');
if (edges && edges.length) {
  for (var i=0;i<edges.length;i++) {
    if (edges[i].id.substr(0,4)=='edge') {
      edges[i].setAttribute('class','edge');
    }
  }
}
]]></script>
        <defs>
                <circle id="rim" cx="0" cy="0" r="7"/>
                <circle id="rim2" cx="0" cy="0" r="3.5"/>
                <g id="zoomPlus">
                        <use xlink:href="#rim" fill="#404040">
                                <set attributeName="fill" to="#808080" begin="zoomplus.mouseover" end="zoomplus.mouseout"/>
                        </use>
                        <path d="M-4,0h8M0,-4v8" fill="none" stroke="white" stroke-width="1.5" pointer-events="none"/>
                </g>
                <g id="zoomMin">
                        <use xlink:href="#rim" fill="#404040">
                                <set attributeName="fill" to="#808080" begin="zoomminus.mouseover" end="zoomminus.mouseout"/>
                        </use>
                        <path d="M-4,0h8" fill="none" stroke="white" stroke-width="1.5" pointer-events="none"/>
                </g>
                <g id="dirArrow">
                        <path fill="none" stroke="white" stroke-width="1.5" d="M0,-3.0v7 M-2.5,-0.5L0,-3.0L2.5,-0.5"/>
                </g>
               <g id="resetDef">
                       <use xlink:href="#rim2" fill="#404040">
                               <set attributeName="fill" to="#808080" begin="reset.mouseover" end="reset.mouseout"/>
                       </use>
               </g>
        </defs>

<script type="text/javascript">
var viewWidth = 1579;
var viewHeight = 386;
var sectionId = 'dynsection-0';
</script>
<script xlink:href="svgpan.js"/>
<svg id="graph" class="graph">
<g id="viewport">
<title>/home/runner/work/Simopticon/Simopticon/src/runner/plexe/PlexeSimulationRunner.cpp</title>
<polygon fill="white" stroke="transparent" points="-4,4 -4,-382 1575,-382 1575,4 -4,4"/>
<!-- Node1 -->
<g id="node1" class="node">
<title>Node1</title>
<g id="a_node1"><a xlink:title="In this file, the implementation of the PlexeSimulationRunner class is defined.">
<polygon fill="#bfbfbf" stroke="black" points="1287.5,-336.5 1287.5,-377.5 1454.5,-377.5 1454.5,-336.5 1287.5,-336.5"/>
<text text-anchor="start" x="1295.5" y="-365.5" font-family="Helvetica,sans-Serif" font-size="10.00">/home/runner/work/Simopticon</text>
<text text-anchor="start" x="1295.5" y="-354.5" font-family="Helvetica,sans-Serif" font-size="10.00">/Simopticon/src/runner/plexe</text>
<text text-anchor="middle" x="1371" y="-343.5" font-family="Helvetica,sans-Serif" font-size="10.00">/PlexeSimulationRunner.cpp</text>
</a>
</g>
</g>
<!-- Node2 -->
<g id="node2" class="node">
<title>Node2</title>
<g id="a_node2"><a xlink:href="PlexeSimulationRunner_8h.xhtml" target="_top" xlink:title="In this file, the header of the PlexeSimulationRunner class is defined.">
<polygon fill="white" stroke="black" points="599,-280.5 599,-299.5 737,-299.5 737,-280.5 599,-280.5"/>
<text text-anchor="middle" x="668" y="-287.5" font-family="Helvetica,sans-Serif" font-size="10.00">PlexeSimulationRunner.h</text>
</a>
</g>
</g>
<!-- Node1&#45;&gt;Node2 -->
<g id="edge1" class="edge">
<title>Node1&#45;&gt;Node2</title>
<path fill="none" stroke="midnightblue" d="M1287.25,-348.26C1150.46,-335.61 880.97,-310.69 747.2,-298.32"/>
<polygon fill="midnightblue" stroke="midnightblue" points="747.3,-294.82 737.02,-297.38 746.66,-301.79 747.3,-294.82"/>
</g>
<!-- Node23 -->
<g id="node23" class="node">
<title>Node23</title>
<g id="a_node23"><a xlink:href="ConfigEditor_8h.xhtml" target="_top" xlink:title="In this file, the header of the ConfigEditor class is defined.">
<polygon fill="white" stroke="black" points="1100,-224.5 1100,-243.5 1184,-243.5 1184,-224.5 1100,-224.5"/>
<text text-anchor="middle" x="1142" y="-231.5" font-family="Helvetica,sans-Serif" font-size="10.00">ConfigEditor.h</text>
</a>
</g>
</g>
<!-- Node1&#45;&gt;Node23 -->
<g id="edge45" class="edge">
<title>Node1&#45;&gt;Node23</title>
<path fill="none" stroke="midnightblue" d="M1333.95,-336.42C1287.08,-311.66 1207.59,-269.66 1167.19,-248.31"/>
<polygon fill="midnightblue" stroke="midnightblue" points="1168.75,-245.17 1158.27,-243.6 1165.47,-251.36 1168.75,-245.17"/>
</g>
<!-- Node25 -->
<g id="node25" class="node">
<title>Node25</title>
<g id="a_node25"><a xlink:href="CommandLine_8h.xhtml" target="_top" xlink:title="In this file, the header of the CommandLine class is defined.">
<polygon fill="white" stroke="black" points="1208,-56.5 1208,-75.5 1346,-75.5 1346,-56.5 1208,-56.5"/>
<text text-anchor="middle" x="1277" y="-63.5" font-family="Helvetica,sans-Serif" font-size="10.00">../../utils/CommandLine.h</text>
</a>
</g>
</g>
<!-- Node1&#45;&gt;Node25 -->
<g id="edge46" class="edge">
<title>Node1&#45;&gt;Node25</title>
<path fill="none" stroke="midnightblue" d="M1367.94,-336.36C1362.19,-301.68 1348.41,-227.63 1327,-168 1316.02,-137.44 1298.27,-104.06 1287.13,-84.35"/>
<polygon fill="midnightblue" stroke="midnightblue" points="1290.13,-82.55 1282.12,-75.62 1284.06,-86.03 1290.13,-82.55"/>
</g>
<!-- Node26 -->
<g id="node26" class="node">
<title>Node26</title>
<g id="a_node26"><a xlink:title=" ">
<polygon fill="white" stroke="#bfbfbf" points="1374.5,-280.5 1374.5,-299.5 1419.5,-299.5 1419.5,-280.5 1374.5,-280.5"/>
<text text-anchor="middle" x="1397" y="-287.5" font-family="Helvetica,sans-Serif" font-size="10.00">utility</text>
</a>
</g>
</g>
<!-- Node1&#45;&gt;Node26 -->
<g id="edge49" class="edge">
<title>Node1&#45;&gt;Node26</title>
<path fill="none" stroke="midnightblue" d="M1378.8,-336.5C1382.29,-327.78 1386.37,-317.56 1389.79,-309.02"/>
<polygon fill="midnightblue" stroke="midnightblue" points="1393.07,-310.24 1393.54,-299.65 1386.58,-307.64 1393.07,-310.24"/>
</g>
<!-- Node27 -->
<g id="node27" class="node">
<title>Node27</title>
<g id="a_node27"><a xlink:title=" ">
<polygon fill="white" stroke="#bfbfbf" points="1437.5,-280.5 1437.5,-299.5 1492.5,-299.5 1492.5,-280.5 1437.5,-280.5"/>
<text text-anchor="middle" x="1465" y="-287.5" font-family="Helvetica,sans-Serif" font-size="10.00">fstream</text>
</a>
</g>
</g>
<!-- Node1&#45;&gt;Node27 -->
<g id="edge50" class="edge">
<title>Node1&#45;&gt;Node27</title>
<path fill="none" stroke="midnightblue" d="M1399.2,-336.5C1413.62,-326.53 1430.85,-314.61 1444.06,-305.48"/>
<polygon fill="midnightblue" stroke="midnightblue" points="1446.25,-308.22 1452.49,-299.65 1442.27,-302.46 1446.25,-308.22"/>
</g>
<!-- Node28 -->
<g id="node28" class="node">
<title>Node28</title>
<g id="a_node28"><a xlink:title=" ">
<polygon fill="white" stroke="#bfbfbf" points="1511,-280.5 1511,-299.5 1571,-299.5 1571,-280.5 1511,-280.5"/>
<text text-anchor="middle" x="1541" y="-287.5" font-family="Helvetica,sans-Serif" font-size="10.00">iostream</text>
</a>
</g>
</g>
<!-- Node1&#45;&gt;Node28 -->
<g id="edge51" class="edge">
<title>Node1&#45;&gt;Node28</title>
<path fill="none" stroke="midnightblue" d="M1422.01,-336.5C1450.2,-325.72 1484.37,-312.65 1508.85,-303.29"/>
<polygon fill="midnightblue" stroke="midnightblue" points="1510.28,-306.49 1518.37,-299.65 1507.78,-299.95 1510.28,-306.49"/>
</g>
<!-- Node3 -->
<g id="node3" class="node">
<title>Node3</title>
<g id="a_node3"><a xlink:href="SimulationRunner_8h.xhtml" target="_top" xlink:title="In this file, the header of the SimulationRunner class is defined.">
<polygon fill="white" stroke="black" points="607.5,-224.5 607.5,-243.5 728.5,-243.5 728.5,-224.5 607.5,-224.5"/>
<text text-anchor="middle" x="668" y="-231.5" font-family="Helvetica,sans-Serif" font-size="10.00">../SimulationRunner.h</text>
</a>
</g>
</g>
<!-- Node2&#45;&gt;Node3 -->
<g id="edge2" class="edge">
<title>Node2&#45;&gt;Node3</title>
<path fill="none" stroke="midnightblue" d="M668,-280.08C668,-273.01 668,-262.86 668,-253.99"/>
<polygon fill="midnightblue" stroke="midnightblue" points="671.5,-253.75 668,-243.75 664.5,-253.75 671.5,-253.75"/>
</g>
<!-- Node11 -->
<g id="node11" class="node">
<title>Node11</title>
<g id="a_node11"><a xlink:title=" ">
<polygon fill="white" stroke="#bfbfbf" points="299,-56.5 299,-75.5 347,-75.5 347,-56.5 299,-56.5"/>
<text text-anchor="middle" x="323" y="-63.5" font-family="Helvetica,sans-Serif" font-size="10.00">mutex</text>
</a>
</g>
</g>
<!-- Node2&#45;&gt;Node11 -->
<g id="edge44" class="edge">
<title>Node2&#45;&gt;Node11</title>
<path fill="none" stroke="midnightblue" d="M598.69,-287.23C498.88,-280.46 318.02,-251.37 239,-132 222.81,-107.55 259.15,-88.39 289,-77.39"/>
<polygon fill="midnightblue" stroke="midnightblue" points="290.5,-80.57 298.79,-73.97 288.2,-73.96 290.5,-80.57"/>
</g>
<!-- Node20 -->
<g id="node20" class="node">
<title>Node20</title>
<g id="a_node20"><a xlink:title=" ">
<polygon fill="white" stroke="#bfbfbf" points="0,-56.5 0,-75.5 32,-75.5 32,-56.5 0,-56.5"/>
<text text-anchor="middle" x="16" y="-63.5" font-family="Helvetica,sans-Serif" font-size="10.00">list</text>
</a>
</g>
</g>
<!-- Node2&#45;&gt;Node20 -->
<g id="edge43" class="edge">
<title>Node2&#45;&gt;Node20</title>
<path fill="none" stroke="midnightblue" d="M598.99,-284.78C462.45,-275.23 163.98,-247.93 83,-188 48.05,-162.14 29.02,-112.33 20.88,-85.39"/>
<polygon fill="midnightblue" stroke="midnightblue" points="24.22,-84.34 18.12,-75.68 17.49,-86.25 24.22,-84.34"/>
</g>
<!-- Node2&#45;&gt;Node23 -->
<g id="edge35" class="edge">
<title>Node2&#45;&gt;Node23</title>
<path fill="none" stroke="midnightblue" d="M737.18,-281.12C832.98,-270.2 1003.93,-250.73 1089.77,-240.95"/>
<polygon fill="midnightblue" stroke="midnightblue" points="1090.27,-244.42 1099.81,-239.81 1089.48,-237.46 1090.27,-244.42"/>
</g>
<!-- Node4 -->
<g id="node4" class="node">
<title>Node4</title>
<g id="a_node4"><a xlink:href="Types_8h.xhtml" target="_top" xlink:title="In this file, types are defined which should be used across the whole framework.">
<polygon fill="white" stroke="black" points="979,-56.5 979,-75.5 1041,-75.5 1041,-56.5 979,-56.5"/>
<text text-anchor="middle" x="1010" y="-63.5" font-family="Helvetica,sans-Serif" font-size="10.00">../Types.h</text>
</a>
</g>
</g>
<!-- Node3&#45;&gt;Node4 -->
<g id="edge3" class="edge">
<title>Node3&#45;&gt;Node4</title>
<path fill="none" stroke="midnightblue" d="M678.91,-224.39C696.09,-211.11 730.8,-185.34 763,-168 835.12,-129.15 925.45,-95.78 974.43,-78.86"/>
<polygon fill="midnightblue" stroke="midnightblue" points="975.62,-82.15 983.94,-75.6 973.35,-75.53 975.62,-82.15"/>
</g>
<!-- Node6 -->
<g id="node6" class="node">
<title>Node6</title>
<g id="a_node6"><a xlink:title=" ">
<polygon fill="white" stroke="#bfbfbf" points="710.5,-0.5 710.5,-19.5 757.5,-19.5 757.5,-0.5 710.5,-0.5"/>
<text text-anchor="middle" x="734" y="-7.5" font-family="Helvetica,sans-Serif" font-size="10.00">vector</text>
</a>
</g>
</g>
<!-- Node3&#45;&gt;Node6 -->
<g id="edge29" class="edge">
<title>Node3&#45;&gt;Node6</title>
<path fill="none" stroke="midnightblue" d="M607.31,-224.51C547.2,-215.94 452.6,-202 371,-188 238.83,-165.32 47.27,-242.29 79,-112 85.63,-84.77 84.59,-71.42 108,-56 157.58,-23.35 576.38,-13.68 699.86,-11.52"/>
<polygon fill="midnightblue" stroke="midnightblue" points="700.28,-15.02 710.22,-11.35 700.16,-8.02 700.28,-15.02"/>
</g>
<!-- Node7 -->
<g id="node7" class="node">
<title>Node7</title>
<g id="a_node7"><a xlink:title=" ">
<polygon fill="white" stroke="#bfbfbf" points="1040,-0.5 1040,-19.5 1098,-19.5 1098,-0.5 1040,-0.5"/>
<text text-anchor="middle" x="1069" y="-7.5" font-family="Helvetica,sans-Serif" font-size="10.00">memory</text>
</a>
</g>
</g>
<!-- Node3&#45;&gt;Node7 -->
<g id="edge32" class="edge">
<title>Node3&#45;&gt;Node7</title>
<path fill="none" stroke="midnightblue" d="M674.43,-224.09C684.47,-210.63 705.02,-184.92 727,-168 824.25,-93.13 962.94,-43.6 1029.88,-22.54"/>
<polygon fill="midnightblue" stroke="midnightblue" points="1031.09,-25.82 1039.6,-19.52 1029.01,-19.14 1031.09,-25.82"/>
</g>
<!-- Node8 -->
<g id="node8" class="node">
<title>Node8</title>
<g id="a_node8"><a xlink:href="ComparisonFunctions_8h.xhtml" target="_top" xlink:title="In this file, comparison functions are defined which should be used across the whole framework.">
<polygon fill="white" stroke="black" points="772,-168.5 772,-187.5 912,-187.5 912,-168.5 772,-168.5"/>
<text text-anchor="middle" x="842" y="-175.5" font-family="Helvetica,sans-Serif" font-size="10.00">../ComparisonFunctions.h</text>
</a>
</g>
</g>
<!-- Node3&#45;&gt;Node8 -->
<g id="edge7" class="edge">
<title>Node3&#45;&gt;Node8</title>
<path fill="none" stroke="midnightblue" d="M695.57,-224.44C725.1,-215.28 772.12,-200.69 804.88,-190.52"/>
<polygon fill="midnightblue" stroke="midnightblue" points="806.04,-193.82 814.56,-187.52 803.97,-187.14 806.04,-193.82"/>
</g>
<!-- Node10 -->
<g id="node10" class="node">
<title>Node10</title>
<g id="a_node10"><a xlink:href="Multithreaded_8h.xhtml" target="_top" xlink:title="In this file, the header of the Multithreaded class is defined.">
<polygon fill="white" stroke="black" points="380.5,-168.5 380.5,-187.5 507.5,-187.5 507.5,-168.5 380.5,-168.5"/>
<text text-anchor="middle" x="444" y="-175.5" font-family="Helvetica,sans-Serif" font-size="10.00">../utils/Multithreaded.h</text>
</a>
</g>
</g>
<!-- Node3&#45;&gt;Node10 -->
<g id="edge13" class="edge">
<title>Node3&#45;&gt;Node10</title>
<path fill="none" stroke="midnightblue" d="M632.51,-224.44C593.68,-215.08 531.34,-200.06 489.08,-189.87"/>
<polygon fill="midnightblue" stroke="midnightblue" points="489.87,-186.46 479.33,-187.52 488.23,-193.26 489.87,-186.46"/>
</g>
<!-- Node12 -->
<g id="node12" class="node">
<title>Node12</title>
<g id="a_node12"><a xlink:title=" ">
<polygon fill="white" stroke="#bfbfbf" points="505.5,-56.5 505.5,-75.5 552.5,-75.5 552.5,-56.5 505.5,-56.5"/>
<text text-anchor="middle" x="529" y="-63.5" font-family="Helvetica,sans-Serif" font-size="10.00">queue</text>
</a>
</g>
</g>
<!-- Node3&#45;&gt;Node12 -->
<g id="edge34" class="edge">
<title>Node3&#45;&gt;Node12</title>
<path fill="none" stroke="midnightblue" d="M668.08,-224.19C667.82,-202.43 664.22,-145.46 635,-112 616.44,-90.75 586.14,-79.25 562.67,-73.21"/>
<polygon fill="midnightblue" stroke="midnightblue" points="563.3,-69.77 552.76,-70.88 561.69,-76.58 563.3,-69.77"/>
</g>
<!-- Node13 -->
<g id="node13" class="node">
<title>Node13</title>
<g id="a_node13"><a xlink:title=" ">
<polygon fill="white" stroke="#bfbfbf" points="588,-112.5 588,-131.5 626,-131.5 626,-112.5 588,-112.5"/>
<text text-anchor="middle" x="607" y="-119.5" font-family="Helvetica,sans-Serif" font-size="10.00">map</text>
</a>
</g>
</g>
<!-- Node3&#45;&gt;Node13 -->
<g id="edge31" class="edge">
<title>Node3&#45;&gt;Node13</title>
<path fill="none" stroke="midnightblue" d="M653.03,-224.34C640.93,-216.48 624.55,-203.74 616,-188 608.27,-173.77 606.35,-155.29 606.17,-141.68"/>
<polygon fill="midnightblue" stroke="midnightblue" points="609.67,-141.64 606.34,-131.59 602.67,-141.53 609.67,-141.64"/>
</g>
<!-- Node15 -->
<g id="node15" class="node">
<title>Node15</title>
<g id="a_node15"><a xlink:title=" ">
<polygon fill="white" stroke="#bfbfbf" points="538,-112.5 538,-131.5 570,-131.5 570,-112.5 538,-112.5"/>
<text text-anchor="middle" x="554" y="-119.5" font-family="Helvetica,sans-Serif" font-size="10.00">set</text>
</a>
</g>
</g>
<!-- Node3&#45;&gt;Node15 -->
<g id="edge30" class="edge">
<title>Node3&#45;&gt;Node15</title>
<path fill="none" stroke="midnightblue" d="M654.13,-224.48C641,-216.07 621.11,-202.42 606,-188 590.54,-173.25 575.59,-153.85 565.72,-140.1"/>
<polygon fill="midnightblue" stroke="midnightblue" points="568.36,-137.77 559.75,-131.6 562.64,-141.8 568.36,-137.77"/>
</g>
<!-- Node21 -->
<g id="node21" class="node">
<title>Node21</title>
<g id="a_node21"><a xlink:href="Status_8h.xhtml" target="_top" xlink:title="In this file, the header of the Status class is defined.">
<polygon fill="white" stroke="black" points="930,-168.5 930,-187.5 1028,-187.5 1028,-168.5 930,-168.5"/>
<text text-anchor="middle" x="979" y="-175.5" font-family="Helvetica,sans-Serif" font-size="10.00">../status/Status.h</text>
</a>
</g>
</g>
<!-- Node3&#45;&gt;Node21 -->
<g id="edge27" class="edge">
<title>Node3&#45;&gt;Node21</title>
<path fill="none" stroke="midnightblue" d="M717.28,-224.44C772.33,-214.89 861.4,-199.42 920.08,-189.23"/>
<polygon fill="midnightblue" stroke="midnightblue" points="920.7,-192.68 929.95,-187.52 919.5,-185.78 920.7,-192.68"/>
</g>
<!-- Node22 -->
<g id="node22" class="node">
<title>Node22</title>
<g id="a_node22"><a xlink:title=" ">
<polygon fill="white" stroke="#bfbfbf" points="1046,-168.5 1046,-187.5 1114,-187.5 1114,-168.5 1046,-168.5"/>
<text text-anchor="middle" x="1080" y="-175.5" font-family="Helvetica,sans-Serif" font-size="10.00">filesystem</text>
</a>
</g>
</g>
<!-- Node3&#45;&gt;Node22 -->
<g id="edge33" class="edge">
<title>Node3&#45;&gt;Node22</title>
<path fill="none" stroke="midnightblue" d="M728.63,-227.2C799.85,-220.03 921.77,-206.65 1035.83,-188.07"/>
<polygon fill="midnightblue" stroke="midnightblue" points="1036.48,-191.51 1045.78,-186.44 1035.35,-184.61 1036.48,-191.51"/>
</g>
<!-- Node5 -->
<g id="node5" class="node">
<title>Node5</title>
<g id="a_node5"><a xlink:title=" ">
<polygon fill="white" stroke="#bfbfbf" points="1255,-0.5 1255,-19.5 1299,-19.5 1299,-0.5 1255,-0.5"/>
<text text-anchor="middle" x="1277" y="-7.5" font-family="Helvetica,sans-Serif" font-size="10.00">string</text>
</a>
</g>
</g>
<!-- Node4&#45;&gt;Node5 -->
<g id="edge4" class="edge">
<title>Node4&#45;&gt;Node5</title>
<path fill="none" stroke="midnightblue" d="M1041.15,-58.7C1092.24,-48.37 1193.32,-27.92 1244.98,-17.48"/>
<polygon fill="midnightblue" stroke="midnightblue" points="1245.81,-20.88 1254.92,-15.47 1244.42,-14.02 1245.81,-20.88"/>
</g>
<!-- Node4&#45;&gt;Node6 -->
<g id="edge5" class="edge">
<title>Node4&#45;&gt;Node6</title>
<path fill="none" stroke="midnightblue" d="M978.88,-58.91C926.67,-48.7 821.88,-28.19 767.89,-17.63"/>
<polygon fill="midnightblue" stroke="midnightblue" points="768.28,-14.14 757.79,-15.66 766.94,-21.01 768.28,-14.14"/>
</g>
<!-- Node4&#45;&gt;Node7 -->
<g id="edge6" class="edge">
<title>Node4&#45;&gt;Node7</title>
<path fill="none" stroke="midnightblue" d="M1019.48,-56.32C1028.2,-48.34 1041.34,-36.31 1051.9,-26.65"/>
<polygon fill="midnightblue" stroke="midnightblue" points="1054.33,-29.17 1059.35,-19.83 1049.61,-24 1054.33,-29.17"/>
</g>
<!-- Node8&#45;&gt;Node6 -->
<g id="edge12" class="edge">
<title>Node8&#45;&gt;Node6</title>
<path fill="none" stroke="midnightblue" d="M833.95,-168.41C825.9,-159.62 813.41,-145.38 804,-132 779.33,-96.91 755.35,-52.6 742.88,-28.52"/>
<polygon fill="midnightblue" stroke="midnightblue" points="745.94,-26.83 738.27,-19.53 739.72,-30.02 745.94,-26.83"/>
</g>
<!-- Node9 -->
<g id="node9" class="node">
<title>Node9</title>
<g id="a_node9"><a xlink:href="Parameter_8h.xhtml" target="_top" xlink:title="In this file, the header of the Parameter class is defined.">
<polygon fill="white" stroke="black" points="976,-112.5 976,-131.5 1110,-131.5 1110,-112.5 976,-112.5"/>
<text text-anchor="middle" x="1043" y="-119.5" font-family="Helvetica,sans-Serif" font-size="10.00">parameters/Parameter.h</text>
</a>
</g>
</g>
<!-- Node8&#45;&gt;Node9 -->
<g id="edge8" class="edge">
<title>Node8&#45;&gt;Node9</title>
<path fill="none" stroke="midnightblue" d="M873.85,-168.44C908.4,-159.16 963.68,-144.31 1001.58,-134.13"/>
<polygon fill="midnightblue" stroke="midnightblue" points="1002.55,-137.49 1011.3,-131.52 1000.73,-130.73 1002.55,-137.49"/>
</g>
<!-- Node9&#45;&gt;Node4 -->
<g id="edge9" class="edge">
<title>Node9&#45;&gt;Node4</title>
<path fill="none" stroke="midnightblue" d="M1037.55,-112.08C1032.99,-104.61 1026.33,-93.72 1020.71,-84.52"/>
<polygon fill="midnightblue" stroke="midnightblue" points="1023.55,-82.46 1015.35,-75.75 1017.58,-86.11 1023.55,-82.46"/>
</g>
<!-- Node9&#45;&gt;Node5 -->
<g id="edge10" class="edge">
<title>Node9&#45;&gt;Node5</title>
<path fill="none" stroke="midnightblue" d="M1061.36,-112.37C1102.29,-93.13 1201.17,-46.65 1249.49,-23.93"/>
<polygon fill="midnightblue" stroke="midnightblue" points="1251.16,-27.01 1258.72,-19.59 1248.18,-20.68 1251.16,-27.01"/>
</g>
<!-- Node9&#45;&gt;Node7 -->
<g id="edge11" class="edge">
<title>Node9&#45;&gt;Node7</title>
<path fill="none" stroke="midnightblue" d="M1045.04,-112.37C1049.24,-94.62 1058.92,-53.67 1064.6,-29.6"/>
<polygon fill="midnightblue" stroke="midnightblue" points="1068.08,-30.13 1066.97,-19.59 1061.26,-28.52 1068.08,-30.13"/>
</g>
<!-- Node10&#45;&gt;Node11 -->
<g id="edge14" class="edge">
<title>Node10&#45;&gt;Node11</title>
<path fill="none" stroke="midnightblue" d="M420.72,-168.44C402.77,-160.94 378.19,-148.65 361,-132 347.23,-118.67 336.77,-99.28 330.34,-85.16"/>
<polygon fill="midnightblue" stroke="midnightblue" points="333.39,-83.37 326.23,-75.56 326.95,-86.13 333.39,-83.37"/>
</g>
<!-- Node10&#45;&gt;Node12 -->
<g id="edge15" class="edge">
<title>Node10&#45;&gt;Node12</title>
<path fill="none" stroke="midnightblue" d="M454.53,-168.43C464.63,-159.87 479.94,-146.01 491,-132 502.62,-117.28 513.14,-98.65 520.16,-85.11"/>
<polygon fill="midnightblue" stroke="midnightblue" points="523.42,-86.41 524.8,-75.9 517.17,-83.26 523.42,-86.41"/>
</g>
<!-- Node10&#45;&gt;Node13 -->
<g id="edge16" class="edge">
<title>Node10&#45;&gt;Node13</title>
<path fill="none" stroke="midnightblue" d="M469.83,-168.44C499.35,-158.66 547.53,-142.7 578.23,-132.53"/>
<polygon fill="midnightblue" stroke="midnightblue" points="579.52,-135.79 587.91,-129.32 577.32,-129.15 579.52,-135.79"/>
</g>
<!-- Node14 -->
<g id="node14" class="node">
<title>Node14</title>
<g id="a_node14"><a xlink:title=" ">
<polygon fill="white" stroke="#bfbfbf" points="248.5,-112.5 248.5,-131.5 313.5,-131.5 313.5,-112.5 248.5,-112.5"/>
<text text-anchor="middle" x="281" y="-119.5" font-family="Helvetica,sans-Serif" font-size="10.00">functional</text>
</a>
</g>
</g>
<!-- Node10&#45;&gt;Node14 -->
<g id="edge17" class="edge">
<title>Node10&#45;&gt;Node14</title>
<path fill="none" stroke="midnightblue" d="M418.17,-168.44C390.75,-159.36 347.22,-144.94 316.57,-134.78"/>
<polygon fill="midnightblue" stroke="midnightblue" points="317.3,-131.34 306.71,-131.52 315.1,-137.98 317.3,-131.34"/>
</g>
<!-- Node10&#45;&gt;Node15 -->
<g id="edge18" class="edge">
<title>Node10&#45;&gt;Node15</title>
<path fill="none" stroke="midnightblue" d="M461.67,-168.32C479.81,-159.42 508.21,-145.48 528.72,-135.41"/>
<polygon fill="midnightblue" stroke="midnightblue" points="530.37,-138.5 537.8,-130.95 527.29,-132.22 530.37,-138.5"/>
</g>
<!-- Node16 -->
<g id="node16" class="node">
<title>Node16</title>
<g id="a_node16"><a xlink:href="ThreadsafeQueue_8h.xhtml" target="_top" xlink:title="In this file, the header of the ThreadSafeQueue class is defined.">
<polygon fill="white" stroke="black" points="370,-112.5 370,-131.5 482,-131.5 482,-112.5 370,-112.5"/>
<text text-anchor="middle" x="426" y="-119.5" font-family="Helvetica,sans-Serif" font-size="10.00">ThreadsafeQueue.h</text>
</a>
</g>
</g>
<!-- Node10&#45;&gt;Node16 -->
<g id="edge19" class="edge">
<title>Node10&#45;&gt;Node16</title>
<path fill="none" stroke="midnightblue" d="M441.03,-168.08C438.62,-160.85 435.14,-150.41 432.13,-141.4"/>
<polygon fill="midnightblue" stroke="midnightblue" points="435.4,-140.13 428.92,-131.75 428.76,-142.34 435.4,-140.13"/>
</g>
<!-- Node18 -->
<g id="node18" class="node">
<title>Node18</title>
<g id="a_node18"><a xlink:href="Multithreaded_8tpp.xhtml" target="_top" xlink:title="In this file, the implementation of the Multithreaded class is defined.">
<polygon fill="white" stroke="black" points="88,-112.5 88,-131.5 192,-131.5 192,-112.5 88,-112.5"/>
<text text-anchor="middle" x="140" y="-119.5" font-family="Helvetica,sans-Serif" font-size="10.00">Multithreaded.tpp</text>
</a>
</g>
</g>
<!-- Node10&#45;&gt;Node18 -->
<g id="edge24" class="edge">
<title>Node10&#45;&gt;Node18</title>
<path fill="none" stroke="midnightblue" d="M395.83,-168.44C342.13,-158.9 255.31,-143.48 197.95,-133.29"/>
<polygon fill="midnightblue" stroke="midnightblue" points="198.4,-129.82 187.94,-131.52 197.18,-136.71 198.4,-129.82"/>
</g>
<!-- Node16&#45;&gt;Node11 -->
<g id="edge21" class="edge">
<title>Node16&#45;&gt;Node11</title>
<path fill="none" stroke="midnightblue" d="M409.45,-112.32C393.01,-103.7 367.57,-90.36 348.53,-80.39"/>
<polygon fill="midnightblue" stroke="midnightblue" points="349.99,-77.2 339.51,-75.65 346.74,-83.4 349.99,-77.2"/>
</g>
<!-- Node16&#45;&gt;Node12 -->
<g id="edge20" class="edge">
<title>Node16&#45;&gt;Node12</title>
<path fill="none" stroke="midnightblue" d="M442.55,-112.32C458.99,-103.7 484.43,-90.36 503.47,-80.39"/>
<polygon fill="midnightblue" stroke="midnightblue" points="505.26,-83.4 512.49,-75.65 502.01,-77.2 505.26,-83.4"/>
</g>
<!-- Node17 -->
<g id="node17" class="node">
<title>Node17</title>
<g id="a_node17"><a xlink:href="ThreadsafeQueue_8tpp.xhtml" target="_top" xlink:title="In this file, the implementation of the ThreadSafeQueue class is defined.">
<polygon fill="white" stroke="black" points="365,-56.5 365,-75.5 487,-75.5 487,-56.5 365,-56.5"/>
<text text-anchor="middle" x="426" y="-63.5" font-family="Helvetica,sans-Serif" font-size="10.00">ThreadsafeQueue.tpp</text>
</a>
</g>
</g>
<!-- Node16&#45;&gt;Node17 -->
<g id="edge22" class="edge">
<title>Node16&#45;&gt;Node17</title>
<path fill="none" stroke="midnightblue" d="M420.83,-112.08C419.32,-104.93 418.89,-94.64 419.54,-85.69"/>
<polygon fill="midnightblue" stroke="midnightblue" points="423.02,-86.13 420.87,-75.75 416.08,-85.2 423.02,-86.13"/>
</g>
<!-- Node17&#45;&gt;Node16 -->
<g id="edge23" class="edge">
<title>Node17&#45;&gt;Node16</title>
<path fill="none" stroke="midnightblue" d="M431.13,-75.75C432.66,-82.86 433.1,-93.14 432.47,-102.1"/>
<polygon fill="midnightblue" stroke="midnightblue" points="428.99,-101.71 431.17,-112.08 435.93,-102.62 428.99,-101.71"/>
</g>
<!-- Node19 -->
<g id="node19" class="node">
<title>Node19</title>
<g id="a_node19"><a xlink:title=" ">
<polygon fill="white" stroke="#bfbfbf" points="117,-56.5 117,-75.5 163,-75.5 163,-56.5 117,-56.5"/>
<text text-anchor="middle" x="140" y="-63.5" font-family="Helvetica,sans-Serif" font-size="10.00">future</text>
</a>
</g>
</g>
<!-- Node18&#45;&gt;Node19 -->
<g id="edge25" class="edge">
<title>Node18&#45;&gt;Node19</title>
<path fill="none" stroke="midnightblue" d="M140,-112.08C140,-105.01 140,-94.86 140,-85.99"/>
<polygon fill="midnightblue" stroke="midnightblue" points="143.5,-85.75 140,-75.75 136.5,-85.75 143.5,-85.75"/>
</g>
<!-- Node18&#45;&gt;Node20 -->
<g id="edge26" class="edge">
<title>Node18&#45;&gt;Node20</title>
<path fill="none" stroke="midnightblue" d="M120.35,-112.44C98.96,-103.13 64.68,-88.2 41.29,-78.02"/>
<polygon fill="midnightblue" stroke="midnightblue" points="42.57,-74.75 32.01,-73.97 39.78,-81.17 42.57,-74.75"/>
</g>
<!-- Node21&#45;&gt;Node5 -->
<g id="edge28" class="edge">
<title>Node21&#45;&gt;Node5</title>
<path fill="none" stroke="midnightblue" d="M1022.15,-168.47C1116.51,-149.38 1334.43,-102.82 1355,-76 1372.25,-53.5 1337.05,-33.62 1308.48,-21.95"/>
<polygon fill="midnightblue" stroke="midnightblue" points="1309.72,-18.67 1299.14,-18.31 1307.19,-25.2 1309.72,-18.67"/>
</g>
<!-- Node23&#45;&gt;Node5 -->
<g id="edge39" class="edge">
<title>Node23&#45;&gt;Node5</title>
<path fill="none" stroke="midnightblue" d="M1184.11,-233.42C1225.24,-231.6 1287.28,-222.67 1327,-188 1373.59,-147.34 1403.96,-108.32 1371,-56 1357.51,-34.59 1330.71,-23.14 1309.16,-17.16"/>
<polygon fill="midnightblue" stroke="midnightblue" points="1309.95,-13.75 1299.39,-14.71 1308.24,-20.54 1309.95,-13.75"/>
</g>
<!-- Node23&#45;&gt;Node6 -->
<g id="edge40" class="edge">
<title>Node23&#45;&gt;Node6</title>
<path fill="none" stroke="midnightblue" d="M1142.08,-224.45C1141.73,-210.52 1138.9,-183.01 1123,-168 1071.26,-119.15 1033.77,-156.59 967,-132 885.65,-102.04 796.58,-49.81 756.15,-24.94"/>
<polygon fill="midnightblue" stroke="midnightblue" points="757.96,-21.94 747.62,-19.65 754.27,-27.89 757.96,-21.94"/>
</g>
<!-- Node23&#45;&gt;Node7 -->
<g id="edge38" class="edge">
<title>Node23&#45;&gt;Node7</title>
<path fill="none" stroke="midnightblue" d="M1146.54,-224.11C1152.37,-211.55 1161.14,-187.89 1156,-168 1141.56,-112.16 1102.53,-55 1082.01,-27.62"/>
<polygon fill="midnightblue" stroke="midnightblue" points="1084.67,-25.34 1075.82,-19.52 1079.11,-29.59 1084.67,-25.34"/>
</g>
<!-- Node23&#45;&gt;Node8 -->
<g id="edge36" class="edge">
<title>Node23&#45;&gt;Node8</title>
<path fill="none" stroke="midnightblue" d="M1099.97,-225.43C1047.61,-216.01 957.9,-199.86 899.28,-189.31"/>
<polygon fill="midnightblue" stroke="midnightblue" points="899.89,-185.86 889.43,-187.54 898.65,-192.75 899.89,-185.86"/>
</g>
<!-- Node23&#45;&gt;Node13 -->
<g id="edge41" class="edge">
<title>Node23&#45;&gt;Node13</title>
<path fill="none" stroke="midnightblue" d="M1099.8,-231.78C1029.05,-228.9 882.53,-219.35 763,-188 715.11,-175.44 662.58,-151.2 632.33,-136.13"/>
<polygon fill="midnightblue" stroke="midnightblue" points="633.83,-132.97 623.32,-131.59 630.67,-139.22 633.83,-132.97"/>
</g>
<!-- Node23&#45;&gt;Node22 -->
<g id="edge42" class="edge">
<title>Node23&#45;&gt;Node22</title>
<path fill="none" stroke="midnightblue" d="M1132.04,-224.32C1122.87,-216.34 1109.06,-204.31 1097.97,-194.65"/>
<polygon fill="midnightblue" stroke="midnightblue" points="1099.98,-191.76 1090.14,-187.83 1095.38,-197.04 1099.98,-191.76"/>
</g>
<!-- Node24 -->
<g id="node24" class="node">
<title>Node24</title>
<g id="a_node24"><a xlink:title=" ">
<polygon fill="white" stroke="#bfbfbf" points="1208,-168.5 1208,-187.5 1318,-187.5 1318,-168.5 1208,-168.5"/>
<text text-anchor="middle" x="1263" y="-175.5" font-family="Helvetica,sans-Serif" font-size="10.00">nlohmann/json.hpp</text>
</a>
</g>
</g>
<!-- Node23&#45;&gt;Node24 -->
<g id="edge37" class="edge">
<title>Node23&#45;&gt;Node24</title>
<path fill="none" stroke="midnightblue" d="M1161.17,-224.44C1180.91,-215.64 1211.89,-201.81 1234.49,-191.72"/>
<polygon fill="midnightblue" stroke="midnightblue" points="1236.21,-194.79 1243.92,-187.52 1233.36,-188.4 1236.21,-194.79"/>
</g>
<!-- Node25&#45;&gt;Node5 -->
<g id="edge47" class="edge">
<title>Node25&#45;&gt;Node5</title>
<path fill="none" stroke="midnightblue" d="M1277,-56.08C1277,-49.01 1277,-38.86 1277,-29.99"/>
<polygon fill="midnightblue" stroke="midnightblue" points="1280.5,-29.75 1277,-19.75 1273.5,-29.75 1280.5,-29.75"/>
</g>
<!-- Node25&#45;&gt;Node7 -->
<g id="edge48" class="edge">
<title>Node25&#45;&gt;Node7</title>
<path fill="none" stroke="midnightblue" d="M1244.04,-56.44C1207.05,-46.84 1147.1,-31.28 1107.86,-21.09"/>
<polygon fill="midnightblue" stroke="midnightblue" points="1108.67,-17.68 1098.11,-18.56 1106.91,-24.46 1108.67,-17.68"/>
</g>
</g>
</svg>
        <g id="navigator" transform="translate(0 0)" fill="#404254">
                <rect fill="#f2f5e9" fill-opacity="0.5" stroke="#606060" stroke-width=".5" x="0" y="0" width="60" height="60"/>
                <use id="zoomplus" xlink:href="#zoomPlus" x="17" y="9" onmousedown="handleZoom(evt,'in')"/>
                <use id="zoomminus" xlink:href="#zoomMin" x="42" y="9" onmousedown="handleZoom(evt,'out')"/>
                <use id="reset" xlink:href="#resetDef" x="30" y="36" onmousedown="handleReset()"/>
                <g id="arrowUp" xlink:href="#dirArrow" transform="translate(30 24)" onmousedown="handlePan(0,-1)">
                  <use xlink:href="#rim" fill="#404040">
                        <set attributeName="fill" to="#808080" begin="arrowUp.mouseover" end="arrowUp.mouseout"/>
                  </use>
                  <path fill="none" stroke="white" stroke-width="1.5" d="M0,-3.0v7 M-2.5,-0.5L0,-3.0L2.5,-0.5"/>
                </g>
                <g id="arrowRight" xlink:href="#dirArrow" transform="rotate(90) translate(36 -43)" onmousedown="handlePan(1,0)">
                  <use xlink:href="#rim" fill="#404040">
                        <set attributeName="fill" to="#808080" begin="arrowRight.mouseover" end="arrowRight.mouseout"/>
                  </use>
                  <path fill="none" stroke="white" stroke-width="1.5" d="M0,-3.0v7 M-2.5,-0.5L0,-3.0L2.5,-0.5"/>
                </g>
                <g id="arrowDown" xlink:href="#dirArrow" transform="rotate(180) translate(-30 -48)" onmousedown="handlePan(0,1)">
                  <use xlink:href="#rim" fill="#404040">
                        <set attributeName="fill" to="#808080" begin="arrowDown.mouseover" end="arrowDown.mouseout"/>
                  </use>
                  <path fill="none" stroke="white" stroke-width="1.5" d="M0,-3.0v7 M-2.5,-0.5L0,-3.0L2.5,-0.5"/>
                </g>
                <g id="arrowLeft" xlink:href="#dirArrow" transform="rotate(270) translate(-36 17)" onmousedown="handlePan(-1,0)">
                  <use xlink:href="#rim" fill="#404040">
                        <set attributeName="fill" to="#808080" begin="arrowLeft.mouseover" end="arrowLeft.mouseout"/>
                  </use>
                  <path fill="none" stroke="white" stroke-width="1.5" d="M0,-3.0v7 M-2.5,-0.5L0,-3.0L2.5,-0.5"/>
                </g>
        </g>
        <svg viewBox="0 0 15 15" width="100%" height="30px" preserveAspectRatio="xMaxYMin meet">
         <g id="arrow_out" transform="scale(0.3 0.3)">
          <a xlink:href="PlexeSimulationRunner_8cpp__incl_org.svg" target="_base">
           <rect id="button" ry="5" rx="5" y="6" x="6" height="38" width="38"
                fill="#f2f5e9" fill-opacity="0.5" stroke="#606060" stroke-width="1.0"/>
           <path id="arrow"
             d="M 11.500037,31.436501 C 11.940474,20.09759 22.043105,11.32322 32.158766,21.979434 L 37.068811,17.246167 C 37.068811,17.246167 37.088388,32 37.088388,32 L 22.160133,31.978069 C 22.160133,31.978069 26.997745,27.140456 26.997745,27.140456 C 18.528582,18.264221 13.291696,25.230495 11.500037,31.436501 z"
             style="fill:#404040;"/>
          </a>
         </g>
        </svg>
</svg>
