<?xml version="1.0" encoding="UTF-8" standalone="no"?>
<!DOCTYPE svg PUBLIC "-//W3C//DTD SVG 1.1//EN"
 "http://www.w3.org/Graphics/SVG/1.1/DTD/svg11.dtd">
<!-- Generated by graphviz version 2.43.0 (0)
 -->
<!-- Title: src/runner/plexe/PlexeSimulationRunner.h Pages: 1 -->
<svg width="1308pt" height="319pt"
 viewBox="0.00 0.00 1308.03 319.00" xmlns="http://www.w3.org/2000/svg" xmlns:xlink="http://www.w3.org/1999/xlink">
<g id="graph0" class="graph" transform="scale(1 1) rotate(0) translate(4 315)">
<title>src/runner/plexe/PlexeSimulationRunner.h</title>
<polygon fill="white" stroke="transparent" points="-4,4 -4,-315 1304.03,-315 1304.03,4 -4,4"/>
<!-- Node1 -->
<g id="node1" class="node">
<title>Node1</title>
<g id="a_node1"><a xlink:title="In this file, the header of the PlexeSimulationRunner class is defined.">
<polygon fill="#bfbfbf" stroke="black" points="342.5,-280.5 342.5,-310.5 518.5,-310.5 518.5,-280.5 342.5,-280.5"/>
<text text-anchor="start" x="350.5" y="-298.5" font-family="Helvetica,sans-Serif" font-size="10.00">src/runner/plexe/PlexeSimulation</text>
<text text-anchor="middle" x="430.5" y="-287.5" font-family="Helvetica,sans-Serif" font-size="10.00">Runner.h</text>
</a>
</g>
</g>
<!-- Node2 -->
<g id="node2" class="node">
<title>Node2</title>
<g id="a_node2"><a xlink:href="SimulationRunner_8h.xhtml" target="_top" xlink:title="In this file, the header of the SimulationRunner class is defined.">
<polygon fill="white" stroke="black" points="552,-224.5 552,-243.5 673,-243.5 673,-224.5 552,-224.5"/>
<text text-anchor="middle" x="612.5" y="-231.5" font-family="Helvetica,sans-Serif" font-size="10.00">../SimulationRunner.h</text>
</a>
</g>
</g>
<!-- Node1&#45;&gt;Node2 -->
<g id="edge1" class="edge">
<title>Node1&#45;&gt;Node2</title>
<path fill="none" stroke="midnightblue" d="M473.63,-280.4C505.08,-270.12 547.19,-256.35 576.77,-246.68"/>
<polygon fill="midnightblue" stroke="midnightblue" points="577.87,-250.01 586.28,-243.57 575.69,-243.35 577.87,-250.01"/>
</g>
<!-- Node10 -->
<g id="node10" class="node">
<title>Node10</title>
<g id="a_node10"><a xlink:title=" ">
<polygon fill="white" stroke="#bfbfbf" points="205.5,-56.5 205.5,-75.5 253.5,-75.5 253.5,-56.5 205.5,-56.5"/>
<text text-anchor="middle" x="229.5" y="-63.5" font-family="Helvetica,sans-Serif" font-size="10.00">mutex</text>
</a>
</g>
</g>
<!-- Node1&#45;&gt;Node10 -->
<g id="edge43" class="edge">
<title>Node1&#45;&gt;Node10</title>
<path fill="none" stroke="midnightblue" d="M396.39,-280.44C376.93,-271.54 352.68,-258.92 333.5,-244 307.16,-223.52 301.63,-216.01 283.5,-188 261.61,-154.17 244.39,-109.98 235.7,-85.45"/>
<polygon fill="midnightblue" stroke="midnightblue" points="238.9,-83.98 232.32,-75.67 232.28,-86.27 238.9,-83.98"/>
</g>
<!-- Node19 -->
<g id="node19" class="node">
<title>Node19</title>
<g id="a_node19"><a xlink:title=" ">
<polygon fill="white" stroke="#bfbfbf" points="324.5,-56.5 324.5,-75.5 356.5,-75.5 356.5,-56.5 324.5,-56.5"/>
<text text-anchor="middle" x="340.5" y="-63.5" font-family="Helvetica,sans-Serif" font-size="10.00">list</text>
</a>
</g>
</g>
<!-- Node1&#45;&gt;Node19 -->
<g id="edge42" class="edge">
<title>Node1&#45;&gt;Node19</title>
<path fill="none" stroke="midnightblue" d="M407.6,-280.49C369.92,-255.91 296.15,-201.01 267.5,-132 264.09,-123.79 263.17,-119.76 267.5,-112 277.48,-94.13 297.79,-82.48 314.46,-75.51"/>
<polygon fill="midnightblue" stroke="midnightblue" points="316.15,-78.61 324.24,-71.77 313.65,-72.08 316.15,-78.61"/>
</g>
<!-- Node22 -->
<g id="node22" class="node">
<title>Node22</title>
<g id="a_node22"><a xlink:href="ConfigEditor_8h.xhtml" target="_top" xlink:title="In this file, the header of the ConfigEditor class is defined.">
<polygon fill="white" stroke="black" points="1033.5,-224.5 1033.5,-243.5 1117.5,-243.5 1117.5,-224.5 1033.5,-224.5"/>
<text text-anchor="middle" x="1075.5" y="-231.5" font-family="Helvetica,sans-Serif" font-size="10.00">ConfigEditor.h</text>
</a>
</g>
</g>
<!-- Node1&#45;&gt;Node22 -->
<g id="edge34" class="edge">
<title>Node1&#45;&gt;Node22</title>
<path fill="none" stroke="midnightblue" d="M518.83,-286.35C655.2,-273.77 912.77,-250.01 1023.14,-239.83"/>
<polygon fill="midnightblue" stroke="midnightblue" points="1023.71,-243.29 1033.35,-238.89 1023.07,-236.32 1023.71,-243.29"/>
</g>
<!-- Node3 -->
<g id="node3" class="node">
<title>Node3</title>
<g id="a_node3"><a xlink:href="Types_8h.xhtml" target="_top" xlink:title="In this file, types are defined which should be used across the whole framework.">
<polygon fill="white" stroke="black" points="936.5,-56.5 936.5,-75.5 998.5,-75.5 998.5,-56.5 936.5,-56.5"/>
<text text-anchor="middle" x="967.5" y="-63.5" font-family="Helvetica,sans-Serif" font-size="10.00">../Types.h</text>
</a>
</g>
</g>
<!-- Node2&#45;&gt;Node3 -->
<g id="edge2" class="edge">
<title>Node2&#45;&gt;Node3</title>
<path fill="none" stroke="midnightblue" d="M623.38,-224.32C640.51,-210.94 675.15,-185.06 707.5,-168 782.99,-128.19 877.78,-95.32 929.5,-78.71"/>
<polygon fill="midnightblue" stroke="midnightblue" points="930.79,-81.97 939.26,-75.6 928.67,-75.3 930.79,-81.97"/>
</g>
<!-- Node5 -->
<g id="node5" class="node">
<title>Node5</title>
<g id="a_node5"><a xlink:title=" ">
<polygon fill="white" stroke="#bfbfbf" points="708,-0.5 708,-19.5 755,-19.5 755,-0.5 708,-0.5"/>
<text text-anchor="middle" x="731.5" y="-7.5" font-family="Helvetica,sans-Serif" font-size="10.00">vector</text>
</a>
</g>
</g>
<!-- Node2&#45;&gt;Node5 -->
<g id="edge28" class="edge">
<title>Node2&#45;&gt;Node5</title>
<path fill="none" stroke="midnightblue" d="M615.62,-224.11C620.07,-211.55 628.57,-187.89 636.5,-168 646.53,-142.85 647.31,-135.65 660.5,-112 678.07,-80.51 703.21,-46.79 718.38,-27.37"/>
<polygon fill="midnightblue" stroke="midnightblue" points="721.13,-29.53 724.59,-19.51 715.64,-25.19 721.13,-29.53"/>
</g>
<!-- Node6 -->
<g id="node6" class="node">
<title>Node6</title>
<g id="a_node6"><a xlink:title=" ">
<polygon fill="white" stroke="#bfbfbf" points="967.5,-0.5 967.5,-19.5 1025.5,-19.5 1025.5,-0.5 967.5,-0.5"/>
<text text-anchor="middle" x="996.5" y="-7.5" font-family="Helvetica,sans-Serif" font-size="10.00">memory</text>
</a>
</g>
</g>
<!-- Node2&#45;&gt;Node6 -->
<g id="edge31" class="edge">
<title>Node2&#45;&gt;Node6</title>
<path fill="none" stroke="midnightblue" d="M618.57,-224.49C628.45,-211.11 649.15,-184.94 671.5,-168 765.86,-96.46 898.01,-44.98 960.74,-22.94"/>
<polygon fill="midnightblue" stroke="midnightblue" points="962.25,-26.12 970.55,-19.53 959.96,-19.5 962.25,-26.12"/>
</g>
<!-- Node7 -->
<g id="node7" class="node">
<title>Node7</title>
<g id="a_node7"><a xlink:href="ComparisonFunctions_8h.xhtml" target="_top" xlink:title="In this file, comparison functions are defined which should be used across the whole framework.">
<polygon fill="white" stroke="black" points="956.5,-168.5 956.5,-187.5 1096.5,-187.5 1096.5,-168.5 956.5,-168.5"/>
<text text-anchor="middle" x="1026.5" y="-175.5" font-family="Helvetica,sans-Serif" font-size="10.00">../ComparisonFunctions.h</text>
</a>
</g>
</g>
<!-- Node2&#45;&gt;Node7 -->
<g id="edge6" class="edge">
<title>Node2&#45;&gt;Node7</title>
<path fill="none" stroke="midnightblue" d="M673.14,-225.09C746.91,-215.47 871.45,-199.22 951.26,-188.81"/>
<polygon fill="midnightblue" stroke="midnightblue" points="951.79,-192.27 961.25,-187.51 950.88,-185.33 951.79,-192.27"/>
</g>
<!-- Node9 -->
<g id="node9" class="node">
<title>Node9</title>
<g id="a_node9"><a xlink:href="Multithreaded_8h.xhtml" target="_top" xlink:title="In this file, the header of the Multithreaded class is defined.">
<polygon fill="white" stroke="black" points="344,-168.5 344,-187.5 471,-187.5 471,-168.5 344,-168.5"/>
<text text-anchor="middle" x="407.5" y="-175.5" font-family="Helvetica,sans-Serif" font-size="10.00">../utils/Multithreaded.h</text>
</a>
</g>
</g>
<!-- Node2&#45;&gt;Node9 -->
<g id="edge12" class="edge">
<title>Node2&#45;&gt;Node9</title>
<path fill="none" stroke="midnightblue" d="M580.02,-224.44C544.78,-215.16 488.4,-200.31 449.74,-190.13"/>
<polygon fill="midnightblue" stroke="midnightblue" points="450.39,-186.68 439.83,-187.52 448.61,-193.45 450.39,-186.68"/>
</g>
<!-- Node11 -->
<g id="node11" class="node">
<title>Node11</title>
<g id="a_node11"><a xlink:title=" ">
<polygon fill="white" stroke="#bfbfbf" points="0,-56.5 0,-75.5 47,-75.5 47,-56.5 0,-56.5"/>
<text text-anchor="middle" x="23.5" y="-63.5" font-family="Helvetica,sans-Serif" font-size="10.00">queue</text>
</a>
</g>
</g>
<!-- Node2&#45;&gt;Node11 -->
<g id="edge33" class="edge">
<title>Node2&#45;&gt;Node11</title>
<path fill="none" stroke="midnightblue" d="M551.78,-230.54C419.77,-223.93 112.64,-201.31 39.5,-132 27.12,-120.27 23.68,-100.62 22.99,-86"/>
<polygon fill="midnightblue" stroke="midnightblue" points="26.49,-85.56 22.92,-75.59 19.49,-85.61 26.49,-85.56"/>
</g>
<!-- Node12 -->
<g id="node12" class="node">
<title>Node12</title>
<g id="a_node12"><a xlink:title=" ">
<polygon fill="white" stroke="#bfbfbf" points="570.5,-112.5 570.5,-131.5 608.5,-131.5 608.5,-112.5 570.5,-112.5"/>
<text text-anchor="middle" x="589.5" y="-119.5" font-family="Helvetica,sans-Serif" font-size="10.00">map</text>
</a>
</g>
</g>
<!-- Node2&#45;&gt;Node12 -->
<g id="edge30" class="edge">
<title>Node2&#45;&gt;Node12</title>
<path fill="none" stroke="midnightblue" d="M609.39,-224.49C606.23,-215.52 601.39,-200.94 598.5,-188 595.08,-172.69 592.74,-155.05 591.3,-142.01"/>
<polygon fill="midnightblue" stroke="midnightblue" points="594.77,-141.51 590.27,-131.91 587.8,-142.22 594.77,-141.51"/>
</g>
<!-- Node14 -->
<g id="node14" class="node">
<title>Node14</title>
<g id="a_node14"><a xlink:title=" ">
<polygon fill="white" stroke="#bfbfbf" points="520.5,-112.5 520.5,-131.5 552.5,-131.5 552.5,-112.5 520.5,-112.5"/>
<text text-anchor="middle" x="536.5" y="-119.5" font-family="Helvetica,sans-Serif" font-size="10.00">set</text>
</a>
</g>
</g>
<!-- Node2&#45;&gt;Node14 -->
<g id="edge29" class="edge">
<title>Node2&#45;&gt;Node14</title>
<path fill="none" stroke="midnightblue" d="M606.54,-224.37C593.99,-206.22 564.69,-163.8 548.24,-139.99"/>
<polygon fill="midnightblue" stroke="midnightblue" points="551,-137.83 542.44,-131.59 545.24,-141.81 551,-137.83"/>
</g>
<!-- Node20 -->
<g id="node20" class="node">
<title>Node20</title>
<g id="a_node20"><a xlink:href="Status_8h.xhtml" target="_top" xlink:title="In this file, the header of the Status class is defined.">
<polygon fill="white" stroke="black" points="716.5,-168.5 716.5,-187.5 814.5,-187.5 814.5,-168.5 716.5,-168.5"/>
<text text-anchor="middle" x="765.5" y="-175.5" font-family="Helvetica,sans-Serif" font-size="10.00">../status/Status.h</text>
</a>
</g>
</g>
<!-- Node2&#45;&gt;Node20 -->
<g id="edge26" class="edge">
<title>Node2&#45;&gt;Node20</title>
<path fill="none" stroke="midnightblue" d="M636.74,-224.44C662.37,-215.4 702.99,-201.06 731.74,-190.92"/>
<polygon fill="midnightblue" stroke="midnightblue" points="733.11,-194.15 741.37,-187.52 730.78,-187.54 733.11,-194.15"/>
</g>
<!-- Node21 -->
<g id="node21" class="node">
<title>Node21</title>
<g id="a_node21"><a xlink:title=" ">
<polygon fill="white" stroke="#bfbfbf" points="832.5,-168.5 832.5,-187.5 900.5,-187.5 900.5,-168.5 832.5,-168.5"/>
<text text-anchor="middle" x="866.5" y="-175.5" font-family="Helvetica,sans-Serif" font-size="10.00">filesystem</text>
</a>
</g>
</g>
<!-- Node2&#45;&gt;Node21 -->
<g id="edge32" class="edge">
<title>Node2&#45;&gt;Node21</title>
<path fill="none" stroke="midnightblue" d="M652.75,-224.44C698.88,-214.64 774.27,-198.61 822.09,-188.44"/>
<polygon fill="midnightblue" stroke="midnightblue" points="823.09,-191.81 832.14,-186.3 821.63,-184.96 823.09,-191.81"/>
</g>
<!-- Node4 -->
<g id="node4" class="node">
<title>Node4</title>
<g id="a_node4"><a xlink:title=" ">
<polygon fill="white" stroke="#bfbfbf" points="1192.5,-0.5 1192.5,-19.5 1236.5,-19.5 1236.5,-0.5 1192.5,-0.5"/>
<text text-anchor="middle" x="1214.5" y="-7.5" font-family="Helvetica,sans-Serif" font-size="10.00">string</text>
</a>
</g>
</g>
<!-- Node3&#45;&gt;Node4 -->
<g id="edge3" class="edge">
<title>Node3&#45;&gt;Node4</title>
<path fill="none" stroke="midnightblue" d="M998.78,-58.16C1045.95,-47.85 1134.81,-28.42 1182.43,-18.01"/>
<polygon fill="midnightblue" stroke="midnightblue" points="1183.19,-21.43 1192.22,-15.87 1181.7,-14.59 1183.19,-21.43"/>
</g>
<!-- Node3&#45;&gt;Node5 -->
<g id="edge4" class="edge">
<title>Node3&#45;&gt;Node5</title>
<path fill="none" stroke="midnightblue" d="M936.16,-57.83C891.73,-47.66 810.75,-29.13 765.11,-18.69"/>
<polygon fill="midnightblue" stroke="midnightblue" points="765.65,-15.22 755.12,-16.4 764.09,-22.05 765.65,-15.22"/>
</g>
<!-- Node3&#45;&gt;Node6 -->
<g id="edge5" class="edge">
<title>Node3&#45;&gt;Node6</title>
<path fill="none" stroke="midnightblue" d="M972.29,-56.08C976.26,-48.69 982.03,-37.95 986.93,-28.81"/>
<polygon fill="midnightblue" stroke="midnightblue" points="990.15,-30.22 991.8,-19.75 983.99,-26.91 990.15,-30.22"/>
</g>
<!-- Node7&#45;&gt;Node5 -->
<g id="edge11" class="edge">
<title>Node7&#45;&gt;Node5</title>
<path fill="none" stroke="midnightblue" d="M957.13,-168.47C873.7,-157.88 743.84,-140.22 736.5,-132 711.38,-103.87 719.01,-55.76 725.82,-29.47"/>
<polygon fill="midnightblue" stroke="midnightblue" points="729.24,-30.24 728.6,-19.67 722.51,-28.34 729.24,-30.24"/>
</g>
<!-- Node8 -->
<g id="node8" class="node">
<title>Node8</title>
<g id="a_node8"><a xlink:href="Parameter_8h.xhtml" target="_top" xlink:title="In this file, the header of the Parameter class is defined.">
<polygon fill="white" stroke="black" points="959.5,-112.5 959.5,-131.5 1093.5,-131.5 1093.5,-112.5 959.5,-112.5"/>
<text text-anchor="middle" x="1026.5" y="-119.5" font-family="Helvetica,sans-Serif" font-size="10.00">parameters/Parameter.h</text>
</a>
</g>
</g>
<!-- Node7&#45;&gt;Node8 -->
<g id="edge7" class="edge">
<title>Node7&#45;&gt;Node8</title>
<path fill="none" stroke="midnightblue" d="M1026.5,-168.08C1026.5,-161.01 1026.5,-150.86 1026.5,-141.99"/>
<polygon fill="midnightblue" stroke="midnightblue" points="1030,-141.75 1026.5,-131.75 1023,-141.75 1030,-141.75"/>
</g>
<!-- Node8&#45;&gt;Node3 -->
<g id="edge8" class="edge">
<title>Node8&#45;&gt;Node3</title>
<path fill="none" stroke="midnightblue" d="M1017.02,-112.32C1008.3,-104.34 995.16,-92.31 984.6,-82.65"/>
<polygon fill="midnightblue" stroke="midnightblue" points="986.89,-80 977.15,-75.83 982.17,-85.17 986.89,-80"/>
</g>
<!-- Node8&#45;&gt;Node4 -->
<g id="edge9" class="edge">
<title>Node8&#45;&gt;Node4</title>
<path fill="none" stroke="midnightblue" d="M1041.25,-112.37C1073.79,-93.33 1151.92,-47.62 1191.17,-24.65"/>
<polygon fill="midnightblue" stroke="midnightblue" points="1192.95,-27.66 1199.82,-19.59 1189.42,-21.62 1192.95,-27.66"/>
</g>
<!-- Node8&#45;&gt;Node6 -->
<g id="edge10" class="edge">
<title>Node8&#45;&gt;Node6</title>
<path fill="none" stroke="midnightblue" d="M1024.15,-112.37C1019.28,-94.54 1008.04,-53.3 1001.48,-29.27"/>
<polygon fill="midnightblue" stroke="midnightblue" points="1004.85,-28.32 998.84,-19.59 998.1,-30.16 1004.85,-28.32"/>
</g>
<!-- Node9&#45;&gt;Node10 -->
<g id="edge13" class="edge">
<title>Node9&#45;&gt;Node10</title>
<path fill="none" stroke="midnightblue" d="M401.91,-168.19C392.74,-154.39 373.24,-127.67 350.5,-112 324.06,-93.78 289.32,-81.86 263.85,-74.89"/>
<polygon fill="midnightblue" stroke="midnightblue" points="264.45,-71.43 253.89,-72.29 262.69,-78.21 264.45,-71.43"/>
</g>
<!-- Node9&#45;&gt;Node11 -->
<g id="edge14" class="edge">
<title>Node9&#45;&gt;Node11</title>
<path fill="none" stroke="midnightblue" d="M343.96,-175.34C257,-171.97 106.56,-161.88 61.5,-132 45.19,-121.19 34.97,-100.8 29.28,-85.73"/>
<polygon fill="midnightblue" stroke="midnightblue" points="32.47,-84.24 25.92,-75.91 25.85,-86.5 32.47,-84.24"/>
</g>
<!-- Node9&#45;&gt;Node12 -->
<g id="edge15" class="edge">
<title>Node9&#45;&gt;Node12</title>
<path fill="none" stroke="midnightblue" d="M437.67,-168.44C466.83,-160.11 512.47,-146.93 560.59,-132.23"/>
<polygon fill="midnightblue" stroke="midnightblue" points="561.71,-135.54 570.24,-129.26 559.65,-128.85 561.71,-135.54"/>
</g>
<!-- Node13 -->
<g id="node13" class="node">
<title>Node13</title>
<g id="a_node13"><a xlink:title=" ">
<polygon fill="white" stroke="#bfbfbf" points="277,-112.5 277,-131.5 342,-131.5 342,-112.5 277,-112.5"/>
<text text-anchor="middle" x="309.5" y="-119.5" font-family="Helvetica,sans-Serif" font-size="10.00">functional</text>
</a>
</g>
</g>
<!-- Node9&#45;&gt;Node13 -->
<g id="edge16" class="edge">
<title>Node9&#45;&gt;Node13</title>
<path fill="none" stroke="midnightblue" d="M391.75,-168.32C376.18,-159.74 352.12,-146.49 334.04,-136.52"/>
<polygon fill="midnightblue" stroke="midnightblue" points="335.65,-133.42 325.21,-131.65 332.28,-139.55 335.65,-133.42"/>
</g>
<!-- Node9&#45;&gt;Node14 -->
<g id="edge17" class="edge">
<title>Node9&#45;&gt;Node14</title>
<path fill="none" stroke="midnightblue" d="M427.94,-168.44C450.42,-159.03 486.57,-143.9 510.92,-133.71"/>
<polygon fill="midnightblue" stroke="midnightblue" points="512.37,-136.9 520.24,-129.81 509.66,-130.44 512.37,-136.9"/>
</g>
<!-- Node15 -->
<g id="node15" class="node">
<title>Node15</title>
<g id="a_node15"><a xlink:href="ThreadsafeQueue_8h.xhtml" target="_top" xlink:title="In this file, the header of the ThreadSafeQueue class is defined.">
<polygon fill="white" stroke="black" points="70.5,-112.5 70.5,-131.5 182.5,-131.5 182.5,-112.5 70.5,-112.5"/>
<text text-anchor="middle" x="126.5" y="-119.5" font-family="Helvetica,sans-Serif" font-size="10.00">ThreadsafeQueue.h</text>
</a>
</g>
</g>
<!-- Node9&#45;&gt;Node15 -->
<g id="edge18" class="edge">
<title>Node9&#45;&gt;Node15</title>
<path fill="none" stroke="midnightblue" d="M362.97,-168.44C313.54,-158.94 233.75,-143.61 180.72,-133.42"/>
<polygon fill="midnightblue" stroke="midnightblue" points="181.3,-129.97 170.82,-131.52 179.98,-136.84 181.3,-129.97"/>
</g>
<!-- Node17 -->
<g id="node17" class="node">
<title>Node17</title>
<g id="a_node17"><a xlink:href="Multithreaded_8tpp.xhtml" target="_top" xlink:title="In this file, the implementation of the Multithreaded class is defined.">
<polygon fill="white" stroke="black" points="398.5,-112.5 398.5,-131.5 502.5,-131.5 502.5,-112.5 398.5,-112.5"/>
<text text-anchor="middle" x="450.5" y="-119.5" font-family="Helvetica,sans-Serif" font-size="10.00">Multithreaded.tpp</text>
</a>
</g>
</g>
<!-- Node9&#45;&gt;Node17 -->
<g id="edge23" class="edge">
<title>Node9&#45;&gt;Node17</title>
<path fill="none" stroke="midnightblue" d="M414.6,-168.08C420.74,-160.38 429.77,-149.03 437.24,-139.65"/>
<polygon fill="midnightblue" stroke="midnightblue" points="440.04,-141.75 443.53,-131.75 434.56,-137.39 440.04,-141.75"/>
</g>
<!-- Node15&#45;&gt;Node10 -->
<g id="edge20" class="edge">
<title>Node15&#45;&gt;Node10</title>
<path fill="none" stroke="midnightblue" d="M143.05,-112.32C159.49,-103.7 184.93,-90.36 203.97,-80.39"/>
<polygon fill="midnightblue" stroke="midnightblue" points="205.76,-83.4 212.99,-75.65 202.51,-77.2 205.76,-83.4"/>
</g>
<!-- Node15&#45;&gt;Node11 -->
<g id="edge19" class="edge">
<title>Node15&#45;&gt;Node11</title>
<path fill="none" stroke="midnightblue" d="M109.95,-112.32C93.51,-103.7 68.07,-90.36 49.03,-80.39"/>
<polygon fill="midnightblue" stroke="midnightblue" points="50.49,-77.2 40.01,-75.65 47.24,-83.4 50.49,-77.2"/>
</g>
<!-- Node16 -->
<g id="node16" class="node">
<title>Node16</title>
<g id="a_node16"><a xlink:href="ThreadsafeQueue_8tpp.xhtml" target="_top" xlink:title="In this file, the implementation of the ThreadSafeQueue class is defined.">
<polygon fill="white" stroke="black" points="65.5,-56.5 65.5,-75.5 187.5,-75.5 187.5,-56.5 65.5,-56.5"/>
<text text-anchor="middle" x="126.5" y="-63.5" font-family="Helvetica,sans-Serif" font-size="10.00">ThreadsafeQueue.tpp</text>
</a>
</g>
</g>
<!-- Node15&#45;&gt;Node16 -->
<g id="edge21" class="edge">
<title>Node15&#45;&gt;Node16</title>
<path fill="none" stroke="midnightblue" d="M121.33,-112.08C119.82,-104.93 119.39,-94.64 120.04,-85.69"/>
<polygon fill="midnightblue" stroke="midnightblue" points="123.52,-86.13 121.37,-75.75 116.58,-85.2 123.52,-86.13"/>
</g>
<!-- Node16&#45;&gt;Node15 -->
<g id="edge22" class="edge">
<title>Node16&#45;&gt;Node15</title>
<path fill="none" stroke="midnightblue" d="M131.63,-75.75C133.16,-82.86 133.6,-93.14 132.97,-102.1"/>
<polygon fill="midnightblue" stroke="midnightblue" points="129.49,-101.71 131.67,-112.08 136.43,-102.62 129.49,-101.71"/>
</g>
<!-- Node18 -->
<g id="node18" class="node">
<title>Node18</title>
<g id="a_node18"><a xlink:title=" ">
<polygon fill="white" stroke="#bfbfbf" points="427.5,-56.5 427.5,-75.5 473.5,-75.5 473.5,-56.5 427.5,-56.5"/>
<text text-anchor="middle" x="450.5" y="-63.5" font-family="Helvetica,sans-Serif" font-size="10.00">future</text>
</a>
</g>
</g>
<!-- Node17&#45;&gt;Node18 -->
<g id="edge24" class="edge">
<title>Node17&#45;&gt;Node18</title>
<path fill="none" stroke="midnightblue" d="M450.5,-112.08C450.5,-105.01 450.5,-94.86 450.5,-85.99"/>
<polygon fill="midnightblue" stroke="midnightblue" points="454,-85.75 450.5,-75.75 447,-85.75 454,-85.75"/>
</g>
<!-- Node17&#45;&gt;Node19 -->
<g id="edge25" class="edge">
<title>Node17&#45;&gt;Node19</title>
<path fill="none" stroke="midnightblue" d="M432.83,-112.32C414.69,-103.42 386.29,-89.48 365.78,-79.41"/>
<polygon fill="midnightblue" stroke="midnightblue" points="367.21,-76.22 356.7,-74.95 364.13,-82.5 367.21,-76.22"/>
</g>
<!-- Node20&#45;&gt;Node4 -->
<g id="edge27" class="edge">
<title>Node20&#45;&gt;Node4</title>
<path fill="none" stroke="midnightblue" d="M814.53,-169.3C817.57,-168.85 820.57,-168.42 823.5,-168 947.28,-150.41 991.38,-189.31 1102.5,-132 1149.4,-107.81 1186.84,-55.71 1204.11,-28.44"/>
<polygon fill="midnightblue" stroke="midnightblue" points="1207.29,-29.97 1209.55,-19.62 1201.33,-26.3 1207.29,-29.97"/>
</g>
<!-- Node22&#45;&gt;Node4 -->
<g id="edge38" class="edge">
<title>Node22&#45;&gt;Node4</title>
<path fill="none" stroke="midnightblue" d="M1117.89,-230.11C1173.29,-225.35 1265.71,-213.7 1286.5,-188 1327.48,-137.36 1263.23,-60.27 1231.07,-27.1"/>
<polygon fill="midnightblue" stroke="midnightblue" points="1233.21,-24.28 1223.67,-19.65 1228.24,-29.21 1233.21,-24.28"/>
</g>
<!-- Node22&#45;&gt;Node5 -->
<g id="edge39" class="edge">
<title>Node22&#45;&gt;Node5</title>
<path fill="none" stroke="midnightblue" d="M1085.1,-224.29C1098.47,-211.09 1119.57,-185.71 1105.5,-168 1061.51,-112.62 1016.53,-157.34 950.5,-132 873.86,-102.58 791.03,-50.66 752.91,-25.49"/>
<polygon fill="midnightblue" stroke="midnightblue" points="754.48,-22.33 744.21,-19.69 750.6,-28.15 754.48,-22.33"/>
</g>
<!-- Node22&#45;&gt;Node6 -->
<g id="edge37" class="edge">
<title>Node22&#45;&gt;Node6</title>
<path fill="none" stroke="midnightblue" d="M1117.57,-229.37C1169.31,-223.94 1252.63,-211.69 1271.5,-188 1277.04,-181.05 1275.96,-175.69 1271.5,-168 1220.25,-79.73 1098.69,-36.91 1035.76,-20.05"/>
<polygon fill="midnightblue" stroke="midnightblue" points="1036.38,-16.6 1025.82,-17.47 1034.62,-23.37 1036.38,-16.6"/>
</g>
<!-- Node22&#45;&gt;Node7 -->
<g id="edge35" class="edge">
<title>Node22&#45;&gt;Node7</title>
<path fill="none" stroke="midnightblue" d="M1067.41,-224.08C1060.34,-216.3 1049.91,-204.8 1041.35,-195.37"/>
<polygon fill="midnightblue" stroke="midnightblue" points="1043.75,-192.8 1034.44,-187.75 1038.57,-197.51 1043.75,-192.8"/>
</g>
<!-- Node22&#45;&gt;Node12 -->
<g id="edge40" class="edge">
<title>Node22&#45;&gt;Node12</title>
<path fill="none" stroke="midnightblue" d="M1047.58,-224.49C1021.35,-216.19 981.18,-202.69 947.5,-188 930.01,-180.37 927.66,-173.86 909.5,-168 855.53,-150.59 687.21,-132.61 618.82,-125.82"/>
<polygon fill="midnightblue" stroke="midnightblue" points="619.03,-122.33 608.74,-124.83 618.35,-129.29 619.03,-122.33"/>
</g>
<!-- Node22&#45;&gt;Node21 -->
<g id="edge41" class="edge">
<title>Node22&#45;&gt;Node21</title>
<path fill="none" stroke="midnightblue" d="M1042.38,-224.44C1006.38,-215.14 948.73,-200.25 909.31,-190.06"/>
<polygon fill="midnightblue" stroke="midnightblue" points="910.02,-186.63 899.46,-187.52 908.27,-193.41 910.02,-186.63"/>
</g>
<!-- Node23 -->
<g id="node23" class="node">
<title>Node23</title>
<g id="a_node23"><a xlink:title=" ">
<polygon fill="white" stroke="#bfbfbf" points="1152.5,-168.5 1152.5,-187.5 1262.5,-187.5 1262.5,-168.5 1152.5,-168.5"/>
<text text-anchor="middle" x="1207.5" y="-175.5" font-family="Helvetica,sans-Serif" font-size="10.00">nlohmann/json.hpp</text>
</a>
</g>
</g>
<!-- Node22&#45;&gt;Node23 -->
<g id="edge36" class="edge">
<title>Node22&#45;&gt;Node23</title>
<path fill="none" stroke="midnightblue" d="M1096.42,-224.44C1118.24,-215.52 1152.65,-201.44 1177.39,-191.32"/>
<polygon fill="midnightblue" stroke="midnightblue" points="1178.75,-194.54 1186.68,-187.52 1176.1,-188.06 1178.75,-194.54"/>
</g>
</g>
</svg>
