<?xml version="1.0" encoding="UTF-8" standalone="no"?>
<!DOCTYPE svg PUBLIC "-//W3C//DTD SVG 1.1//EN"
 "http://www.w3.org/Graphics/SVG/1.1/DTD/svg11.dtd">
<!-- Generated by graphviz version 2.43.0 (0)
 -->
<!-- Title: src/utils/PythonScript.h Pages: 1 -->
<svg width="154pt" height="84pt"
 viewBox="0.00 0.00 153.50 84.00" xmlns="http://www.w3.org/2000/svg" xmlns:xlink="http://www.w3.org/1999/xlink">
<g id="graph0" class="graph" transform="scale(1 1) rotate(0) translate(4 80)">
<title>src/utils/PythonScript.h</title>
<polygon fill="white" stroke="transparent" points="-4,4 -4,-80 149.5,-80 149.5,4 -4,4"/>
<!-- Node1 -->
<g id="node1" class="node">
<title>Node1</title>
<g id="a_node1"><a xlink:title="In this file, the header of the PythonScript class is defined.">
<polygon fill="#bfbfbf" stroke="black" points="6.5,-56.5 6.5,-75.5 134.5,-75.5 134.5,-56.5 6.5,-56.5"/>
<text text-anchor="middle" x="70.5" y="-63.5" font-family="Helvetica,sans-Serif" font-size="10.00">src/utils/PythonScript.h</text>
</a>
</g>
</g>
<!-- Node2 -->
<g id="node2" class="node">
<title>Node2</title>
<g id="a_node2"><a xlink:title=" ">
<polygon fill="white" stroke="#bfbfbf" points="0,-0.5 0,-19.5 59,-19.5 59,-0.5 0,-0.5"/>
<text text-anchor="middle" x="29.5" y="-7.5" font-family="Helvetica,sans-Serif" font-size="10.00">Python.h</text>
</a>
</g>
</g>
<!-- Node1&#45;&gt;Node2 -->
<g id="edge1" class="edge">
<title>Node1&#45;&gt;Node2</title>
<path fill="none" stroke="midnightblue" d="M63.73,-56.08C57.94,-48.46 49.44,-37.26 42.36,-27.94"/>
<polygon fill="midnightblue" stroke="midnightblue" points="44.98,-25.6 36.14,-19.75 39.4,-29.83 44.98,-25.6"/>
</g>
<!-- Node3 -->
<g id="node3" class="node">
<title>Node3</title>
<g id="a_node3"><a xlink:title=" ">
<polygon fill="white" stroke="#bfbfbf" points="77.5,-0.5 77.5,-19.5 145.5,-19.5 145.5,-0.5 77.5,-0.5"/>
<text text-anchor="middle" x="111.5" y="-7.5" font-family="Helvetica,sans-Serif" font-size="10.00">filesystem</text>
</a>
</g>
</g>
<!-- Node1&#45;&gt;Node3 -->
<g id="edge2" class="edge">
<title>Node1&#45;&gt;Node3</title>
<path fill="none" stroke="midnightblue" d="M77.27,-56.08C83.06,-48.46 91.56,-37.26 98.64,-27.94"/>
<polygon fill="midnightblue" stroke="midnightblue" points="101.6,-29.83 104.86,-19.75 96.02,-25.6 101.6,-29.83"/>
</g>
</g>
</svg>
