<?xml version="1.0" encoding="UTF-8" standalone="no"?>
<!DOCTYPE svg PUBLIC "-//W3C//DTD SVG 1.1//EN"
 "http://www.w3.org/Graphics/SVG/1.1/DTD/svg11.dtd">
<!-- Generated by graphviz version 2.43.0 (0)
 -->
<!-- Title: /home/runner/work/Simopticon/Simopticon/src/utils/PythonScript.cpp Pages: 1 -->
<svg width="224pt" height="151pt"
 viewBox="0.00 0.00 223.50 151.00" xmlns="http://www.w3.org/2000/svg" xmlns:xlink="http://www.w3.org/1999/xlink">
<g id="graph0" class="graph" transform="scale(1 1) rotate(0) translate(4 147)">
<title>/home/runner/work/Simopticon/Simopticon/src/utils/PythonScript.cpp</title>
<polygon fill="white" stroke="transparent" points="-4,4 -4,-147 219.5,-147 219.5,4 -4,4"/>
<!-- Node1 -->
<g id="node1" class="node">
<title>Node1</title>
<g id="a_node1"><a xlink:title="In this file, the implementation of the PythonScript class is defined.">
<polygon fill="#bfbfbf" stroke="black" points="15.5,-112.5 15.5,-142.5 215.5,-142.5 215.5,-112.5 15.5,-112.5"/>
<text text-anchor="start" x="23.5" y="-130.5" font-family="Helvetica,sans-Serif" font-size="10.00">/home/runner/work/Simopticon</text>
<text text-anchor="middle" x="115.5" y="-119.5" font-family="Helvetica,sans-Serif" font-size="10.00">/Simopticon/src/utils/PythonScript.cpp</text>
</a>
</g>
</g>
<!-- Node2 -->
<g id="node2" class="node">
<title>Node2</title>
<g id="a_node2"><a xlink:href="PythonScript_8h.xhtml" target="_top" xlink:title="In this file, the header of the PythonScript class is defined.">
<polygon fill="white" stroke="black" points="0,-56.5 0,-75.5 87,-75.5 87,-56.5 0,-56.5"/>
<text text-anchor="middle" x="43.5" y="-63.5" font-family="Helvetica,sans-Serif" font-size="10.00">PythonScript.h</text>
</a>
</g>
</g>
<!-- Node1&#45;&gt;Node2 -->
<g id="edge1" class="edge">
<title>Node1&#45;&gt;Node2</title>
<path fill="none" stroke="midnightblue" d="M98.44,-112.4C87.44,-103.31 73.13,-91.49 61.88,-82.19"/>
<polygon fill="midnightblue" stroke="midnightblue" points="63.91,-79.33 53.98,-75.66 59.46,-84.73 63.91,-79.33"/>
</g>
<!-- Node4 -->
<g id="node4" class="node">
<title>Node4</title>
<g id="a_node4"><a xlink:title=" ">
<polygon fill="white" stroke="#bfbfbf" points="81.5,-0.5 81.5,-19.5 149.5,-19.5 149.5,-0.5 81.5,-0.5"/>
<text text-anchor="middle" x="115.5" y="-7.5" font-family="Helvetica,sans-Serif" font-size="10.00">filesystem</text>
</a>
</g>
</g>
<!-- Node1&#45;&gt;Node4 -->
<g id="edge5" class="edge">
<title>Node1&#45;&gt;Node4</title>
<path fill="none" stroke="midnightblue" d="M115.5,-112.34C115.5,-91.62 115.5,-53.02 115.5,-29.9"/>
<polygon fill="midnightblue" stroke="midnightblue" points="119,-29.67 115.5,-19.67 112,-29.67 119,-29.67"/>
</g>
<!-- Node5 -->
<g id="node5" class="node">
<title>Node5</title>
<g id="a_node5"><a xlink:title=" ">
<polygon fill="white" stroke="#bfbfbf" points="144,-56.5 144,-75.5 209,-75.5 209,-56.5 144,-56.5"/>
<text text-anchor="middle" x="176.5" y="-63.5" font-family="Helvetica,sans-Serif" font-size="10.00">stdexcept</text>
</a>
</g>
</g>
<!-- Node1&#45;&gt;Node5 -->
<g id="edge4" class="edge">
<title>Node1&#45;&gt;Node5</title>
<path fill="none" stroke="midnightblue" d="M129.96,-112.4C139.09,-103.49 150.92,-91.95 160.36,-82.74"/>
<polygon fill="midnightblue" stroke="midnightblue" points="162.91,-85.15 167.62,-75.66 158.02,-80.13 162.91,-85.15"/>
</g>
<!-- Node3 -->
<g id="node3" class="node">
<title>Node3</title>
<g id="a_node3"><a xlink:title=" ">
<polygon fill="white" stroke="#bfbfbf" points="4,-0.5 4,-19.5 63,-19.5 63,-0.5 4,-0.5"/>
<text text-anchor="middle" x="33.5" y="-7.5" font-family="Helvetica,sans-Serif" font-size="10.00">Python.h</text>
</a>
</g>
</g>
<!-- Node2&#45;&gt;Node3 -->
<g id="edge2" class="edge">
<title>Node2&#45;&gt;Node3</title>
<path fill="none" stroke="midnightblue" d="M41.85,-56.08C40.52,-48.93 38.62,-38.64 36.96,-29.69"/>
<polygon fill="midnightblue" stroke="midnightblue" points="40.38,-28.95 35.12,-19.75 33.5,-30.22 40.38,-28.95"/>
</g>
<!-- Node2&#45;&gt;Node4 -->
<g id="edge3" class="edge">
<title>Node2&#45;&gt;Node4</title>
<path fill="none" stroke="midnightblue" d="M55.07,-56.32C65.92,-48.18 82.38,-35.84 95.38,-26.09"/>
<polygon fill="midnightblue" stroke="midnightblue" points="97.82,-28.63 103.72,-19.83 93.62,-23.03 97.82,-28.63"/>
</g>
</g>
</svg>
