<?xml version="1.0" encoding="UTF-8" standalone="no"?>
<!DOCTYPE svg PUBLIC "-//W3C//DTD SVG 1.1//EN"
 "http://www.w3.org/Graphics/SVG/1.1/DTD/svg11.dtd">
<!-- Generated by graphviz version 2.43.0 (0)
 -->
<!-- Title: src/utils/PythonScript.h Pages: 1 -->
<svg width="416pt" height="162pt"
 viewBox="0.00 0.00 415.50 162.00" xmlns="http://www.w3.org/2000/svg" xmlns:xlink="http://www.w3.org/1999/xlink">
<g id="graph0" class="graph" transform="scale(1 1) rotate(0) translate(4 158)">
<title>src/utils/PythonScript.h</title>
<polygon fill="white" stroke="transparent" points="-4,4 -4,-158 411.5,-158 411.5,4 -4,4"/>
<!-- Node1 -->
<g id="node1" class="node">
<title>Node1</title>
<g id="a_node1"><a xlink:title="In this file, the header of the PythonScript class is defined.">
<polygon fill="#bfbfbf" stroke="black" points="187.5,-134.5 187.5,-153.5 315.5,-153.5 315.5,-134.5 187.5,-134.5"/>
<text text-anchor="middle" x="251.5" y="-141.5" font-family="Helvetica,sans-Serif" font-size="10.00">src/utils/PythonScript.h</text>
</a>
</g>
</g>
<!-- Node2 -->
<g id="node2" class="node">
<title>Node2</title>
<g id="a_node2"><a xlink:href="ConstantHeadway_8h.xhtml" target="_top" xlink:title="In this file, the header of the ConstantHeadway class is defined.">
<polygon fill="white" stroke="black" points="83.5,-67.5 83.5,-97.5 249.5,-97.5 249.5,-67.5 83.5,-67.5"/>
<text text-anchor="start" x="91.5" y="-85.5" font-family="Helvetica,sans-Serif" font-size="10.00">src/evaluation/constant</text>
<text text-anchor="middle" x="166.5" y="-74.5" font-family="Helvetica,sans-Serif" font-size="10.00">_headway/ConstantHeadway.h</text>
</a>
</g>
</g>
<!-- Node1&#45;&gt;Node2 -->
<g id="edge1" class="edge">
<title>Node1&#45;&gt;Node2</title>
<path fill="none" stroke="midnightblue" d="M231.13,-128.74C217.62,-119.28 199.97,-106.93 186.53,-97.52"/>
<polygon fill="midnightblue" stroke="midnightblue" points="229.12,-131.61 239.32,-134.48 233.14,-125.87 229.12,-131.61"/>
</g>
<!-- Node5 -->
<g id="node5" class="node">
<title>Node5</title>
<g id="a_node5"><a xlink:href="PythonScript_8cpp.xhtml" target="_top" xlink:title="In this file, the implementation of the PythonScript class is defined.">
<polygon fill="white" stroke="black" points="267.5,-73 267.5,-92 407.5,-92 407.5,-73 267.5,-73"/>
<text text-anchor="middle" x="337.5" y="-80" font-family="Helvetica,sans-Serif" font-size="10.00">src/utils/PythonScript.cpp</text>
</a>
</g>
</g>
<!-- Node1&#45;&gt;Node5 -->
<g id="edge4" class="edge">
<title>Node1&#45;&gt;Node5</title>
<path fill="none" stroke="midnightblue" d="M272.3,-128.61C288.84,-117.17 311.42,-101.55 325.2,-92.01"/>
<polygon fill="midnightblue" stroke="midnightblue" points="270.05,-125.91 263.82,-134.48 274.04,-131.66 270.05,-125.91"/>
</g>
<!-- Node3 -->
<g id="node3" class="node">
<title>Node3</title>
<g id="a_node3"><a xlink:href="Controller_8cpp.xhtml" target="_top" xlink:title="In this file, the implementation of the Controller class is defined.">
<polygon fill="white" stroke="black" points="0,-6 0,-25 151,-25 151,-6 0,-6"/>
<text text-anchor="middle" x="75.5" y="-13" font-family="Helvetica,sans-Serif" font-size="10.00">src/controller/Controller.cpp</text>
</a>
</g>
</g>
<!-- Node2&#45;&gt;Node3 -->
<g id="edge2" class="edge">
<title>Node2&#45;&gt;Node3</title>
<path fill="none" stroke="midnightblue" d="M138.23,-61.31C121.14,-49.1 100.25,-34.18 87.41,-25.01"/>
<polygon fill="midnightblue" stroke="midnightblue" points="136.58,-64.43 146.75,-67.4 140.65,-58.74 136.58,-64.43"/>
</g>
<!-- Node4 -->
<g id="node4" class="node">
<title>Node4</title>
<g id="a_node4"><a xlink:href="ConstantHeadway_8cpp.xhtml" target="_top" xlink:title="In this file, the implementation of the ConstantHeadway class is defined.">
<polygon fill="white" stroke="black" points="169,-0.5 169,-30.5 346,-30.5 346,-0.5 169,-0.5"/>
<text text-anchor="start" x="177" y="-18.5" font-family="Helvetica,sans-Serif" font-size="10.00">src/evaluation/constant</text>
<text text-anchor="middle" x="257.5" y="-7.5" font-family="Helvetica,sans-Serif" font-size="10.00">_headway/ConstantHeadway.cpp</text>
</a>
</g>
</g>
<!-- Node2&#45;&gt;Node4 -->
<g id="edge3" class="edge">
<title>Node2&#45;&gt;Node4</title>
<path fill="none" stroke="midnightblue" d="M194.57,-61.45C208.57,-51.45 225.16,-39.6 237.79,-30.58"/>
<polygon fill="midnightblue" stroke="midnightblue" points="192.35,-58.74 186.25,-67.4 196.42,-64.43 192.35,-58.74"/>
</g>
</g>
</svg>
