<?xml version="1.0" encoding="UTF-8" standalone="no"?>
<!DOCTYPE svg PUBLIC "-//W3C//DTD SVG 1.1//EN"
 "http://www.w3.org/Graphics/SVG/1.1/DTD/svg11.dtd">
<!-- Generated by graphviz version 2.43.0 (0)
 -->
<!-- Title: /home/runner/work/Simopticon/Simopticon/src/utils/PythonScript.h Pages: 1 -->
<svg width="549pt" height="195pt"
 viewBox="0.00 0.00 549.00 195.00" xmlns="http://www.w3.org/2000/svg" xmlns:xlink="http://www.w3.org/1999/xlink">
<g id="graph0" class="graph" transform="scale(1 1) rotate(0) translate(4 191)">
<title>/home/runner/work/Simopticon/Simopticon/src/utils/PythonScript.h</title>
<polygon fill="white" stroke="transparent" points="-4,4 -4,-191 545,-191 545,4 -4,4"/>
<!-- Node1 -->
<g id="node1" class="node">
<title>Node1</title>
<g id="a_node1"><a xlink:title="In this file, the header of the PythonScript class is defined.">
<polygon fill="#bfbfbf" stroke="black" points="234.5,-156.5 234.5,-186.5 423.5,-186.5 423.5,-156.5 234.5,-156.5"/>
<text text-anchor="start" x="242.5" y="-174.5" font-family="Helvetica,sans-Serif" font-size="10.00">/home/runner/work/Simopticon</text>
<text text-anchor="middle" x="329" y="-163.5" font-family="Helvetica,sans-Serif" font-size="10.00">/Simopticon/src/utils/PythonScript.h</text>
</a>
</g>
</g>
<!-- Node2 -->
<g id="node2" class="node">
<title>Node2</title>
<g id="a_node2"><a xlink:href="ConstantHeadway_8h.xhtml" target="_top" xlink:title="In this file, the header of the ConstantHeadway class is defined.">
<polygon fill="white" stroke="black" points="111.5,-78.5 111.5,-119.5 322.5,-119.5 322.5,-78.5 111.5,-78.5"/>
<text text-anchor="start" x="119.5" y="-107.5" font-family="Helvetica,sans-Serif" font-size="10.00">/home/runner/work/Simopticon</text>
<text text-anchor="start" x="119.5" y="-96.5" font-family="Helvetica,sans-Serif" font-size="10.00">/Simopticon/src/evaluation</text>
<text text-anchor="middle" x="217" y="-85.5" font-family="Helvetica,sans-Serif" font-size="10.00">/constant_headway/ConstantHeadway.h</text>
</a>
</g>
</g>
<!-- Node1&#45;&gt;Node2 -->
<g id="edge1" class="edge">
<title>Node1&#45;&gt;Node2</title>
<path fill="none" stroke="midnightblue" d="M297.91,-150.93C282.43,-141.19 263.77,-129.44 248.26,-119.68"/>
<polygon fill="midnightblue" stroke="midnightblue" points="296.28,-154.04 306.6,-156.4 300.01,-148.11 296.28,-154.04"/>
</g>
<!-- Node5 -->
<g id="node5" class="node">
<title>Node5</title>
<g id="a_node5"><a xlink:href="PythonScript_8cpp.xhtml" target="_top" xlink:title="In this file, the implementation of the PythonScript class is defined.">
<polygon fill="white" stroke="black" points="341,-84 341,-114 541,-114 541,-84 341,-84"/>
<text text-anchor="start" x="349" y="-102" font-family="Helvetica,sans-Serif" font-size="10.00">/home/runner/work/Simopticon</text>
<text text-anchor="middle" x="441" y="-91" font-family="Helvetica,sans-Serif" font-size="10.00">/Simopticon/src/utils/PythonScript.cpp</text>
</a>
</g>
</g>
<!-- Node1&#45;&gt;Node5 -->
<g id="edge4" class="edge">
<title>Node1&#45;&gt;Node5</title>
<path fill="none" stroke="midnightblue" d="M360.1,-150.92C378.69,-139.22 401.87,-124.63 418.64,-114.07"/>
<polygon fill="midnightblue" stroke="midnightblue" points="357.99,-148.11 351.4,-156.4 361.72,-154.04 357.99,-148.11"/>
</g>
<!-- Node3 -->
<g id="node3" class="node">
<title>Node3</title>
<g id="a_node3"><a xlink:href="ConstantHeadway_8cpp.xhtml" target="_top" xlink:title="In this file, the implementation of the ConstantHeadway class is defined.">
<polygon fill="white" stroke="black" points="0,-0.5 0,-41.5 222,-41.5 222,-0.5 0,-0.5"/>
<text text-anchor="start" x="8" y="-29.5" font-family="Helvetica,sans-Serif" font-size="10.00">/home/runner/work/Simopticon</text>
<text text-anchor="start" x="8" y="-18.5" font-family="Helvetica,sans-Serif" font-size="10.00">/Simopticon/src/evaluation</text>
<text text-anchor="middle" x="111" y="-7.5" font-family="Helvetica,sans-Serif" font-size="10.00">/constant_headway/ConstantHeadway.cpp</text>
</a>
</g>
</g>
<!-- Node2&#45;&gt;Node3 -->
<g id="edge2" class="edge">
<title>Node2&#45;&gt;Node3</title>
<path fill="none" stroke="midnightblue" d="M181.23,-72.35C167.17,-62.27 151.3,-50.89 138.21,-41.51"/>
<polygon fill="midnightblue" stroke="midnightblue" points="179.54,-75.45 189.7,-78.43 183.61,-69.76 179.54,-75.45"/>
</g>
<!-- Node4 -->
<g id="node4" class="node">
<title>Node4</title>
<g id="a_node4"><a xlink:href="Controller_8cpp.xhtml" target="_top" xlink:title="In this file, the implementation of the Controller class is defined.">
<polygon fill="white" stroke="black" points="240.5,-0.5 240.5,-41.5 407.5,-41.5 407.5,-0.5 240.5,-0.5"/>
<text text-anchor="start" x="248.5" y="-29.5" font-family="Helvetica,sans-Serif" font-size="10.00">/home/runner/work/Simopticon</text>
<text text-anchor="start" x="248.5" y="-18.5" font-family="Helvetica,sans-Serif" font-size="10.00">/Simopticon/src/controller</text>
<text text-anchor="middle" x="324" y="-7.5" font-family="Helvetica,sans-Serif" font-size="10.00">/Controller.cpp</text>
</a>
</g>
</g>
<!-- Node2&#45;&gt;Node4 -->
<g id="edge3" class="edge">
<title>Node2&#45;&gt;Node4</title>
<path fill="none" stroke="midnightblue" d="M252.71,-72.64C267,-62.49 283.2,-50.98 296.54,-41.51"/>
<polygon fill="midnightblue" stroke="midnightblue" points="250.68,-69.78 244.56,-78.43 254.73,-75.49 250.68,-69.78"/>
</g>
</g>
</svg>
