<?xml version="1.0" encoding="UTF-8" standalone="no"?>
<!DOCTYPE svg PUBLIC "-//W3C//DTD SVG 1.1//EN"
 "http://www.w3.org/Graphics/SVG/1.1/DTD/svg11.dtd">
<!-- Generated by graphviz version 2.43.0 (0)
 -->
<!-- Title: /home/runner/work/Simopticon/Simopticon/src/optimizer/randomneighbors/RandomNeighbors.h Pages: 1 -->
<svg width="1074pt" height="274pt"
 viewBox="0.00 0.00 1074.00 274.00" xmlns="http://www.w3.org/2000/svg" xmlns:xlink="http://www.w3.org/1999/xlink">
<g id="graph0" class="graph" transform="scale(1 1) rotate(0) translate(4 270)">
<title>/home/runner/work/Simopticon/Simopticon/src/optimizer/randomneighbors/RandomNeighbors.h</title>
<polygon fill="white" stroke="transparent" points="-4,4 -4,-270 1070,-270 1070,4 -4,4"/>
<!-- Node1 -->
<g id="node1" class="node">
<title>Node1</title>
<g id="a_node1"><a xlink:title="In this file, the header of the RandomNeighbors optimizer class is defined.">
<polygon fill="#bfbfbf" stroke="black" points="738.5,-224.5 738.5,-265.5 945.5,-265.5 945.5,-224.5 738.5,-224.5"/>
<text text-anchor="start" x="746.5" y="-253.5" font-family="Helvetica,sans-Serif" font-size="10.00">/home/runner/work/Simopticon</text>
<text text-anchor="start" x="746.5" y="-242.5" font-family="Helvetica,sans-Serif" font-size="10.00">/Simopticon/src/optimizer</text>
<text text-anchor="middle" x="842" y="-231.5" font-family="Helvetica,sans-Serif" font-size="10.00">/randomneighbors/RandomNeighbors.h</text>
</a>
</g>
</g>
<!-- Node2 -->
<g id="node2" class="node">
<title>Node2</title>
<g id="a_node2"><a xlink:href="Optimizer_8h.xhtml" target="_top" xlink:title="In this file, the header of the Optimizer class is defined.">
<polygon fill="white" stroke="black" points="237,-168.5 237,-187.5 319,-187.5 319,-168.5 237,-168.5"/>
<text text-anchor="middle" x="278" y="-175.5" font-family="Helvetica,sans-Serif" font-size="10.00">../Optimizer.h</text>
</a>
</g>
</g>
<!-- Node1&#45;&gt;Node2 -->
<g id="edge1" class="edge">
<title>Node1&#45;&gt;Node2</title>
<path fill="none" stroke="midnightblue" d="M738.23,-232.04C617.07,-218.08 421.53,-195.54 329.29,-184.91"/>
<polygon fill="midnightblue" stroke="midnightblue" points="329.43,-181.4 319.1,-183.74 328.63,-188.36 329.43,-181.4"/>
</g>
<!-- Node6 -->
<g id="node6" class="node">
<title>Node6</title>
<g id="a_node6"><a xlink:title=" ">
<polygon fill="white" stroke="#bfbfbf" points="535,-0.5 535,-19.5 593,-19.5 593,-0.5 535,-0.5"/>
<text text-anchor="middle" x="564" y="-7.5" font-family="Helvetica,sans-Serif" font-size="10.00">memory</text>
</a>
</g>
</g>
<!-- Node1&#45;&gt;Node6 -->
<g id="edge24" class="edge">
<title>Node1&#45;&gt;Node6</title>
<path fill="none" stroke="midnightblue" d="M858.13,-224.3C878.56,-196.82 908.24,-146.46 883,-112 849.37,-66.08 680.32,-31.28 602.87,-17.48"/>
<polygon fill="midnightblue" stroke="midnightblue" points="603.47,-14.04 593.01,-15.75 602.26,-20.93 603.47,-14.04"/>
</g>
<!-- Node12 -->
<g id="node12" class="node">
<title>Node12</title>
<g id="a_node12"><a xlink:href="StoppingCondition_8h.xhtml" target="_top" xlink:title="In this file, the header of the StoppingCondition class is defined.">
<polygon fill="white" stroke="black" points="721,-168.5 721,-187.5 845,-187.5 845,-168.5 721,-168.5"/>
<text text-anchor="middle" x="783" y="-175.5" font-family="Helvetica,sans-Serif" font-size="10.00">../StoppingCondition.h</text>
</a>
</g>
</g>
<!-- Node1&#45;&gt;Node12 -->
<g id="edge16" class="edge">
<title>Node1&#45;&gt;Node12</title>
<path fill="none" stroke="midnightblue" d="M824.3,-224.5C815.77,-215.11 805.68,-203.98 797.6,-195.08"/>
<polygon fill="midnightblue" stroke="midnightblue" points="800.17,-192.7 790.85,-187.65 794.98,-197.41 800.17,-192.7"/>
</g>
<!-- Node13 -->
<g id="node13" class="node">
<title>Node13</title>
<g id="a_node13"><a xlink:title=" ">
<polygon fill="white" stroke="#bfbfbf" points="592,-112.5 592,-131.5 702,-131.5 702,-112.5 592,-112.5"/>
<text text-anchor="middle" x="647" y="-119.5" font-family="Helvetica,sans-Serif" font-size="10.00">nlohmann/json.hpp</text>
</a>
</g>
</g>
<!-- Node1&#45;&gt;Node13 -->
<g id="edge21" class="edge">
<title>Node1&#45;&gt;Node13</title>
<path fill="none" stroke="midnightblue" d="M783.91,-224.43C760.53,-215.19 733.96,-202.9 712,-188 691.88,-174.35 672.68,-153.92 660.44,-139.62"/>
<polygon fill="midnightblue" stroke="midnightblue" points="662.86,-137.06 653.77,-131.62 657.48,-141.54 662.86,-137.06"/>
</g>
<!-- Node16 -->
<g id="node16" class="node">
<title>Node16</title>
<g id="a_node16"><a xlink:title=" ">
<polygon fill="white" stroke="#bfbfbf" points="930,-168.5 930,-187.5 962,-187.5 962,-168.5 930,-168.5"/>
<text text-anchor="middle" x="946" y="-175.5" font-family="Helvetica,sans-Serif" font-size="10.00">set</text>
</a>
</g>
</g>
<!-- Node1&#45;&gt;Node16 -->
<g id="edge22" class="edge">
<title>Node1&#45;&gt;Node16</title>
<path fill="none" stroke="midnightblue" d="M873.2,-224.5C889.3,-214.44 908.58,-202.38 923.26,-193.21"/>
<polygon fill="midnightblue" stroke="midnightblue" points="925.53,-195.92 932.16,-187.65 921.82,-189.98 925.53,-195.92"/>
</g>
<!-- Node17 -->
<g id="node17" class="node">
<title>Node17</title>
<g id="a_node17"><a xlink:title=" ">
<polygon fill="white" stroke="#bfbfbf" points="980,-168.5 980,-187.5 1066,-187.5 1066,-168.5 980,-168.5"/>
<text text-anchor="middle" x="1023" y="-175.5" font-family="Helvetica,sans-Serif" font-size="10.00">unordered_set</text>
</a>
</g>
</g>
<!-- Node1&#45;&gt;Node17 -->
<g id="edge23" class="edge">
<title>Node1&#45;&gt;Node17</title>
<path fill="none" stroke="midnightblue" d="M896.31,-224.5C926.59,-213.62 963.35,-200.42 989.46,-191.05"/>
<polygon fill="midnightblue" stroke="midnightblue" points="990.68,-194.33 998.91,-187.65 988.31,-187.74 990.68,-194.33"/>
</g>
<!-- Node3 -->
<g id="node3" class="node">
<title>Node3</title>
<g id="a_node3"><a xlink:href="Types_8h.xhtml" target="_top" xlink:title="In this file, types are defined which should be used across the whole framework.">
<polygon fill="white" stroke="black" points="339,-56.5 339,-75.5 401,-75.5 401,-56.5 339,-56.5"/>
<text text-anchor="middle" x="370" y="-63.5" font-family="Helvetica,sans-Serif" font-size="10.00">../Types.h</text>
</a>
</g>
</g>
<!-- Node2&#45;&gt;Node3 -->
<g id="edge2" class="edge">
<title>Node2&#45;&gt;Node3</title>
<path fill="none" stroke="midnightblue" d="M319.1,-170.42C341.77,-164.47 368.07,-153.21 382,-132 391.23,-117.95 385.97,-98.71 379.78,-84.8"/>
<polygon fill="midnightblue" stroke="midnightblue" points="382.88,-83.18 375.3,-75.78 376.61,-86.29 382.88,-83.18"/>
</g>
<!-- Node5 -->
<g id="node5" class="node">
<title>Node5</title>
<g id="a_node5"><a xlink:title=" ">
<polygon fill="white" stroke="#bfbfbf" points="141.5,-0.5 141.5,-19.5 188.5,-19.5 188.5,-0.5 141.5,-0.5"/>
<text text-anchor="middle" x="165" y="-7.5" font-family="Helvetica,sans-Serif" font-size="10.00">vector</text>
</a>
</g>
</g>
<!-- Node2&#45;&gt;Node5 -->
<g id="edge13" class="edge">
<title>Node2&#45;&gt;Node5</title>
<path fill="none" stroke="midnightblue" d="M236.77,-168.58C213.33,-162 184.79,-150.72 165,-132 139.06,-107.47 129.75,-90.48 139,-56 141.65,-46.1 147.07,-36.13 152.27,-28.1"/>
<polygon fill="midnightblue" stroke="midnightblue" points="155.29,-29.89 158.11,-19.68 149.54,-25.91 155.29,-29.89"/>
</g>
<!-- Node2&#45;&gt;Node6 -->
<g id="edge15" class="edge">
<title>Node2&#45;&gt;Node6</title>
<path fill="none" stroke="midnightblue" d="M319.27,-175.75C386.22,-172.83 514.14,-163.21 545,-132 571.82,-104.88 570.38,-56.36 567.12,-29.74"/>
<polygon fill="midnightblue" stroke="midnightblue" points="570.58,-29.2 565.69,-19.8 563.65,-30.2 570.58,-29.2"/>
</g>
<!-- Node7 -->
<g id="node7" class="node">
<title>Node7</title>
<g id="a_node7"><a xlink:href="ParameterDefinition_8h.xhtml" target="_top" xlink:title="In this file, the header of the ParameterDefinition class is defined.">
<polygon fill="white" stroke="black" points="182.5,-112.5 182.5,-131.5 373.5,-131.5 373.5,-112.5 182.5,-112.5"/>
<text text-anchor="middle" x="278" y="-119.5" font-family="Helvetica,sans-Serif" font-size="10.00">../parameters/ParameterDefinition.h</text>
</a>
</g>
</g>
<!-- Node2&#45;&gt;Node7 -->
<g id="edge6" class="edge">
<title>Node2&#45;&gt;Node7</title>
<path fill="none" stroke="midnightblue" d="M278,-168.08C278,-161.01 278,-150.86 278,-141.99"/>
<polygon fill="midnightblue" stroke="midnightblue" points="281.5,-141.75 278,-131.75 274.5,-141.75 281.5,-141.75"/>
</g>
<!-- Node8 -->
<g id="node8" class="node">
<title>Node8</title>
<g id="a_node8"><a xlink:href="Status_8h.xhtml" target="_top" xlink:title="In this file, the header of the Status class is defined.">
<polygon fill="white" stroke="black" points="148,-56.5 148,-75.5 246,-75.5 246,-56.5 148,-56.5"/>
<text text-anchor="middle" x="197" y="-63.5" font-family="Helvetica,sans-Serif" font-size="10.00">../status/Status.h</text>
</a>
</g>
</g>
<!-- Node2&#45;&gt;Node8 -->
<g id="edge9" class="edge">
<title>Node2&#45;&gt;Node8</title>
<path fill="none" stroke="midnightblue" d="M236.78,-170.6C213.84,-164.71 187.14,-153.44 173,-132 163.11,-117.01 172.92,-97.39 182.81,-83.65"/>
<polygon fill="midnightblue" stroke="midnightblue" points="185.73,-85.61 189.12,-75.57 180.21,-81.3 185.73,-85.61"/>
</g>
<!-- Node9 -->
<g id="node9" class="node">
<title>Node9</title>
<g id="a_node9"><a xlink:href="Abortable_8h.xhtml" target="_top" xlink:title="In this file, the header of the Abortable class is defined.">
<polygon fill="white" stroke="black" points="430,-112.5 430,-131.5 536,-131.5 536,-112.5 430,-112.5"/>
<text text-anchor="middle" x="483" y="-119.5" font-family="Helvetica,sans-Serif" font-size="10.00">../utils/Abortable.h</text>
</a>
</g>
</g>
<!-- Node2&#45;&gt;Node9 -->
<g id="edge11" class="edge">
<title>Node2&#45;&gt;Node9</title>
<path fill="none" stroke="midnightblue" d="M310.48,-168.44C345.72,-159.16 402.1,-144.31 440.76,-134.13"/>
<polygon fill="midnightblue" stroke="midnightblue" points="441.89,-137.45 450.67,-131.52 440.11,-130.68 441.89,-137.45"/>
</g>
<!-- Node10 -->
<g id="node10" class="node">
<title>Node10</title>
<g id="a_node10"><a xlink:title=" ">
<polygon fill="white" stroke="#bfbfbf" points="0,-112.5 0,-131.5 32,-131.5 32,-112.5 0,-112.5"/>
<text text-anchor="middle" x="16" y="-119.5" font-family="Helvetica,sans-Serif" font-size="10.00">list</text>
</a>
</g>
</g>
<!-- Node2&#45;&gt;Node10 -->
<g id="edge12" class="edge">
<title>Node2&#45;&gt;Node10</title>
<path fill="none" stroke="midnightblue" d="M236.87,-171.21C191.3,-164.35 115.54,-151.63 41.92,-131.89"/>
<polygon fill="midnightblue" stroke="midnightblue" points="42.59,-128.44 32.02,-129.19 40.74,-135.2 42.59,-128.44"/>
</g>
<!-- Node11 -->
<g id="node11" class="node">
<title>Node11</title>
<g id="a_node11"><a xlink:title=" ">
<polygon fill="white" stroke="#bfbfbf" points="50,-112.5 50,-131.5 88,-131.5 88,-112.5 50,-112.5"/>
<text text-anchor="middle" x="69" y="-119.5" font-family="Helvetica,sans-Serif" font-size="10.00">map</text>
</a>
</g>
</g>
<!-- Node2&#45;&gt;Node11 -->
<g id="edge14" class="edge">
<title>Node2&#45;&gt;Node11</title>
<path fill="none" stroke="midnightblue" d="M243.89,-168.45C208.4,-159.51 151.25,-145.01 102,-132 100.74,-131.67 99.45,-131.33 98.16,-130.98"/>
<polygon fill="midnightblue" stroke="midnightblue" points="98.75,-127.51 88.18,-128.29 96.92,-134.27 98.75,-127.51"/>
</g>
<!-- Node4 -->
<g id="node4" class="node">
<title>Node4</title>
<g id="a_node4"><a xlink:title=" ">
<polygon fill="white" stroke="#bfbfbf" points="256,-0.5 256,-19.5 300,-19.5 300,-0.5 256,-0.5"/>
<text text-anchor="middle" x="278" y="-7.5" font-family="Helvetica,sans-Serif" font-size="10.00">string</text>
</a>
</g>
</g>
<!-- Node3&#45;&gt;Node4 -->
<g id="edge3" class="edge">
<title>Node3&#45;&gt;Node4</title>
<path fill="none" stroke="midnightblue" d="M355.22,-56.32C340.73,-47.82 318.43,-34.73 301.51,-24.8"/>
<polygon fill="midnightblue" stroke="midnightblue" points="303.14,-21.7 292.74,-19.65 299.6,-27.74 303.14,-21.7"/>
</g>
<!-- Node3&#45;&gt;Node5 -->
<g id="edge4" class="edge">
<title>Node3&#45;&gt;Node5</title>
<path fill="none" stroke="midnightblue" d="M338.86,-56.8C301.03,-46.83 237.43,-30.08 198.54,-19.83"/>
<polygon fill="midnightblue" stroke="midnightblue" points="199.3,-16.42 188.74,-17.25 197.52,-23.19 199.3,-16.42"/>
</g>
<!-- Node3&#45;&gt;Node6 -->
<g id="edge5" class="edge">
<title>Node3&#45;&gt;Node6</title>
<path fill="none" stroke="midnightblue" d="M400.74,-56.44C434.43,-47.07 488.56,-32 525.16,-21.81"/>
<polygon fill="midnightblue" stroke="midnightblue" points="526.29,-25.13 534.99,-19.08 524.42,-18.39 526.29,-25.13"/>
</g>
<!-- Node7&#45;&gt;Node3 -->
<g id="edge7" class="edge">
<title>Node7&#45;&gt;Node3</title>
<path fill="none" stroke="midnightblue" d="M292.78,-112.32C307.27,-103.82 329.57,-90.73 346.49,-80.8"/>
<polygon fill="midnightblue" stroke="midnightblue" points="348.4,-83.74 355.26,-75.65 344.86,-77.7 348.4,-83.74"/>
</g>
<!-- Node7&#45;&gt;Node4 -->
<g id="edge8" class="edge">
<title>Node7&#45;&gt;Node4</title>
<path fill="none" stroke="midnightblue" d="M278,-112.37C278,-94.62 278,-53.67 278,-29.6"/>
<polygon fill="midnightblue" stroke="midnightblue" points="281.5,-29.59 278,-19.59 274.5,-29.59 281.5,-29.59"/>
</g>
<!-- Node8&#45;&gt;Node4 -->
<g id="edge10" class="edge">
<title>Node8&#45;&gt;Node4</title>
<path fill="none" stroke="midnightblue" d="M210.01,-56.32C222.53,-47.98 241.68,-35.21 256.47,-25.35"/>
<polygon fill="midnightblue" stroke="midnightblue" points="258.64,-28.11 265.02,-19.65 254.76,-22.29 258.64,-28.11"/>
</g>
<!-- Node12&#45;&gt;Node3 -->
<g id="edge17" class="edge">
<title>Node12&#45;&gt;Node3</title>
<path fill="none" stroke="midnightblue" d="M776.54,-168.49C765.1,-154.11 739.74,-125.28 711,-112 658.47,-87.73 490.05,-74.42 411.31,-69.38"/>
<polygon fill="midnightblue" stroke="midnightblue" points="411.46,-65.88 401.26,-68.75 411.02,-72.87 411.46,-65.88"/>
</g>
<!-- Node12&#45;&gt;Node13 -->
<g id="edge18" class="edge">
<title>Node12&#45;&gt;Node13</title>
<path fill="none" stroke="midnightblue" d="M761.45,-168.44C738.97,-159.52 703.51,-145.44 678.02,-135.32"/>
<polygon fill="midnightblue" stroke="midnightblue" points="679.03,-131.95 668.45,-131.52 676.45,-138.46 679.03,-131.95"/>
</g>
<!-- Node14 -->
<g id="node14" class="node">
<title>Node14</title>
<g id="a_node14"><a xlink:title=" ">
<polygon fill="white" stroke="#bfbfbf" points="758,-112.5 758,-131.5 808,-131.5 808,-112.5 758,-112.5"/>
<text text-anchor="middle" x="783" y="-119.5" font-family="Helvetica,sans-Serif" font-size="10.00">chrono</text>
</a>
</g>
</g>
<!-- Node12&#45;&gt;Node14 -->
<g id="edge19" class="edge">
<title>Node12&#45;&gt;Node14</title>
<path fill="none" stroke="midnightblue" d="M783,-168.08C783,-161.01 783,-150.86 783,-141.99"/>
<polygon fill="midnightblue" stroke="midnightblue" points="786.5,-141.75 783,-131.75 779.5,-141.75 786.5,-141.75"/>
</g>
<!-- Node15 -->
<g id="node15" class="node">
<title>Node15</title>
<g id="a_node15"><a xlink:title=" ">
<polygon fill="white" stroke="#bfbfbf" points="826.5,-112.5 826.5,-131.5 873.5,-131.5 873.5,-112.5 826.5,-112.5"/>
<text text-anchor="middle" x="850" y="-119.5" font-family="Helvetica,sans-Serif" font-size="10.00">cmath</text>
</a>
</g>
</g>
<!-- Node12&#45;&gt;Node15 -->
<g id="edge20" class="edge">
<title>Node12&#45;&gt;Node15</title>
<path fill="none" stroke="midnightblue" d="M793.76,-168.32C803.77,-160.26 818.89,-148.08 830.93,-138.37"/>
<polygon fill="midnightblue" stroke="midnightblue" points="833.45,-140.83 839.04,-131.83 829.06,-135.38 833.45,-140.83"/>
</g>
</g>
</svg>
