<?xml version="1.0" encoding="UTF-8" standalone="no"?>
<!DOCTYPE svg PUBLIC "-//W3C//DTD SVG 1.1//EN"
 "http://www.w3.org/Graphics/SVG/1.1/DTD/svg11.dtd">
<!-- Generated by graphviz version 2.43.0 (0)
 -->
<!-- Title: src/runner/SimulationRunner.cpp Pages: 1 -->
<!--zoomable 308 -->
<svg id="main" version="1.1" xmlns="http://www.w3.org/2000/svg" xmlns:xlink="http://www.w3.org/1999/xlink" xml:space="preserve" onload="init(evt)">
<style type="text/css"><![CDATA[
.edge:hover path { stroke: red; }
.edge:hover polygon { stroke: red; fill: red; }
]]></style>
<script type="text/javascript"><![CDATA[
var edges = document.getElementsByTagName('g');
if (edges && edges.length) {
  for (var i=0;i<edges.length;i++) {
    if (edges[i].id.substr(0,4)=='edge') {
      edges[i].setAttribute('class','edge');
    }
  }
}
]]></script>
        <defs>
                <circle id="rim" cx="0" cy="0" r="7"/>
                <circle id="rim2" cx="0" cy="0" r="3.5"/>
                <g id="zoomPlus">
                        <use xlink:href="#rim" fill="#404040">
                                <set attributeName="fill" to="#808080" begin="zoomplus.mouseover" end="zoomplus.mouseout"/>
                        </use>
                        <path d="M-4,0h8M0,-4v8" fill="none" stroke="white" stroke-width="1.5" pointer-events="none"/>
                </g>
                <g id="zoomMin">
                        <use xlink:href="#rim" fill="#404040">
                                <set attributeName="fill" to="#808080" begin="zoomminus.mouseover" end="zoomminus.mouseout"/>
                        </use>
                        <path d="M-4,0h8" fill="none" stroke="white" stroke-width="1.5" pointer-events="none"/>
                </g>
                <g id="dirArrow">
                        <path fill="none" stroke="white" stroke-width="1.5" d="M0,-3.0v7 M-2.5,-0.5L0,-3.0L2.5,-0.5"/>
                </g>
               <g id="resetDef">
                       <use xlink:href="#rim2" fill="#404040">
                               <set attributeName="fill" to="#808080" begin="reset.mouseover" end="reset.mouseout"/>
                       </use>
               </g>
        </defs>

<script type="text/javascript">
var viewWidth = 999;
var viewHeight = 308;
var sectionId = 'dynsection-0';
</script>
<script xlink:href="svgpan.js"/>
<svg id="graph" class="graph">
<g id="viewport">
<title>src/runner/SimulationRunner.cpp</title>
<polygon fill="white" stroke="transparent" points="-4,4 -4,-304 994.79,-304 994.79,4 -4,4"/>
<!-- Node1 -->
<g id="node1" class="node">
<title>Node1</title>
<g id="a_node1"><a xlink:title="In this file, the implementation of the SimulationRunner class is defined.">
<polygon fill="#bfbfbf" stroke="black" points="759.99,-280.5 759.99,-299.5 934.99,-299.5 934.99,-280.5 759.99,-280.5"/>
<text text-anchor="middle" x="847.49" y="-287.5" font-family="Helvetica,sans-Serif" font-size="10.00">src/runner/SimulationRunner.cpp</text>
</a>
</g>
</g>
<!-- Node2 -->
<g id="node2" class="node">
<title>Node2</title>
<g id="a_node2"><a xlink:href="SimulationRunner_8h.xhtml" target="_top" xlink:title="In this file, the header of the SimulationRunner class is defined.">
<polygon fill="white" stroke="black" points="395.49,-224.5 395.49,-243.5 507.49,-243.5 507.49,-224.5 395.49,-224.5"/>
<text text-anchor="middle" x="451.49" y="-231.5" font-family="Helvetica,sans-Serif" font-size="10.00">SimulationRunner.h</text>
</a>
</g>
</g>
<!-- Node1&#45;&gt;Node2 -->
<g id="edge1" class="edge">
<title>Node1&#45;&gt;Node2</title>
<path fill="none" stroke="midnightblue" d="M784.75,-280.44C711.84,-270.5 592.08,-254.17 517.73,-244.03"/>
<polygon fill="midnightblue" stroke="midnightblue" points="517.93,-240.53 507.54,-242.64 516.98,-247.46 517.93,-240.53"/>
</g>
<!-- Node18 -->
<g id="node18" class="node">
<title>Node18</title>
<g id="a_node18"><a xlink:title=" ">
<polygon fill="white" stroke="#bfbfbf" points="855.49,-56.5 855.49,-75.5 901.49,-75.5 901.49,-56.5 855.49,-56.5"/>
<text text-anchor="middle" x="878.49" y="-63.5" font-family="Helvetica,sans-Serif" font-size="10.00">future</text>
</a>
</g>
</g>
<!-- Node1&#45;&gt;Node18 -->
<g id="edge34" class="edge">
<title>Node1&#45;&gt;Node18</title>
<path fill="none" stroke="midnightblue" d="M847.94,-280.46C849.4,-254.78 854.58,-176.11 866.49,-112 868.14,-103.15 870.62,-93.48 872.91,-85.38"/>
<polygon fill="midnightblue" stroke="midnightblue" points="876.34,-86.12 875.8,-75.54 869.62,-84.15 876.34,-86.12"/>
</g>
<!-- Node19 -->
<g id="node19" class="node">
<title>Node19</title>
<g id="a_node19"><a xlink:title=" ">
<polygon fill="white" stroke="#bfbfbf" points="951.49,-56.5 951.49,-75.5 983.49,-75.5 983.49,-56.5 951.49,-56.5"/>
<text text-anchor="middle" x="967.49" y="-63.5" font-family="Helvetica,sans-Serif" font-size="10.00">list</text>
</a>
</g>
</g>
<!-- Node1&#45;&gt;Node19 -->
<g id="edge35" class="edge">
<title>Node1&#45;&gt;Node19</title>
<path fill="none" stroke="midnightblue" d="M860.13,-280.21C889.53,-258.91 962.02,-201.11 988.49,-132 994.64,-115.96 987.11,-97.26 979.41,-84.05"/>
<polygon fill="midnightblue" stroke="midnightblue" points="982.29,-82.06 973.97,-75.51 976.39,-85.83 982.29,-82.06"/>
</g>
<!-- Node3 -->
<g id="node3" class="node">
<title>Node3</title>
<g id="a_node3"><a xlink:href="Types_8h.xhtml" target="_top" xlink:title="In this file, types are defined which should be used across the whole framework.">
<polygon fill="white" stroke="black" points="133.49,-56.5 133.49,-75.5 195.49,-75.5 195.49,-56.5 133.49,-56.5"/>
<text text-anchor="middle" x="164.49" y="-63.5" font-family="Helvetica,sans-Serif" font-size="10.00">../Types.h</text>
</a>
</g>
</g>
<!-- Node2&#45;&gt;Node3 -->
<g id="edge2" class="edge">
<title>Node2&#45;&gt;Node3</title>
<path fill="none" stroke="midnightblue" d="M395.26,-231.43C281.58,-227.67 33.05,-216.27 7.49,-188 -14.51,-163.65 17.5,-131.11 40.49,-112 64.21,-92.3 97.28,-80.87 123.3,-74.47"/>
<polygon fill="midnightblue" stroke="midnightblue" points="124.29,-77.83 133.25,-72.18 122.72,-71.01 124.29,-77.83"/>
</g>
<!-- Node5 -->
<g id="node5" class="node">
<title>Node5</title>
<g id="a_node5"><a xlink:title=" ">
<polygon fill="white" stroke="#bfbfbf" points="313.99,-0.5 313.99,-19.5 360.99,-19.5 360.99,-0.5 313.99,-0.5"/>
<text text-anchor="middle" x="337.49" y="-7.5" font-family="Helvetica,sans-Serif" font-size="10.00">vector</text>
</a>
</g>
</g>
<!-- Node2&#45;&gt;Node5 -->
<g id="edge28" class="edge">
<title>Node2&#45;&gt;Node5</title>
<path fill="none" stroke="midnightblue" d="M447.02,-224.3C430.11,-191.36 369.79,-73.9 346.64,-28.81"/>
<polygon fill="midnightblue" stroke="midnightblue" points="349.74,-27.18 342.06,-19.88 343.51,-30.38 349.74,-27.18"/>
</g>
<!-- Node6 -->
<g id="node6" class="node">
<title>Node6</title>
<g id="a_node6"><a xlink:title=" ">
<polygon fill="white" stroke="#bfbfbf" points="232.49,-0.5 232.49,-19.5 290.49,-19.5 290.49,-0.5 232.49,-0.5"/>
<text text-anchor="middle" x="261.49" y="-7.5" font-family="Helvetica,sans-Serif" font-size="10.00">memory</text>
</a>
</g>
</g>
<!-- Node2&#45;&gt;Node6 -->
<g id="edge31" class="edge">
<title>Node2&#45;&gt;Node6</title>
<path fill="none" stroke="midnightblue" d="M444.05,-224.3C415.61,-191.08 313.63,-71.92 275.77,-27.68"/>
<polygon fill="midnightblue" stroke="midnightblue" points="278.26,-25.21 269.1,-19.88 272.94,-29.76 278.26,-25.21"/>
</g>
<!-- Node7 -->
<g id="node7" class="node">
<title>Node7</title>
<g id="a_node7"><a xlink:href="ComparisonFunctions_8h.xhtml" target="_top" xlink:title="In this file, comparison functions are defined which should be used across the whole framework.">
<polygon fill="white" stroke="black" points="16.49,-168.5 16.49,-187.5 156.49,-187.5 156.49,-168.5 16.49,-168.5"/>
<text text-anchor="middle" x="86.49" y="-175.5" font-family="Helvetica,sans-Serif" font-size="10.00">../ComparisonFunctions.h</text>
</a>
</g>
</g>
<!-- Node2&#45;&gt;Node7 -->
<g id="edge6" class="edge">
<title>Node2&#45;&gt;Node7</title>
<path fill="none" stroke="midnightblue" d="M395.26,-224.68C330.27,-215.07 223.37,-199.25 153.95,-188.98"/>
<polygon fill="midnightblue" stroke="midnightblue" points="154.4,-185.51 143.99,-187.51 153.37,-192.43 154.4,-185.51"/>
</g>
<!-- Node9 -->
<g id="node9" class="node">
<title>Node9</title>
<g id="a_node9"><a xlink:href="Multithreaded_8h.xhtml" target="_top" xlink:title="In this file, the header of the Multithreaded class is defined.">
<polygon fill="white" stroke="black" points="509.99,-168.5 509.99,-187.5 636.99,-187.5 636.99,-168.5 509.99,-168.5"/>
<text text-anchor="middle" x="573.49" y="-175.5" font-family="Helvetica,sans-Serif" font-size="10.00">../utils/Multithreaded.h</text>
</a>
</g>
</g>
<!-- Node2&#45;&gt;Node9 -->
<g id="edge12" class="edge">
<title>Node2&#45;&gt;Node9</title>
<path fill="none" stroke="midnightblue" d="M470.82,-224.44C490.81,-215.6 522.24,-201.69 545.06,-191.59"/>
<polygon fill="midnightblue" stroke="midnightblue" points="546.52,-194.76 554.25,-187.52 543.69,-188.36 546.52,-194.76"/>
</g>
<!-- Node11 -->
<g id="node11" class="node">
<title>Node11</title>
<g id="a_node11"><a xlink:title=" ">
<polygon fill="white" stroke="#bfbfbf" points="469.99,-56.5 469.99,-75.5 516.99,-75.5 516.99,-56.5 469.99,-56.5"/>
<text text-anchor="middle" x="493.49" y="-63.5" font-family="Helvetica,sans-Serif" font-size="10.00">queue</text>
</a>
</g>
</g>
<!-- Node2&#45;&gt;Node11 -->
<g id="edge33" class="edge">
<title>Node2&#45;&gt;Node11</title>
<path fill="none" stroke="midnightblue" d="M453.75,-224.08C460.36,-197.95 479.78,-121.21 488.79,-85.58"/>
<polygon fill="midnightblue" stroke="midnightblue" points="492.27,-86.12 491.33,-75.57 485.48,-84.4 492.27,-86.12"/>
</g>
<!-- Node12 -->
<g id="node12" class="node">
<title>Node12</title>
<g id="a_node12"><a xlink:title=" ">
<polygon fill="white" stroke="#bfbfbf" points="731.49,-112.5 731.49,-131.5 769.49,-131.5 769.49,-112.5 731.49,-112.5"/>
<text text-anchor="middle" x="750.49" y="-119.5" font-family="Helvetica,sans-Serif" font-size="10.00">map</text>
</a>
</g>
</g>
<!-- Node2&#45;&gt;Node12 -->
<g id="edge30" class="edge">
<title>Node2&#45;&gt;Node12</title>
<path fill="none" stroke="midnightblue" d="M507.75,-224.95C547.3,-218.1 600.9,-206.39 645.49,-188 677.61,-174.76 711.13,-152.24 731.42,-137.49"/>
<polygon fill="midnightblue" stroke="midnightblue" points="733.54,-140.27 739.5,-131.51 729.38,-134.64 733.54,-140.27"/>
</g>
<!-- Node14 -->
<g id="node14" class="node">
<title>Node14</title>
<g id="a_node14"><a xlink:title=" ">
<polygon fill="white" stroke="#bfbfbf" points="787.49,-112.5 787.49,-131.5 819.49,-131.5 819.49,-112.5 787.49,-112.5"/>
<text text-anchor="middle" x="803.49" y="-119.5" font-family="Helvetica,sans-Serif" font-size="10.00">set</text>
</a>
</g>
</g>
<!-- Node2&#45;&gt;Node14 -->
<g id="edge29" class="edge">
<title>Node2&#45;&gt;Node14</title>
<path fill="none" stroke="midnightblue" d="M507.5,-226.53C554.4,-220.03 622.6,-208.05 679.49,-188 699.35,-181 749.12,-153.71 779.23,-136.79"/>
<polygon fill="midnightblue" stroke="midnightblue" points="781.25,-139.66 788.24,-131.7 777.82,-133.57 781.25,-139.66"/>
</g>
<!-- Node20 -->
<g id="node20" class="node">
<title>Node20</title>
<g id="a_node20"><a xlink:href="Status_8h.xhtml" target="_top" xlink:title="In this file, the header of the Status class is defined.">
<polygon fill="white" stroke="black" points="174.49,-168.5 174.49,-187.5 272.49,-187.5 272.49,-168.5 174.49,-168.5"/>
<text text-anchor="middle" x="223.49" y="-175.5" font-family="Helvetica,sans-Serif" font-size="10.00">../status/Status.h</text>
</a>
</g>
</g>
<!-- Node2&#45;&gt;Node20 -->
<g id="edge26" class="edge">
<title>Node2&#45;&gt;Node20</title>
<path fill="none" stroke="midnightblue" d="M415.37,-224.44C375.84,-215.08 312.4,-200.06 269.38,-189.87"/>
<polygon fill="midnightblue" stroke="midnightblue" points="269.99,-186.42 259.45,-187.52 268.38,-193.23 269.99,-186.42"/>
</g>
<!-- Node21 -->
<g id="node21" class="node">
<title>Node21</title>
<g id="a_node21"><a xlink:title=" ">
<polygon fill="white" stroke="#bfbfbf" points="731.49,-168.5 731.49,-187.5 799.49,-187.5 799.49,-168.5 731.49,-168.5"/>
<text text-anchor="middle" x="765.49" y="-175.5" font-family="Helvetica,sans-Serif" font-size="10.00">filesystem</text>
</a>
</g>
</g>
<!-- Node2&#45;&gt;Node21 -->
<g id="edge32" class="edge">
<title>Node2&#45;&gt;Node21</title>
<path fill="none" stroke="midnightblue" d="M503.53,-224.48C557.19,-215.62 643.26,-201.24 717.49,-188 718.76,-187.77 720.05,-187.54 721.35,-187.31"/>
<polygon fill="midnightblue" stroke="midnightblue" points="722.21,-190.71 731.42,-185.47 720.95,-183.82 722.21,-190.71"/>
</g>
<!-- Node4 -->
<g id="node4" class="node">
<title>Node4</title>
<g id="a_node4"><a xlink:title=" ">
<polygon fill="white" stroke="#bfbfbf" points="142.49,-0.5 142.49,-19.5 186.49,-19.5 186.49,-0.5 142.49,-0.5"/>
<text text-anchor="middle" x="164.49" y="-7.5" font-family="Helvetica,sans-Serif" font-size="10.00">string</text>
</a>
</g>
</g>
<!-- Node3&#45;&gt;Node4 -->
<g id="edge3" class="edge">
<title>Node3&#45;&gt;Node4</title>
<path fill="none" stroke="midnightblue" d="M164.49,-56.08C164.49,-49.01 164.49,-38.86 164.49,-29.99"/>
<polygon fill="midnightblue" stroke="midnightblue" points="167.99,-29.75 164.49,-19.75 160.99,-29.75 167.99,-29.75"/>
</g>
<!-- Node3&#45;&gt;Node5 -->
<g id="edge4" class="edge">
<title>Node3&#45;&gt;Node5</title>
<path fill="none" stroke="midnightblue" d="M191.91,-56.44C222.39,-46.93 271.61,-31.56 304.26,-21.37"/>
<polygon fill="midnightblue" stroke="midnightblue" points="305.32,-24.71 313.82,-18.39 303.23,-18.03 305.32,-24.71"/>
</g>
<!-- Node3&#45;&gt;Node6 -->
<g id="edge5" class="edge">
<title>Node3&#45;&gt;Node6</title>
<path fill="none" stroke="midnightblue" d="M180.08,-56.32C195.49,-47.74 219.31,-34.49 237.2,-24.52"/>
<polygon fill="midnightblue" stroke="midnightblue" points="238.91,-27.58 245.95,-19.65 235.51,-21.46 238.91,-27.58"/>
</g>
<!-- Node7&#45;&gt;Node5 -->
<g id="edge11" class="edge">
<title>Node7&#45;&gt;Node5</title>
<path fill="none" stroke="midnightblue" d="M112.36,-168.44C134.48,-160.57 166.73,-147.74 192.49,-132 244,-100.53 296.4,-51.76 321.78,-26.83"/>
<polygon fill="midnightblue" stroke="midnightblue" points="324.41,-29.16 329.04,-19.63 319.48,-24.19 324.41,-29.16"/>
</g>
<!-- Node8 -->
<g id="node8" class="node">
<title>Node8</title>
<g id="a_node8"><a xlink:href="Parameter_8h.xhtml" target="_top" xlink:title="In this file, the header of the Parameter class is defined.">
<polygon fill="white" stroke="black" points="49.49,-112.5 49.49,-131.5 183.49,-131.5 183.49,-112.5 49.49,-112.5"/>
<text text-anchor="middle" x="116.49" y="-119.5" font-family="Helvetica,sans-Serif" font-size="10.00">parameters/Parameter.h</text>
</a>
</g>
</g>
<!-- Node7&#45;&gt;Node8 -->
<g id="edge7" class="edge">
<title>Node7&#45;&gt;Node8</title>
<path fill="none" stroke="midnightblue" d="M91.45,-168.08C95.6,-160.61 101.65,-149.72 106.76,-140.52"/>
<polygon fill="midnightblue" stroke="midnightblue" points="109.83,-142.19 111.63,-131.75 103.72,-138.79 109.83,-142.19"/>
</g>
<!-- Node8&#45;&gt;Node3 -->
<g id="edge8" class="edge">
<title>Node8&#45;&gt;Node3</title>
<path fill="none" stroke="midnightblue" d="M124.42,-112.08C131.34,-104.3 141.56,-92.8 149.95,-83.37"/>
<polygon fill="midnightblue" stroke="midnightblue" points="152.69,-85.55 156.71,-75.75 147.46,-80.9 152.69,-85.55"/>
</g>
<!-- Node8&#45;&gt;Node4 -->
<g id="edge9" class="edge">
<title>Node8&#45;&gt;Node4</title>
<path fill="none" stroke="midnightblue" d="M115.96,-112.15C115.53,-99.21 116.06,-74.65 124.49,-56 129.47,-45 138.09,-34.76 146.07,-26.84"/>
<polygon fill="midnightblue" stroke="midnightblue" points="148.74,-29.14 153.66,-19.75 143.96,-24.02 148.74,-29.14"/>
</g>
<!-- Node8&#45;&gt;Node6 -->
<g id="edge10" class="edge">
<title>Node8&#45;&gt;Node6</title>
<path fill="none" stroke="midnightblue" d="M138.82,-112.38C157.47,-104.55 184.19,-91.82 204.49,-76 222.37,-62.08 238.98,-41.98 249.6,-27.82"/>
<polygon fill="midnightblue" stroke="midnightblue" points="252.61,-29.65 255.67,-19.51 246.95,-25.52 252.61,-29.65"/>
</g>
<!-- Node10 -->
<g id="node10" class="node">
<title>Node10</title>
<g id="a_node10"><a xlink:title=" ">
<polygon fill="white" stroke="#bfbfbf" points="403.49,-56.5 403.49,-75.5 451.49,-75.5 451.49,-56.5 403.49,-56.5"/>
<text text-anchor="middle" x="427.49" y="-63.5" font-family="Helvetica,sans-Serif" font-size="10.00">mutex</text>
</a>
</g>
</g>
<!-- Node9&#45;&gt;Node10 -->
<g id="edge13" class="edge">
<title>Node9&#45;&gt;Node10</title>
<path fill="none" stroke="midnightblue" d="M556.02,-168.46C539.71,-160.14 515.01,-146.62 495.49,-132 475.61,-117.1 455.34,-96.95 442.17,-83.06"/>
<polygon fill="midnightblue" stroke="midnightblue" points="444.67,-80.61 435.29,-75.69 439.56,-85.39 444.67,-80.61"/>
</g>
<!-- Node9&#45;&gt;Node11 -->
<g id="edge14" class="edge">
<title>Node9&#45;&gt;Node11</title>
<path fill="none" stroke="midnightblue" d="M554.03,-168.4C539.3,-160.89 519.74,-148.58 508.49,-132 499.25,-118.37 495.65,-99.83 494.27,-86.04"/>
<polygon fill="midnightblue" stroke="midnightblue" points="497.74,-85.52 493.56,-75.78 490.76,-86 497.74,-85.52"/>
</g>
<!-- Node9&#45;&gt;Node12 -->
<g id="edge15" class="edge">
<title>Node9&#45;&gt;Node12</title>
<path fill="none" stroke="midnightblue" d="M601.88,-168.42C631.68,-159.4 679.9,-144.78 721.49,-132 721.59,-131.97 721.7,-131.94 721.8,-131.91"/>
<polygon fill="midnightblue" stroke="midnightblue" points="722.94,-135.22 731.47,-128.92 720.88,-128.53 722.94,-135.22"/>
</g>
<!-- Node13 -->
<g id="node13" class="node">
<title>Node13</title>
<g id="a_node13"><a xlink:title=" ">
<polygon fill="white" stroke="#bfbfbf" points="647.99,-112.5 647.99,-131.5 712.99,-131.5 712.99,-112.5 647.99,-112.5"/>
<text text-anchor="middle" x="680.49" y="-119.5" font-family="Helvetica,sans-Serif" font-size="10.00">functional</text>
</a>
</g>
</g>
<!-- Node9&#45;&gt;Node13 -->
<g id="edge16" class="edge">
<title>Node9&#45;&gt;Node13</title>
<path fill="none" stroke="midnightblue" d="M590.68,-168.32C607.84,-159.66 634.44,-146.24 654.24,-136.25"/>
<polygon fill="midnightblue" stroke="midnightblue" points="655.99,-139.28 663.34,-131.65 652.84,-133.04 655.99,-139.28"/>
</g>
<!-- Node9&#45;&gt;Node14 -->
<g id="edge17" class="edge">
<title>Node9&#45;&gt;Node14</title>
<path fill="none" stroke="midnightblue" d="M620.74,-168.43C660.37,-160.84 718.57,-148.76 777.59,-131.97"/>
<polygon fill="midnightblue" stroke="midnightblue" points="778.82,-135.26 787.46,-129.12 776.88,-128.53 778.82,-135.26"/>
</g>
<!-- Node15 -->
<g id="node15" class="node">
<title>Node15</title>
<g id="a_node15"><a xlink:href="ThreadsafeQueue_8h.xhtml" target="_top" xlink:title="In this file, the header of the ThreadSafeQueue class is defined.">
<polygon fill="white" stroke="black" points="517.49,-112.5 517.49,-131.5 629.49,-131.5 629.49,-112.5 517.49,-112.5"/>
<text text-anchor="middle" x="573.49" y="-119.5" font-family="Helvetica,sans-Serif" font-size="10.00">ThreadsafeQueue.h</text>
</a>
</g>
</g>
<!-- Node9&#45;&gt;Node15 -->
<g id="edge18" class="edge">
<title>Node9&#45;&gt;Node15</title>
<path fill="none" stroke="midnightblue" d="M573.49,-168.08C573.49,-161.01 573.49,-150.86 573.49,-141.99"/>
<polygon fill="midnightblue" stroke="midnightblue" points="576.99,-141.75 573.49,-131.75 569.99,-141.75 576.99,-141.75"/>
</g>
<!-- Node17 -->
<g id="node17" class="node">
<title>Node17</title>
<g id="a_node17"><a xlink:href="Multithreaded_8tpp.xhtml" target="_top" xlink:title="In this file, the implementation of the Multithreaded class is defined.">
<polygon fill="white" stroke="black" points="875.49,-112.5 875.49,-131.5 979.49,-131.5 979.49,-112.5 875.49,-112.5"/>
<text text-anchor="middle" x="927.49" y="-119.5" font-family="Helvetica,sans-Serif" font-size="10.00">Multithreaded.tpp</text>
</a>
</g>
</g>
<!-- Node9&#45;&gt;Node17 -->
<g id="edge23" class="edge">
<title>Node9&#45;&gt;Node17</title>
<path fill="none" stroke="midnightblue" d="M629.59,-168.44C693.84,-158.64 798.81,-142.63 865.46,-132.46"/>
<polygon fill="midnightblue" stroke="midnightblue" points="866.05,-135.91 875.41,-130.94 865,-128.99 866.05,-135.91"/>
</g>
<!-- Node15&#45;&gt;Node10 -->
<g id="edge20" class="edge">
<title>Node15&#45;&gt;Node10</title>
<path fill="none" stroke="midnightblue" d="M550.36,-112.44C526.01,-103.44 487.49,-89.19 460.07,-79.05"/>
<polygon fill="midnightblue" stroke="midnightblue" points="461.11,-75.7 450.52,-75.52 458.68,-82.27 461.11,-75.7"/>
</g>
<!-- Node15&#45;&gt;Node11 -->
<g id="edge19" class="edge">
<title>Node15&#45;&gt;Node11</title>
<path fill="none" stroke="midnightblue" d="M560.64,-112.32C548.28,-103.98 529.36,-91.21 514.76,-81.35"/>
<polygon fill="midnightblue" stroke="midnightblue" points="516.56,-78.35 506.31,-75.65 512.65,-84.15 516.56,-78.35"/>
</g>
<!-- Node16 -->
<g id="node16" class="node">
<title>Node16</title>
<g id="a_node16"><a xlink:href="ThreadsafeQueue_8tpp.xhtml" target="_top" xlink:title="In this file, the implementation of the ThreadSafeQueue class is defined.">
<polygon fill="white" stroke="black" points="535.49,-56.5 535.49,-75.5 657.49,-75.5 657.49,-56.5 535.49,-56.5"/>
<text text-anchor="middle" x="596.49" y="-63.5" font-family="Helvetica,sans-Serif" font-size="10.00">ThreadsafeQueue.tpp</text>
</a>
</g>
</g>
<!-- Node15&#45;&gt;Node16 -->
<g id="edge21" class="edge">
<title>Node15&#45;&gt;Node16</title>
<path fill="none" stroke="midnightblue" d="M572.13,-112.08C573.73,-104.61 577.97,-93.72 582.67,-84.52"/>
<polygon fill="midnightblue" stroke="midnightblue" points="585.75,-86.18 587.64,-75.75 579.66,-82.73 585.75,-86.18"/>
</g>
<!-- Node16&#45;&gt;Node15 -->
<g id="edge22" class="edge">
<title>Node16&#45;&gt;Node15</title>
<path fill="none" stroke="midnightblue" d="M597.9,-75.75C596.33,-83.17 592.12,-94.05 587.43,-103.27"/>
<polygon fill="midnightblue" stroke="midnightblue" points="584.32,-101.65 582.46,-112.08 590.42,-105.09 584.32,-101.65"/>
</g>
<!-- Node17&#45;&gt;Node18 -->
<g id="edge24" class="edge">
<title>Node17&#45;&gt;Node18</title>
<path fill="none" stroke="midnightblue" d="M919.4,-112.08C912.34,-104.3 901.91,-92.8 893.34,-83.37"/>
<polygon fill="midnightblue" stroke="midnightblue" points="895.75,-80.8 886.43,-75.75 890.56,-85.51 895.75,-80.8"/>
</g>
<!-- Node17&#45;&gt;Node19 -->
<g id="edge25" class="edge">
<title>Node17&#45;&gt;Node19</title>
<path fill="none" stroke="midnightblue" d="M934.1,-112.08C939.75,-104.46 948.04,-93.26 954.94,-83.94"/>
<polygon fill="midnightblue" stroke="midnightblue" points="957.87,-85.87 961.01,-75.75 952.25,-81.7 957.87,-85.87"/>
</g>
<!-- Node20&#45;&gt;Node4 -->
<g id="edge27" class="edge">
<title>Node20&#45;&gt;Node4</title>
<path fill="none" stroke="midnightblue" d="M223.76,-168.3C224.06,-147.72 222.84,-94.84 204.49,-56 199.34,-45.08 190.69,-34.86 182.76,-26.92"/>
<polygon fill="midnightblue" stroke="midnightblue" points="184.89,-24.12 175.21,-19.81 180.08,-29.21 184.89,-24.12"/>
</g>
</g>
</svg>
        <g id="navigator" transform="translate(0 0)" fill="#404254">
                <rect fill="#f2f5e9" fill-opacity="0.5" stroke="#606060" stroke-width=".5" x="0" y="0" width="60" height="60"/>
                <use id="zoomplus" xlink:href="#zoomPlus" x="17" y="9" onmousedown="handleZoom(evt,'in')"/>
                <use id="zoomminus" xlink:href="#zoomMin" x="42" y="9" onmousedown="handleZoom(evt,'out')"/>
                <use id="reset" xlink:href="#resetDef" x="30" y="36" onmousedown="handleReset()"/>
                <g id="arrowUp" xlink:href="#dirArrow" transform="translate(30 24)" onmousedown="handlePan(0,-1)">
                  <use xlink:href="#rim" fill="#404040">
                        <set attributeName="fill" to="#808080" begin="arrowUp.mouseover" end="arrowUp.mouseout"/>
                  </use>
                  <path fill="none" stroke="white" stroke-width="1.5" d="M0,-3.0v7 M-2.5,-0.5L0,-3.0L2.5,-0.5"/>
                </g>
                <g id="arrowRight" xlink:href="#dirArrow" transform="rotate(90) translate(36 -43)" onmousedown="handlePan(1,0)">
                  <use xlink:href="#rim" fill="#404040">
                        <set attributeName="fill" to="#808080" begin="arrowRight.mouseover" end="arrowRight.mouseout"/>
                  </use>
                  <path fill="none" stroke="white" stroke-width="1.5" d="M0,-3.0v7 M-2.5,-0.5L0,-3.0L2.5,-0.5"/>
                </g>
                <g id="arrowDown" xlink:href="#dirArrow" transform="rotate(180) translate(-30 -48)" onmousedown="handlePan(0,1)">
                  <use xlink:href="#rim" fill="#404040">
                        <set attributeName="fill" to="#808080" begin="arrowDown.mouseover" end="arrowDown.mouseout"/>
                  </use>
                  <path fill="none" stroke="white" stroke-width="1.5" d="M0,-3.0v7 M-2.5,-0.5L0,-3.0L2.5,-0.5"/>
                </g>
                <g id="arrowLeft" xlink:href="#dirArrow" transform="rotate(270) translate(-36 17)" onmousedown="handlePan(-1,0)">
                  <use xlink:href="#rim" fill="#404040">
                        <set attributeName="fill" to="#808080" begin="arrowLeft.mouseover" end="arrowLeft.mouseout"/>
                  </use>
                  <path fill="none" stroke="white" stroke-width="1.5" d="M0,-3.0v7 M-2.5,-0.5L0,-3.0L2.5,-0.5"/>
                </g>
        </g>
        <svg viewBox="0 0 15 15" width="100%" height="30px" preserveAspectRatio="xMaxYMin meet">
         <g id="arrow_out" transform="scale(0.3 0.3)">
          <a xlink:href="SimulationRunner_8cpp__incl_org.svg" target="_base">
           <rect id="button" ry="5" rx="5" y="6" x="6" height="38" width="38"
                fill="#f2f5e9" fill-opacity="0.5" stroke="#606060" stroke-width="1.0"/>
           <path id="arrow"
             d="M 11.500037,31.436501 C 11.940474,20.09759 22.043105,11.32322 32.158766,21.979434 L 37.068811,17.246167 C 37.068811,17.246167 37.088388,32 37.088388,32 L 22.160133,31.978069 C 22.160133,31.978069 26.997745,27.140456 26.997745,27.140456 C 18.528582,18.264221 13.291696,25.230495 11.500037,31.436501 z"
             style="fill:#404040;"/>
          </a>
         </g>
        </svg>
</svg>
