<?xml version="1.0" encoding="UTF-8" standalone="no"?>
<!DOCTYPE svg PUBLIC "-//W3C//DTD SVG 1.1//EN"
 "http://www.w3.org/Graphics/SVG/1.1/DTD/svg11.dtd">
<!-- Generated by graphviz version 2.43.0 (0)
 -->
<!-- Title: src/runner/SimulationRunner.h Pages: 1 -->
<svg width="717pt" height="218pt"
 viewBox="0.00 0.00 717.00 218.00" xmlns="http://www.w3.org/2000/svg" xmlns:xlink="http://www.w3.org/1999/xlink">
<g id="graph0" class="graph" transform="scale(1 1) rotate(0) translate(4 214)">
<title>src/runner/SimulationRunner.h</title>
<polygon fill="white" stroke="transparent" points="-4,4 -4,-214 713,-214 713,4 -4,4"/>
<!-- Node1 -->
<g id="node1" class="node">
<title>Node1</title>
<g id="a_node1"><a xlink:title="In this file, the header of the SimulationRunner class is defined.">
<polygon fill="#bfbfbf" stroke="black" points="345.5,-190.5 345.5,-209.5 509.5,-209.5 509.5,-190.5 345.5,-190.5"/>
<text text-anchor="middle" x="427.5" y="-197.5" font-family="Helvetica,sans-Serif" font-size="10.00">src/runner/SimulationRunner.h</text>
</a>
</g>
</g>
<!-- Node2 -->
<g id="node2" class="node">
<title>Node2</title>
<g id="a_node2"><a xlink:href="Controller_8h.xhtml" target="_top" xlink:title="In this file, the header of the Controller class is defined.">
<polygon fill="white" stroke="black" points="181.5,-129 181.5,-148 321.5,-148 321.5,-129 181.5,-129"/>
<text text-anchor="middle" x="251.5" y="-136" font-family="Helvetica,sans-Serif" font-size="10.00">src/controller/Controller.h</text>
</a>
</g>
</g>
<!-- Node1&#45;&gt;Node2 -->
<g id="edge1" class="edge">
<title>Node1&#45;&gt;Node2</title>
<path fill="none" stroke="midnightblue" d="M392.69,-187.23C358.48,-175.67 307.1,-158.3 276.67,-148.01"/>
<polygon fill="midnightblue" stroke="midnightblue" points="391.69,-190.59 402.28,-190.48 393.93,-183.96 391.69,-190.59"/>
</g>
<!-- Node8 -->
<g id="node8" class="node">
<title>Node8</title>
<g id="a_node8"><a xlink:href="PlexeSimulationRunner_8h.xhtml" target="_top" xlink:title="In this file, the header of the PlexeSimulationRunner class is defined.">
<polygon fill="white" stroke="black" points="339.5,-123.5 339.5,-153.5 515.5,-153.5 515.5,-123.5 339.5,-123.5"/>
<text text-anchor="start" x="347.5" y="-141.5" font-family="Helvetica,sans-Serif" font-size="10.00">src/runner/plexe/PlexeSimulation</text>
<text text-anchor="middle" x="427.5" y="-130.5" font-family="Helvetica,sans-Serif" font-size="10.00">Runner.h</text>
</a>
</g>
</g>
<!-- Node1&#45;&gt;Node8 -->
<g id="edge9" class="edge">
<title>Node1&#45;&gt;Node8</title>
<path fill="none" stroke="midnightblue" d="M427.5,-180.23C427.5,-171.59 427.5,-161.5 427.5,-153.52"/>
<polygon fill="midnightblue" stroke="midnightblue" points="424,-180.48 427.5,-190.48 431,-180.48 424,-180.48"/>
</g>
<!-- Node10 -->
<g id="node10" class="node">
<title>Node10</title>
<g id="a_node10"><a xlink:href="SimulationRunner_8cpp.xhtml" target="_top" xlink:title="In this file, the implementation of the SimulationRunner class is defined.">
<polygon fill="white" stroke="black" points="534,-129 534,-148 709,-148 709,-129 534,-129"/>
<text text-anchor="middle" x="621.5" y="-136" font-family="Helvetica,sans-Serif" font-size="10.00">src/runner/SimulationRunner.cpp</text>
</a>
</g>
</g>
<!-- Node1&#45;&gt;Node10 -->
<g id="edge12" class="edge">
<title>Node1&#45;&gt;Node10</title>
<path fill="none" stroke="midnightblue" d="M464.9,-187.53C502.61,-175.96 559.93,-158.38 593.76,-148.01"/>
<polygon fill="midnightblue" stroke="midnightblue" points="463.83,-184.2 455.3,-190.48 465.88,-190.89 463.83,-184.2"/>
</g>
<!-- Node3 -->
<g id="node3" class="node">
<title>Node3</title>
<g id="a_node3"><a xlink:href="Controller_8cpp.xhtml" target="_top" xlink:title="In this file, the implementation of the Controller class is defined.">
<polygon fill="white" stroke="black" points="319,-0.5 319,-19.5 470,-19.5 470,-0.5 319,-0.5"/>
<text text-anchor="middle" x="394.5" y="-7.5" font-family="Helvetica,sans-Serif" font-size="10.00">src/controller/Controller.cpp</text>
</a>
</g>
</g>
<!-- Node2&#45;&gt;Node3 -->
<g id="edge2" class="edge">
<title>Node2&#45;&gt;Node3</title>
<path fill="none" stroke="midnightblue" d="M290.42,-125.46C311.7,-117.32 337.33,-104.77 355.5,-87 375.64,-67.3 387.37,-34.98 392.08,-19.62"/>
<polygon fill="midnightblue" stroke="midnightblue" points="289.2,-122.18 281,-128.89 291.59,-128.76 289.2,-122.18"/>
</g>
<!-- Node4 -->
<g id="node4" class="node">
<title>Node4</title>
<g id="a_node4"><a xlink:href="StubController_8h.xhtml" target="_top" xlink:title="In this file, the header of the StubController class is defined.">
<polygon fill="white" stroke="black" points="186,-62 186,-81 347,-81 347,-62 186,-62"/>
<text text-anchor="middle" x="266.5" y="-69" font-family="Helvetica,sans-Serif" font-size="10.00">src/controller/StubController.h</text>
</a>
</g>
</g>
<!-- Node2&#45;&gt;Node4 -->
<g id="edge3" class="edge">
<title>Node2&#45;&gt;Node4</title>
<path fill="none" stroke="midnightblue" d="M255.79,-118.91C258.66,-106.49 262.3,-90.72 264.51,-81.13"/>
<polygon fill="midnightblue" stroke="midnightblue" points="252.36,-118.2 253.52,-128.73 259.18,-119.78 252.36,-118.2"/>
</g>
<!-- Node6 -->
<g id="node6" class="node">
<title>Node6</title>
<g id="a_node6"><a xlink:href="main_8cpp.xhtml" target="_top" xlink:title="In this file, the main function running the Simopticon framework is defined.">
<polygon fill="white" stroke="black" points="0,-0.5 0,-19.5 79,-19.5 79,-0.5 0,-0.5"/>
<text text-anchor="middle" x="39.5" y="-7.5" font-family="Helvetica,sans-Serif" font-size="10.00">src/main.cpp</text>
</a>
</g>
</g>
<!-- Node2&#45;&gt;Node6 -->
<g id="edge7" class="edge">
<title>Node2&#45;&gt;Node6</title>
<path fill="none" stroke="midnightblue" d="M171.06,-131.62C108.13,-125.16 27.97,-112.14 7.5,-87 -9.49,-66.13 15.73,-34.92 30.33,-19.82"/>
<polygon fill="midnightblue" stroke="midnightblue" points="171.1,-135.14 181.4,-132.64 171.79,-128.18 171.1,-135.14"/>
</g>
<!-- Node7 -->
<g id="node7" class="node">
<title>Node7</title>
<g id="a_node7"><a xlink:href="Optimizer_8cpp.xhtml" target="_top" xlink:title="In this file, the implementation of the Optimizer class is defined.">
<polygon fill="white" stroke="black" points="17,-62 17,-81 168,-81 168,-62 17,-62"/>
<text text-anchor="middle" x="92.5" y="-69" font-family="Helvetica,sans-Serif" font-size="10.00">src/optimizer/Optimizer.cpp</text>
</a>
</g>
</g>
<!-- Node2&#45;&gt;Node7 -->
<g id="edge8" class="edge">
<title>Node2&#45;&gt;Node7</title>
<path fill="none" stroke="midnightblue" d="M220.77,-124.94C189.19,-112.03 140.88,-92.28 113.45,-81.06"/>
<polygon fill="midnightblue" stroke="midnightblue" points="219.81,-128.32 230.39,-128.87 222.45,-121.84 219.81,-128.32"/>
</g>
<!-- Node4&#45;&gt;Node3 -->
<g id="edge5" class="edge">
<title>Node4&#45;&gt;Node3</title>
<path fill="none" stroke="midnightblue" d="M294.09,-57.67C318.93,-46.13 354.73,-29.49 376.19,-19.51"/>
<polygon fill="midnightblue" stroke="midnightblue" points="292.43,-54.59 284.84,-61.98 295.38,-60.93 292.43,-54.59"/>
</g>
<!-- Node5 -->
<g id="node5" class="node">
<title>Node5</title>
<g id="a_node5"><a xlink:href="StubController_8cpp.xhtml" target="_top" xlink:title="In this file, the implementation of the StubController class is defined.">
<polygon fill="white" stroke="black" points="128,-0.5 128,-19.5 301,-19.5 301,-0.5 128,-0.5"/>
<text text-anchor="middle" x="214.5" y="-7.5" font-family="Helvetica,sans-Serif" font-size="10.00">src/controller/StubController.cpp</text>
</a>
</g>
</g>
<!-- Node4&#45;&gt;Node5 -->
<g id="edge4" class="edge">
<title>Node4&#45;&gt;Node5</title>
<path fill="none" stroke="midnightblue" d="M252.23,-54.17C242.42,-42.95 229.81,-28.52 221.94,-19.51"/>
<polygon fill="midnightblue" stroke="midnightblue" points="249.83,-56.75 259.05,-61.98 255.1,-52.14 249.83,-56.75"/>
</g>
<!-- Node4&#45;&gt;Node6 -->
<g id="edge6" class="edge">
<title>Node4&#45;&gt;Node6</title>
<path fill="none" stroke="midnightblue" d="M224.14,-59.4C180.05,-47.84 111.97,-30 71.96,-19.51"/>
<polygon fill="midnightblue" stroke="midnightblue" points="223.42,-62.83 233.98,-61.98 225.19,-56.05 223.42,-62.83"/>
</g>
<!-- Node8&#45;&gt;Node3 -->
<g id="edge10" class="edge">
<title>Node8&#45;&gt;Node3</title>
<path fill="none" stroke="midnightblue" d="M421.24,-113.51C413.81,-85.02 401.79,-38.94 396.79,-19.79"/>
<polygon fill="midnightblue" stroke="midnightblue" points="417.93,-114.69 423.84,-123.48 424.7,-112.92 417.93,-114.69"/>
</g>
<!-- Node9 -->
<g id="node9" class="node">
<title>Node9</title>
<g id="a_node9"><a xlink:href="PlexeSimulationRunner_8cpp.xhtml" target="_top" xlink:title="In this file, the implementation of the PlexeSimulationRunner class is defined.">
<polygon fill="white" stroke="black" points="441.5,-56.5 441.5,-86.5 617.5,-86.5 617.5,-56.5 441.5,-56.5"/>
<text text-anchor="start" x="449.5" y="-74.5" font-family="Helvetica,sans-Serif" font-size="10.00">src/runner/plexe/PlexeSimulation</text>
<text text-anchor="middle" x="529.5" y="-63.5" font-family="Helvetica,sans-Serif" font-size="10.00">Runner.cpp</text>
</a>
</g>
</g>
<!-- Node8&#45;&gt;Node9 -->
<g id="edge11" class="edge">
<title>Node8&#45;&gt;Node9</title>
<path fill="none" stroke="midnightblue" d="M458.08,-118.02C473.95,-107.9 492.98,-95.77 507.41,-86.58"/>
<polygon fill="midnightblue" stroke="midnightblue" points="456.18,-115.07 449.63,-123.4 459.95,-120.97 456.18,-115.07"/>
</g>
</g>
</svg>
