<?xml version="1.0" encoding="UTF-8" standalone="no"?>
<!DOCTYPE svg PUBLIC "-//W3C//DTD SVG 1.1//EN"
 "http://www.w3.org/Graphics/SVG/1.1/DTD/svg11.dtd">
<!-- Generated by graphviz version 2.43.0 (0)
 -->
<!-- Title: src/runner/SimulationRunner.h Pages: 1 -->
<svg width="941pt" height="252pt"
 viewBox="0.00 0.00 940.97 252.00" xmlns="http://www.w3.org/2000/svg" xmlns:xlink="http://www.w3.org/1999/xlink">
<g id="graph0" class="graph" transform="scale(1 1) rotate(0) translate(4 248)">
<title>src/runner/SimulationRunner.h</title>
<polygon fill="white" stroke="transparent" points="-4,4 -4,-248 936.97,-248 936.97,4 -4,4"/>
<!-- Node1 -->
<g id="node1" class="node">
<title>Node1</title>
<g id="a_node1"><a xlink:title="In this file, the header of the SimulationRunner class is defined.">
<polygon fill="#bfbfbf" stroke="black" points="309.97,-224.5 309.97,-243.5 473.97,-243.5 473.97,-224.5 309.97,-224.5"/>
<text text-anchor="middle" x="391.97" y="-231.5" font-family="Helvetica,sans-Serif" font-size="10.00">src/runner/SimulationRunner.h</text>
</a>
</g>
</g>
<!-- Node2 -->
<g id="node2" class="node">
<title>Node2</title>
<g id="a_node2"><a xlink:href="Types_8h.xhtml" target="_top" xlink:title="In this file, types are defined which should be used across the whole framework.">
<polygon fill="white" stroke="black" points="168.97,-56.5 168.97,-75.5 230.97,-75.5 230.97,-56.5 168.97,-56.5"/>
<text text-anchor="middle" x="199.97" y="-63.5" font-family="Helvetica,sans-Serif" font-size="10.00">../Types.h</text>
</a>
</g>
</g>
<!-- Node1&#45;&gt;Node2 -->
<g id="edge1" class="edge">
<title>Node1&#45;&gt;Node2</title>
<path fill="none" stroke="midnightblue" d="M356.86,-224.4C336.41,-217.69 311.64,-206.33 295.97,-188 273.13,-161.27 295.34,-139.93 273.97,-112 263.25,-97.99 246.82,-87.37 232.16,-79.98"/>
<polygon fill="midnightblue" stroke="midnightblue" points="233.4,-76.69 222.86,-75.58 230.41,-83.02 233.4,-76.69"/>
</g>
<!-- Node4 -->
<g id="node4" class="node">
<title>Node4</title>
<g id="a_node4"><a xlink:title=" ">
<polygon fill="white" stroke="#bfbfbf" points="41.47,-0.5 41.47,-19.5 88.47,-19.5 88.47,-0.5 41.47,-0.5"/>
<text text-anchor="middle" x="64.97" y="-7.5" font-family="Helvetica,sans-Serif" font-size="10.00">vector</text>
</a>
</g>
</g>
<!-- Node1&#45;&gt;Node4 -->
<g id="edge27" class="edge">
<title>Node1&#45;&gt;Node4</title>
<path fill="none" stroke="midnightblue" d="M309.94,-228.88C205.21,-222.75 35.15,-209.61 15.97,-188 -25.6,-141.15 25.48,-61.98 51.5,-27.67"/>
<polygon fill="midnightblue" stroke="midnightblue" points="54.4,-29.65 57.79,-19.61 48.88,-25.34 54.4,-29.65"/>
</g>
<!-- Node5 -->
<g id="node5" class="node">
<title>Node5</title>
<g id="a_node5"><a xlink:title=" ">
<polygon fill="white" stroke="#bfbfbf" points="111.97,-0.5 111.97,-19.5 169.97,-19.5 169.97,-0.5 111.97,-0.5"/>
<text text-anchor="middle" x="140.97" y="-7.5" font-family="Helvetica,sans-Serif" font-size="10.00">memory</text>
</a>
</g>
</g>
<!-- Node1&#45;&gt;Node5 -->
<g id="edge30" class="edge">
<title>Node1&#45;&gt;Node5</title>
<path fill="none" stroke="midnightblue" d="M354.39,-224.5C286.82,-208.36 149.28,-171.38 121.97,-132 100.24,-100.67 118.27,-53.87 131.03,-28.64"/>
<polygon fill="midnightblue" stroke="midnightblue" points="134.26,-30.01 135.88,-19.54 128.09,-26.71 134.26,-30.01"/>
</g>
<!-- Node6 -->
<g id="node6" class="node">
<title>Node6</title>
<g id="a_node6"><a xlink:href="ComparisonFunctions_8h.xhtml" target="_top" xlink:title="In this file, comparison functions are defined which should be used across the whole framework.">
<polygon fill="white" stroke="black" points="24.97,-168.5 24.97,-187.5 164.97,-187.5 164.97,-168.5 24.97,-168.5"/>
<text text-anchor="middle" x="94.97" y="-175.5" font-family="Helvetica,sans-Serif" font-size="10.00">../ComparisonFunctions.h</text>
</a>
</g>
</g>
<!-- Node1&#45;&gt;Node6 -->
<g id="edge5" class="edge">
<title>Node1&#45;&gt;Node6</title>
<path fill="none" stroke="midnightblue" d="M344.91,-224.44C292.56,-214.92 207.98,-199.55 151.93,-189.36"/>
<polygon fill="midnightblue" stroke="midnightblue" points="152.28,-185.86 141.81,-187.52 151.03,-192.75 152.28,-185.86"/>
</g>
<!-- Node8 -->
<g id="node8" class="node">
<title>Node8</title>
<g id="a_node8"><a xlink:href="Multithreaded_8h.xhtml" target="_top" xlink:title="In this file, the header of the Multithreaded class is defined.">
<polygon fill="white" stroke="black" points="570.47,-168.5 570.47,-187.5 697.47,-187.5 697.47,-168.5 570.47,-168.5"/>
<text text-anchor="middle" x="633.97" y="-175.5" font-family="Helvetica,sans-Serif" font-size="10.00">../utils/Multithreaded.h</text>
</a>
</g>
</g>
<!-- Node1&#45;&gt;Node8 -->
<g id="edge11" class="edge">
<title>Node1&#45;&gt;Node8</title>
<path fill="none" stroke="midnightblue" d="M430.32,-224.44C472.45,-215.04 540.18,-199.93 585.84,-189.74"/>
<polygon fill="midnightblue" stroke="midnightblue" points="586.81,-193.11 595.81,-187.52 585.28,-186.28 586.81,-193.11"/>
</g>
<!-- Node10 -->
<g id="node10" class="node">
<title>Node10</title>
<g id="a_node10"><a xlink:title=" ">
<polygon fill="white" stroke="#bfbfbf" points="400.47,-56.5 400.47,-75.5 447.47,-75.5 447.47,-56.5 400.47,-56.5"/>
<text text-anchor="middle" x="423.97" y="-63.5" font-family="Helvetica,sans-Serif" font-size="10.00">queue</text>
</a>
</g>
</g>
<!-- Node1&#45;&gt;Node10 -->
<g id="edge32" class="edge">
<title>Node1&#45;&gt;Node10</title>
<path fill="none" stroke="midnightblue" d="M396.83,-224.34C401.54,-215.5 408.48,-201.22 411.97,-188 421.3,-152.75 423.5,-109.98 423.95,-85.89"/>
<polygon fill="midnightblue" stroke="midnightblue" points="427.45,-85.71 424.05,-75.68 420.45,-85.64 427.45,-85.71"/>
</g>
<!-- Node11 -->
<g id="node11" class="node">
<title>Node11</title>
<g id="a_node11"><a xlink:title=" ">
<polygon fill="white" stroke="#bfbfbf" points="844.97,-112.5 844.97,-131.5 882.97,-131.5 882.97,-112.5 844.97,-112.5"/>
<text text-anchor="middle" x="863.97" y="-119.5" font-family="Helvetica,sans-Serif" font-size="10.00">map</text>
</a>
</g>
</g>
<!-- Node1&#45;&gt;Node11 -->
<g id="edge29" class="edge">
<title>Node1&#45;&gt;Node11</title>
<path fill="none" stroke="midnightblue" d="M473.99,-227.66C538.15,-221.95 629.07,-210.49 705.97,-188 726.59,-181.97 730.2,-176.39 749.97,-168 778.81,-155.76 812.18,-142.72 835.33,-133.84"/>
<polygon fill="midnightblue" stroke="midnightblue" points="836.8,-137.03 844.89,-130.19 834.3,-130.49 836.8,-137.03"/>
</g>
<!-- Node13 -->
<g id="node13" class="node">
<title>Node13</title>
<g id="a_node13"><a xlink:title=" ">
<polygon fill="white" stroke="#bfbfbf" points="900.97,-112.5 900.97,-131.5 932.97,-131.5 932.97,-112.5 900.97,-112.5"/>
<text text-anchor="middle" x="916.97" y="-119.5" font-family="Helvetica,sans-Serif" font-size="10.00">set</text>
</a>
</g>
</g>
<!-- Node1&#45;&gt;Node13 -->
<g id="edge28" class="edge">
<title>Node1&#45;&gt;Node13</title>
<path fill="none" stroke="midnightblue" d="M474.16,-229.98C546.1,-225.56 652.76,-214.7 741.97,-188 761.4,-182.19 764.19,-175.64 782.97,-168 827.46,-149.9 842.05,-148.72 891.25,-132.15"/>
<polygon fill="midnightblue" stroke="midnightblue" points="892.52,-135.42 900.86,-128.87 890.26,-128.79 892.52,-135.42"/>
</g>
<!-- Node19 -->
<g id="node19" class="node">
<title>Node19</title>
<g id="a_node19"><a xlink:href="Status_8h.xhtml" target="_top" xlink:title="In this file, the header of the Status class is defined.">
<polygon fill="white" stroke="black" points="304.97,-168.5 304.97,-187.5 402.97,-187.5 402.97,-168.5 304.97,-168.5"/>
<text text-anchor="middle" x="353.97" y="-175.5" font-family="Helvetica,sans-Serif" font-size="10.00">../status/Status.h</text>
</a>
</g>
</g>
<!-- Node1&#45;&gt;Node19 -->
<g id="edge25" class="edge">
<title>Node1&#45;&gt;Node19</title>
<path fill="none" stroke="midnightblue" d="M385.7,-224.08C380.33,-216.46 372.46,-205.26 365.89,-195.94"/>
<polygon fill="midnightblue" stroke="midnightblue" points="368.75,-193.91 360.13,-187.75 363.02,-197.94 368.75,-193.91"/>
</g>
<!-- Node20 -->
<g id="node20" class="node">
<title>Node20</title>
<g id="a_node20"><a xlink:title=" ">
<polygon fill="white" stroke="#bfbfbf" points="791.97,-168.5 791.97,-187.5 859.97,-187.5 859.97,-168.5 791.97,-168.5"/>
<text text-anchor="middle" x="825.97" y="-175.5" font-family="Helvetica,sans-Serif" font-size="10.00">filesystem</text>
</a>
</g>
</g>
<!-- Node1&#45;&gt;Node20 -->
<g id="edge31" class="edge">
<title>Node1&#45;&gt;Node20</title>
<path fill="none" stroke="midnightblue" d="M474.27,-225.07C552.57,-217.14 673.58,-203.85 777.97,-188 779.25,-187.81 780.54,-187.6 781.84,-187.4"/>
<polygon fill="midnightblue" stroke="midnightblue" points="782.66,-190.81 791.93,-185.68 781.49,-183.9 782.66,-190.81"/>
</g>
<!-- Node3 -->
<g id="node3" class="node">
<title>Node3</title>
<g id="a_node3"><a xlink:title=" ">
<polygon fill="white" stroke="#bfbfbf" points="236.97,-0.5 236.97,-19.5 280.97,-19.5 280.97,-0.5 236.97,-0.5"/>
<text text-anchor="middle" x="258.97" y="-7.5" font-family="Helvetica,sans-Serif" font-size="10.00">string</text>
</a>
</g>
</g>
<!-- Node2&#45;&gt;Node3 -->
<g id="edge2" class="edge">
<title>Node2&#45;&gt;Node3</title>
<path fill="none" stroke="midnightblue" d="M209.45,-56.32C218.17,-48.34 231.32,-36.31 241.87,-26.65"/>
<polygon fill="midnightblue" stroke="midnightblue" points="244.31,-29.17 249.32,-19.83 239.58,-24 244.31,-29.17"/>
</g>
<!-- Node2&#45;&gt;Node4 -->
<g id="edge3" class="edge">
<title>Node2&#45;&gt;Node4</title>
<path fill="none" stroke="midnightblue" d="M178.58,-56.44C156.27,-47.52 121.07,-33.44 95.76,-23.32"/>
<polygon fill="midnightblue" stroke="midnightblue" points="96.85,-19.98 86.26,-19.52 94.25,-26.48 96.85,-19.98"/>
</g>
<!-- Node2&#45;&gt;Node5 -->
<g id="edge4" class="edge">
<title>Node2&#45;&gt;Node5</title>
<path fill="none" stroke="midnightblue" d="M190.49,-56.32C181.77,-48.34 168.63,-36.31 158.08,-26.65"/>
<polygon fill="midnightblue" stroke="midnightblue" points="160.36,-24 150.62,-19.83 155.64,-29.17 160.36,-24"/>
</g>
<!-- Node6&#45;&gt;Node4 -->
<g id="edge10" class="edge">
<title>Node6&#45;&gt;Node4</title>
<path fill="none" stroke="midnightblue" d="M93.36,-168.08C88.64,-141.95 74.77,-65.21 68.33,-29.58"/>
<polygon fill="midnightblue" stroke="midnightblue" points="71.74,-28.79 66.52,-19.57 64.86,-30.03 71.74,-28.79"/>
</g>
<!-- Node7 -->
<g id="node7" class="node">
<title>Node7</title>
<g id="a_node7"><a xlink:href="Parameter_8h.xhtml" target="_top" xlink:title="In this file, the header of the Parameter class is defined.">
<polygon fill="white" stroke="black" points="130.97,-112.5 130.97,-131.5 264.97,-131.5 264.97,-112.5 130.97,-112.5"/>
<text text-anchor="middle" x="197.97" y="-119.5" font-family="Helvetica,sans-Serif" font-size="10.00">parameters/Parameter.h</text>
</a>
</g>
</g>
<!-- Node6&#45;&gt;Node7 -->
<g id="edge6" class="edge">
<title>Node6&#45;&gt;Node7</title>
<path fill="none" stroke="midnightblue" d="M111.52,-168.32C127.96,-159.7 153.41,-146.36 172.44,-136.39"/>
<polygon fill="midnightblue" stroke="midnightblue" points="174.23,-139.4 181.47,-131.65 170.98,-133.2 174.23,-139.4"/>
</g>
<!-- Node7&#45;&gt;Node2 -->
<g id="edge7" class="edge">
<title>Node7&#45;&gt;Node2</title>
<path fill="none" stroke="midnightblue" d="M198.3,-112.08C198.57,-105.01 198.94,-94.86 199.27,-85.99"/>
<polygon fill="midnightblue" stroke="midnightblue" points="202.78,-85.87 199.65,-75.75 195.78,-85.61 202.78,-85.87"/>
</g>
<!-- Node7&#45;&gt;Node3 -->
<g id="edge8" class="edge">
<title>Node7&#45;&gt;Node3</title>
<path fill="none" stroke="midnightblue" d="M208.42,-112.4C217.93,-104.03 231.72,-90.49 239.97,-76 248.15,-61.63 253.08,-43.44 255.86,-29.95"/>
<polygon fill="midnightblue" stroke="midnightblue" points="259.34,-30.39 257.71,-19.92 252.45,-29.12 259.34,-30.39"/>
</g>
<!-- Node7&#45;&gt;Node5 -->
<g id="edge9" class="edge">
<title>Node7&#45;&gt;Node5</title>
<path fill="none" stroke="midnightblue" d="M188.56,-112.2C179.98,-103.69 167.52,-90.05 159.97,-76 152.15,-61.43 147.19,-43.26 144.31,-29.83"/>
<polygon fill="midnightblue" stroke="midnightblue" points="147.71,-29 142.35,-19.86 140.84,-30.34 147.71,-29"/>
</g>
<!-- Node9 -->
<g id="node9" class="node">
<title>Node9</title>
<g id="a_node9"><a xlink:title=" ">
<polygon fill="white" stroke="#bfbfbf" points="645.97,-56.5 645.97,-75.5 693.97,-75.5 693.97,-56.5 645.97,-56.5"/>
<text text-anchor="middle" x="669.97" y="-63.5" font-family="Helvetica,sans-Serif" font-size="10.00">mutex</text>
</a>
</g>
</g>
<!-- Node8&#45;&gt;Node9 -->
<g id="edge12" class="edge">
<title>Node8&#45;&gt;Node9</title>
<path fill="none" stroke="midnightblue" d="M645.51,-168.49C655.45,-160.38 669.1,-147.18 674.97,-132 680.72,-117.16 678.64,-99.01 675.61,-85.66"/>
<polygon fill="midnightblue" stroke="midnightblue" points="678.93,-84.53 672.98,-75.76 672.16,-86.32 678.93,-84.53"/>
</g>
<!-- Node8&#45;&gt;Node10 -->
<g id="edge13" class="edge">
<title>Node8&#45;&gt;Node10</title>
<path fill="none" stroke="midnightblue" d="M570.34,-172.22C535.45,-166.86 493.08,-155.59 461.97,-132 446.38,-120.18 436.03,-99.96 430.13,-85.21"/>
<polygon fill="midnightblue" stroke="midnightblue" points="433.34,-83.8 426.6,-75.63 426.77,-86.22 433.34,-83.8"/>
</g>
<!-- Node8&#45;&gt;Node11 -->
<g id="edge14" class="edge">
<title>Node8&#45;&gt;Node11</title>
<path fill="none" stroke="midnightblue" d="M677.6,-168.49C716.54,-160.62 775.28,-148.09 834.82,-132.13"/>
<polygon fill="midnightblue" stroke="midnightblue" points="836.03,-135.43 844.76,-129.43 834.19,-128.67 836.03,-135.43"/>
</g>
<!-- Node12 -->
<g id="node12" class="node">
<title>Node12</title>
<g id="a_node12"><a xlink:title=" ">
<polygon fill="white" stroke="#bfbfbf" points="601.47,-112.5 601.47,-131.5 666.47,-131.5 666.47,-112.5 601.47,-112.5"/>
<text text-anchor="middle" x="633.97" y="-119.5" font-family="Helvetica,sans-Serif" font-size="10.00">functional</text>
</a>
</g>
</g>
<!-- Node8&#45;&gt;Node12 -->
<g id="edge15" class="edge">
<title>Node8&#45;&gt;Node12</title>
<path fill="none" stroke="midnightblue" d="M633.97,-168.08C633.97,-161.01 633.97,-150.86 633.97,-141.99"/>
<polygon fill="midnightblue" stroke="midnightblue" points="637.47,-141.75 633.97,-131.75 630.47,-141.75 637.47,-141.75"/>
</g>
<!-- Node8&#45;&gt;Node13 -->
<g id="edge16" class="edge">
<title>Node8&#45;&gt;Node13</title>
<path fill="none" stroke="midnightblue" d="M697.72,-169.01C747.98,-162 819.89,-150.4 890.95,-131.88"/>
<polygon fill="midnightblue" stroke="midnightblue" points="892.2,-135.17 900.96,-129.22 890.4,-128.41 892.2,-135.17"/>
</g>
<!-- Node14 -->
<g id="node14" class="node">
<title>Node14</title>
<g id="a_node14"><a xlink:href="ThreadsafeQueue_8h.xhtml" target="_top" xlink:title="In this file, the header of the ThreadSafeQueue class is defined.">
<polygon fill="white" stroke="black" points="470.97,-112.5 470.97,-131.5 582.97,-131.5 582.97,-112.5 470.97,-112.5"/>
<text text-anchor="middle" x="526.97" y="-119.5" font-family="Helvetica,sans-Serif" font-size="10.00">ThreadsafeQueue.h</text>
</a>
</g>
</g>
<!-- Node8&#45;&gt;Node14 -->
<g id="edge17" class="edge">
<title>Node8&#45;&gt;Node14</title>
<path fill="none" stroke="midnightblue" d="M616.78,-168.32C599.62,-159.66 573.03,-146.24 553.23,-136.25"/>
<polygon fill="midnightblue" stroke="midnightblue" points="554.63,-133.04 544.12,-131.65 551.47,-139.28 554.63,-133.04"/>
</g>
<!-- Node16 -->
<g id="node16" class="node">
<title>Node16</title>
<g id="a_node16"><a xlink:href="Multithreaded_8tpp.xhtml" target="_top" xlink:title="In this file, the implementation of the Multithreaded class is defined.">
<polygon fill="white" stroke="black" points="722.97,-112.5 722.97,-131.5 826.97,-131.5 826.97,-112.5 722.97,-112.5"/>
<text text-anchor="middle" x="774.97" y="-119.5" font-family="Helvetica,sans-Serif" font-size="10.00">Multithreaded.tpp</text>
</a>
</g>
</g>
<!-- Node8&#45;&gt;Node16 -->
<g id="edge22" class="edge">
<title>Node8&#45;&gt;Node16</title>
<path fill="none" stroke="midnightblue" d="M656.31,-168.44C679.73,-159.48 716.71,-145.31 743.16,-135.18"/>
<polygon fill="midnightblue" stroke="midnightblue" points="744.65,-138.36 752.74,-131.52 742.15,-131.82 744.65,-138.36"/>
</g>
<!-- Node14&#45;&gt;Node9 -->
<g id="edge19" class="edge">
<title>Node14&#45;&gt;Node9</title>
<path fill="none" stroke="midnightblue" d="M549.63,-112.44C573.37,-103.48 610.88,-89.31 637.71,-79.18"/>
<polygon fill="midnightblue" stroke="midnightblue" points="639.3,-82.32 647.42,-75.52 636.83,-75.77 639.3,-82.32"/>
</g>
<!-- Node14&#45;&gt;Node10 -->
<g id="edge18" class="edge">
<title>Node14&#45;&gt;Node10</title>
<path fill="none" stroke="midnightblue" d="M510.42,-112.32C493.98,-103.7 468.54,-90.36 449.5,-80.39"/>
<polygon fill="midnightblue" stroke="midnightblue" points="450.96,-77.2 440.48,-75.65 447.71,-83.4 450.96,-77.2"/>
</g>
<!-- Node15 -->
<g id="node15" class="node">
<title>Node15</title>
<g id="a_node15"><a xlink:href="ThreadsafeQueue_8tpp.xhtml" target="_top" xlink:title="In this file, the implementation of the ThreadSafeQueue class is defined.">
<polygon fill="white" stroke="black" points="465.97,-56.5 465.97,-75.5 587.97,-75.5 587.97,-56.5 465.97,-56.5"/>
<text text-anchor="middle" x="526.97" y="-63.5" font-family="Helvetica,sans-Serif" font-size="10.00">ThreadsafeQueue.tpp</text>
</a>
</g>
</g>
<!-- Node14&#45;&gt;Node15 -->
<g id="edge20" class="edge">
<title>Node14&#45;&gt;Node15</title>
<path fill="none" stroke="midnightblue" d="M521.81,-112.08C520.3,-104.93 519.87,-94.64 520.52,-85.69"/>
<polygon fill="midnightblue" stroke="midnightblue" points="523.99,-86.13 521.84,-75.75 517.05,-85.2 523.99,-86.13"/>
</g>
<!-- Node15&#45;&gt;Node14 -->
<g id="edge21" class="edge">
<title>Node15&#45;&gt;Node14</title>
<path fill="none" stroke="midnightblue" d="M532.1,-75.75C533.63,-82.86 534.08,-93.14 533.45,-102.1"/>
<polygon fill="midnightblue" stroke="midnightblue" points="529.97,-101.71 532.14,-112.08 536.91,-102.62 529.97,-101.71"/>
</g>
<!-- Node17 -->
<g id="node17" class="node">
<title>Node17</title>
<g id="a_node17"><a xlink:title=" ">
<polygon fill="white" stroke="#bfbfbf" points="776.97,-56.5 776.97,-75.5 822.97,-75.5 822.97,-56.5 776.97,-56.5"/>
<text text-anchor="middle" x="799.97" y="-63.5" font-family="Helvetica,sans-Serif" font-size="10.00">future</text>
</a>
</g>
</g>
<!-- Node16&#45;&gt;Node17 -->
<g id="edge23" class="edge">
<title>Node16&#45;&gt;Node17</title>
<path fill="none" stroke="midnightblue" d="M779.1,-112.08C782.49,-104.77 787.39,-94.18 791.59,-85.1"/>
<polygon fill="midnightblue" stroke="midnightblue" points="794.9,-86.3 795.92,-75.75 788.54,-83.36 794.9,-86.3"/>
</g>
<!-- Node18 -->
<g id="node18" class="node">
<title>Node18</title>
<g id="a_node18"><a xlink:title=" ">
<polygon fill="white" stroke="#bfbfbf" points="726.97,-56.5 726.97,-75.5 758.97,-75.5 758.97,-56.5 726.97,-56.5"/>
<text text-anchor="middle" x="742.97" y="-63.5" font-family="Helvetica,sans-Serif" font-size="10.00">list</text>
</a>
</g>
</g>
<!-- Node16&#45;&gt;Node18 -->
<g id="edge24" class="edge">
<title>Node16&#45;&gt;Node18</title>
<path fill="none" stroke="midnightblue" d="M769.69,-112.08C765.26,-104.61 758.81,-93.72 753.35,-84.52"/>
<polygon fill="midnightblue" stroke="midnightblue" points="756.27,-82.57 748.16,-75.75 750.25,-86.14 756.27,-82.57"/>
</g>
<!-- Node19&#45;&gt;Node3 -->
<g id="edge26" class="edge">
<title>Node19&#45;&gt;Node3</title>
<path fill="none" stroke="midnightblue" d="M348.87,-168.08C333.78,-141.72 289.23,-63.88 269.08,-28.66"/>
<polygon fill="midnightblue" stroke="midnightblue" points="271.88,-26.51 263.88,-19.57 265.81,-29.99 271.88,-26.51"/>
</g>
</g>
</svg>
