<?xml version="1.0" encoding="UTF-8" standalone="no"?>
<!DOCTYPE svg PUBLIC "-//W3C//DTD SVG 1.1//EN"
 "http://www.w3.org/Graphics/SVG/1.1/DTD/svg11.dtd">
<!-- Generated by graphviz version 2.43.0 (0)
 -->
<!-- Title: /home/runner/work/Simopticon/Simopticon/src/runner/SimulationRunner.h Pages: 1 -->
<!--zoomable 274 -->
<svg id="main" version="1.1" xmlns="http://www.w3.org/2000/svg" xmlns:xlink="http://www.w3.org/1999/xlink" xml:space="preserve" onload="init(evt)">
<style type="text/css"><![CDATA[
.edge:hover path { stroke: red; }
.edge:hover polygon { stroke: red; fill: red; }
]]></style>
<script type="text/javascript"><![CDATA[
var edges = document.getElementsByTagName('g');
if (edges && edges.length) {
  for (var i=0;i<edges.length;i++) {
    if (edges[i].id.substr(0,4)=='edge') {
      edges[i].setAttribute('class','edge');
    }
  }
}
]]></script>
        <defs>
                <circle id="rim" cx="0" cy="0" r="7"/>
                <circle id="rim2" cx="0" cy="0" r="3.5"/>
                <g id="zoomPlus">
                        <use xlink:href="#rim" fill="#404040">
                                <set attributeName="fill" to="#808080" begin="zoomplus.mouseover" end="zoomplus.mouseout"/>
                        </use>
                        <path d="M-4,0h8M0,-4v8" fill="none" stroke="white" stroke-width="1.5" pointer-events="none"/>
                </g>
                <g id="zoomMin">
                        <use xlink:href="#rim" fill="#404040">
                                <set attributeName="fill" to="#808080" begin="zoomminus.mouseover" end="zoomminus.mouseout"/>
                        </use>
                        <path d="M-4,0h8" fill="none" stroke="white" stroke-width="1.5" pointer-events="none"/>
                </g>
                <g id="dirArrow">
                        <path fill="none" stroke="white" stroke-width="1.5" d="M0,-3.0v7 M-2.5,-0.5L0,-3.0L2.5,-0.5"/>
                </g>
               <g id="resetDef">
                       <use xlink:href="#rim2" fill="#404040">
                               <set attributeName="fill" to="#808080" begin="reset.mouseover" end="reset.mouseout"/>
                       </use>
               </g>
        </defs>

<script type="text/javascript">
var viewWidth = 941;
var viewHeight = 274;
var sectionId = 'dynsection-0';
</script>
<script xlink:href="svgpan.js"/>
<svg id="graph" class="graph">
<g id="viewport">
<title>/home/runner/work/Simopticon/Simopticon/src/runner/SimulationRunner.h</title>
<polygon fill="white" stroke="transparent" points="-4,4 -4,-270 936.61,-270 936.61,4 -4,4"/>
<!-- Node1 -->
<g id="node1" class="node">
<title>Node1</title>
<g id="a_node1"><a xlink:title="In this file, the header of the SimulationRunner class is defined.">
<polygon fill="#bfbfbf" stroke="black" points="300.61,-224.5 300.61,-265.5 482.61,-265.5 482.61,-224.5 300.61,-224.5"/>
<text text-anchor="start" x="308.61" y="-253.5" font-family="Helvetica,sans-Serif" font-size="10.00">/home/runner/work/Simopticon</text>
<text text-anchor="start" x="308.61" y="-242.5" font-family="Helvetica,sans-Serif" font-size="10.00">/Simopticon/src/runner/Simulation</text>
<text text-anchor="middle" x="391.61" y="-231.5" font-family="Helvetica,sans-Serif" font-size="10.00">Runner.h</text>
</a>
</g>
</g>
<!-- Node2 -->
<g id="node2" class="node">
<title>Node2</title>
<g id="a_node2"><a xlink:href="Types_8h.xhtml" target="_top" xlink:title="In this file, types are defined which should be used across the whole framework.">
<polygon fill="white" stroke="black" points="168.61,-56.5 168.61,-75.5 230.61,-75.5 230.61,-56.5 168.61,-56.5"/>
<text text-anchor="middle" x="199.61" y="-63.5" font-family="Helvetica,sans-Serif" font-size="10.00">../Types.h</text>
</a>
</g>
</g>
<!-- Node1&#45;&gt;Node2 -->
<g id="edge1" class="edge">
<title>Node1&#45;&gt;Node2</title>
<path fill="none" stroke="midnightblue" d="M342.33,-224.44C325.41,-215.56 307.71,-203.52 295.61,-188 273.99,-160.27 294.98,-139.93 273.61,-112 262.89,-97.99 246.46,-87.37 231.8,-79.98"/>
<polygon fill="midnightblue" stroke="midnightblue" points="233.04,-76.69 222.5,-75.58 230.05,-83.02 233.04,-76.69"/>
</g>
<!-- Node4 -->
<g id="node4" class="node">
<title>Node4</title>
<g id="a_node4"><a xlink:title=" ">
<polygon fill="white" stroke="#bfbfbf" points="41.11,-0.5 41.11,-19.5 88.11,-19.5 88.11,-0.5 41.11,-0.5"/>
<text text-anchor="middle" x="64.61" y="-7.5" font-family="Helvetica,sans-Serif" font-size="10.00">vector</text>
</a>
</g>
</g>
<!-- Node1&#45;&gt;Node4 -->
<g id="edge27" class="edge">
<title>Node1&#45;&gt;Node4</title>
<path fill="none" stroke="midnightblue" d="M300.37,-243.55C201.09,-240.89 51.65,-229.8 15.61,-188 -25.29,-140.56 25.44,-61.7 51.25,-27.58"/>
<polygon fill="midnightblue" stroke="midnightblue" points="54.11,-29.6 57.49,-19.56 48.59,-25.3 54.11,-29.6"/>
</g>
<!-- Node5 -->
<g id="node5" class="node">
<title>Node5</title>
<g id="a_node5"><a xlink:title=" ">
<polygon fill="white" stroke="#bfbfbf" points="111.61,-0.5 111.61,-19.5 169.61,-19.5 169.61,-0.5 111.61,-0.5"/>
<text text-anchor="middle" x="140.61" y="-7.5" font-family="Helvetica,sans-Serif" font-size="10.00">memory</text>
</a>
</g>
</g>
<!-- Node1&#45;&gt;Node5 -->
<g id="edge30" class="edge">
<title>Node1&#45;&gt;Node5</title>
<path fill="none" stroke="midnightblue" d="M335.5,-224.49C260.14,-197.72 134.17,-150.81 121.61,-132 100.54,-100.45 118.07,-54.1 130.63,-28.91"/>
<polygon fill="midnightblue" stroke="midnightblue" points="133.87,-30.28 135.42,-19.8 127.67,-27.02 133.87,-30.28"/>
</g>
<!-- Node6 -->
<g id="node6" class="node">
<title>Node6</title>
<g id="a_node6"><a xlink:href="ComparisonFunctions_8h.xhtml" target="_top" xlink:title="In this file, comparison functions are defined which should be used across the whole framework.">
<polygon fill="white" stroke="black" points="24.61,-168.5 24.61,-187.5 164.61,-187.5 164.61,-168.5 24.61,-168.5"/>
<text text-anchor="middle" x="94.61" y="-175.5" font-family="Helvetica,sans-Serif" font-size="10.00">../ComparisonFunctions.h</text>
</a>
</g>
</g>
<!-- Node1&#45;&gt;Node6 -->
<g id="edge5" class="edge">
<title>Node1&#45;&gt;Node6</title>
<path fill="none" stroke="midnightblue" d="M302.5,-224.5C250.46,-213.11 186.77,-199.17 143.7,-189.74"/>
<polygon fill="midnightblue" stroke="midnightblue" points="144.27,-186.29 133.76,-187.57 142.78,-193.12 144.27,-186.29"/>
</g>
<!-- Node8 -->
<g id="node8" class="node">
<title>Node8</title>
<g id="a_node8"><a xlink:href="Multithreaded_8h.xhtml" target="_top" xlink:title="In this file, the header of the Multithreaded class is defined.">
<polygon fill="white" stroke="black" points="570.11,-168.5 570.11,-187.5 697.11,-187.5 697.11,-168.5 570.11,-168.5"/>
<text text-anchor="middle" x="633.61" y="-175.5" font-family="Helvetica,sans-Serif" font-size="10.00">../utils/Multithreaded.h</text>
</a>
</g>
</g>
<!-- Node1&#45;&gt;Node8 -->
<g id="edge11" class="edge">
<title>Node1&#45;&gt;Node8</title>
<path fill="none" stroke="midnightblue" d="M464.22,-224.5C505.91,-213.3 556.77,-199.64 591.82,-190.22"/>
<polygon fill="midnightblue" stroke="midnightblue" points="592.97,-193.54 601.72,-187.57 591.15,-186.78 592.97,-193.54"/>
</g>
<!-- Node10 -->
<g id="node10" class="node">
<title>Node10</title>
<g id="a_node10"><a xlink:title=" ">
<polygon fill="white" stroke="#bfbfbf" points="400.11,-56.5 400.11,-75.5 447.11,-75.5 447.11,-56.5 400.11,-56.5"/>
<text text-anchor="middle" x="423.61" y="-63.5" font-family="Helvetica,sans-Serif" font-size="10.00">queue</text>
</a>
</g>
</g>
<!-- Node1&#45;&gt;Node10 -->
<g id="edge32" class="edge">
<title>Node1&#45;&gt;Node10</title>
<path fill="none" stroke="midnightblue" d="M399.94,-224.39C404.1,-213.8 408.83,-200.39 411.61,-188 419.6,-152.42 422.27,-109.77 423.17,-85.78"/>
<polygon fill="midnightblue" stroke="midnightblue" points="426.67,-85.72 423.48,-75.62 419.67,-85.51 426.67,-85.72"/>
</g>
<!-- Node11 -->
<g id="node11" class="node">
<title>Node11</title>
<g id="a_node11"><a xlink:title=" ">
<polygon fill="white" stroke="#bfbfbf" points="844.61,-112.5 844.61,-131.5 882.61,-131.5 882.61,-112.5 844.61,-112.5"/>
<text text-anchor="middle" x="863.61" y="-119.5" font-family="Helvetica,sans-Serif" font-size="10.00">map</text>
</a>
</g>
</g>
<!-- Node1&#45;&gt;Node11 -->
<g id="edge29" class="edge">
<title>Node1&#45;&gt;Node11</title>
<path fill="none" stroke="midnightblue" d="M482.71,-233.88C546.17,-225.35 632.25,-210.82 705.61,-188 726.12,-181.62 729.84,-176.39 749.61,-168 778.45,-155.76 811.82,-142.72 834.97,-133.84"/>
<polygon fill="midnightblue" stroke="midnightblue" points="836.44,-137.03 844.53,-130.19 833.94,-130.49 836.44,-137.03"/>
</g>
<!-- Node13 -->
<g id="node13" class="node">
<title>Node13</title>
<g id="a_node13"><a xlink:title=" ">
<polygon fill="white" stroke="#bfbfbf" points="900.61,-112.5 900.61,-131.5 932.61,-131.5 932.61,-112.5 900.61,-112.5"/>
<text text-anchor="middle" x="916.61" y="-119.5" font-family="Helvetica,sans-Serif" font-size="10.00">set</text>
</a>
</g>
</g>
<!-- Node1&#45;&gt;Node13 -->
<g id="edge28" class="edge">
<title>Node1&#45;&gt;Node13</title>
<path fill="none" stroke="midnightblue" d="M482.86,-236.83C554.5,-229.44 656.1,-215.04 741.61,-188 760.94,-181.89 763.83,-175.64 782.61,-168 827.1,-149.9 841.68,-148.72 890.89,-132.15"/>
<polygon fill="midnightblue" stroke="midnightblue" points="892.16,-135.42 900.5,-128.87 889.9,-128.79 892.16,-135.42"/>
</g>
<!-- Node19 -->
<g id="node19" class="node">
<title>Node19</title>
<g id="a_node19"><a xlink:href="Status_8h.xhtml" target="_top" xlink:title="In this file, the header of the Status class is defined.">
<polygon fill="white" stroke="black" points="304.61,-168.5 304.61,-187.5 402.61,-187.5 402.61,-168.5 304.61,-168.5"/>
<text text-anchor="middle" x="353.61" y="-175.5" font-family="Helvetica,sans-Serif" font-size="10.00">../status/Status.h</text>
</a>
</g>
</g>
<!-- Node1&#45;&gt;Node19 -->
<g id="edge25" class="edge">
<title>Node1&#45;&gt;Node19</title>
<path fill="none" stroke="midnightblue" d="M380.21,-224.5C375,-215.59 368.88,-205.11 363.82,-196.46"/>
<polygon fill="midnightblue" stroke="midnightblue" points="366.74,-194.52 358.67,-187.65 360.7,-198.05 366.74,-194.52"/>
</g>
<!-- Node20 -->
<g id="node20" class="node">
<title>Node20</title>
<g id="a_node20"><a xlink:title=" ">
<polygon fill="white" stroke="#bfbfbf" points="791.61,-168.5 791.61,-187.5 859.61,-187.5 859.61,-168.5 791.61,-168.5"/>
<text text-anchor="middle" x="825.61" y="-175.5" font-family="Helvetica,sans-Serif" font-size="10.00">filesystem</text>
</a>
</g>
</g>
<!-- Node1&#45;&gt;Node20 -->
<g id="edge31" class="edge">
<title>Node1&#45;&gt;Node20</title>
<path fill="none" stroke="midnightblue" d="M482.64,-231.87C560.96,-221.18 676.91,-204.74 777.61,-188 778.88,-187.79 780.17,-187.57 781.47,-187.35"/>
<polygon fill="midnightblue" stroke="midnightblue" points="782.32,-190.75 791.55,-185.57 781.1,-183.86 782.32,-190.75"/>
</g>
<!-- Node3 -->
<g id="node3" class="node">
<title>Node3</title>
<g id="a_node3"><a xlink:title=" ">
<polygon fill="white" stroke="#bfbfbf" points="236.61,-0.5 236.61,-19.5 280.61,-19.5 280.61,-0.5 236.61,-0.5"/>
<text text-anchor="middle" x="258.61" y="-7.5" font-family="Helvetica,sans-Serif" font-size="10.00">string</text>
</a>
</g>
</g>
<!-- Node2&#45;&gt;Node3 -->
<g id="edge2" class="edge">
<title>Node2&#45;&gt;Node3</title>
<path fill="none" stroke="midnightblue" d="M209.09,-56.32C217.81,-48.34 230.96,-36.31 241.51,-26.65"/>
<polygon fill="midnightblue" stroke="midnightblue" points="243.95,-29.17 248.96,-19.83 239.22,-24 243.95,-29.17"/>
</g>
<!-- Node2&#45;&gt;Node4 -->
<g id="edge3" class="edge">
<title>Node2&#45;&gt;Node4</title>
<path fill="none" stroke="midnightblue" d="M178.22,-56.44C155.9,-47.52 120.71,-33.44 95.4,-23.32"/>
<polygon fill="midnightblue" stroke="midnightblue" points="96.49,-19.98 85.9,-19.52 93.89,-26.48 96.49,-19.98"/>
</g>
<!-- Node2&#45;&gt;Node5 -->
<g id="edge4" class="edge">
<title>Node2&#45;&gt;Node5</title>
<path fill="none" stroke="midnightblue" d="M190.13,-56.32C181.41,-48.34 168.27,-36.31 157.71,-26.65"/>
<polygon fill="midnightblue" stroke="midnightblue" points="160,-24 150.26,-19.83 155.28,-29.17 160,-24"/>
</g>
<!-- Node6&#45;&gt;Node4 -->
<g id="edge10" class="edge">
<title>Node6&#45;&gt;Node4</title>
<path fill="none" stroke="midnightblue" d="M93,-168.08C88.28,-141.95 74.41,-65.21 67.97,-29.58"/>
<polygon fill="midnightblue" stroke="midnightblue" points="71.38,-28.79 66.16,-19.57 64.49,-30.03 71.38,-28.79"/>
</g>
<!-- Node7 -->
<g id="node7" class="node">
<title>Node7</title>
<g id="a_node7"><a xlink:href="Parameter_8h.xhtml" target="_top" xlink:title="In this file, the header of the Parameter class is defined.">
<polygon fill="white" stroke="black" points="130.61,-112.5 130.61,-131.5 264.61,-131.5 264.61,-112.5 130.61,-112.5"/>
<text text-anchor="middle" x="197.61" y="-119.5" font-family="Helvetica,sans-Serif" font-size="10.00">parameters/Parameter.h</text>
</a>
</g>
</g>
<!-- Node6&#45;&gt;Node7 -->
<g id="edge6" class="edge">
<title>Node6&#45;&gt;Node7</title>
<path fill="none" stroke="midnightblue" d="M111.16,-168.32C127.6,-159.7 153.05,-146.36 172.08,-136.39"/>
<polygon fill="midnightblue" stroke="midnightblue" points="173.87,-139.4 181.1,-131.65 170.62,-133.2 173.87,-139.4"/>
</g>
<!-- Node7&#45;&gt;Node2 -->
<g id="edge7" class="edge">
<title>Node7&#45;&gt;Node2</title>
<path fill="none" stroke="midnightblue" d="M197.94,-112.08C198.2,-105.01 198.58,-94.86 198.91,-85.99"/>
<polygon fill="midnightblue" stroke="midnightblue" points="202.42,-85.87 199.29,-75.75 195.42,-85.61 202.42,-85.87"/>
</g>
<!-- Node7&#45;&gt;Node3 -->
<g id="edge8" class="edge">
<title>Node7&#45;&gt;Node3</title>
<path fill="none" stroke="midnightblue" d="M208.05,-112.4C217.57,-104.03 231.36,-90.49 239.61,-76 247.79,-61.63 252.72,-43.44 255.5,-29.95"/>
<polygon fill="midnightblue" stroke="midnightblue" points="258.98,-30.39 257.35,-19.92 252.09,-29.12 258.98,-30.39"/>
</g>
<!-- Node7&#45;&gt;Node5 -->
<g id="edge9" class="edge">
<title>Node7&#45;&gt;Node5</title>
<path fill="none" stroke="midnightblue" d="M188.2,-112.2C179.62,-103.69 167.16,-90.05 159.61,-76 151.79,-61.43 146.83,-43.26 143.94,-29.83"/>
<polygon fill="midnightblue" stroke="midnightblue" points="147.35,-29 141.99,-19.86 140.48,-30.34 147.35,-29"/>
</g>
<!-- Node9 -->
<g id="node9" class="node">
<title>Node9</title>
<g id="a_node9"><a xlink:title=" ">
<polygon fill="white" stroke="#bfbfbf" points="645.61,-56.5 645.61,-75.5 693.61,-75.5 693.61,-56.5 645.61,-56.5"/>
<text text-anchor="middle" x="669.61" y="-63.5" font-family="Helvetica,sans-Serif" font-size="10.00">mutex</text>
</a>
</g>
</g>
<!-- Node8&#45;&gt;Node9 -->
<g id="edge12" class="edge">
<title>Node8&#45;&gt;Node9</title>
<path fill="none" stroke="midnightblue" d="M645.15,-168.49C655.09,-160.38 668.73,-147.18 674.61,-132 680.36,-117.16 678.28,-99.01 675.25,-85.66"/>
<polygon fill="midnightblue" stroke="midnightblue" points="678.57,-84.53 672.62,-75.76 671.8,-86.32 678.57,-84.53"/>
</g>
<!-- Node8&#45;&gt;Node10 -->
<g id="edge13" class="edge">
<title>Node8&#45;&gt;Node10</title>
<path fill="none" stroke="midnightblue" d="M569.98,-172.22C535.09,-166.86 492.72,-155.59 461.61,-132 446.02,-120.18 435.67,-99.96 429.76,-85.21"/>
<polygon fill="midnightblue" stroke="midnightblue" points="432.98,-83.8 426.24,-75.63 426.41,-86.22 432.98,-83.8"/>
</g>
<!-- Node8&#45;&gt;Node11 -->
<g id="edge14" class="edge">
<title>Node8&#45;&gt;Node11</title>
<path fill="none" stroke="midnightblue" d="M677.24,-168.49C716.18,-160.62 774.92,-148.09 834.45,-132.13"/>
<polygon fill="midnightblue" stroke="midnightblue" points="835.67,-135.43 844.4,-129.43 833.83,-128.67 835.67,-135.43"/>
</g>
<!-- Node12 -->
<g id="node12" class="node">
<title>Node12</title>
<g id="a_node12"><a xlink:title=" ">
<polygon fill="white" stroke="#bfbfbf" points="601.11,-112.5 601.11,-131.5 666.11,-131.5 666.11,-112.5 601.11,-112.5"/>
<text text-anchor="middle" x="633.61" y="-119.5" font-family="Helvetica,sans-Serif" font-size="10.00">functional</text>
</a>
</g>
</g>
<!-- Node8&#45;&gt;Node12 -->
<g id="edge15" class="edge">
<title>Node8&#45;&gt;Node12</title>
<path fill="none" stroke="midnightblue" d="M633.61,-168.08C633.61,-161.01 633.61,-150.86 633.61,-141.99"/>
<polygon fill="midnightblue" stroke="midnightblue" points="637.11,-141.75 633.61,-131.75 630.11,-141.75 637.11,-141.75"/>
</g>
<!-- Node8&#45;&gt;Node13 -->
<g id="edge16" class="edge">
<title>Node8&#45;&gt;Node13</title>
<path fill="none" stroke="midnightblue" d="M697.36,-169.01C747.62,-162 819.53,-150.4 890.59,-131.88"/>
<polygon fill="midnightblue" stroke="midnightblue" points="891.84,-135.17 900.6,-129.22 890.04,-128.41 891.84,-135.17"/>
</g>
<!-- Node14 -->
<g id="node14" class="node">
<title>Node14</title>
<g id="a_node14"><a xlink:href="ThreadsafeQueue_8h.xhtml" target="_top" xlink:title="In this file, the header of the ThreadSafeQueue class is defined.">
<polygon fill="white" stroke="black" points="470.61,-112.5 470.61,-131.5 582.61,-131.5 582.61,-112.5 470.61,-112.5"/>
<text text-anchor="middle" x="526.61" y="-119.5" font-family="Helvetica,sans-Serif" font-size="10.00">ThreadsafeQueue.h</text>
</a>
</g>
</g>
<!-- Node8&#45;&gt;Node14 -->
<g id="edge17" class="edge">
<title>Node8&#45;&gt;Node14</title>
<path fill="none" stroke="midnightblue" d="M616.42,-168.32C599.26,-159.66 572.67,-146.24 552.86,-136.25"/>
<polygon fill="midnightblue" stroke="midnightblue" points="554.27,-133.04 543.76,-131.65 551.11,-139.28 554.27,-133.04"/>
</g>
<!-- Node16 -->
<g id="node16" class="node">
<title>Node16</title>
<g id="a_node16"><a xlink:href="Multithreaded_8tpp.xhtml" target="_top" xlink:title="In this file, the implementation of the Multithreaded class is defined.">
<polygon fill="white" stroke="black" points="722.61,-112.5 722.61,-131.5 826.61,-131.5 826.61,-112.5 722.61,-112.5"/>
<text text-anchor="middle" x="774.61" y="-119.5" font-family="Helvetica,sans-Serif" font-size="10.00">Multithreaded.tpp</text>
</a>
</g>
</g>
<!-- Node8&#45;&gt;Node16 -->
<g id="edge22" class="edge">
<title>Node8&#45;&gt;Node16</title>
<path fill="none" stroke="midnightblue" d="M655.95,-168.44C679.36,-159.48 716.35,-145.31 742.8,-135.18"/>
<polygon fill="midnightblue" stroke="midnightblue" points="744.29,-138.36 752.37,-131.52 741.78,-131.82 744.29,-138.36"/>
</g>
<!-- Node14&#45;&gt;Node9 -->
<g id="edge19" class="edge">
<title>Node14&#45;&gt;Node9</title>
<path fill="none" stroke="midnightblue" d="M549.27,-112.44C573.01,-103.48 610.52,-89.31 637.35,-79.18"/>
<polygon fill="midnightblue" stroke="midnightblue" points="638.94,-82.32 647.06,-75.52 636.47,-75.77 638.94,-82.32"/>
</g>
<!-- Node14&#45;&gt;Node10 -->
<g id="edge18" class="edge">
<title>Node14&#45;&gt;Node10</title>
<path fill="none" stroke="midnightblue" d="M510.06,-112.32C493.62,-103.7 468.18,-90.36 449.14,-80.39"/>
<polygon fill="midnightblue" stroke="midnightblue" points="450.6,-77.2 440.12,-75.65 447.35,-83.4 450.6,-77.2"/>
</g>
<!-- Node15 -->
<g id="node15" class="node">
<title>Node15</title>
<g id="a_node15"><a xlink:href="ThreadsafeQueue_8tpp.xhtml" target="_top" xlink:title="In this file, the implementation of the ThreadSafeQueue class is defined.">
<polygon fill="white" stroke="black" points="465.61,-56.5 465.61,-75.5 587.61,-75.5 587.61,-56.5 465.61,-56.5"/>
<text text-anchor="middle" x="526.61" y="-63.5" font-family="Helvetica,sans-Serif" font-size="10.00">ThreadsafeQueue.tpp</text>
</a>
</g>
</g>
<!-- Node14&#45;&gt;Node15 -->
<g id="edge20" class="edge">
<title>Node14&#45;&gt;Node15</title>
<path fill="none" stroke="midnightblue" d="M521.45,-112.08C519.94,-104.93 519.51,-94.64 520.15,-85.69"/>
<polygon fill="midnightblue" stroke="midnightblue" points="523.63,-86.13 521.48,-75.75 516.69,-85.2 523.63,-86.13"/>
</g>
<!-- Node15&#45;&gt;Node14 -->
<g id="edge21" class="edge">
<title>Node15&#45;&gt;Node14</title>
<path fill="none" stroke="midnightblue" d="M531.74,-75.75C533.27,-82.86 533.72,-93.14 533.08,-102.1"/>
<polygon fill="midnightblue" stroke="midnightblue" points="529.61,-101.71 531.78,-112.08 536.55,-102.62 529.61,-101.71"/>
</g>
<!-- Node17 -->
<g id="node17" class="node">
<title>Node17</title>
<g id="a_node17"><a xlink:title=" ">
<polygon fill="white" stroke="#bfbfbf" points="776.61,-56.5 776.61,-75.5 822.61,-75.5 822.61,-56.5 776.61,-56.5"/>
<text text-anchor="middle" x="799.61" y="-63.5" font-family="Helvetica,sans-Serif" font-size="10.00">future</text>
</a>
</g>
</g>
<!-- Node16&#45;&gt;Node17 -->
<g id="edge23" class="edge">
<title>Node16&#45;&gt;Node17</title>
<path fill="none" stroke="midnightblue" d="M778.74,-112.08C782.13,-104.77 787.03,-94.18 791.23,-85.1"/>
<polygon fill="midnightblue" stroke="midnightblue" points="794.54,-86.3 795.56,-75.75 788.18,-83.36 794.54,-86.3"/>
</g>
<!-- Node18 -->
<g id="node18" class="node">
<title>Node18</title>
<g id="a_node18"><a xlink:title=" ">
<polygon fill="white" stroke="#bfbfbf" points="726.61,-56.5 726.61,-75.5 758.61,-75.5 758.61,-56.5 726.61,-56.5"/>
<text text-anchor="middle" x="742.61" y="-63.5" font-family="Helvetica,sans-Serif" font-size="10.00">list</text>
</a>
</g>
</g>
<!-- Node16&#45;&gt;Node18 -->
<g id="edge24" class="edge">
<title>Node16&#45;&gt;Node18</title>
<path fill="none" stroke="midnightblue" d="M769.33,-112.08C764.9,-104.61 758.45,-93.72 752.99,-84.52"/>
<polygon fill="midnightblue" stroke="midnightblue" points="755.91,-82.57 747.8,-75.75 749.88,-86.14 755.91,-82.57"/>
</g>
<!-- Node19&#45;&gt;Node3 -->
<g id="edge26" class="edge">
<title>Node19&#45;&gt;Node3</title>
<path fill="none" stroke="midnightblue" d="M348.5,-168.08C333.42,-141.72 288.87,-63.88 268.72,-28.66"/>
<polygon fill="midnightblue" stroke="midnightblue" points="271.52,-26.51 263.52,-19.57 265.44,-29.99 271.52,-26.51"/>
</g>
</g>
</svg>
        <g id="navigator" transform="translate(0 0)" fill="#404254">
                <rect fill="#f2f5e9" fill-opacity="0.5" stroke="#606060" stroke-width=".5" x="0" y="0" width="60" height="60"/>
                <use id="zoomplus" xlink:href="#zoomPlus" x="17" y="9" onmousedown="handleZoom(evt,'in')"/>
                <use id="zoomminus" xlink:href="#zoomMin" x="42" y="9" onmousedown="handleZoom(evt,'out')"/>
                <use id="reset" xlink:href="#resetDef" x="30" y="36" onmousedown="handleReset()"/>
                <g id="arrowUp" xlink:href="#dirArrow" transform="translate(30 24)" onmousedown="handlePan(0,-1)">
                  <use xlink:href="#rim" fill="#404040">
                        <set attributeName="fill" to="#808080" begin="arrowUp.mouseover" end="arrowUp.mouseout"/>
                  </use>
                  <path fill="none" stroke="white" stroke-width="1.5" d="M0,-3.0v7 M-2.5,-0.5L0,-3.0L2.5,-0.5"/>
                </g>
                <g id="arrowRight" xlink:href="#dirArrow" transform="rotate(90) translate(36 -43)" onmousedown="handlePan(1,0)">
                  <use xlink:href="#rim" fill="#404040">
                        <set attributeName="fill" to="#808080" begin="arrowRight.mouseover" end="arrowRight.mouseout"/>
                  </use>
                  <path fill="none" stroke="white" stroke-width="1.5" d="M0,-3.0v7 M-2.5,-0.5L0,-3.0L2.5,-0.5"/>
                </g>
                <g id="arrowDown" xlink:href="#dirArrow" transform="rotate(180) translate(-30 -48)" onmousedown="handlePan(0,1)">
                  <use xlink:href="#rim" fill="#404040">
                        <set attributeName="fill" to="#808080" begin="arrowDown.mouseover" end="arrowDown.mouseout"/>
                  </use>
                  <path fill="none" stroke="white" stroke-width="1.5" d="M0,-3.0v7 M-2.5,-0.5L0,-3.0L2.5,-0.5"/>
                </g>
                <g id="arrowLeft" xlink:href="#dirArrow" transform="rotate(270) translate(-36 17)" onmousedown="handlePan(-1,0)">
                  <use xlink:href="#rim" fill="#404040">
                        <set attributeName="fill" to="#808080" begin="arrowLeft.mouseover" end="arrowLeft.mouseout"/>
                  </use>
                  <path fill="none" stroke="white" stroke-width="1.5" d="M0,-3.0v7 M-2.5,-0.5L0,-3.0L2.5,-0.5"/>
                </g>
        </g>
        <svg viewBox="0 0 15 15" width="100%" height="30px" preserveAspectRatio="xMaxYMin meet">
         <g id="arrow_out" transform="scale(0.3 0.3)">
          <a xlink:href="SimulationRunner_8h__incl_org.svg" target="_base">
           <rect id="button" ry="5" rx="5" y="6" x="6" height="38" width="38"
                fill="#f2f5e9" fill-opacity="0.5" stroke="#606060" stroke-width="1.0"/>
           <path id="arrow"
             d="M 11.500037,31.436501 C 11.940474,20.09759 22.043105,11.32322 32.158766,21.979434 L 37.068811,17.246167 C 37.068811,17.246167 37.088388,32 37.088388,32 L 22.160133,31.978069 C 22.160133,31.978069 26.997745,27.140456 26.997745,27.140456 C 18.528582,18.264221 13.291696,25.230495 11.500037,31.436501 z"
             style="fill:#404040;"/>
          </a>
         </g>
        </svg>
</svg>
