<?xml version="1.0" encoding="UTF-8" standalone="no"?>
<!DOCTYPE svg PUBLIC "-//W3C//DTD SVG 1.1//EN"
 "http://www.w3.org/Graphics/SVG/1.1/DTD/svg11.dtd">
<!-- Generated by graphviz version 2.43.0 (0)
 -->
<!-- Title: /home/runner/work/Simopticon/Simopticon/src/status/StatusBar.h Pages: 1 -->
<!--zoomable 319 -->
<svg id="main" version="1.1" xmlns="http://www.w3.org/2000/svg" xmlns:xlink="http://www.w3.org/1999/xlink" xml:space="preserve" onload="init(evt)">
<style type="text/css"><![CDATA[
.edge:hover path { stroke: red; }
.edge:hover polygon { stroke: red; fill: red; }
]]></style>
<script type="text/javascript"><![CDATA[
var edges = document.getElementsByTagName('g');
if (edges && edges.length) {
  for (var i=0;i<edges.length;i++) {
    if (edges[i].id.substr(0,4)=='edge') {
      edges[i].setAttribute('class','edge');
    }
  }
}
]]></script>
        <defs>
                <circle id="rim" cx="0" cy="0" r="7"/>
                <circle id="rim2" cx="0" cy="0" r="3.5"/>
                <g id="zoomPlus">
                        <use xlink:href="#rim" fill="#404040">
                                <set attributeName="fill" to="#808080" begin="zoomplus.mouseover" end="zoomplus.mouseout"/>
                        </use>
                        <path d="M-4,0h8M0,-4v8" fill="none" stroke="white" stroke-width="1.5" pointer-events="none"/>
                </g>
                <g id="zoomMin">
                        <use xlink:href="#rim" fill="#404040">
                                <set attributeName="fill" to="#808080" begin="zoomminus.mouseover" end="zoomminus.mouseout"/>
                        </use>
                        <path d="M-4,0h8" fill="none" stroke="white" stroke-width="1.5" pointer-events="none"/>
                </g>
                <g id="dirArrow">
                        <path fill="none" stroke="white" stroke-width="1.5" d="M0,-3.0v7 M-2.5,-0.5L0,-3.0L2.5,-0.5"/>
                </g>
               <g id="resetDef">
                       <use xlink:href="#rim2" fill="#404040">
                               <set attributeName="fill" to="#808080" begin="reset.mouseover" end="reset.mouseout"/>
                       </use>
               </g>
        </defs>

<script type="text/javascript">
var viewWidth = 750;
var viewHeight = 319;
var sectionId = 'dynsection-0';
</script>
<script xlink:href="svgpan.js"/>
<svg id="graph" class="graph">
<g id="viewport">
<title>/home/runner/work/Simopticon/Simopticon/src/status/StatusBar.h</title>
<polygon fill="white" stroke="transparent" points="-4,4 -4,-315 746,-315 746,4 -4,4"/>
<!-- Node1 -->
<g id="node1" class="node">
<title>Node1</title>
<g id="a_node1"><a xlink:title="In this file, the header of the StatusBar class is defined.">
<polygon fill="#bfbfbf" stroke="black" points="129.5,-280.5 129.5,-310.5 312.5,-310.5 312.5,-280.5 129.5,-280.5"/>
<text text-anchor="start" x="137.5" y="-298.5" font-family="Helvetica,sans-Serif" font-size="10.00">/home/runner/work/Simopticon</text>
<text text-anchor="middle" x="221" y="-287.5" font-family="Helvetica,sans-Serif" font-size="10.00">/Simopticon/src/status/StatusBar.h</text>
</a>
</g>
</g>
<!-- Node2 -->
<g id="node2" class="node">
<title>Node2</title>
<g id="a_node2"><a xlink:href="Types_8h.xhtml" target="_top" xlink:title="In this file, types are defined which should be used across the whole framework.">
<polygon fill="white" stroke="black" points="335,-56.5 335,-75.5 397,-75.5 397,-56.5 335,-56.5"/>
<text text-anchor="middle" x="366" y="-63.5" font-family="Helvetica,sans-Serif" font-size="10.00">../Types.h</text>
</a>
</g>
</g>
<!-- Node1&#45;&gt;Node2 -->
<g id="edge1" class="edge">
<title>Node1&#45;&gt;Node2</title>
<path fill="none" stroke="midnightblue" d="M198.46,-280.44C164.21,-257.27 105.77,-209.49 133,-168 155.23,-134.13 265.61,-96.84 326.13,-78.5"/>
<polygon fill="midnightblue" stroke="midnightblue" points="327.18,-81.84 335.75,-75.61 325.17,-75.13 327.18,-81.84"/>
</g>
<!-- Node4 -->
<g id="node4" class="node">
<title>Node4</title>
<g id="a_node4"><a xlink:title=" ">
<polygon fill="white" stroke="#bfbfbf" points="139.5,-0.5 139.5,-19.5 186.5,-19.5 186.5,-0.5 139.5,-0.5"/>
<text text-anchor="middle" x="163" y="-7.5" font-family="Helvetica,sans-Serif" font-size="10.00">vector</text>
</a>
</g>
</g>
<!-- Node1&#45;&gt;Node4 -->
<g id="edge23" class="edge">
<title>Node1&#45;&gt;Node4</title>
<path fill="none" stroke="midnightblue" d="M129.2,-282.9C68.48,-269.49 0,-240.69 0,-179 0,-179 0,-179 0,-121 0,-59.14 81.67,-29.74 129.39,-17.84"/>
<polygon fill="midnightblue" stroke="midnightblue" points="130.37,-21.2 139.3,-15.5 128.76,-14.39 130.37,-21.2"/>
</g>
<!-- Node5 -->
<g id="node5" class="node">
<title>Node5</title>
<g id="a_node5"><a xlink:title=" ">
<polygon fill="white" stroke="#bfbfbf" points="537,-0.5 537,-19.5 595,-19.5 595,-0.5 537,-0.5"/>
<text text-anchor="middle" x="566" y="-7.5" font-family="Helvetica,sans-Serif" font-size="10.00">memory</text>
</a>
</g>
</g>
<!-- Node1&#45;&gt;Node5 -->
<g id="edge22" class="edge">
<title>Node1&#45;&gt;Node5</title>
<path fill="none" stroke="midnightblue" d="M312.7,-288.06C437.63,-276.72 646,-247.53 646,-179 646,-179 646,-179 646,-121 646,-80.62 610.31,-45.11 586.6,-25.97"/>
<polygon fill="midnightblue" stroke="midnightblue" points="588.55,-23.05 578.5,-19.69 584.26,-28.58 588.55,-23.05"/>
</g>
<!-- Node6 -->
<g id="node6" class="node">
<title>Node6</title>
<g id="a_node6"><a xlink:href="ValueMap_8h.xhtml" target="_top" xlink:title="In this file, the header of the ValueMap class is defined.">
<polygon fill="white" stroke="black" points="322,-224.5 322,-243.5 454,-243.5 454,-224.5 322,-224.5"/>
<text text-anchor="middle" x="388" y="-231.5" font-family="Helvetica,sans-Serif" font-size="10.00">../controller/ValueMap.h</text>
</a>
</g>
</g>
<!-- Node1&#45;&gt;Node6 -->
<g id="edge5" class="edge">
<title>Node1&#45;&gt;Node6</title>
<path fill="none" stroke="midnightblue" d="M260.58,-280.4C289.1,-270.24 327.17,-256.67 354.26,-247.02"/>
<polygon fill="midnightblue" stroke="midnightblue" points="355.45,-250.31 363.7,-243.66 353.11,-243.72 355.45,-250.31"/>
</g>
<!-- Node13 -->
<g id="node13" class="node">
<title>Node13</title>
<g id="a_node13"><a xlink:href="Status_8h.xhtml" target="_top" xlink:title="In this file, the header of the Status class is defined.">
<polygon fill="white" stroke="black" points="116,-112.5 116,-131.5 172,-131.5 172,-112.5 116,-112.5"/>
<text text-anchor="middle" x="144" y="-119.5" font-family="Helvetica,sans-Serif" font-size="10.00">Status.h</text>
</a>
</g>
</g>
<!-- Node1&#45;&gt;Node13 -->
<g id="edge20" class="edge">
<title>Node1&#45;&gt;Node13</title>
<path fill="none" stroke="midnightblue" d="M129.47,-285.71C103.51,-278.48 77.99,-265.86 62,-244 42.06,-216.74 44.79,-197.07 62,-168 71.68,-151.65 89.65,-140.84 106.3,-133.93"/>
<polygon fill="midnightblue" stroke="midnightblue" points="107.77,-137.11 115.88,-130.29 105.29,-130.57 107.77,-137.11"/>
</g>
<!-- Node14 -->
<g id="node14" class="node">
<title>Node14</title>
<g id="a_node14"><a xlink:title=" ">
<polygon fill="white" stroke="#bfbfbf" points="674,-224.5 674,-243.5 742,-243.5 742,-224.5 674,-224.5"/>
<text text-anchor="middle" x="708" y="-231.5" font-family="Helvetica,sans-Serif" font-size="10.00">filesystem</text>
</a>
</g>
</g>
<!-- Node1&#45;&gt;Node14 -->
<g id="edge24" class="edge">
<title>Node1&#45;&gt;Node14</title>
<path fill="none" stroke="midnightblue" d="M312.9,-285.84C401.89,-277 540.53,-262.05 660,-244 661.27,-243.81 662.56,-243.61 663.87,-243.4"/>
<polygon fill="midnightblue" stroke="midnightblue" points="664.69,-246.81 673.96,-241.69 663.52,-239.91 664.69,-246.81"/>
</g>
<!-- Node3 -->
<g id="node3" class="node">
<title>Node3</title>
<g id="a_node3"><a xlink:title=" ">
<polygon fill="white" stroke="#bfbfbf" points="344,-0.5 344,-19.5 388,-19.5 388,-0.5 344,-0.5"/>
<text text-anchor="middle" x="366" y="-7.5" font-family="Helvetica,sans-Serif" font-size="10.00">string</text>
</a>
</g>
</g>
<!-- Node2&#45;&gt;Node3 -->
<g id="edge2" class="edge">
<title>Node2&#45;&gt;Node3</title>
<path fill="none" stroke="midnightblue" d="M366,-56.08C366,-49.01 366,-38.86 366,-29.99"/>
<polygon fill="midnightblue" stroke="midnightblue" points="369.5,-29.75 366,-19.75 362.5,-29.75 369.5,-29.75"/>
</g>
<!-- Node2&#45;&gt;Node4 -->
<g id="edge3" class="edge">
<title>Node2&#45;&gt;Node4</title>
<path fill="none" stroke="midnightblue" d="M334.73,-56.68C297.26,-46.71 234.75,-30.09 196.37,-19.88"/>
<polygon fill="midnightblue" stroke="midnightblue" points="197.26,-16.49 186.7,-17.3 195.46,-23.26 197.26,-16.49"/>
</g>
<!-- Node2&#45;&gt;Node5 -->
<g id="edge4" class="edge">
<title>Node2&#45;&gt;Node5</title>
<path fill="none" stroke="midnightblue" d="M397.25,-56.56C432.35,-47.09 489.34,-31.7 527.24,-21.46"/>
<polygon fill="midnightblue" stroke="midnightblue" points="528.18,-24.84 536.92,-18.85 526.35,-18.08 528.18,-24.84"/>
</g>
<!-- Node6&#45;&gt;Node2 -->
<g id="edge6" class="edge">
<title>Node6&#45;&gt;Node2</title>
<path fill="none" stroke="midnightblue" d="M386.82,-224.08C383.35,-197.95 373.18,-121.21 368.46,-85.58"/>
<polygon fill="midnightblue" stroke="midnightblue" points="371.92,-85.02 367.14,-75.57 364.98,-85.94 371.92,-85.02"/>
</g>
<!-- Node6&#45;&gt;Node4 -->
<g id="edge15" class="edge">
<title>Node6&#45;&gt;Node4</title>
<path fill="none" stroke="midnightblue" d="M321.78,-228.23C256.32,-222.32 161.87,-210.19 133,-188 104.7,-166.24 98.06,-146.56 107,-112 115.33,-79.81 136.37,-46.93 150.16,-27.77"/>
<polygon fill="midnightblue" stroke="midnightblue" points="153.12,-29.65 156.26,-19.53 147.49,-25.49 153.12,-29.65"/>
</g>
<!-- Node6&#45;&gt;Node5 -->
<g id="edge17" class="edge">
<title>Node6&#45;&gt;Node5</title>
<path fill="none" stroke="midnightblue" d="M454.08,-224.92C499.09,-217.91 552.96,-206 567,-188 603.49,-141.2 584.36,-64.3 572.76,-29.33"/>
<polygon fill="midnightblue" stroke="midnightblue" points="575.94,-27.83 569.34,-19.54 569.33,-30.14 575.94,-27.83"/>
</g>
<!-- Node7 -->
<g id="node7" class="node">
<title>Node7</title>
<g id="a_node7"><a xlink:href="ComparisonFunctions_8h.xhtml" target="_top" xlink:title="In this file, comparison functions are defined which should be used across the whole framework.">
<polygon fill="white" stroke="black" points="142,-168.5 142,-187.5 282,-187.5 282,-168.5 142,-168.5"/>
<text text-anchor="middle" x="212" y="-175.5" font-family="Helvetica,sans-Serif" font-size="10.00">../ComparisonFunctions.h</text>
</a>
</g>
</g>
<!-- Node6&#45;&gt;Node7 -->
<g id="edge7" class="edge">
<title>Node6&#45;&gt;Node7</title>
<path fill="none" stroke="midnightblue" d="M360.11,-224.44C330.25,-215.28 282.69,-200.69 249.54,-190.52"/>
<polygon fill="midnightblue" stroke="midnightblue" points="250.34,-187.1 239.76,-187.52 248.29,-193.8 250.34,-187.1"/>
</g>
<!-- Node8 -->
<g id="node8" class="node">
<title>Node8</title>
<g id="a_node8"><a xlink:href="Parameter_8h.xhtml" target="_top" xlink:title="In this file, the header of the Parameter class is defined.">
<polygon fill="white" stroke="black" points="394,-112.5 394,-131.5 528,-131.5 528,-112.5 394,-112.5"/>
<text text-anchor="middle" x="461" y="-119.5" font-family="Helvetica,sans-Serif" font-size="10.00">parameters/Parameter.h</text>
</a>
</g>
</g>
<!-- Node6&#45;&gt;Node8 -->
<g id="edge13" class="edge">
<title>Node6&#45;&gt;Node8</title>
<path fill="none" stroke="midnightblue" d="M446.52,-224.43C487.87,-217.04 538.15,-204.88 551,-188 568.83,-164.58 533.37,-145.97 501.84,-134.77"/>
<polygon fill="midnightblue" stroke="midnightblue" points="502.84,-131.41 492.25,-131.53 500.61,-138.05 502.84,-131.41"/>
</g>
<!-- Node9 -->
<g id="node9" class="node">
<title>Node9</title>
<g id="a_node9"><a xlink:title=" ">
<polygon fill="white" stroke="#bfbfbf" points="300,-168.5 300,-187.5 338,-187.5 338,-168.5 300,-168.5"/>
<text text-anchor="middle" x="319" y="-175.5" font-family="Helvetica,sans-Serif" font-size="10.00">map</text>
</a>
</g>
</g>
<!-- Node6&#45;&gt;Node9 -->
<g id="edge14" class="edge">
<title>Node6&#45;&gt;Node9</title>
<path fill="none" stroke="midnightblue" d="M376.91,-224.32C366.51,-216.18 350.74,-203.84 338.28,-194.09"/>
<polygon fill="midnightblue" stroke="midnightblue" points="340.32,-191.24 330.29,-187.83 336.01,-196.75 340.32,-191.24"/>
</g>
<!-- Node10 -->
<g id="node10" class="node">
<title>Node10</title>
<g id="a_node10"><a xlink:title=" ">
<polygon fill="white" stroke="#bfbfbf" points="394,-168.5 394,-187.5 426,-187.5 426,-168.5 394,-168.5"/>
<text text-anchor="middle" x="410" y="-175.5" font-family="Helvetica,sans-Serif" font-size="10.00">list</text>
</a>
</g>
</g>
<!-- Node6&#45;&gt;Node10 -->
<g id="edge16" class="edge">
<title>Node6&#45;&gt;Node10</title>
<path fill="none" stroke="midnightblue" d="M391.63,-224.08C394.61,-216.77 398.93,-206.18 402.62,-197.1"/>
<polygon fill="midnightblue" stroke="midnightblue" points="405.9,-198.33 406.43,-187.75 399.42,-195.69 405.9,-198.33"/>
</g>
<!-- Node11 -->
<g id="node11" class="node">
<title>Node11</title>
<g id="a_node11"><a xlink:title=" ">
<polygon fill="white" stroke="#bfbfbf" points="444,-168.5 444,-187.5 476,-187.5 476,-168.5 444,-168.5"/>
<text text-anchor="middle" x="460" y="-175.5" font-family="Helvetica,sans-Serif" font-size="10.00">set</text>
</a>
</g>
</g>
<!-- Node6&#45;&gt;Node11 -->
<g id="edge18" class="edge">
<title>Node6&#45;&gt;Node11</title>
<path fill="none" stroke="midnightblue" d="M399.57,-224.32C410.42,-216.18 426.88,-203.84 439.88,-194.09"/>
<polygon fill="midnightblue" stroke="midnightblue" points="442.32,-196.63 448.22,-187.83 438.12,-191.03 442.32,-196.63"/>
</g>
<!-- Node12 -->
<g id="node12" class="node">
<title>Node12</title>
<g id="a_node12"><a xlink:title=" ">
<polygon fill="white" stroke="#bfbfbf" points="494,-168.5 494,-187.5 542,-187.5 542,-168.5 494,-168.5"/>
<text text-anchor="middle" x="518" y="-175.5" font-family="Helvetica,sans-Serif" font-size="10.00">mutex</text>
</a>
</g>
</g>
<!-- Node6&#45;&gt;Node12 -->
<g id="edge19" class="edge">
<title>Node6&#45;&gt;Node12</title>
<path fill="none" stroke="midnightblue" d="M408.6,-224.44C429.99,-215.56 463.68,-201.56 488.02,-191.45"/>
<polygon fill="midnightblue" stroke="midnightblue" points="489.61,-194.58 497.5,-187.52 486.92,-188.12 489.61,-194.58"/>
</g>
<!-- Node7&#45;&gt;Node4 -->
<g id="edge12" class="edge">
<title>Node7&#45;&gt;Node4</title>
<path fill="none" stroke="midnightblue" d="M209.37,-168.08C201.65,-141.95 179,-65.21 168.48,-29.58"/>
<polygon fill="midnightblue" stroke="midnightblue" points="171.72,-28.17 165.53,-19.57 165,-30.15 171.72,-28.17"/>
</g>
<!-- Node7&#45;&gt;Node8 -->
<g id="edge8" class="edge">
<title>Node7&#45;&gt;Node8</title>
<path fill="none" stroke="midnightblue" d="M251.45,-168.44C294.89,-159.02 364.79,-143.87 411.78,-133.68"/>
<polygon fill="midnightblue" stroke="midnightblue" points="412.7,-137.06 421.73,-131.52 411.22,-130.22 412.7,-137.06"/>
</g>
<!-- Node8&#45;&gt;Node2 -->
<g id="edge9" class="edge">
<title>Node8&#45;&gt;Node2</title>
<path fill="none" stroke="midnightblue" d="M445.74,-112.32C430.78,-103.82 407.75,-90.73 390.27,-80.8"/>
<polygon fill="midnightblue" stroke="midnightblue" points="391.65,-77.55 381.23,-75.65 388.19,-83.64 391.65,-77.55"/>
</g>
<!-- Node8&#45;&gt;Node3 -->
<g id="edge10" class="edge">
<title>Node8&#45;&gt;Node3</title>
<path fill="none" stroke="midnightblue" d="M453.6,-112.11C443.1,-99.54 423.24,-75.88 406,-56 397.68,-46.41 388.25,-35.78 380.63,-27.27"/>
<polygon fill="midnightblue" stroke="midnightblue" points="383.01,-24.68 373.73,-19.57 377.8,-29.35 383.01,-24.68"/>
</g>
<!-- Node8&#45;&gt;Node5 -->
<g id="edge11" class="edge">
<title>Node8&#45;&gt;Node5</title>
<path fill="none" stroke="midnightblue" d="M469.24,-112.37C486.8,-93.97 528.13,-50.67 550.68,-27.05"/>
<polygon fill="midnightblue" stroke="midnightblue" points="553.43,-29.24 557.8,-19.59 548.36,-24.41 553.43,-29.24"/>
</g>
<!-- Node13&#45;&gt;Node3 -->
<g id="edge21" class="edge">
<title>Node13&#45;&gt;Node3</title>
<path fill="none" stroke="midnightblue" d="M161.42,-112.37C200.16,-93.17 293.66,-46.84 339.61,-24.07"/>
<polygon fill="midnightblue" stroke="midnightblue" points="341.25,-27.17 348.66,-19.59 338.15,-20.9 341.25,-27.17"/>
</g>
</g>
</svg>
        <g id="navigator" transform="translate(0 0)" fill="#404254">
                <rect fill="#f2f5e9" fill-opacity="0.5" stroke="#606060" stroke-width=".5" x="0" y="0" width="60" height="60"/>
                <use id="zoomplus" xlink:href="#zoomPlus" x="17" y="9" onmousedown="handleZoom(evt,'in')"/>
                <use id="zoomminus" xlink:href="#zoomMin" x="42" y="9" onmousedown="handleZoom(evt,'out')"/>
                <use id="reset" xlink:href="#resetDef" x="30" y="36" onmousedown="handleReset()"/>
                <g id="arrowUp" xlink:href="#dirArrow" transform="translate(30 24)" onmousedown="handlePan(0,-1)">
                  <use xlink:href="#rim" fill="#404040">
                        <set attributeName="fill" to="#808080" begin="arrowUp.mouseover" end="arrowUp.mouseout"/>
                  </use>
                  <path fill="none" stroke="white" stroke-width="1.5" d="M0,-3.0v7 M-2.5,-0.5L0,-3.0L2.5,-0.5"/>
                </g>
                <g id="arrowRight" xlink:href="#dirArrow" transform="rotate(90) translate(36 -43)" onmousedown="handlePan(1,0)">
                  <use xlink:href="#rim" fill="#404040">
                        <set attributeName="fill" to="#808080" begin="arrowRight.mouseover" end="arrowRight.mouseout"/>
                  </use>
                  <path fill="none" stroke="white" stroke-width="1.5" d="M0,-3.0v7 M-2.5,-0.5L0,-3.0L2.5,-0.5"/>
                </g>
                <g id="arrowDown" xlink:href="#dirArrow" transform="rotate(180) translate(-30 -48)" onmousedown="handlePan(0,1)">
                  <use xlink:href="#rim" fill="#404040">
                        <set attributeName="fill" to="#808080" begin="arrowDown.mouseover" end="arrowDown.mouseout"/>
                  </use>
                  <path fill="none" stroke="white" stroke-width="1.5" d="M0,-3.0v7 M-2.5,-0.5L0,-3.0L2.5,-0.5"/>
                </g>
                <g id="arrowLeft" xlink:href="#dirArrow" transform="rotate(270) translate(-36 17)" onmousedown="handlePan(-1,0)">
                  <use xlink:href="#rim" fill="#404040">
                        <set attributeName="fill" to="#808080" begin="arrowLeft.mouseover" end="arrowLeft.mouseout"/>
                  </use>
                  <path fill="none" stroke="white" stroke-width="1.5" d="M0,-3.0v7 M-2.5,-0.5L0,-3.0L2.5,-0.5"/>
                </g>
        </g>
        <svg viewBox="0 0 15 15" width="100%" height="30px" preserveAspectRatio="xMaxYMin meet">
         <g id="arrow_out" transform="scale(0.3 0.3)">
          <a xlink:href="StatusBar_8h__incl_org.svg" target="_base">
           <rect id="button" ry="5" rx="5" y="6" x="6" height="38" width="38"
                fill="#f2f5e9" fill-opacity="0.5" stroke="#606060" stroke-width="1.0"/>
           <path id="arrow"
             d="M 11.500037,31.436501 C 11.940474,20.09759 22.043105,11.32322 32.158766,21.979434 L 37.068811,17.246167 C 37.068811,17.246167 37.088388,32 37.088388,32 L 22.160133,31.978069 C 22.160133,31.978069 26.997745,27.140456 26.997745,27.140456 C 18.528582,18.264221 13.291696,25.230495 11.500037,31.436501 z"
             style="fill:#404040;"/>
          </a>
         </g>
        </svg>
</svg>
