<?xml version="1.0" encoding="UTF-8" standalone="no"?>
<!DOCTYPE svg PUBLIC "-//W3C//DTD SVG 1.1//EN"
 "http://www.w3.org/Graphics/SVG/1.1/DTD/svg11.dtd">
<!-- Generated by graphviz version 2.43.0 (0)
 -->
<!-- Title: /home/runner/work/Simopticon/Simopticon/src/status/StatusBar.cpp Pages: 1 -->
<!--zoomable 375 -->
<svg id="main" version="1.1" xmlns="http://www.w3.org/2000/svg" xmlns:xlink="http://www.w3.org/1999/xlink" xml:space="preserve" onload="init(evt)">
<style type="text/css"><![CDATA[
.edge:hover path { stroke: red; }
.edge:hover polygon { stroke: red; fill: red; }
]]></style>
<script type="text/javascript"><![CDATA[
var edges = document.getElementsByTagName('g');
if (edges && edges.length) {
  for (var i=0;i<edges.length;i++) {
    if (edges[i].id.substr(0,4)=='edge') {
      edges[i].setAttribute('class','edge');
    }
  }
}
]]></script>
        <defs>
                <circle id="rim" cx="0" cy="0" r="7"/>
                <circle id="rim2" cx="0" cy="0" r="3.5"/>
                <g id="zoomPlus">
                        <use xlink:href="#rim" fill="#404040">
                                <set attributeName="fill" to="#808080" begin="zoomplus.mouseover" end="zoomplus.mouseout"/>
                        </use>
                        <path d="M-4,0h8M0,-4v8" fill="none" stroke="white" stroke-width="1.5" pointer-events="none"/>
                </g>
                <g id="zoomMin">
                        <use xlink:href="#rim" fill="#404040">
                                <set attributeName="fill" to="#808080" begin="zoomminus.mouseover" end="zoomminus.mouseout"/>
                        </use>
                        <path d="M-4,0h8" fill="none" stroke="white" stroke-width="1.5" pointer-events="none"/>
                </g>
                <g id="dirArrow">
                        <path fill="none" stroke="white" stroke-width="1.5" d="M0,-3.0v7 M-2.5,-0.5L0,-3.0L2.5,-0.5"/>
                </g>
               <g id="resetDef">
                       <use xlink:href="#rim2" fill="#404040">
                               <set attributeName="fill" to="#808080" begin="reset.mouseover" end="reset.mouseout"/>
                       </use>
               </g>
        </defs>

<script type="text/javascript">
var viewWidth = 1016;
var viewHeight = 375;
var sectionId = 'dynsection-0';
</script>
<script xlink:href="svgpan.js"/>
<svg id="graph" class="graph">
<g id="viewport">
<title>/home/runner/work/Simopticon/Simopticon/src/status/StatusBar.cpp</title>
<polygon fill="white" stroke="transparent" points="-4,4 -4,-371 1012,-371 1012,4 -4,4"/>
<!-- Node1 -->
<g id="node1" class="node">
<title>Node1</title>
<g id="a_node1"><a xlink:title="In this file, the implementation of the StatusBar class is defined.">
<polygon fill="#bfbfbf" stroke="black" points="556,-336.5 556,-366.5 750,-366.5 750,-336.5 556,-336.5"/>
<text text-anchor="start" x="564" y="-354.5" font-family="Helvetica,sans-Serif" font-size="10.00">/home/runner/work/Simopticon</text>
<text text-anchor="middle" x="653" y="-343.5" font-family="Helvetica,sans-Serif" font-size="10.00">/Simopticon/src/status/StatusBar.cpp</text>
</a>
</g>
</g>
<!-- Node2 -->
<g id="node2" class="node">
<title>Node2</title>
<g id="a_node2"><a xlink:href="StatusBar_8h.xhtml" target="_top" xlink:title="In this file, the header of the StatusBar class is defined.">
<polygon fill="white" stroke="black" points="384,-280.5 384,-299.5 456,-299.5 456,-280.5 384,-280.5"/>
<text text-anchor="middle" x="420" y="-287.5" font-family="Helvetica,sans-Serif" font-size="10.00">StatusBar.h</text>
</a>
</g>
</g>
<!-- Node1&#45;&gt;Node2 -->
<g id="edge1" class="edge">
<title>Node1&#45;&gt;Node2</title>
<path fill="none" stroke="midnightblue" d="M598.08,-336.47C556.83,-325.94 501.12,-311.72 463.07,-302"/>
<polygon fill="midnightblue" stroke="midnightblue" points="463.87,-298.59 453.31,-299.51 462.13,-305.37 463.87,-298.59"/>
</g>
<!-- Node16 -->
<g id="node16" class="node">
<title>Node16</title>
<g id="a_node16"><a xlink:href="Optimizer_8h.xhtml" target="_top" xlink:title="In this file, the header of the Optimizer class is defined.">
<polygon fill="white" stroke="black" points="618.5,-168.5 618.5,-187.5 749.5,-187.5 749.5,-168.5 618.5,-168.5"/>
<text text-anchor="middle" x="684" y="-175.5" font-family="Helvetica,sans-Serif" font-size="10.00">../optimizer/Optimizer.h</text>
</a>
</g>
</g>
<!-- Node1&#45;&gt;Node16 -->
<g id="edge26" class="edge">
<title>Node1&#45;&gt;Node16</title>
<path fill="none" stroke="midnightblue" d="M655.54,-336.47C661.1,-305.7 674.36,-232.33 680.62,-197.7"/>
<polygon fill="midnightblue" stroke="midnightblue" points="684.12,-198.02 682.45,-187.56 677.23,-196.78 684.12,-198.02"/>
</g>
<!-- Node19 -->
<g id="node19" class="node">
<title>Node19</title>
<g id="a_node19"><a xlink:title=" ">
<polygon fill="white" stroke="#bfbfbf" points="681,-280.5 681,-299.5 741,-299.5 741,-280.5 681,-280.5"/>
<text text-anchor="middle" x="711" y="-287.5" font-family="Helvetica,sans-Serif" font-size="10.00">iostream</text>
</a>
</g>
</g>
<!-- Node1&#45;&gt;Node19 -->
<g id="edge37" class="edge">
<title>Node1&#45;&gt;Node19</title>
<path fill="none" stroke="midnightblue" d="M666.75,-336.4C675.35,-327.58 686.45,-316.18 695.39,-307.02"/>
<polygon fill="midnightblue" stroke="midnightblue" points="698.09,-309.26 702.56,-299.66 693.07,-304.38 698.09,-309.26"/>
</g>
<!-- Node3 -->
<g id="node3" class="node">
<title>Node3</title>
<g id="a_node3"><a xlink:href="Types_8h.xhtml" target="_top" xlink:title="In this file, types are defined which should be used across the whole framework.">
<polygon fill="white" stroke="black" points="367,-56.5 367,-75.5 429,-75.5 429,-56.5 367,-56.5"/>
<text text-anchor="middle" x="398" y="-63.5" font-family="Helvetica,sans-Serif" font-size="10.00">../Types.h</text>
</a>
</g>
</g>
<!-- Node2&#45;&gt;Node3 -->
<g id="edge2" class="edge">
<title>Node2&#45;&gt;Node3</title>
<path fill="none" stroke="midnightblue" d="M383.74,-285.64C329.29,-278.43 228,-256.1 183,-188 137.44,-119.06 282.66,-85.31 356.98,-72.86"/>
<polygon fill="midnightblue" stroke="midnightblue" points="357.66,-76.3 366.97,-71.25 356.54,-69.39 357.66,-76.3"/>
</g>
<!-- Node5 -->
<g id="node5" class="node">
<title>Node5</title>
<g id="a_node5"><a xlink:title=" ">
<polygon fill="white" stroke="#bfbfbf" points="52.5,-0.5 52.5,-19.5 99.5,-19.5 99.5,-0.5 52.5,-0.5"/>
<text text-anchor="middle" x="76" y="-7.5" font-family="Helvetica,sans-Serif" font-size="10.00">vector</text>
</a>
</g>
</g>
<!-- Node2&#45;&gt;Node5 -->
<g id="edge24" class="edge">
<title>Node2&#45;&gt;Node5</title>
<path fill="none" stroke="midnightblue" d="M383.83,-287.27C281.95,-281.41 0,-258.05 0,-179 0,-179 0,-179 0,-121 0,-81.28 33.96,-45.5 56.48,-26.15"/>
<polygon fill="midnightblue" stroke="midnightblue" points="58.98,-28.63 64.46,-19.57 54.52,-23.24 58.98,-28.63"/>
</g>
<!-- Node6 -->
<g id="node6" class="node">
<title>Node6</title>
<g id="a_node6"><a xlink:title=" ">
<polygon fill="white" stroke="#bfbfbf" points="903,-0.5 903,-19.5 961,-19.5 961,-0.5 903,-0.5"/>
<text text-anchor="middle" x="932" y="-7.5" font-family="Helvetica,sans-Serif" font-size="10.00">memory</text>
</a>
</g>
</g>
<!-- Node2&#45;&gt;Node6 -->
<g id="edge23" class="edge">
<title>Node2&#45;&gt;Node6</title>
<path fill="none" stroke="midnightblue" d="M456.34,-286.08C584.54,-275.3 1008,-235.41 1008,-179 1008,-179 1008,-179 1008,-121 1008,-81.28 974.04,-45.5 951.52,-26.15"/>
<polygon fill="midnightblue" stroke="midnightblue" points="953.48,-23.24 943.54,-19.57 949.02,-28.63 953.48,-23.24"/>
</g>
<!-- Node7 -->
<g id="node7" class="node">
<title>Node7</title>
<g id="a_node7"><a xlink:href="ValueMap_8h.xhtml" target="_top" xlink:title="In this file, the header of the ValueMap class is defined.">
<polygon fill="white" stroke="black" points="354,-224.5 354,-243.5 486,-243.5 486,-224.5 354,-224.5"/>
<text text-anchor="middle" x="420" y="-231.5" font-family="Helvetica,sans-Serif" font-size="10.00">../controller/ValueMap.h</text>
</a>
</g>
</g>
<!-- Node2&#45;&gt;Node7 -->
<g id="edge6" class="edge">
<title>Node2&#45;&gt;Node7</title>
<path fill="none" stroke="midnightblue" d="M420,-280.08C420,-273.01 420,-262.86 420,-253.99"/>
<polygon fill="midnightblue" stroke="midnightblue" points="423.5,-253.75 420,-243.75 416.5,-253.75 423.5,-253.75"/>
</g>
<!-- Node14 -->
<g id="node14" class="node">
<title>Node14</title>
<g id="a_node14"><a xlink:href="Status_8h.xhtml" target="_top" xlink:title="In this file, the header of the Status class is defined.">
<polygon fill="white" stroke="black" points="104,-112.5 104,-131.5 160,-131.5 160,-112.5 104,-112.5"/>
<text text-anchor="middle" x="132" y="-119.5" font-family="Helvetica,sans-Serif" font-size="10.00">Status.h</text>
</a>
</g>
</g>
<!-- Node2&#45;&gt;Node14 -->
<g id="edge21" class="edge">
<title>Node2&#45;&gt;Node14</title>
<path fill="none" stroke="midnightblue" d="M383.73,-289.35C310.02,-289.2 146.77,-284.22 112,-244 86.69,-214.72 107.41,-166.01 121.55,-140.23"/>
<polygon fill="midnightblue" stroke="midnightblue" points="124.58,-141.98 126.54,-131.56 118.52,-138.48 124.58,-141.98"/>
</g>
<!-- Node15 -->
<g id="node15" class="node">
<title>Node15</title>
<g id="a_node15"><a xlink:title=" ">
<polygon fill="white" stroke="#bfbfbf" points="504,-224.5 504,-243.5 572,-243.5 572,-224.5 504,-224.5"/>
<text text-anchor="middle" x="538" y="-231.5" font-family="Helvetica,sans-Serif" font-size="10.00">filesystem</text>
</a>
</g>
</g>
<!-- Node2&#45;&gt;Node15 -->
<g id="edge25" class="edge">
<title>Node2&#45;&gt;Node15</title>
<path fill="none" stroke="midnightblue" d="M438.7,-280.44C457.94,-271.64 488.15,-257.81 510.2,-247.72"/>
<polygon fill="midnightblue" stroke="midnightblue" points="511.75,-250.86 519.39,-243.52 508.84,-244.5 511.75,-250.86"/>
</g>
<!-- Node4 -->
<g id="node4" class="node">
<title>Node4</title>
<g id="a_node4"><a xlink:title=" ">
<polygon fill="white" stroke="#bfbfbf" points="346,-0.5 346,-19.5 390,-19.5 390,-0.5 346,-0.5"/>
<text text-anchor="middle" x="368" y="-7.5" font-family="Helvetica,sans-Serif" font-size="10.00">string</text>
</a>
</g>
</g>
<!-- Node3&#45;&gt;Node4 -->
<g id="edge3" class="edge">
<title>Node3&#45;&gt;Node4</title>
<path fill="none" stroke="midnightblue" d="M393.05,-56.08C388.9,-48.61 382.85,-37.72 377.73,-28.52"/>
<polygon fill="midnightblue" stroke="midnightblue" points="380.78,-26.79 372.86,-19.75 374.66,-30.19 380.78,-26.79"/>
</g>
<!-- Node3&#45;&gt;Node5 -->
<g id="edge4" class="edge">
<title>Node3&#45;&gt;Node5</title>
<path fill="none" stroke="midnightblue" d="M366.83,-59.77C306.11,-49.59 172.42,-27.17 109.72,-16.65"/>
<polygon fill="midnightblue" stroke="midnightblue" points="110.01,-13.16 99.57,-14.95 108.86,-20.06 110.01,-13.16"/>
</g>
<!-- Node3&#45;&gt;Node6 -->
<g id="edge5" class="edge">
<title>Node3&#45;&gt;Node6</title>
<path fill="none" stroke="midnightblue" d="M429.02,-61.86C520.82,-52.58 791.06,-25.25 892.73,-14.97"/>
<polygon fill="midnightblue" stroke="midnightblue" points="893.28,-18.43 902.87,-13.95 892.57,-11.47 893.28,-18.43"/>
</g>
<!-- Node7&#45;&gt;Node3 -->
<g id="edge7" class="edge">
<title>Node7&#45;&gt;Node3</title>
<path fill="none" stroke="midnightblue" d="M418.82,-224.08C415.35,-197.95 405.18,-121.21 400.46,-85.58"/>
<polygon fill="midnightblue" stroke="midnightblue" points="403.92,-85.02 399.14,-75.57 396.98,-85.94 403.92,-85.02"/>
</g>
<!-- Node7&#45;&gt;Node5 -->
<g id="edge16" class="edge">
<title>Node7&#45;&gt;Node5</title>
<path fill="none" stroke="midnightblue" d="M353.98,-225.9C305.64,-219.41 238.99,-207.73 183,-188 133.12,-170.42 109.11,-174.77 78,-132 56.04,-101.81 63.6,-55.23 70.28,-29.56"/>
<polygon fill="midnightblue" stroke="midnightblue" points="73.73,-30.23 73.09,-19.66 67,-28.32 73.73,-30.23"/>
</g>
<!-- Node7&#45;&gt;Node6 -->
<g id="edge18" class="edge">
<title>Node7&#45;&gt;Node6</title>
<path fill="none" stroke="midnightblue" d="M486.14,-224.87C577.23,-213.57 733.05,-193.85 759,-188 838.25,-170.14 876.03,-189.92 933,-132 957.27,-107.32 956.55,-89.99 950,-56 948.21,-46.7 944.52,-36.89 940.94,-28.8"/>
<polygon fill="midnightblue" stroke="midnightblue" points="944.06,-27.21 936.62,-19.66 937.73,-30.2 944.06,-27.21"/>
</g>
<!-- Node8 -->
<g id="node8" class="node">
<title>Node8</title>
<g id="a_node8"><a xlink:href="ComparisonFunctions_8h.xhtml" target="_top" xlink:title="In this file, comparison functions are defined which should be used across the whole framework.">
<polygon fill="white" stroke="black" points="192,-168.5 192,-187.5 332,-187.5 332,-168.5 192,-168.5"/>
<text text-anchor="middle" x="262" y="-175.5" font-family="Helvetica,sans-Serif" font-size="10.00">../ComparisonFunctions.h</text>
</a>
</g>
</g>
<!-- Node7&#45;&gt;Node8 -->
<g id="edge8" class="edge">
<title>Node7&#45;&gt;Node8</title>
<path fill="none" stroke="midnightblue" d="M394.96,-224.44C368.38,-215.36 326.19,-200.94 296.48,-190.78"/>
<polygon fill="midnightblue" stroke="midnightblue" points="297.51,-187.44 286.92,-187.52 295.25,-194.06 297.51,-187.44"/>
</g>
<!-- Node9 -->
<g id="node9" class="node">
<title>Node9</title>
<g id="a_node9"><a xlink:href="Parameter_8h.xhtml" target="_top" xlink:title="In this file, the header of the Parameter class is defined.">
<polygon fill="white" stroke="black" points="254,-112.5 254,-131.5 388,-131.5 388,-112.5 254,-112.5"/>
<text text-anchor="middle" x="321" y="-119.5" font-family="Helvetica,sans-Serif" font-size="10.00">parameters/Parameter.h</text>
</a>
</g>
</g>
<!-- Node7&#45;&gt;Node9 -->
<g id="edge14" class="edge">
<title>Node7&#45;&gt;Node9</title>
<path fill="none" stroke="midnightblue" d="M412.23,-224.37C395.68,-205.97 356.7,-162.67 335.45,-139.05"/>
<polygon fill="midnightblue" stroke="midnightblue" points="338.02,-136.68 328.73,-131.59 332.82,-141.37 338.02,-136.68"/>
</g>
<!-- Node10 -->
<g id="node10" class="node">
<title>Node10</title>
<g id="a_node10"><a xlink:title=" ">
<polygon fill="white" stroke="#bfbfbf" points="444,-112.5 444,-131.5 482,-131.5 482,-112.5 444,-112.5"/>
<text text-anchor="middle" x="463" y="-119.5" font-family="Helvetica,sans-Serif" font-size="10.00">map</text>
</a>
</g>
</g>
<!-- Node7&#45;&gt;Node10 -->
<g id="edge15" class="edge">
<title>Node7&#45;&gt;Node10</title>
<path fill="none" stroke="midnightblue" d="M475.91,-224.46C497.47,-218.14 520.02,-207.14 533,-188 547.86,-166.09 516.98,-146.24 491.62,-134.39"/>
<polygon fill="midnightblue" stroke="midnightblue" points="492.84,-131.1 482.28,-130.25 490,-137.5 492.84,-131.1"/>
</g>
<!-- Node11 -->
<g id="node11" class="node">
<title>Node11</title>
<g id="a_node11"><a xlink:title=" ">
<polygon fill="white" stroke="#bfbfbf" points="500,-112.5 500,-131.5 532,-131.5 532,-112.5 500,-112.5"/>
<text text-anchor="middle" x="516" y="-119.5" font-family="Helvetica,sans-Serif" font-size="10.00">list</text>
</a>
</g>
</g>
<!-- Node7&#45;&gt;Node11 -->
<g id="edge17" class="edge">
<title>Node7&#45;&gt;Node11</title>
<path fill="none" stroke="midnightblue" d="M486.14,-225.57C509.6,-219.38 533.7,-208.18 548,-188 558.94,-172.56 545.97,-152.81 533.41,-139.16"/>
<polygon fill="midnightblue" stroke="midnightblue" points="535.76,-136.56 526.25,-131.9 530.78,-141.48 535.76,-136.56"/>
</g>
<!-- Node12 -->
<g id="node12" class="node">
<title>Node12</title>
<g id="a_node12"><a xlink:title=" ">
<polygon fill="white" stroke="#bfbfbf" points="426,-168.5 426,-187.5 458,-187.5 458,-168.5 426,-168.5"/>
<text text-anchor="middle" x="442" y="-175.5" font-family="Helvetica,sans-Serif" font-size="10.00">set</text>
</a>
</g>
</g>
<!-- Node7&#45;&gt;Node12 -->
<g id="edge19" class="edge">
<title>Node7&#45;&gt;Node12</title>
<path fill="none" stroke="midnightblue" d="M423.63,-224.08C426.61,-216.77 430.93,-206.18 434.62,-197.1"/>
<polygon fill="midnightblue" stroke="midnightblue" points="437.9,-198.33 438.43,-187.75 431.42,-195.69 437.9,-198.33"/>
</g>
<!-- Node13 -->
<g id="node13" class="node">
<title>Node13</title>
<g id="a_node13"><a xlink:title=" ">
<polygon fill="white" stroke="#bfbfbf" points="476,-168.5 476,-187.5 524,-187.5 524,-168.5 476,-168.5"/>
<text text-anchor="middle" x="500" y="-175.5" font-family="Helvetica,sans-Serif" font-size="10.00">mutex</text>
</a>
</g>
</g>
<!-- Node7&#45;&gt;Node13 -->
<g id="edge20" class="edge">
<title>Node7&#45;&gt;Node13</title>
<path fill="none" stroke="midnightblue" d="M432.85,-224.32C445.22,-215.98 464.13,-203.21 478.74,-193.35"/>
<polygon fill="midnightblue" stroke="midnightblue" points="480.85,-196.15 487.18,-187.65 476.93,-190.35 480.85,-196.15"/>
</g>
<!-- Node8&#45;&gt;Node5 -->
<g id="edge13" class="edge">
<title>Node8&#45;&gt;Node5</title>
<path fill="none" stroke="midnightblue" d="M205.41,-168.48C162.98,-160.91 109.8,-148.48 95,-132 69.63,-103.75 70.41,-56.03 73.2,-29.76"/>
<polygon fill="midnightblue" stroke="midnightblue" points="76.7,-29.99 74.49,-19.63 69.76,-29.11 76.7,-29.99"/>
</g>
<!-- Node8&#45;&gt;Node9 -->
<g id="edge9" class="edge">
<title>Node8&#45;&gt;Node9</title>
<path fill="none" stroke="midnightblue" d="M271.48,-168.32C280.2,-160.34 293.34,-148.31 303.9,-138.65"/>
<polygon fill="midnightblue" stroke="midnightblue" points="306.33,-141.17 311.35,-131.83 301.61,-136 306.33,-141.17"/>
</g>
<!-- Node9&#45;&gt;Node3 -->
<g id="edge10" class="edge">
<title>Node9&#45;&gt;Node3</title>
<path fill="none" stroke="midnightblue" d="M333.37,-112.32C345.16,-104.06 363.13,-91.45 377.14,-81.63"/>
<polygon fill="midnightblue" stroke="midnightblue" points="379.48,-84.26 385.66,-75.65 375.46,-78.53 379.48,-84.26"/>
</g>
<!-- Node9&#45;&gt;Node4 -->
<g id="edge11" class="edge">
<title>Node9&#45;&gt;Node4</title>
<path fill="none" stroke="midnightblue" d="M324.69,-112.37C332.34,-94.46 350.09,-52.92 360.33,-28.95"/>
<polygon fill="midnightblue" stroke="midnightblue" points="363.62,-30.16 364.33,-19.59 357.18,-27.41 363.62,-30.16"/>
</g>
<!-- Node9&#45;&gt;Node6 -->
<g id="edge12" class="edge">
<title>Node9&#45;&gt;Node6</title>
<path fill="none" stroke="midnightblue" d="M368.44,-112.46C485.25,-91.43 785.12,-37.44 892.78,-18.06"/>
<polygon fill="midnightblue" stroke="midnightblue" points="893.66,-21.46 902.88,-16.24 892.42,-14.57 893.66,-21.46"/>
</g>
<!-- Node14&#45;&gt;Node4 -->
<g id="edge22" class="edge">
<title>Node14&#45;&gt;Node4</title>
<path fill="none" stroke="midnightblue" d="M150.52,-112.37C191.79,-93.13 291.52,-46.65 340.26,-23.93"/>
<polygon fill="midnightblue" stroke="midnightblue" points="341.98,-26.99 349.57,-19.59 339.03,-20.64 341.98,-26.99"/>
</g>
<!-- Node16&#45;&gt;Node3 -->
<g id="edge27" class="edge">
<title>Node16&#45;&gt;Node3</title>
<path fill="none" stroke="midnightblue" d="M663.1,-168.43C641.97,-159.66 608.46,-145.44 580,-132 562.38,-123.68 559.02,-119.39 541,-112 507.4,-98.21 467.94,-86.09 438.99,-77.9"/>
<polygon fill="midnightblue" stroke="midnightblue" points="439.79,-74.49 429.22,-75.18 437.91,-81.24 439.79,-74.49"/>
</g>
<!-- Node16&#45;&gt;Node5 -->
<g id="edge34" class="edge">
<title>Node16&#45;&gt;Node5</title>
<path fill="none" stroke="midnightblue" d="M618.3,-172.14C504.37,-163.43 279.04,-144.88 245,-132 181.41,-107.94 119.89,-53.76 91.83,-26.82"/>
<polygon fill="midnightblue" stroke="midnightblue" points="94.13,-24.18 84.53,-19.7 89.24,-29.19 94.13,-24.18"/>
</g>
<!-- Node16&#45;&gt;Node6 -->
<g id="edge36" class="edge">
<title>Node16&#45;&gt;Node6</title>
<path fill="none" stroke="midnightblue" d="M749.51,-172.38C809.03,-166.76 890.84,-155.03 913,-132 939.33,-104.64 938.17,-56.57 935.06,-30"/>
<polygon fill="midnightblue" stroke="midnightblue" points="938.48,-29.18 933.64,-19.75 931.55,-30.14 938.48,-29.18"/>
</g>
<!-- Node16&#45;&gt;Node10 -->
<g id="edge35" class="edge">
<title>Node16&#45;&gt;Node10</title>
<path fill="none" stroke="midnightblue" d="M643.09,-168.48C606,-160.53 549.64,-147.89 492.2,-132.17"/>
<polygon fill="midnightblue" stroke="midnightblue" points="492.79,-128.7 482.22,-129.41 490.92,-135.44 492.79,-128.7"/>
</g>
<!-- Node16&#45;&gt;Node11 -->
<g id="edge33" class="edge">
<title>Node16&#45;&gt;Node11</title>
<path fill="none" stroke="midnightblue" d="M657.38,-168.44C625.79,-158.29 573.47,-141.47 542.11,-131.39"/>
<polygon fill="midnightblue" stroke="midnightblue" points="542.93,-127.98 532.34,-128.25 540.78,-134.64 542.93,-127.98"/>
</g>
<!-- Node16&#45;&gt;Node14 -->
<g id="edge31" class="edge">
<title>Node16&#45;&gt;Node14</title>
<path fill="none" stroke="midnightblue" d="M618.29,-172.22C500.52,-163.47 257.94,-144.65 174,-132 172.76,-131.81 171.49,-131.61 170.22,-131.4"/>
<polygon fill="midnightblue" stroke="midnightblue" points="170.85,-127.95 160.38,-129.58 169.58,-134.84 170.85,-127.95"/>
</g>
<!-- Node17 -->
<g id="node17" class="node">
<title>Node17</title>
<g id="a_node17"><a xlink:href="ParameterDefinition_8h.xhtml" target="_top" xlink:title="In this file, the header of the ParameterDefinition class is defined.">
<polygon fill="white" stroke="black" points="588.5,-112.5 588.5,-131.5 779.5,-131.5 779.5,-112.5 588.5,-112.5"/>
<text text-anchor="middle" x="684" y="-119.5" font-family="Helvetica,sans-Serif" font-size="10.00">../parameters/ParameterDefinition.h</text>
</a>
</g>
</g>
<!-- Node16&#45;&gt;Node17 -->
<g id="edge28" class="edge">
<title>Node16&#45;&gt;Node17</title>
<path fill="none" stroke="midnightblue" d="M684,-168.08C684,-161.01 684,-150.86 684,-141.99"/>
<polygon fill="midnightblue" stroke="midnightblue" points="687.5,-141.75 684,-131.75 680.5,-141.75 687.5,-141.75"/>
</g>
<!-- Node18 -->
<g id="node18" class="node">
<title>Node18</title>
<g id="a_node18"><a xlink:href="Abortable_8h.xhtml" target="_top" xlink:title="In this file, the header of the Abortable class is defined.">
<polygon fill="white" stroke="black" points="798,-112.5 798,-131.5 904,-131.5 904,-112.5 798,-112.5"/>
<text text-anchor="middle" x="851" y="-119.5" font-family="Helvetica,sans-Serif" font-size="10.00">../utils/Abortable.h</text>
</a>
</g>
</g>
<!-- Node16&#45;&gt;Node18 -->
<g id="edge32" class="edge">
<title>Node16&#45;&gt;Node18</title>
<path fill="none" stroke="midnightblue" d="M710.46,-168.44C738.68,-159.32 783.54,-144.81 814.97,-134.65"/>
<polygon fill="midnightblue" stroke="midnightblue" points="816.22,-137.92 824.66,-131.52 814.07,-131.26 816.22,-137.92"/>
</g>
<!-- Node17&#45;&gt;Node3 -->
<g id="edge29" class="edge">
<title>Node17&#45;&gt;Node3</title>
<path fill="none" stroke="midnightblue" d="M638.68,-112.44C583.75,-102.07 491.98,-84.75 439.05,-74.75"/>
<polygon fill="midnightblue" stroke="midnightblue" points="439.48,-71.27 429,-72.85 438.18,-78.15 439.48,-71.27"/>
</g>
<!-- Node17&#45;&gt;Node4 -->
<g id="edge30" class="edge">
<title>Node17&#45;&gt;Node4</title>
<path fill="none" stroke="midnightblue" d="M659.47,-112.46C602.87,-92.76 463.21,-44.14 399.99,-22.14"/>
<polygon fill="midnightblue" stroke="midnightblue" points="400.77,-18.7 390.18,-18.72 398.47,-25.31 400.77,-18.7"/>
</g>
</g>
</svg>
        <g id="navigator" transform="translate(0 0)" fill="#404254">
                <rect fill="#f2f5e9" fill-opacity="0.5" stroke="#606060" stroke-width=".5" x="0" y="0" width="60" height="60"/>
                <use id="zoomplus" xlink:href="#zoomPlus" x="17" y="9" onmousedown="handleZoom(evt,'in')"/>
                <use id="zoomminus" xlink:href="#zoomMin" x="42" y="9" onmousedown="handleZoom(evt,'out')"/>
                <use id="reset" xlink:href="#resetDef" x="30" y="36" onmousedown="handleReset()"/>
                <g id="arrowUp" xlink:href="#dirArrow" transform="translate(30 24)" onmousedown="handlePan(0,-1)">
                  <use xlink:href="#rim" fill="#404040">
                        <set attributeName="fill" to="#808080" begin="arrowUp.mouseover" end="arrowUp.mouseout"/>
                  </use>
                  <path fill="none" stroke="white" stroke-width="1.5" d="M0,-3.0v7 M-2.5,-0.5L0,-3.0L2.5,-0.5"/>
                </g>
                <g id="arrowRight" xlink:href="#dirArrow" transform="rotate(90) translate(36 -43)" onmousedown="handlePan(1,0)">
                  <use xlink:href="#rim" fill="#404040">
                        <set attributeName="fill" to="#808080" begin="arrowRight.mouseover" end="arrowRight.mouseout"/>
                  </use>
                  <path fill="none" stroke="white" stroke-width="1.5" d="M0,-3.0v7 M-2.5,-0.5L0,-3.0L2.5,-0.5"/>
                </g>
                <g id="arrowDown" xlink:href="#dirArrow" transform="rotate(180) translate(-30 -48)" onmousedown="handlePan(0,1)">
                  <use xlink:href="#rim" fill="#404040">
                        <set attributeName="fill" to="#808080" begin="arrowDown.mouseover" end="arrowDown.mouseout"/>
                  </use>
                  <path fill="none" stroke="white" stroke-width="1.5" d="M0,-3.0v7 M-2.5,-0.5L0,-3.0L2.5,-0.5"/>
                </g>
                <g id="arrowLeft" xlink:href="#dirArrow" transform="rotate(270) translate(-36 17)" onmousedown="handlePan(-1,0)">
                  <use xlink:href="#rim" fill="#404040">
                        <set attributeName="fill" to="#808080" begin="arrowLeft.mouseover" end="arrowLeft.mouseout"/>
                  </use>
                  <path fill="none" stroke="white" stroke-width="1.5" d="M0,-3.0v7 M-2.5,-0.5L0,-3.0L2.5,-0.5"/>
                </g>
        </g>
        <svg viewBox="0 0 15 15" width="100%" height="30px" preserveAspectRatio="xMaxYMin meet">
         <g id="arrow_out" transform="scale(0.3 0.3)">
          <a xlink:href="StatusBar_8cpp__incl_org.svg" target="_base">
           <rect id="button" ry="5" rx="5" y="6" x="6" height="38" width="38"
                fill="#f2f5e9" fill-opacity="0.5" stroke="#606060" stroke-width="1.0"/>
           <path id="arrow"
             d="M 11.500037,31.436501 C 11.940474,20.09759 22.043105,11.32322 32.158766,21.979434 L 37.068811,17.246167 C 37.068811,17.246167 37.088388,32 37.088388,32 L 22.160133,31.978069 C 22.160133,31.978069 26.997745,27.140456 26.997745,27.140456 C 18.528582,18.264221 13.291696,25.230495 11.500037,31.436501 z"
             style="fill:#404040;"/>
          </a>
         </g>
        </svg>
</svg>
