<?xml version="1.0" encoding="UTF-8" standalone="no"?>
<!DOCTYPE svg PUBLIC "-//W3C//DTD SVG 1.1//EN"
 "http://www.w3.org/Graphics/SVG/1.1/DTD/svg11.dtd">
<!-- Generated by graphviz version 2.43.0 (0)
 -->
<!-- Title: src/status/Status.h Pages: 1 -->
<!--zoomable 274 -->
<svg id="main" version="1.1" xmlns="http://www.w3.org/2000/svg" xmlns:xlink="http://www.w3.org/1999/xlink" xml:space="preserve" onload="init(evt)">
<style type="text/css"><![CDATA[
.edge:hover path { stroke: red; }
.edge:hover polygon { stroke: red; fill: red; }
]]></style>
<script type="text/javascript"><![CDATA[
var edges = document.getElementsByTagName('g');
if (edges && edges.length) {
  for (var i=0;i<edges.length;i++) {
    if (edges[i].id.substr(0,4)=='edge') {
      edges[i].setAttribute('class','edge');
    }
  }
}
]]></script>
        <defs>
                <circle id="rim" cx="0" cy="0" r="7"/>
                <circle id="rim2" cx="0" cy="0" r="3.5"/>
                <g id="zoomPlus">
                        <use xlink:href="#rim" fill="#404040">
                                <set attributeName="fill" to="#808080" begin="zoomplus.mouseover" end="zoomplus.mouseout"/>
                        </use>
                        <path d="M-4,0h8M0,-4v8" fill="none" stroke="white" stroke-width="1.5" pointer-events="none"/>
                </g>
                <g id="zoomMin">
                        <use xlink:href="#rim" fill="#404040">
                                <set attributeName="fill" to="#808080" begin="zoomminus.mouseover" end="zoomminus.mouseout"/>
                        </use>
                        <path d="M-4,0h8" fill="none" stroke="white" stroke-width="1.5" pointer-events="none"/>
                </g>
                <g id="dirArrow">
                        <path fill="none" stroke="white" stroke-width="1.5" d="M0,-3.0v7 M-2.5,-0.5L0,-3.0L2.5,-0.5"/>
                </g>
               <g id="resetDef">
                       <use xlink:href="#rim2" fill="#404040">
                               <set attributeName="fill" to="#808080" begin="reset.mouseover" end="reset.mouseout"/>
                       </use>
               </g>
        </defs>

<script type="text/javascript">
var viewWidth = 1224;
var viewHeight = 274;
var sectionId = 'dynsection-1';
</script>
<script xlink:href="svgpan.js"/>
<svg id="graph" class="graph">
<g id="viewport">
<title>src/status/Status.h</title>
<polygon fill="white" stroke="transparent" points="-4,4 -4,-270 1220,-270 1220,4 -4,4"/>
<!-- Node1 -->
<g id="node1" class="node">
<title>Node1</title>
<g id="a_node1"><a xlink:title="In this file, the header of the Status class is defined.">
<polygon fill="#bfbfbf" stroke="black" points="653,-246.5 653,-265.5 760,-265.5 760,-246.5 653,-246.5"/>
<text text-anchor="middle" x="706.5" y="-253.5" font-family="Helvetica,sans-Serif" font-size="10.00">src/status/Status.h</text>
</a>
</g>
</g>
<!-- Node2 -->
<g id="node2" class="node">
<title>Node2</title>
<g id="a_node2"><a xlink:href="Evaluation_8h.xhtml" target="_top" xlink:title="In this file, the header of the Evaluation class is defined.">
<polygon fill="white" stroke="black" points="283,-190.5 283,-209.5 432,-209.5 432,-190.5 283,-190.5"/>
<text text-anchor="middle" x="357.5" y="-197.5" font-family="Helvetica,sans-Serif" font-size="10.00">src/evaluation/Evaluation.h</text>
</a>
</g>
</g>
<!-- Node1&#45;&gt;Node2 -->
<g id="edge1" class="edge">
<title>Node1&#45;&gt;Node2</title>
<path fill="none" stroke="midnightblue" d="M642.47,-245.09C576.54,-234.89 474.88,-219.16 412.48,-209.51"/>
<polygon fill="midnightblue" stroke="midnightblue" points="642.32,-248.61 652.73,-246.68 643.39,-241.69 642.32,-248.61"/>
</g>
<!-- Node12 -->
<g id="node12" class="node">
<title>Node12</title>
<g id="a_node12"><a xlink:href="Optimizer_8h.xhtml" target="_top" xlink:title="In this file, the header of the Optimizer class is defined.">
<polygon fill="white" stroke="black" points="487.5,-190.5 487.5,-209.5 627.5,-209.5 627.5,-190.5 487.5,-190.5"/>
<text text-anchor="middle" x="557.5" y="-197.5" font-family="Helvetica,sans-Serif" font-size="10.00">src/optimizer/Optimizer.h</text>
</a>
</g>
</g>
<!-- Node1&#45;&gt;Node12 -->
<g id="edge14" class="edge">
<title>Node1&#45;&gt;Node12</title>
<path fill="none" stroke="midnightblue" d="M673.13,-242.91C645.12,-232.75 605.8,-218.51 581,-209.52"/>
<polygon fill="midnightblue" stroke="midnightblue" points="672.3,-246.33 682.89,-246.44 674.68,-239.75 672.3,-246.33"/>
</g>
<!-- Node16 -->
<g id="node16" class="node">
<title>Node16</title>
<g id="a_node16"><a xlink:href="SimulationRunner_8h.xhtml" target="_top" xlink:title="In this file, the header of the SimulationRunner class is defined.">
<polygon fill="white" stroke="black" points="785.5,-190.5 785.5,-209.5 949.5,-209.5 949.5,-190.5 785.5,-190.5"/>
<text text-anchor="middle" x="867.5" y="-197.5" font-family="Helvetica,sans-Serif" font-size="10.00">src/runner/SimulationRunner.h</text>
</a>
</g>
</g>
<!-- Node1&#45;&gt;Node16 -->
<g id="edge21" class="edge">
<title>Node1&#45;&gt;Node16</title>
<path fill="none" stroke="midnightblue" d="M741.76,-243.17C772.08,-233 815.07,-218.59 842.11,-209.52"/>
<polygon fill="midnightblue" stroke="midnightblue" points="740.38,-239.95 732.01,-246.44 742.6,-246.58 740.38,-239.95"/>
</g>
<!-- Node20 -->
<g id="node20" class="node">
<title>Node20</title>
<g id="a_node20"><a xlink:href="StatusBar_8h.xhtml" target="_top" xlink:title="In this file, the header of the StatusBar class is defined.">
<polygon fill="white" stroke="black" points="645.5,-190.5 645.5,-209.5 767.5,-209.5 767.5,-190.5 645.5,-190.5"/>
<text text-anchor="middle" x="706.5" y="-197.5" font-family="Helvetica,sans-Serif" font-size="10.00">src/status/StatusBar.h</text>
</a>
</g>
</g>
<!-- Node1&#45;&gt;Node20 -->
<g id="edge27" class="edge">
<title>Node1&#45;&gt;Node20</title>
<path fill="none" stroke="midnightblue" d="M706.5,-235.8C706.5,-226.91 706.5,-216.78 706.5,-209.75"/>
<polygon fill="midnightblue" stroke="midnightblue" points="703,-236.08 706.5,-246.08 710,-236.08 703,-236.08"/>
</g>
<!-- Node21 -->
<g id="node21" class="node">
<title>Node21</title>
<g id="a_node21"><a xlink:href="Status_8cpp.xhtml" target="_top" xlink:title="In this file, the implementation of the Status class is defined.">
<polygon fill="white" stroke="black" points="967.5,-190.5 967.5,-209.5 1085.5,-209.5 1085.5,-190.5 967.5,-190.5"/>
<text text-anchor="middle" x="1026.5" y="-197.5" font-family="Helvetica,sans-Serif" font-size="10.00">src/status/Status.cpp</text>
</a>
</g>
</g>
<!-- Node1&#45;&gt;Node21 -->
<g id="edge30" class="edge">
<title>Node1&#45;&gt;Node21</title>
<path fill="none" stroke="midnightblue" d="M767.37,-244.73C827.84,-234.52 919.49,-219.06 976.03,-209.52"/>
<polygon fill="midnightblue" stroke="midnightblue" points="766.48,-241.33 757.2,-246.44 767.65,-248.23 766.48,-241.33"/>
</g>
<!-- Node3 -->
<g id="node3" class="node">
<title>Node3</title>
<g id="a_node3"><a xlink:href="Controller_8h.xhtml" target="_top" xlink:title="In this file, the header of the Controller class is defined.">
<polygon fill="white" stroke="black" points="536.5,-129 536.5,-148 676.5,-148 676.5,-129 536.5,-129"/>
<text text-anchor="middle" x="606.5" y="-136" font-family="Helvetica,sans-Serif" font-size="10.00">src/controller/Controller.h</text>
</a>
</g>
</g>
<!-- Node2&#45;&gt;Node3 -->
<g id="edge2" class="edge">
<title>Node2&#45;&gt;Node3</title>
<path fill="none" stroke="midnightblue" d="M403.06,-188.11C451.39,-176.57 526.73,-158.56 570.89,-148.01"/>
<polygon fill="midnightblue" stroke="midnightblue" points="402.09,-184.75 393.18,-190.48 403.72,-191.56 402.09,-184.75"/>
</g>
<!-- Node9 -->
<g id="node9" class="node">
<title>Node9</title>
<g id="a_node9"><a xlink:href="ConstantHeadway_8h.xhtml" target="_top" xlink:title="In this file, the header of the ConstantHeadway class is defined.">
<polygon fill="white" stroke="black" points="5.5,-123.5 5.5,-153.5 171.5,-153.5 171.5,-123.5 5.5,-123.5"/>
<text text-anchor="start" x="13.5" y="-141.5" font-family="Helvetica,sans-Serif" font-size="10.00">src/evaluation/constant</text>
<text text-anchor="middle" x="88.5" y="-130.5" font-family="Helvetica,sans-Serif" font-size="10.00">_headway/ConstantHeadway.h</text>
</a>
</g>
</g>
<!-- Node2&#45;&gt;Node9 -->
<g id="edge10" class="edge">
<title>Node2&#45;&gt;Node9</title>
<path fill="none" stroke="midnightblue" d="M309.09,-188.29C265.13,-178.57 200,-164.16 151.9,-153.52"/>
<polygon fill="midnightblue" stroke="midnightblue" points="308.44,-191.73 318.96,-190.48 309.95,-184.9 308.44,-191.73"/>
</g>
<!-- Node11 -->
<g id="node11" class="node">
<title>Node11</title>
<g id="a_node11"><a xlink:href="Evaluation_8cpp.xhtml" target="_top" xlink:title="In this file, the implementation of the Evaluation class is defined.">
<polygon fill="white" stroke="black" points="190,-129 190,-148 351,-148 351,-129 190,-129"/>
<text text-anchor="middle" x="270.5" y="-136" font-family="Helvetica,sans-Serif" font-size="10.00">src/evaluation/Evaluation.cpp</text>
</a>
</g>
</g>
<!-- Node2&#45;&gt;Node11 -->
<g id="edge13" class="edge">
<title>Node2&#45;&gt;Node11</title>
<path fill="none" stroke="midnightblue" d="M336.46,-184.61C319.73,-173.17 296.89,-157.55 282.94,-148.01"/>
<polygon fill="midnightblue" stroke="midnightblue" points="334.8,-187.72 345.04,-190.48 338.76,-181.94 334.8,-187.72"/>
</g>
<!-- Node4 -->
<g id="node4" class="node">
<title>Node4</title>
<g id="a_node4"><a xlink:href="Controller_8cpp.xhtml" target="_top" xlink:title="In this file, the implementation of the Controller class is defined.">
<polygon fill="white" stroke="black" points="483,-0.5 483,-19.5 634,-19.5 634,-0.5 483,-0.5"/>
<text text-anchor="middle" x="558.5" y="-7.5" font-family="Helvetica,sans-Serif" font-size="10.00">src/controller/Controller.cpp</text>
</a>
</g>
</g>
<!-- Node3&#45;&gt;Node4 -->
<g id="edge3" class="edge">
<title>Node3&#45;&gt;Node4</title>
<path fill="none" stroke="midnightblue" d="M604.67,-118.33C602.56,-101.39 598.19,-76.3 589.5,-56 583.6,-42.22 573.18,-28.31 566.06,-19.68"/>
<polygon fill="midnightblue" stroke="midnightblue" points="601.23,-119.03 605.8,-128.59 608.19,-118.27 601.23,-119.03"/>
</g>
<!-- Node5 -->
<g id="node5" class="node">
<title>Node5</title>
<g id="a_node5"><a xlink:href="StubController_8h.xhtml" target="_top" xlink:title="In this file, the header of the StubController class is defined.">
<polygon fill="white" stroke="black" points="676,-62 676,-81 837,-81 837,-62 676,-62"/>
<text text-anchor="middle" x="756.5" y="-69" font-family="Helvetica,sans-Serif" font-size="10.00">src/controller/StubController.h</text>
</a>
</g>
</g>
<!-- Node3&#45;&gt;Node5 -->
<g id="edge4" class="edge">
<title>Node3&#45;&gt;Node5</title>
<path fill="none" stroke="midnightblue" d="M635.85,-124.78C665.56,-111.91 710.68,-92.35 736.5,-81.17"/>
<polygon fill="midnightblue" stroke="midnightblue" points="634.2,-121.68 626.42,-128.87 636.99,-128.1 634.2,-121.68"/>
</g>
<!-- Node7 -->
<g id="node7" class="node">
<title>Node7</title>
<g id="a_node7"><a xlink:href="main_8cpp.xhtml" target="_top" xlink:title="In this file, the main function running the Simopticon framework is defined.">
<polygon fill="white" stroke="black" points="843,-0.5 843,-19.5 922,-19.5 922,-0.5 843,-0.5"/>
<text text-anchor="middle" x="882.5" y="-7.5" font-family="Helvetica,sans-Serif" font-size="10.00">src/main.cpp</text>
</a>
</g>
</g>
<!-- Node3&#45;&gt;Node7 -->
<g id="edge8" class="edge">
<title>Node3&#45;&gt;Node7</title>
<path fill="none" stroke="midnightblue" d="M662.04,-127.04C730.35,-113.98 838.23,-92.68 845.5,-87 867.71,-69.66 877.42,-35.58 880.88,-19.62"/>
<polygon fill="midnightblue" stroke="midnightblue" points="661.02,-123.67 651.85,-128.98 662.33,-130.54 661.02,-123.67"/>
</g>
<!-- Node8 -->
<g id="node8" class="node">
<title>Node8</title>
<g id="a_node8"><a xlink:href="Optimizer_8cpp.xhtml" target="_top" xlink:title="In this file, the implementation of the Optimizer class is defined.">
<polygon fill="white" stroke="black" points="430,-62 430,-81 581,-81 581,-62 430,-62"/>
<text text-anchor="middle" x="505.5" y="-69" font-family="Helvetica,sans-Serif" font-size="10.00">src/optimizer/Optimizer.cpp</text>
</a>
</g>
</g>
<!-- Node3&#45;&gt;Node8 -->
<g id="edge9" class="edge">
<title>Node3&#45;&gt;Node8</title>
<path fill="none" stroke="midnightblue" d="M584.39,-123.27C564.39,-110.4 535.61,-91.88 518.91,-81.13"/>
<polygon fill="midnightblue" stroke="midnightblue" points="582.58,-126.27 592.88,-128.73 586.36,-120.38 582.58,-126.27"/>
</g>
<!-- Node5&#45;&gt;Node4 -->
<g id="edge6" class="edge">
<title>Node5&#45;&gt;Node4</title>
<path fill="none" stroke="midnightblue" d="M718.33,-59.03C679.84,-47.46 621.34,-29.88 586.82,-19.51"/>
<polygon fill="midnightblue" stroke="midnightblue" points="717.55,-62.45 728.13,-61.98 719.56,-55.75 717.55,-62.45"/>
</g>
<!-- Node6 -->
<g id="node6" class="node">
<title>Node6</title>
<g id="a_node6"><a xlink:href="StubController_8cpp.xhtml" target="_top" xlink:title="In this file, the implementation of the StubController class is defined.">
<polygon fill="white" stroke="black" points="652,-0.5 652,-19.5 825,-19.5 825,-0.5 652,-0.5"/>
<text text-anchor="middle" x="738.5" y="-7.5" font-family="Helvetica,sans-Serif" font-size="10.00">src/controller/StubController.cpp</text>
</a>
</g>
</g>
<!-- Node5&#45;&gt;Node6 -->
<g id="edge5" class="edge">
<title>Node5&#45;&gt;Node6</title>
<path fill="none" stroke="midnightblue" d="M750.95,-52.16C747.66,-41.27 743.64,-27.99 741.07,-19.51"/>
<polygon fill="midnightblue" stroke="midnightblue" points="747.68,-53.42 753.92,-61.98 754.38,-51.39 747.68,-53.42"/>
</g>
<!-- Node5&#45;&gt;Node7 -->
<g id="edge7" class="edge">
<title>Node5&#45;&gt;Node7</title>
<path fill="none" stroke="midnightblue" d="M783.66,-57.67C808.11,-46.13 843.35,-29.49 864.48,-19.51"/>
<polygon fill="midnightblue" stroke="midnightblue" points="782.1,-54.54 774.55,-61.98 785.09,-60.87 782.1,-54.54"/>
</g>
<!-- Node9&#45;&gt;Node4 -->
<g id="edge11" class="edge">
<title>Node9&#45;&gt;Node4</title>
<path fill="none" stroke="midnightblue" d="M124.51,-118.78C169.66,-95.37 242,-58.06 248.5,-56 326.12,-31.34 419,-20.13 482.74,-15.08"/>
<polygon fill="midnightblue" stroke="midnightblue" points="122.86,-115.7 115.59,-123.41 126.08,-121.91 122.86,-115.7"/>
</g>
<!-- Node10 -->
<g id="node10" class="node">
<title>Node10</title>
<g id="a_node10"><a xlink:href="ConstantHeadway_8cpp.xhtml" target="_top" xlink:title="In this file, the implementation of the ConstantHeadway class is defined.">
<polygon fill="white" stroke="black" points="0,-56.5 0,-86.5 177,-86.5 177,-56.5 0,-56.5"/>
<text text-anchor="start" x="8" y="-74.5" font-family="Helvetica,sans-Serif" font-size="10.00">src/evaluation/constant</text>
<text text-anchor="middle" x="88.5" y="-63.5" font-family="Helvetica,sans-Serif" font-size="10.00">_headway/ConstantHeadway.cpp</text>
</a>
</g>
</g>
<!-- Node9&#45;&gt;Node10 -->
<g id="edge12" class="edge">
<title>Node9&#45;&gt;Node10</title>
<path fill="none" stroke="midnightblue" d="M88.5,-113.11C88.5,-104.15 88.5,-94.32 88.5,-86.58"/>
<polygon fill="midnightblue" stroke="midnightblue" points="85,-113.4 88.5,-123.4 92,-113.4 85,-113.4"/>
</g>
<!-- Node12&#45;&gt;Node3 -->
<g id="edge15" class="edge">
<title>Node12&#45;&gt;Node3</title>
<path fill="none" stroke="midnightblue" d="M570.95,-182.67C580.19,-171.45 592.07,-157.02 599.49,-148.01"/>
<polygon fill="midnightblue" stroke="midnightblue" points="568.18,-180.53 564.52,-190.48 573.58,-184.98 568.18,-180.53"/>
</g>
<!-- Node12&#45;&gt;Node8 -->
<g id="edge19" class="edge">
<title>Node12&#45;&gt;Node8</title>
<path fill="none" stroke="midnightblue" d="M544.25,-181.99C538.44,-173.88 531.95,-163.82 527.5,-154 516.12,-128.91 509.59,-96.72 506.92,-81.38"/>
<polygon fill="midnightblue" stroke="midnightblue" points="541.59,-184.28 550.37,-190.21 547.2,-180.09 541.59,-184.28"/>
</g>
<!-- Node13 -->
<g id="node13" class="node">
<title>Node13</title>
<g id="a_node13"><a xlink:href="DirectOptimizer_8h.xhtml" target="_top" xlink:title="In this file, the header of the DirectOptimizer class is defined.">
<polygon fill="white" stroke="black" points="369,-123.5 369,-153.5 480,-153.5 480,-123.5 369,-123.5"/>
<text text-anchor="start" x="377" y="-141.5" font-family="Helvetica,sans-Serif" font-size="10.00">src/optimizer/direct</text>
<text text-anchor="middle" x="424.5" y="-130.5" font-family="Helvetica,sans-Serif" font-size="10.00">/DirectOptimizer.h</text>
</a>
</g>
</g>
<!-- Node12&#45;&gt;Node13 -->
<g id="edge16" class="edge">
<title>Node12&#45;&gt;Node13</title>
<path fill="none" stroke="midnightblue" d="M529.18,-186.33C507.66,-176.7 478.08,-163.47 455.85,-153.52"/>
<polygon fill="midnightblue" stroke="midnightblue" points="527.89,-189.59 538.44,-190.48 530.75,-183.2 527.89,-189.59"/>
</g>
<!-- Node15 -->
<g id="node15" class="node">
<title>Node15</title>
<g id="a_node15"><a xlink:href="StatusBar_8cpp.xhtml" target="_top" xlink:title="In this file, the implementation of the StatusBar class is defined.">
<polygon fill="white" stroke="black" points="694.5,-129 694.5,-148 828.5,-148 828.5,-129 694.5,-129"/>
<text text-anchor="middle" x="761.5" y="-136" font-family="Helvetica,sans-Serif" font-size="10.00">src/status/StatusBar.cpp</text>
</a>
</g>
</g>
<!-- Node12&#45;&gt;Node15 -->
<g id="edge20" class="edge">
<title>Node12&#45;&gt;Node15</title>
<path fill="none" stroke="midnightblue" d="M596.58,-187.6C636.22,-176.04 696.68,-158.41 732.33,-148.01"/>
<polygon fill="midnightblue" stroke="midnightblue" points="595.35,-184.32 586.73,-190.48 597.31,-191.04 595.35,-184.32"/>
</g>
<!-- Node13&#45;&gt;Node4 -->
<g id="edge17" class="edge">
<title>Node13&#45;&gt;Node4</title>
<path fill="none" stroke="midnightblue" d="M415.84,-113.26C411.22,-95.72 408.65,-72.33 420.5,-56 435.15,-35.81 459.11,-24.5 482.99,-18.23"/>
<polygon fill="midnightblue" stroke="midnightblue" points="412.63,-114.74 418.87,-123.3 419.33,-112.72 412.63,-114.74"/>
</g>
<!-- Node14 -->
<g id="node14" class="node">
<title>Node14</title>
<g id="a_node14"><a xlink:href="DirectOptimizer_8cpp.xhtml" target="_top" xlink:title="In this file, the implementation of the DirectOptimizer class is defined.">
<polygon fill="white" stroke="black" points="257.5,-56.5 257.5,-86.5 373.5,-86.5 373.5,-56.5 257.5,-56.5"/>
<text text-anchor="start" x="265.5" y="-74.5" font-family="Helvetica,sans-Serif" font-size="10.00">src/optimizer/direct</text>
<text text-anchor="middle" x="315.5" y="-63.5" font-family="Helvetica,sans-Serif" font-size="10.00">/DirectOptimizer.cpp</text>
</a>
</g>
</g>
<!-- Node13&#45;&gt;Node14 -->
<g id="edge18" class="edge">
<title>Node13&#45;&gt;Node14</title>
<path fill="none" stroke="midnightblue" d="M391.83,-118.02C374.86,-107.9 354.52,-95.77 339.11,-86.58"/>
<polygon fill="midnightblue" stroke="midnightblue" points="390.47,-121.28 400.85,-123.4 394.05,-115.27 390.47,-121.28"/>
</g>
<!-- Node16&#45;&gt;Node3 -->
<g id="edge22" class="edge">
<title>Node16&#45;&gt;Node3</title>
<path fill="none" stroke="midnightblue" d="M820.06,-188.19C769.42,-176.64 690.21,-158.58 643.83,-148.01"/>
<polygon fill="midnightblue" stroke="midnightblue" points="819.58,-191.66 830.11,-190.48 821.13,-184.84 819.58,-191.66"/>
</g>
<!-- Node17 -->
<g id="node17" class="node">
<title>Node17</title>
<g id="a_node17"><a xlink:href="PlexeSimulationRunner_8h.xhtml" target="_top" xlink:title="In this file, the header of the PlexeSimulationRunner class is defined.">
<polygon fill="white" stroke="black" points="846.5,-123.5 846.5,-153.5 1022.5,-153.5 1022.5,-123.5 846.5,-123.5"/>
<text text-anchor="start" x="854.5" y="-141.5" font-family="Helvetica,sans-Serif" font-size="10.00">src/runner/plexe/PlexeSimulation</text>
<text text-anchor="middle" x="934.5" y="-130.5" font-family="Helvetica,sans-Serif" font-size="10.00">Runner.h</text>
</a>
</g>
</g>
<!-- Node16&#45;&gt;Node17 -->
<g id="edge23" class="edge">
<title>Node16&#45;&gt;Node17</title>
<path fill="none" stroke="midnightblue" d="M884.79,-183.65C895.26,-174.35 908.52,-162.57 918.71,-153.52"/>
<polygon fill="midnightblue" stroke="midnightblue" points="882.25,-181.22 877.1,-190.48 886.9,-186.45 882.25,-181.22"/>
</g>
<!-- Node19 -->
<g id="node19" class="node">
<title>Node19</title>
<g id="a_node19"><a xlink:href="SimulationRunner_8cpp.xhtml" target="_top" xlink:title="In this file, the implementation of the SimulationRunner class is defined.">
<polygon fill="white" stroke="black" points="1041,-129 1041,-148 1216,-148 1216,-129 1041,-129"/>
<text text-anchor="middle" x="1128.5" y="-136" font-family="Helvetica,sans-Serif" font-size="10.00">src/runner/SimulationRunner.cpp</text>
</a>
</g>
</g>
<!-- Node16&#45;&gt;Node19 -->
<g id="edge26" class="edge">
<title>Node16&#45;&gt;Node19</title>
<path fill="none" stroke="midnightblue" d="M914.94,-188.19C965.58,-176.64 1044.79,-158.58 1091.17,-148.01"/>
<polygon fill="midnightblue" stroke="midnightblue" points="913.87,-184.84 904.89,-190.48 915.42,-191.66 913.87,-184.84"/>
</g>
<!-- Node17&#45;&gt;Node4 -->
<g id="edge24" class="edge">
<title>Node17&#45;&gt;Node4</title>
<path fill="none" stroke="midnightblue" d="M839.89,-121.69C769.38,-109.57 682.61,-93.81 666.5,-87 625.95,-69.87 585.48,-35.68 567.77,-19.66"/>
<polygon fill="midnightblue" stroke="midnightblue" points="839.71,-125.22 850.16,-123.45 840.9,-118.32 839.71,-125.22"/>
</g>
<!-- Node18 -->
<g id="node18" class="node">
<title>Node18</title>
<g id="a_node18"><a xlink:href="PlexeSimulationRunner_8cpp.xhtml" target="_top" xlink:title="In this file, the implementation of the PlexeSimulationRunner class is defined.">
<polygon fill="white" stroke="black" points="893.5,-56.5 893.5,-86.5 1069.5,-86.5 1069.5,-56.5 893.5,-56.5"/>
<text text-anchor="start" x="901.5" y="-74.5" font-family="Helvetica,sans-Serif" font-size="10.00">src/runner/plexe/PlexeSimulation</text>
<text text-anchor="middle" x="981.5" y="-63.5" font-family="Helvetica,sans-Serif" font-size="10.00">Runner.cpp</text>
</a>
</g>
</g>
<!-- Node17&#45;&gt;Node18 -->
<g id="edge25" class="edge">
<title>Node17&#45;&gt;Node18</title>
<path fill="none" stroke="midnightblue" d="M950.66,-115.16C957.51,-105.68 965.29,-94.92 971.32,-86.58"/>
<polygon fill="midnightblue" stroke="midnightblue" points="947.72,-113.24 944.7,-123.4 953.39,-117.34 947.72,-113.24"/>
</g>
<!-- Node20&#45;&gt;Node3 -->
<g id="edge28" class="edge">
<title>Node20&#45;&gt;Node3</title>
<path fill="none" stroke="midnightblue" d="M683.38,-185.24C664.06,-173.75 637.13,-157.72 620.8,-148.01"/>
<polygon fill="midnightblue" stroke="midnightblue" points="681.79,-188.37 692.17,-190.48 685.37,-182.35 681.79,-188.37"/>
</g>
<!-- Node20&#45;&gt;Node15 -->
<g id="edge29" class="edge">
<title>Node20&#45;&gt;Node15</title>
<path fill="none" stroke="midnightblue" d="M721.29,-183C731.7,-171.74 745.23,-157.1 753.63,-148.01"/>
<polygon fill="midnightblue" stroke="midnightblue" points="718.6,-180.76 714.38,-190.48 723.74,-185.51 718.6,-180.76"/>
</g>
</g>
</svg>
        <g id="navigator" transform="translate(0 0)" fill="#404254">
                <rect fill="#f2f5e9" fill-opacity="0.5" stroke="#606060" stroke-width=".5" x="0" y="0" width="60" height="60"/>
                <use id="zoomplus" xlink:href="#zoomPlus" x="17" y="9" onmousedown="handleZoom(evt,'in')"/>
                <use id="zoomminus" xlink:href="#zoomMin" x="42" y="9" onmousedown="handleZoom(evt,'out')"/>
                <use id="reset" xlink:href="#resetDef" x="30" y="36" onmousedown="handleReset()"/>
                <g id="arrowUp" xlink:href="#dirArrow" transform="translate(30 24)" onmousedown="handlePan(0,-1)">
                  <use xlink:href="#rim" fill="#404040">
                        <set attributeName="fill" to="#808080" begin="arrowUp.mouseover" end="arrowUp.mouseout"/>
                  </use>
                  <path fill="none" stroke="white" stroke-width="1.5" d="M0,-3.0v7 M-2.5,-0.5L0,-3.0L2.5,-0.5"/>
                </g>
                <g id="arrowRight" xlink:href="#dirArrow" transform="rotate(90) translate(36 -43)" onmousedown="handlePan(1,0)">
                  <use xlink:href="#rim" fill="#404040">
                        <set attributeName="fill" to="#808080" begin="arrowRight.mouseover" end="arrowRight.mouseout"/>
                  </use>
                  <path fill="none" stroke="white" stroke-width="1.5" d="M0,-3.0v7 M-2.5,-0.5L0,-3.0L2.5,-0.5"/>
                </g>
                <g id="arrowDown" xlink:href="#dirArrow" transform="rotate(180) translate(-30 -48)" onmousedown="handlePan(0,1)">
                  <use xlink:href="#rim" fill="#404040">
                        <set attributeName="fill" to="#808080" begin="arrowDown.mouseover" end="arrowDown.mouseout"/>
                  </use>
                  <path fill="none" stroke="white" stroke-width="1.5" d="M0,-3.0v7 M-2.5,-0.5L0,-3.0L2.5,-0.5"/>
                </g>
                <g id="arrowLeft" xlink:href="#dirArrow" transform="rotate(270) translate(-36 17)" onmousedown="handlePan(-1,0)">
                  <use xlink:href="#rim" fill="#404040">
                        <set attributeName="fill" to="#808080" begin="arrowLeft.mouseover" end="arrowLeft.mouseout"/>
                  </use>
                  <path fill="none" stroke="white" stroke-width="1.5" d="M0,-3.0v7 M-2.5,-0.5L0,-3.0L2.5,-0.5"/>
                </g>
        </g>
        <svg viewBox="0 0 15 15" width="100%" height="30px" preserveAspectRatio="xMaxYMin meet">
         <g id="arrow_out" transform="scale(0.3 0.3)">
          <a xlink:href="Status_8h__dep__incl_org.svg" target="_base">
           <rect id="button" ry="5" rx="5" y="6" x="6" height="38" width="38"
                fill="#f2f5e9" fill-opacity="0.5" stroke="#606060" stroke-width="1.0"/>
           <path id="arrow"
             d="M 11.500037,31.436501 C 11.940474,20.09759 22.043105,11.32322 32.158766,21.979434 L 37.068811,17.246167 C 37.068811,17.246167 37.088388,32 37.088388,32 L 22.160133,31.978069 C 22.160133,31.978069 26.997745,27.140456 26.997745,27.140456 C 18.528582,18.264221 13.291696,25.230495 11.500037,31.436501 z"
             style="fill:#404040;"/>
          </a>
         </g>
        </svg>
</svg>
