<?xml version="1.0" encoding="UTF-8" standalone="no"?>
<!DOCTYPE svg PUBLIC "-//W3C//DTD SVG 1.1//EN"
 "http://www.w3.org/Graphics/SVG/1.1/DTD/svg11.dtd">
<!-- Generated by graphviz version 2.43.0 (0)
 -->
<!-- Title: /home/runner/work/Simopticon/Simopticon/src/status/Status.h Pages: 1 -->
<!--zoomable 351 -->
<svg id="main" version="1.1" xmlns="http://www.w3.org/2000/svg" xmlns:xlink="http://www.w3.org/1999/xlink" xml:space="preserve" onload="init(evt)">
<style type="text/css"><![CDATA[
.edge:hover path { stroke: red; }
.edge:hover polygon { stroke: red; fill: red; }
]]></style>
<script type="text/javascript"><![CDATA[
var edges = document.getElementsByTagName('g');
if (edges && edges.length) {
  for (var i=0;i<edges.length;i++) {
    if (edges[i].id.substr(0,4)=='edge') {
      edges[i].setAttribute('class','edge');
    }
  }
}
]]></script>
        <defs>
                <circle id="rim" cx="0" cy="0" r="7"/>
                <circle id="rim2" cx="0" cy="0" r="3.5"/>
                <g id="zoomPlus">
                        <use xlink:href="#rim" fill="#404040">
                                <set attributeName="fill" to="#808080" begin="zoomplus.mouseover" end="zoomplus.mouseout"/>
                        </use>
                        <path d="M-4,0h8M0,-4v8" fill="none" stroke="white" stroke-width="1.5" pointer-events="none"/>
                </g>
                <g id="zoomMin">
                        <use xlink:href="#rim" fill="#404040">
                                <set attributeName="fill" to="#808080" begin="zoomminus.mouseover" end="zoomminus.mouseout"/>
                        </use>
                        <path d="M-4,0h8" fill="none" stroke="white" stroke-width="1.5" pointer-events="none"/>
                </g>
                <g id="dirArrow">
                        <path fill="none" stroke="white" stroke-width="1.5" d="M0,-3.0v7 M-2.5,-0.5L0,-3.0L2.5,-0.5"/>
                </g>
               <g id="resetDef">
                       <use xlink:href="#rim2" fill="#404040">
                               <set attributeName="fill" to="#808080" begin="reset.mouseover" end="reset.mouseout"/>
                       </use>
               </g>
        </defs>

<script type="text/javascript">
var viewWidth = 1818;
var viewHeight = 351;
var sectionId = 'dynsection-1';
</script>
<script xlink:href="svgpan.js"/>
<svg id="graph" class="graph">
<g id="viewport">
<title>/home/runner/work/Simopticon/Simopticon/src/status/Status.h</title>
<polygon fill="white" stroke="transparent" points="-4,4 -4,-347 1813.5,-347 1813.5,4 -4,4"/>
<!-- Node1 -->
<g id="node1" class="node">
<title>Node1</title>
<g id="a_node1"><a xlink:title="In this file, the header of the Status class is defined.">
<polygon fill="#bfbfbf" stroke="black" points="1087,-312.5 1087,-342.5 1254,-342.5 1254,-312.5 1087,-312.5"/>
<text text-anchor="start" x="1095" y="-330.5" font-family="Helvetica,sans-Serif" font-size="10.00">/home/runner/work/Simopticon</text>
<text text-anchor="middle" x="1170.5" y="-319.5" font-family="Helvetica,sans-Serif" font-size="10.00">/Simopticon/src/status/Status.h</text>
</a>
</g>
</g>
<!-- Node2 -->
<g id="node2" class="node">
<title>Node2</title>
<g id="a_node2"><a xlink:href="Evaluation_8h.xhtml" target="_top" xlink:title="In this file, the header of the Evaluation class is defined.">
<polygon fill="white" stroke="black" points="479,-234.5 479,-275.5 646,-275.5 646,-234.5 479,-234.5"/>
<text text-anchor="start" x="487" y="-263.5" font-family="Helvetica,sans-Serif" font-size="10.00">/home/runner/work/Simopticon</text>
<text text-anchor="start" x="487" y="-252.5" font-family="Helvetica,sans-Serif" font-size="10.00">/Simopticon/src/evaluation</text>
<text text-anchor="middle" x="562.5" y="-241.5" font-family="Helvetica,sans-Serif" font-size="10.00">/Evaluation.h</text>
</a>
</g>
</g>
<!-- Node1&#45;&gt;Node2 -->
<g id="edge1" class="edge">
<title>Node1&#45;&gt;Node2</title>
<path fill="none" stroke="midnightblue" d="M1076.84,-315.64C959.13,-301.99 758.9,-278.77 646.12,-265.7"/>
<polygon fill="midnightblue" stroke="midnightblue" points="1076.58,-319.13 1086.92,-316.81 1077.39,-312.18 1076.58,-319.13"/>
</g>
<!-- Node12 -->
<g id="node12" class="node">
<title>Node12</title>
<g id="a_node12"><a xlink:href="Optimizer_8h.xhtml" target="_top" xlink:title="In this file, the header of the Optimizer class is defined.">
<polygon fill="white" stroke="black" points="894,-234.5 894,-275.5 1061,-275.5 1061,-234.5 894,-234.5"/>
<text text-anchor="start" x="902" y="-263.5" font-family="Helvetica,sans-Serif" font-size="10.00">/home/runner/work/Simopticon</text>
<text text-anchor="start" x="902" y="-252.5" font-family="Helvetica,sans-Serif" font-size="10.00">/Simopticon/src/optimizer</text>
<text text-anchor="middle" x="977.5" y="-241.5" font-family="Helvetica,sans-Serif" font-size="10.00">/Optimizer.h</text>
</a>
</g>
</g>
<!-- Node1&#45;&gt;Node12 -->
<g id="edge14" class="edge">
<title>Node1&#45;&gt;Node12</title>
<path fill="none" stroke="midnightblue" d="M1122.41,-308.93C1094.64,-298.79 1059.65,-286.01 1031.01,-275.55"/>
<polygon fill="midnightblue" stroke="midnightblue" points="1121.31,-312.26 1131.91,-312.4 1123.72,-305.68 1121.31,-312.26"/>
</g>
<!-- Node20 -->
<g id="node20" class="node">
<title>Node20</title>
<g id="a_node20"><a xlink:href="SimulationRunner_8h.xhtml" target="_top" xlink:title="In this file, the header of the SimulationRunner class is defined.">
<polygon fill="white" stroke="black" points="1280.5,-234.5 1280.5,-275.5 1462.5,-275.5 1462.5,-234.5 1280.5,-234.5"/>
<text text-anchor="start" x="1288.5" y="-263.5" font-family="Helvetica,sans-Serif" font-size="10.00">/home/runner/work/Simopticon</text>
<text text-anchor="start" x="1288.5" y="-252.5" font-family="Helvetica,sans-Serif" font-size="10.00">/Simopticon/src/runner/Simulation</text>
<text text-anchor="middle" x="1371.5" y="-241.5" font-family="Helvetica,sans-Serif" font-size="10.00">Runner.h</text>
</a>
</g>
</g>
<!-- Node1&#45;&gt;Node20 -->
<g id="edge27" class="edge">
<title>Node1&#45;&gt;Node20</title>
<path fill="none" stroke="midnightblue" d="M1220.21,-309.07C1249.19,-298.9 1285.82,-286.05 1315.77,-275.55"/>
<polygon fill="midnightblue" stroke="midnightblue" points="1218.97,-305.79 1210.69,-312.4 1221.29,-312.4 1218.97,-305.79"/>
</g>
<!-- Node24 -->
<g id="node24" class="node">
<title>Node24</title>
<g id="a_node24"><a xlink:href="StatusBar_8h.xhtml" target="_top" xlink:title="In this file, the header of the StatusBar class is defined.">
<polygon fill="white" stroke="black" points="1079,-240 1079,-270 1262,-270 1262,-240 1079,-240"/>
<text text-anchor="start" x="1087" y="-258" font-family="Helvetica,sans-Serif" font-size="10.00">/home/runner/work/Simopticon</text>
<text text-anchor="middle" x="1170.5" y="-247" font-family="Helvetica,sans-Serif" font-size="10.00">/Simopticon/src/status/StatusBar.h</text>
</a>
</g>
</g>
<!-- Node1&#45;&gt;Node24 -->
<g id="edge33" class="edge">
<title>Node1&#45;&gt;Node24</title>
<path fill="none" stroke="midnightblue" d="M1170.5,-302.23C1170.5,-291.57 1170.5,-279.41 1170.5,-270.25"/>
<polygon fill="midnightblue" stroke="midnightblue" points="1167,-302.23 1170.5,-312.23 1174,-302.23 1167,-302.23"/>
</g>
<!-- Node25 -->
<g id="node25" class="node">
<title>Node25</title>
<g id="a_node25"><a xlink:href="Status_8cpp.xhtml" target="_top" xlink:title="In this file, the implementation of the Status class is defined.">
<polygon fill="white" stroke="black" points="1481,-240 1481,-270 1660,-270 1660,-240 1481,-240"/>
<text text-anchor="start" x="1489" y="-258" font-family="Helvetica,sans-Serif" font-size="10.00">/home/runner/work/Simopticon</text>
<text text-anchor="middle" x="1570.5" y="-247" font-family="Helvetica,sans-Serif" font-size="10.00">/Simopticon/src/status/Status.cpp</text>
</a>
</g>
</g>
<!-- Node1&#45;&gt;Node25 -->
<g id="edge36" class="edge">
<title>Node1&#45;&gt;Node25</title>
<path fill="none" stroke="midnightblue" d="M1264.44,-311.56C1323.88,-301.9 1402.3,-288.79 1471.5,-276 1481.59,-274.14 1492.23,-272.08 1502.66,-270.01"/>
<polygon fill="midnightblue" stroke="midnightblue" points="1263.63,-308.15 1254.32,-313.2 1264.75,-315.06 1263.63,-308.15"/>
</g>
<!-- Node3 -->
<g id="node3" class="node">
<title>Node3</title>
<g id="a_node3"><a xlink:href="ConstantHeadway_8h.xhtml" target="_top" xlink:title="In this file, the header of the ConstantHeadway class is defined.">
<polygon fill="white" stroke="black" points="185,-156.5 185,-197.5 396,-197.5 396,-156.5 185,-156.5"/>
<text text-anchor="start" x="193" y="-185.5" font-family="Helvetica,sans-Serif" font-size="10.00">/home/runner/work/Simopticon</text>
<text text-anchor="start" x="193" y="-174.5" font-family="Helvetica,sans-Serif" font-size="10.00">/Simopticon/src/evaluation</text>
<text text-anchor="middle" x="290.5" y="-163.5" font-family="Helvetica,sans-Serif" font-size="10.00">/constant_headway/ConstantHeadway.h</text>
</a>
</g>
</g>
<!-- Node2&#45;&gt;Node3 -->
<g id="edge2" class="edge">
<title>Node2&#45;&gt;Node3</title>
<path fill="none" stroke="midnightblue" d="M482.76,-231.72C443.94,-220.87 397.71,-207.96 360.31,-197.51"/>
<polygon fill="midnightblue" stroke="midnightblue" points="481.88,-235.11 492.45,-234.43 483.76,-228.37 481.88,-235.11"/>
</g>
<!-- Node6 -->
<g id="node6" class="node">
<title>Node6</title>
<g id="a_node6"><a xlink:href="Evaluation_8cpp.xhtml" target="_top" xlink:title="In this file, the implementation of the Evaluation class is defined.">
<polygon fill="white" stroke="black" points="0,-156.5 0,-197.5 167,-197.5 167,-156.5 0,-156.5"/>
<text text-anchor="start" x="8" y="-185.5" font-family="Helvetica,sans-Serif" font-size="10.00">/home/runner/work/Simopticon</text>
<text text-anchor="start" x="8" y="-174.5" font-family="Helvetica,sans-Serif" font-size="10.00">/Simopticon/src/evaluation</text>
<text text-anchor="middle" x="83.5" y="-163.5" font-family="Helvetica,sans-Serif" font-size="10.00">/Evaluation.cpp</text>
</a>
</g>
</g>
<!-- Node2&#45;&gt;Node6 -->
<g id="edge5" class="edge">
<title>Node2&#45;&gt;Node6</title>
<path fill="none" stroke="midnightblue" d="M468.45,-242.27C389.9,-232.03 275.08,-216 175.5,-198 172.77,-197.51 169.99,-196.99 167.19,-196.45"/>
<polygon fill="midnightblue" stroke="midnightblue" points="468.44,-245.8 478.81,-243.62 469.34,-238.86 468.44,-245.8"/>
</g>
<!-- Node7 -->
<g id="node7" class="node">
<title>Node7</title>
<g id="a_node7"><a xlink:href="Controller_8h.xhtml" target="_top" xlink:title="In this file, the header of the Controller class is defined.">
<polygon fill="white" stroke="black" points="1046,-156.5 1046,-197.5 1213,-197.5 1213,-156.5 1046,-156.5"/>
<text text-anchor="start" x="1054" y="-185.5" font-family="Helvetica,sans-Serif" font-size="10.00">/home/runner/work/Simopticon</text>
<text text-anchor="start" x="1054" y="-174.5" font-family="Helvetica,sans-Serif" font-size="10.00">/Simopticon/src/controller</text>
<text text-anchor="middle" x="1129.5" y="-163.5" font-family="Helvetica,sans-Serif" font-size="10.00">/Controller.h</text>
</a>
</g>
</g>
<!-- Node2&#45;&gt;Node7 -->
<g id="edge6" class="edge">
<title>Node2&#45;&gt;Node7</title>
<path fill="none" stroke="midnightblue" d="M656.38,-242.66C744.94,-231.81 881.36,-214.66 999.5,-198 1014.54,-195.88 1030.53,-193.51 1045.98,-191.17"/>
<polygon fill="midnightblue" stroke="midnightblue" points="655.86,-239.2 646.36,-243.89 656.71,-246.15 655.86,-239.2"/>
</g>
<!-- Node4 -->
<g id="node4" class="node">
<title>Node4</title>
<g id="a_node4"><a xlink:href="ConstantHeadway_8cpp.xhtml" target="_top" xlink:title="In this file, the implementation of the ConstantHeadway class is defined.">
<polygon fill="white" stroke="black" points="49.5,-78.5 49.5,-119.5 271.5,-119.5 271.5,-78.5 49.5,-78.5"/>
<text text-anchor="start" x="57.5" y="-107.5" font-family="Helvetica,sans-Serif" font-size="10.00">/home/runner/work/Simopticon</text>
<text text-anchor="start" x="57.5" y="-96.5" font-family="Helvetica,sans-Serif" font-size="10.00">/Simopticon/src/evaluation</text>
<text text-anchor="middle" x="160.5" y="-85.5" font-family="Helvetica,sans-Serif" font-size="10.00">/constant_headway/ConstantHeadway.cpp</text>
</a>
</g>
</g>
<!-- Node3&#45;&gt;Node4 -->
<g id="edge3" class="edge">
<title>Node3&#45;&gt;Node4</title>
<path fill="none" stroke="midnightblue" d="M248.08,-151.2C230.49,-140.92 210.38,-129.16 193.86,-119.51"/>
<polygon fill="midnightblue" stroke="midnightblue" points="246.62,-154.4 257.02,-156.43 250.16,-148.36 246.62,-154.4"/>
</g>
<!-- Node5 -->
<g id="node5" class="node">
<title>Node5</title>
<g id="a_node5"><a xlink:href="Controller_8cpp.xhtml" target="_top" xlink:title="In this file, the implementation of the Controller class is defined.">
<polygon fill="white" stroke="black" points="935,-0.5 935,-41.5 1102,-41.5 1102,-0.5 935,-0.5"/>
<text text-anchor="start" x="943" y="-29.5" font-family="Helvetica,sans-Serif" font-size="10.00">/home/runner/work/Simopticon</text>
<text text-anchor="start" x="943" y="-18.5" font-family="Helvetica,sans-Serif" font-size="10.00">/Simopticon/src/controller</text>
<text text-anchor="middle" x="1018.5" y="-7.5" font-family="Helvetica,sans-Serif" font-size="10.00">/Controller.cpp</text>
</a>
</g>
</g>
<!-- Node3&#45;&gt;Node5 -->
<g id="edge4" class="edge">
<title>Node3&#45;&gt;Node5</title>
<path fill="none" stroke="midnightblue" d="M298.33,-146.78C306.08,-123.98 320.36,-93.65 344.5,-78 392.97,-46.59 765.05,-30.38 934.69,-24.56"/>
<polygon fill="midnightblue" stroke="midnightblue" points="294.99,-145.74 295.31,-156.33 301.66,-147.85 294.99,-145.74"/>
</g>
<!-- Node7&#45;&gt;Node5 -->
<g id="edge7" class="edge">
<title>Node7&#45;&gt;Node5</title>
<path fill="none" stroke="midnightblue" d="M1190.33,-151.12C1202.79,-143.09 1214.28,-132.85 1221.5,-120 1230.65,-103.73 1232.81,-92.85 1221.5,-78 1206.6,-58.44 1151.33,-43.97 1102.21,-34.65"/>
<polygon fill="midnightblue" stroke="midnightblue" points="1188.4,-148.2 1181.6,-156.33 1191.98,-154.21 1188.4,-148.2"/>
</g>
<!-- Node8 -->
<g id="node8" class="node">
<title>Node8</title>
<g id="a_node8"><a xlink:href="main_8cpp.xhtml" target="_top" xlink:title="In this file, the main function running the Simopticon framework is defined.">
<polygon fill="white" stroke="black" points="1417,-6 1417,-36 1584,-36 1584,-6 1417,-6"/>
<text text-anchor="start" x="1425" y="-24" font-family="Helvetica,sans-Serif" font-size="10.00">/home/runner/work/Simopticon</text>
<text text-anchor="middle" x="1500.5" y="-13" font-family="Helvetica,sans-Serif" font-size="10.00">/Simopticon/src/main.cpp</text>
</a>
</g>
</g>
<!-- Node7&#45;&gt;Node8 -->
<g id="edge8" class="edge">
<title>Node7&#45;&gt;Node8</title>
<path fill="none" stroke="midnightblue" d="M1223.47,-155.98C1294.3,-147.07 1441.23,-158.16 1481.5,-120 1504.52,-98.19 1504.34,-57.48 1502.36,-36.04"/>
<polygon fill="midnightblue" stroke="midnightblue" points="1222.55,-152.58 1213.18,-157.52 1223.59,-159.5 1222.55,-152.58"/>
</g>
<!-- Node9 -->
<g id="node9" class="node">
<title>Node9</title>
<g id="a_node9"><a xlink:href="StubController_8h.xhtml" target="_top" xlink:title="In this file, the header of the StubController class is defined.">
<polygon fill="white" stroke="black" points="1306,-78.5 1306,-119.5 1473,-119.5 1473,-78.5 1306,-78.5"/>
<text text-anchor="start" x="1314" y="-107.5" font-family="Helvetica,sans-Serif" font-size="10.00">/home/runner/work/Simopticon</text>
<text text-anchor="start" x="1314" y="-96.5" font-family="Helvetica,sans-Serif" font-size="10.00">/Simopticon/src/controller</text>
<text text-anchor="middle" x="1389.5" y="-85.5" font-family="Helvetica,sans-Serif" font-size="10.00">/StubController.h</text>
</a>
</g>
</g>
<!-- Node7&#45;&gt;Node9 -->
<g id="edge9" class="edge">
<title>Node7&#45;&gt;Node9</title>
<path fill="none" stroke="midnightblue" d="M1206.2,-153.58C1243.2,-142.76 1287.17,-129.91 1322.77,-119.51"/>
<polygon fill="midnightblue" stroke="midnightblue" points="1205.07,-150.26 1196.46,-156.43 1207.04,-156.98 1205.07,-150.26"/>
</g>
<!-- Node11 -->
<g id="node11" class="node">
<title>Node11</title>
<g id="a_node11"><a xlink:href="Optimizer_8cpp.xhtml" target="_top" xlink:title="In this file, the implementation of the Optimizer class is defined.">
<polygon fill="white" stroke="black" points="1046,-78.5 1046,-119.5 1213,-119.5 1213,-78.5 1046,-78.5"/>
<text text-anchor="start" x="1054" y="-107.5" font-family="Helvetica,sans-Serif" font-size="10.00">/home/runner/work/Simopticon</text>
<text text-anchor="start" x="1054" y="-96.5" font-family="Helvetica,sans-Serif" font-size="10.00">/Simopticon/src/optimizer</text>
<text text-anchor="middle" x="1129.5" y="-85.5" font-family="Helvetica,sans-Serif" font-size="10.00">/Optimizer.cpp</text>
</a>
</g>
</g>
<!-- Node7&#45;&gt;Node11 -->
<g id="edge13" class="edge">
<title>Node7&#45;&gt;Node11</title>
<path fill="none" stroke="midnightblue" d="M1129.5,-146.3C1129.5,-137.3 1129.5,-127.65 1129.5,-119.51"/>
<polygon fill="midnightblue" stroke="midnightblue" points="1126,-146.43 1129.5,-156.43 1133,-146.43 1126,-146.43"/>
</g>
<!-- Node9&#45;&gt;Node5 -->
<g id="edge11" class="edge">
<title>Node9&#45;&gt;Node5</title>
<path fill="none" stroke="midnightblue" d="M1295.8,-78.68C1294.7,-78.45 1293.59,-78.22 1292.5,-78 1228.65,-64.89 1156.41,-50.13 1102.15,-39.06"/>
<polygon fill="midnightblue" stroke="midnightblue" points="1295.4,-82.17 1305.9,-80.75 1296.81,-75.31 1295.4,-82.17"/>
</g>
<!-- Node9&#45;&gt;Node8 -->
<g id="edge12" class="edge">
<title>Node9&#45;&gt;Node8</title>
<path fill="none" stroke="midnightblue" d="M1426.52,-72.66C1444.23,-60.53 1464.78,-46.45 1479.72,-36.23"/>
<polygon fill="midnightblue" stroke="midnightblue" points="1424.36,-69.89 1418.09,-78.43 1428.31,-75.67 1424.36,-69.89"/>
</g>
<!-- Node10 -->
<g id="node10" class="node">
<title>Node10</title>
<g id="a_node10"><a xlink:href="StubController_8cpp.xhtml" target="_top" xlink:title="In this file, the implementation of the StubController class is defined.">
<polygon fill="white" stroke="black" points="1232,-0.5 1232,-41.5 1399,-41.5 1399,-0.5 1232,-0.5"/>
<text text-anchor="start" x="1240" y="-29.5" font-family="Helvetica,sans-Serif" font-size="10.00">/home/runner/work/Simopticon</text>
<text text-anchor="start" x="1240" y="-18.5" font-family="Helvetica,sans-Serif" font-size="10.00">/Simopticon/src/controller</text>
<text text-anchor="middle" x="1315.5" y="-7.5" font-family="Helvetica,sans-Serif" font-size="10.00">/StubController.cpp</text>
</a>
</g>
</g>
<!-- Node9&#45;&gt;Node10 -->
<g id="edge10" class="edge">
<title>Node9&#45;&gt;Node10</title>
<path fill="none" stroke="midnightblue" d="M1363.41,-71.2C1353.88,-61.42 1343.29,-50.54 1334.49,-41.51"/>
<polygon fill="midnightblue" stroke="midnightblue" points="1360.96,-73.71 1370.44,-78.43 1365.97,-68.82 1360.96,-73.71"/>
</g>
<!-- Node12&#45;&gt;Node7 -->
<g id="edge15" class="edge">
<title>Node12&#45;&gt;Node7</title>
<path fill="none" stroke="midnightblue" d="M1025.68,-229.91C1046.58,-219.46 1070.74,-207.38 1090.49,-197.51"/>
<polygon fill="midnightblue" stroke="midnightblue" points="1024.02,-226.83 1016.64,-234.43 1027.15,-233.09 1024.02,-226.83"/>
</g>
<!-- Node12&#45;&gt;Node11 -->
<g id="edge25" class="edge">
<title>Node12&#45;&gt;Node11</title>
<path fill="none" stroke="midnightblue" d="M990.08,-225.35C1000.34,-204.34 1016.41,-176.09 1036.5,-156 1051.16,-141.34 1070.39,-128.94 1087.56,-119.56"/>
<polygon fill="midnightblue" stroke="midnightblue" points="986.9,-223.9 985.78,-234.44 993.22,-226.9 986.9,-223.9"/>
</g>
<!-- Node13 -->
<g id="node13" class="node">
<title>Node13</title>
<g id="a_node13"><a xlink:href="DirectOptimizer_8h.xhtml" target="_top" xlink:title="In this file, the header of the DirectOptimizer class is defined.">
<polygon fill="white" stroke="black" points="639,-156.5 639,-197.5 806,-197.5 806,-156.5 639,-156.5"/>
<text text-anchor="start" x="647" y="-185.5" font-family="Helvetica,sans-Serif" font-size="10.00">/home/runner/work/Simopticon</text>
<text text-anchor="start" x="647" y="-174.5" font-family="Helvetica,sans-Serif" font-size="10.00">/Simopticon/src/optimizer</text>
<text text-anchor="middle" x="722.5" y="-163.5" font-family="Helvetica,sans-Serif" font-size="10.00">/direct/DirectOptimizer.h</text>
</a>
</g>
</g>
<!-- Node12&#45;&gt;Node13 -->
<g id="edge16" class="edge">
<title>Node12&#45;&gt;Node13</title>
<path fill="none" stroke="midnightblue" d="M901.81,-231.44C865.62,-220.66 822.71,-207.87 787.95,-197.51"/>
<polygon fill="midnightblue" stroke="midnightblue" points="901.25,-234.93 911.83,-234.43 903.25,-228.22 901.25,-234.93"/>
</g>
<!-- Node15 -->
<g id="node15" class="node">
<title>Node15</title>
<g id="a_node15"><a xlink:href="MonteCarlo_8h.xhtml" target="_top" xlink:title="In this file, the header of the MonteCarlo class is defined.">
<polygon fill="white" stroke="black" points="824,-156.5 824,-197.5 991,-197.5 991,-156.5 824,-156.5"/>
<text text-anchor="start" x="832" y="-185.5" font-family="Helvetica,sans-Serif" font-size="10.00">/home/runner/work/Simopticon</text>
<text text-anchor="start" x="832" y="-174.5" font-family="Helvetica,sans-Serif" font-size="10.00">/Simopticon/src/optimizer</text>
<text text-anchor="middle" x="907.5" y="-163.5" font-family="Helvetica,sans-Serif" font-size="10.00">/montecarlo/MonteCarlo.h</text>
</a>
</g>
</g>
<!-- Node12&#45;&gt;Node15 -->
<g id="edge19" class="edge">
<title>Node12&#45;&gt;Node15</title>
<path fill="none" stroke="midnightblue" d="M952.55,-226.92C943.61,-217.2 933.7,-206.45 925.47,-197.51"/>
<polygon fill="midnightblue" stroke="midnightblue" points="950.12,-229.44 959.47,-234.43 955.27,-224.7 950.12,-229.44"/>
</g>
<!-- Node17 -->
<g id="node17" class="node">
<title>Node17</title>
<g id="a_node17"><a xlink:href="RandomNeighbors_8h.xhtml" target="_top" xlink:title="In this file, the header of the RandomNeighbors optimizer class is defined.">
<polygon fill="white" stroke="black" points="414,-156.5 414,-197.5 621,-197.5 621,-156.5 414,-156.5"/>
<text text-anchor="start" x="422" y="-185.5" font-family="Helvetica,sans-Serif" font-size="10.00">/home/runner/work/Simopticon</text>
<text text-anchor="start" x="422" y="-174.5" font-family="Helvetica,sans-Serif" font-size="10.00">/Simopticon/src/optimizer</text>
<text text-anchor="middle" x="517.5" y="-163.5" font-family="Helvetica,sans-Serif" font-size="10.00">/randomneighbors/RandomNeighbors.h</text>
</a>
</g>
</g>
<!-- Node12&#45;&gt;Node17 -->
<g id="edge22" class="edge">
<title>Node12&#45;&gt;Node17</title>
<path fill="none" stroke="midnightblue" d="M883.63,-239.34C813.55,-228.29 715.47,-212.59 629.5,-198 626.77,-197.54 624.01,-197.07 621.22,-196.59"/>
<polygon fill="midnightblue" stroke="midnightblue" points="883.33,-242.84 893.76,-240.94 884.42,-235.92 883.33,-242.84"/>
</g>
<!-- Node19 -->
<g id="node19" class="node">
<title>Node19</title>
<g id="a_node19"><a xlink:href="StatusBar_8cpp.xhtml" target="_top" xlink:title="In this file, the implementation of the StatusBar class is defined.">
<polygon fill="white" stroke="black" points="1230.5,-162 1230.5,-192 1424.5,-192 1424.5,-162 1230.5,-162"/>
<text text-anchor="start" x="1238.5" y="-180" font-family="Helvetica,sans-Serif" font-size="10.00">/home/runner/work/Simopticon</text>
<text text-anchor="middle" x="1327.5" y="-169" font-family="Helvetica,sans-Serif" font-size="10.00">/Simopticon/src/status/StatusBar.cpp</text>
</a>
</g>
</g>
<!-- Node12&#45;&gt;Node19 -->
<g id="edge26" class="edge">
<title>Node12&#45;&gt;Node19</title>
<path fill="none" stroke="midnightblue" d="M1071.23,-233.62C1142.06,-218.24 1212.98,-202.85 1262.82,-192.03"/>
<polygon fill="midnightblue" stroke="midnightblue" points="1070.27,-230.25 1061.24,-235.8 1071.75,-237.09 1070.27,-230.25"/>
</g>
<!-- Node13&#45;&gt;Node5 -->
<g id="edge17" class="edge">
<title>Node13&#45;&gt;Node5</title>
<path fill="none" stroke="midnightblue" d="M661.02,-151.24C648.43,-143.21 636.81,-132.93 629.5,-120 620.32,-103.75 617.28,-92.11 629.5,-78 668.2,-33.33 832.68,-23.47 934.97,-21.77"/>
<polygon fill="midnightblue" stroke="midnightblue" points="659.46,-154.38 669.85,-156.45 663.01,-148.35 659.46,-154.38"/>
</g>
<!-- Node14 -->
<g id="node14" class="node">
<title>Node14</title>
<g id="a_node14"><a xlink:href="DirectOptimizer_8cpp.xhtml" target="_top" xlink:title="In this file, the implementation of the DirectOptimizer class is defined.">
<polygon fill="white" stroke="black" points="639,-78.5 639,-119.5 806,-119.5 806,-78.5 639,-78.5"/>
<text text-anchor="start" x="647" y="-107.5" font-family="Helvetica,sans-Serif" font-size="10.00">/home/runner/work/Simopticon</text>
<text text-anchor="start" x="647" y="-96.5" font-family="Helvetica,sans-Serif" font-size="10.00">/Simopticon/src/optimizer</text>
<text text-anchor="middle" x="722.5" y="-85.5" font-family="Helvetica,sans-Serif" font-size="10.00">/direct/DirectOptimizer.cpp</text>
</a>
</g>
</g>
<!-- Node13&#45;&gt;Node14 -->
<g id="edge18" class="edge">
<title>Node13&#45;&gt;Node14</title>
<path fill="none" stroke="midnightblue" d="M722.5,-146.3C722.5,-137.3 722.5,-127.65 722.5,-119.51"/>
<polygon fill="midnightblue" stroke="midnightblue" points="719,-146.43 722.5,-156.43 726,-146.43 719,-146.43"/>
</g>
<!-- Node15&#45;&gt;Node5 -->
<g id="edge20" class="edge">
<title>Node15&#45;&gt;Node5</title>
<path fill="none" stroke="midnightblue" d="M964.69,-151.25C977.9,-143.07 990.65,-132.72 999.5,-120 1015.73,-96.67 1018.96,-63.01 1019.19,-41.83"/>
<polygon fill="midnightblue" stroke="midnightblue" points="962.86,-148.27 955.98,-156.32 966.38,-154.32 962.86,-148.27"/>
</g>
<!-- Node16 -->
<g id="node16" class="node">
<title>Node16</title>
<g id="a_node16"><a xlink:href="MonteCarlo_8cpp.xhtml" target="_top" xlink:title="In this file, the implementation of the MonteCarlo optimizer class is defined.">
<polygon fill="white" stroke="black" points="824,-78.5 824,-119.5 991,-119.5 991,-78.5 824,-78.5"/>
<text text-anchor="start" x="832" y="-107.5" font-family="Helvetica,sans-Serif" font-size="10.00">/home/runner/work/Simopticon</text>
<text text-anchor="start" x="832" y="-96.5" font-family="Helvetica,sans-Serif" font-size="10.00">/Simopticon/src/optimizer</text>
<text text-anchor="middle" x="907.5" y="-85.5" font-family="Helvetica,sans-Serif" font-size="10.00">/montecarlo/MonteCarlo.cpp</text>
</a>
</g>
</g>
<!-- Node15&#45;&gt;Node16 -->
<g id="edge21" class="edge">
<title>Node15&#45;&gt;Node16</title>
<path fill="none" stroke="midnightblue" d="M907.5,-146.3C907.5,-137.3 907.5,-127.65 907.5,-119.51"/>
<polygon fill="midnightblue" stroke="midnightblue" points="904,-146.43 907.5,-156.43 911,-146.43 904,-146.43"/>
</g>
<!-- Node17&#45;&gt;Node5 -->
<g id="edge23" class="edge">
<title>Node17&#45;&gt;Node5</title>
<path fill="none" stroke="midnightblue" d="M424.25,-153.54C393.78,-144.19 365.44,-132.57 356.5,-120 345.68,-104.79 343.87,-91.74 356.5,-78 394.89,-36.23 765.3,-25.59 934.7,-22.9"/>
<polygon fill="midnightblue" stroke="midnightblue" points="423.61,-157 434.19,-156.5 425.61,-150.29 423.61,-157"/>
</g>
<!-- Node18 -->
<g id="node18" class="node">
<title>Node18</title>
<g id="a_node18"><a xlink:href="RandomNeighbors_8cpp.xhtml" target="_top" xlink:title="In this file, the implementation of the RandomNeighbors optimizer class is defined.">
<polygon fill="white" stroke="black" points="365.5,-78.5 365.5,-119.5 583.5,-119.5 583.5,-78.5 365.5,-78.5"/>
<text text-anchor="start" x="373.5" y="-107.5" font-family="Helvetica,sans-Serif" font-size="10.00">/home/runner/work/Simopticon</text>
<text text-anchor="start" x="373.5" y="-96.5" font-family="Helvetica,sans-Serif" font-size="10.00">/Simopticon/src/optimizer</text>
<text text-anchor="middle" x="474.5" y="-85.5" font-family="Helvetica,sans-Serif" font-size="10.00">/randomneighbors/RandomNeighbors.cpp</text>
</a>
</g>
</g>
<!-- Node17&#45;&gt;Node18 -->
<g id="edge24" class="edge">
<title>Node17&#45;&gt;Node18</title>
<path fill="none" stroke="midnightblue" d="M501.36,-147.47C496.08,-138.14 490.35,-128.01 485.54,-119.51"/>
<polygon fill="midnightblue" stroke="midnightblue" points="498.46,-149.45 506.43,-156.43 504.55,-146 498.46,-149.45"/>
</g>
<!-- Node20&#45;&gt;Node7 -->
<g id="edge28" class="edge">
<title>Node20&#45;&gt;Node7</title>
<path fill="none" stroke="midnightblue" d="M1299.23,-231.3C1264.97,-220.55 1224.46,-207.82 1191.61,-197.51"/>
<polygon fill="midnightblue" stroke="midnightblue" points="1298.59,-234.77 1309.18,-234.43 1300.69,-228.09 1298.59,-234.77"/>
</g>
<!-- Node21 -->
<g id="node21" class="node">
<title>Node21</title>
<g id="a_node21"><a xlink:href="PlexeSimulationRunner_8h.xhtml" target="_top" xlink:title="In this file, the header of the PlexeSimulationRunner class is defined.">
<polygon fill="white" stroke="black" points="1442,-156.5 1442,-197.5 1609,-197.5 1609,-156.5 1442,-156.5"/>
<text text-anchor="start" x="1450" y="-185.5" font-family="Helvetica,sans-Serif" font-size="10.00">/home/runner/work/Simopticon</text>
<text text-anchor="start" x="1450" y="-174.5" font-family="Helvetica,sans-Serif" font-size="10.00">/Simopticon/src/runner/plexe</text>
<text text-anchor="middle" x="1525.5" y="-163.5" font-family="Helvetica,sans-Serif" font-size="10.00">/PlexeSimulationRunner.h</text>
</a>
</g>
</g>
<!-- Node20&#45;&gt;Node21 -->
<g id="edge29" class="edge">
<title>Node20&#45;&gt;Node21</title>
<path fill="none" stroke="midnightblue" d="M1420.32,-229.91C1441.49,-219.46 1465.97,-207.38 1485.98,-197.51"/>
<polygon fill="midnightblue" stroke="midnightblue" points="1418.58,-226.86 1411.16,-234.43 1421.68,-233.14 1418.58,-226.86"/>
</g>
<!-- Node23 -->
<g id="node23" class="node">
<title>Node23</title>
<g id="a_node23"><a xlink:href="SimulationRunner_8cpp.xhtml" target="_top" xlink:title="In this file, the implementation of the SimulationRunner class is defined.">
<polygon fill="white" stroke="black" points="1627.5,-156.5 1627.5,-197.5 1809.5,-197.5 1809.5,-156.5 1627.5,-156.5"/>
<text text-anchor="start" x="1635.5" y="-185.5" font-family="Helvetica,sans-Serif" font-size="10.00">/home/runner/work/Simopticon</text>
<text text-anchor="start" x="1635.5" y="-174.5" font-family="Helvetica,sans-Serif" font-size="10.00">/Simopticon/src/runner/Simulation</text>
<text text-anchor="middle" x="1718.5" y="-163.5" font-family="Helvetica,sans-Serif" font-size="10.00">Runner.cpp</text>
</a>
</g>
</g>
<!-- Node20&#45;&gt;Node23 -->
<g id="edge32" class="edge">
<title>Node20&#45;&gt;Node23</title>
<path fill="none" stroke="midnightblue" d="M1470.72,-232.27C1520.74,-221.31 1580.92,-208.13 1629.44,-197.51"/>
<polygon fill="midnightblue" stroke="midnightblue" points="1469.88,-228.87 1460.86,-234.43 1471.38,-235.71 1469.88,-228.87"/>
</g>
<!-- Node21&#45;&gt;Node5 -->
<g id="edge30" class="edge">
<title>Node21&#45;&gt;Node5</title>
<path fill="none" stroke="midnightblue" d="M1431.97,-154.95C1374.4,-141.68 1309.25,-125.96 1296.5,-120 1268,-106.67 1267.95,-91.45 1239.5,-78 1196.29,-57.57 1144.68,-43.96 1102.2,-35.27"/>
<polygon fill="midnightblue" stroke="midnightblue" points="1431.34,-158.4 1441.87,-157.23 1432.91,-151.58 1431.34,-158.4"/>
</g>
<!-- Node22 -->
<g id="node22" class="node">
<title>Node22</title>
<g id="a_node22"><a xlink:href="PlexeSimulationRunner_8cpp.xhtml" target="_top" xlink:title="In this file, the implementation of the PlexeSimulationRunner class is defined.">
<polygon fill="white" stroke="black" points="1528,-78.5 1528,-119.5 1695,-119.5 1695,-78.5 1528,-78.5"/>
<text text-anchor="start" x="1536" y="-107.5" font-family="Helvetica,sans-Serif" font-size="10.00">/home/runner/work/Simopticon</text>
<text text-anchor="start" x="1536" y="-96.5" font-family="Helvetica,sans-Serif" font-size="10.00">/Simopticon/src/runner/plexe</text>
<text text-anchor="middle" x="1611.5" y="-85.5" font-family="Helvetica,sans-Serif" font-size="10.00">/PlexeSimulationRunner.cpp</text>
</a>
</g>
</g>
<!-- Node21&#45;&gt;Node22 -->
<g id="edge31" class="edge">
<title>Node21&#45;&gt;Node22</title>
<path fill="none" stroke="midnightblue" d="M1555.17,-149.78C1566.41,-139.84 1579.01,-128.72 1589.43,-119.51"/>
<polygon fill="midnightblue" stroke="midnightblue" points="1552.82,-147.18 1547.65,-156.43 1557.46,-152.43 1552.82,-147.18"/>
</g>
<!-- Node24&#45;&gt;Node7 -->
<g id="edge34" class="edge">
<title>Node24&#45;&gt;Node7</title>
<path fill="none" stroke="midnightblue" d="M1157.89,-230.63C1152.2,-220.08 1145.55,-207.75 1140.12,-197.68"/>
<polygon fill="midnightblue" stroke="midnightblue" points="1154.96,-232.57 1162.79,-239.7 1161.12,-229.24 1154.96,-232.57"/>
</g>
<!-- Node24&#45;&gt;Node19 -->
<g id="edge35" class="edge">
<title>Node24&#45;&gt;Node19</title>
<path fill="none" stroke="midnightblue" d="M1208.67,-235.52C1236.34,-222.13 1273.21,-204.28 1298.49,-192.04"/>
<polygon fill="midnightblue" stroke="midnightblue" points="1207.14,-232.38 1199.66,-239.88 1210.19,-238.68 1207.14,-232.38"/>
</g>
</g>
</svg>
        <g id="navigator" transform="translate(0 0)" fill="#404254">
                <rect fill="#f2f5e9" fill-opacity="0.5" stroke="#606060" stroke-width=".5" x="0" y="0" width="60" height="60"/>
                <use id="zoomplus" xlink:href="#zoomPlus" x="17" y="9" onmousedown="handleZoom(evt,'in')"/>
                <use id="zoomminus" xlink:href="#zoomMin" x="42" y="9" onmousedown="handleZoom(evt,'out')"/>
                <use id="reset" xlink:href="#resetDef" x="30" y="36" onmousedown="handleReset()"/>
                <g id="arrowUp" xlink:href="#dirArrow" transform="translate(30 24)" onmousedown="handlePan(0,-1)">
                  <use xlink:href="#rim" fill="#404040">
                        <set attributeName="fill" to="#808080" begin="arrowUp.mouseover" end="arrowUp.mouseout"/>
                  </use>
                  <path fill="none" stroke="white" stroke-width="1.5" d="M0,-3.0v7 M-2.5,-0.5L0,-3.0L2.5,-0.5"/>
                </g>
                <g id="arrowRight" xlink:href="#dirArrow" transform="rotate(90) translate(36 -43)" onmousedown="handlePan(1,0)">
                  <use xlink:href="#rim" fill="#404040">
                        <set attributeName="fill" to="#808080" begin="arrowRight.mouseover" end="arrowRight.mouseout"/>
                  </use>
                  <path fill="none" stroke="white" stroke-width="1.5" d="M0,-3.0v7 M-2.5,-0.5L0,-3.0L2.5,-0.5"/>
                </g>
                <g id="arrowDown" xlink:href="#dirArrow" transform="rotate(180) translate(-30 -48)" onmousedown="handlePan(0,1)">
                  <use xlink:href="#rim" fill="#404040">
                        <set attributeName="fill" to="#808080" begin="arrowDown.mouseover" end="arrowDown.mouseout"/>
                  </use>
                  <path fill="none" stroke="white" stroke-width="1.5" d="M0,-3.0v7 M-2.5,-0.5L0,-3.0L2.5,-0.5"/>
                </g>
                <g id="arrowLeft" xlink:href="#dirArrow" transform="rotate(270) translate(-36 17)" onmousedown="handlePan(-1,0)">
                  <use xlink:href="#rim" fill="#404040">
                        <set attributeName="fill" to="#808080" begin="arrowLeft.mouseover" end="arrowLeft.mouseout"/>
                  </use>
                  <path fill="none" stroke="white" stroke-width="1.5" d="M0,-3.0v7 M-2.5,-0.5L0,-3.0L2.5,-0.5"/>
                </g>
        </g>
        <svg viewBox="0 0 15 15" width="100%" height="30px" preserveAspectRatio="xMaxYMin meet">
         <g id="arrow_out" transform="scale(0.3 0.3)">
          <a xlink:href="Status_8h__dep__incl_org.svg" target="_base">
           <rect id="button" ry="5" rx="5" y="6" x="6" height="38" width="38"
                fill="#f2f5e9" fill-opacity="0.5" stroke="#606060" stroke-width="1.0"/>
           <path id="arrow"
             d="M 11.500037,31.436501 C 11.940474,20.09759 22.043105,11.32322 32.158766,21.979434 L 37.068811,17.246167 C 37.068811,17.246167 37.088388,32 37.088388,32 L 22.160133,31.978069 C 22.160133,31.978069 26.997745,27.140456 26.997745,27.140456 C 18.528582,18.264221 13.291696,25.230495 11.500037,31.436501 z"
             style="fill:#404040;"/>
          </a>
         </g>
        </svg>
</svg>
