<?xml version="1.0" encoding="UTF-8" standalone="no"?>
<!DOCTYPE svg PUBLIC "-//W3C//DTD SVG 1.1//EN"
 "http://www.w3.org/Graphics/SVG/1.1/DTD/svg11.dtd">
<!-- Generated by graphviz version 2.43.0 (0)
 -->
<!-- Title: /home/runner/work/Simopticon/Simopticon/src/status/Status.h Pages: 1 -->
<!--zoomable 351 -->
<svg id="main" version="1.1" xmlns="http://www.w3.org/2000/svg" xmlns:xlink="http://www.w3.org/1999/xlink" xml:space="preserve" onload="init(evt)">
<style type="text/css"><![CDATA[
.edge:hover path { stroke: red; }
.edge:hover polygon { stroke: red; fill: red; }
]]></style>
<script type="text/javascript"><![CDATA[
var edges = document.getElementsByTagName('g');
if (edges && edges.length) {
  for (var i=0;i<edges.length;i++) {
    if (edges[i].id.substr(0,4)=='edge') {
      edges[i].setAttribute('class','edge');
    }
  }
}
]]></script>
        <defs>
                <circle id="rim" cx="0" cy="0" r="7"/>
                <circle id="rim2" cx="0" cy="0" r="3.5"/>
                <g id="zoomPlus">
                        <use xlink:href="#rim" fill="#404040">
                                <set attributeName="fill" to="#808080" begin="zoomplus.mouseover" end="zoomplus.mouseout"/>
                        </use>
                        <path d="M-4,0h8M0,-4v8" fill="none" stroke="white" stroke-width="1.5" pointer-events="none"/>
                </g>
                <g id="zoomMin">
                        <use xlink:href="#rim" fill="#404040">
                                <set attributeName="fill" to="#808080" begin="zoomminus.mouseover" end="zoomminus.mouseout"/>
                        </use>
                        <path d="M-4,0h8" fill="none" stroke="white" stroke-width="1.5" pointer-events="none"/>
                </g>
                <g id="dirArrow">
                        <path fill="none" stroke="white" stroke-width="1.5" d="M0,-3.0v7 M-2.5,-0.5L0,-3.0L2.5,-0.5"/>
                </g>
               <g id="resetDef">
                       <use xlink:href="#rim2" fill="#404040">
                               <set attributeName="fill" to="#808080" begin="reset.mouseover" end="reset.mouseout"/>
                       </use>
               </g>
        </defs>

<script type="text/javascript">
var viewWidth = 1413;
var viewHeight = 351;
var sectionId = 'dynsection-1';
</script>
<script xlink:href="svgpan.js"/>
<svg id="graph" class="graph">
<g id="viewport">
<title>/home/runner/work/Simopticon/Simopticon/src/status/Status.h</title>
<polygon fill="white" stroke="transparent" points="-4,4 -4,-347 1409,-347 1409,4 -4,4"/>
<!-- Node1 -->
<g id="node1" class="node">
<title>Node1</title>
<g id="a_node1"><a xlink:title="In this file, the header of the Status class is defined.">
<polygon fill="#bfbfbf" stroke="black" points="778.5,-312.5 778.5,-342.5 945.5,-342.5 945.5,-312.5 778.5,-312.5"/>
<text text-anchor="start" x="786.5" y="-330.5" font-family="Helvetica,sans-Serif" font-size="10.00">/home/runner/work/Simopticon</text>
<text text-anchor="middle" x="862" y="-319.5" font-family="Helvetica,sans-Serif" font-size="10.00">/Simopticon/src/status/Status.h</text>
</a>
</g>
</g>
<!-- Node2 -->
<g id="node2" class="node">
<title>Node2</title>
<g id="a_node2"><a xlink:href="Evaluation_8h.xhtml" target="_top" xlink:title="In this file, the header of the Evaluation class is defined.">
<polygon fill="white" stroke="black" points="345.5,-234.5 345.5,-275.5 512.5,-275.5 512.5,-234.5 345.5,-234.5"/>
<text text-anchor="start" x="353.5" y="-263.5" font-family="Helvetica,sans-Serif" font-size="10.00">/home/runner/work/Simopticon</text>
<text text-anchor="start" x="353.5" y="-252.5" font-family="Helvetica,sans-Serif" font-size="10.00">/Simopticon/src/evaluation</text>
<text text-anchor="middle" x="429" y="-241.5" font-family="Helvetica,sans-Serif" font-size="10.00">/Evaluation.h</text>
</a>
</g>
</g>
<!-- Node1&#45;&gt;Node2 -->
<g id="edge1" class="edge">
<title>Node1&#45;&gt;Node2</title>
<path fill="none" stroke="midnightblue" d="M768.21,-311.23C692.2,-298.85 586.08,-281.57 512.87,-269.66"/>
<polygon fill="midnightblue" stroke="midnightblue" points="767.82,-314.71 778.26,-312.87 768.95,-307.8 767.82,-314.71"/>
</g>
<!-- Node12 -->
<g id="node12" class="node">
<title>Node12</title>
<g id="a_node12"><a xlink:href="Optimizer_8h.xhtml" target="_top" xlink:title="In this file, the header of the Optimizer class is defined.">
<polygon fill="white" stroke="black" points="585.5,-234.5 585.5,-275.5 752.5,-275.5 752.5,-234.5 585.5,-234.5"/>
<text text-anchor="start" x="593.5" y="-263.5" font-family="Helvetica,sans-Serif" font-size="10.00">/home/runner/work/Simopticon</text>
<text text-anchor="start" x="593.5" y="-252.5" font-family="Helvetica,sans-Serif" font-size="10.00">/Simopticon/src/optimizer</text>
<text text-anchor="middle" x="669" y="-241.5" font-family="Helvetica,sans-Serif" font-size="10.00">/Optimizer.h</text>
</a>
</g>
</g>
<!-- Node1&#45;&gt;Node12 -->
<g id="edge14" class="edge">
<title>Node1&#45;&gt;Node12</title>
<path fill="none" stroke="midnightblue" d="M813.91,-308.93C786.14,-298.79 751.15,-286.01 722.51,-275.55"/>
<polygon fill="midnightblue" stroke="midnightblue" points="812.81,-312.26 823.41,-312.4 815.22,-305.68 812.81,-312.26"/>
</g>
<!-- Node16 -->
<g id="node16" class="node">
<title>Node16</title>
<g id="a_node16"><a xlink:href="SimulationRunner_8h.xhtml" target="_top" xlink:title="In this file, the header of the SimulationRunner class is defined.">
<polygon fill="white" stroke="black" points="972,-234.5 972,-275.5 1154,-275.5 1154,-234.5 972,-234.5"/>
<text text-anchor="start" x="980" y="-263.5" font-family="Helvetica,sans-Serif" font-size="10.00">/home/runner/work/Simopticon</text>
<text text-anchor="start" x="980" y="-252.5" font-family="Helvetica,sans-Serif" font-size="10.00">/Simopticon/src/runner/Simulation</text>
<text text-anchor="middle" x="1063" y="-241.5" font-family="Helvetica,sans-Serif" font-size="10.00">Runner.h</text>
</a>
</g>
</g>
<!-- Node1&#45;&gt;Node16 -->
<g id="edge21" class="edge">
<title>Node1&#45;&gt;Node16</title>
<path fill="none" stroke="midnightblue" d="M911.71,-309.07C940.69,-298.9 977.32,-286.05 1007.27,-275.55"/>
<polygon fill="midnightblue" stroke="midnightblue" points="910.47,-305.79 902.19,-312.4 912.79,-312.4 910.47,-305.79"/>
</g>
<!-- Node20 -->
<g id="node20" class="node">
<title>Node20</title>
<g id="a_node20"><a xlink:href="StatusBar_8h.xhtml" target="_top" xlink:title="In this file, the header of the StatusBar class is defined.">
<polygon fill="white" stroke="black" points="770.5,-240 770.5,-270 953.5,-270 953.5,-240 770.5,-240"/>
<text text-anchor="start" x="778.5" y="-258" font-family="Helvetica,sans-Serif" font-size="10.00">/home/runner/work/Simopticon</text>
<text text-anchor="middle" x="862" y="-247" font-family="Helvetica,sans-Serif" font-size="10.00">/Simopticon/src/status/StatusBar.h</text>
</a>
</g>
</g>
<!-- Node1&#45;&gt;Node20 -->
<g id="edge27" class="edge">
<title>Node1&#45;&gt;Node20</title>
<path fill="none" stroke="midnightblue" d="M862,-302.23C862,-291.57 862,-279.41 862,-270.25"/>
<polygon fill="midnightblue" stroke="midnightblue" points="858.5,-302.23 862,-312.23 865.5,-302.23 858.5,-302.23"/>
</g>
<!-- Node21 -->
<g id="node21" class="node">
<title>Node21</title>
<g id="a_node21"><a xlink:href="Status_8cpp.xhtml" target="_top" xlink:title="In this file, the implementation of the Status class is defined.">
<polygon fill="white" stroke="black" points="1172.5,-240 1172.5,-270 1351.5,-270 1351.5,-240 1172.5,-240"/>
<text text-anchor="start" x="1180.5" y="-258" font-family="Helvetica,sans-Serif" font-size="10.00">/home/runner/work/Simopticon</text>
<text text-anchor="middle" x="1262" y="-247" font-family="Helvetica,sans-Serif" font-size="10.00">/Simopticon/src/status/Status.cpp</text>
</a>
</g>
</g>
<!-- Node1&#45;&gt;Node21 -->
<g id="edge30" class="edge">
<title>Node1&#45;&gt;Node21</title>
<path fill="none" stroke="midnightblue" d="M955.94,-311.56C1015.38,-301.9 1093.8,-288.79 1163,-276 1173.09,-274.14 1183.73,-272.08 1194.16,-270.01"/>
<polygon fill="midnightblue" stroke="midnightblue" points="955.13,-308.15 945.82,-313.2 956.25,-315.06 955.13,-308.15"/>
</g>
<!-- Node3 -->
<g id="node3" class="node">
<title>Node3</title>
<g id="a_node3"><a xlink:href="ConstantHeadway_8h.xhtml" target="_top" xlink:title="In this file, the header of the ConstantHeadway class is defined.">
<polygon fill="white" stroke="black" points="5.5,-156.5 5.5,-197.5 216.5,-197.5 216.5,-156.5 5.5,-156.5"/>
<text text-anchor="start" x="13.5" y="-185.5" font-family="Helvetica,sans-Serif" font-size="10.00">/home/runner/work/Simopticon</text>
<text text-anchor="start" x="13.5" y="-174.5" font-family="Helvetica,sans-Serif" font-size="10.00">/Simopticon/src/evaluation</text>
<text text-anchor="middle" x="111" y="-163.5" font-family="Helvetica,sans-Serif" font-size="10.00">/constant_headway/ConstantHeadway.h</text>
</a>
</g>
</g>
<!-- Node2&#45;&gt;Node3 -->
<g id="edge2" class="edge">
<title>Node2&#45;&gt;Node3</title>
<path fill="none" stroke="midnightblue" d="M337.21,-232.06C291.54,-221.15 236.8,-208.07 192.62,-197.51"/>
<polygon fill="midnightblue" stroke="midnightblue" points="336.57,-235.51 347.11,-234.43 338.19,-228.7 336.57,-235.51"/>
</g>
<!-- Node6 -->
<g id="node6" class="node">
<title>Node6</title>
<g id="a_node6"><a xlink:href="Evaluation_8cpp.xhtml" target="_top" xlink:title="In this file, the implementation of the Evaluation class is defined.">
<polygon fill="white" stroke="black" points="234.5,-156.5 234.5,-197.5 401.5,-197.5 401.5,-156.5 234.5,-156.5"/>
<text text-anchor="start" x="242.5" y="-185.5" font-family="Helvetica,sans-Serif" font-size="10.00">/home/runner/work/Simopticon</text>
<text text-anchor="start" x="242.5" y="-174.5" font-family="Helvetica,sans-Serif" font-size="10.00">/Simopticon/src/evaluation</text>
<text text-anchor="middle" x="318" y="-163.5" font-family="Helvetica,sans-Serif" font-size="10.00">/Evaluation.cpp</text>
</a>
</g>
</g>
<!-- Node2&#45;&gt;Node6 -->
<g id="edge5" class="edge">
<title>Node2&#45;&gt;Node6</title>
<path fill="none" stroke="midnightblue" d="M391.95,-228.64C377.13,-218.49 360.33,-206.98 346.49,-197.51"/>
<polygon fill="midnightblue" stroke="midnightblue" points="390.19,-231.67 400.41,-234.43 394.14,-225.89 390.19,-231.67"/>
</g>
<!-- Node7 -->
<g id="node7" class="node">
<title>Node7</title>
<g id="a_node7"><a xlink:href="Controller_8h.xhtml" target="_top" xlink:title="In this file, the header of the Controller class is defined.">
<polygon fill="white" stroke="black" points="641.5,-156.5 641.5,-197.5 808.5,-197.5 808.5,-156.5 641.5,-156.5"/>
<text text-anchor="start" x="649.5" y="-185.5" font-family="Helvetica,sans-Serif" font-size="10.00">/home/runner/work/Simopticon</text>
<text text-anchor="start" x="649.5" y="-174.5" font-family="Helvetica,sans-Serif" font-size="10.00">/Simopticon/src/controller</text>
<text text-anchor="middle" x="725" y="-163.5" font-family="Helvetica,sans-Serif" font-size="10.00">/Controller.h</text>
</a>
</g>
</g>
<!-- Node2&#45;&gt;Node7 -->
<g id="edge6" class="edge">
<title>Node2&#45;&gt;Node7</title>
<path fill="none" stroke="midnightblue" d="M514.98,-231.92C557.38,-221.04 608.07,-208.02 649.03,-197.51"/>
<polygon fill="midnightblue" stroke="midnightblue" points="514.04,-228.55 505.23,-234.43 515.78,-235.33 514.04,-228.55"/>
</g>
<!-- Node4 -->
<g id="node4" class="node">
<title>Node4</title>
<g id="a_node4"><a xlink:href="ConstantHeadway_8cpp.xhtml" target="_top" xlink:title="In this file, the implementation of the ConstantHeadway class is defined.">
<polygon fill="white" stroke="black" points="0,-78.5 0,-119.5 222,-119.5 222,-78.5 0,-78.5"/>
<text text-anchor="start" x="8" y="-107.5" font-family="Helvetica,sans-Serif" font-size="10.00">/home/runner/work/Simopticon</text>
<text text-anchor="start" x="8" y="-96.5" font-family="Helvetica,sans-Serif" font-size="10.00">/Simopticon/src/evaluation</text>
<text text-anchor="middle" x="111" y="-85.5" font-family="Helvetica,sans-Serif" font-size="10.00">/constant_headway/ConstantHeadway.cpp</text>
</a>
</g>
</g>
<!-- Node3&#45;&gt;Node4 -->
<g id="edge3" class="edge">
<title>Node3&#45;&gt;Node4</title>
<path fill="none" stroke="midnightblue" d="M111,-146.3C111,-137.3 111,-127.65 111,-119.51"/>
<polygon fill="midnightblue" stroke="midnightblue" points="107.5,-146.43 111,-156.43 114.5,-146.43 107.5,-146.43"/>
</g>
<!-- Node5 -->
<g id="node5" class="node">
<title>Node5</title>
<g id="a_node5"><a xlink:href="Controller_8cpp.xhtml" target="_top" xlink:title="In this file, the implementation of the Controller class is defined.">
<polygon fill="white" stroke="black" points="574.5,-0.5 574.5,-41.5 741.5,-41.5 741.5,-0.5 574.5,-0.5"/>
<text text-anchor="start" x="582.5" y="-29.5" font-family="Helvetica,sans-Serif" font-size="10.00">/home/runner/work/Simopticon</text>
<text text-anchor="start" x="582.5" y="-18.5" font-family="Helvetica,sans-Serif" font-size="10.00">/Simopticon/src/controller</text>
<text text-anchor="middle" x="658" y="-7.5" font-family="Helvetica,sans-Serif" font-size="10.00">/Controller.cpp</text>
</a>
</g>
</g>
<!-- Node3&#45;&gt;Node5 -->
<g id="edge4" class="edge">
<title>Node3&#45;&gt;Node5</title>
<path fill="none" stroke="midnightblue" d="M165.39,-152.25C186.18,-142.74 209.95,-131.36 231,-120 262.26,-103.13 265.68,-90.31 299,-78 389.53,-44.54 500.08,-31.07 574.38,-25.65"/>
<polygon fill="midnightblue" stroke="midnightblue" points="163.72,-149.16 156.06,-156.47 166.62,-155.53 163.72,-149.16"/>
</g>
<!-- Node7&#45;&gt;Node5 -->
<g id="edge7" class="edge">
<title>Node7&#45;&gt;Node5</title>
<path fill="none" stroke="midnightblue" d="M723.21,-146.16C721.07,-126.07 716.35,-99.43 706,-78 699.48,-64.51 688.9,-51.65 679.32,-41.67"/>
<polygon fill="midnightblue" stroke="midnightblue" points="719.74,-146.65 724.14,-156.29 726.71,-146.01 719.74,-146.65"/>
</g>
<!-- Node8 -->
<g id="node8" class="node">
<title>Node8</title>
<g id="a_node8"><a xlink:href="main_8cpp.xhtml" target="_top" xlink:title="In this file, the main function running the Simopticon framework is defined.">
<polygon fill="white" stroke="black" points="944.5,-6 944.5,-36 1111.5,-36 1111.5,-6 944.5,-6"/>
<text text-anchor="start" x="952.5" y="-24" font-family="Helvetica,sans-Serif" font-size="10.00">/home/runner/work/Simopticon</text>
<text text-anchor="middle" x="1028" y="-13" font-family="Helvetica,sans-Serif" font-size="10.00">/Simopticon/src/main.cpp</text>
</a>
</g>
</g>
<!-- Node7&#45;&gt;Node8 -->
<g id="edge8" class="edge">
<title>Node7&#45;&gt;Node8</title>
<path fill="none" stroke="midnightblue" d="M818.8,-155.05C885.12,-140.11 962.81,-122.27 966,-120 996.04,-98.67 1014.81,-57.76 1023.08,-36.16"/>
<polygon fill="midnightblue" stroke="midnightblue" points="817.67,-151.72 808.69,-157.33 819.21,-158.55 817.67,-151.72"/>
</g>
<!-- Node9 -->
<g id="node9" class="node">
<title>Node9</title>
<g id="a_node9"><a xlink:href="StubController_8h.xhtml" target="_top" xlink:title="In this file, the header of the StubController class is defined.">
<polygon fill="white" stroke="black" points="790.5,-78.5 790.5,-119.5 957.5,-119.5 957.5,-78.5 790.5,-78.5"/>
<text text-anchor="start" x="798.5" y="-107.5" font-family="Helvetica,sans-Serif" font-size="10.00">/home/runner/work/Simopticon</text>
<text text-anchor="start" x="798.5" y="-96.5" font-family="Helvetica,sans-Serif" font-size="10.00">/Simopticon/src/controller</text>
<text text-anchor="middle" x="874" y="-85.5" font-family="Helvetica,sans-Serif" font-size="10.00">/StubController.h</text>
</a>
</g>
</g>
<!-- Node7&#45;&gt;Node9 -->
<g id="edge9" class="edge">
<title>Node7&#45;&gt;Node9</title>
<path fill="none" stroke="midnightblue" d="M772.51,-151.77C792.93,-141.35 816.49,-129.34 835.76,-119.51"/>
<polygon fill="midnightblue" stroke="midnightblue" points="770.69,-148.77 763.37,-156.43 773.87,-155 770.69,-148.77"/>
</g>
<!-- Node11 -->
<g id="node11" class="node">
<title>Node11</title>
<g id="a_node11"><a xlink:href="Optimizer_8cpp.xhtml" target="_top" xlink:title="In this file, the implementation of the Optimizer class is defined.">
<polygon fill="white" stroke="black" points="530.5,-78.5 530.5,-119.5 697.5,-119.5 697.5,-78.5 530.5,-78.5"/>
<text text-anchor="start" x="538.5" y="-107.5" font-family="Helvetica,sans-Serif" font-size="10.00">/home/runner/work/Simopticon</text>
<text text-anchor="start" x="538.5" y="-96.5" font-family="Helvetica,sans-Serif" font-size="10.00">/Simopticon/src/optimizer</text>
<text text-anchor="middle" x="614" y="-85.5" font-family="Helvetica,sans-Serif" font-size="10.00">/Optimizer.cpp</text>
</a>
</g>
</g>
<!-- Node7&#45;&gt;Node11 -->
<g id="edge13" class="edge">
<title>Node7&#45;&gt;Node11</title>
<path fill="none" stroke="midnightblue" d="M687.95,-150.64C673.13,-140.49 656.33,-128.98 642.49,-119.51"/>
<polygon fill="midnightblue" stroke="midnightblue" points="686.19,-153.67 696.41,-156.43 690.14,-147.89 686.19,-153.67"/>
</g>
<!-- Node9&#45;&gt;Node5 -->
<g id="edge11" class="edge">
<title>Node9&#45;&gt;Node5</title>
<path fill="none" stroke="midnightblue" d="M808.71,-75.03C778.3,-64.33 742.51,-51.73 713.44,-41.51"/>
<polygon fill="midnightblue" stroke="midnightblue" points="807.78,-78.41 818.37,-78.43 810.1,-71.81 807.78,-78.41"/>
</g>
<!-- Node9&#45;&gt;Node8 -->
<g id="edge12" class="edge">
<title>Node9&#45;&gt;Node8</title>
<path fill="none" stroke="midnightblue" d="M922.69,-73.97C947.85,-61.55 977.69,-46.83 999.17,-36.23"/>
<polygon fill="midnightblue" stroke="midnightblue" points="921.08,-70.86 913.66,-78.43 924.18,-77.14 921.08,-70.86"/>
</g>
<!-- Node10 -->
<g id="node10" class="node">
<title>Node10</title>
<g id="a_node10"><a xlink:href="StubController_8cpp.xhtml" target="_top" xlink:title="In this file, the implementation of the StubController class is defined.">
<polygon fill="white" stroke="black" points="759.5,-0.5 759.5,-41.5 926.5,-41.5 926.5,-0.5 759.5,-0.5"/>
<text text-anchor="start" x="767.5" y="-29.5" font-family="Helvetica,sans-Serif" font-size="10.00">/home/runner/work/Simopticon</text>
<text text-anchor="start" x="767.5" y="-18.5" font-family="Helvetica,sans-Serif" font-size="10.00">/Simopticon/src/controller</text>
<text text-anchor="middle" x="843" y="-7.5" font-family="Helvetica,sans-Serif" font-size="10.00">/StubController.cpp</text>
</a>
</g>
</g>
<!-- Node9&#45;&gt;Node10 -->
<g id="edge10" class="edge">
<title>Node9&#45;&gt;Node10</title>
<path fill="none" stroke="midnightblue" d="M862.12,-68.88C858.39,-59.72 854.35,-49.83 850.96,-41.51"/>
<polygon fill="midnightblue" stroke="midnightblue" points="859,-70.49 866.02,-78.43 865.48,-67.85 859,-70.49"/>
</g>
<!-- Node12&#45;&gt;Node7 -->
<g id="edge15" class="edge">
<title>Node12&#45;&gt;Node7</title>
<path fill="none" stroke="midnightblue" d="M689.38,-226.34C696.43,-216.78 704.17,-206.27 710.63,-197.51"/>
<polygon fill="midnightblue" stroke="midnightblue" points="686.54,-224.3 683.42,-234.43 692.17,-228.45 686.54,-224.3"/>
</g>
<!-- Node12&#45;&gt;Node11 -->
<g id="edge19" class="edge">
<title>Node12&#45;&gt;Node11</title>
<path fill="none" stroke="midnightblue" d="M647.44,-226.17C641.65,-217.54 635.92,-207.73 632,-198 621.6,-172.16 617.16,-140.06 615.3,-119.8"/>
<polygon fill="midnightblue" stroke="midnightblue" points="644.58,-228.18 653.19,-234.36 650.31,-224.16 644.58,-228.18"/>
</g>
<!-- Node13 -->
<g id="node13" class="node">
<title>Node13</title>
<g id="a_node13"><a xlink:href="DirectOptimizer_8h.xhtml" target="_top" xlink:title="In this file, the header of the DirectOptimizer class is defined.">
<polygon fill="white" stroke="black" points="419.5,-156.5 419.5,-197.5 586.5,-197.5 586.5,-156.5 419.5,-156.5"/>
<text text-anchor="start" x="427.5" y="-185.5" font-family="Helvetica,sans-Serif" font-size="10.00">/home/runner/work/Simopticon</text>
<text text-anchor="start" x="427.5" y="-174.5" font-family="Helvetica,sans-Serif" font-size="10.00">/Simopticon/src/optimizer</text>
<text text-anchor="middle" x="503" y="-163.5" font-family="Helvetica,sans-Serif" font-size="10.00">/direct/DirectOptimizer.h</text>
</a>
</g>
</g>
<!-- Node12&#45;&gt;Node13 -->
<g id="edge16" class="edge">
<title>Node12&#45;&gt;Node13</title>
<path fill="none" stroke="midnightblue" d="M616.99,-230.19C594.03,-219.67 567.37,-207.47 545.6,-197.51"/>
<polygon fill="midnightblue" stroke="midnightblue" points="615.7,-233.45 626.25,-234.43 618.62,-227.08 615.7,-233.45"/>
</g>
<!-- Node15 -->
<g id="node15" class="node">
<title>Node15</title>
<g id="a_node15"><a xlink:href="StatusBar_8cpp.xhtml" target="_top" xlink:title="In this file, the implementation of the StatusBar class is defined.">
<polygon fill="white" stroke="black" points="826,-162 826,-192 1020,-192 1020,-162 826,-162"/>
<text text-anchor="start" x="834" y="-180" font-family="Helvetica,sans-Serif" font-size="10.00">/home/runner/work/Simopticon</text>
<text text-anchor="middle" x="923" y="-169" font-family="Helvetica,sans-Serif" font-size="10.00">/Simopticon/src/status/StatusBar.cpp</text>
</a>
</g>
</g>
<!-- Node12&#45;&gt;Node15 -->
<g id="edge20" class="edge">
<title>Node12&#45;&gt;Node15</title>
<path fill="none" stroke="midnightblue" d="M744.2,-231.5C786.86,-218.73 838.93,-203.15 875.85,-192.11"/>
<polygon fill="midnightblue" stroke="midnightblue" points="742.99,-228.21 734.41,-234.43 744.99,-234.91 742.99,-228.21"/>
</g>
<!-- Node13&#45;&gt;Node5 -->
<g id="edge17" class="edge">
<title>Node13&#45;&gt;Node5</title>
<path fill="none" stroke="midnightblue" d="M501.32,-146.35C501.67,-125.14 505.51,-97.07 521,-78 534.69,-61.15 554.27,-49.32 574.36,-41.03"/>
<polygon fill="midnightblue" stroke="midnightblue" points="497.82,-146.47 501.4,-156.44 504.82,-146.42 497.82,-146.47"/>
</g>
<!-- Node14 -->
<g id="node14" class="node">
<title>Node14</title>
<g id="a_node14"><a xlink:href="DirectOptimizer_8cpp.xhtml" target="_top" xlink:title="In this file, the implementation of the DirectOptimizer class is defined.">
<polygon fill="white" stroke="black" points="308.5,-78.5 308.5,-119.5 475.5,-119.5 475.5,-78.5 308.5,-78.5"/>
<text text-anchor="start" x="316.5" y="-107.5" font-family="Helvetica,sans-Serif" font-size="10.00">/home/runner/work/Simopticon</text>
<text text-anchor="start" x="316.5" y="-96.5" font-family="Helvetica,sans-Serif" font-size="10.00">/Simopticon/src/optimizer</text>
<text text-anchor="middle" x="392" y="-85.5" font-family="Helvetica,sans-Serif" font-size="10.00">/direct/DirectOptimizer.cpp</text>
</a>
</g>
</g>
<!-- Node13&#45;&gt;Node14 -->
<g id="edge18" class="edge">
<title>Node13&#45;&gt;Node14</title>
<path fill="none" stroke="midnightblue" d="M465.95,-150.64C451.13,-140.49 434.33,-128.98 420.49,-119.51"/>
<polygon fill="midnightblue" stroke="midnightblue" points="464.19,-153.67 474.41,-156.43 468.14,-147.89 464.19,-153.67"/>
</g>
<!-- Node16&#45;&gt;Node7 -->
<g id="edge22" class="edge">
<title>Node16&#45;&gt;Node7</title>
<path fill="none" stroke="midnightblue" d="M966.14,-232.22C916.35,-221.03 856.27,-207.52 808.54,-196.78"/>
<polygon fill="midnightblue" stroke="midnightblue" points="965.43,-235.65 975.96,-234.43 966.97,-228.82 965.43,-235.65"/>
</g>
<!-- Node17 -->
<g id="node17" class="node">
<title>Node17</title>
<g id="a_node17"><a xlink:href="PlexeSimulationRunner_8h.xhtml" target="_top" xlink:title="In this file, the header of the PlexeSimulationRunner class is defined.">
<polygon fill="white" stroke="black" points="1037.5,-156.5 1037.5,-197.5 1204.5,-197.5 1204.5,-156.5 1037.5,-156.5"/>
<text text-anchor="start" x="1045.5" y="-185.5" font-family="Helvetica,sans-Serif" font-size="10.00">/home/runner/work/Simopticon</text>
<text text-anchor="start" x="1045.5" y="-174.5" font-family="Helvetica,sans-Serif" font-size="10.00">/Simopticon/src/runner/plexe</text>
<text text-anchor="middle" x="1121" y="-163.5" font-family="Helvetica,sans-Serif" font-size="10.00">/PlexeSimulationRunner.h</text>
</a>
</g>
</g>
<!-- Node16&#45;&gt;Node17 -->
<g id="edge23" class="edge">
<title>Node16&#45;&gt;Node17</title>
<path fill="none" stroke="midnightblue" d="M1084.11,-226.34C1091.41,-216.78 1099.42,-206.27 1106.11,-197.51"/>
<polygon fill="midnightblue" stroke="midnightblue" points="1081.22,-224.36 1077.94,-234.43 1086.79,-228.6 1081.22,-224.36"/>
</g>
<!-- Node19 -->
<g id="node19" class="node">
<title>Node19</title>
<g id="a_node19"><a xlink:href="SimulationRunner_8cpp.xhtml" target="_top" xlink:title="In this file, the implementation of the SimulationRunner class is defined.">
<polygon fill="white" stroke="black" points="1223,-156.5 1223,-197.5 1405,-197.5 1405,-156.5 1223,-156.5"/>
<text text-anchor="start" x="1231" y="-185.5" font-family="Helvetica,sans-Serif" font-size="10.00">/home/runner/work/Simopticon</text>
<text text-anchor="start" x="1231" y="-174.5" font-family="Helvetica,sans-Serif" font-size="10.00">/Simopticon/src/runner/Simulation</text>
<text text-anchor="middle" x="1314" y="-163.5" font-family="Helvetica,sans-Serif" font-size="10.00">Runner.cpp</text>
</a>
</g>
</g>
<!-- Node16&#45;&gt;Node19 -->
<g id="edge26" class="edge">
<title>Node16&#45;&gt;Node19</title>
<path fill="none" stroke="midnightblue" d="M1137.5,-231.44C1173.13,-220.66 1215.36,-207.87 1249.58,-197.51"/>
<polygon fill="midnightblue" stroke="midnightblue" points="1136.2,-228.18 1127.64,-234.43 1138.22,-234.88 1136.2,-228.18"/>
</g>
<!-- Node17&#45;&gt;Node5 -->
<g id="edge24" class="edge">
<title>Node17&#45;&gt;Node5</title>
<path fill="none" stroke="midnightblue" d="M1027.16,-155.79C917.23,-137.74 880.22,-162.94 781,-120 778.15,-118.77 717.18,-69.75 682.18,-41.52"/>
<polygon fill="midnightblue" stroke="midnightblue" points="1026.86,-159.29 1037.31,-157.55 1028.06,-152.4 1026.86,-159.29"/>
</g>
<!-- Node18 -->
<g id="node18" class="node">
<title>Node18</title>
<g id="a_node18"><a xlink:href="PlexeSimulationRunner_8cpp.xhtml" target="_top" xlink:title="In this file, the implementation of the PlexeSimulationRunner class is defined.">
<polygon fill="white" stroke="black" points="1037.5,-78.5 1037.5,-119.5 1204.5,-119.5 1204.5,-78.5 1037.5,-78.5"/>
<text text-anchor="start" x="1045.5" y="-107.5" font-family="Helvetica,sans-Serif" font-size="10.00">/home/runner/work/Simopticon</text>
<text text-anchor="start" x="1045.5" y="-96.5" font-family="Helvetica,sans-Serif" font-size="10.00">/Simopticon/src/runner/plexe</text>
<text text-anchor="middle" x="1121" y="-85.5" font-family="Helvetica,sans-Serif" font-size="10.00">/PlexeSimulationRunner.cpp</text>
</a>
</g>
</g>
<!-- Node17&#45;&gt;Node18 -->
<g id="edge25" class="edge">
<title>Node17&#45;&gt;Node18</title>
<path fill="none" stroke="midnightblue" d="M1121,-146.3C1121,-137.3 1121,-127.65 1121,-119.51"/>
<polygon fill="midnightblue" stroke="midnightblue" points="1117.5,-146.43 1121,-156.43 1124.5,-146.43 1117.5,-146.43"/>
</g>
<!-- Node20&#45;&gt;Node7 -->
<g id="edge28" class="edge">
<title>Node20&#45;&gt;Node7</title>
<path fill="none" stroke="midnightblue" d="M827.55,-234.89C807.04,-223.51 781.06,-209.1 760.38,-197.63"/>
<polygon fill="midnightblue" stroke="midnightblue" points="826.11,-238.09 836.55,-239.88 829.51,-231.97 826.11,-238.09"/>
</g>
<!-- Node20&#45;&gt;Node15 -->
<g id="edge29" class="edge">
<title>Node20&#45;&gt;Node15</title>
<path fill="none" stroke="midnightblue" d="M879.81,-231.81C890.07,-219.03 902.65,-203.36 911.58,-192.23"/>
<polygon fill="midnightblue" stroke="midnightblue" points="877,-229.72 873.47,-239.7 882.46,-234.1 877,-229.72"/>
</g>
</g>
</svg>
        <g id="navigator" transform="translate(0 0)" fill="#404254">
                <rect fill="#f2f5e9" fill-opacity="0.5" stroke="#606060" stroke-width=".5" x="0" y="0" width="60" height="60"/>
                <use id="zoomplus" xlink:href="#zoomPlus" x="17" y="9" onmousedown="handleZoom(evt,'in')"/>
                <use id="zoomminus" xlink:href="#zoomMin" x="42" y="9" onmousedown="handleZoom(evt,'out')"/>
                <use id="reset" xlink:href="#resetDef" x="30" y="36" onmousedown="handleReset()"/>
                <g id="arrowUp" xlink:href="#dirArrow" transform="translate(30 24)" onmousedown="handlePan(0,-1)">
                  <use xlink:href="#rim" fill="#404040">
                        <set attributeName="fill" to="#808080" begin="arrowUp.mouseover" end="arrowUp.mouseout"/>
                  </use>
                  <path fill="none" stroke="white" stroke-width="1.5" d="M0,-3.0v7 M-2.5,-0.5L0,-3.0L2.5,-0.5"/>
                </g>
                <g id="arrowRight" xlink:href="#dirArrow" transform="rotate(90) translate(36 -43)" onmousedown="handlePan(1,0)">
                  <use xlink:href="#rim" fill="#404040">
                        <set attributeName="fill" to="#808080" begin="arrowRight.mouseover" end="arrowRight.mouseout"/>
                  </use>
                  <path fill="none" stroke="white" stroke-width="1.5" d="M0,-3.0v7 M-2.5,-0.5L0,-3.0L2.5,-0.5"/>
                </g>
                <g id="arrowDown" xlink:href="#dirArrow" transform="rotate(180) translate(-30 -48)" onmousedown="handlePan(0,1)">
                  <use xlink:href="#rim" fill="#404040">
                        <set attributeName="fill" to="#808080" begin="arrowDown.mouseover" end="arrowDown.mouseout"/>
                  </use>
                  <path fill="none" stroke="white" stroke-width="1.5" d="M0,-3.0v7 M-2.5,-0.5L0,-3.0L2.5,-0.5"/>
                </g>
                <g id="arrowLeft" xlink:href="#dirArrow" transform="rotate(270) translate(-36 17)" onmousedown="handlePan(-1,0)">
                  <use xlink:href="#rim" fill="#404040">
                        <set attributeName="fill" to="#808080" begin="arrowLeft.mouseover" end="arrowLeft.mouseout"/>
                  </use>
                  <path fill="none" stroke="white" stroke-width="1.5" d="M0,-3.0v7 M-2.5,-0.5L0,-3.0L2.5,-0.5"/>
                </g>
        </g>
        <svg viewBox="0 0 15 15" width="100%" height="30px" preserveAspectRatio="xMaxYMin meet">
         <g id="arrow_out" transform="scale(0.3 0.3)">
          <a xlink:href="Status_8h__dep__incl_org.svg" target="_base">
           <rect id="button" ry="5" rx="5" y="6" x="6" height="38" width="38"
                fill="#f2f5e9" fill-opacity="0.5" stroke="#606060" stroke-width="1.0"/>
           <path id="arrow"
             d="M 11.500037,31.436501 C 11.940474,20.09759 22.043105,11.32322 32.158766,21.979434 L 37.068811,17.246167 C 37.068811,17.246167 37.088388,32 37.088388,32 L 22.160133,31.978069 C 22.160133,31.978069 26.997745,27.140456 26.997745,27.140456 C 18.528582,18.264221 13.291696,25.230495 11.500037,31.436501 z"
             style="fill:#404040;"/>
          </a>
         </g>
        </svg>
</svg>
