<?xml version="1.0" encoding="UTF-8" standalone="no"?>
<!DOCTYPE svg PUBLIC "-//W3C//DTD SVG 1.1//EN"
 "http://www.w3.org/Graphics/SVG/1.1/DTD/svg11.dtd">
<!-- Generated by graphviz version 2.43.0 (0)
 -->
<!-- Title: src/optimizer/direct/StoppingCondition.cpp Pages: 1 -->
<svg width="392pt" height="207pt"
 viewBox="0.00 0.00 391.50 207.00" xmlns="http://www.w3.org/2000/svg" xmlns:xlink="http://www.w3.org/1999/xlink">
<g id="graph0" class="graph" transform="scale(1 1) rotate(0) translate(4 203)">
<title>src/optimizer/direct/StoppingCondition.cpp</title>
<polygon fill="white" stroke="transparent" points="-4,4 -4,-203 387.5,-203 387.5,4 -4,4"/>
<!-- Node1 -->
<g id="node1" class="node">
<title>Node1</title>
<g id="a_node1"><a xlink:title="In this file, the implementation of the StoppingCondition class is defined.">
<polygon fill="#bfbfbf" stroke="black" points="179.5,-168.5 179.5,-198.5 308.5,-198.5 308.5,-168.5 179.5,-168.5"/>
<text text-anchor="start" x="187.5" y="-186.5" font-family="Helvetica,sans-Serif" font-size="10.00">src/optimizer/direct</text>
<text text-anchor="middle" x="244" y="-175.5" font-family="Helvetica,sans-Serif" font-size="10.00">/StoppingCondition.cpp</text>
</a>
</g>
</g>
<!-- Node2 -->
<g id="node2" class="node">
<title>Node2</title>
<g id="a_node2"><a xlink:href="StoppingCondition_8h.xhtml" target="_top" xlink:title="In this file, the header of the StoppingCondition class is defined.">
<polygon fill="white" stroke="black" points="186.5,-112.5 186.5,-131.5 301.5,-131.5 301.5,-112.5 186.5,-112.5"/>
<text text-anchor="middle" x="244" y="-119.5" font-family="Helvetica,sans-Serif" font-size="10.00">StoppingCondition.h</text>
</a>
</g>
</g>
<!-- Node1&#45;&gt;Node2 -->
<g id="edge1" class="edge">
<title>Node1&#45;&gt;Node2</title>
<path fill="none" stroke="midnightblue" d="M244,-168.4C244,-160.47 244,-150.46 244,-141.86"/>
<polygon fill="midnightblue" stroke="midnightblue" points="247.5,-141.66 244,-131.66 240.5,-141.66 247.5,-141.66"/>
</g>
<!-- Node3 -->
<g id="node3" class="node">
<title>Node3</title>
<g id="a_node3"><a xlink:href="Types_8h.xhtml" target="_top" xlink:title="In this file, types are defined which should be used across the whole framework.">
<polygon fill="white" stroke="black" points="50.5,-56.5 50.5,-75.5 121.5,-75.5 121.5,-56.5 50.5,-56.5"/>
<text text-anchor="middle" x="86" y="-63.5" font-family="Helvetica,sans-Serif" font-size="10.00">../../Types.h</text>
</a>
</g>
</g>
<!-- Node2&#45;&gt;Node3 -->
<g id="edge2" class="edge">
<title>Node2&#45;&gt;Node3</title>
<path fill="none" stroke="midnightblue" d="M218.96,-112.44C192.38,-103.36 150.19,-88.94 120.48,-78.78"/>
<polygon fill="midnightblue" stroke="midnightblue" points="121.51,-75.44 110.92,-75.52 119.25,-82.06 121.51,-75.44"/>
</g>
<!-- Node7 -->
<g id="node7" class="node">
<title>Node7</title>
<g id="a_node7"><a xlink:title=" ">
<polygon fill="white" stroke="#bfbfbf" points="140,-56.5 140,-75.5 250,-75.5 250,-56.5 140,-56.5"/>
<text text-anchor="middle" x="195" y="-63.5" font-family="Helvetica,sans-Serif" font-size="10.00">nlohmann/json.hpp</text>
</a>
</g>
</g>
<!-- Node2&#45;&gt;Node7 -->
<g id="edge6" class="edge">
<title>Node2&#45;&gt;Node7</title>
<path fill="none" stroke="midnightblue" d="M235.91,-112.08C228.84,-104.3 218.41,-92.8 209.85,-83.37"/>
<polygon fill="midnightblue" stroke="midnightblue" points="212.25,-80.8 202.94,-75.75 207.07,-85.51 212.25,-80.8"/>
</g>
<!-- Node8 -->
<g id="node8" class="node">
<title>Node8</title>
<g id="a_node8"><a xlink:title=" ">
<polygon fill="white" stroke="#bfbfbf" points="268,-56.5 268,-75.5 318,-75.5 318,-56.5 268,-56.5"/>
<text text-anchor="middle" x="293" y="-63.5" font-family="Helvetica,sans-Serif" font-size="10.00">chrono</text>
</a>
</g>
</g>
<!-- Node2&#45;&gt;Node8 -->
<g id="edge7" class="edge">
<title>Node2&#45;&gt;Node8</title>
<path fill="none" stroke="midnightblue" d="M252.09,-112.08C259.16,-104.3 269.59,-92.8 278.15,-83.37"/>
<polygon fill="midnightblue" stroke="midnightblue" points="280.93,-85.51 285.06,-75.75 275.75,-80.8 280.93,-85.51"/>
</g>
<!-- Node9 -->
<g id="node9" class="node">
<title>Node9</title>
<g id="a_node9"><a xlink:title=" ">
<polygon fill="white" stroke="#bfbfbf" points="336.5,-56.5 336.5,-75.5 383.5,-75.5 383.5,-56.5 336.5,-56.5"/>
<text text-anchor="middle" x="360" y="-63.5" font-family="Helvetica,sans-Serif" font-size="10.00">cmath</text>
</a>
</g>
</g>
<!-- Node2&#45;&gt;Node9 -->
<g id="edge8" class="edge">
<title>Node2&#45;&gt;Node9</title>
<path fill="none" stroke="midnightblue" d="M262.38,-112.44C281.22,-103.68 310.73,-89.94 332.38,-79.86"/>
<polygon fill="midnightblue" stroke="midnightblue" points="334.12,-82.91 341.71,-75.52 331.16,-76.56 334.12,-82.91"/>
</g>
<!-- Node4 -->
<g id="node4" class="node">
<title>Node4</title>
<g id="a_node4"><a xlink:title=" ">
<polygon fill="white" stroke="#bfbfbf" points="0,-0.5 0,-19.5 44,-19.5 44,-0.5 0,-0.5"/>
<text text-anchor="middle" x="22" y="-7.5" font-family="Helvetica,sans-Serif" font-size="10.00">string</text>
</a>
</g>
</g>
<!-- Node3&#45;&gt;Node4 -->
<g id="edge3" class="edge">
<title>Node3&#45;&gt;Node4</title>
<path fill="none" stroke="midnightblue" d="M75.72,-56.32C66.16,-48.26 51.72,-36.08 40.22,-26.37"/>
<polygon fill="midnightblue" stroke="midnightblue" points="42.37,-23.61 32.47,-19.83 37.86,-28.96 42.37,-23.61"/>
</g>
<!-- Node5 -->
<g id="node5" class="node">
<title>Node5</title>
<g id="a_node5"><a xlink:title=" ">
<polygon fill="white" stroke="#bfbfbf" points="62.5,-0.5 62.5,-19.5 109.5,-19.5 109.5,-0.5 62.5,-0.5"/>
<text text-anchor="middle" x="86" y="-7.5" font-family="Helvetica,sans-Serif" font-size="10.00">vector</text>
</a>
</g>
</g>
<!-- Node3&#45;&gt;Node5 -->
<g id="edge4" class="edge">
<title>Node3&#45;&gt;Node5</title>
<path fill="none" stroke="midnightblue" d="M86,-56.08C86,-49.01 86,-38.86 86,-29.99"/>
<polygon fill="midnightblue" stroke="midnightblue" points="89.5,-29.75 86,-19.75 82.5,-29.75 89.5,-29.75"/>
</g>
<!-- Node6 -->
<g id="node6" class="node">
<title>Node6</title>
<g id="a_node6"><a xlink:title=" ">
<polygon fill="white" stroke="#bfbfbf" points="128,-0.5 128,-19.5 186,-19.5 186,-0.5 128,-0.5"/>
<text text-anchor="middle" x="157" y="-7.5" font-family="Helvetica,sans-Serif" font-size="10.00">memory</text>
</a>
</g>
</g>
<!-- Node3&#45;&gt;Node6 -->
<g id="edge5" class="edge">
<title>Node3&#45;&gt;Node6</title>
<path fill="none" stroke="midnightblue" d="M97.41,-56.32C108.11,-48.18 124.34,-35.84 137.16,-26.09"/>
<polygon fill="midnightblue" stroke="midnightblue" points="139.54,-28.67 145.39,-19.83 135.31,-23.1 139.54,-28.67"/>
</g>
</g>
</svg>
