<?xml version="1.0" encoding="UTF-8" standalone="no"?>
<!DOCTYPE svg PUBLIC "-//W3C//DTD SVG 1.1//EN"
 "http://www.w3.org/Graphics/SVG/1.1/DTD/svg11.dtd">
<!-- Generated by graphviz version 2.43.0 (0)
 -->
<!-- Title: /home/runner/work/Simopticon/Simopticon/src/optimizer/StoppingCondition.h Pages: 1 -->
<svg width="858pt" height="284pt"
 viewBox="0.00 0.00 858.32 284.00" xmlns="http://www.w3.org/2000/svg" xmlns:xlink="http://www.w3.org/1999/xlink">
<g id="graph0" class="graph" transform="scale(1 1) rotate(0) translate(4 280)">
<title>/home/runner/work/Simopticon/Simopticon/src/optimizer/StoppingCondition.h</title>
<polygon fill="white" stroke="transparent" points="-4,4 -4,-280 854.32,-280 854.32,4 -4,4"/>
<!-- Node1 -->
<g id="node1" class="node">
<title>Node1</title>
<g id="a_node1"><a xlink:title="In this file, the header of the StoppingCondition class is defined.">
<polygon fill="#bfbfbf" stroke="black" points="370.32,-234.5 370.32,-275.5 537.32,-275.5 537.32,-234.5 370.32,-234.5"/>
<text text-anchor="start" x="378.32" y="-263.5" font-family="Helvetica,sans-Serif" font-size="10.00">/home/runner/work/Simopticon</text>
<text text-anchor="start" x="378.32" y="-252.5" font-family="Helvetica,sans-Serif" font-size="10.00">/Simopticon/src/optimizer</text>
<text text-anchor="middle" x="453.82" y="-241.5" font-family="Helvetica,sans-Serif" font-size="10.00">/StoppingCondition.h</text>
</a>
</g>
</g>
<!-- Node2 -->
<g id="node2" class="node">
<title>Node2</title>
<g id="a_node2"><a xlink:href="MonteCarlo_8h.xhtml" target="_top" xlink:title="In this file, the header of the MonteCarlo class is defined.">
<polygon fill="white" stroke="black" points="17.32,-156.5 17.32,-197.5 184.32,-197.5 184.32,-156.5 17.32,-156.5"/>
<text text-anchor="start" x="25.32" y="-185.5" font-family="Helvetica,sans-Serif" font-size="10.00">/home/runner/work/Simopticon</text>
<text text-anchor="start" x="25.32" y="-174.5" font-family="Helvetica,sans-Serif" font-size="10.00">/Simopticon/src/optimizer</text>
<text text-anchor="middle" x="100.82" y="-163.5" font-family="Helvetica,sans-Serif" font-size="10.00">/montecarlo/MonteCarlo.h</text>
</a>
</g>
</g>
<!-- Node1&#45;&gt;Node2 -->
<g id="edge1" class="edge">
<title>Node1&#45;&gt;Node2</title>
<path fill="none" stroke="midnightblue" d="M360.14,-233.83C305.54,-222.08 237.27,-207.38 184.49,-196.01"/>
<polygon fill="midnightblue" stroke="midnightblue" points="359.65,-237.31 370.17,-235.99 361.13,-230.46 359.65,-237.31"/>
</g>
<!-- Node5 -->
<g id="node5" class="node">
<title>Node5</title>
<g id="a_node5"><a xlink:href="RandomNeighbors_8h.xhtml" target="_top" xlink:title="In this file, the header of the RandomNeighbors optimizer class is defined.">
<polygon fill="white" stroke="black" points="245.32,-156.5 245.32,-197.5 452.32,-197.5 452.32,-156.5 245.32,-156.5"/>
<text text-anchor="start" x="253.32" y="-185.5" font-family="Helvetica,sans-Serif" font-size="10.00">/home/runner/work/Simopticon</text>
<text text-anchor="start" x="253.32" y="-174.5" font-family="Helvetica,sans-Serif" font-size="10.00">/Simopticon/src/optimizer</text>
<text text-anchor="middle" x="348.82" y="-163.5" font-family="Helvetica,sans-Serif" font-size="10.00">/randomneighbors/RandomNeighbors.h</text>
</a>
</g>
</g>
<!-- Node1&#45;&gt;Node5 -->
<g id="edge4" class="edge">
<title>Node1&#45;&gt;Node5</title>
<path fill="none" stroke="midnightblue" d="M418.38,-228.35C404.46,-218.27 388.74,-206.89 375.77,-197.51"/>
<polygon fill="midnightblue" stroke="midnightblue" points="416.63,-231.4 426.78,-234.43 420.73,-225.73 416.63,-231.4"/>
</g>
<!-- Node7 -->
<g id="node7" class="node">
<title>Node7</title>
<g id="a_node7"><a xlink:href="DirectStoppingCondition_8h.xhtml" target="_top" xlink:title="In this file, the header of the StoppingCondition class is defined.">
<polygon fill="white" stroke="black" points="470.82,-156.5 470.82,-197.5 648.82,-197.5 648.82,-156.5 470.82,-156.5"/>
<text text-anchor="start" x="478.82" y="-185.5" font-family="Helvetica,sans-Serif" font-size="10.00">/home/runner/work/Simopticon</text>
<text text-anchor="start" x="478.82" y="-174.5" font-family="Helvetica,sans-Serif" font-size="10.00">/Simopticon/src/optimizer</text>
<text text-anchor="middle" x="559.82" y="-163.5" font-family="Helvetica,sans-Serif" font-size="10.00">/direct/DirectStoppingCondition.h</text>
</a>
</g>
</g>
<!-- Node1&#45;&gt;Node7 -->
<g id="edge7" class="edge">
<title>Node1&#45;&gt;Node7</title>
<path fill="none" stroke="midnightblue" d="M489.6,-228.35C503.65,-218.27 519.52,-206.89 532.62,-197.51"/>
<polygon fill="midnightblue" stroke="midnightblue" points="487.21,-225.76 481.12,-234.43 491.29,-231.45 487.21,-225.76"/>
</g>
<!-- Node11 -->
<g id="node11" class="node">
<title>Node11</title>
<g id="a_node11"><a xlink:href="StoppingCondition_8cpp.xhtml" target="_top" xlink:title="In this file, the implementation of the StoppingCondition class is defined.">
<polygon fill="white" stroke="black" points="666.32,-156.5 666.32,-197.5 833.32,-197.5 833.32,-156.5 666.32,-156.5"/>
<text text-anchor="start" x="674.32" y="-185.5" font-family="Helvetica,sans-Serif" font-size="10.00">/home/runner/work/Simopticon</text>
<text text-anchor="start" x="674.32" y="-174.5" font-family="Helvetica,sans-Serif" font-size="10.00">/Simopticon/src/optimizer</text>
<text text-anchor="middle" x="749.82" y="-163.5" font-family="Helvetica,sans-Serif" font-size="10.00">/StoppingCondition.cpp</text>
</a>
</g>
</g>
<!-- Node1&#45;&gt;Node11 -->
<g id="edge12" class="edge">
<title>Node1&#45;&gt;Node11</title>
<path fill="none" stroke="midnightblue" d="M539.8,-231.92C582.2,-221.04 632.89,-208.02 673.85,-197.51"/>
<polygon fill="midnightblue" stroke="midnightblue" points="538.86,-228.55 530.05,-234.43 540.61,-235.33 538.86,-228.55"/>
</g>
<!-- Node3 -->
<g id="node3" class="node">
<title>Node3</title>
<g id="a_node3"><a xlink:href="Controller_8cpp.xhtml" target="_top" xlink:title="In this file, the implementation of the Controller class is defined.">
<polygon fill="white" stroke="black" points="128.32,-0.5 128.32,-41.5 295.32,-41.5 295.32,-0.5 128.32,-0.5"/>
<text text-anchor="start" x="136.32" y="-29.5" font-family="Helvetica,sans-Serif" font-size="10.00">/home/runner/work/Simopticon</text>
<text text-anchor="start" x="136.32" y="-18.5" font-family="Helvetica,sans-Serif" font-size="10.00">/Simopticon/src/controller</text>
<text text-anchor="middle" x="211.82" y="-7.5" font-family="Helvetica,sans-Serif" font-size="10.00">/Controller.cpp</text>
</a>
</g>
</g>
<!-- Node2&#45;&gt;Node3 -->
<g id="edge2" class="edge">
<title>Node2&#45;&gt;Node3</title>
<path fill="none" stroke="midnightblue" d="M39.34,-151.24C26.75,-143.21 15.13,-132.93 7.82,-120 -1.36,-103.75 -3.5,-92.84 7.82,-78 22.85,-58.29 78.76,-43.79 128.25,-34.49"/>
<polygon fill="midnightblue" stroke="midnightblue" points="37.78,-154.38 48.17,-156.45 41.33,-148.35 37.78,-154.38"/>
</g>
<!-- Node4 -->
<g id="node4" class="node">
<title>Node4</title>
<g id="a_node4"><a xlink:href="MonteCarlo_8cpp.xhtml" target="_top" xlink:title="In this file, the implementation of the MonteCarlo optimizer class is defined.">
<polygon fill="white" stroke="black" points="17.32,-78.5 17.32,-119.5 184.32,-119.5 184.32,-78.5 17.32,-78.5"/>
<text text-anchor="start" x="25.32" y="-107.5" font-family="Helvetica,sans-Serif" font-size="10.00">/home/runner/work/Simopticon</text>
<text text-anchor="start" x="25.32" y="-96.5" font-family="Helvetica,sans-Serif" font-size="10.00">/Simopticon/src/optimizer</text>
<text text-anchor="middle" x="100.82" y="-85.5" font-family="Helvetica,sans-Serif" font-size="10.00">/montecarlo/MonteCarlo.cpp</text>
</a>
</g>
</g>
<!-- Node2&#45;&gt;Node4 -->
<g id="edge3" class="edge">
<title>Node2&#45;&gt;Node4</title>
<path fill="none" stroke="midnightblue" d="M100.82,-146.3C100.82,-137.3 100.82,-127.65 100.82,-119.51"/>
<polygon fill="midnightblue" stroke="midnightblue" points="97.32,-146.43 100.82,-156.43 104.32,-146.43 97.32,-146.43"/>
</g>
<!-- Node5&#45;&gt;Node3 -->
<g id="edge5" class="edge">
<title>Node5&#45;&gt;Node3</title>
<path fill="none" stroke="midnightblue" d="M271.3,-151.97C255.94,-143.99 241.33,-133.56 230.82,-120 213.3,-97.4 210.47,-63.22 210.67,-41.78"/>
<polygon fill="midnightblue" stroke="midnightblue" points="269.88,-155.17 280.4,-156.38 272.93,-148.87 269.88,-155.17"/>
</g>
<!-- Node6 -->
<g id="node6" class="node">
<title>Node6</title>
<g id="a_node6"><a xlink:href="RandomNeighbors_8cpp.xhtml" target="_top" xlink:title="In this file, the implementation of the RandomNeighbors optimizer class is defined.">
<polygon fill="white" stroke="black" points="239.82,-78.5 239.82,-119.5 457.82,-119.5 457.82,-78.5 239.82,-78.5"/>
<text text-anchor="start" x="247.82" y="-107.5" font-family="Helvetica,sans-Serif" font-size="10.00">/home/runner/work/Simopticon</text>
<text text-anchor="start" x="247.82" y="-96.5" font-family="Helvetica,sans-Serif" font-size="10.00">/Simopticon/src/optimizer</text>
<text text-anchor="middle" x="348.82" y="-85.5" font-family="Helvetica,sans-Serif" font-size="10.00">/randomneighbors/RandomNeighbors.cpp</text>
</a>
</g>
</g>
<!-- Node5&#45;&gt;Node6 -->
<g id="edge6" class="edge">
<title>Node5&#45;&gt;Node6</title>
<path fill="none" stroke="midnightblue" d="M348.82,-146.3C348.82,-137.3 348.82,-127.65 348.82,-119.51"/>
<polygon fill="midnightblue" stroke="midnightblue" points="345.32,-146.43 348.82,-156.43 352.32,-146.43 345.32,-146.43"/>
</g>
<!-- Node8 -->
<g id="node8" class="node">
<title>Node8</title>
<g id="a_node8"><a xlink:href="DirectOptimizer_8h.xhtml" target="_top" xlink:title="In this file, the header of the DirectOptimizer class is defined.">
<polygon fill="white" stroke="black" points="476.32,-78.5 476.32,-119.5 643.32,-119.5 643.32,-78.5 476.32,-78.5"/>
<text text-anchor="start" x="484.32" y="-107.5" font-family="Helvetica,sans-Serif" font-size="10.00">/home/runner/work/Simopticon</text>
<text text-anchor="start" x="484.32" y="-96.5" font-family="Helvetica,sans-Serif" font-size="10.00">/Simopticon/src/optimizer</text>
<text text-anchor="middle" x="559.82" y="-85.5" font-family="Helvetica,sans-Serif" font-size="10.00">/direct/DirectOptimizer.h</text>
</a>
</g>
</g>
<!-- Node7&#45;&gt;Node8 -->
<g id="edge8" class="edge">
<title>Node7&#45;&gt;Node8</title>
<path fill="none" stroke="midnightblue" d="M559.82,-146.3C559.82,-137.3 559.82,-127.65 559.82,-119.51"/>
<polygon fill="midnightblue" stroke="midnightblue" points="556.32,-146.43 559.82,-156.43 563.32,-146.43 556.32,-146.43"/>
</g>
<!-- Node10 -->
<g id="node10" class="node">
<title>Node10</title>
<g id="a_node10"><a xlink:href="DirectStoppingCondition_8cpp.xhtml" target="_top" xlink:title="In this file, the implementation of the DirectStoppingCondition class is defined.">
<polygon fill="white" stroke="black" points="661.32,-78.5 661.32,-119.5 850.32,-119.5 850.32,-78.5 661.32,-78.5"/>
<text text-anchor="start" x="669.32" y="-107.5" font-family="Helvetica,sans-Serif" font-size="10.00">/home/runner/work/Simopticon</text>
<text text-anchor="start" x="669.32" y="-96.5" font-family="Helvetica,sans-Serif" font-size="10.00">/Simopticon/src/optimizer</text>
<text text-anchor="middle" x="755.82" y="-85.5" font-family="Helvetica,sans-Serif" font-size="10.00">/direct/DirectStoppingCondition.cpp</text>
</a>
</g>
</g>
<!-- Node7&#45;&gt;Node10 -->
<g id="edge11" class="edge">
<title>Node7&#45;&gt;Node10</title>
<path fill="none" stroke="midnightblue" d="M619.79,-152.75C647.22,-142.11 679.37,-129.65 705.52,-119.51"/>
<polygon fill="midnightblue" stroke="midnightblue" points="618.35,-149.55 610.3,-156.43 620.89,-156.08 618.35,-149.55"/>
</g>
<!-- Node8&#45;&gt;Node3 -->
<g id="edge9" class="edge">
<title>Node8&#45;&gt;Node3</title>
<path fill="none" stroke="midnightblue" d="M466.25,-77.56C413.04,-65.94 346.97,-51.52 295.49,-40.27"/>
<polygon fill="midnightblue" stroke="midnightblue" points="465.51,-80.99 476.02,-79.7 467,-74.15 465.51,-80.99"/>
</g>
<!-- Node9 -->
<g id="node9" class="node">
<title>Node9</title>
<g id="a_node9"><a xlink:href="DirectOptimizer_8cpp.xhtml" target="_top" xlink:title="In this file, the implementation of the DirectOptimizer class is defined.">
<polygon fill="white" stroke="black" points="476.32,-0.5 476.32,-41.5 643.32,-41.5 643.32,-0.5 476.32,-0.5"/>
<text text-anchor="start" x="484.32" y="-29.5" font-family="Helvetica,sans-Serif" font-size="10.00">/home/runner/work/Simopticon</text>
<text text-anchor="start" x="484.32" y="-18.5" font-family="Helvetica,sans-Serif" font-size="10.00">/Simopticon/src/optimizer</text>
<text text-anchor="middle" x="559.82" y="-7.5" font-family="Helvetica,sans-Serif" font-size="10.00">/direct/DirectOptimizer.cpp</text>
</a>
</g>
</g>
<!-- Node8&#45;&gt;Node9 -->
<g id="edge10" class="edge">
<title>Node8&#45;&gt;Node9</title>
<path fill="none" stroke="midnightblue" d="M559.82,-68.3C559.82,-59.3 559.82,-49.65 559.82,-41.51"/>
<polygon fill="midnightblue" stroke="midnightblue" points="556.32,-68.43 559.82,-78.43 563.32,-68.43 556.32,-68.43"/>
</g>
</g>
</svg>
