<?xml version="1.0" encoding="UTF-8" standalone="no"?>
<!DOCTYPE svg PUBLIC "-//W3C//DTD SVG 1.1//EN"
 "http://www.w3.org/Graphics/SVG/1.1/DTD/svg11.dtd">
<!-- Generated by graphviz version 2.43.0 (0)
 -->
<!-- Title: src/optimizer/direct/StoppingCondition.h Pages: 1 -->
<svg width="362pt" height="173pt"
 viewBox="0.00 0.00 362.00 173.00" xmlns="http://www.w3.org/2000/svg" xmlns:xlink="http://www.w3.org/1999/xlink">
<g id="graph0" class="graph" transform="scale(1 1) rotate(0) translate(4 169)">
<title>src/optimizer/direct/StoppingCondition.h</title>
<polygon fill="white" stroke="transparent" points="-4,4 -4,-169 358,-169 358,4 -4,4"/>
<!-- Node1 -->
<g id="node1" class="node">
<title>Node1</title>
<g id="a_node1"><a xlink:title="In this file, the header of the StoppingCondition class is defined.">
<polygon fill="#bfbfbf" stroke="black" points="161.5,-134.5 161.5,-164.5 279.5,-164.5 279.5,-134.5 161.5,-134.5"/>
<text text-anchor="start" x="169.5" y="-152.5" font-family="Helvetica,sans-Serif" font-size="10.00">src/optimizer/direct</text>
<text text-anchor="middle" x="220.5" y="-141.5" font-family="Helvetica,sans-Serif" font-size="10.00">/StoppingCondition.h</text>
</a>
</g>
</g>
<!-- Node2 -->
<g id="node2" class="node">
<title>Node2</title>
<g id="a_node2"><a xlink:href="DirectOptimizer_8h.xhtml" target="_top" xlink:title="In this file, the header of the DirectOptimizer class is defined.">
<polygon fill="white" stroke="black" points="96,-67.5 96,-97.5 207,-97.5 207,-67.5 96,-67.5"/>
<text text-anchor="start" x="104" y="-85.5" font-family="Helvetica,sans-Serif" font-size="10.00">src/optimizer/direct</text>
<text text-anchor="middle" x="151.5" y="-74.5" font-family="Helvetica,sans-Serif" font-size="10.00">/DirectOptimizer.h</text>
</a>
</g>
</g>
<!-- Node1&#45;&gt;Node2 -->
<g id="edge1" class="edge">
<title>Node1&#45;&gt;Node2</title>
<path fill="none" stroke="midnightblue" d="M198.01,-127.31C187.66,-117.56 175.66,-106.26 166.44,-97.58"/>
<polygon fill="midnightblue" stroke="midnightblue" points="195.85,-130.09 205.53,-134.4 200.65,-124.99 195.85,-130.09"/>
</g>
<!-- Node5 -->
<g id="node5" class="node">
<title>Node5</title>
<g id="a_node5"><a xlink:href="StoppingCondition_8cpp.xhtml" target="_top" xlink:title="In this file, the implementation of the StoppingCondition class is defined.">
<polygon fill="white" stroke="black" points="225,-67.5 225,-97.5 354,-97.5 354,-67.5 225,-67.5"/>
<text text-anchor="start" x="233" y="-85.5" font-family="Helvetica,sans-Serif" font-size="10.00">src/optimizer/direct</text>
<text text-anchor="middle" x="289.5" y="-74.5" font-family="Helvetica,sans-Serif" font-size="10.00">/StoppingCondition.cpp</text>
</a>
</g>
</g>
<!-- Node1&#45;&gt;Node5 -->
<g id="edge4" class="edge">
<title>Node1&#45;&gt;Node5</title>
<path fill="none" stroke="midnightblue" d="M242.99,-127.31C253.34,-117.56 265.34,-106.26 274.56,-97.58"/>
<polygon fill="midnightblue" stroke="midnightblue" points="240.35,-124.99 235.47,-134.4 245.15,-130.09 240.35,-124.99"/>
</g>
<!-- Node3 -->
<g id="node3" class="node">
<title>Node3</title>
<g id="a_node3"><a xlink:href="Controller_8cpp.xhtml" target="_top" xlink:title="In this file, the implementation of the Controller class is defined.">
<polygon fill="white" stroke="black" points="0,-6 0,-25 151,-25 151,-6 0,-6"/>
<text text-anchor="middle" x="75.5" y="-13" font-family="Helvetica,sans-Serif" font-size="10.00">src/controller/Controller.cpp</text>
</a>
</g>
</g>
<!-- Node2&#45;&gt;Node3 -->
<g id="edge2" class="edge">
<title>Node2&#45;&gt;Node3</title>
<path fill="none" stroke="midnightblue" d="M127.15,-60.67C113.11,-48.67 96.22,-34.22 85.67,-25.19"/>
<polygon fill="midnightblue" stroke="midnightblue" points="125.13,-63.56 135.01,-67.4 129.68,-58.24 125.13,-63.56"/>
</g>
<!-- Node4 -->
<g id="node4" class="node">
<title>Node4</title>
<g id="a_node4"><a xlink:href="DirectOptimizer_8cpp.xhtml" target="_top" xlink:title="In this file, the implementation of the DirectOptimizer class is defined.">
<polygon fill="white" stroke="black" points="169.5,-0.5 169.5,-30.5 285.5,-30.5 285.5,-0.5 169.5,-0.5"/>
<text text-anchor="start" x="177.5" y="-18.5" font-family="Helvetica,sans-Serif" font-size="10.00">src/optimizer/direct</text>
<text text-anchor="middle" x="227.5" y="-7.5" font-family="Helvetica,sans-Serif" font-size="10.00">/DirectOptimizer.cpp</text>
</a>
</g>
</g>
<!-- Node2&#45;&gt;Node4 -->
<g id="edge3" class="edge">
<title>Node2&#45;&gt;Node4</title>
<path fill="none" stroke="midnightblue" d="M175.61,-60.88C187.16,-51.01 200.69,-39.43 211.04,-30.58"/>
<polygon fill="midnightblue" stroke="midnightblue" points="173.32,-58.24 167.99,-67.4 177.87,-63.56 173.32,-58.24"/>
</g>
</g>
</svg>
