<?xml version="1.0" encoding="UTF-8" standalone="no"?>
<!DOCTYPE svg PUBLIC "-//W3C//DTD SVG 1.1//EN"
 "http://www.w3.org/Graphics/SVG/1.1/DTD/svg11.dtd">
<!-- Generated by graphviz version 2.43.0 (0)
 -->
<!-- Title: src/controller/StubController.cpp Pages: 1 -->
<svg width="1846pt" height="487pt"
 viewBox="0.00 0.00 1846.28 487.00" xmlns="http://www.w3.org/2000/svg" xmlns:xlink="http://www.w3.org/1999/xlink">
<g id="graph0" class="graph" transform="scale(1 1) rotate(0) translate(4 483)">
<title>src/controller/StubController.cpp</title>
<polygon fill="white" stroke="transparent" points="-4,4 -4,-483 1842.28,-483 1842.28,4 -4,4"/>
<!-- Node1 -->
<g id="node1" class="node">
<title>Node1</title>
<g id="a_node1"><a xlink:title="In this file, the implementation of the StubController class is defined.">
<polygon fill="#bfbfbf" stroke="black" points="778.5,-459.5 778.5,-478.5 951.5,-478.5 951.5,-459.5 778.5,-459.5"/>
<text text-anchor="middle" x="865" y="-466.5" font-family="Helvetica,sans-Serif" font-size="10.00">src/controller/StubController.cpp</text>
</a>
</g>
</g>
<!-- Node2 -->
<g id="node2" class="node">
<title>Node2</title>
<g id="a_node2"><a xlink:href="StubController_8h.xhtml" target="_top" xlink:title="In this file, the header of the StubController class is defined.">
<polygon fill="white" stroke="black" points="773.5,-403.5 773.5,-422.5 868.5,-422.5 868.5,-403.5 773.5,-403.5"/>
<text text-anchor="middle" x="821" y="-410.5" font-family="Helvetica,sans-Serif" font-size="10.00">StubController.h</text>
</a>
</g>
</g>
<!-- Node1&#45;&gt;Node2 -->
<g id="edge1" class="edge">
<title>Node1&#45;&gt;Node2</title>
<path fill="none" stroke="midnightblue" d="M857.73,-459.08C851.46,-451.38 842.21,-440.03 834.57,-430.65"/>
<polygon fill="midnightblue" stroke="midnightblue" points="837.16,-428.29 828.13,-422.75 831.73,-432.71 837.16,-428.29"/>
</g>
<!-- Node29 -->
<g id="node29" class="node">
<title>Node29</title>
<g id="a_node29"><a xlink:href="ValueMap_8h.xhtml" target="_top" xlink:title="In this file, the header of the ValueMap class is defined.">
<polygon fill="white" stroke="black" points="828,-224.5 828,-243.5 960,-243.5 960,-224.5 828,-224.5"/>
<text text-anchor="middle" x="894" y="-231.5" font-family="Helvetica,sans-Serif" font-size="10.00">../controller/ValueMap.h</text>
</a>
</g>
</g>
<!-- Node1&#45;&gt;Node29 -->
<g id="edge80" class="edge">
<title>Node1&#45;&gt;Node29</title>
<path fill="none" stroke="midnightblue" d="M819.35,-459.43C798.76,-453.04 776.33,-442 764,-423 759.16,-415.54 762.9,-411.82 764,-403 767.81,-372.52 765.07,-362.27 781,-336 803.94,-298.16 845.5,-266.45 871.32,-249.15"/>
<polygon fill="midnightblue" stroke="midnightblue" points="873.29,-252.04 879.74,-243.64 869.46,-246.18 873.29,-252.04"/>
</g>
<!-- Node31 -->
<g id="node31" class="node">
<title>Node31</title>
<g id="a_node31"><a xlink:title=" ">
<polygon fill="white" stroke="#bfbfbf" points="886.5,-403.5 886.5,-422.5 931.5,-422.5 931.5,-403.5 886.5,-403.5"/>
<text text-anchor="middle" x="909" y="-410.5" font-family="Helvetica,sans-Serif" font-size="10.00">utility</text>
</a>
</g>
</g>
<!-- Node1&#45;&gt;Node31 -->
<g id="edge81" class="edge">
<title>Node1&#45;&gt;Node31</title>
<path fill="none" stroke="midnightblue" d="M872.27,-459.08C878.54,-451.38 887.79,-440.03 895.43,-430.65"/>
<polygon fill="midnightblue" stroke="midnightblue" points="898.27,-432.71 901.87,-422.75 892.84,-428.29 898.27,-432.71"/>
</g>
<!-- Node32 -->
<g id="node32" class="node">
<title>Node32</title>
<g id="a_node32"><a xlink:title=" ">
<polygon fill="white" stroke="#bfbfbf" points="949.5,-403.5 949.5,-422.5 996.5,-422.5 996.5,-403.5 949.5,-403.5"/>
<text text-anchor="middle" x="973" y="-410.5" font-family="Helvetica,sans-Serif" font-size="10.00">cmath</text>
</a>
</g>
</g>
<!-- Node1&#45;&gt;Node32 -->
<g id="edge82" class="edge">
<title>Node1&#45;&gt;Node32</title>
<path fill="none" stroke="midnightblue" d="M882.35,-459.32C899.67,-450.66 926.52,-437.24 946.5,-427.25"/>
<polygon fill="midnightblue" stroke="midnightblue" points="948.31,-430.26 955.69,-422.65 945.18,-424 948.31,-430.26"/>
</g>
<!-- Node3 -->
<g id="node3" class="node">
<title>Node3</title>
<g id="a_node3"><a xlink:title=" ">
<polygon fill="white" stroke="#bfbfbf" points="66.5,-168.5 66.5,-187.5 131.5,-187.5 131.5,-168.5 66.5,-168.5"/>
<text text-anchor="middle" x="99" y="-175.5" font-family="Helvetica,sans-Serif" font-size="10.00">functional</text>
</a>
</g>
</g>
<!-- Node2&#45;&gt;Node3 -->
<g id="edge2" class="edge">
<title>Node2&#45;&gt;Node3</title>
<path fill="none" stroke="midnightblue" d="M793.23,-403.49C714.2,-379.2 481.3,-307.25 289,-244 234.28,-226 171.04,-204.16 133.08,-190.93"/>
<polygon fill="midnightblue" stroke="midnightblue" points="134.13,-187.59 123.53,-187.6 131.82,-194.2 134.13,-187.59"/>
</g>
<!-- Node4 -->
<g id="node4" class="node">
<title>Node4</title>
<g id="a_node4"><a xlink:href="Controller_8h.xhtml" target="_top" xlink:title="In this file, the header of the Controller class is defined.">
<polygon fill="white" stroke="black" points="1008.5,-342 1008.5,-361 1081.5,-361 1081.5,-342 1008.5,-342"/>
<text text-anchor="middle" x="1045" y="-349" font-family="Helvetica,sans-Serif" font-size="10.00">Controller.h</text>
</a>
</g>
</g>
<!-- Node2&#45;&gt;Node4 -->
<g id="edge3" class="edge">
<title>Node2&#45;&gt;Node4</title>
<path fill="none" stroke="midnightblue" d="M853.09,-403.48C892.6,-392.98 959.78,-375.14 1003.26,-363.59"/>
<polygon fill="midnightblue" stroke="midnightblue" points="1004.2,-366.96 1012.97,-361.01 1002.4,-360.19 1004.2,-366.96"/>
</g>
<!-- Node30 -->
<g id="node30" class="node">
<title>Node30</title>
<g id="a_node30"><a xlink:href="DirectTypes_8h.xhtml" target="_top" xlink:title="In this file, types are defined which are used in the direct module.">
<polygon fill="white" stroke="black" points="790.5,-336.5 790.5,-366.5 893.5,-366.5 893.5,-336.5 790.5,-336.5"/>
<text text-anchor="start" x="798.5" y="-354.5" font-family="Helvetica,sans-Serif" font-size="10.00">../optimizer/direct</text>
<text text-anchor="middle" x="842" y="-343.5" font-family="Helvetica,sans-Serif" font-size="10.00">/DirectTypes.h</text>
</a>
</g>
</g>
<!-- Node2&#45;&gt;Node30 -->
<g id="edge79" class="edge">
<title>Node2&#45;&gt;Node30</title>
<path fill="none" stroke="midnightblue" d="M824.01,-403.48C826.53,-396.32 830.27,-385.75 833.68,-376.08"/>
<polygon fill="midnightblue" stroke="midnightblue" points="837.02,-377.12 837.05,-366.52 830.42,-374.79 837.02,-377.12"/>
</g>
<!-- Node5 -->
<g id="node5" class="node">
<title>Node5</title>
<g id="a_node5"><a xlink:href="Types_8h.xhtml" target="_top" xlink:title="In this file, types are defined which should be used across the whole framework.">
<polygon fill="white" stroke="black" points="1208,-56.5 1208,-75.5 1270,-75.5 1270,-56.5 1208,-56.5"/>
<text text-anchor="middle" x="1239" y="-63.5" font-family="Helvetica,sans-Serif" font-size="10.00">../Types.h</text>
</a>
</g>
</g>
<!-- Node4&#45;&gt;Node5 -->
<g id="edge4" class="edge">
<title>Node4&#45;&gt;Node5</title>
<path fill="none" stroke="midnightblue" d="M1081.51,-350.39C1173.27,-349.44 1420.48,-342.77 1621,-300 1725.99,-277.61 1795.76,-287.92 1835,-188 1876.79,-81.58 1421.29,-68.62 1280.02,-67.15"/>
<polygon fill="midnightblue" stroke="midnightblue" points="1280.04,-63.65 1270.01,-67.06 1279.98,-70.65 1280.04,-63.65"/>
</g>
<!-- Node7 -->
<g id="node7" class="node">
<title>Node7</title>
<g id="a_node7"><a xlink:title=" ">
<polygon fill="white" stroke="#bfbfbf" points="834.5,-0.5 834.5,-19.5 881.5,-19.5 881.5,-0.5 834.5,-0.5"/>
<text text-anchor="middle" x="858" y="-7.5" font-family="Helvetica,sans-Serif" font-size="10.00">vector</text>
</a>
</g>
</g>
<!-- Node4&#45;&gt;Node7 -->
<g id="edge75" class="edge">
<title>Node4&#45;&gt;Node7</title>
<path fill="none" stroke="midnightblue" d="M1008.27,-346.66C979.39,-343.67 938.14,-339.46 902,-336 699.47,-316.6 0,-382.46 0,-179 0,-179 0,-179 0,-121 0,-36.4 664.69,-15.51 823.99,-11.72"/>
<polygon fill="midnightblue" stroke="midnightblue" points="824.24,-15.21 834.16,-11.48 824.08,-8.21 824.24,-15.21"/>
</g>
<!-- Node8 -->
<g id="node8" class="node">
<title>Node8</title>
<g id="a_node8"><a xlink:title=" ">
<polygon fill="white" stroke="#bfbfbf" points="1113,-0.5 1113,-19.5 1171,-19.5 1171,-0.5 1113,-0.5"/>
<text text-anchor="middle" x="1142" y="-7.5" font-family="Helvetica,sans-Serif" font-size="10.00">memory</text>
</a>
</g>
</g>
<!-- Node4&#45;&gt;Node8 -->
<g id="edge77" class="edge">
<title>Node4&#45;&gt;Node8</title>
<path fill="none" stroke="midnightblue" d="M1046.38,-341.75C1049.98,-320.52 1060.96,-265 1083,-224 1092.86,-205.66 1105.91,-207.58 1113,-188 1116.03,-179.64 1116.89,-175.99 1113,-168 1101.63,-144.66 1078.37,-155.34 1067,-132 1063.11,-124.01 1064.21,-120.44 1067,-112 1078.46,-77.34 1106.92,-44.89 1125.3,-26.54"/>
<polygon fill="midnightblue" stroke="midnightblue" points="1127.74,-29.04 1132.48,-19.57 1122.87,-24.02 1127.74,-29.04"/>
</g>
<!-- Node9 -->
<g id="node9" class="node">
<title>Node9</title>
<g id="a_node9"><a xlink:href="ComparisonFunctions_8h.xhtml" target="_top" xlink:title="In this file, comparison functions are defined which should be used across the whole framework.">
<polygon fill="white" stroke="black" points="964,-168.5 964,-187.5 1104,-187.5 1104,-168.5 964,-168.5"/>
<text text-anchor="middle" x="1034" y="-175.5" font-family="Helvetica,sans-Serif" font-size="10.00">../ComparisonFunctions.h</text>
</a>
</g>
</g>
<!-- Node4&#45;&gt;Node9 -->
<g id="edge8" class="edge">
<title>Node4&#45;&gt;Node9</title>
<path fill="none" stroke="midnightblue" d="M1044.44,-341.76C1042.73,-315.15 1037.57,-234.71 1035.21,-197.84"/>
<polygon fill="midnightblue" stroke="midnightblue" points="1038.68,-197.27 1034.55,-187.52 1031.69,-197.72 1038.68,-197.27"/>
</g>
<!-- Node10 -->
<g id="node10" class="node">
<title>Node10</title>
<g id="a_node10"><a xlink:href="Parameter_8h.xhtml" target="_top" xlink:title="In this file, the header of the Parameter class is defined.">
<polygon fill="white" stroke="black" points="1076,-112.5 1076,-131.5 1210,-131.5 1210,-112.5 1076,-112.5"/>
<text text-anchor="middle" x="1143" y="-119.5" font-family="Helvetica,sans-Serif" font-size="10.00">parameters/Parameter.h</text>
</a>
</g>
</g>
<!-- Node4&#45;&gt;Node10 -->
<g id="edge56" class="edge">
<title>Node4&#45;&gt;Node10</title>
<path fill="none" stroke="midnightblue" d="M1081.58,-349.5C1224.65,-344.67 1742.26,-318.29 1819,-188 1823.51,-180.34 1825.07,-174.49 1819,-168 1808.87,-157.18 1395.43,-135.49 1220.21,-126.77"/>
<polygon fill="midnightblue" stroke="midnightblue" points="1220.19,-123.26 1210.03,-126.26 1219.84,-130.25 1220.19,-123.26"/>
</g>
<!-- Node11 -->
<g id="node11" class="node">
<title>Node11</title>
<g id="a_node11"><a xlink:href="Optimizer_8h.xhtml" target="_top" xlink:title="In this file, the header of the Optimizer class is defined.">
<polygon fill="white" stroke="black" points="1404.5,-224.5 1404.5,-243.5 1535.5,-243.5 1535.5,-224.5 1404.5,-224.5"/>
<text text-anchor="middle" x="1470" y="-231.5" font-family="Helvetica,sans-Serif" font-size="10.00">../optimizer/Optimizer.h</text>
</a>
</g>
</g>
<!-- Node4&#45;&gt;Node11 -->
<g id="edge14" class="edge">
<title>Node4&#45;&gt;Node11</title>
<path fill="none" stroke="midnightblue" d="M1081.76,-350.36C1169.04,-349.32 1385.66,-342.41 1442,-300 1456.55,-289.05 1463.64,-268.99 1467.03,-254.04"/>
<polygon fill="midnightblue" stroke="midnightblue" points="1470.54,-254.32 1468.96,-243.84 1463.66,-253.01 1470.54,-254.32"/>
</g>
<!-- Node14 -->
<g id="node14" class="node">
<title>Node14</title>
<g id="a_node14"><a xlink:href="Abortable_8h.xhtml" target="_top" xlink:title="In this file, the header of the Abortable class is defined.">
<polygon fill="white" stroke="black" points="1704,-168.5 1704,-187.5 1810,-187.5 1810,-168.5 1704,-168.5"/>
<text text-anchor="middle" x="1757" y="-175.5" font-family="Helvetica,sans-Serif" font-size="10.00">../utils/Abortable.h</text>
</a>
</g>
</g>
<!-- Node4&#45;&gt;Node14 -->
<g id="edge73" class="edge">
<title>Node4&#45;&gt;Node14</title>
<path fill="none" stroke="midnightblue" d="M1081.54,-347.7C1201.77,-338 1583.44,-303.13 1690,-244 1712.03,-231.77 1732.02,-210.42 1744.31,-195.54"/>
<polygon fill="midnightblue" stroke="midnightblue" points="1747.12,-197.64 1750.62,-187.64 1741.65,-193.27 1747.12,-197.64"/>
</g>
<!-- Node15 -->
<g id="node15" class="node">
<title>Node15</title>
<g id="a_node15"><a xlink:title=" ">
<polygon fill="white" stroke="#bfbfbf" points="709,-112.5 709,-131.5 741,-131.5 741,-112.5 709,-112.5"/>
<text text-anchor="middle" x="725" y="-119.5" font-family="Helvetica,sans-Serif" font-size="10.00">list</text>
</a>
</g>
</g>
<!-- Node4&#45;&gt;Node15 -->
<g id="edge76" class="edge">
<title>Node4&#45;&gt;Node15</title>
<path fill="none" stroke="midnightblue" d="M1008.27,-346.73C979.38,-343.78 938.13,-339.58 902,-336 860.79,-331.91 558.84,-330.67 531,-300 496.08,-261.53 448.6,-287.5 588,-168 619.82,-140.72 668.63,-129.87 698.58,-125.64"/>
<polygon fill="midnightblue" stroke="midnightblue" points="699.22,-129.08 708.7,-124.35 698.34,-122.14 699.22,-129.08"/>
</g>
<!-- Node16 -->
<g id="node16" class="node">
<title>Node16</title>
<g id="a_node16"><a xlink:title=" ">
<polygon fill="white" stroke="#bfbfbf" points="680,-168.5 680,-187.5 718,-187.5 718,-168.5 680,-168.5"/>
<text text-anchor="middle" x="699" y="-175.5" font-family="Helvetica,sans-Serif" font-size="10.00">map</text>
</a>
</g>
</g>
<!-- Node4&#45;&gt;Node16 -->
<g id="edge74" class="edge">
<title>Node4&#45;&gt;Node16</title>
<path fill="none" stroke="midnightblue" d="M1025.78,-341.88C986.56,-324.2 894.66,-282.28 819,-244 785.41,-227 747.28,-206.06 723.19,-192.62"/>
<polygon fill="midnightblue" stroke="midnightblue" points="724.82,-189.52 714.39,-187.69 721.4,-195.63 724.82,-189.52"/>
</g>
<!-- Node17 -->
<g id="node17" class="node">
<title>Node17</title>
<g id="a_node17"><a xlink:href="SimulationRunner_8h.xhtml" target="_top" xlink:title="In this file, the header of the SimulationRunner class is defined.">
<polygon fill="white" stroke="black" points="540.5,-280.5 540.5,-299.5 695.5,-299.5 695.5,-280.5 540.5,-280.5"/>
<text text-anchor="middle" x="618" y="-287.5" font-family="Helvetica,sans-Serif" font-size="10.00">../runner/SimulationRunner.h</text>
</a>
</g>
</g>
<!-- Node4&#45;&gt;Node17 -->
<g id="edge26" class="edge">
<title>Node4&#45;&gt;Node17</title>
<path fill="none" stroke="midnightblue" d="M1008.22,-345.38C937.45,-335.51 781.17,-313.74 689.3,-300.94"/>
<polygon fill="midnightblue" stroke="midnightblue" points="689.64,-297.45 679.25,-299.54 688.67,-304.38 689.64,-297.45"/>
</g>
<!-- Node21 -->
<g id="node21" class="node">
<title>Node21</title>
<g id="a_node21"><a xlink:title=" ">
<polygon fill="white" stroke="#bfbfbf" points="630,-168.5 630,-187.5 662,-187.5 662,-168.5 630,-168.5"/>
<text text-anchor="middle" x="646" y="-175.5" font-family="Helvetica,sans-Serif" font-size="10.00">set</text>
</a>
</g>
</g>
<!-- Node4&#45;&gt;Node21 -->
<g id="edge78" class="edge">
<title>Node4&#45;&gt;Node21</title>
<path fill="none" stroke="midnightblue" d="M1014.53,-342C982.93,-332.85 932.32,-317.27 890,-300 838.11,-278.82 827.22,-268.9 777,-244 740.29,-225.8 697.81,-204.71 671.41,-191.61"/>
<polygon fill="midnightblue" stroke="midnightblue" points="672.65,-188.32 662.13,-187.01 669.53,-194.59 672.65,-188.32"/>
</g>
<!-- Node27 -->
<g id="node27" class="node">
<title>Node27</title>
<g id="a_node27"><a xlink:href="Evaluation_8h.xhtml" target="_top" xlink:title="In this file, the header of the Evaluation class is defined.">
<polygon fill="white" stroke="black" points="1092.5,-224.5 1092.5,-243.5 1233.5,-243.5 1233.5,-224.5 1092.5,-224.5"/>
<text text-anchor="middle" x="1163" y="-231.5" font-family="Helvetica,sans-Serif" font-size="10.00">../evaluation/Evaluation.h</text>
</a>
</g>
</g>
<!-- Node4&#45;&gt;Node27 -->
<g id="edge50" class="edge">
<title>Node4&#45;&gt;Node27</title>
<path fill="none" stroke="midnightblue" d="M1053.87,-341.82C1073.6,-322.5 1121.38,-275.74 1146.67,-250.98"/>
<polygon fill="midnightblue" stroke="midnightblue" points="1149.33,-253.28 1154.03,-243.78 1144.43,-248.28 1149.33,-253.28"/>
</g>
<!-- Node28 -->
<g id="node28" class="node">
<title>Node28</title>
<g id="a_node28"><a xlink:href="StatusBar_8h.xhtml" target="_top" xlink:title="In this file, the header of the StatusBar class is defined.">
<polygon fill="white" stroke="black" points="1319,-280.5 1319,-299.5 1433,-299.5 1433,-280.5 1319,-280.5"/>
<text text-anchor="middle" x="1376" y="-287.5" font-family="Helvetica,sans-Serif" font-size="10.00">../status/StatusBar.h</text>
</a>
</g>
</g>
<!-- Node4&#45;&gt;Node28 -->
<g id="edge57" class="edge">
<title>Node4&#45;&gt;Node28</title>
<path fill="none" stroke="midnightblue" d="M1081.69,-343.91C1139,-333.6 1250.26,-313.6 1318.36,-301.36"/>
<polygon fill="midnightblue" stroke="midnightblue" points="1319.27,-304.75 1328.49,-299.54 1318.03,-297.86 1319.27,-304.75"/>
</g>
<!-- Node6 -->
<g id="node6" class="node">
<title>Node6</title>
<g id="a_node6"><a xlink:title=" ">
<polygon fill="white" stroke="#bfbfbf" points="1416,-0.5 1416,-19.5 1460,-19.5 1460,-0.5 1416,-0.5"/>
<text text-anchor="middle" x="1438" y="-7.5" font-family="Helvetica,sans-Serif" font-size="10.00">string</text>
</a>
</g>
</g>
<!-- Node5&#45;&gt;Node6 -->
<g id="edge5" class="edge">
<title>Node5&#45;&gt;Node6</title>
<path fill="none" stroke="midnightblue" d="M1270.09,-56.56C1307.06,-46.53 1368.46,-29.87 1405.87,-19.72"/>
<polygon fill="midnightblue" stroke="midnightblue" points="1407.02,-23.03 1415.75,-17.04 1405.18,-16.28 1407.02,-23.03"/>
</g>
<!-- Node5&#45;&gt;Node7 -->
<g id="edge6" class="edge">
<title>Node5&#45;&gt;Node7</title>
<path fill="none" stroke="midnightblue" d="M1207.82,-60.58C1137.02,-50.55 964.59,-26.11 891.56,-15.76"/>
<polygon fill="midnightblue" stroke="midnightblue" points="891.92,-12.27 881.53,-14.34 890.94,-19.2 891.92,-12.27"/>
</g>
<!-- Node5&#45;&gt;Node8 -->
<g id="edge7" class="edge">
<title>Node5&#45;&gt;Node8</title>
<path fill="none" stroke="midnightblue" d="M1223.42,-56.32C1208,-47.74 1184.19,-34.49 1166.29,-24.52"/>
<polygon fill="midnightblue" stroke="midnightblue" points="1167.99,-21.46 1157.55,-19.65 1164.58,-27.58 1167.99,-21.46"/>
</g>
<!-- Node9&#45;&gt;Node7 -->
<g id="edge13" class="edge">
<title>Node9&#45;&gt;Node7</title>
<path fill="none" stroke="midnightblue" d="M1013.54,-168.5C981.2,-154.08 918.25,-121.86 882,-76 871.29,-62.45 865.04,-43.65 861.62,-29.75"/>
<polygon fill="midnightblue" stroke="midnightblue" points="865.01,-28.87 859.45,-19.85 858.17,-30.37 865.01,-28.87"/>
</g>
<!-- Node9&#45;&gt;Node10 -->
<g id="edge9" class="edge">
<title>Node9&#45;&gt;Node10</title>
<path fill="none" stroke="midnightblue" d="M1051.51,-168.32C1069.07,-159.62 1096.33,-146.12 1116.53,-136.11"/>
<polygon fill="midnightblue" stroke="midnightblue" points="1118.12,-139.23 1125.53,-131.65 1115.02,-132.96 1118.12,-139.23"/>
</g>
<!-- Node10&#45;&gt;Node5 -->
<g id="edge10" class="edge">
<title>Node10&#45;&gt;Node5</title>
<path fill="none" stroke="midnightblue" d="M1158.42,-112.32C1173.54,-103.82 1196.82,-90.73 1214.47,-80.8"/>
<polygon fill="midnightblue" stroke="midnightblue" points="1216.61,-83.61 1223.61,-75.65 1213.18,-77.51 1216.61,-83.61"/>
</g>
<!-- Node10&#45;&gt;Node6 -->
<g id="edge11" class="edge">
<title>Node10&#45;&gt;Node6</title>
<path fill="none" stroke="midnightblue" d="M1147.89,-112.18C1156.31,-97.88 1175,-69.84 1199,-56 1265.32,-17.78 1357.56,-11.12 1405.76,-10.49"/>
<polygon fill="midnightblue" stroke="midnightblue" points="1405.92,-13.99 1415.91,-10.44 1405.89,-6.99 1405.92,-13.99"/>
</g>
<!-- Node10&#45;&gt;Node8 -->
<g id="edge12" class="edge">
<title>Node10&#45;&gt;Node8</title>
<path fill="none" stroke="midnightblue" d="M1142.92,-112.37C1142.76,-94.62 1142.39,-53.67 1142.17,-29.6"/>
<polygon fill="midnightblue" stroke="midnightblue" points="1145.67,-29.56 1142.08,-19.59 1138.67,-29.62 1145.67,-29.56"/>
</g>
<!-- Node11&#45;&gt;Node5 -->
<g id="edge15" class="edge">
<title>Node11&#45;&gt;Node5</title>
<path fill="none" stroke="midnightblue" d="M1471.7,-224.23C1473.81,-210.5 1475.65,-183.86 1462,-168 1423.18,-122.88 1386.89,-157.28 1333,-132 1304.44,-118.6 1275.1,-96.78 1256.96,-82.16"/>
<polygon fill="midnightblue" stroke="midnightblue" points="1258.96,-79.27 1249.01,-75.63 1254.52,-84.68 1258.96,-79.27"/>
</g>
<!-- Node11&#45;&gt;Node7 -->
<g id="edge23" class="edge">
<title>Node11&#45;&gt;Node7</title>
<path fill="none" stroke="midnightblue" d="M1466.49,-224.44C1460.06,-209.99 1444.91,-181.06 1422,-168 1284.21,-89.49 1217.89,-180.82 1067,-132 990.88,-107.37 912.11,-52.23 876.94,-25.74"/>
<polygon fill="midnightblue" stroke="midnightblue" points="879.04,-22.94 868.96,-19.67 874.8,-28.51 879.04,-22.94"/>
</g>
<!-- Node11&#45;&gt;Node8 -->
<g id="edge25" class="edge">
<title>Node11&#45;&gt;Node8</title>
<path fill="none" stroke="midnightblue" d="M1482.31,-224.32C1509.97,-203.77 1572.34,-150.96 1542,-112 1497.4,-54.73 1272.67,-24.84 1181.01,-14.87"/>
<polygon fill="midnightblue" stroke="midnightblue" points="1181.34,-11.38 1171.03,-13.8 1180.6,-18.34 1181.34,-11.38"/>
</g>
<!-- Node12 -->
<g id="node12" class="node">
<title>Node12</title>
<g id="a_node12"><a xlink:href="ParameterDefinition_8h.xhtml" target="_top" xlink:title="In this file, the header of the ParameterDefinition class is defined.">
<polygon fill="white" stroke="black" points="1342.5,-112.5 1342.5,-131.5 1533.5,-131.5 1533.5,-112.5 1342.5,-112.5"/>
<text text-anchor="middle" x="1438" y="-119.5" font-family="Helvetica,sans-Serif" font-size="10.00">../parameters/ParameterDefinition.h</text>
</a>
</g>
</g>
<!-- Node11&#45;&gt;Node12 -->
<g id="edge16" class="edge">
<title>Node11&#45;&gt;Node12</title>
<path fill="none" stroke="midnightblue" d="M1479.05,-224.48C1491.2,-211.97 1510.16,-187.93 1500,-168 1493,-154.27 1479.63,-143.75 1467.1,-136.35"/>
<polygon fill="midnightblue" stroke="midnightblue" points="1468.68,-133.22 1458.22,-131.51 1465.33,-139.37 1468.68,-133.22"/>
</g>
<!-- Node13 -->
<g id="node13" class="node">
<title>Node13</title>
<g id="a_node13"><a xlink:href="Status_8h.xhtml" target="_top" xlink:title="In this file, the header of the Status class is defined.">
<polygon fill="white" stroke="black" points="1284,-168.5 1284,-187.5 1382,-187.5 1382,-168.5 1284,-168.5"/>
<text text-anchor="middle" x="1333" y="-175.5" font-family="Helvetica,sans-Serif" font-size="10.00">../status/Status.h</text>
</a>
</g>
</g>
<!-- Node11&#45;&gt;Node13 -->
<g id="edge19" class="edge">
<title>Node11&#45;&gt;Node13</title>
<path fill="none" stroke="midnightblue" d="M1448.29,-224.44C1425.65,-215.52 1389.93,-201.44 1364.25,-191.32"/>
<polygon fill="midnightblue" stroke="midnightblue" points="1365.19,-187.93 1354.61,-187.52 1362.63,-194.44 1365.19,-187.93"/>
</g>
<!-- Node11&#45;&gt;Node14 -->
<g id="edge21" class="edge">
<title>Node11&#45;&gt;Node14</title>
<path fill="none" stroke="midnightblue" d="M1515.48,-224.44C1565.96,-214.94 1647.46,-199.61 1701.62,-189.42"/>
<polygon fill="midnightblue" stroke="midnightblue" points="1702.56,-192.81 1711.74,-187.52 1701.26,-185.93 1702.56,-192.81"/>
</g>
<!-- Node11&#45;&gt;Node15 -->
<g id="edge22" class="edge">
<title>Node11&#45;&gt;Node15</title>
<path fill="none" stroke="midnightblue" d="M1462.81,-224.29C1450.09,-209.6 1422.03,-180.32 1391,-168 1330.74,-144.07 866.92,-127.59 751.13,-123.82"/>
<polygon fill="midnightblue" stroke="midnightblue" points="751.14,-120.32 741.03,-123.5 750.92,-127.32 751.14,-120.32"/>
</g>
<!-- Node11&#45;&gt;Node16 -->
<g id="edge24" class="edge">
<title>Node11&#45;&gt;Node16</title>
<path fill="none" stroke="midnightblue" d="M1404.26,-228.4C1244.44,-217.2 840.4,-188.9 728.26,-181.05"/>
<polygon fill="midnightblue" stroke="midnightblue" points="728.27,-177.54 718.05,-180.33 727.78,-184.52 728.27,-177.54"/>
</g>
<!-- Node12&#45;&gt;Node5 -->
<g id="edge17" class="edge">
<title>Node12&#45;&gt;Node5</title>
<path fill="none" stroke="midnightblue" d="M1406.47,-112.44C1372.31,-103.17 1317.67,-88.35 1280.15,-78.17"/>
<polygon fill="midnightblue" stroke="midnightblue" points="1280.62,-74.67 1270.06,-75.43 1278.79,-81.42 1280.62,-74.67"/>
</g>
<!-- Node12&#45;&gt;Node6 -->
<g id="edge18" class="edge">
<title>Node12&#45;&gt;Node6</title>
<path fill="none" stroke="midnightblue" d="M1533.67,-120.22C1606.78,-116.15 1689.19,-101.83 1652,-56 1629.46,-28.23 1524.15,-16.96 1470.14,-12.94"/>
<polygon fill="midnightblue" stroke="midnightblue" points="1470.28,-9.45 1460.06,-12.24 1469.79,-16.43 1470.28,-9.45"/>
</g>
<!-- Node13&#45;&gt;Node6 -->
<g id="edge20" class="edge">
<title>Node13&#45;&gt;Node6</title>
<path fill="none" stroke="midnightblue" d="M1330.9,-168.16C1328.28,-155.23 1325.04,-130.69 1333,-112 1349.5,-73.24 1388.97,-42.16 1414.54,-25.18"/>
<polygon fill="midnightblue" stroke="midnightblue" points="1416.75,-27.92 1423.27,-19.57 1412.96,-22.04 1416.75,-27.92"/>
</g>
<!-- Node17&#45;&gt;Node5 -->
<g id="edge27" class="edge">
<title>Node17&#45;&gt;Node5</title>
<path fill="none" stroke="midnightblue" d="M614.94,-280.37C607.8,-258.53 592.7,-200.48 621,-168 640.19,-145.98 1062.66,-89.76 1197.81,-72.27"/>
<polygon fill="midnightblue" stroke="midnightblue" points="1198.31,-75.74 1207.78,-70.98 1197.41,-68.79 1198.31,-75.74"/>
</g>
<!-- Node17&#45;&gt;Node7 -->
<g id="edge44" class="edge">
<title>Node17&#45;&gt;Node7</title>
<path fill="none" stroke="midnightblue" d="M592.32,-280.47C554.43,-266.07 488,-233.1 488,-179 488,-179 488,-179 488,-121 488,-51.22 732.86,-22.18 824.19,-13.77"/>
<polygon fill="midnightblue" stroke="midnightblue" points="824.64,-17.24 834.29,-12.87 824.02,-10.27 824.64,-17.24"/>
</g>
<!-- Node17&#45;&gt;Node8 -->
<g id="edge47" class="edge">
<title>Node17&#45;&gt;Node8</title>
<path fill="none" stroke="midnightblue" d="M613.74,-280.25C604.1,-259.11 583.19,-204.28 606,-168 631.88,-126.83 654.86,-130.08 700,-112 842.48,-54.93 1024.35,-26.2 1102.94,-15.75"/>
<polygon fill="midnightblue" stroke="midnightblue" points="1103.42,-19.22 1112.88,-14.45 1102.52,-12.28 1103.42,-19.22"/>
</g>
<!-- Node17&#45;&gt;Node9 -->
<g id="edge28" class="edge">
<title>Node17&#45;&gt;Node9</title>
<path fill="none" stroke="midnightblue" d="M695.52,-284.89C783.95,-279.2 922.33,-266.92 969,-244 991.51,-232.95 1010.88,-210.97 1022.48,-195.64"/>
<polygon fill="midnightblue" stroke="midnightblue" points="1025.33,-197.67 1028.38,-187.52 1019.67,-193.56 1025.33,-197.67"/>
</g>
<!-- Node17&#45;&gt;Node13 -->
<g id="edge43" class="edge">
<title>Node17&#45;&gt;Node13</title>
<path fill="none" stroke="midnightblue" d="M695.73,-289.77C843.75,-290.21 1160.25,-286.02 1260,-244 1284.81,-233.55 1306.9,-211.09 1320.12,-195.52"/>
<polygon fill="midnightblue" stroke="midnightblue" points="1322.89,-197.66 1326.51,-187.7 1317.47,-193.23 1322.89,-197.66"/>
</g>
<!-- Node17&#45;&gt;Node16 -->
<g id="edge46" class="edge">
<title>Node17&#45;&gt;Node16</title>
<path fill="none" stroke="midnightblue" d="M624.36,-280.37C637.78,-262.14 669.23,-219.43 686.72,-195.68"/>
<polygon fill="midnightblue" stroke="midnightblue" points="689.56,-197.72 692.67,-187.59 683.93,-193.57 689.56,-197.72"/>
</g>
<!-- Node18 -->
<g id="node18" class="node">
<title>Node18</title>
<g id="a_node18"><a xlink:href="Multithreaded_8h.xhtml" target="_top" xlink:title="In this file, the header of the Multithreaded class is defined.">
<polygon fill="white" stroke="black" points="298.5,-224.5 298.5,-243.5 425.5,-243.5 425.5,-224.5 298.5,-224.5"/>
<text text-anchor="middle" x="362" y="-231.5" font-family="Helvetica,sans-Serif" font-size="10.00">../utils/Multithreaded.h</text>
</a>
</g>
</g>
<!-- Node17&#45;&gt;Node18 -->
<g id="edge29" class="edge">
<title>Node17&#45;&gt;Node18</title>
<path fill="none" stroke="midnightblue" d="M577.44,-280.44C532.68,-271 460.62,-255.8 412.3,-245.61"/>
<polygon fill="midnightblue" stroke="midnightblue" points="412.88,-242.16 402.37,-243.52 411.44,-249.01 412.88,-242.16"/>
</g>
<!-- Node20 -->
<g id="node20" class="node">
<title>Node20</title>
<g id="a_node20"><a xlink:title=" ">
<polygon fill="white" stroke="#bfbfbf" points="117.5,-112.5 117.5,-131.5 164.5,-131.5 164.5,-112.5 117.5,-112.5"/>
<text text-anchor="middle" x="141" y="-119.5" font-family="Helvetica,sans-Serif" font-size="10.00">queue</text>
</a>
</g>
</g>
<!-- Node17&#45;&gt;Node20 -->
<g id="edge49" class="edge">
<title>Node17&#45;&gt;Node20</title>
<path fill="none" stroke="midnightblue" d="M540.27,-287.17C400.46,-282.03 115.62,-262.45 57,-188 38.52,-164.53 77.05,-144.74 107.85,-133.37"/>
<polygon fill="midnightblue" stroke="midnightblue" points="109.22,-136.6 117.49,-129.98 106.9,-129.99 109.22,-136.6"/>
</g>
<!-- Node17&#45;&gt;Node21 -->
<g id="edge45" class="edge">
<title>Node17&#45;&gt;Node21</title>
<path fill="none" stroke="midnightblue" d="M620.2,-280.37C624.72,-262.62 635.14,-221.67 641.27,-197.6"/>
<polygon fill="midnightblue" stroke="midnightblue" points="644.74,-198.15 643.81,-187.59 637.95,-196.42 644.74,-198.15"/>
</g>
<!-- Node26 -->
<g id="node26" class="node">
<title>Node26</title>
<g id="a_node26"><a xlink:title=" ">
<polygon fill="white" stroke="#bfbfbf" points="1198,-168.5 1198,-187.5 1266,-187.5 1266,-168.5 1198,-168.5"/>
<text text-anchor="middle" x="1232" y="-175.5" font-family="Helvetica,sans-Serif" font-size="10.00">filesystem</text>
</a>
</g>
</g>
<!-- Node17&#45;&gt;Node26 -->
<g id="edge48" class="edge">
<title>Node17&#45;&gt;Node26</title>
<path fill="none" stroke="midnightblue" d="M695.74,-289.17C854.8,-288.71 1205.51,-283.21 1242,-244 1253.63,-231.5 1248.26,-211.44 1241.79,-196.9"/>
<polygon fill="midnightblue" stroke="midnightblue" points="1244.9,-195.29 1237.32,-187.88 1238.62,-198.4 1244.9,-195.29"/>
</g>
<!-- Node18&#45;&gt;Node3 -->
<g id="edge33" class="edge">
<title>Node18&#45;&gt;Node3</title>
<path fill="none" stroke="midnightblue" d="M320.33,-224.44C271.51,-214.42 191.06,-197.9 141.77,-187.78"/>
<polygon fill="midnightblue" stroke="midnightblue" points="142.25,-184.31 131.75,-185.73 140.85,-191.16 142.25,-184.31"/>
</g>
<!-- Node18&#45;&gt;Node16 -->
<g id="edge32" class="edge">
<title>Node18&#45;&gt;Node16</title>
<path fill="none" stroke="midnightblue" d="M425.6,-226.87C486.27,-220.31 580.27,-208.32 670.04,-187.89"/>
<polygon fill="midnightblue" stroke="midnightblue" points="670.88,-191.29 679.84,-185.62 669.31,-184.47 670.88,-191.29"/>
</g>
<!-- Node19 -->
<g id="node19" class="node">
<title>Node19</title>
<g id="a_node19"><a xlink:title=" ">
<polygon fill="white" stroke="#bfbfbf" points="323,-112.5 323,-131.5 371,-131.5 371,-112.5 323,-112.5"/>
<text text-anchor="middle" x="347" y="-119.5" font-family="Helvetica,sans-Serif" font-size="10.00">mutex</text>
</a>
</g>
</g>
<!-- Node18&#45;&gt;Node19 -->
<g id="edge30" class="edge">
<title>Node18&#45;&gt;Node19</title>
<path fill="none" stroke="midnightblue" d="M358.14,-224.25C354.44,-215.33 349.11,-201.01 347,-188 344.51,-172.66 344.7,-155.02 345.4,-141.99"/>
<polygon fill="midnightblue" stroke="midnightblue" points="348.9,-142.12 346.1,-131.9 341.92,-141.64 348.9,-142.12"/>
</g>
<!-- Node18&#45;&gt;Node20 -->
<g id="edge31" class="edge">
<title>Node18&#45;&gt;Node20</title>
<path fill="none" stroke="midnightblue" d="M298.28,-229.63C260.46,-224.83 213.34,-213.65 179,-188 163.32,-176.29 152.99,-156.06 147.11,-141.27"/>
<polygon fill="midnightblue" stroke="midnightblue" points="150.32,-139.85 143.6,-131.66 143.74,-142.25 150.32,-139.85"/>
</g>
<!-- Node18&#45;&gt;Node21 -->
<g id="edge34" class="edge">
<title>Node18&#45;&gt;Node21</title>
<path fill="none" stroke="midnightblue" d="M407,-224.44C467.05,-213.02 571.45,-193.18 619.9,-183.96"/>
<polygon fill="midnightblue" stroke="midnightblue" points="620.72,-187.37 629.89,-182.06 619.42,-180.49 620.72,-187.37"/>
</g>
<!-- Node22 -->
<g id="node22" class="node">
<title>Node22</title>
<g id="a_node22"><a xlink:href="ThreadsafeQueue_8h.xhtml" target="_top" xlink:title="In this file, the header of the ThreadSafeQueue class is defined.">
<polygon fill="white" stroke="black" points="188,-168.5 188,-187.5 300,-187.5 300,-168.5 188,-168.5"/>
<text text-anchor="middle" x="244" y="-175.5" font-family="Helvetica,sans-Serif" font-size="10.00">ThreadsafeQueue.h</text>
</a>
</g>
</g>
<!-- Node18&#45;&gt;Node22 -->
<g id="edge35" class="edge">
<title>Node18&#45;&gt;Node22</title>
<path fill="none" stroke="midnightblue" d="M343.3,-224.44C324.06,-215.64 293.85,-201.81 271.8,-191.72"/>
<polygon fill="midnightblue" stroke="midnightblue" points="273.16,-188.5 262.61,-187.52 270.25,-194.86 273.16,-188.5"/>
</g>
<!-- Node24 -->
<g id="node24" class="node">
<title>Node24</title>
<g id="a_node24"><a xlink:href="Multithreaded_8tpp.xhtml" target="_top" xlink:title="In this file, the implementation of the Multithreaded class is defined.">
<polygon fill="white" stroke="black" points="356,-168.5 356,-187.5 460,-187.5 460,-168.5 356,-168.5"/>
<text text-anchor="middle" x="408" y="-175.5" font-family="Helvetica,sans-Serif" font-size="10.00">Multithreaded.tpp</text>
</a>
</g>
</g>
<!-- Node18&#45;&gt;Node24 -->
<g id="edge40" class="edge">
<title>Node18&#45;&gt;Node24</title>
<path fill="none" stroke="midnightblue" d="M369.6,-224.08C376.23,-216.3 386.02,-204.8 394.06,-195.37"/>
<polygon fill="midnightblue" stroke="midnightblue" points="396.73,-197.63 400.55,-187.75 391.4,-193.09 396.73,-197.63"/>
</g>
<!-- Node22&#45;&gt;Node19 -->
<g id="edge37" class="edge">
<title>Node22&#45;&gt;Node19</title>
<path fill="none" stroke="midnightblue" d="M260.55,-168.32C276.99,-159.7 302.43,-146.36 321.47,-136.39"/>
<polygon fill="midnightblue" stroke="midnightblue" points="323.26,-139.4 330.49,-131.65 320.01,-133.2 323.26,-139.4"/>
</g>
<!-- Node22&#45;&gt;Node20 -->
<g id="edge36" class="edge">
<title>Node22&#45;&gt;Node20</title>
<path fill="none" stroke="midnightblue" d="M227.45,-168.32C211.01,-159.7 185.57,-146.36 166.53,-136.39"/>
<polygon fill="midnightblue" stroke="midnightblue" points="167.99,-133.2 157.51,-131.65 164.74,-139.4 167.99,-133.2"/>
</g>
<!-- Node23 -->
<g id="node23" class="node">
<title>Node23</title>
<g id="a_node23"><a xlink:href="ThreadsafeQueue_8tpp.xhtml" target="_top" xlink:title="In this file, the implementation of the ThreadSafeQueue class is defined.">
<polygon fill="white" stroke="black" points="183,-112.5 183,-131.5 305,-131.5 305,-112.5 183,-112.5"/>
<text text-anchor="middle" x="244" y="-119.5" font-family="Helvetica,sans-Serif" font-size="10.00">ThreadsafeQueue.tpp</text>
</a>
</g>
</g>
<!-- Node22&#45;&gt;Node23 -->
<g id="edge38" class="edge">
<title>Node22&#45;&gt;Node23</title>
<path fill="none" stroke="midnightblue" d="M238.83,-168.08C237.32,-160.93 236.89,-150.64 237.54,-141.69"/>
<polygon fill="midnightblue" stroke="midnightblue" points="241.02,-142.13 238.87,-131.75 234.08,-141.2 241.02,-142.13"/>
</g>
<!-- Node23&#45;&gt;Node22 -->
<g id="edge39" class="edge">
<title>Node23&#45;&gt;Node22</title>
<path fill="none" stroke="midnightblue" d="M249.13,-131.75C250.66,-138.86 251.1,-149.14 250.47,-158.1"/>
<polygon fill="midnightblue" stroke="midnightblue" points="246.99,-157.71 249.17,-168.08 253.93,-158.62 246.99,-157.71"/>
</g>
<!-- Node24&#45;&gt;Node15 -->
<g id="edge42" class="edge">
<title>Node24&#45;&gt;Node15</title>
<path fill="none" stroke="midnightblue" d="M458.23,-168.44C526.5,-156.81 646.11,-136.44 698.81,-127.46"/>
<polygon fill="midnightblue" stroke="midnightblue" points="699.43,-130.91 708.71,-125.78 698.26,-124 699.43,-130.91"/>
</g>
<!-- Node25 -->
<g id="node25" class="node">
<title>Node25</title>
<g id="a_node25"><a xlink:title=" ">
<polygon fill="white" stroke="#bfbfbf" points="389,-112.5 389,-131.5 435,-131.5 435,-112.5 389,-112.5"/>
<text text-anchor="middle" x="412" y="-119.5" font-family="Helvetica,sans-Serif" font-size="10.00">future</text>
</a>
</g>
</g>
<!-- Node24&#45;&gt;Node25 -->
<g id="edge41" class="edge">
<title>Node24&#45;&gt;Node25</title>
<path fill="none" stroke="midnightblue" d="M408.66,-168.08C409.18,-161.01 409.94,-150.86 410.59,-141.99"/>
<polygon fill="midnightblue" stroke="midnightblue" points="414.1,-141.98 411.35,-131.75 407.12,-141.47 414.1,-141.98"/>
</g>
<!-- Node27&#45;&gt;Node5 -->
<g id="edge51" class="edge">
<title>Node27&#45;&gt;Node5</title>
<path fill="none" stroke="midnightblue" d="M1165.55,-224.18C1169.49,-211.29 1177.8,-186.79 1189,-168 1199.67,-150.11 1209.08,-150.31 1219,-132 1226.91,-117.4 1232.17,-99.23 1235.3,-85.81"/>
<polygon fill="midnightblue" stroke="midnightblue" points="1238.76,-86.36 1237.44,-75.84 1231.91,-84.89 1238.76,-86.36"/>
</g>
<!-- Node27&#45;&gt;Node13 -->
<g id="edge52" class="edge">
<title>Node27&#45;&gt;Node13</title>
<path fill="none" stroke="midnightblue" d="M1189.94,-224.44C1218.66,-215.32 1264.33,-200.81 1296.32,-190.65"/>
<polygon fill="midnightblue" stroke="midnightblue" points="1297.72,-193.88 1306.19,-187.52 1295.6,-187.21 1297.72,-193.88"/>
</g>
<!-- Node27&#45;&gt;Node16 -->
<g id="edge55" class="edge">
<title>Node27&#45;&gt;Node16</title>
<path fill="none" stroke="midnightblue" d="M1092.28,-224.77C988.76,-212.72 800.44,-190.81 728.25,-182.4"/>
<polygon fill="midnightblue" stroke="midnightblue" points="728.41,-178.9 718.07,-181.22 727.6,-185.85 728.41,-178.9"/>
</g>
<!-- Node27&#45;&gt;Node21 -->
<g id="edge53" class="edge">
<title>Node27&#45;&gt;Node21</title>
<path fill="none" stroke="midnightblue" d="M1092.1,-228.74C979.93,-221.64 765.51,-206.52 672.2,-187.65"/>
<polygon fill="midnightblue" stroke="midnightblue" points="672.74,-184.19 662.23,-185.51 671.27,-191.03 672.74,-184.19"/>
</g>
<!-- Node27&#45;&gt;Node26 -->
<g id="edge54" class="edge">
<title>Node27&#45;&gt;Node26</title>
<path fill="none" stroke="midnightblue" d="M1174.09,-224.32C1184.49,-216.18 1200.26,-203.84 1212.72,-194.09"/>
<polygon fill="midnightblue" stroke="midnightblue" points="1214.99,-196.75 1220.71,-187.83 1210.68,-191.24 1214.99,-196.75"/>
</g>
<!-- Node28&#45;&gt;Node5 -->
<g id="edge58" class="edge">
<title>Node28&#45;&gt;Node5</title>
<path fill="none" stroke="midnightblue" d="M1433.21,-281.2C1476.37,-274 1530.4,-261.73 1544,-244 1563.98,-217.97 1651.06,-236.19 1542,-112 1508.39,-73.72 1355.39,-67.53 1280.52,-66.84"/>
<polygon fill="midnightblue" stroke="midnightblue" points="1280.09,-63.34 1270.06,-66.78 1280.04,-70.34 1280.09,-63.34"/>
</g>
<!-- Node28&#45;&gt;Node7 -->
<g id="edge71" class="edge">
<title>Node28&#45;&gt;Node7</title>
<path fill="none" stroke="midnightblue" d="M1433.12,-281.92C1484.49,-274.55 1555.14,-261.61 1577,-244 1622.87,-207.04 1614.15,-144.48 1565,-112 1452.05,-37.35 1017.31,-16.56 891.99,-12.07"/>
<polygon fill="midnightblue" stroke="midnightblue" points="891.95,-8.56 881.84,-11.71 891.71,-15.56 891.95,-8.56"/>
</g>
<!-- Node28&#45;&gt;Node8 -->
<g id="edge70" class="edge">
<title>Node28&#45;&gt;Node8</title>
<path fill="none" stroke="midnightblue" d="M1433.3,-282.83C1509.23,-274.17 1635.56,-257.92 1652,-244 1675.29,-224.27 1708.75,-136.09 1690,-112 1627.34,-31.49 1295.95,-15.08 1181.17,-11.8"/>
<polygon fill="midnightblue" stroke="midnightblue" points="1181.16,-8.3 1171.07,-11.53 1180.97,-15.3 1181.16,-8.3"/>
</g>
<!-- Node28&#45;&gt;Node13 -->
<g id="edge69" class="edge">
<title>Node28&#45;&gt;Node13</title>
<path fill="none" stroke="midnightblue" d="M1372.87,-280.12C1368.4,-267.56 1359.87,-243.91 1352,-224 1348.45,-215.02 1344.29,-205.12 1340.78,-196.9"/>
<polygon fill="midnightblue" stroke="midnightblue" points="1343.93,-195.38 1336.76,-187.58 1337.51,-198.15 1343.93,-195.38"/>
</g>
<!-- Node28&#45;&gt;Node26 -->
<g id="edge72" class="edge">
<title>Node28&#45;&gt;Node26</title>
<path fill="none" stroke="midnightblue" d="M1364.7,-280.37C1340.2,-261.65 1281.94,-217.15 1251.42,-193.83"/>
<polygon fill="midnightblue" stroke="midnightblue" points="1253.32,-190.88 1243.25,-187.59 1249.07,-196.44 1253.32,-190.88"/>
</g>
<!-- Node28&#45;&gt;Node29 -->
<g id="edge59" class="edge">
<title>Node28&#45;&gt;Node29</title>
<path fill="none" stroke="midnightblue" d="M1318.82,-282.59C1232.11,-272.88 1067.26,-254.41 970.38,-243.56"/>
<polygon fill="midnightblue" stroke="midnightblue" points="970.68,-240.07 960.36,-242.43 969.9,-247.03 970.68,-240.07"/>
</g>
<!-- Node29&#45;&gt;Node5 -->
<g id="edge60" class="edge">
<title>Node29&#45;&gt;Node5</title>
<path fill="none" stroke="midnightblue" d="M896.28,-224.2C900.29,-210.42 909.82,-183.71 927,-168 1004.41,-97.21 1132,-76 1197.45,-69.67"/>
<polygon fill="midnightblue" stroke="midnightblue" points="1198.13,-73.12 1207.78,-68.75 1197.51,-66.15 1198.13,-73.12"/>
</g>
<!-- Node29&#45;&gt;Node7 -->
<g id="edge64" class="edge">
<title>Node29&#45;&gt;Node7</title>
<path fill="none" stroke="midnightblue" d="M879.77,-224.27C868.35,-216.37 853.09,-203.6 846,-188 821.72,-134.6 840.21,-62.68 851.27,-29.36"/>
<polygon fill="midnightblue" stroke="midnightblue" points="854.68,-30.22 854.66,-19.62 848.07,-27.91 854.68,-30.22"/>
</g>
<!-- Node29&#45;&gt;Node8 -->
<g id="edge66" class="edge">
<title>Node29&#45;&gt;Node8</title>
<path fill="none" stroke="midnightblue" d="M894.63,-224.19C895.83,-211.3 899.17,-186.81 908,-168 934.91,-110.7 943.82,-91.84 996,-56 1028.21,-33.87 1071.71,-22.31 1102.83,-16.48"/>
<polygon fill="midnightblue" stroke="midnightblue" points="1103.63,-19.89 1112.88,-14.72 1102.42,-13 1103.63,-19.89"/>
</g>
<!-- Node29&#45;&gt;Node9 -->
<g id="edge61" class="edge">
<title>Node29&#45;&gt;Node9</title>
<path fill="none" stroke="midnightblue" d="M916.18,-224.44C939.43,-215.48 976.15,-201.31 1002.42,-191.18"/>
<polygon fill="midnightblue" stroke="midnightblue" points="1003.85,-194.38 1011.92,-187.52 1001.33,-187.85 1003.85,-194.38"/>
</g>
<!-- Node29&#45;&gt;Node10 -->
<g id="edge62" class="edge">
<title>Node29&#45;&gt;Node10</title>
<path fill="none" stroke="midnightblue" d="M899.6,-224.32C909.19,-210.22 930.11,-182.45 955,-168 988.69,-148.44 1030.49,-137.36 1066.11,-131.1"/>
<polygon fill="midnightblue" stroke="midnightblue" points="1066.69,-134.55 1075.98,-129.46 1065.54,-127.65 1066.69,-134.55"/>
</g>
<!-- Node29&#45;&gt;Node15 -->
<g id="edge65" class="edge">
<title>Node29&#45;&gt;Node15</title>
<path fill="none" stroke="midnightblue" d="M875.34,-224.45C857.54,-216.02 830.23,-202.35 808,-188 784.17,-172.62 758.77,-152.04 742.44,-138.19"/>
<polygon fill="midnightblue" stroke="midnightblue" points="744.65,-135.48 734.78,-131.63 740.1,-140.79 744.65,-135.48"/>
</g>
<!-- Node29&#45;&gt;Node16 -->
<g id="edge63" class="edge">
<title>Node29&#45;&gt;Node16</title>
<path fill="none" stroke="midnightblue" d="M863.1,-224.44C826.06,-214.18 764.44,-197.12 728.18,-187.08"/>
<polygon fill="midnightblue" stroke="midnightblue" points="728.8,-183.62 718.23,-184.32 726.93,-190.37 728.8,-183.62"/>
</g>
<!-- Node29&#45;&gt;Node19 -->
<g id="edge68" class="edge">
<title>Node29&#45;&gt;Node19</title>
<path fill="none" stroke="midnightblue" d="M871.75,-224.4C848.39,-215.36 810.6,-200.72 778,-188 755.32,-179.15 750.66,-173.75 727,-168 579.58,-132.15 534.35,-159.27 381.29,-131.93"/>
<polygon fill="midnightblue" stroke="midnightblue" points="381.51,-128.41 371.05,-130.04 380.25,-135.29 381.51,-128.41"/>
</g>
<!-- Node29&#45;&gt;Node21 -->
<g id="edge67" class="edge">
<title>Node29&#45;&gt;Node21</title>
<path fill="none" stroke="midnightblue" d="M840.31,-224.44C797.04,-217.03 734.53,-205.17 671.7,-187.87"/>
<polygon fill="midnightblue" stroke="midnightblue" points="672.6,-184.48 662.03,-185.16 670.71,-191.23 672.6,-184.48"/>
</g>
</g>
</svg>
