<?xml version="1.0" encoding="UTF-8" standalone="no"?>
<!DOCTYPE svg PUBLIC "-//W3C//DTD SVG 1.1//EN"
 "http://www.w3.org/Graphics/SVG/1.1/DTD/svg11.dtd">
<!-- Generated by graphviz version 2.43.0 (0)
 -->
<!-- Title: src/controller/StubController.h Pages: 1 -->
<svg width="1884pt" height="431pt"
 viewBox="0.00 0.00 1884.00 431.00" xmlns="http://www.w3.org/2000/svg" xmlns:xlink="http://www.w3.org/1999/xlink">
<g id="graph0" class="graph" transform="scale(1 1) rotate(0) translate(4 427)">
<title>src/controller/StubController.h</title>
<polygon fill="white" stroke="transparent" points="-4,4 -4,-427 1880,-427 1880,4 -4,4"/>
<!-- Node1 -->
<g id="node1" class="node">
<title>Node1</title>
<g id="a_node1"><a xlink:title="In this file, the header of the StubController class is defined.">
<polygon fill="#bfbfbf" stroke="black" points="817.5,-403.5 817.5,-422.5 978.5,-422.5 978.5,-403.5 817.5,-403.5"/>
<text text-anchor="middle" x="898" y="-410.5" font-family="Helvetica,sans-Serif" font-size="10.00">src/controller/StubController.h</text>
</a>
</g>
</g>
<!-- Node2 -->
<g id="node2" class="node">
<title>Node2</title>
<g id="a_node2"><a xlink:title=" ">
<polygon fill="white" stroke="#bfbfbf" points="494.5,-168.5 494.5,-187.5 559.5,-187.5 559.5,-168.5 494.5,-168.5"/>
<text text-anchor="middle" x="527" y="-175.5" font-family="Helvetica,sans-Serif" font-size="10.00">functional</text>
</a>
</g>
</g>
<!-- Node1&#45;&gt;Node2 -->
<g id="edge1" class="edge">
<title>Node1&#45;&gt;Node2</title>
<path fill="none" stroke="midnightblue" d="M880.46,-403.47C844.33,-385.69 759.37,-342.74 692,-300 636.85,-265.01 575.81,-217.87 545.79,-194.08"/>
<polygon fill="midnightblue" stroke="midnightblue" points="547.84,-191.24 537.84,-187.75 543.48,-196.72 547.84,-191.24"/>
</g>
<!-- Node3 -->
<g id="node3" class="node">
<title>Node3</title>
<g id="a_node3"><a xlink:href="Controller_8h.xhtml" target="_top" xlink:title="In this file, the header of the Controller class is defined.">
<polygon fill="white" stroke="black" points="861.5,-342 861.5,-361 934.5,-361 934.5,-342 861.5,-342"/>
<text text-anchor="middle" x="898" y="-349" font-family="Helvetica,sans-Serif" font-size="10.00">Controller.h</text>
</a>
</g>
</g>
<!-- Node1&#45;&gt;Node3 -->
<g id="edge2" class="edge">
<title>Node1&#45;&gt;Node3</title>
<path fill="none" stroke="midnightblue" d="M898,-403.48C898,-395.08 898,-381.98 898,-371.16"/>
<polygon fill="midnightblue" stroke="midnightblue" points="901.5,-371.01 898,-361.01 894.5,-371.01 901.5,-371.01"/>
</g>
<!-- Node29 -->
<g id="node29" class="node">
<title>Node29</title>
<g id="a_node29"><a xlink:href="DirectTypes_8h.xhtml" target="_top" xlink:title="In this file, types are defined which are used in the direct module.">
<polygon fill="white" stroke="black" points="952.5,-336.5 952.5,-366.5 1055.5,-366.5 1055.5,-336.5 952.5,-336.5"/>
<text text-anchor="start" x="960.5" y="-354.5" font-family="Helvetica,sans-Serif" font-size="10.00">../optimizer/direct</text>
<text text-anchor="middle" x="1004" y="-343.5" font-family="Helvetica,sans-Serif" font-size="10.00">/DirectTypes.h</text>
</a>
</g>
</g>
<!-- Node1&#45;&gt;Node29 -->
<g id="edge78" class="edge">
<title>Node1&#45;&gt;Node29</title>
<path fill="none" stroke="midnightblue" d="M913.19,-403.48C928.01,-395.15 951.08,-382.21 970.25,-371.45"/>
<polygon fill="midnightblue" stroke="midnightblue" points="972.01,-374.47 979.02,-366.52 968.58,-368.37 972.01,-374.47"/>
</g>
<!-- Node4 -->
<g id="node4" class="node">
<title>Node4</title>
<g id="a_node4"><a xlink:href="Types_8h.xhtml" target="_top" xlink:title="In this file, types are defined which should be used across the whole framework.">
<polygon fill="white" stroke="black" points="1427,-56.5 1427,-75.5 1489,-75.5 1489,-56.5 1427,-56.5"/>
<text text-anchor="middle" x="1458" y="-63.5" font-family="Helvetica,sans-Serif" font-size="10.00">../Types.h</text>
</a>
</g>
</g>
<!-- Node3&#45;&gt;Node4 -->
<g id="edge3" class="edge">
<title>Node3&#45;&gt;Node4</title>
<path fill="none" stroke="midnightblue" d="M920.61,-341.99C927.68,-339.66 935.58,-337.4 943,-336 1073.18,-311.49 1416.29,-352.28 1538,-300 1631.11,-260.01 1730.67,-190.84 1667,-112 1646.35,-86.43 1554.26,-74.7 1499.45,-69.9"/>
<polygon fill="midnightblue" stroke="midnightblue" points="1499.6,-66.4 1489.34,-69.06 1499.02,-73.38 1499.6,-66.4"/>
</g>
<!-- Node6 -->
<g id="node6" class="node">
<title>Node6</title>
<g id="a_node6"><a xlink:title=" ">
<polygon fill="white" stroke="#bfbfbf" points="1060.5,-0.5 1060.5,-19.5 1107.5,-19.5 1107.5,-0.5 1060.5,-0.5"/>
<text text-anchor="middle" x="1084" y="-7.5" font-family="Helvetica,sans-Serif" font-size="10.00">vector</text>
</a>
</g>
</g>
<!-- Node3&#45;&gt;Node6 -->
<g id="edge74" class="edge">
<title>Node3&#45;&gt;Node6</title>
<path fill="none" stroke="midnightblue" d="M861.4,-349.71C692.91,-345.61 0,-323.37 0,-235 0,-235 0,-235 0,-121 0,-12.73 866.94,-10.14 1050.22,-10.8"/>
<polygon fill="midnightblue" stroke="midnightblue" points="1050.34,-14.3 1060.35,-10.84 1050.37,-7.3 1050.34,-14.3"/>
</g>
<!-- Node7 -->
<g id="node7" class="node">
<title>Node7</title>
<g id="a_node7"><a xlink:title=" ">
<polygon fill="white" stroke="#bfbfbf" points="1647,-0.5 1647,-19.5 1705,-19.5 1705,-0.5 1647,-0.5"/>
<text text-anchor="middle" x="1676" y="-7.5" font-family="Helvetica,sans-Serif" font-size="10.00">memory</text>
</a>
</g>
</g>
<!-- Node3&#45;&gt;Node7 -->
<g id="edge76" class="edge">
<title>Node3&#45;&gt;Node7</title>
<path fill="none" stroke="midnightblue" d="M920.6,-341.98C927.68,-339.65 935.58,-337.38 943,-336 1218.7,-284.58 1295.06,-337.52 1573,-300 1709.49,-281.57 1876,-372.73 1876,-235 1876,-235 1876,-235 1876,-121 1876,-48.29 1773.26,-23.3 1715.05,-14.98"/>
<polygon fill="midnightblue" stroke="midnightblue" points="1715.46,-11.5 1705.08,-13.65 1714.53,-18.44 1715.46,-11.5"/>
</g>
<!-- Node8 -->
<g id="node8" class="node">
<title>Node8</title>
<g id="a_node8"><a xlink:href="ComparisonFunctions_8h.xhtml" target="_top" xlink:title="In this file, comparison functions are defined which should be used across the whole framework.">
<polygon fill="white" stroke="black" points="1366,-168.5 1366,-187.5 1506,-187.5 1506,-168.5 1366,-168.5"/>
<text text-anchor="middle" x="1436" y="-175.5" font-family="Helvetica,sans-Serif" font-size="10.00">../ComparisonFunctions.h</text>
</a>
</g>
</g>
<!-- Node3&#45;&gt;Node8 -->
<g id="edge7" class="edge">
<title>Node3&#45;&gt;Node8</title>
<path fill="none" stroke="midnightblue" d="M924.12,-341.88C930.29,-339.89 936.87,-337.83 943,-336 1090.53,-291.93 1131.26,-293.66 1277,-244 1323.61,-228.12 1376.25,-205.68 1407.74,-191.75"/>
<polygon fill="midnightblue" stroke="midnightblue" points="1409.47,-194.81 1417.19,-187.55 1406.63,-188.42 1409.47,-194.81"/>
</g>
<!-- Node9 -->
<g id="node9" class="node">
<title>Node9</title>
<g id="a_node9"><a xlink:href="Parameter_8h.xhtml" target="_top" xlink:title="In this file, the header of the Parameter class is defined.">
<polygon fill="white" stroke="black" points="1524,-112.5 1524,-131.5 1658,-131.5 1658,-112.5 1524,-112.5"/>
<text text-anchor="middle" x="1591" y="-119.5" font-family="Helvetica,sans-Serif" font-size="10.00">parameters/Parameter.h</text>
</a>
</g>
</g>
<!-- Node3&#45;&gt;Node9 -->
<g id="edge55" class="edge">
<title>Node3&#45;&gt;Node9</title>
<path fill="none" stroke="midnightblue" d="M921.07,-341.86C928.03,-339.58 935.74,-337.38 943,-336 1065.94,-312.63 1390.74,-351.06 1505,-300 1565.12,-273.13 1581.9,-250.71 1602,-188 1606.96,-172.52 1603.03,-154.21 1598.55,-140.97"/>
<polygon fill="midnightblue" stroke="midnightblue" points="1601.81,-139.71 1595,-131.6 1595.27,-142.19 1601.81,-139.71"/>
</g>
<!-- Node10 -->
<g id="node10" class="node">
<title>Node10</title>
<g id="a_node10"><a xlink:href="Optimizer_8h.xhtml" target="_top" xlink:title="In this file, the header of the Optimizer class is defined.">
<polygon fill="white" stroke="black" points="248.5,-224.5 248.5,-243.5 379.5,-243.5 379.5,-224.5 248.5,-224.5"/>
<text text-anchor="middle" x="314" y="-231.5" font-family="Helvetica,sans-Serif" font-size="10.00">../optimizer/Optimizer.h</text>
</a>
</g>
</g>
<!-- Node3&#45;&gt;Node10 -->
<g id="edge13" class="edge">
<title>Node3&#45;&gt;Node10</title>
<path fill="none" stroke="midnightblue" d="M861.35,-351.36C781.37,-352.2 586.04,-348.62 432,-300 395.15,-288.37 356.71,-264.67 334.08,-249.33"/>
<polygon fill="midnightblue" stroke="midnightblue" points="335.89,-246.33 325.68,-243.52 331.91,-252.09 335.89,-246.33"/>
</g>
<!-- Node13 -->
<g id="node13" class="node">
<title>Node13</title>
<g id="a_node13"><a xlink:href="Abortable_8h.xhtml" target="_top" xlink:title="In this file, the header of the Abortable class is defined.">
<polygon fill="white" stroke="black" points="104,-168.5 104,-187.5 210,-187.5 210,-168.5 104,-168.5"/>
<text text-anchor="middle" x="157" y="-175.5" font-family="Helvetica,sans-Serif" font-size="10.00">../utils/Abortable.h</text>
</a>
</g>
</g>
<!-- Node3&#45;&gt;Node13 -->
<g id="edge72" class="edge">
<title>Node3&#45;&gt;Node13</title>
<path fill="none" stroke="midnightblue" d="M861.3,-350.28C776.21,-349.03 559.35,-341.66 384,-300 316.79,-284.03 298.97,-278.29 239,-244 214.29,-229.87 189.11,-208.69 173.29,-194.38"/>
<polygon fill="midnightblue" stroke="midnightblue" points="175.65,-191.79 165.92,-187.6 170.91,-196.94 175.65,-191.79"/>
</g>
<!-- Node14 -->
<g id="node14" class="node">
<title>Node14</title>
<g id="a_node14"><a xlink:title=" ">
<polygon fill="white" stroke="#bfbfbf" points="638,-112.5 638,-131.5 670,-131.5 670,-112.5 638,-112.5"/>
<text text-anchor="middle" x="654" y="-119.5" font-family="Helvetica,sans-Serif" font-size="10.00">list</text>
</a>
</g>
</g>
<!-- Node3&#45;&gt;Node14 -->
<g id="edge75" class="edge">
<title>Node3&#45;&gt;Node14</title>
<path fill="none" stroke="midnightblue" d="M861.43,-349.25C749.62,-345.14 413.56,-330.5 309,-300 205.95,-269.94 150.59,-279.84 95,-188 90.4,-180.4 88.97,-174.53 95,-168 104.17,-158.07 518.26,-131.49 627.7,-124.63"/>
<polygon fill="midnightblue" stroke="midnightblue" points="628.11,-128.12 637.87,-124 627.67,-121.13 628.11,-128.12"/>
</g>
<!-- Node15 -->
<g id="node15" class="node">
<title>Node15</title>
<g id="a_node15"><a xlink:title=" ">
<polygon fill="white" stroke="#bfbfbf" points="616,-168.5 616,-187.5 654,-187.5 654,-168.5 616,-168.5"/>
<text text-anchor="middle" x="635" y="-175.5" font-family="Helvetica,sans-Serif" font-size="10.00">map</text>
</a>
</g>
</g>
<!-- Node3&#45;&gt;Node15 -->
<g id="edge73" class="edge">
<title>Node3&#45;&gt;Node15</title>
<path fill="none" stroke="midnightblue" d="M861.14,-347.69C822.12,-343.11 760.3,-331.15 717,-300 679.54,-273.05 653.92,-223.33 642.22,-196.79"/>
<polygon fill="midnightblue" stroke="midnightblue" points="645.43,-195.39 638.31,-187.55 638.99,-198.12 645.43,-195.39"/>
</g>
<!-- Node16 -->
<g id="node16" class="node">
<title>Node16</title>
<g id="a_node16"><a xlink:href="SimulationRunner_8h.xhtml" target="_top" xlink:title="In this file, the header of the SimulationRunner class is defined.">
<polygon fill="white" stroke="black" points="726.5,-280.5 726.5,-299.5 881.5,-299.5 881.5,-280.5 726.5,-280.5"/>
<text text-anchor="middle" x="804" y="-287.5" font-family="Helvetica,sans-Serif" font-size="10.00">../runner/SimulationRunner.h</text>
</a>
</g>
</g>
<!-- Node3&#45;&gt;Node16 -->
<g id="edge25" class="edge">
<title>Node3&#45;&gt;Node16</title>
<path fill="none" stroke="midnightblue" d="M884.53,-341.98C869.32,-332.34 844.31,-316.52 826.2,-305.05"/>
<polygon fill="midnightblue" stroke="midnightblue" points="827.76,-301.9 817.44,-299.51 824.02,-307.81 827.76,-301.9"/>
</g>
<!-- Node20 -->
<g id="node20" class="node">
<title>Node20</title>
<g id="a_node20"><a xlink:title=" ">
<polygon fill="white" stroke="#bfbfbf" points="1116,-168.5 1116,-187.5 1148,-187.5 1148,-168.5 1116,-168.5"/>
<text text-anchor="middle" x="1132" y="-175.5" font-family="Helvetica,sans-Serif" font-size="10.00">set</text>
</a>
</g>
</g>
<!-- Node3&#45;&gt;Node20 -->
<g id="edge77" class="edge">
<title>Node3&#45;&gt;Node20</title>
<path fill="none" stroke="midnightblue" d="M907.27,-341.9C930.54,-320.52 993.75,-263.86 1052,-224 1069.54,-212 1090.5,-200.3 1106.58,-191.83"/>
<polygon fill="midnightblue" stroke="midnightblue" points="1108.61,-194.72 1115.87,-187.01 1105.39,-188.51 1108.61,-194.72"/>
</g>
<!-- Node26 -->
<g id="node26" class="node">
<title>Node26</title>
<g id="a_node26"><a xlink:href="Evaluation_8h.xhtml" target="_top" xlink:title="In this file, the header of the Evaluation class is defined.">
<polygon fill="white" stroke="black" points="1061.5,-224.5 1061.5,-243.5 1202.5,-243.5 1202.5,-224.5 1061.5,-224.5"/>
<text text-anchor="middle" x="1132" y="-231.5" font-family="Helvetica,sans-Serif" font-size="10.00">../evaluation/Evaluation.h</text>
</a>
</g>
</g>
<!-- Node3&#45;&gt;Node26 -->
<g id="edge49" class="edge">
<title>Node3&#45;&gt;Node26</title>
<path fill="none" stroke="midnightblue" d="M916.84,-341.96C938.47,-332.09 974.98,-315.25 1006,-300 1041.26,-282.67 1081.53,-261.68 1106.86,-248.34"/>
<polygon fill="midnightblue" stroke="midnightblue" points="1108.58,-251.38 1115.79,-243.62 1105.31,-245.19 1108.58,-251.38"/>
</g>
<!-- Node27 -->
<g id="node27" class="node">
<title>Node27</title>
<g id="a_node27"><a xlink:href="StatusBar_8h.xhtml" target="_top" xlink:title="In this file, the header of the StatusBar class is defined.">
<polygon fill="white" stroke="black" points="1382,-280.5 1382,-299.5 1496,-299.5 1496,-280.5 1382,-280.5"/>
<text text-anchor="middle" x="1439" y="-287.5" font-family="Helvetica,sans-Serif" font-size="10.00">../status/StatusBar.h</text>
</a>
</g>
</g>
<!-- Node3&#45;&gt;Node27 -->
<g id="edge56" class="edge">
<title>Node3&#45;&gt;Node27</title>
<path fill="none" stroke="midnightblue" d="M921.09,-341.98C928.05,-339.71 935.76,-337.48 943,-336 983.95,-327.65 1245.89,-306.25 1371.71,-296.27"/>
<polygon fill="midnightblue" stroke="midnightblue" points="1372.3,-299.74 1381.99,-295.46 1371.75,-292.76 1372.3,-299.74"/>
</g>
<!-- Node5 -->
<g id="node5" class="node">
<title>Node5</title>
<g id="a_node5"><a xlink:title=" ">
<polygon fill="white" stroke="#bfbfbf" points="1300,-0.5 1300,-19.5 1344,-19.5 1344,-0.5 1300,-0.5"/>
<text text-anchor="middle" x="1322" y="-7.5" font-family="Helvetica,sans-Serif" font-size="10.00">string</text>
</a>
</g>
</g>
<!-- Node4&#45;&gt;Node5 -->
<g id="edge4" class="edge">
<title>Node4&#45;&gt;Node5</title>
<path fill="none" stroke="midnightblue" d="M1436.45,-56.44C1413.97,-47.52 1378.51,-33.44 1353.02,-23.32"/>
<polygon fill="midnightblue" stroke="midnightblue" points="1354.03,-19.95 1343.45,-19.52 1351.45,-26.46 1354.03,-19.95"/>
</g>
<!-- Node4&#45;&gt;Node6 -->
<g id="edge5" class="edge">
<title>Node4&#45;&gt;Node6</title>
<path fill="none" stroke="midnightblue" d="M1426.57,-58.46C1422.03,-57.59 1417.4,-56.74 1413,-56 1305.47,-37.91 1177.24,-21.99 1117.59,-14.9"/>
<polygon fill="midnightblue" stroke="midnightblue" points="1117.95,-11.42 1107.61,-13.72 1117.13,-18.37 1117.95,-11.42"/>
</g>
<!-- Node4&#45;&gt;Node7 -->
<g id="edge6" class="edge">
<title>Node4&#45;&gt;Node7</title>
<path fill="none" stroke="midnightblue" d="M1489.23,-57.26C1528.17,-47.62 1594.74,-31.13 1636.99,-20.66"/>
<polygon fill="midnightblue" stroke="midnightblue" points="1638.05,-24.01 1646.91,-18.2 1636.37,-17.21 1638.05,-24.01"/>
</g>
<!-- Node8&#45;&gt;Node6 -->
<g id="edge12" class="edge">
<title>Node8&#45;&gt;Node6</title>
<path fill="none" stroke="midnightblue" d="M1417.57,-168.31C1359.59,-140.97 1180.7,-56.6 1111.62,-24.02"/>
<polygon fill="midnightblue" stroke="midnightblue" points="1112.78,-20.7 1102.25,-19.61 1109.8,-27.04 1112.78,-20.7"/>
</g>
<!-- Node8&#45;&gt;Node9 -->
<g id="edge8" class="edge">
<title>Node8&#45;&gt;Node9</title>
<path fill="none" stroke="midnightblue" d="M1460.56,-168.44C1486.52,-159.4 1527.67,-145.06 1556.8,-134.92"/>
<polygon fill="midnightblue" stroke="midnightblue" points="1558.26,-138.11 1566.55,-131.52 1555.96,-131.5 1558.26,-138.11"/>
</g>
<!-- Node9&#45;&gt;Node4 -->
<g id="edge9" class="edge">
<title>Node9&#45;&gt;Node4</title>
<path fill="none" stroke="midnightblue" d="M1569.93,-112.44C1547.94,-103.52 1513.27,-89.44 1488.34,-79.32"/>
<polygon fill="midnightblue" stroke="midnightblue" points="1489.56,-76.04 1478.98,-75.52 1486.92,-82.52 1489.56,-76.04"/>
</g>
<!-- Node9&#45;&gt;Node5 -->
<g id="edge10" class="edge">
<title>Node9&#45;&gt;Node5</title>
<path fill="none" stroke="midnightblue" d="M1581.15,-112.28C1564.94,-98.37 1531.12,-71.2 1498,-56 1450.39,-34.15 1390.46,-21.71 1354.25,-15.67"/>
<polygon fill="midnightblue" stroke="midnightblue" points="1354.68,-12.19 1344.26,-14.06 1353.57,-19.1 1354.68,-12.19"/>
</g>
<!-- Node9&#45;&gt;Node7 -->
<g id="edge11" class="edge">
<title>Node9&#45;&gt;Node7</title>
<path fill="none" stroke="midnightblue" d="M1607.61,-112.36C1621.24,-104.52 1640.14,-91.78 1652,-76 1662.38,-62.19 1668.67,-43.42 1672.19,-29.6"/>
<polygon fill="midnightblue" stroke="midnightblue" points="1675.62,-30.3 1674.44,-19.77 1668.79,-28.73 1675.62,-30.3"/>
</g>
<!-- Node10&#45;&gt;Node4 -->
<g id="edge14" class="edge">
<title>Node10&#45;&gt;Node4</title>
<path fill="none" stroke="midnightblue" d="M326.75,-224.32C346.78,-210.93 387.16,-185.04 424,-168 493.14,-136.02 511.22,-126.55 586,-112 748.2,-80.44 1266.57,-70 1416.82,-67.59"/>
<polygon fill="midnightblue" stroke="midnightblue" points="1417.05,-71.09 1426.99,-67.43 1416.94,-64.09 1417.05,-71.09"/>
</g>
<!-- Node10&#45;&gt;Node6 -->
<g id="edge22" class="edge">
<title>Node10&#45;&gt;Node6</title>
<path fill="none" stroke="midnightblue" d="M298.22,-224.47C285.8,-216.77 269.39,-204.18 262,-188 247.96,-157.28 239.62,-137.3 262,-112 315.21,-51.85 901.58,-19.76 1050.01,-12.57"/>
<polygon fill="midnightblue" stroke="midnightblue" points="1050.5,-16.05 1060.32,-12.08 1050.16,-9.06 1050.5,-16.05"/>
</g>
<!-- Node10&#45;&gt;Node7 -->
<g id="edge24" class="edge">
<title>Node10&#45;&gt;Node7</title>
<path fill="none" stroke="midnightblue" d="M308.5,-224.31C295.36,-202.31 265.32,-143.93 295,-112 342,-61.44 1416.83,-20.29 1636.86,-12.37"/>
<polygon fill="midnightblue" stroke="midnightblue" points="1637.11,-15.87 1646.98,-12.01 1636.86,-8.87 1637.11,-15.87"/>
</g>
<!-- Node11 -->
<g id="node11" class="node">
<title>Node11</title>
<g id="a_node11"><a xlink:href="ParameterDefinition_8h.xhtml" target="_top" xlink:title="In this file, the header of the ParameterDefinition class is defined.">
<polygon fill="white" stroke="black" points="304.5,-112.5 304.5,-131.5 495.5,-131.5 495.5,-112.5 304.5,-112.5"/>
<text text-anchor="middle" x="400" y="-119.5" font-family="Helvetica,sans-Serif" font-size="10.00">../parameters/ParameterDefinition.h</text>
</a>
</g>
</g>
<!-- Node10&#45;&gt;Node11 -->
<g id="edge15" class="edge">
<title>Node10&#45;&gt;Node11</title>
<path fill="none" stroke="midnightblue" d="M315.54,-224.22C318.23,-210.94 324.78,-185.45 338,-168 347.69,-155.2 362.03,-144.47 374.48,-136.7"/>
<polygon fill="midnightblue" stroke="midnightblue" points="376.29,-139.69 383.11,-131.58 372.72,-133.67 376.29,-139.69"/>
</g>
<!-- Node12 -->
<g id="node12" class="node">
<title>Node12</title>
<g id="a_node12"><a xlink:href="Status_8h.xhtml" target="_top" xlink:title="In this file, the header of the Status class is defined.">
<polygon fill="white" stroke="black" points="1000,-168.5 1000,-187.5 1098,-187.5 1098,-168.5 1000,-168.5"/>
<text text-anchor="middle" x="1049" y="-175.5" font-family="Helvetica,sans-Serif" font-size="10.00">../status/Status.h</text>
</a>
</g>
</g>
<!-- Node10&#45;&gt;Node12 -->
<g id="edge18" class="edge">
<title>Node10&#45;&gt;Node12</title>
<path fill="none" stroke="midnightblue" d="M379.81,-228.87C495.71,-221.48 743.79,-205.17 953,-188 964.86,-187.03 977.54,-185.9 989.66,-184.78"/>
<polygon fill="midnightblue" stroke="midnightblue" points="990.06,-188.26 999.69,-183.84 989.41,-181.29 990.06,-188.26"/>
</g>
<!-- Node10&#45;&gt;Node13 -->
<g id="edge20" class="edge">
<title>Node10&#45;&gt;Node13</title>
<path fill="none" stroke="midnightblue" d="M289.12,-224.44C262.71,-215.36 220.78,-200.94 191.26,-190.78"/>
<polygon fill="midnightblue" stroke="midnightblue" points="192.36,-187.46 181.76,-187.52 190.08,-194.08 192.36,-187.46"/>
</g>
<!-- Node10&#45;&gt;Node14 -->
<g id="edge21" class="edge">
<title>Node10&#45;&gt;Node14</title>
<path fill="none" stroke="midnightblue" d="M334.55,-224.4C366.42,-211.24 429.83,-185.78 485,-168 535.07,-151.87 594.77,-136.96 628.14,-129.01"/>
<polygon fill="midnightblue" stroke="midnightblue" points="629.07,-132.38 638,-126.68 627.46,-125.57 629.07,-132.38"/>
</g>
<!-- Node10&#45;&gt;Node15 -->
<g id="edge23" class="edge">
<title>Node10&#45;&gt;Node15</title>
<path fill="none" stroke="midnightblue" d="M364.86,-224.44C432.81,-213.01 550.99,-193.13 605.68,-183.93"/>
<polygon fill="midnightblue" stroke="midnightblue" points="606.46,-187.35 615.74,-182.24 605.3,-180.45 606.46,-187.35"/>
</g>
<!-- Node11&#45;&gt;Node4 -->
<g id="edge16" class="edge">
<title>Node11&#45;&gt;Node4</title>
<path fill="none" stroke="midnightblue" d="M495.68,-112.97C500.52,-112.63 505.32,-112.3 510,-112 860.6,-89.34 1284.83,-73.21 1416.81,-68.45"/>
<polygon fill="midnightblue" stroke="midnightblue" points="1417.01,-71.95 1426.88,-68.09 1416.76,-64.95 1417.01,-71.95"/>
</g>
<!-- Node11&#45;&gt;Node5 -->
<g id="edge17" class="edge">
<title>Node11&#45;&gt;Node5</title>
<path fill="none" stroke="midnightblue" d="M471.58,-112.46C658.83,-90.12 1157.75,-30.6 1289.65,-14.86"/>
<polygon fill="midnightblue" stroke="midnightblue" points="1290.37,-18.3 1299.88,-13.64 1289.54,-11.35 1290.37,-18.3"/>
</g>
<!-- Node12&#45;&gt;Node5 -->
<g id="edge19" class="edge">
<title>Node12&#45;&gt;Node5</title>
<path fill="none" stroke="midnightblue" d="M1063.29,-168.31C1107.89,-141.19 1244.74,-57.98 1299.25,-24.83"/>
<polygon fill="midnightblue" stroke="midnightblue" points="1301.12,-27.79 1307.85,-19.61 1297.49,-21.81 1301.12,-27.79"/>
</g>
<!-- Node16&#45;&gt;Node4 -->
<g id="edge26" class="edge">
<title>Node16&#45;&gt;Node4</title>
<path fill="none" stroke="midnightblue" d="M756.47,-280.5C659.77,-262.08 451.98,-216.28 485,-168 486.21,-166.23 626.9,-112.45 629,-112 706.21,-95.34 1259.06,-74.21 1416.35,-68.49"/>
<polygon fill="midnightblue" stroke="midnightblue" points="1416.69,-71.98 1426.55,-68.12 1416.43,-64.98 1416.69,-71.98"/>
</g>
<!-- Node16&#45;&gt;Node6 -->
<g id="edge43" class="edge">
<title>Node16&#45;&gt;Node6</title>
<path fill="none" stroke="midnightblue" d="M726.32,-289.19C527.97,-288.14 23.3,-275.06 95,-168 167.75,-59.37 239.61,-85.38 367,-56 499.56,-25.43 926.82,-14.28 1050.29,-11.66"/>
<polygon fill="midnightblue" stroke="midnightblue" points="1050.38,-15.15 1060.3,-11.45 1050.23,-8.16 1050.38,-15.15"/>
</g>
<!-- Node16&#45;&gt;Node7 -->
<g id="edge46" class="edge">
<title>Node16&#45;&gt;Node7</title>
<path fill="none" stroke="midnightblue" d="M726.07,-288.4C612.96,-284.33 422.55,-263.55 478,-168 503.18,-124.61 528.16,-127.08 576,-112 780.23,-47.62 1465.25,-18.7 1636.79,-12.37"/>
<polygon fill="midnightblue" stroke="midnightblue" points="1637.02,-15.86 1646.88,-12 1636.76,-8.87 1637.02,-15.86"/>
</g>
<!-- Node16&#45;&gt;Node8 -->
<g id="edge27" class="edge">
<title>Node16&#45;&gt;Node8</title>
<path fill="none" stroke="midnightblue" d="M881.52,-285.93C968.06,-281.34 1111.87,-270.22 1233,-244 1260.47,-238.05 1266.26,-232.66 1293,-224 1328.77,-212.41 1369.71,-199.57 1398.59,-190.58"/>
<polygon fill="midnightblue" stroke="midnightblue" points="1399.76,-193.88 1408.27,-187.57 1397.69,-187.2 1399.76,-193.88"/>
</g>
<!-- Node16&#45;&gt;Node12 -->
<g id="edge42" class="edge">
<title>Node16&#45;&gt;Node12</title>
<path fill="none" stroke="midnightblue" d="M820.61,-280.4C845.61,-267.57 894.49,-242.9 937,-224 963.52,-212.21 994.13,-200.01 1016.64,-191.29"/>
<polygon fill="midnightblue" stroke="midnightblue" points="1017.99,-194.52 1026.06,-187.66 1015.47,-187.99 1017.99,-194.52"/>
</g>
<!-- Node16&#45;&gt;Node15 -->
<g id="edge45" class="edge">
<title>Node16&#45;&gt;Node15</title>
<path fill="none" stroke="midnightblue" d="M789.62,-280.38C774.81,-271.46 751.13,-257.01 731,-244 704.73,-227.02 674.98,-206.71 655.66,-193.36"/>
<polygon fill="midnightblue" stroke="midnightblue" points="657.53,-190.4 647.31,-187.58 653.54,-196.15 657.53,-190.4"/>
</g>
<!-- Node17 -->
<g id="node17" class="node">
<title>Node17</title>
<g id="a_node17"><a xlink:href="Multithreaded_8h.xhtml" target="_top" xlink:title="In this file, the header of the Multithreaded class is defined.">
<polygon fill="white" stroke="black" points="740.5,-224.5 740.5,-243.5 867.5,-243.5 867.5,-224.5 740.5,-224.5"/>
<text text-anchor="middle" x="804" y="-231.5" font-family="Helvetica,sans-Serif" font-size="10.00">../utils/Multithreaded.h</text>
</a>
</g>
</g>
<!-- Node16&#45;&gt;Node17 -->
<g id="edge28" class="edge">
<title>Node16&#45;&gt;Node17</title>
<path fill="none" stroke="midnightblue" d="M804,-280.08C804,-273.01 804,-262.86 804,-253.99"/>
<polygon fill="midnightblue" stroke="midnightblue" points="807.5,-253.75 804,-243.75 800.5,-253.75 807.5,-253.75"/>
</g>
<!-- Node19 -->
<g id="node19" class="node">
<title>Node19</title>
<g id="a_node19"><a xlink:title=" ">
<polygon fill="white" stroke="#bfbfbf" points="761.5,-112.5 761.5,-131.5 808.5,-131.5 808.5,-112.5 761.5,-112.5"/>
<text text-anchor="middle" x="785" y="-119.5" font-family="Helvetica,sans-Serif" font-size="10.00">queue</text>
</a>
</g>
</g>
<!-- Node16&#45;&gt;Node19 -->
<g id="edge48" class="edge">
<title>Node16&#45;&gt;Node19</title>
<path fill="none" stroke="midnightblue" d="M757.43,-280.46C709.51,-268.84 637.65,-242.86 607,-188 562.46,-108.3 611.34,-165.35 751.42,-132"/>
<polygon fill="midnightblue" stroke="midnightblue" points="752.37,-135.37 761.22,-129.55 750.67,-128.58 752.37,-135.37"/>
</g>
<!-- Node16&#45;&gt;Node20 -->
<g id="edge44" class="edge">
<title>Node16&#45;&gt;Node20</title>
<path fill="none" stroke="midnightblue" d="M829.47,-280.49C855.23,-271.77 896.13,-257.58 931,-244 952.15,-235.76 956.58,-231.51 978,-224 1031.32,-205.3 1048.55,-205.97 1106.29,-188.03"/>
<polygon fill="midnightblue" stroke="midnightblue" points="1107.44,-191.34 1115.92,-184.98 1105.33,-184.66 1107.44,-191.34"/>
</g>
<!-- Node25 -->
<g id="node25" class="node">
<title>Node25</title>
<g id="a_node25"><a xlink:title=" ">
<polygon fill="white" stroke="#bfbfbf" points="1204,-168.5 1204,-187.5 1272,-187.5 1272,-168.5 1204,-168.5"/>
<text text-anchor="middle" x="1238" y="-175.5" font-family="Helvetica,sans-Serif" font-size="10.00">filesystem</text>
</a>
</g>
</g>
<!-- Node16&#45;&gt;Node25 -->
<g id="edge47" class="edge">
<title>Node16&#45;&gt;Node25</title>
<path fill="none" stroke="midnightblue" d="M881.54,-289.58C984.88,-288.83 1160.6,-281.81 1211,-244 1225.49,-233.13 1232.25,-213.06 1235.38,-198.08"/>
<polygon fill="midnightblue" stroke="midnightblue" points="1238.89,-198.31 1237.13,-187.86 1231.99,-197.13 1238.89,-198.31"/>
</g>
<!-- Node17&#45;&gt;Node2 -->
<g id="edge32" class="edge">
<title>Node17&#45;&gt;Node2</title>
<path fill="none" stroke="midnightblue" d="M760.11,-224.44C707.91,-214.27 621.36,-197.39 569.69,-187.32"/>
<polygon fill="midnightblue" stroke="midnightblue" points="570.33,-183.88 559.84,-185.4 568.99,-190.75 570.33,-183.88"/>
</g>
<!-- Node17&#45;&gt;Node15 -->
<g id="edge31" class="edge">
<title>Node17&#45;&gt;Node15</title>
<path fill="none" stroke="midnightblue" d="M777.23,-224.47C750.74,-216.04 708.81,-202.66 663.9,-188.28"/>
<polygon fill="midnightblue" stroke="midnightblue" points="664.87,-184.92 654.28,-185.2 662.73,-191.59 664.87,-184.92"/>
</g>
<!-- Node18 -->
<g id="node18" class="node">
<title>Node18</title>
<g id="a_node18"><a xlink:title=" ">
<polygon fill="white" stroke="#bfbfbf" points="967,-112.5 967,-131.5 1015,-131.5 1015,-112.5 967,-112.5"/>
<text text-anchor="middle" x="991" y="-119.5" font-family="Helvetica,sans-Serif" font-size="10.00">mutex</text>
</a>
</g>
</g>
<!-- Node17&#45;&gt;Node18 -->
<g id="edge29" class="edge">
<title>Node17&#45;&gt;Node18</title>
<path fill="none" stroke="midnightblue" d="M867.6,-224.59C896.05,-218.27 928.59,-207.24 953,-188 968.37,-175.89 978.75,-155.72 984.73,-141.06"/>
<polygon fill="midnightblue" stroke="midnightblue" points="988.06,-142.14 988.31,-131.55 981.51,-139.67 988.06,-142.14"/>
</g>
<!-- Node17&#45;&gt;Node19 -->
<g id="edge30" class="edge">
<title>Node17&#45;&gt;Node19</title>
<path fill="none" stroke="midnightblue" d="M802.51,-224.37C799.44,-206.62 792.37,-165.67 788.21,-141.6"/>
<polygon fill="midnightblue" stroke="midnightblue" points="791.64,-140.85 786.48,-131.59 784.74,-142.04 791.64,-140.85"/>
</g>
<!-- Node17&#45;&gt;Node20 -->
<g id="edge33" class="edge">
<title>Node17&#45;&gt;Node20</title>
<path fill="none" stroke="midnightblue" d="M867.68,-227.25C927.26,-221.03 1018.74,-209.35 1105.95,-187.84"/>
<polygon fill="midnightblue" stroke="midnightblue" points="1106.89,-191.21 1115.74,-185.38 1105.19,-184.42 1106.89,-191.21"/>
</g>
<!-- Node21 -->
<g id="node21" class="node">
<title>Node21</title>
<g id="a_node21"><a xlink:href="ThreadsafeQueue_8h.xhtml" target="_top" xlink:title="In this file, the header of the ThreadSafeQueue class is defined.">
<polygon fill="white" stroke="black" points="832,-168.5 832,-187.5 944,-187.5 944,-168.5 832,-168.5"/>
<text text-anchor="middle" x="888" y="-175.5" font-family="Helvetica,sans-Serif" font-size="10.00">ThreadsafeQueue.h</text>
</a>
</g>
</g>
<!-- Node17&#45;&gt;Node21 -->
<g id="edge34" class="edge">
<title>Node17&#45;&gt;Node21</title>
<path fill="none" stroke="midnightblue" d="M817.5,-224.32C830.6,-215.9 850.71,-202.97 866.11,-193.07"/>
<polygon fill="midnightblue" stroke="midnightblue" points="868.02,-196.01 874.54,-187.65 864.23,-190.12 868.02,-196.01"/>
</g>
<!-- Node23 -->
<g id="node23" class="node">
<title>Node23</title>
<g id="a_node23"><a xlink:href="Multithreaded_8tpp.xhtml" target="_top" xlink:title="In this file, the implementation of the Multithreaded class is defined.">
<polygon fill="white" stroke="black" points="672,-168.5 672,-187.5 776,-187.5 776,-168.5 672,-168.5"/>
<text text-anchor="middle" x="724" y="-175.5" font-family="Helvetica,sans-Serif" font-size="10.00">Multithreaded.tpp</text>
</a>
</g>
</g>
<!-- Node17&#45;&gt;Node23 -->
<g id="edge39" class="edge">
<title>Node17&#45;&gt;Node23</title>
<path fill="none" stroke="midnightblue" d="M791.15,-224.32C778.78,-215.98 759.87,-203.21 745.26,-193.35"/>
<polygon fill="midnightblue" stroke="midnightblue" points="747.07,-190.35 736.82,-187.65 743.15,-196.15 747.07,-190.35"/>
</g>
<!-- Node21&#45;&gt;Node18 -->
<g id="edge36" class="edge">
<title>Node21&#45;&gt;Node18</title>
<path fill="none" stroke="midnightblue" d="M904.55,-168.32C920.99,-159.7 946.43,-146.36 965.47,-136.39"/>
<polygon fill="midnightblue" stroke="midnightblue" points="967.26,-139.4 974.49,-131.65 964.01,-133.2 967.26,-139.4"/>
</g>
<!-- Node21&#45;&gt;Node19 -->
<g id="edge35" class="edge">
<title>Node21&#45;&gt;Node19</title>
<path fill="none" stroke="midnightblue" d="M871.45,-168.32C855.01,-159.7 829.57,-146.36 810.53,-136.39"/>
<polygon fill="midnightblue" stroke="midnightblue" points="811.99,-133.2 801.51,-131.65 808.74,-139.4 811.99,-133.2"/>
</g>
<!-- Node22 -->
<g id="node22" class="node">
<title>Node22</title>
<g id="a_node22"><a xlink:href="ThreadsafeQueue_8tpp.xhtml" target="_top" xlink:title="In this file, the implementation of the ThreadSafeQueue class is defined.">
<polygon fill="white" stroke="black" points="827,-112.5 827,-131.5 949,-131.5 949,-112.5 827,-112.5"/>
<text text-anchor="middle" x="888" y="-119.5" font-family="Helvetica,sans-Serif" font-size="10.00">ThreadsafeQueue.tpp</text>
</a>
</g>
</g>
<!-- Node21&#45;&gt;Node22 -->
<g id="edge37" class="edge">
<title>Node21&#45;&gt;Node22</title>
<path fill="none" stroke="midnightblue" d="M882.83,-168.08C881.32,-160.93 880.89,-150.64 881.54,-141.69"/>
<polygon fill="midnightblue" stroke="midnightblue" points="885.02,-142.13 882.87,-131.75 878.08,-141.2 885.02,-142.13"/>
</g>
<!-- Node22&#45;&gt;Node21 -->
<g id="edge38" class="edge">
<title>Node22&#45;&gt;Node21</title>
<path fill="none" stroke="midnightblue" d="M893.13,-131.75C894.66,-138.86 895.1,-149.14 894.47,-158.1"/>
<polygon fill="midnightblue" stroke="midnightblue" points="890.99,-157.71 893.17,-168.08 897.93,-158.62 890.99,-157.71"/>
</g>
<!-- Node23&#45;&gt;Node14 -->
<g id="edge41" class="edge">
<title>Node23&#45;&gt;Node14</title>
<path fill="none" stroke="midnightblue" d="M712.75,-168.32C702.2,-160.18 686.2,-147.84 673.56,-138.09"/>
<polygon fill="midnightblue" stroke="midnightblue" points="675.51,-135.17 665.45,-131.83 671.23,-140.71 675.51,-135.17"/>
</g>
<!-- Node24 -->
<g id="node24" class="node">
<title>Node24</title>
<g id="a_node24"><a xlink:title=" ">
<polygon fill="white" stroke="#bfbfbf" points="697,-112.5 697,-131.5 743,-131.5 743,-112.5 697,-112.5"/>
<text text-anchor="middle" x="720" y="-119.5" font-family="Helvetica,sans-Serif" font-size="10.00">future</text>
</a>
</g>
</g>
<!-- Node23&#45;&gt;Node24 -->
<g id="edge40" class="edge">
<title>Node23&#45;&gt;Node24</title>
<path fill="none" stroke="midnightblue" d="M723.34,-168.08C722.82,-161.01 722.06,-150.86 721.41,-141.99"/>
<polygon fill="midnightblue" stroke="midnightblue" points="724.88,-141.47 720.65,-131.75 717.9,-141.98 724.88,-141.47"/>
</g>
<!-- Node26&#45;&gt;Node4 -->
<g id="edge50" class="edge">
<title>Node26&#45;&gt;Node4</title>
<path fill="none" stroke="midnightblue" d="M1138.42,-224.25C1148.88,-210.55 1170.87,-183.94 1195,-168 1266.31,-120.89 1362.8,-91.03 1416.88,-76.83"/>
<polygon fill="midnightblue" stroke="midnightblue" points="1417.98,-80.16 1426.79,-74.28 1416.23,-73.38 1417.98,-80.16"/>
</g>
<!-- Node26&#45;&gt;Node12 -->
<g id="edge51" class="edge">
<title>Node26&#45;&gt;Node12</title>
<path fill="none" stroke="midnightblue" d="M1118.66,-224.32C1105.84,-215.98 1086.22,-203.21 1071.06,-193.35"/>
<polygon fill="midnightblue" stroke="midnightblue" points="1072.59,-190.17 1062.3,-187.65 1068.78,-196.04 1072.59,-190.17"/>
</g>
<!-- Node26&#45;&gt;Node15 -->
<g id="edge54" class="edge">
<title>Node26&#45;&gt;Node15</title>
<path fill="none" stroke="midnightblue" d="M1061.37,-230.95C971.04,-227.28 809.84,-217.21 664.15,-187.81"/>
<polygon fill="midnightblue" stroke="midnightblue" points="664.63,-184.33 654.13,-185.75 663.23,-191.19 664.63,-184.33"/>
</g>
<!-- Node26&#45;&gt;Node20 -->
<g id="edge52" class="edge">
<title>Node26&#45;&gt;Node20</title>
<path fill="none" stroke="midnightblue" d="M1132,-224.08C1132,-217.01 1132,-206.86 1132,-197.99"/>
<polygon fill="midnightblue" stroke="midnightblue" points="1135.5,-197.75 1132,-187.75 1128.5,-197.75 1135.5,-197.75"/>
</g>
<!-- Node26&#45;&gt;Node25 -->
<g id="edge53" class="edge">
<title>Node26&#45;&gt;Node25</title>
<path fill="none" stroke="midnightblue" d="M1149.03,-224.32C1166.03,-215.66 1192.38,-202.24 1211.99,-192.25"/>
<polygon fill="midnightblue" stroke="midnightblue" points="1213.69,-195.31 1221.01,-187.65 1210.51,-189.08 1213.69,-195.31"/>
</g>
<!-- Node27&#45;&gt;Node4 -->
<g id="edge57" class="edge">
<title>Node27&#45;&gt;Node4</title>
<path fill="none" stroke="midnightblue" d="M1464.58,-280.49C1499.83,-267.17 1561.72,-237.65 1586,-188 1603.66,-151.9 1546.75,-156.64 1515,-132 1497.1,-118.11 1480.5,-98 1469.88,-83.84"/>
<polygon fill="midnightblue" stroke="midnightblue" points="1472.53,-81.54 1463.81,-75.51 1466.87,-85.66 1472.53,-81.54"/>
</g>
<!-- Node27&#45;&gt;Node6 -->
<g id="edge70" class="edge">
<title>Node27&#45;&gt;Node6</title>
<path fill="none" stroke="midnightblue" d="M1470.25,-280.48C1545.65,-258.38 1726.99,-195.08 1667,-112 1620.68,-47.85 1575.32,-72.81 1498,-56 1358.9,-25.75 1188.87,-15.41 1117.77,-12.25"/>
<polygon fill="midnightblue" stroke="midnightblue" points="1117.76,-8.75 1107.62,-11.82 1117.47,-15.74 1117.76,-8.75"/>
</g>
<!-- Node27&#45;&gt;Node7 -->
<g id="edge69" class="edge">
<title>Node27&#45;&gt;Node7</title>
<path fill="none" stroke="midnightblue" d="M1496.2,-283.52C1597.99,-272.17 1800,-241.73 1800,-179 1800,-179 1800,-179 1800,-121 1800,-72.26 1745.73,-39.87 1708.99,-23.52"/>
<polygon fill="midnightblue" stroke="midnightblue" points="1710.19,-20.23 1699.62,-19.52 1707.44,-26.67 1710.19,-20.23"/>
</g>
<!-- Node27&#45;&gt;Node12 -->
<g id="edge68" class="edge">
<title>Node27&#45;&gt;Node12</title>
<path fill="none" stroke="midnightblue" d="M1381.88,-286.38C1279.68,-281.11 1074.09,-267.68 1052,-244 1040.7,-231.89 1041.36,-212.33 1043.99,-197.82"/>
<polygon fill="midnightblue" stroke="midnightblue" points="1047.43,-198.45 1046.21,-187.93 1040.61,-196.91 1047.43,-198.45"/>
</g>
<!-- Node27&#45;&gt;Node25 -->
<g id="edge71" class="edge">
<title>Node27&#45;&gt;Node25</title>
<path fill="none" stroke="midnightblue" d="M1423.23,-280.37C1388.37,-261.29 1304.55,-215.42 1262.68,-192.51"/>
<polygon fill="midnightblue" stroke="midnightblue" points="1264.15,-189.32 1253.7,-187.59 1260.79,-195.46 1264.15,-189.32"/>
</g>
<!-- Node28 -->
<g id="node28" class="node">
<title>Node28</title>
<g id="a_node28"><a xlink:href="ValueMap_8h.xhtml" target="_top" xlink:title="In this file, the header of the ValueMap class is defined.">
<polygon fill="white" stroke="black" points="1373,-224.5 1373,-243.5 1505,-243.5 1505,-224.5 1373,-224.5"/>
<text text-anchor="middle" x="1439" y="-231.5" font-family="Helvetica,sans-Serif" font-size="10.00">../controller/ValueMap.h</text>
</a>
</g>
</g>
<!-- Node27&#45;&gt;Node28 -->
<g id="edge58" class="edge">
<title>Node27&#45;&gt;Node28</title>
<path fill="none" stroke="midnightblue" d="M1439,-280.08C1439,-273.01 1439,-262.86 1439,-253.99"/>
<polygon fill="midnightblue" stroke="midnightblue" points="1442.5,-253.75 1439,-243.75 1435.5,-253.75 1442.5,-253.75"/>
</g>
<!-- Node28&#45;&gt;Node4 -->
<g id="edge59" class="edge">
<title>Node28&#45;&gt;Node4</title>
<path fill="none" stroke="midnightblue" d="M1467.02,-224.4C1484.17,-217.51 1504.75,-205.98 1515,-188 1529.31,-162.9 1497.05,-156.66 1482,-132 1473.19,-117.56 1466.82,-99.37 1462.86,-85.91"/>
<polygon fill="midnightblue" stroke="midnightblue" points="1466.14,-84.61 1460.11,-75.9 1459.39,-86.47 1466.14,-84.61"/>
</g>
<!-- Node28&#45;&gt;Node6 -->
<g id="edge63" class="edge">
<title>Node28&#45;&gt;Node6</title>
<path fill="none" stroke="midnightblue" d="M1464.18,-224.32C1492.36,-213.18 1531.97,-192.36 1515,-168 1421.81,-34.2 1202,-14 1117.71,-11.27"/>
<polygon fill="midnightblue" stroke="midnightblue" points="1117.75,-7.77 1107.66,-11.01 1117.56,-14.77 1117.75,-7.77"/>
</g>
<!-- Node28&#45;&gt;Node7 -->
<g id="edge65" class="edge">
<title>Node28&#45;&gt;Node7</title>
<path fill="none" stroke="midnightblue" d="M1505.12,-225.99C1561.28,-215.93 1637.34,-191.47 1667,-132 1683.39,-99.13 1681.63,-54.89 1678.84,-30.03"/>
<polygon fill="midnightblue" stroke="midnightblue" points="1682.27,-29.26 1677.5,-19.8 1675.33,-30.17 1682.27,-29.26"/>
</g>
<!-- Node28&#45;&gt;Node8 -->
<g id="edge60" class="edge">
<title>Node28&#45;&gt;Node8</title>
<path fill="none" stroke="midnightblue" d="M1438.5,-224.08C1438.11,-217.01 1437.55,-206.86 1437.05,-197.99"/>
<polygon fill="midnightblue" stroke="midnightblue" points="1440.54,-197.54 1436.49,-187.75 1433.55,-197.93 1440.54,-197.54"/>
</g>
<!-- Node28&#45;&gt;Node9 -->
<g id="edge61" class="edge">
<title>Node28&#45;&gt;Node9</title>
<path fill="none" stroke="midnightblue" d="M1505.06,-229.1C1534.37,-223.77 1566.56,-212.27 1586,-188 1596.27,-175.17 1596.5,-155.99 1594.77,-141.78"/>
<polygon fill="midnightblue" stroke="midnightblue" points="1598.19,-140.98 1593.13,-131.68 1591.28,-142.11 1598.19,-140.98"/>
</g>
<!-- Node28&#45;&gt;Node14 -->
<g id="edge64" class="edge">
<title>Node28&#45;&gt;Node14</title>
<path fill="none" stroke="midnightblue" d="M1410.3,-224.47C1384.53,-216.39 1345.95,-203.25 1314,-188 1298.52,-180.61 1297.37,-173.11 1281,-168 1028.97,-89.28 948.68,-173.99 688,-132 685.42,-131.58 682.74,-131.05 680.08,-130.46"/>
<polygon fill="midnightblue" stroke="midnightblue" points="680.67,-127 670.12,-127.97 678.97,-133.79 680.67,-127"/>
</g>
<!-- Node28&#45;&gt;Node15 -->
<g id="edge62" class="edge">
<title>Node28&#45;&gt;Node15</title>
<path fill="none" stroke="midnightblue" d="M1372.77,-230.12C1204.09,-222.66 765.03,-202.36 664.02,-187.5"/>
<polygon fill="midnightblue" stroke="midnightblue" points="664.55,-184.04 654.11,-185.85 663.4,-190.94 664.55,-184.04"/>
</g>
<!-- Node28&#45;&gt;Node18 -->
<g id="edge67" class="edge">
<title>Node28&#45;&gt;Node18</title>
<path fill="none" stroke="midnightblue" d="M1423.03,-224.3C1391.94,-207.44 1325.36,-171.63 1314,-168 1286.89,-159.35 1103.15,-136.53 1025.52,-127.13"/>
<polygon fill="midnightblue" stroke="midnightblue" points="1025.64,-123.62 1015.29,-125.9 1024.8,-130.57 1025.64,-123.62"/>
</g>
<!-- Node28&#45;&gt;Node20 -->
<g id="edge66" class="edge">
<title>Node28&#45;&gt;Node20</title>
<path fill="none" stroke="midnightblue" d="M1390.35,-224.44C1324.53,-212.87 1209.44,-192.62 1158.06,-183.58"/>
<polygon fill="midnightblue" stroke="midnightblue" points="1158.56,-180.12 1148.1,-181.83 1157.34,-187.01 1158.56,-180.12"/>
</g>
</g>
</svg>
