<?xml version="1.0" encoding="UTF-8" standalone="no"?>
<!DOCTYPE svg PUBLIC "-//W3C//DTD SVG 1.1//EN"
 "http://www.w3.org/Graphics/SVG/1.1/DTD/svg11.dtd">
<!-- Generated by graphviz version 2.43.0 (0)
 -->
<!-- Title: /home/runner/work/Simopticon/Simopticon/src/utils/ThreadsafeQueue.tpp Pages: 1 -->
<svg width="181pt" height="162pt"
 viewBox="0.00 0.00 181.00 162.00" xmlns="http://www.w3.org/2000/svg" xmlns:xlink="http://www.w3.org/1999/xlink">
<g id="graph0" class="graph" transform="scale(1 1) rotate(0) translate(4 158)">
<title>/home/runner/work/Simopticon/Simopticon/src/utils/ThreadsafeQueue.tpp</title>
<polygon fill="white" stroke="transparent" points="-4,4 -4,-158 177,-158 177,4 -4,4"/>
<!-- Node1 -->
<g id="node1" class="node">
<title>Node1</title>
<g id="a_node1"><a xlink:title="In this file, the implementation of the ThreadSafeQueue class is defined.">
<polygon fill="#bfbfbf" stroke="black" points="0,-112.5 0,-153.5 173,-153.5 173,-112.5 0,-112.5"/>
<text text-anchor="start" x="8" y="-141.5" font-family="Helvetica,sans-Serif" font-size="10.00">/home/runner/work/Simopticon</text>
<text text-anchor="start" x="8" y="-130.5" font-family="Helvetica,sans-Serif" font-size="10.00">/Simopticon/src/utils/Threadsafe</text>
<text text-anchor="middle" x="86.5" y="-119.5" font-family="Helvetica,sans-Serif" font-size="10.00">Queue.tpp</text>
</a>
</g>
</g>
<!-- Node2 -->
<g id="node2" class="node">
<title>Node2</title>
<g id="a_node2"><a xlink:href="ThreadsafeQueue_8h.xhtml" target="_top" xlink:title="In this file, the header of the ThreadSafeQueue class is defined.">
<polygon fill="white" stroke="black" points="30.5,-56.5 30.5,-75.5 142.5,-75.5 142.5,-56.5 30.5,-56.5"/>
<text text-anchor="middle" x="86.5" y="-63.5" font-family="Helvetica,sans-Serif" font-size="10.00">ThreadsafeQueue.h</text>
</a>
</g>
</g>
<!-- Node1&#45;&gt;Node2 -->
<g id="edge1" class="edge">
<title>Node1&#45;&gt;Node2</title>
<path fill="none" stroke="midnightblue" d="M80.25,-112.5C79.56,-103.97 79.58,-94.01 80.33,-85.59"/>
<polygon fill="midnightblue" stroke="midnightblue" points="83.8,-86.04 81.74,-75.65 76.87,-85.06 83.8,-86.04"/>
</g>
<!-- Node2&#45;&gt;Node1 -->
<g id="edge4" class="edge">
<title>Node2&#45;&gt;Node1</title>
<path fill="none" stroke="midnightblue" d="M91.26,-75.65C92.73,-82.52 93.38,-92.56 93.23,-102.26"/>
<polygon fill="midnightblue" stroke="midnightblue" points="89.72,-102.34 92.75,-112.5 96.71,-102.67 89.72,-102.34"/>
</g>
<!-- Node3 -->
<g id="node3" class="node">
<title>Node3</title>
<g id="a_node3"><a xlink:title=" ">
<polygon fill="white" stroke="#bfbfbf" points="30,-0.5 30,-19.5 77,-19.5 77,-0.5 30,-0.5"/>
<text text-anchor="middle" x="53.5" y="-7.5" font-family="Helvetica,sans-Serif" font-size="10.00">queue</text>
</a>
</g>
</g>
<!-- Node2&#45;&gt;Node3 -->
<g id="edge2" class="edge">
<title>Node2&#45;&gt;Node3</title>
<path fill="none" stroke="midnightblue" d="M81.05,-56.08C76.49,-48.61 69.83,-37.72 64.21,-28.52"/>
<polygon fill="midnightblue" stroke="midnightblue" points="67.05,-26.46 58.85,-19.75 61.08,-30.11 67.05,-26.46"/>
</g>
<!-- Node4 -->
<g id="node4" class="node">
<title>Node4</title>
<g id="a_node4"><a xlink:title=" ">
<polygon fill="white" stroke="#bfbfbf" points="95.5,-0.5 95.5,-19.5 143.5,-19.5 143.5,-0.5 95.5,-0.5"/>
<text text-anchor="middle" x="119.5" y="-7.5" font-family="Helvetica,sans-Serif" font-size="10.00">mutex</text>
</a>
</g>
</g>
<!-- Node2&#45;&gt;Node4 -->
<g id="edge3" class="edge">
<title>Node2&#45;&gt;Node4</title>
<path fill="none" stroke="midnightblue" d="M91.95,-56.08C96.51,-48.61 103.17,-37.72 108.79,-28.52"/>
<polygon fill="midnightblue" stroke="midnightblue" points="111.92,-30.11 114.15,-19.75 105.95,-26.46 111.92,-30.11"/>
</g>
</g>
</svg>
