<?xml version="1.0" encoding="UTF-8" standalone="no"?>
<!DOCTYPE svg PUBLIC "-//W3C//DTD SVG 1.1//EN"
 "http://www.w3.org/Graphics/SVG/1.1/DTD/svg11.dtd">
<!-- Generated by graphviz version 2.43.0 (0)
 -->
<!-- Title: /home/runner/work/Simopticon/Simopticon/src/utils/ThreadsafeQueue.tpp Pages: 1 -->
<svg width="839pt" height="507pt"
 viewBox="0.00 0.00 838.50 507.00" xmlns="http://www.w3.org/2000/svg" xmlns:xlink="http://www.w3.org/1999/xlink">
<g id="graph0" class="graph" transform="scale(1 1) rotate(0) translate(4 503)">
<title>/home/runner/work/Simopticon/Simopticon/src/utils/ThreadsafeQueue.tpp</title>
<polygon fill="white" stroke="transparent" points="-4,4 -4,-503 834.5,-503 834.5,4 -4,4"/>
<!-- Node1 -->
<g id="node1" class="node">
<title>Node1</title>
<g id="a_node1"><a xlink:title="In this file, the implementation of the ThreadSafeQueue class is defined.">
<polygon fill="#bfbfbf" stroke="black" points="460,-457.5 460,-498.5 633,-498.5 633,-457.5 460,-457.5"/>
<text text-anchor="start" x="468" y="-486.5" font-family="Helvetica,sans-Serif" font-size="10.00">/home/runner/work/Simopticon</text>
<text text-anchor="start" x="468" y="-475.5" font-family="Helvetica,sans-Serif" font-size="10.00">/Simopticon/src/utils/Threadsafe</text>
<text text-anchor="middle" x="546.5" y="-464.5" font-family="Helvetica,sans-Serif" font-size="10.00">Queue.tpp</text>
</a>
</g>
</g>
<!-- Node2 -->
<g id="node2" class="node">
<title>Node2</title>
<g id="a_node2"><a xlink:href="ThreadsafeQueue_8h.xhtml" target="_top" xlink:title="In this file, the header of the ThreadSafeQueue class is defined.">
<polygon fill="white" stroke="black" points="460,-379.5 460,-420.5 633,-420.5 633,-379.5 460,-379.5"/>
<text text-anchor="start" x="468" y="-408.5" font-family="Helvetica,sans-Serif" font-size="10.00">/home/runner/work/Simopticon</text>
<text text-anchor="start" x="468" y="-397.5" font-family="Helvetica,sans-Serif" font-size="10.00">/Simopticon/src/utils/Threadsafe</text>
<text text-anchor="middle" x="546.5" y="-386.5" font-family="Helvetica,sans-Serif" font-size="10.00">Queue.h</text>
</a>
</g>
</g>
<!-- Node1&#45;&gt;Node2 -->
<g id="edge1" class="edge">
<title>Node1&#45;&gt;Node2</title>
<path fill="none" stroke="midnightblue" d="M539.9,-447.3C539.58,-438.3 539.78,-428.65 540.52,-420.51"/>
<polygon fill="midnightblue" stroke="midnightblue" points="536.41,-447.66 540.51,-457.43 543.4,-447.23 536.41,-447.66"/>
</g>
<!-- Node2&#45;&gt;Node1 -->
<g id="edge16" class="edge">
<title>Node2&#45;&gt;Node1</title>
<path fill="none" stroke="midnightblue" d="M553.1,-430.63C553.42,-439.62 553.22,-449.27 552.49,-457.43"/>
<polygon fill="midnightblue" stroke="midnightblue" points="556.59,-430.27 552.48,-420.51 549.6,-430.7 556.59,-430.27"/>
</g>
<!-- Node3 -->
<g id="node3" class="node">
<title>Node3</title>
<g id="a_node3"><a xlink:href="Multithreaded_8h.xhtml" target="_top" xlink:title="In this file, the header of the Multithreaded class is defined.">
<polygon fill="white" stroke="black" points="448.5,-312.5 448.5,-342.5 644.5,-342.5 644.5,-312.5 448.5,-312.5"/>
<text text-anchor="start" x="456.5" y="-330.5" font-family="Helvetica,sans-Serif" font-size="10.00">/home/runner/work/Simopticon</text>
<text text-anchor="middle" x="546.5" y="-319.5" font-family="Helvetica,sans-Serif" font-size="10.00">/Simopticon/src/utils/Multithreaded.h</text>
</a>
</g>
</g>
<!-- Node2&#45;&gt;Node3 -->
<g id="edge2" class="edge">
<title>Node2&#45;&gt;Node3</title>
<path fill="none" stroke="midnightblue" d="M546.5,-369.08C546.5,-360.01 546.5,-350.45 546.5,-342.89"/>
<polygon fill="midnightblue" stroke="midnightblue" points="543,-369.36 546.5,-379.36 550,-369.36 543,-369.36"/>
</g>
<!-- Node4 -->
<g id="node4" class="node">
<title>Node4</title>
<g id="a_node4"><a xlink:href="SimulationRunner_8h.xhtml" target="_top" xlink:title="In this file, the header of the SimulationRunner class is defined.">
<polygon fill="white" stroke="black" points="455.5,-234.5 455.5,-275.5 637.5,-275.5 637.5,-234.5 455.5,-234.5"/>
<text text-anchor="start" x="463.5" y="-263.5" font-family="Helvetica,sans-Serif" font-size="10.00">/home/runner/work/Simopticon</text>
<text text-anchor="start" x="463.5" y="-252.5" font-family="Helvetica,sans-Serif" font-size="10.00">/Simopticon/src/runner/Simulation</text>
<text text-anchor="middle" x="546.5" y="-241.5" font-family="Helvetica,sans-Serif" font-size="10.00">Runner.h</text>
</a>
</g>
</g>
<!-- Node3&#45;&gt;Node4 -->
<g id="edge3" class="edge">
<title>Node3&#45;&gt;Node4</title>
<path fill="none" stroke="midnightblue" d="M546.5,-301.98C546.5,-293.35 546.5,-283.76 546.5,-275.59"/>
<polygon fill="midnightblue" stroke="midnightblue" points="543,-302.23 546.5,-312.23 550,-302.23 543,-302.23"/>
</g>
<!-- Node5 -->
<g id="node5" class="node">
<title>Node5</title>
<g id="a_node5"><a xlink:href="Controller_8h.xhtml" target="_top" xlink:title="In this file, the header of the Controller class is defined.">
<polygon fill="white" stroke="black" points="278,-156.5 278,-197.5 445,-197.5 445,-156.5 278,-156.5"/>
<text text-anchor="start" x="286" y="-185.5" font-family="Helvetica,sans-Serif" font-size="10.00">/home/runner/work/Simopticon</text>
<text text-anchor="start" x="286" y="-174.5" font-family="Helvetica,sans-Serif" font-size="10.00">/Simopticon/src/controller</text>
<text text-anchor="middle" x="361.5" y="-163.5" font-family="Helvetica,sans-Serif" font-size="10.00">/Controller.h</text>
</a>
</g>
</g>
<!-- Node4&#45;&gt;Node5 -->
<g id="edge4" class="edge">
<title>Node4&#45;&gt;Node5</title>
<path fill="none" stroke="midnightblue" d="M489.56,-230.61C463.74,-220 433.56,-207.6 408.98,-197.51"/>
<polygon fill="midnightblue" stroke="midnightblue" points="488.28,-233.87 498.86,-234.43 490.94,-227.39 488.28,-233.87"/>
</g>
<!-- Node11 -->
<g id="node11" class="node">
<title>Node11</title>
<g id="a_node11"><a xlink:href="PlexeSimulationRunner_8h.xhtml" target="_top" xlink:title="In this file, the header of the PlexeSimulationRunner class is defined.">
<polygon fill="white" stroke="black" points="463,-156.5 463,-197.5 630,-197.5 630,-156.5 463,-156.5"/>
<text text-anchor="start" x="471" y="-185.5" font-family="Helvetica,sans-Serif" font-size="10.00">/home/runner/work/Simopticon</text>
<text text-anchor="start" x="471" y="-174.5" font-family="Helvetica,sans-Serif" font-size="10.00">/Simopticon/src/runner/plexe</text>
<text text-anchor="middle" x="546.5" y="-163.5" font-family="Helvetica,sans-Serif" font-size="10.00">/PlexeSimulationRunner.h</text>
</a>
</g>
</g>
<!-- Node4&#45;&gt;Node11 -->
<g id="edge12" class="edge">
<title>Node4&#45;&gt;Node11</title>
<path fill="none" stroke="midnightblue" d="M546.5,-224.3C546.5,-215.3 546.5,-205.65 546.5,-197.51"/>
<polygon fill="midnightblue" stroke="midnightblue" points="543,-224.43 546.5,-234.43 550,-224.43 543,-224.43"/>
</g>
<!-- Node13 -->
<g id="node13" class="node">
<title>Node13</title>
<g id="a_node13"><a xlink:href="SimulationRunner_8cpp.xhtml" target="_top" xlink:title="In this file, the implementation of the SimulationRunner class is defined.">
<polygon fill="white" stroke="black" points="648.5,-156.5 648.5,-197.5 830.5,-197.5 830.5,-156.5 648.5,-156.5"/>
<text text-anchor="start" x="656.5" y="-185.5" font-family="Helvetica,sans-Serif" font-size="10.00">/home/runner/work/Simopticon</text>
<text text-anchor="start" x="656.5" y="-174.5" font-family="Helvetica,sans-Serif" font-size="10.00">/Simopticon/src/runner/Simulation</text>
<text text-anchor="middle" x="739.5" y="-163.5" font-family="Helvetica,sans-Serif" font-size="10.00">Runner.cpp</text>
</a>
</g>
</g>
<!-- Node4&#45;&gt;Node13 -->
<g id="edge15" class="edge">
<title>Node4&#45;&gt;Node13</title>
<path fill="none" stroke="midnightblue" d="M605.55,-230.75C632.56,-220.11 664.22,-207.65 689.97,-197.51"/>
<polygon fill="midnightblue" stroke="midnightblue" points="604.22,-227.51 596.2,-234.43 606.79,-234.02 604.22,-227.51"/>
</g>
<!-- Node6 -->
<g id="node6" class="node">
<title>Node6</title>
<g id="a_node6"><a xlink:href="Controller_8cpp.xhtml" target="_top" xlink:title="In this file, the implementation of the Controller class is defined.">
<polygon fill="white" stroke="black" points="407,-0.5 407,-41.5 574,-41.5 574,-0.5 407,-0.5"/>
<text text-anchor="start" x="415" y="-29.5" font-family="Helvetica,sans-Serif" font-size="10.00">/home/runner/work/Simopticon</text>
<text text-anchor="start" x="415" y="-18.5" font-family="Helvetica,sans-Serif" font-size="10.00">/Simopticon/src/controller</text>
<text text-anchor="middle" x="490.5" y="-7.5" font-family="Helvetica,sans-Serif" font-size="10.00">/Controller.cpp</text>
</a>
</g>
</g>
<!-- Node5&#45;&gt;Node6 -->
<g id="edge5" class="edge">
<title>Node5&#45;&gt;Node6</title>
<path fill="none" stroke="midnightblue" d="M432.59,-151.74C447.36,-143.72 461.46,-133.32 471.5,-120 488.71,-97.16 491.63,-63.05 491.53,-41.69"/>
<polygon fill="midnightblue" stroke="midnightblue" points="430.67,-148.79 423.34,-156.43 433.84,-155.03 430.67,-148.79"/>
</g>
<!-- Node7 -->
<g id="node7" class="node">
<title>Node7</title>
<g id="a_node7"><a xlink:href="main_8cpp.xhtml" target="_top" xlink:title="In this file, the main function running the Simopticon framework is defined.">
<polygon fill="white" stroke="black" points="0,-6 0,-36 167,-36 167,-6 0,-6"/>
<text text-anchor="start" x="8" y="-24" font-family="Helvetica,sans-Serif" font-size="10.00">/home/runner/work/Simopticon</text>
<text text-anchor="middle" x="83.5" y="-13" font-family="Helvetica,sans-Serif" font-size="10.00">/Simopticon/src/main.cpp</text>
</a>
</g>
</g>
<!-- Node5&#45;&gt;Node7 -->
<g id="edge6" class="edge">
<title>Node5&#45;&gt;Node7</title>
<path fill="none" stroke="midnightblue" d="M267.49,-166.73C202.76,-158.37 124.46,-143.67 101.5,-120 79.58,-97.4 79.73,-57.4 81.65,-36.17"/>
<polygon fill="midnightblue" stroke="midnightblue" points="267.39,-170.24 277.75,-168.01 268.26,-163.3 267.39,-170.24"/>
</g>
<!-- Node8 -->
<g id="node8" class="node">
<title>Node8</title>
<g id="a_node8"><a xlink:href="StubController_8h.xhtml" target="_top" xlink:title="In this file, the header of the StubController class is defined.">
<polygon fill="white" stroke="black" points="111,-78.5 111,-119.5 278,-119.5 278,-78.5 111,-78.5"/>
<text text-anchor="start" x="119" y="-107.5" font-family="Helvetica,sans-Serif" font-size="10.00">/home/runner/work/Simopticon</text>
<text text-anchor="start" x="119" y="-96.5" font-family="Helvetica,sans-Serif" font-size="10.00">/Simopticon/src/controller</text>
<text text-anchor="middle" x="194.5" y="-85.5" font-family="Helvetica,sans-Serif" font-size="10.00">/StubController.h</text>
</a>
</g>
</g>
<!-- Node5&#45;&gt;Node8 -->
<g id="edge7" class="edge">
<title>Node5&#45;&gt;Node8</title>
<path fill="none" stroke="midnightblue" d="M309.18,-152.19C286.08,-141.67 259.25,-129.47 237.36,-119.51"/>
<polygon fill="midnightblue" stroke="midnightblue" points="307.94,-155.47 318.49,-156.43 310.84,-149.1 307.94,-155.47"/>
</g>
<!-- Node10 -->
<g id="node10" class="node">
<title>Node10</title>
<g id="a_node10"><a xlink:href="Optimizer_8cpp.xhtml" target="_top" xlink:title="In this file, the implementation of the Optimizer class is defined.">
<polygon fill="white" stroke="black" points="296,-78.5 296,-119.5 463,-119.5 463,-78.5 296,-78.5"/>
<text text-anchor="start" x="304" y="-107.5" font-family="Helvetica,sans-Serif" font-size="10.00">/home/runner/work/Simopticon</text>
<text text-anchor="start" x="304" y="-96.5" font-family="Helvetica,sans-Serif" font-size="10.00">/Simopticon/src/optimizer</text>
<text text-anchor="middle" x="379.5" y="-85.5" font-family="Helvetica,sans-Serif" font-size="10.00">/Optimizer.cpp</text>
</a>
</g>
</g>
<!-- Node5&#45;&gt;Node10 -->
<g id="edge11" class="edge">
<title>Node5&#45;&gt;Node10</title>
<path fill="none" stroke="midnightblue" d="M368.47,-146.59C370.62,-137.51 372.93,-127.74 374.88,-119.51"/>
<polygon fill="midnightblue" stroke="midnightblue" points="365.03,-145.89 366.14,-156.43 371.85,-147.5 365.03,-145.89"/>
</g>
<!-- Node8&#45;&gt;Node6 -->
<g id="edge9" class="edge">
<title>Node8&#45;&gt;Node6</title>
<path fill="none" stroke="midnightblue" d="M280.48,-75.92C322.88,-65.04 373.57,-52.02 414.53,-41.51"/>
<polygon fill="midnightblue" stroke="midnightblue" points="279.54,-72.55 270.73,-78.43 281.28,-79.33 279.54,-72.55"/>
</g>
<!-- Node8&#45;&gt;Node7 -->
<g id="edge10" class="edge">
<title>Node8&#45;&gt;Node7</title>
<path fill="none" stroke="midnightblue" d="M157.48,-72.66C139.77,-60.53 119.22,-46.45 104.28,-36.23"/>
<polygon fill="midnightblue" stroke="midnightblue" points="155.69,-75.67 165.91,-78.43 159.64,-69.89 155.69,-75.67"/>
</g>
<!-- Node9 -->
<g id="node9" class="node">
<title>Node9</title>
<g id="a_node9"><a xlink:href="StubController_8cpp.xhtml" target="_top" xlink:title="In this file, the implementation of the StubController class is defined.">
<polygon fill="white" stroke="black" points="185,-0.5 185,-41.5 352,-41.5 352,-0.5 185,-0.5"/>
<text text-anchor="start" x="193" y="-29.5" font-family="Helvetica,sans-Serif" font-size="10.00">/home/runner/work/Simopticon</text>
<text text-anchor="start" x="193" y="-18.5" font-family="Helvetica,sans-Serif" font-size="10.00">/Simopticon/src/controller</text>
<text text-anchor="middle" x="268.5" y="-7.5" font-family="Helvetica,sans-Serif" font-size="10.00">/StubController.cpp</text>
</a>
</g>
</g>
<!-- Node8&#45;&gt;Node9 -->
<g id="edge8" class="edge">
<title>Node8&#45;&gt;Node9</title>
<path fill="none" stroke="midnightblue" d="M220.59,-71.2C230.12,-61.42 240.71,-50.54 249.51,-41.51"/>
<polygon fill="midnightblue" stroke="midnightblue" points="218.03,-68.82 213.56,-78.43 223.04,-73.71 218.03,-68.82"/>
</g>
<!-- Node11&#45;&gt;Node6 -->
<g id="edge13" class="edge">
<title>Node11&#45;&gt;Node6</title>
<path fill="none" stroke="midnightblue" d="M535.87,-146.77C524.69,-116.02 507.4,-68.47 497.71,-41.83"/>
<polygon fill="midnightblue" stroke="midnightblue" points="532.7,-148.29 539.41,-156.5 539.28,-145.9 532.7,-148.29"/>
</g>
<!-- Node12 -->
<g id="node12" class="node">
<title>Node12</title>
<g id="a_node12"><a xlink:href="PlexeSimulationRunner_8cpp.xhtml" target="_top" xlink:title="In this file, the implementation of the PlexeSimulationRunner class is defined.">
<polygon fill="white" stroke="black" points="556,-78.5 556,-119.5 723,-119.5 723,-78.5 556,-78.5"/>
<text text-anchor="start" x="564" y="-107.5" font-family="Helvetica,sans-Serif" font-size="10.00">/home/runner/work/Simopticon</text>
<text text-anchor="start" x="564" y="-96.5" font-family="Helvetica,sans-Serif" font-size="10.00">/Simopticon/src/runner/plexe</text>
<text text-anchor="middle" x="639.5" y="-85.5" font-family="Helvetica,sans-Serif" font-size="10.00">/PlexeSimulationRunner.cpp</text>
</a>
</g>
</g>
<!-- Node11&#45;&gt;Node12 -->
<g id="edge14" class="edge">
<title>Node11&#45;&gt;Node12</title>
<path fill="none" stroke="midnightblue" d="M578.24,-150.06C590.48,-140.06 604.25,-128.8 615.63,-119.51"/>
<polygon fill="midnightblue" stroke="midnightblue" points="575.98,-147.39 570.45,-156.43 580.41,-152.81 575.98,-147.39"/>
</g>
</g>
</svg>
