<?xml version="1.0" encoding="UTF-8" standalone="no"?>
<!DOCTYPE svg PUBLIC "-//W3C//DTD SVG 1.1//EN"
 "http://www.w3.org/Graphics/SVG/1.1/DTD/svg11.dtd">
<!-- Generated by graphviz version 2.43.0 (0)
 -->
<!-- Title: src/utils/ThreadsafeQueue.h Pages: 1 -->
<svg width="262pt" height="84pt"
 viewBox="0.00 0.00 261.50 84.00" xmlns="http://www.w3.org/2000/svg" xmlns:xlink="http://www.w3.org/1999/xlink">
<g id="graph0" class="graph" transform="scale(1 1) rotate(0) translate(4 80)">
<title>src/utils/ThreadsafeQueue.h</title>
<polygon fill="white" stroke="transparent" points="-4,4 -4,-80 257.5,-80 257.5,4 -4,4"/>
<!-- Node1 -->
<g id="node1" class="node">
<title>Node1</title>
<g id="a_node1"><a xlink:title="In this file, the header of the ThreadSafeQueue class is defined.">
<polygon fill="#bfbfbf" stroke="black" points="64,-56.5 64,-75.5 217,-75.5 217,-56.5 64,-56.5"/>
<text text-anchor="middle" x="140.5" y="-63.5" font-family="Helvetica,sans-Serif" font-size="10.00">src/utils/ThreadsafeQueue.h</text>
</a>
</g>
</g>
<!-- Node2 -->
<g id="node2" class="node">
<title>Node2</title>
<g id="a_node2"><a xlink:title=" ">
<polygon fill="white" stroke="#bfbfbf" points="0,-0.5 0,-19.5 47,-19.5 47,-0.5 0,-0.5"/>
<text text-anchor="middle" x="23.5" y="-7.5" font-family="Helvetica,sans-Serif" font-size="10.00">queue</text>
</a>
</g>
</g>
<!-- Node1&#45;&gt;Node2 -->
<g id="edge1" class="edge">
<title>Node1&#45;&gt;Node2</title>
<path fill="none" stroke="midnightblue" d="M121.96,-56.44C102.88,-47.64 72.93,-33.81 51.06,-23.72"/>
<polygon fill="midnightblue" stroke="midnightblue" points="52.5,-20.53 41.95,-19.52 49.57,-26.88 52.5,-20.53"/>
</g>
<!-- Node3 -->
<g id="node3" class="node">
<title>Node3</title>
<g id="a_node3"><a xlink:title=" ">
<polygon fill="white" stroke="#bfbfbf" points="65.5,-0.5 65.5,-19.5 113.5,-19.5 113.5,-0.5 65.5,-0.5"/>
<text text-anchor="middle" x="89.5" y="-7.5" font-family="Helvetica,sans-Serif" font-size="10.00">mutex</text>
</a>
</g>
</g>
<!-- Node1&#45;&gt;Node3 -->
<g id="edge2" class="edge">
<title>Node1&#45;&gt;Node3</title>
<path fill="none" stroke="midnightblue" d="M132.08,-56.08C124.65,-48.22 113.65,-36.57 104.69,-27.08"/>
<polygon fill="midnightblue" stroke="midnightblue" points="107.18,-24.62 97.76,-19.75 102.09,-29.42 107.18,-24.62"/>
</g>
<!-- Node4 -->
<g id="node4" class="node">
<title>Node4</title>
<g id="a_node4"><a xlink:href="ThreadsafeQueue_8tpp.xhtml" target="_top" xlink:title="In this file, the implementation of the ThreadSafeQueue class is defined.">
<polygon fill="white" stroke="black" points="131.5,-0.5 131.5,-19.5 253.5,-19.5 253.5,-0.5 131.5,-0.5"/>
<text text-anchor="middle" x="192.5" y="-7.5" font-family="Helvetica,sans-Serif" font-size="10.00">ThreadsafeQueue.tpp</text>
</a>
</g>
</g>
<!-- Node1&#45;&gt;Node4 -->
<g id="edge3" class="edge">
<title>Node1&#45;&gt;Node4</title>
<path fill="none" stroke="midnightblue" d="M143.92,-56.08C149.95,-48.06 161.13,-36.1 171.39,-26.51"/>
<polygon fill="midnightblue" stroke="midnightblue" points="173.82,-29.03 178.94,-19.75 169.16,-23.81 173.82,-29.03"/>
</g>
<!-- Node4&#45;&gt;Node1 -->
<g id="edge4" class="edge">
<title>Node4&#45;&gt;Node1</title>
<path fill="none" stroke="midnightblue" d="M189.14,-19.83C183.11,-27.87 171.86,-39.91 161.56,-49.54"/>
<polygon fill="midnightblue" stroke="midnightblue" points="159.09,-47.05 153.97,-56.32 163.76,-52.27 159.09,-47.05"/>
</g>
</g>
</svg>
