<?xml version="1.0" encoding="UTF-8" standalone="no"?>
<!DOCTYPE svg PUBLIC "-//W3C//DTD SVG 1.1//EN"
 "http://www.w3.org/Graphics/SVG/1.1/DTD/svg11.dtd">
<!-- Generated by graphviz version 2.43.0 (0)
 -->
<!-- Title: src/utils/ThreadsafeQueue.tpp Pages: 1 -->
<svg width="171pt" height="140pt"
 viewBox="0.00 0.00 171.00 140.00" xmlns="http://www.w3.org/2000/svg" xmlns:xlink="http://www.w3.org/1999/xlink">
<g id="graph0" class="graph" transform="scale(1 1) rotate(0) translate(4 136)">
<title>src/utils/ThreadsafeQueue.tpp</title>
<polygon fill="white" stroke="transparent" points="-4,4 -4,-136 167,-136 167,4 -4,4"/>
<!-- Node1 -->
<g id="node1" class="node">
<title>Node1</title>
<g id="a_node1"><a xlink:title="In this file, the implementation of the ThreadSafeQueue class is defined.">
<polygon fill="#bfbfbf" stroke="black" points="0,-112.5 0,-131.5 163,-131.5 163,-112.5 0,-112.5"/>
<text text-anchor="middle" x="81.5" y="-119.5" font-family="Helvetica,sans-Serif" font-size="10.00">src/utils/ThreadsafeQueue.tpp</text>
</a>
</g>
</g>
<!-- Node2 -->
<g id="node2" class="node">
<title>Node2</title>
<g id="a_node2"><a xlink:href="ThreadsafeQueue_8h.xhtml" target="_top" xlink:title="In this file, the header of the ThreadSafeQueue class is defined.">
<polygon fill="white" stroke="black" points="25.5,-56.5 25.5,-75.5 137.5,-75.5 137.5,-56.5 25.5,-56.5"/>
<text text-anchor="middle" x="81.5" y="-63.5" font-family="Helvetica,sans-Serif" font-size="10.00">ThreadsafeQueue.h</text>
</a>
</g>
</g>
<!-- Node1&#45;&gt;Node2 -->
<g id="edge1" class="edge">
<title>Node1&#45;&gt;Node2</title>
<path fill="none" stroke="midnightblue" d="M76.33,-112.08C74.82,-104.93 74.39,-94.64 75.04,-85.69"/>
<polygon fill="midnightblue" stroke="midnightblue" points="78.52,-86.13 76.37,-75.75 71.58,-85.2 78.52,-86.13"/>
</g>
<!-- Node2&#45;&gt;Node1 -->
<g id="edge4" class="edge">
<title>Node2&#45;&gt;Node1</title>
<path fill="none" stroke="midnightblue" d="M86.63,-75.75C88.16,-82.86 88.6,-93.14 87.97,-102.1"/>
<polygon fill="midnightblue" stroke="midnightblue" points="84.49,-101.71 86.67,-112.08 91.43,-102.62 84.49,-101.71"/>
</g>
<!-- Node3 -->
<g id="node3" class="node">
<title>Node3</title>
<g id="a_node3"><a xlink:title=" ">
<polygon fill="white" stroke="#bfbfbf" points="25,-0.5 25,-19.5 72,-19.5 72,-0.5 25,-0.5"/>
<text text-anchor="middle" x="48.5" y="-7.5" font-family="Helvetica,sans-Serif" font-size="10.00">queue</text>
</a>
</g>
</g>
<!-- Node2&#45;&gt;Node3 -->
<g id="edge2" class="edge">
<title>Node2&#45;&gt;Node3</title>
<path fill="none" stroke="midnightblue" d="M76.05,-56.08C71.49,-48.61 64.83,-37.72 59.21,-28.52"/>
<polygon fill="midnightblue" stroke="midnightblue" points="62.05,-26.46 53.85,-19.75 56.08,-30.11 62.05,-26.46"/>
</g>
<!-- Node4 -->
<g id="node4" class="node">
<title>Node4</title>
<g id="a_node4"><a xlink:title=" ">
<polygon fill="white" stroke="#bfbfbf" points="90.5,-0.5 90.5,-19.5 138.5,-19.5 138.5,-0.5 90.5,-0.5"/>
<text text-anchor="middle" x="114.5" y="-7.5" font-family="Helvetica,sans-Serif" font-size="10.00">mutex</text>
</a>
</g>
</g>
<!-- Node2&#45;&gt;Node4 -->
<g id="edge3" class="edge">
<title>Node2&#45;&gt;Node4</title>
<path fill="none" stroke="midnightblue" d="M86.95,-56.08C91.51,-48.61 98.17,-37.72 103.79,-28.52"/>
<polygon fill="midnightblue" stroke="midnightblue" points="106.92,-30.11 109.15,-19.75 100.95,-26.46 106.92,-30.11"/>
</g>
</g>
</svg>
