<?xml version="1.0" encoding="UTF-8" standalone="no"?>
<!DOCTYPE svg PUBLIC "-//W3C//DTD SVG 1.1//EN"
 "http://www.w3.org/Graphics/SVG/1.1/DTD/svg11.dtd">
<!-- Generated by graphviz version 2.43.0 (0)
 -->
<!-- Title: /home/runner/work/Simopticon/Simopticon/src/controller/ValueMap.h Pages: 1 -->
<svg width="573pt" height="274pt"
 viewBox="0.00 0.00 573.14 274.00" xmlns="http://www.w3.org/2000/svg" xmlns:xlink="http://www.w3.org/1999/xlink">
<g id="graph0" class="graph" transform="scale(1 1) rotate(0) translate(4 270)">
<title>/home/runner/work/Simopticon/Simopticon/src/controller/ValueMap.h</title>
<polygon fill="white" stroke="transparent" points="-4,4 -4,-270 569.14,-270 569.14,4 -4,4"/>
<!-- Node1 -->
<g id="node1" class="node">
<title>Node1</title>
<g id="a_node1"><a xlink:title="In this file, the header of the ValueMap class is defined.">
<polygon fill="#bfbfbf" stroke="black" points="249.64,-224.5 249.64,-265.5 416.64,-265.5 416.64,-224.5 249.64,-224.5"/>
<text text-anchor="start" x="257.64" y="-253.5" font-family="Helvetica,sans-Serif" font-size="10.00">/home/runner/work/Simopticon</text>
<text text-anchor="start" x="257.64" y="-242.5" font-family="Helvetica,sans-Serif" font-size="10.00">/Simopticon/src/controller</text>
<text text-anchor="middle" x="333.14" y="-231.5" font-family="Helvetica,sans-Serif" font-size="10.00">/ValueMap.h</text>
</a>
</g>
</g>
<!-- Node2 -->
<g id="node2" class="node">
<title>Node2</title>
<g id="a_node2"><a xlink:href="Types_8h.xhtml" target="_top" xlink:title="In this file, types are defined which should be used across the whole framework.">
<polygon fill="white" stroke="black" points="137.14,-56.5 137.14,-75.5 199.14,-75.5 199.14,-56.5 137.14,-56.5"/>
<text text-anchor="middle" x="168.14" y="-63.5" font-family="Helvetica,sans-Serif" font-size="10.00">../Types.h</text>
</a>
</g>
</g>
<!-- Node1&#45;&gt;Node2 -->
<g id="edge1" class="edge">
<title>Node1&#45;&gt;Node2</title>
<path fill="none" stroke="midnightblue" d="M249.3,-238.6C214.67,-231.74 177.67,-217.38 156.14,-188 150.89,-180.83 155.62,-176.87 156.14,-168 157.85,-139.13 162.29,-105.87 165.26,-85.64"/>
<polygon fill="midnightblue" stroke="midnightblue" points="168.74,-86.03 166.77,-75.62 161.82,-84.98 168.74,-86.03"/>
</g>
<!-- Node4 -->
<g id="node4" class="node">
<title>Node4</title>
<g id="a_node4"><a xlink:title=" ">
<polygon fill="white" stroke="#bfbfbf" points="211.64,-0.5 211.64,-19.5 258.64,-19.5 258.64,-0.5 211.64,-0.5"/>
<text text-anchor="middle" x="235.14" y="-7.5" font-family="Helvetica,sans-Serif" font-size="10.00">vector</text>
</a>
</g>
</g>
<!-- Node1&#45;&gt;Node4 -->
<g id="edge13" class="edge">
<title>Node1&#45;&gt;Node4</title>
<path fill="none" stroke="midnightblue" d="M329.46,-224.27C326.27,-208.72 321.06,-186.61 314.14,-168 294.47,-115.03 261.93,-56.55 245.42,-28.24"/>
<polygon fill="midnightblue" stroke="midnightblue" points="248.39,-26.39 240.3,-19.55 242.36,-29.94 248.39,-26.39"/>
</g>
<!-- Node5 -->
<g id="node5" class="node">
<title>Node5</title>
<g id="a_node5"><a xlink:title=" ">
<polygon fill="white" stroke="#bfbfbf" points="42.14,-0.5 42.14,-19.5 100.14,-19.5 100.14,-0.5 42.14,-0.5"/>
<text text-anchor="middle" x="71.14" y="-7.5" font-family="Helvetica,sans-Serif" font-size="10.00">memory</text>
</a>
</g>
</g>
<!-- Node1&#45;&gt;Node5 -->
<g id="edge15" class="edge">
<title>Node1&#45;&gt;Node5</title>
<path fill="none" stroke="midnightblue" d="M249.48,-228.24C161.01,-209.5 30.85,-175.25 6.14,-132 -15.31,-94.45 26.26,-49.37 52.32,-26.28"/>
<polygon fill="midnightblue" stroke="midnightblue" points="54.82,-28.75 60.14,-19.59 50.27,-23.43 54.82,-28.75"/>
</g>
<!-- Node6 -->
<g id="node6" class="node">
<title>Node6</title>
<g id="a_node6"><a xlink:href="ComparisonFunctions_8h.xhtml" target="_top" xlink:title="In this file, comparison functions are defined which should be used across the whole framework.">
<polygon fill="white" stroke="black" points="165.14,-168.5 165.14,-187.5 305.14,-187.5 305.14,-168.5 165.14,-168.5"/>
<text text-anchor="middle" x="235.14" y="-175.5" font-family="Helvetica,sans-Serif" font-size="10.00">../ComparisonFunctions.h</text>
</a>
</g>
</g>
<!-- Node1&#45;&gt;Node6 -->
<g id="edge5" class="edge">
<title>Node1&#45;&gt;Node6</title>
<path fill="none" stroke="midnightblue" d="M303.74,-224.5C288.57,-214.44 270.4,-202.38 256.57,-193.21"/>
<polygon fill="midnightblue" stroke="midnightblue" points="258.46,-190.26 248.19,-187.65 254.59,-196.1 258.46,-190.26"/>
</g>
<!-- Node7 -->
<g id="node7" class="node">
<title>Node7</title>
<g id="a_node7"><a xlink:href="Parameter_8h.xhtml" target="_top" xlink:title="In this file, the header of the Parameter class is defined.">
<polygon fill="white" stroke="black" points="15.14,-112.5 15.14,-131.5 149.14,-131.5 149.14,-112.5 15.14,-112.5"/>
<text text-anchor="middle" x="82.14" y="-119.5" font-family="Helvetica,sans-Serif" font-size="10.00">parameters/Parameter.h</text>
</a>
</g>
</g>
<!-- Node1&#45;&gt;Node7 -->
<g id="edge11" class="edge">
<title>Node1&#45;&gt;Node7</title>
<path fill="none" stroke="midnightblue" d="M249.45,-236.14C208.24,-228.87 159.69,-214.89 123.14,-188 107.06,-176.17 95.77,-155.95 89.16,-141.2"/>
<polygon fill="midnightblue" stroke="midnightblue" points="92.25,-139.51 85.18,-131.62 85.79,-142.2 92.25,-139.51"/>
</g>
<!-- Node8 -->
<g id="node8" class="node">
<title>Node8</title>
<g id="a_node8"><a xlink:title=" ">
<polygon fill="white" stroke="#bfbfbf" points="361.14,-168.5 361.14,-187.5 399.14,-187.5 399.14,-168.5 361.14,-168.5"/>
<text text-anchor="middle" x="380.14" y="-175.5" font-family="Helvetica,sans-Serif" font-size="10.00">map</text>
</a>
</g>
</g>
<!-- Node1&#45;&gt;Node8 -->
<g id="edge12" class="edge">
<title>Node1&#45;&gt;Node8</title>
<path fill="none" stroke="midnightblue" d="M347.25,-224.5C353.83,-215.39 361.59,-204.66 367.92,-195.91"/>
<polygon fill="midnightblue" stroke="midnightblue" points="370.87,-197.81 373.89,-187.65 365.19,-193.71 370.87,-197.81"/>
</g>
<!-- Node9 -->
<g id="node9" class="node">
<title>Node9</title>
<g id="a_node9"><a xlink:title=" ">
<polygon fill="white" stroke="#bfbfbf" points="417.14,-168.5 417.14,-187.5 449.14,-187.5 449.14,-168.5 417.14,-168.5"/>
<text text-anchor="middle" x="433.14" y="-175.5" font-family="Helvetica,sans-Serif" font-size="10.00">list</text>
</a>
</g>
</g>
<!-- Node1&#45;&gt;Node9 -->
<g id="edge14" class="edge">
<title>Node1&#45;&gt;Node9</title>
<path fill="none" stroke="midnightblue" d="M363.15,-224.5C378.63,-214.44 397.17,-202.38 411.28,-193.21"/>
<polygon fill="midnightblue" stroke="midnightblue" points="413.36,-196.04 419.83,-187.65 409.54,-190.17 413.36,-196.04"/>
</g>
<!-- Node10 -->
<g id="node10" class="node">
<title>Node10</title>
<g id="a_node10"><a xlink:title=" ">
<polygon fill="white" stroke="#bfbfbf" points="467.14,-168.5 467.14,-187.5 499.14,-187.5 499.14,-168.5 467.14,-168.5"/>
<text text-anchor="middle" x="483.14" y="-175.5" font-family="Helvetica,sans-Serif" font-size="10.00">set</text>
</a>
</g>
</g>
<!-- Node1&#45;&gt;Node10 -->
<g id="edge16" class="edge">
<title>Node1&#45;&gt;Node10</title>
<path fill="none" stroke="midnightblue" d="M378.15,-224.5C404.19,-213.21 436.01,-199.42 457.75,-190"/>
<polygon fill="midnightblue" stroke="midnightblue" points="459.19,-193.2 466.97,-186.01 456.4,-186.77 459.19,-193.2"/>
</g>
<!-- Node11 -->
<g id="node11" class="node">
<title>Node11</title>
<g id="a_node11"><a xlink:title=" ">
<polygon fill="white" stroke="#bfbfbf" points="517.14,-168.5 517.14,-187.5 565.14,-187.5 565.14,-168.5 517.14,-168.5"/>
<text text-anchor="middle" x="541.14" y="-175.5" font-family="Helvetica,sans-Serif" font-size="10.00">mutex</text>
</a>
</g>
</g>
<!-- Node1&#45;&gt;Node11 -->
<g id="edge17" class="edge">
<title>Node1&#45;&gt;Node11</title>
<path fill="none" stroke="midnightblue" d="M395.55,-224.5C432.21,-213.04 477.13,-199 507.3,-189.58"/>
<polygon fill="midnightblue" stroke="midnightblue" points="508.43,-192.89 516.93,-186.57 506.34,-186.21 508.43,-192.89"/>
</g>
<!-- Node3 -->
<g id="node3" class="node">
<title>Node3</title>
<g id="a_node3"><a xlink:title=" ">
<polygon fill="white" stroke="#bfbfbf" points="138.14,-0.5 138.14,-19.5 182.14,-19.5 182.14,-0.5 138.14,-0.5"/>
<text text-anchor="middle" x="160.14" y="-7.5" font-family="Helvetica,sans-Serif" font-size="10.00">string</text>
</a>
</g>
</g>
<!-- Node2&#45;&gt;Node3 -->
<g id="edge2" class="edge">
<title>Node2&#45;&gt;Node3</title>
<path fill="none" stroke="midnightblue" d="M166.82,-56.08C165.76,-48.93 164.24,-38.64 162.91,-29.69"/>
<polygon fill="midnightblue" stroke="midnightblue" points="166.37,-29.13 161.44,-19.75 159.44,-30.16 166.37,-29.13"/>
</g>
<!-- Node2&#45;&gt;Node4 -->
<g id="edge3" class="edge">
<title>Node2&#45;&gt;Node4</title>
<path fill="none" stroke="midnightblue" d="M178.91,-56.32C188.91,-48.26 204.03,-36.08 216.08,-26.37"/>
<polygon fill="midnightblue" stroke="midnightblue" points="218.59,-28.83 224.18,-19.83 214.2,-23.38 218.59,-28.83"/>
</g>
<!-- Node2&#45;&gt;Node5 -->
<g id="edge4" class="edge">
<title>Node2&#45;&gt;Node5</title>
<path fill="none" stroke="midnightblue" d="M152.56,-56.32C137.15,-47.74 113.33,-34.49 95.43,-24.52"/>
<polygon fill="midnightblue" stroke="midnightblue" points="97.13,-21.46 86.69,-19.65 93.73,-27.58 97.13,-21.46"/>
</g>
<!-- Node6&#45;&gt;Node4 -->
<g id="edge10" class="edge">
<title>Node6&#45;&gt;Node4</title>
<path fill="none" stroke="midnightblue" d="M235.14,-168.08C235.14,-141.95 235.14,-65.21 235.14,-29.58"/>
<polygon fill="midnightblue" stroke="midnightblue" points="238.64,-29.57 235.14,-19.57 231.64,-29.57 238.64,-29.57"/>
</g>
<!-- Node6&#45;&gt;Node7 -->
<g id="edge6" class="edge">
<title>Node6&#45;&gt;Node7</title>
<path fill="none" stroke="midnightblue" d="M210.9,-168.44C185.27,-159.4 144.66,-145.06 115.91,-134.92"/>
<polygon fill="midnightblue" stroke="midnightblue" points="116.87,-131.54 106.27,-131.52 114.54,-138.15 116.87,-131.54"/>
</g>
<!-- Node7&#45;&gt;Node2 -->
<g id="edge7" class="edge">
<title>Node7&#45;&gt;Node2</title>
<path fill="none" stroke="midnightblue" d="M95.96,-112.32C109.38,-103.9 129.97,-90.97 145.73,-81.07"/>
<polygon fill="midnightblue" stroke="midnightblue" points="147.75,-83.94 154.36,-75.65 144.03,-78.01 147.75,-83.94"/>
</g>
<!-- Node7&#45;&gt;Node3 -->
<g id="edge8" class="edge">
<title>Node7&#45;&gt;Node3</title>
<path fill="none" stroke="midnightblue" d="M88.39,-112.16C97.23,-99.66 113.91,-76.07 128.14,-56 134.74,-46.7 142.12,-36.32 148.13,-27.88"/>
<polygon fill="midnightblue" stroke="midnightblue" points="151.06,-29.8 154,-19.62 145.35,-25.74 151.06,-29.8"/>
</g>
<!-- Node7&#45;&gt;Node5 -->
<g id="edge9" class="edge">
<title>Node7&#45;&gt;Node5</title>
<path fill="none" stroke="midnightblue" d="M81.28,-112.37C79.51,-94.62 75.41,-53.67 73,-29.6"/>
<polygon fill="midnightblue" stroke="midnightblue" points="76.48,-29.19 72,-19.59 69.52,-29.89 76.48,-29.19"/>
</g>
</g>
</svg>
