<?xml version="1.0" encoding="UTF-8" standalone="no"?>
<!DOCTYPE svg PUBLIC "-//W3C//DTD SVG 1.1//EN"
 "http://www.w3.org/Graphics/SVG/1.1/DTD/svg11.dtd">
<!-- Generated by graphviz version 2.43.0 (0)
 -->
<!-- Title: /home/runner/work/Simopticon/Simopticon/src/controller/ValueMap.cpp Pages: 1 -->
<svg width="609pt" height="330pt"
 viewBox="0.00 0.00 609.14 330.00" xmlns="http://www.w3.org/2000/svg" xmlns:xlink="http://www.w3.org/1999/xlink">
<g id="graph0" class="graph" transform="scale(1 1) rotate(0) translate(4 326)">
<title>/home/runner/work/Simopticon/Simopticon/src/controller/ValueMap.cpp</title>
<polygon fill="white" stroke="transparent" points="-4,4 -4,-326 605.14,-326 605.14,4 -4,4"/>
<!-- Node1 -->
<g id="node1" class="node">
<title>Node1</title>
<g id="a_node1"><a xlink:title="In this file, the implementation of the ValueMap class is defined.">
<polygon fill="#bfbfbf" stroke="black" points="365.64,-280.5 365.64,-321.5 532.64,-321.5 532.64,-280.5 365.64,-280.5"/>
<text text-anchor="start" x="373.64" y="-309.5" font-family="Helvetica,sans-Serif" font-size="10.00">/home/runner/work/Simopticon</text>
<text text-anchor="start" x="373.64" y="-298.5" font-family="Helvetica,sans-Serif" font-size="10.00">/Simopticon/src/controller</text>
<text text-anchor="middle" x="449.14" y="-287.5" font-family="Helvetica,sans-Serif" font-size="10.00">/ValueMap.cpp</text>
</a>
</g>
</g>
<!-- Node2 -->
<g id="node2" class="node">
<title>Node2</title>
<g id="a_node2"><a xlink:href="ValueMap_8h.xhtml" target="_top" xlink:title="In this file, the header of the ValueMap class is defined.">
<polygon fill="white" stroke="black" points="296.14,-224.5 296.14,-243.5 370.14,-243.5 370.14,-224.5 296.14,-224.5"/>
<text text-anchor="middle" x="333.14" y="-231.5" font-family="Helvetica,sans-Serif" font-size="10.00">ValueMap.h</text>
</a>
</g>
</g>
<!-- Node1&#45;&gt;Node2 -->
<g id="edge1" class="edge">
<title>Node1&#45;&gt;Node2</title>
<path fill="none" stroke="midnightblue" d="M414.34,-280.5C396.04,-270.24 374.06,-257.93 357.58,-248.69"/>
<polygon fill="midnightblue" stroke="midnightblue" points="359.02,-245.49 348.59,-243.65 355.6,-251.59 359.02,-245.49"/>
</g>
<!-- Node13 -->
<g id="node13" class="node">
<title>Node13</title>
<g id="a_node13"><a xlink:title=" ">
<polygon fill="white" stroke="#bfbfbf" points="388.64,-224.5 388.64,-243.5 435.64,-243.5 435.64,-224.5 388.64,-224.5"/>
<text text-anchor="middle" x="412.14" y="-231.5" font-family="Helvetica,sans-Serif" font-size="10.00">cmath</text>
</a>
</g>
</g>
<!-- Node1&#45;&gt;Node13 -->
<g id="edge19" class="edge">
<title>Node1&#45;&gt;Node13</title>
<path fill="none" stroke="midnightblue" d="M438.04,-280.5C432.97,-271.59 427.01,-261.11 422.09,-252.46"/>
<polygon fill="midnightblue" stroke="midnightblue" points="425.06,-250.61 417.07,-243.65 418.98,-254.07 425.06,-250.61"/>
</g>
<!-- Node14 -->
<g id="node14" class="node">
<title>Node14</title>
<g id="a_node14"><a xlink:title=" ">
<polygon fill="white" stroke="#bfbfbf" points="453.64,-224.5 453.64,-243.5 518.64,-243.5 518.64,-224.5 453.64,-224.5"/>
<text text-anchor="middle" x="486.14" y="-231.5" font-family="Helvetica,sans-Serif" font-size="10.00">stdexcept</text>
</a>
</g>
</g>
<!-- Node1&#45;&gt;Node14 -->
<g id="edge20" class="edge">
<title>Node1&#45;&gt;Node14</title>
<path fill="none" stroke="midnightblue" d="M460.25,-280.5C465.32,-271.59 471.28,-261.11 476.2,-252.46"/>
<polygon fill="midnightblue" stroke="midnightblue" points="479.31,-254.07 481.22,-243.65 473.23,-250.61 479.31,-254.07"/>
</g>
<!-- Node15 -->
<g id="node15" class="node">
<title>Node15</title>
<g id="a_node15"><a xlink:title=" ">
<polygon fill="white" stroke="#bfbfbf" points="537.14,-224.5 537.14,-243.5 601.14,-243.5 601.14,-224.5 537.14,-224.5"/>
<text text-anchor="middle" x="569.14" y="-231.5" font-family="Helvetica,sans-Serif" font-size="10.00">algorithm</text>
</a>
</g>
</g>
<!-- Node1&#45;&gt;Node15 -->
<g id="edge21" class="edge">
<title>Node1&#45;&gt;Node15</title>
<path fill="none" stroke="midnightblue" d="M485.15,-280.5C504.25,-270.15 527.25,-257.69 544.34,-248.43"/>
<polygon fill="midnightblue" stroke="midnightblue" points="546.04,-251.49 553.17,-243.65 542.71,-245.34 546.04,-251.49"/>
</g>
<!-- Node3 -->
<g id="node3" class="node">
<title>Node3</title>
<g id="a_node3"><a xlink:href="Types_8h.xhtml" target="_top" xlink:title="In this file, types are defined which should be used across the whole framework.">
<polygon fill="white" stroke="black" points="137.14,-56.5 137.14,-75.5 199.14,-75.5 199.14,-56.5 137.14,-56.5"/>
<text text-anchor="middle" x="168.14" y="-63.5" font-family="Helvetica,sans-Serif" font-size="10.00">../Types.h</text>
</a>
</g>
</g>
<!-- Node2&#45;&gt;Node3 -->
<g id="edge2" class="edge">
<title>Node2&#45;&gt;Node3</title>
<path fill="none" stroke="midnightblue" d="M295.91,-228.86C249.2,-222.81 173.13,-209.84 156.14,-188 150.69,-180.98 155.62,-176.87 156.14,-168 157.85,-139.13 162.29,-105.87 165.26,-85.64"/>
<polygon fill="midnightblue" stroke="midnightblue" points="168.74,-86.03 166.77,-75.62 161.82,-84.98 168.74,-86.03"/>
</g>
<!-- Node5 -->
<g id="node5" class="node">
<title>Node5</title>
<g id="a_node5"><a xlink:title=" ">
<polygon fill="white" stroke="#bfbfbf" points="211.64,-0.5 211.64,-19.5 258.64,-19.5 258.64,-0.5 211.64,-0.5"/>
<text text-anchor="middle" x="235.14" y="-7.5" font-family="Helvetica,sans-Serif" font-size="10.00">vector</text>
</a>
</g>
</g>
<!-- Node2&#45;&gt;Node5 -->
<g id="edge14" class="edge">
<title>Node2&#45;&gt;Node5</title>
<path fill="none" stroke="midnightblue" d="M331.17,-224.42C328.14,-211.83 321.9,-187.69 314.14,-168 293.43,-115.43 261.35,-56.77 245.19,-28.33"/>
<polygon fill="midnightblue" stroke="midnightblue" points="248.19,-26.53 240.17,-19.59 242.11,-30.01 248.19,-26.53"/>
</g>
<!-- Node6 -->
<g id="node6" class="node">
<title>Node6</title>
<g id="a_node6"><a xlink:title=" ">
<polygon fill="white" stroke="#bfbfbf" points="42.14,-0.5 42.14,-19.5 100.14,-19.5 100.14,-0.5 42.14,-0.5"/>
<text text-anchor="middle" x="71.14" y="-7.5" font-family="Helvetica,sans-Serif" font-size="10.00">memory</text>
</a>
</g>
</g>
<!-- Node2&#45;&gt;Node6 -->
<g id="edge16" class="edge">
<title>Node2&#45;&gt;Node6</title>
<path fill="none" stroke="midnightblue" d="M295.92,-229.72C249.18,-224.72 167.14,-213 101.14,-188 55.31,-170.64 30.46,-174.56 6.14,-132 -15.31,-94.45 26.26,-49.37 52.32,-26.28"/>
<polygon fill="midnightblue" stroke="midnightblue" points="54.82,-28.75 60.14,-19.59 50.27,-23.43 54.82,-28.75"/>
</g>
<!-- Node7 -->
<g id="node7" class="node">
<title>Node7</title>
<g id="a_node7"><a xlink:href="ComparisonFunctions_8h.xhtml" target="_top" xlink:title="In this file, comparison functions are defined which should be used across the whole framework.">
<polygon fill="white" stroke="black" points="165.14,-168.5 165.14,-187.5 305.14,-187.5 305.14,-168.5 165.14,-168.5"/>
<text text-anchor="middle" x="235.14" y="-175.5" font-family="Helvetica,sans-Serif" font-size="10.00">../ComparisonFunctions.h</text>
</a>
</g>
</g>
<!-- Node2&#45;&gt;Node7 -->
<g id="edge6" class="edge">
<title>Node2&#45;&gt;Node7</title>
<path fill="none" stroke="midnightblue" d="M317.4,-224.32C301.83,-215.74 277.77,-202.49 259.69,-192.52"/>
<polygon fill="midnightblue" stroke="midnightblue" points="261.3,-189.42 250.85,-187.65 257.92,-195.55 261.3,-189.42"/>
</g>
<!-- Node8 -->
<g id="node8" class="node">
<title>Node8</title>
<g id="a_node8"><a xlink:href="Parameter_8h.xhtml" target="_top" xlink:title="In this file, the header of the Parameter class is defined.">
<polygon fill="white" stroke="black" points="15.14,-112.5 15.14,-131.5 149.14,-131.5 149.14,-112.5 15.14,-112.5"/>
<text text-anchor="middle" x="82.14" y="-119.5" font-family="Helvetica,sans-Serif" font-size="10.00">parameters/Parameter.h</text>
</a>
</g>
</g>
<!-- Node2&#45;&gt;Node8 -->
<g id="edge12" class="edge">
<title>Node2&#45;&gt;Node8</title>
<path fill="none" stroke="midnightblue" d="M295.96,-233.47C251.11,-232.27 175.27,-224.4 123.14,-188 106.77,-176.57 95.53,-156.28 89.01,-141.41"/>
<polygon fill="midnightblue" stroke="midnightblue" points="92.1,-139.69 85.1,-131.74 85.61,-142.32 92.1,-139.69"/>
</g>
<!-- Node9 -->
<g id="node9" class="node">
<title>Node9</title>
<g id="a_node9"><a xlink:title=" ">
<polygon fill="white" stroke="#bfbfbf" points="361.14,-168.5 361.14,-187.5 399.14,-187.5 399.14,-168.5 361.14,-168.5"/>
<text text-anchor="middle" x="380.14" y="-175.5" font-family="Helvetica,sans-Serif" font-size="10.00">map</text>
</a>
</g>
</g>
<!-- Node2&#45;&gt;Node9 -->
<g id="edge13" class="edge">
<title>Node2&#45;&gt;Node9</title>
<path fill="none" stroke="midnightblue" d="M340.91,-224.08C347.68,-216.3 357.69,-204.8 365.9,-195.37"/>
<polygon fill="midnightblue" stroke="midnightblue" points="368.6,-197.59 372.53,-187.75 363.32,-193 368.6,-197.59"/>
</g>
<!-- Node10 -->
<g id="node10" class="node">
<title>Node10</title>
<g id="a_node10"><a xlink:title=" ">
<polygon fill="white" stroke="#bfbfbf" points="417.14,-168.5 417.14,-187.5 449.14,-187.5 449.14,-168.5 417.14,-168.5"/>
<text text-anchor="middle" x="433.14" y="-175.5" font-family="Helvetica,sans-Serif" font-size="10.00">list</text>
</a>
</g>
</g>
<!-- Node2&#45;&gt;Node10 -->
<g id="edge15" class="edge">
<title>Node2&#45;&gt;Node10</title>
<path fill="none" stroke="midnightblue" d="M349.21,-224.32C365.1,-215.74 389.65,-202.49 408.1,-192.52"/>
<polygon fill="midnightblue" stroke="midnightblue" points="409.98,-195.49 417.12,-187.65 406.66,-189.33 409.98,-195.49"/>
</g>
<!-- Node11 -->
<g id="node11" class="node">
<title>Node11</title>
<g id="a_node11"><a xlink:title=" ">
<polygon fill="white" stroke="#bfbfbf" points="467.14,-168.5 467.14,-187.5 499.14,-187.5 499.14,-168.5 467.14,-168.5"/>
<text text-anchor="middle" x="483.14" y="-175.5" font-family="Helvetica,sans-Serif" font-size="10.00">set</text>
</a>
</g>
</g>
<!-- Node2&#45;&gt;Node11 -->
<g id="edge17" class="edge">
<title>Node2&#45;&gt;Node11</title>
<path fill="none" stroke="midnightblue" d="M356.91,-224.44C384.28,-214.59 429.09,-198.46 457.3,-188.3"/>
<polygon fill="midnightblue" stroke="midnightblue" points="458.66,-191.53 466.88,-184.85 456.29,-184.95 458.66,-191.53"/>
</g>
<!-- Node12 -->
<g id="node12" class="node">
<title>Node12</title>
<g id="a_node12"><a xlink:title=" ">
<polygon fill="white" stroke="#bfbfbf" points="517.14,-168.5 517.14,-187.5 565.14,-187.5 565.14,-168.5 517.14,-168.5"/>
<text text-anchor="middle" x="541.14" y="-175.5" font-family="Helvetica,sans-Serif" font-size="10.00">mutex</text>
</a>
</g>
</g>
<!-- Node2&#45;&gt;Node12 -->
<g id="edge18" class="edge">
<title>Node2&#45;&gt;Node12</title>
<path fill="none" stroke="midnightblue" d="M367.06,-224.44C400.34,-215.99 452.8,-202.6 507.19,-188.23"/>
<polygon fill="midnightblue" stroke="midnightblue" points="508.23,-191.57 517.01,-185.63 506.44,-184.8 508.23,-191.57"/>
</g>
<!-- Node4 -->
<g id="node4" class="node">
<title>Node4</title>
<g id="a_node4"><a xlink:title=" ">
<polygon fill="white" stroke="#bfbfbf" points="138.14,-0.5 138.14,-19.5 182.14,-19.5 182.14,-0.5 138.14,-0.5"/>
<text text-anchor="middle" x="160.14" y="-7.5" font-family="Helvetica,sans-Serif" font-size="10.00">string</text>
</a>
</g>
</g>
<!-- Node3&#45;&gt;Node4 -->
<g id="edge3" class="edge">
<title>Node3&#45;&gt;Node4</title>
<path fill="none" stroke="midnightblue" d="M166.82,-56.08C165.76,-48.93 164.24,-38.64 162.91,-29.69"/>
<polygon fill="midnightblue" stroke="midnightblue" points="166.37,-29.13 161.44,-19.75 159.44,-30.16 166.37,-29.13"/>
</g>
<!-- Node3&#45;&gt;Node5 -->
<g id="edge4" class="edge">
<title>Node3&#45;&gt;Node5</title>
<path fill="none" stroke="midnightblue" d="M178.91,-56.32C188.91,-48.26 204.03,-36.08 216.08,-26.37"/>
<polygon fill="midnightblue" stroke="midnightblue" points="218.59,-28.83 224.18,-19.83 214.2,-23.38 218.59,-28.83"/>
</g>
<!-- Node3&#45;&gt;Node6 -->
<g id="edge5" class="edge">
<title>Node3&#45;&gt;Node6</title>
<path fill="none" stroke="midnightblue" d="M152.56,-56.32C137.15,-47.74 113.33,-34.49 95.43,-24.52"/>
<polygon fill="midnightblue" stroke="midnightblue" points="97.13,-21.46 86.69,-19.65 93.73,-27.58 97.13,-21.46"/>
</g>
<!-- Node7&#45;&gt;Node5 -->
<g id="edge11" class="edge">
<title>Node7&#45;&gt;Node5</title>
<path fill="none" stroke="midnightblue" d="M235.14,-168.08C235.14,-141.95 235.14,-65.21 235.14,-29.58"/>
<polygon fill="midnightblue" stroke="midnightblue" points="238.64,-29.57 235.14,-19.57 231.64,-29.57 238.64,-29.57"/>
</g>
<!-- Node7&#45;&gt;Node8 -->
<g id="edge7" class="edge">
<title>Node7&#45;&gt;Node8</title>
<path fill="none" stroke="midnightblue" d="M210.9,-168.44C185.27,-159.4 144.66,-145.06 115.91,-134.92"/>
<polygon fill="midnightblue" stroke="midnightblue" points="116.87,-131.54 106.27,-131.52 114.54,-138.15 116.87,-131.54"/>
</g>
<!-- Node8&#45;&gt;Node3 -->
<g id="edge8" class="edge">
<title>Node8&#45;&gt;Node3</title>
<path fill="none" stroke="midnightblue" d="M95.96,-112.32C109.38,-103.9 129.97,-90.97 145.73,-81.07"/>
<polygon fill="midnightblue" stroke="midnightblue" points="147.75,-83.94 154.36,-75.65 144.03,-78.01 147.75,-83.94"/>
</g>
<!-- Node8&#45;&gt;Node4 -->
<g id="edge9" class="edge">
<title>Node8&#45;&gt;Node4</title>
<path fill="none" stroke="midnightblue" d="M88.39,-112.16C97.23,-99.66 113.91,-76.07 128.14,-56 134.74,-46.7 142.12,-36.32 148.13,-27.88"/>
<polygon fill="midnightblue" stroke="midnightblue" points="151.06,-29.8 154,-19.62 145.35,-25.74 151.06,-29.8"/>
</g>
<!-- Node8&#45;&gt;Node6 -->
<g id="edge10" class="edge">
<title>Node8&#45;&gt;Node6</title>
<path fill="none" stroke="midnightblue" d="M81.28,-112.37C79.51,-94.62 75.41,-53.67 73,-29.6"/>
<polygon fill="midnightblue" stroke="midnightblue" points="76.48,-29.19 72,-19.59 69.52,-29.89 76.48,-29.19"/>
</g>
</g>
</svg>
