<?xml version="1.0" encoding="UTF-8" standalone="no"?>
<!DOCTYPE svg PUBLIC "-//W3C//DTD SVG 1.1//EN"
 "http://www.w3.org/Graphics/SVG/1.1/DTD/svg11.dtd">
<!-- Generated by graphviz version 2.43.0 (0)
 -->
<!-- Title: /home/runner/work/Simopticon/Simopticon/src/controller/ValueMap.h Pages: 1 -->
<svg width="879pt" height="362pt"
 viewBox="0.00 0.00 879.00 362.00" xmlns="http://www.w3.org/2000/svg" xmlns:xlink="http://www.w3.org/1999/xlink">
<g id="graph0" class="graph" transform="scale(1 1) rotate(0) translate(4 358)">
<title>/home/runner/work/Simopticon/Simopticon/src/controller/ValueMap.h</title>
<polygon fill="white" stroke="transparent" points="-4,4 -4,-358 875,-358 875,4 -4,4"/>
<!-- Node1 -->
<g id="node1" class="node">
<title>Node1</title>
<g id="a_node1"><a xlink:title="In this file, the header of the ValueMap class is defined.">
<polygon fill="#bfbfbf" stroke="black" points="369,-312.5 369,-353.5 536,-353.5 536,-312.5 369,-312.5"/>
<text text-anchor="start" x="377" y="-341.5" font-family="Helvetica,sans-Serif" font-size="10.00">/home/runner/work/Simopticon</text>
<text text-anchor="start" x="377" y="-330.5" font-family="Helvetica,sans-Serif" font-size="10.00">/Simopticon/src/controller</text>
<text text-anchor="middle" x="452.5" y="-319.5" font-family="Helvetica,sans-Serif" font-size="10.00">/ValueMap.h</text>
</a>
</g>
</g>
<!-- Node2 -->
<g id="node2" class="node">
<title>Node2</title>
<g id="a_node2"><a xlink:href="ValueMap_8cpp.xhtml" target="_top" xlink:title="In this file, the implementation of the ValueMap class is defined.">
<polygon fill="white" stroke="black" points="0,-234.5 0,-275.5 167,-275.5 167,-234.5 0,-234.5"/>
<text text-anchor="start" x="8" y="-263.5" font-family="Helvetica,sans-Serif" font-size="10.00">/home/runner/work/Simopticon</text>
<text text-anchor="start" x="8" y="-252.5" font-family="Helvetica,sans-Serif" font-size="10.00">/Simopticon/src/controller</text>
<text text-anchor="middle" x="83.5" y="-241.5" font-family="Helvetica,sans-Serif" font-size="10.00">/ValueMap.cpp</text>
</a>
</g>
</g>
<!-- Node1&#45;&gt;Node2 -->
<g id="edge1" class="edge">
<title>Node1&#45;&gt;Node2</title>
<path fill="none" stroke="midnightblue" d="M358.91,-312.74C306.45,-301.94 239.83,-288.22 180.5,-276 176.12,-275.1 171.63,-274.17 167.1,-273.24"/>
<polygon fill="midnightblue" stroke="midnightblue" points="358.37,-316.2 368.87,-314.79 359.78,-309.34 358.37,-316.2"/>
</g>
<!-- Node3 -->
<g id="node3" class="node">
<title>Node3</title>
<g id="a_node3"><a xlink:href="StubController_8cpp.xhtml" target="_top" xlink:title="In this file, the implementation of the StubController class is defined.">
<polygon fill="white" stroke="black" points="121,-0.5 121,-41.5 288,-41.5 288,-0.5 121,-0.5"/>
<text text-anchor="start" x="129" y="-29.5" font-family="Helvetica,sans-Serif" font-size="10.00">/home/runner/work/Simopticon</text>
<text text-anchor="start" x="129" y="-18.5" font-family="Helvetica,sans-Serif" font-size="10.00">/Simopticon/src/controller</text>
<text text-anchor="middle" x="204.5" y="-7.5" font-family="Helvetica,sans-Serif" font-size="10.00">/StubController.cpp</text>
</a>
</g>
</g>
<!-- Node1&#45;&gt;Node3 -->
<g id="edge2" class="edge">
<title>Node1&#45;&gt;Node3</title>
<path fill="none" stroke="midnightblue" d="M404.31,-307.53C387.48,-298.33 368.74,-287.34 352.5,-276 308.83,-245.5 296.1,-238.5 261.5,-198 235.06,-167.05 226.37,-158.62 213.5,-120 204.8,-93.9 203.49,-61.87 203.71,-41.69"/>
<polygon fill="midnightblue" stroke="midnightblue" points="402.97,-310.78 413.43,-312.44 406.29,-304.62 402.97,-310.78"/>
</g>
<!-- Node4 -->
<g id="node4" class="node">
<title>Node4</title>
<g id="a_node4"><a xlink:href="Controller_8cpp.xhtml" target="_top" xlink:title="In this file, the implementation of the Controller class is defined.">
<polygon fill="white" stroke="black" points="555,-0.5 555,-41.5 722,-41.5 722,-0.5 555,-0.5"/>
<text text-anchor="start" x="563" y="-29.5" font-family="Helvetica,sans-Serif" font-size="10.00">/home/runner/work/Simopticon</text>
<text text-anchor="start" x="563" y="-18.5" font-family="Helvetica,sans-Serif" font-size="10.00">/Simopticon/src/controller</text>
<text text-anchor="middle" x="638.5" y="-7.5" font-family="Helvetica,sans-Serif" font-size="10.00">/Controller.cpp</text>
</a>
</g>
</g>
<!-- Node1&#45;&gt;Node4 -->
<g id="edge3" class="edge">
<title>Node1&#45;&gt;Node4</title>
<path fill="none" stroke="midnightblue" d="M521.2,-308.5C569.56,-287.81 630.31,-252.37 657.5,-198 683.34,-146.32 660.98,-75.63 647.28,-41.72"/>
<polygon fill="midnightblue" stroke="midnightblue" points="519.6,-305.37 511.71,-312.44 522.29,-311.84 519.6,-305.37"/>
</g>
<!-- Node5 -->
<g id="node5" class="node">
<title>Node5</title>
<g id="a_node5"><a xlink:href="DirectOptimizer_8cpp.xhtml" target="_top" xlink:title="In this file, the implementation of the DirectOptimizer class is defined.">
<polygon fill="white" stroke="black" points="704,-234.5 704,-275.5 871,-275.5 871,-234.5 704,-234.5"/>
<text text-anchor="start" x="712" y="-263.5" font-family="Helvetica,sans-Serif" font-size="10.00">/home/runner/work/Simopticon</text>
<text text-anchor="start" x="712" y="-252.5" font-family="Helvetica,sans-Serif" font-size="10.00">/Simopticon/src/optimizer</text>
<text text-anchor="middle" x="787.5" y="-241.5" font-family="Helvetica,sans-Serif" font-size="10.00">/direct/DirectOptimizer.cpp</text>
</a>
</g>
</g>
<!-- Node1&#45;&gt;Node5 -->
<g id="edge4" class="edge">
<title>Node1&#45;&gt;Node5</title>
<path fill="none" stroke="midnightblue" d="M546.23,-310.74C595.68,-299.52 655.85,-285.87 703.74,-275"/>
<polygon fill="midnightblue" stroke="midnightblue" points="545.15,-307.39 536.17,-313.02 546.7,-314.22 545.15,-307.39"/>
</g>
<!-- Node6 -->
<g id="node6" class="node">
<title>Node6</title>
<g id="a_node6"><a xlink:href="StatusBar_8h.xhtml" target="_top" xlink:title="In this file, the header of the StatusBar class is defined.">
<polygon fill="white" stroke="black" points="361,-240 361,-270 544,-270 544,-240 361,-240"/>
<text text-anchor="start" x="369" y="-258" font-family="Helvetica,sans-Serif" font-size="10.00">/home/runner/work/Simopticon</text>
<text text-anchor="middle" x="452.5" y="-247" font-family="Helvetica,sans-Serif" font-size="10.00">/Simopticon/src/status/StatusBar.h</text>
</a>
</g>
</g>
<!-- Node1&#45;&gt;Node6 -->
<g id="edge5" class="edge">
<title>Node1&#45;&gt;Node6</title>
<path fill="none" stroke="midnightblue" d="M452.5,-302.28C452.5,-291.25 452.5,-279.25 452.5,-270.23"/>
<polygon fill="midnightblue" stroke="midnightblue" points="449,-302.43 452.5,-312.43 456,-302.43 449,-302.43"/>
</g>
<!-- Node7 -->
<g id="node7" class="node">
<title>Node7</title>
<g id="a_node7"><a xlink:href="Controller_8h.xhtml" target="_top" xlink:title="In this file, the header of the Controller class is defined.">
<polygon fill="white" stroke="black" points="270,-156.5 270,-197.5 437,-197.5 437,-156.5 270,-156.5"/>
<text text-anchor="start" x="278" y="-185.5" font-family="Helvetica,sans-Serif" font-size="10.00">/home/runner/work/Simopticon</text>
<text text-anchor="start" x="278" y="-174.5" font-family="Helvetica,sans-Serif" font-size="10.00">/Simopticon/src/controller</text>
<text text-anchor="middle" x="353.5" y="-163.5" font-family="Helvetica,sans-Serif" font-size="10.00">/Controller.h</text>
</a>
</g>
</g>
<!-- Node6&#45;&gt;Node7 -->
<g id="edge6" class="edge">
<title>Node6&#45;&gt;Node7</title>
<path fill="none" stroke="midnightblue" d="M425.78,-233.49C411.29,-222.36 393.46,-208.68 379.14,-197.68"/>
<polygon fill="midnightblue" stroke="midnightblue" points="423.82,-236.39 433.88,-239.7 428.08,-230.84 423.82,-236.39"/>
</g>
<!-- Node11 -->
<g id="node11" class="node">
<title>Node11</title>
<g id="a_node11"><a xlink:href="StatusBar_8cpp.xhtml" target="_top" xlink:title="In this file, the implementation of the StatusBar class is defined.">
<polygon fill="white" stroke="black" points="454.5,-162 454.5,-192 648.5,-192 648.5,-162 454.5,-162"/>
<text text-anchor="start" x="462.5" y="-180" font-family="Helvetica,sans-Serif" font-size="10.00">/home/runner/work/Simopticon</text>
<text text-anchor="middle" x="551.5" y="-169" font-family="Helvetica,sans-Serif" font-size="10.00">/Simopticon/src/status/StatusBar.cpp</text>
</a>
</g>
</g>
<!-- Node6&#45;&gt;Node11 -->
<g id="edge14" class="edge">
<title>Node6&#45;&gt;Node11</title>
<path fill="none" stroke="midnightblue" d="M479.06,-233.61C496.09,-220.54 517.78,-203.89 532.96,-192.23"/>
<polygon fill="midnightblue" stroke="midnightblue" points="476.92,-230.84 471.12,-239.7 481.18,-236.39 476.92,-230.84"/>
</g>
<!-- Node7&#45;&gt;Node4 -->
<g id="edge7" class="edge">
<title>Node7&#45;&gt;Node4</title>
<path fill="none" stroke="midnightblue" d="M447.1,-155.87C526.47,-142.33 567.12,-174.53 620.5,-120 640.71,-99.36 642.21,-63.94 640.81,-41.81"/>
<polygon fill="midnightblue" stroke="midnightblue" points="446.39,-152.44 437.23,-157.76 447.71,-159.32 446.39,-152.44"/>
</g>
<!-- Node8 -->
<g id="node8" class="node">
<title>Node8</title>
<g id="a_node8"><a xlink:href="main_8cpp.xhtml" target="_top" xlink:title="In this file, the main function running the Simopticon framework is defined.">
<polygon fill="white" stroke="black" points="315,-6 315,-36 482,-36 482,-6 315,-6"/>
<text text-anchor="start" x="323" y="-24" font-family="Helvetica,sans-Serif" font-size="10.00">/home/runner/work/Simopticon</text>
<text text-anchor="middle" x="398.5" y="-13" font-family="Helvetica,sans-Serif" font-size="10.00">/Simopticon/src/main.cpp</text>
</a>
</g>
</g>
<!-- Node7&#45;&gt;Node8 -->
<g id="edge8" class="edge">
<title>Node7&#45;&gt;Node8</title>
<path fill="none" stroke="midnightblue" d="M381.52,-148.65C388.41,-140.18 394.86,-130.34 398.5,-120 408.5,-91.59 404.67,-55.62 401.36,-36.12"/>
<polygon fill="midnightblue" stroke="midnightblue" points="378.77,-146.48 374.84,-156.32 384.05,-151.07 378.77,-146.48"/>
</g>
<!-- Node9 -->
<g id="node9" class="node">
<title>Node9</title>
<g id="a_node9"><a xlink:href="StubController_8h.xhtml" target="_top" xlink:title="In this file, the header of the StubController class is defined.">
<polygon fill="white" stroke="black" points="222,-78.5 222,-119.5 389,-119.5 389,-78.5 222,-78.5"/>
<text text-anchor="start" x="230" y="-107.5" font-family="Helvetica,sans-Serif" font-size="10.00">/home/runner/work/Simopticon</text>
<text text-anchor="start" x="230" y="-96.5" font-family="Helvetica,sans-Serif" font-size="10.00">/Simopticon/src/controller</text>
<text text-anchor="middle" x="305.5" y="-85.5" font-family="Helvetica,sans-Serif" font-size="10.00">/StubController.h</text>
</a>
</g>
</g>
<!-- Node7&#45;&gt;Node9 -->
<g id="edge9" class="edge">
<title>Node7&#45;&gt;Node9</title>
<path fill="none" stroke="midnightblue" d="M335.66,-147.76C329.72,-138.35 323.24,-128.1 317.82,-119.51"/>
<polygon fill="midnightblue" stroke="midnightblue" points="332.84,-149.84 341.14,-156.43 338.76,-146.1 332.84,-149.84"/>
</g>
<!-- Node10 -->
<g id="node10" class="node">
<title>Node10</title>
<g id="a_node10"><a xlink:href="Optimizer_8cpp.xhtml" target="_top" xlink:title="In this file, the implementation of the Optimizer class is defined.">
<polygon fill="white" stroke="black" points="444,-78.5 444,-119.5 611,-119.5 611,-78.5 444,-78.5"/>
<text text-anchor="start" x="452" y="-107.5" font-family="Helvetica,sans-Serif" font-size="10.00">/home/runner/work/Simopticon</text>
<text text-anchor="start" x="452" y="-96.5" font-family="Helvetica,sans-Serif" font-size="10.00">/Simopticon/src/optimizer</text>
<text text-anchor="middle" x="527.5" y="-85.5" font-family="Helvetica,sans-Serif" font-size="10.00">/Optimizer.cpp</text>
</a>
</g>
</g>
<!-- Node7&#45;&gt;Node10 -->
<g id="edge13" class="edge">
<title>Node7&#45;&gt;Node10</title>
<path fill="none" stroke="midnightblue" d="M407.69,-152.33C431.84,-141.78 459.93,-129.51 482.84,-119.51"/>
<polygon fill="midnightblue" stroke="midnightblue" points="406.07,-149.22 398.31,-156.43 408.87,-155.63 406.07,-149.22"/>
</g>
<!-- Node9&#45;&gt;Node3 -->
<g id="edge10" class="edge">
<title>Node9&#45;&gt;Node3</title>
<path fill="none" stroke="midnightblue" d="M271.41,-72.35C258.02,-62.27 242.9,-50.89 230.42,-41.51"/>
<polygon fill="midnightblue" stroke="midnightblue" points="269.4,-75.21 279.49,-78.43 273.6,-69.62 269.4,-75.21"/>
</g>
<!-- Node9&#45;&gt;Node4 -->
<g id="edge11" class="edge">
<title>Node9&#45;&gt;Node4</title>
<path fill="none" stroke="midnightblue" d="M399.06,-76.65C448.02,-65.47 507.46,-51.91 554.87,-41.09"/>
<polygon fill="midnightblue" stroke="midnightblue" points="398.07,-73.28 389.1,-78.92 399.63,-80.11 398.07,-73.28"/>
</g>
<!-- Node9&#45;&gt;Node8 -->
<g id="edge12" class="edge">
<title>Node9&#45;&gt;Node8</title>
<path fill="none" stroke="midnightblue" d="M337.33,-71.99C351.98,-60.02 368.8,-46.27 381.09,-36.23"/>
<polygon fill="midnightblue" stroke="midnightblue" points="334.98,-69.39 329.45,-78.43 339.41,-74.81 334.98,-69.39"/>
</g>
</g>
</svg>
