<?xml version="1.0" encoding="UTF-8" standalone="no"?>
<!DOCTYPE svg PUBLIC "-//W3C//DTD SVG 1.1//EN"
 "http://www.w3.org/Graphics/SVG/1.1/DTD/svg11.dtd">
<!-- Generated by graphviz version 2.43.0 (0)
 -->
<!-- Title: src/controller/ValueMap.h Pages: 1 -->
<svg width="856pt" height="263pt"
 viewBox="0.00 0.00 855.50 263.00" xmlns="http://www.w3.org/2000/svg" xmlns:xlink="http://www.w3.org/1999/xlink">
<g id="graph0" class="graph" transform="scale(1 1) rotate(0) translate(4 259)">
<title>src/controller/ValueMap.h</title>
<polygon fill="white" stroke="transparent" points="-4,4 -4,-259 851.5,-259 851.5,4 -4,4"/>
<!-- Node1 -->
<g id="node1" class="node">
<title>Node1</title>
<g id="a_node1"><a xlink:title="In this file, the header of the ValueMap class is defined.">
<polygon fill="#bfbfbf" stroke="black" points="463.5,-235.5 463.5,-254.5 603.5,-254.5 603.5,-235.5 463.5,-235.5"/>
<text text-anchor="middle" x="533.5" y="-242.5" font-family="Helvetica,sans-Serif" font-size="10.00">src/controller/ValueMap.h</text>
</a>
</g>
</g>
<!-- Node2 -->
<g id="node2" class="node">
<title>Node2</title>
<g id="a_node2"><a xlink:href="StubController_8cpp.xhtml" target="_top" xlink:title="In this file, the implementation of the StubController class is defined.">
<polygon fill="white" stroke="black" points="0,-0.5 0,-19.5 173,-19.5 173,-0.5 0,-0.5"/>
<text text-anchor="middle" x="86.5" y="-7.5" font-family="Helvetica,sans-Serif" font-size="10.00">src/controller/StubController.cpp</text>
</a>
</g>
</g>
<!-- Node1&#45;&gt;Node2 -->
<g id="edge1" class="edge">
<title>Node1&#45;&gt;Node2</title>
<path fill="none" stroke="midnightblue" d="M487.47,-233.04C454.12,-224.72 408.12,-212.44 368.5,-199 239.01,-155.07 159.58,-191.57 86.5,-76 75.52,-58.64 80.15,-33.11 83.75,-19.8"/>
<polygon fill="midnightblue" stroke="midnightblue" points="486.85,-236.49 497.39,-235.5 488.53,-229.7 486.85,-236.49"/>
</g>
<!-- Node3 -->
<g id="node3" class="node">
<title>Node3</title>
<g id="a_node3"><a xlink:href="Controller_8cpp.xhtml" target="_top" xlink:title="In this file, the implementation of the Controller class is defined.">
<polygon fill="white" stroke="black" points="418,-0.5 418,-19.5 569,-19.5 569,-0.5 418,-0.5"/>
<text text-anchor="middle" x="493.5" y="-7.5" font-family="Helvetica,sans-Serif" font-size="10.00">src/controller/Controller.cpp</text>
</a>
</g>
</g>
<!-- Node1&#45;&gt;Node3 -->
<g id="edge2" class="edge">
<title>Node1&#45;&gt;Node3</title>
<path fill="none" stroke="midnightblue" d="M531.16,-225.16C527.89,-199.5 521.56,-152.14 514.5,-112 508.45,-77.6 499.43,-37.01 495.48,-19.61"/>
<polygon fill="midnightblue" stroke="midnightblue" points="527.72,-225.84 532.44,-235.32 534.66,-224.96 527.72,-225.84"/>
</g>
<!-- Node4 -->
<g id="node4" class="node">
<title>Node4</title>
<g id="a_node4"><a xlink:href="ValueMap_8cpp.xhtml" target="_top" xlink:title="In this file, the implementation of the ValueMap class is defined.">
<polygon fill="white" stroke="black" points="561.5,-174 561.5,-193 713.5,-193 713.5,-174 561.5,-174"/>
<text text-anchor="middle" x="637.5" y="-181" font-family="Helvetica,sans-Serif" font-size="10.00">src/controller/ValueMap.cpp</text>
</a>
</g>
</g>
<!-- Node1&#45;&gt;Node4 -->
<g id="edge3" class="edge">
<title>Node1&#45;&gt;Node4</title>
<path fill="none" stroke="midnightblue" d="M557.27,-230.4C577.38,-218.9 605.57,-202.77 622.63,-193.01"/>
<polygon fill="midnightblue" stroke="midnightblue" points="555.34,-227.47 548.4,-235.48 558.82,-233.55 555.34,-227.47"/>
</g>
<!-- Node5 -->
<g id="node5" class="node">
<title>Node5</title>
<g id="a_node5"><a xlink:href="DirectOptimizer_8cpp.xhtml" target="_top" xlink:title="In this file, the implementation of the DirectOptimizer class is defined.">
<polygon fill="white" stroke="black" points="731.5,-168.5 731.5,-198.5 847.5,-198.5 847.5,-168.5 731.5,-168.5"/>
<text text-anchor="start" x="739.5" y="-186.5" font-family="Helvetica,sans-Serif" font-size="10.00">src/optimizer/direct</text>
<text text-anchor="middle" x="789.5" y="-175.5" font-family="Helvetica,sans-Serif" font-size="10.00">/DirectOptimizer.cpp</text>
</a>
</g>
</g>
<!-- Node1&#45;&gt;Node5 -->
<g id="edge4" class="edge">
<title>Node1&#45;&gt;Node5</title>
<path fill="none" stroke="midnightblue" d="M579.97,-233.2C622.41,-223.34 685.32,-208.71 731.13,-198.07"/>
<polygon fill="midnightblue" stroke="midnightblue" points="579.13,-229.8 570.18,-235.48 580.71,-236.62 579.13,-229.8"/>
</g>
<!-- Node6 -->
<g id="node6" class="node">
<title>Node6</title>
<g id="a_node6"><a xlink:href="StatusBar_8h.xhtml" target="_top" xlink:title="In this file, the header of the StatusBar class is defined.">
<polygon fill="white" stroke="black" points="377.5,-174 377.5,-193 499.5,-193 499.5,-174 377.5,-174"/>
<text text-anchor="middle" x="438.5" y="-181" font-family="Helvetica,sans-Serif" font-size="10.00">src/status/StatusBar.h</text>
</a>
</g>
</g>
<!-- Node1&#45;&gt;Node6 -->
<g id="edge5" class="edge">
<title>Node1&#45;&gt;Node6</title>
<path fill="none" stroke="midnightblue" d="M511.29,-230.09C492.95,-218.6 467.52,-202.68 452.09,-193.01"/>
<polygon fill="midnightblue" stroke="midnightblue" points="509.56,-233.13 519.89,-235.48 513.27,-227.2 509.56,-233.13"/>
</g>
<!-- Node7 -->
<g id="node7" class="node">
<title>Node7</title>
<g id="a_node7"><a xlink:href="Controller_8h.xhtml" target="_top" xlink:title="In this file, the header of the Controller class is defined.">
<polygon fill="white" stroke="black" points="213.5,-112.5 213.5,-131.5 353.5,-131.5 353.5,-112.5 213.5,-112.5"/>
<text text-anchor="middle" x="283.5" y="-119.5" font-family="Helvetica,sans-Serif" font-size="10.00">src/controller/Controller.h</text>
</a>
</g>
</g>
<!-- Node6&#45;&gt;Node7 -->
<g id="edge6" class="edge">
<title>Node6&#45;&gt;Node7</title>
<path fill="none" stroke="midnightblue" d="M406.67,-170.28C376.55,-158.72 332.12,-141.66 305.67,-131.51"/>
<polygon fill="midnightblue" stroke="midnightblue" points="405.7,-173.66 416.29,-173.98 408.21,-167.12 405.7,-173.66"/>
</g>
<!-- Node11 -->
<g id="node11" class="node">
<title>Node11</title>
<g id="a_node11"><a xlink:href="StatusBar_8cpp.xhtml" target="_top" xlink:title="In this file, the implementation of the StatusBar class is defined.">
<polygon fill="white" stroke="black" points="371.5,-112.5 371.5,-131.5 505.5,-131.5 505.5,-112.5 371.5,-112.5"/>
<text text-anchor="middle" x="438.5" y="-119.5" font-family="Helvetica,sans-Serif" font-size="10.00">src/status/StatusBar.cpp</text>
</a>
</g>
</g>
<!-- Node6&#45;&gt;Node11 -->
<g id="edge14" class="edge">
<title>Node6&#45;&gt;Node11</title>
<path fill="none" stroke="midnightblue" d="M438.5,-163.82C438.5,-153 438.5,-139.9 438.5,-131.51"/>
<polygon fill="midnightblue" stroke="midnightblue" points="435,-163.98 438.5,-173.98 442,-163.98 435,-163.98"/>
</g>
<!-- Node7&#45;&gt;Node3 -->
<g id="edge7" class="edge">
<title>Node7&#45;&gt;Node3</title>
<path fill="none" stroke="midnightblue" d="M360.37,-110.89C405.9,-103.41 457.86,-91.78 474.5,-76 490.37,-60.95 493.21,-33.46 493.57,-19.55"/>
<polygon fill="midnightblue" stroke="midnightblue" points="359.8,-107.43 350.47,-112.47 360.9,-114.35 359.8,-107.43"/>
</g>
<!-- Node8 -->
<g id="node8" class="node">
<title>Node8</title>
<g id="a_node8"><a xlink:href="StubController_8h.xhtml" target="_top" xlink:title="In this file, the header of the StubController class is defined.">
<polygon fill="white" stroke="black" points="96,-56.5 96,-75.5 257,-75.5 257,-56.5 96,-56.5"/>
<text text-anchor="middle" x="176.5" y="-63.5" font-family="Helvetica,sans-Serif" font-size="10.00">src/controller/StubController.h</text>
</a>
</g>
</g>
<!-- Node7&#45;&gt;Node8 -->
<g id="edge8" class="edge">
<title>Node7&#45;&gt;Node8</title>
<path fill="none" stroke="midnightblue" d="M257.2,-107.73C237.39,-97.73 210.79,-84.31 193.65,-75.65"/>
<polygon fill="midnightblue" stroke="midnightblue" points="255.8,-110.94 266.31,-112.32 258.96,-104.69 255.8,-110.94"/>
</g>
<!-- Node9 -->
<g id="node9" class="node">
<title>Node9</title>
<g id="a_node9"><a xlink:href="main_8cpp.xhtml" target="_top" xlink:title="In this file, the main function running the Simopticon framework is defined.">
<polygon fill="white" stroke="black" points="209,-0.5 209,-19.5 288,-19.5 288,-0.5 209,-0.5"/>
<text text-anchor="middle" x="248.5" y="-7.5" font-family="Helvetica,sans-Serif" font-size="10.00">src/main.cpp</text>
</a>
</g>
</g>
<!-- Node7&#45;&gt;Node9 -->
<g id="edge12" class="edge">
<title>Node7&#45;&gt;Node9</title>
<path fill="none" stroke="midnightblue" d="M278.83,-102.39C275.43,-89.32 270.56,-71.48 265.5,-56 261.3,-43.14 255.61,-28.54 251.99,-19.54"/>
<polygon fill="midnightblue" stroke="midnightblue" points="275.44,-103.27 281.31,-112.09 282.22,-101.54 275.44,-103.27"/>
</g>
<!-- Node10 -->
<g id="node10" class="node">
<title>Node10</title>
<g id="a_node10"><a xlink:href="Optimizer_8cpp.xhtml" target="_top" xlink:title="In this file, the implementation of the Optimizer class is defined.">
<polygon fill="white" stroke="black" points="314,-56.5 314,-75.5 465,-75.5 465,-56.5 314,-56.5"/>
<text text-anchor="middle" x="389.5" y="-63.5" font-family="Helvetica,sans-Serif" font-size="10.00">src/optimizer/Optimizer.cpp</text>
</a>
</g>
</g>
<!-- Node7&#45;&gt;Node10 -->
<g id="edge13" class="edge">
<title>Node7&#45;&gt;Node10</title>
<path fill="none" stroke="midnightblue" d="M309.56,-107.73C329.18,-97.73 355.53,-84.31 372.51,-75.65"/>
<polygon fill="midnightblue" stroke="midnightblue" points="307.85,-104.67 300.53,-112.32 311.03,-110.9 307.85,-104.67"/>
</g>
<!-- Node8&#45;&gt;Node2 -->
<g id="edge9" class="edge">
<title>Node8&#45;&gt;Node2</title>
<path fill="none" stroke="midnightblue" d="M153.46,-51.18C136.9,-41.24 115.08,-28.15 100.92,-19.65"/>
<polygon fill="midnightblue" stroke="midnightblue" points="151.66,-54.18 162.04,-56.32 155.27,-48.18 151.66,-54.18"/>
</g>
<!-- Node8&#45;&gt;Node3 -->
<g id="edge10" class="edge">
<title>Node8&#45;&gt;Node3</title>
<path fill="none" stroke="midnightblue" d="M236.8,-54.73C296.71,-44.52 387.49,-29.06 443.51,-19.52"/>
<polygon fill="midnightblue" stroke="midnightblue" points="236,-51.31 226.73,-56.44 237.18,-58.21 236,-51.31"/>
</g>
<!-- Node8&#45;&gt;Node9 -->
<g id="edge11" class="edge">
<title>Node8&#45;&gt;Node9</title>
<path fill="none" stroke="midnightblue" d="M196.37,-50.1C209.32,-40.38 225.8,-28.03 236.72,-19.83"/>
<polygon fill="midnightblue" stroke="midnightblue" points="193.97,-47.52 188.07,-56.32 198.17,-53.12 193.97,-47.52"/>
</g>
</g>
</svg>
