<?xml version="1.0" encoding="UTF-8" standalone="no"?>
<!DOCTYPE svg PUBLIC "-//W3C//DTD SVG 1.1//EN"
 "http://www.w3.org/Graphics/SVG/1.1/DTD/svg11.dtd">
<!-- Generated by graphviz version 2.43.0 (0)
 -->
<!-- Title: /home/runner/work/Simopticon/Simopticon/src/controller/ValueMap.h Pages: 1 -->
<!--zoomable 362 -->
<svg id="main" version="1.1" xmlns="http://www.w3.org/2000/svg" xmlns:xlink="http://www.w3.org/1999/xlink" xml:space="preserve" onload="init(evt)">
<style type="text/css"><![CDATA[
.edge:hover path { stroke: red; }
.edge:hover polygon { stroke: red; fill: red; }
]]></style>
<script type="text/javascript"><![CDATA[
var edges = document.getElementsByTagName('g');
if (edges && edges.length) {
  for (var i=0;i<edges.length;i++) {
    if (edges[i].id.substr(0,4)=='edge') {
      edges[i].setAttribute('class','edge');
    }
  }
}
]]></script>
        <defs>
                <circle id="rim" cx="0" cy="0" r="7"/>
                <circle id="rim2" cx="0" cy="0" r="3.5"/>
                <g id="zoomPlus">
                        <use xlink:href="#rim" fill="#404040">
                                <set attributeName="fill" to="#808080" begin="zoomplus.mouseover" end="zoomplus.mouseout"/>
                        </use>
                        <path d="M-4,0h8M0,-4v8" fill="none" stroke="white" stroke-width="1.5" pointer-events="none"/>
                </g>
                <g id="zoomMin">
                        <use xlink:href="#rim" fill="#404040">
                                <set attributeName="fill" to="#808080" begin="zoomminus.mouseover" end="zoomminus.mouseout"/>
                        </use>
                        <path d="M-4,0h8" fill="none" stroke="white" stroke-width="1.5" pointer-events="none"/>
                </g>
                <g id="dirArrow">
                        <path fill="none" stroke="white" stroke-width="1.5" d="M0,-3.0v7 M-2.5,-0.5L0,-3.0L2.5,-0.5"/>
                </g>
               <g id="resetDef">
                       <use xlink:href="#rim2" fill="#404040">
                               <set attributeName="fill" to="#808080" begin="reset.mouseover" end="reset.mouseout"/>
                       </use>
               </g>
        </defs>

<script type="text/javascript">
var viewWidth = 1301;
var viewHeight = 362;
var sectionId = 'dynsection-1';
</script>
<script xlink:href="svgpan.js"/>
<svg id="graph" class="graph">
<g id="viewport">
<title>/home/runner/work/Simopticon/Simopticon/src/controller/ValueMap.h</title>
<polygon fill="white" stroke="transparent" points="-4,4 -4,-358 1296.5,-358 1296.5,4 -4,4"/>
<!-- Node1 -->
<g id="node1" class="node">
<title>Node1</title>
<g id="a_node1"><a xlink:title="In this file, the header of the ValueMap class is defined.">
<polygon fill="#bfbfbf" stroke="black" points="593,-312.5 593,-353.5 760,-353.5 760,-312.5 593,-312.5"/>
<text text-anchor="start" x="601" y="-341.5" font-family="Helvetica,sans-Serif" font-size="10.00">/home/runner/work/Simopticon</text>
<text text-anchor="start" x="601" y="-330.5" font-family="Helvetica,sans-Serif" font-size="10.00">/Simopticon/src/controller</text>
<text text-anchor="middle" x="676.5" y="-319.5" font-family="Helvetica,sans-Serif" font-size="10.00">/ValueMap.h</text>
</a>
</g>
</g>
<!-- Node2 -->
<g id="node2" class="node">
<title>Node2</title>
<g id="a_node2"><a xlink:href="ValueMap_8cpp.xhtml" target="_top" xlink:title="In this file, the implementation of the ValueMap class is defined.">
<polygon fill="white" stroke="black" points="0,-234.5 0,-275.5 167,-275.5 167,-234.5 0,-234.5"/>
<text text-anchor="start" x="8" y="-263.5" font-family="Helvetica,sans-Serif" font-size="10.00">/home/runner/work/Simopticon</text>
<text text-anchor="start" x="8" y="-252.5" font-family="Helvetica,sans-Serif" font-size="10.00">/Simopticon/src/controller</text>
<text text-anchor="middle" x="83.5" y="-241.5" font-family="Helvetica,sans-Serif" font-size="10.00">/ValueMap.cpp</text>
</a>
</g>
</g>
<!-- Node1&#45;&gt;Node2 -->
<g id="edge1" class="edge">
<title>Node1&#45;&gt;Node2</title>
<path fill="none" stroke="midnightblue" d="M582.74,-323.98C482.75,-314.82 319.91,-298.2 180.5,-276 176.09,-275.3 171.57,-274.53 167.01,-273.72"/>
<polygon fill="midnightblue" stroke="midnightblue" points="582.54,-327.47 592.81,-324.89 583.17,-320.5 582.54,-327.47"/>
</g>
<!-- Node3 -->
<g id="node3" class="node">
<title>Node3</title>
<g id="a_node3"><a xlink:href="StubController_8cpp.xhtml" target="_top" xlink:title="In this file, the implementation of the StubController class is defined.">
<polygon fill="white" stroke="black" points="121,-0.5 121,-41.5 288,-41.5 288,-0.5 121,-0.5"/>
<text text-anchor="start" x="129" y="-29.5" font-family="Helvetica,sans-Serif" font-size="10.00">/home/runner/work/Simopticon</text>
<text text-anchor="start" x="129" y="-18.5" font-family="Helvetica,sans-Serif" font-size="10.00">/Simopticon/src/controller</text>
<text text-anchor="middle" x="204.5" y="-7.5" font-family="Helvetica,sans-Serif" font-size="10.00">/StubController.cpp</text>
</a>
</g>
</g>
<!-- Node1&#45;&gt;Node3 -->
<g id="edge2" class="edge">
<title>Node1&#45;&gt;Node3</title>
<path fill="none" stroke="midnightblue" d="M582.64,-322.27C491.45,-308.46 353.62,-275.54 261.5,-198 230.18,-171.63 225.42,-158.85 212.5,-120 203.82,-93.92 202.9,-61.88 203.4,-41.7"/>
<polygon fill="midnightblue" stroke="midnightblue" points="582.29,-325.75 592.69,-323.74 583.31,-318.83 582.29,-325.75"/>
</g>
<!-- Node4 -->
<g id="node4" class="node">
<title>Node4</title>
<g id="a_node4"><a xlink:href="Controller_8cpp.xhtml" target="_top" xlink:title="In this file, the implementation of the Controller class is defined.">
<polygon fill="white" stroke="black" points="555,-0.5 555,-41.5 722,-41.5 722,-0.5 555,-0.5"/>
<text text-anchor="start" x="563" y="-29.5" font-family="Helvetica,sans-Serif" font-size="10.00">/home/runner/work/Simopticon</text>
<text text-anchor="start" x="563" y="-18.5" font-family="Helvetica,sans-Serif" font-size="10.00">/Simopticon/src/controller</text>
<text text-anchor="middle" x="638.5" y="-7.5" font-family="Helvetica,sans-Serif" font-size="10.00">/Controller.cpp</text>
</a>
</g>
</g>
<!-- Node1&#45;&gt;Node4 -->
<g id="edge3" class="edge">
<title>Node1&#45;&gt;Node4</title>
<path fill="none" stroke="midnightblue" d="M673.61,-302.42C670.12,-267.42 663.92,-207.41 657.5,-156 652.41,-115.2 645.4,-67.56 641.47,-41.5"/>
<polygon fill="midnightblue" stroke="midnightblue" points="670.13,-302.84 674.6,-312.44 677.1,-302.15 670.13,-302.84"/>
</g>
<!-- Node5 -->
<g id="node5" class="node">
<title>Node5</title>
<g id="a_node5"><a xlink:href="DirectOptimizer_8cpp.xhtml" target="_top" xlink:title="In this file, the implementation of the DirectOptimizer class is defined.">
<polygon fill="white" stroke="black" points="704,-234.5 704,-275.5 871,-275.5 871,-234.5 704,-234.5"/>
<text text-anchor="start" x="712" y="-263.5" font-family="Helvetica,sans-Serif" font-size="10.00">/home/runner/work/Simopticon</text>
<text text-anchor="start" x="712" y="-252.5" font-family="Helvetica,sans-Serif" font-size="10.00">/Simopticon/src/optimizer</text>
<text text-anchor="middle" x="787.5" y="-241.5" font-family="Helvetica,sans-Serif" font-size="10.00">/direct/DirectOptimizer.cpp</text>
</a>
</g>
</g>
<!-- Node1&#45;&gt;Node5 -->
<g id="edge4" class="edge">
<title>Node1&#45;&gt;Node5</title>
<path fill="none" stroke="midnightblue" d="M713.55,-306.64C728.37,-296.49 745.17,-284.98 759.01,-275.51"/>
<polygon fill="midnightblue" stroke="midnightblue" points="711.36,-303.89 705.09,-312.43 715.31,-309.67 711.36,-303.89"/>
</g>
<!-- Node6 -->
<g id="node6" class="node">
<title>Node6</title>
<g id="a_node6"><a xlink:href="MonteCarlo_8cpp.xhtml" target="_top" xlink:title="In this file, the implementation of the MonteCarlo optimizer class is defined.">
<polygon fill="white" stroke="black" points="889,-234.5 889,-275.5 1056,-275.5 1056,-234.5 889,-234.5"/>
<text text-anchor="start" x="897" y="-263.5" font-family="Helvetica,sans-Serif" font-size="10.00">/home/runner/work/Simopticon</text>
<text text-anchor="start" x="897" y="-252.5" font-family="Helvetica,sans-Serif" font-size="10.00">/Simopticon/src/optimizer</text>
<text text-anchor="middle" x="972.5" y="-241.5" font-family="Helvetica,sans-Serif" font-size="10.00">/montecarlo/MonteCarlo.cpp</text>
</a>
</g>
</g>
<!-- Node1&#45;&gt;Node6 -->
<g id="edge5" class="edge">
<title>Node1&#45;&gt;Node6</title>
<path fill="none" stroke="midnightblue" d="M762.48,-309.92C804.88,-299.04 855.57,-286.02 896.53,-275.51"/>
<polygon fill="midnightblue" stroke="midnightblue" points="761.54,-306.55 752.73,-312.43 763.28,-313.33 761.54,-306.55"/>
</g>
<!-- Node7 -->
<g id="node7" class="node">
<title>Node7</title>
<g id="a_node7"><a xlink:href="RandomNeighbors_8cpp.xhtml" target="_top" xlink:title="In this file, the implementation of the RandomNeighbors optimizer class is defined.">
<polygon fill="white" stroke="black" points="1074.5,-234.5 1074.5,-275.5 1292.5,-275.5 1292.5,-234.5 1074.5,-234.5"/>
<text text-anchor="start" x="1082.5" y="-263.5" font-family="Helvetica,sans-Serif" font-size="10.00">/home/runner/work/Simopticon</text>
<text text-anchor="start" x="1082.5" y="-252.5" font-family="Helvetica,sans-Serif" font-size="10.00">/Simopticon/src/optimizer</text>
<text text-anchor="middle" x="1183.5" y="-241.5" font-family="Helvetica,sans-Serif" font-size="10.00">/randomneighbors/RandomNeighbors.cpp</text>
</a>
</g>
</g>
<!-- Node1&#45;&gt;Node7 -->
<g id="edge6" class="edge">
<title>Node1&#45;&gt;Node7</title>
<path fill="none" stroke="midnightblue" d="M769.97,-319.21C848.83,-308.26 964.66,-291.8 1065.5,-276 1068.37,-275.55 1071.29,-275.09 1074.22,-274.62"/>
<polygon fill="midnightblue" stroke="midnightblue" points="769.49,-315.74 760.06,-320.58 770.45,-322.68 769.49,-315.74"/>
</g>
<!-- Node8 -->
<g id="node8" class="node">
<title>Node8</title>
<g id="a_node8"><a xlink:href="StatusBar_8h.xhtml" target="_top" xlink:title="In this file, the header of the StatusBar class is defined.">
<polygon fill="white" stroke="black" points="460,-240 460,-270 643,-270 643,-240 460,-240"/>
<text text-anchor="start" x="468" y="-258" font-family="Helvetica,sans-Serif" font-size="10.00">/home/runner/work/Simopticon</text>
<text text-anchor="middle" x="551.5" y="-247" font-family="Helvetica,sans-Serif" font-size="10.00">/Simopticon/src/status/StatusBar.h</text>
</a>
</g>
</g>
<!-- Node1&#45;&gt;Node8 -->
<g id="edge7" class="edge">
<title>Node1&#45;&gt;Node8</title>
<path fill="none" stroke="midnightblue" d="M635.63,-307.15C615.5,-294.91 591.95,-280.59 574.9,-270.23"/>
<polygon fill="midnightblue" stroke="midnightblue" points="633.95,-310.22 644.31,-312.43 637.58,-304.24 633.95,-310.22"/>
</g>
<!-- Node9 -->
<g id="node9" class="node">
<title>Node9</title>
<g id="a_node9"><a xlink:href="Controller_8h.xhtml" target="_top" xlink:title="In this file, the header of the Controller class is defined.">
<polygon fill="white" stroke="black" points="270,-156.5 270,-197.5 437,-197.5 437,-156.5 270,-156.5"/>
<text text-anchor="start" x="278" y="-185.5" font-family="Helvetica,sans-Serif" font-size="10.00">/home/runner/work/Simopticon</text>
<text text-anchor="start" x="278" y="-174.5" font-family="Helvetica,sans-Serif" font-size="10.00">/Simopticon/src/controller</text>
<text text-anchor="middle" x="353.5" y="-163.5" font-family="Helvetica,sans-Serif" font-size="10.00">/Controller.h</text>
</a>
</g>
</g>
<!-- Node8&#45;&gt;Node9 -->
<g id="edge8" class="edge">
<title>Node8&#45;&gt;Node9</title>
<path fill="none" stroke="midnightblue" d="M505.28,-236.26C475.12,-224.68 435.73,-209.56 404.64,-197.63"/>
<polygon fill="midnightblue" stroke="midnightblue" points="504.13,-239.57 514.72,-239.88 506.64,-233.03 504.13,-239.57"/>
</g>
<!-- Node13 -->
<g id="node13" class="node">
<title>Node13</title>
<g id="a_node13"><a xlink:href="StatusBar_8cpp.xhtml" target="_top" xlink:title="In this file, the implementation of the StatusBar class is defined.">
<polygon fill="white" stroke="black" points="454.5,-162 454.5,-192 648.5,-192 648.5,-162 454.5,-162"/>
<text text-anchor="start" x="462.5" y="-180" font-family="Helvetica,sans-Serif" font-size="10.00">/home/runner/work/Simopticon</text>
<text text-anchor="middle" x="551.5" y="-169" font-family="Helvetica,sans-Serif" font-size="10.00">/Simopticon/src/status/StatusBar.cpp</text>
</a>
</g>
</g>
<!-- Node8&#45;&gt;Node13 -->
<g id="edge16" class="edge">
<title>Node8&#45;&gt;Node13</title>
<path fill="none" stroke="midnightblue" d="M551.5,-229.59C551.5,-217.26 551.5,-202.72 551.5,-192.23"/>
<polygon fill="midnightblue" stroke="midnightblue" points="548,-229.7 551.5,-239.7 555,-229.71 548,-229.7"/>
</g>
<!-- Node9&#45;&gt;Node4 -->
<g id="edge9" class="edge">
<title>Node9&#45;&gt;Node4</title>
<path fill="none" stroke="midnightblue" d="M447.1,-155.87C526.47,-142.33 567.12,-174.53 620.5,-120 640.71,-99.36 642.21,-63.94 640.81,-41.81"/>
<polygon fill="midnightblue" stroke="midnightblue" points="446.39,-152.44 437.23,-157.76 447.71,-159.32 446.39,-152.44"/>
</g>
<!-- Node10 -->
<g id="node10" class="node">
<title>Node10</title>
<g id="a_node10"><a xlink:href="main_8cpp.xhtml" target="_top" xlink:title="In this file, the main function running the Simopticon framework is defined.">
<polygon fill="white" stroke="black" points="315,-6 315,-36 482,-36 482,-6 315,-6"/>
<text text-anchor="start" x="323" y="-24" font-family="Helvetica,sans-Serif" font-size="10.00">/home/runner/work/Simopticon</text>
<text text-anchor="middle" x="398.5" y="-13" font-family="Helvetica,sans-Serif" font-size="10.00">/Simopticon/src/main.cpp</text>
</a>
</g>
</g>
<!-- Node9&#45;&gt;Node10 -->
<g id="edge10" class="edge">
<title>Node9&#45;&gt;Node10</title>
<path fill="none" stroke="midnightblue" d="M380.66,-148.76C387.47,-140.24 393.86,-130.34 397.5,-120 407.49,-91.59 404.14,-55.62 401.13,-36.12"/>
<polygon fill="midnightblue" stroke="midnightblue" points="377.91,-146.59 374.09,-156.47 383.24,-151.13 377.91,-146.59"/>
</g>
<!-- Node11 -->
<g id="node11" class="node">
<title>Node11</title>
<g id="a_node11"><a xlink:href="StubController_8h.xhtml" target="_top" xlink:title="In this file, the header of the StubController class is defined.">
<polygon fill="white" stroke="black" points="222,-78.5 222,-119.5 389,-119.5 389,-78.5 222,-78.5"/>
<text text-anchor="start" x="230" y="-107.5" font-family="Helvetica,sans-Serif" font-size="10.00">/home/runner/work/Simopticon</text>
<text text-anchor="start" x="230" y="-96.5" font-family="Helvetica,sans-Serif" font-size="10.00">/Simopticon/src/controller</text>
<text text-anchor="middle" x="305.5" y="-85.5" font-family="Helvetica,sans-Serif" font-size="10.00">/StubController.h</text>
</a>
</g>
</g>
<!-- Node9&#45;&gt;Node11 -->
<g id="edge11" class="edge">
<title>Node9&#45;&gt;Node11</title>
<path fill="none" stroke="midnightblue" d="M335.66,-147.76C329.72,-138.35 323.24,-128.1 317.82,-119.51"/>
<polygon fill="midnightblue" stroke="midnightblue" points="332.84,-149.84 341.14,-156.43 338.76,-146.1 332.84,-149.84"/>
</g>
<!-- Node12 -->
<g id="node12" class="node">
<title>Node12</title>
<g id="a_node12"><a xlink:href="Optimizer_8cpp.xhtml" target="_top" xlink:title="In this file, the implementation of the Optimizer class is defined.">
<polygon fill="white" stroke="black" points="444,-78.5 444,-119.5 611,-119.5 611,-78.5 444,-78.5"/>
<text text-anchor="start" x="452" y="-107.5" font-family="Helvetica,sans-Serif" font-size="10.00">/home/runner/work/Simopticon</text>
<text text-anchor="start" x="452" y="-96.5" font-family="Helvetica,sans-Serif" font-size="10.00">/Simopticon/src/optimizer</text>
<text text-anchor="middle" x="527.5" y="-85.5" font-family="Helvetica,sans-Serif" font-size="10.00">/Optimizer.cpp</text>
</a>
</g>
</g>
<!-- Node9&#45;&gt;Node12 -->
<g id="edge15" class="edge">
<title>Node9&#45;&gt;Node12</title>
<path fill="none" stroke="midnightblue" d="M407.69,-152.33C431.84,-141.78 459.93,-129.51 482.84,-119.51"/>
<polygon fill="midnightblue" stroke="midnightblue" points="406.07,-149.22 398.31,-156.43 408.87,-155.63 406.07,-149.22"/>
</g>
<!-- Node11&#45;&gt;Node3 -->
<g id="edge12" class="edge">
<title>Node11&#45;&gt;Node3</title>
<path fill="none" stroke="midnightblue" d="M271.41,-72.35C258.02,-62.27 242.9,-50.89 230.42,-41.51"/>
<polygon fill="midnightblue" stroke="midnightblue" points="269.4,-75.21 279.49,-78.43 273.6,-69.62 269.4,-75.21"/>
</g>
<!-- Node11&#45;&gt;Node4 -->
<g id="edge13" class="edge">
<title>Node11&#45;&gt;Node4</title>
<path fill="none" stroke="midnightblue" d="M399.06,-76.65C448.02,-65.47 507.46,-51.91 554.87,-41.09"/>
<polygon fill="midnightblue" stroke="midnightblue" points="398.07,-73.28 389.1,-78.92 399.63,-80.11 398.07,-73.28"/>
</g>
<!-- Node11&#45;&gt;Node10 -->
<g id="edge14" class="edge">
<title>Node11&#45;&gt;Node10</title>
<path fill="none" stroke="midnightblue" d="M337.33,-71.99C351.98,-60.02 368.8,-46.27 381.09,-36.23"/>
<polygon fill="midnightblue" stroke="midnightblue" points="334.98,-69.39 329.45,-78.43 339.41,-74.81 334.98,-69.39"/>
</g>
</g>
</svg>
        <g id="navigator" transform="translate(0 0)" fill="#404254">
                <rect fill="#f2f5e9" fill-opacity="0.5" stroke="#606060" stroke-width=".5" x="0" y="0" width="60" height="60"/>
                <use id="zoomplus" xlink:href="#zoomPlus" x="17" y="9" onmousedown="handleZoom(evt,'in')"/>
                <use id="zoomminus" xlink:href="#zoomMin" x="42" y="9" onmousedown="handleZoom(evt,'out')"/>
                <use id="reset" xlink:href="#resetDef" x="30" y="36" onmousedown="handleReset()"/>
                <g id="arrowUp" xlink:href="#dirArrow" transform="translate(30 24)" onmousedown="handlePan(0,-1)">
                  <use xlink:href="#rim" fill="#404040">
                        <set attributeName="fill" to="#808080" begin="arrowUp.mouseover" end="arrowUp.mouseout"/>
                  </use>
                  <path fill="none" stroke="white" stroke-width="1.5" d="M0,-3.0v7 M-2.5,-0.5L0,-3.0L2.5,-0.5"/>
                </g>
                <g id="arrowRight" xlink:href="#dirArrow" transform="rotate(90) translate(36 -43)" onmousedown="handlePan(1,0)">
                  <use xlink:href="#rim" fill="#404040">
                        <set attributeName="fill" to="#808080" begin="arrowRight.mouseover" end="arrowRight.mouseout"/>
                  </use>
                  <path fill="none" stroke="white" stroke-width="1.5" d="M0,-3.0v7 M-2.5,-0.5L0,-3.0L2.5,-0.5"/>
                </g>
                <g id="arrowDown" xlink:href="#dirArrow" transform="rotate(180) translate(-30 -48)" onmousedown="handlePan(0,1)">
                  <use xlink:href="#rim" fill="#404040">
                        <set attributeName="fill" to="#808080" begin="arrowDown.mouseover" end="arrowDown.mouseout"/>
                  </use>
                  <path fill="none" stroke="white" stroke-width="1.5" d="M0,-3.0v7 M-2.5,-0.5L0,-3.0L2.5,-0.5"/>
                </g>
                <g id="arrowLeft" xlink:href="#dirArrow" transform="rotate(270) translate(-36 17)" onmousedown="handlePan(-1,0)">
                  <use xlink:href="#rim" fill="#404040">
                        <set attributeName="fill" to="#808080" begin="arrowLeft.mouseover" end="arrowLeft.mouseout"/>
                  </use>
                  <path fill="none" stroke="white" stroke-width="1.5" d="M0,-3.0v7 M-2.5,-0.5L0,-3.0L2.5,-0.5"/>
                </g>
        </g>
        <svg viewBox="0 0 15 15" width="100%" height="30px" preserveAspectRatio="xMaxYMin meet">
         <g id="arrow_out" transform="scale(0.3 0.3)">
          <a xlink:href="ValueMap_8h__dep__incl_org.svg" target="_base">
           <rect id="button" ry="5" rx="5" y="6" x="6" height="38" width="38"
                fill="#f2f5e9" fill-opacity="0.5" stroke="#606060" stroke-width="1.0"/>
           <path id="arrow"
             d="M 11.500037,31.436501 C 11.940474,20.09759 22.043105,11.32322 32.158766,21.979434 L 37.068811,17.246167 C 37.068811,17.246167 37.088388,32 37.088388,32 L 22.160133,31.978069 C 22.160133,31.978069 26.997745,27.140456 26.997745,27.140456 C 18.528582,18.264221 13.291696,25.230495 11.500037,31.436501 z"
             style="fill:#404040;"/>
          </a>
         </g>
        </svg>
</svg>
